<svg xmlns="http://www.w3.org/2000/svg" xmlns:xlink="http://www.w3.org/1999/xlink" viewBox="0 0 155.4 195.2">
    <defs>
        <clipPath id="clip-path" transform="translate(7.9)">
            <circle cx="63.1" cy="63.7" r="52.4" fill="none"/>
        </clipPath>
    </defs>
    <title>Ресурс 5</title>
    <g id="Слой_2" data-name="Слой 2">
        <g id="Иконки">
            <path d="M125.6,61.5c0,.7.1,1.3.1,2a61.1,61.1,0,0,1-.6,8.6,61.9,61.9,0,0,1-8.2,23.2c-13.6,22.9-25.1,46.9-35.4,71.5l-9.1,21.7a9,9,0,0,1-2.5,3.5,9.8,9.8,0,0,1-13,0,9,9,0,0,1-2.5-3.5l-9.1-21.7C35,142.2,23.5,118.2,9.9,95.3A61.9,61.9,0,0,1,1.7,72.1a61.1,61.1,0,0,1-.6-8.6c0-.7.1-1.3.1-2h0c0-.8.1-1.6.1-2.4A62.3,62.3,0,0,1,56.9,1.6a46.3,46.3,0,0,1,6.5-.4,46.3,46.3,0,0,1,6.5.4A62.3,62.3,0,0,1,125.5,59c0,.8.1,1.6.1,2.4Z"
                  transform="translate(7.9)" fill="#fff"/>
            <path d="M125.7,61.5a63.2,63.2,0,0,1-6.3,29.9c-1.1,2.3-2.4,4.5-3.7,6.8s-2.5,4.4-3.7,6.7c-2.4,4.5-4.8,9-7.1,13.6-9.2,18.3-17.5,37-25.4,55.9l-6.1,14.1a12.9,12.9,0,0,1-2.2,3.5,10.9,10.9,0,0,1-11.5,2.5,10.1,10.1,0,0,1-5.8-5.5L51,181.9l-5.8-14.3a540.9,540.9,0,0,0-26.5-55.4c-2.5-4.5-5.1-8.9-7.7-13.3-1.3-2.2-2.7-4.3-3.9-6.7s-2.2-4.7-3.2-7.1A61,61,0,0,1,.4,69.9,51,51,0,0,1,0,62.1c.1-1.3.1-2.6.2-3.9l.5-3.9A61.5,61.5,0,0,1,4.8,39.2l.7-1.8.9-1.7c.6-1.2,1.1-2.4,1.7-3.5a62.5,62.5,0,0,1,4.3-6.6,49,49,0,0,1,5.1-6c.9-1,1.8-1.8,2.8-2.8l1.4-1.3,1.5-1.2A63.5,63.5,0,0,1,36.5,5.9l3.6-1.5,3.7-1.3,1.9-.6L47.6,2l3.8-.9C54,.8,56.5.2,59.2.1A67.7,67.7,0,0,1,67,.1c2.6.2,5.2.7,7.7,1.1h1l1,.3,1.9.4c1.2.4,2.5.6,3.7,1.1L86,4.4,89.6,6l1.7.8,1.7,1,3.4,1.9a71.8,71.8,0,0,1,12,9.9l2.5,2.9,1.3,1.5,1.1,1.6a25.7,25.7,0,0,1,2.2,3.2l2,3.3a9.1,9.1,0,0,1,.9,1.7l.9,1.7c.5,1.2,1.1,2.3,1.6,3.5l1.4,3.6,1.1,3.7a10.5,10.5,0,0,1,.5,1.9l.4,1.9c.2,1.2.5,2.5.7,3.7A66.8,66.8,0,0,1,125.7,61.5Zm-.2,0a62.3,62.3,0,0,0-8.6-29.1l-2.1-3.2c-.6-1.1-1.5-2-2.2-3.1l-1.2-1.5-1.3-1.4-2.6-2.8a64.2,64.2,0,0,0-12-9.3L92.2,9.3l-1.7-.9-1.7-.7L85.3,6.3,81.7,5.1a22.4,22.4,0,0,0-3.7-1l-1.8-.4-.9-.2-.9-.2c-2.5-.3-5-.7-7.5-.8a64,64,0,0,0-7.6.1,59.9,59.9,0,0,0-7.4,1c-1.3.2-2.5.6-3.7.9l-1.8.4-1.8.6L41,6.7,37.6,8.3a57.8,57.8,0,0,0-12.7,8l-1.5,1.2-1.3,1.3a33.1,33.1,0,0,0-2.7,2.6l-2.5,2.8-.7.7-.5.7-1.2,1.5c-1.6,2-2.8,4.2-4.2,6.3L8.6,36.7l-.8,1.7-.7,1.8A55.9,55.9,0,0,0,3,54.7,60.1,60.1,0,0,0,5.8,84.4a47.6,47.6,0,0,0,3,7c1.1,2.2,2.4,4.4,3.7,6.7,2.5,4.4,5,8.9,7.4,13.5s4.7,9.1,7,13.7l6.6,13.9c4.3,9.3,8.4,18.7,12.5,28.1l6,14.2,3,7a8.9,8.9,0,0,0,5.2,4.7,9.1,9.1,0,0,0,11.6-5.4l5.8-14.2c3.9-9.5,7.8-19,12.1-28.3s8.9-18.5,13.8-27.5c2.5-4.5,5-9,7.6-13.5,1.3-2.2,2.5-4.4,3.9-6.6s2.7-4.3,3.8-6.6A59.8,59.8,0,0,0,125.5,61.5Z"
                  transform="translate(7.9)" fill="#522578"/>
            <circle cx="70.9" cy="63.7" r="52.4" fill="#fff"/>
            <path d="M10.5,63.7a56.1,56.1,0,0,1,3.8-20.2,52.2,52.2,0,0,1,11-17.6,50.8,50.8,0,0,1,17.2-12,51.5,51.5,0,0,1,20.6-4,55,55,0,0,1,20.4,4.5l4.7,2.4,4.4,2.8,4.1,3.2,3.8,3.5a55.4,55.4,0,0,1,15.9,37.4,52.2,52.2,0,0,1-3.7,20.6,53.9,53.9,0,0,1-11.4,17.6,56.6,56.6,0,0,1-17.5,11.9,54.2,54.2,0,0,1-20.7,4.1,52.6,52.6,0,0,1-20.7-4.3,49.3,49.3,0,0,1-17.2-12.1A53.6,53.6,0,0,1,14.3,83.9,55.7,55.7,0,0,1,10.5,63.7Zm.4,0a48.7,48.7,0,0,0,4.2,19.9A50.3,50.3,0,0,0,26.8,99.9a53.2,53.2,0,0,0,36.3,14.4A52,52,0,0,0,99,99.6a52.4,52.4,0,0,0,15.5-35.9,50,50,0,0,0-3.6-19.8A49,49,0,0,0,99.7,27.1,50.8,50.8,0,0,0,63.1,12.8a54.2,54.2,0,0,0-19.5,3.9A57.2,57.2,0,0,0,26.8,27.4,51.8,51.8,0,0,0,15.1,43.8c-.6,1.6-1.3,3.2-1.8,4.8s-1,3.3-1.4,4.9-.5,3.4-.7,5.1Z"
                  transform="translate(7.9)" fill="#572381"/>
            <g clip-path="url(#clip-path)">
                <circle cx="70.9" cy="63.7" r="52.4" fill="#fff"/>
                <rect x="31.9" y="50.6" width="26" height="26.04" fill="#522578"/>
                <rect x="5.9" y="76.6" width="26" height="26.04" fill="#522578"/>
                <rect x="5.9" y="24.5" width="26" height="26.04" fill="#522578"/>
                <rect x="58" y="76.6" width="26" height="26.04" fill="#522578"/>
                <rect x="84" y="50.6" width="26" height="26.04" fill="#522578"/>
                <rect x="110.1" y="76.6" width="26" height="26.04" fill="#522578"/>
                <rect x="110.1" y="24.5" width="26" height="26.04" fill="#522578"/>
                <rect x="58" y="24.5" width="26" height="26.04" fill="#522578"/>
                <rect y="24.5" width="155.4" height="3.67" fill="#572381"/>
                <rect y="99" width="155.4" height="3.67" fill="#572381"/>
            </g>
        </g>
    </g>
</svg>