<svg xmlns="http://www.w3.org/2000/svg" viewBox="0 0 125.8 195.2">
    <title>Ресурс 1</title>
    <g id="Слой_2" data-name="Слой 2">
        <g id="Иконки">
            <path d="M125.6,61.5c0,.7.1,1.3.1,2a61.1,61.1,0,0,1-.6,8.6,61.9,61.9,0,0,1-8.2,23.2c-13.6,22.9-25.1,46.9-35.4,71.5l-9.1,21.7a9,9,0,0,1-2.5,3.5,9.8,9.8,0,0,1-13,0,9,9,0,0,1-2.5-3.5l-9.1-21.7C35,142.2,23.5,118.2,9.9,95.3A61.9,61.9,0,0,1,1.7,72.1a61.1,61.1,0,0,1-.6-8.6c0-.7.1-1.3.1-2h0c0-.8.1-1.6.1-2.4A62.3,62.3,0,0,1,56.9,1.6a46.3,46.3,0,0,1,6.5-.4,46.3,46.3,0,0,1,6.5.4A62.3,62.3,0,0,1,125.5,59c0,.8.1,1.6.1,2.4Z"
                  fill="#fff"/>
            <path d="M125.7,61.5a63.2,63.2,0,0,1-6.3,29.9c-1.1,2.3-2.4,4.5-3.7,6.8s-2.5,4.4-3.7,6.7c-2.4,4.5-4.8,9-7.1,13.6-9.2,18.3-17.5,37-25.4,55.9l-6.1,14.1a12.9,12.9,0,0,1-2.2,3.5,10.9,10.9,0,0,1-11.5,2.5,10.1,10.1,0,0,1-5.8-5.5L51,181.9l-5.8-14.3a540.9,540.9,0,0,0-26.5-55.4c-2.5-4.5-5.1-8.9-7.7-13.3-1.3-2.2-2.7-4.3-3.9-6.7s-2.2-4.7-3.2-7.1A61,61,0,0,1,.4,69.9,51,51,0,0,1,0,62.1c.1-1.3.1-2.6.2-3.9l.5-3.9A61.5,61.5,0,0,1,4.8,39.2l.7-1.8.9-1.7c.6-1.2,1.1-2.4,1.7-3.5a62.5,62.5,0,0,1,4.3-6.6,49,49,0,0,1,5.1-6c.9-1,1.8-1.8,2.8-2.8l1.4-1.3,1.5-1.2A63.5,63.5,0,0,1,36.5,5.9l3.6-1.5,3.7-1.3,1.9-.6L47.6,2l3.8-.9C54,.8,56.5.2,59.2.1A67.7,67.7,0,0,1,67,.1c2.6.2,5.2.7,7.7,1.1h1l1,.3,1.9.4c1.2.4,2.5.6,3.7,1.1L86,4.4,89.6,6l1.7.8,1.7,1,3.4,1.9a71.8,71.8,0,0,1,12,9.9l2.5,2.9,1.3,1.5,1.1,1.6a25.7,25.7,0,0,1,2.2,3.2l2,3.3a9.1,9.1,0,0,1,.9,1.7l.9,1.7c.5,1.2,1.1,2.3,1.6,3.5l1.4,3.6,1.1,3.7a10.5,10.5,0,0,1,.5,1.9l.4,1.9c.2,1.2.5,2.5.7,3.7A66.8,66.8,0,0,1,125.7,61.5Zm-.2,0a62.3,62.3,0,0,0-8.6-29.1l-2.1-3.2c-.6-1.1-1.5-2-2.2-3.1l-1.2-1.5-1.3-1.4-2.6-2.8a64.2,64.2,0,0,0-12-9.3L92.2,9.3l-1.7-.9-1.7-.7L85.3,6.3,81.7,5.1a22.4,22.4,0,0,0-3.7-1l-1.8-.4-.9-.2-.9-.2c-2.5-.3-5-.7-7.5-.8a64,64,0,0,0-7.6.1,59.9,59.9,0,0,0-7.4,1c-1.3.2-2.5.6-3.7.9l-1.8.4-1.8.6L41,6.7,37.6,8.3a57.8,57.8,0,0,0-12.7,8l-1.5,1.2-1.3,1.3a33.1,33.1,0,0,0-2.7,2.6l-2.5,2.8-.7.7-.5.7-1.2,1.5c-1.6,2-2.8,4.2-4.2,6.3L8.6,36.7l-.8,1.7-.7,1.8A55.9,55.9,0,0,0,3,54.7,60.1,60.1,0,0,0,5.8,84.4a47.6,47.6,0,0,0,3,7c1.1,2.2,2.4,4.4,3.7,6.7,2.5,4.4,5,8.9,7.4,13.5s4.7,9.1,7,13.7l6.6,13.9c4.3,9.3,8.4,18.7,12.5,28.1l6,14.2,3,7a8.9,8.9,0,0,0,5.2,4.7,9.1,9.1,0,0,0,11.6-5.4l5.8-14.2c3.9-9.5,7.8-19,12.1-28.3s8.9-18.5,13.8-27.5c2.5-4.5,5-9,7.6-13.5,1.3-2.2,2.5-4.4,3.9-6.6s2.7-4.3,3.8-6.6A59.8,59.8,0,0,0,125.5,61.5Z"
                  fill="#522578"/>
            <circle cx="63.4" cy="65.5" r="46.6" fill="#fff"/>
            <path d="M16.7,65.5A48.4,48.4,0,0,1,30.1,32.2,45.4,45.4,0,0,1,63.4,18.3a44.7,44.7,0,0,1,18,3.8A47.1,47.1,0,0,1,96.5,32.4a49,49,0,0,1,10.2,15.2,47.8,47.8,0,0,1,3.7,17.9A46.8,46.8,0,0,1,96.9,99a47.3,47.3,0,0,1-15.4,10.3,45,45,0,0,1-18.1,3.6A45.6,45.6,0,0,1,30.1,98.8,48.2,48.2,0,0,1,16.7,65.5Zm.2,0A45.7,45.7,0,0,0,30.8,98.1a46.8,46.8,0,0,0,32.6,13.1,46.2,46.2,0,0,0,46.1-45.7A45.2,45.2,0,0,0,96.1,32.8,46.1,46.1,0,0,0,63.4,19.6,48,48,0,0,0,30.8,33,45,45,0,0,0,20.6,47.8,46.7,46.7,0,0,0,16.9,65.5Z"
                  fill="#522578"/>
            <path d="M120.6,61.5c0,.7.1,1.3.1,2a61.1,61.1,0,0,1-.6,8.6H69.9V121a9.8,9.8,0,0,1-13,0V72.1H12a81.1,81.1,0,0,1-.5-8.6v-2h0c0-.8.1-1.6.1-2.4H56.9V16.3a46.3,46.3,0,0,1,6.5-.4,46.3,46.3,0,0,1,6.5.4V59h50.6a19.3,19.3,0,0,1,.1,2.4h0Z"
                  fill="#fff"/>
            <polygon
                    points="118.9 63.4 65.5 63.4 65.5 10.1 61.2 10.1 61.2 63.4 7.9 63.4 7.9 67.7 61.2 67.7 61.2 121 65.5 121 65.5 67.7 118.9 67.7 118.9 63.4"
                    fill="#522578"/>
            <circle cx="63.4" cy="65.5" r="33.8" fill="#fff"/>
            <path d="M29.5,65.5a35.9,35.9,0,0,1,9.4-24.4A33.3,33.3,0,0,1,50,33.3a32.4,32.4,0,0,1,13.4-2.6,33.1,33.1,0,0,1,13.2,3,38,38,0,0,1,11,7.6A36,36,0,0,1,97.9,65.5a33.7,33.7,0,0,1-2.4,13.3,32.1,32.1,0,0,1-7.4,11.4,34.5,34.5,0,0,1-24.7,10.4A32.5,32.5,0,0,1,50,97.8,33.3,33.3,0,0,1,38.9,90,36.1,36.1,0,0,1,29.5,65.5Zm.2,0a33.1,33.1,0,0,0,2.8,12.8,31.8,31.8,0,0,0,7.6,10.5A33.9,33.9,0,0,0,63.4,98a33.3,33.3,0,0,0,23.1-9.4,34.5,34.5,0,0,0,7.2-10.5,34,34,0,0,0,2.8-12.6,30.8,30.8,0,0,0-2.3-12.7A31.9,31.9,0,0,0,87,41.9a32.2,32.2,0,0,0-23.6-9.1,34.9,34.9,0,0,0-23.3,9.4,31.8,31.8,0,0,0-7.6,10.5A31.4,31.4,0,0,0,29.7,65.5Z"
                  fill="#522578"/>
            <path d="M63.2,89.8,43.7,76h0v-23a.1.1,0,0,1,.1-.1L63.4,66.6h0V89.8A.1.1,0,0,1,63.2,89.8Z" fill="#fff"/>
            <path d="M63.2,89.9c-3.2-2.3-6.7-4.2-10.1-6.2s-6.6-4.3-9.8-6.7h-.1l-.2-.2-.3-.4v-3l.2-2.9.3-5.9V58.6c-.1-1-.1-2-.2-3V53h0a.4.4,0,0,1,.1-.3.7.7,0,0,1,1.1-.4c3.4,2.1,6.7,4.2,10,6.5l9.7,6.7h.2l.2.2a.9.9,0,0,1,.3.5.4.4,0,0,1,.1.3v2.8c0,1-.1,2-.1,2.9s-.2,4-.4,6-.3,3.9-.5,5.9-.1,1.9-.1,2.9a7.6,7.6,0,0,1-.1,1.5v1.3C63.5,90,63.3,90,63.2,89.9Zm.1-.2c-.1.2,0-.3,0-.5V87c0-1-.1-1.9-.1-2.9s-.4-4-.5-5.9-.3-4-.4-6-.1-1.9-.1-2.9V66.7h0v.3l.3.5h0c-3.3-2.2-6.4-4.6-9.6-6.9s-6.3-4.8-9.4-7.2a.7.7,0,0,0,.9-.3c0-.1.1-.2,0-.2h0v2.6c0,1-.1,2-.1,3a58,58,0,0,0,0,5.9c0,1.9.1,3.9.3,5.9l.2,2.9v2.6h0v-.2l-.2-.3h.1A93.9,93.9,0,0,1,54,82.4C57.1,84.9,60.1,87.5,63.3,89.7Z"
                  fill="#522578"/>
            <path d="M63.6,89.8,83.1,76h0v-23a.1.1,0,0,0-.1-.1L63.4,66.6h0V89.8A.1.1,0,0,0,63.6,89.8Z" fill="#fff"/>
            <path d="M63.5,89.7c3.2-2.2,6.2-4.8,9.3-7.3a93.9,93.9,0,0,1,9.5-7.1h.1l-.3.3v.2h0V73.3l.2-2.9c.2-2,.3-4,.3-5.9V58.6c0-1-.1-2-.1-3V53h-.1a.3.3,0,0,1,.1.2c.1.3.6.5.8.3-3,2.4-6.1,4.9-9.3,7.2s-6.3,4.7-9.6,6.9h0c.1-.2.2-.3.2-.5a.4.4,0,0,0,.1-.3h0v2.6c0,1-.1,2-.1,2.9s-.2,4-.4,6-.3,3.9-.5,5.9-.1,1.9-.1,2.9a7.6,7.6,0,0,1-.1,1.5v.7C63.5,89.4,63.6,89.9,63.5,89.7Zm.1.2c-.1.1-.3.1-.3-.1s0-.1,0-.2V87c0-1-.1-1.9-.1-2.9s-.4-4-.5-5.9-.3-4-.4-6-.1-1.9-.1-2.9V66.5a.4.4,0,0,1,.1-.3.5.5,0,0,1,.3-.5l.2-.2h.2l9.7-6.7c3.3-2.3,6.6-4.4,10-6.5a.8.8,0,0,1,1.1.4.4.4,0,0,1,.1.3h0v2.6c0,1,0,2-.1,3v5.9l.3,5.9.2,2.9v3l-.3.4c-.2.2-.1.2-.2.2h-.1c-3.2,2.4-6.4,4.6-9.8,6.7S66.8,87.6,63.6,89.9Z"
                  fill="#522578"/>
            <path d="M83,52.6,63.7,40.2h-.1L43.8,52.6c-.1,0-.1.1,0,.2L63.3,66.7h.1L83,52.8Z" fill="#fff"/>
            <path d="M82.9,52.7c-3.3-2.2-6.8-4-10.3-5.9-1.8-.9-3.5-1.9-5.2-2.9l-2.5-1.6-1.2-.8-.3-.2h.5l-.3.2c-3.5,2-7,3.8-10.4,5.8l-5,3.2L45.7,52l-1.2.9-.3.2h0l.2-.4a.5.5,0,0,0-.2-.4h0l.7.4c3.3,2.1,6.7,4.2,9.9,6.5l4.9,3.3,2.4,1.7,1.3.9.6.4h0l-.2-.2c-.2,0-.4-.1-.6,0h-.5l.3-.2c3.3-2.3,6.6-4.5,10-6.5l5.1-3,2.5-1.6,1.3-.8.6-.4.3-.2Zm.2-.2a.3.3,0,0,1,0,.4h-.2l-.3.2-.6.4-1.2.9-2.3,1.9L74,60.2c-3.1,2.6-6.2,4.9-9.4,7.3l-.3.2h-.2l-.6.2H62.4l-.6-.5-1.2-.8-2.4-1.8-4.7-3.5c-3.2-2.3-6.3-4.8-9.4-7.3l-.6-.5h-.1a.9.9,0,0,1-.3-.6.7.7,0,0,1,.3-.6h.1l.4-.2,1.3-.7,2.5-1.5,5.1-3.1c3.3-2.2,6.4-4.6,9.7-6.8l.3-.2h1l.5.2h.3l.3.2,1.2.7,2.5,1.7a41.4,41.4,0,0,1,4.8,3.4C76.6,47.9,79.7,50.4,83.1,52.5Z"
                  fill="#522578"/>
        </g>
    </g>
</svg>