<svg id="Слой_1" data-name="Слой 1" xmlns="http://www.w3.org/2000/svg" xmlns:xlink="http://www.w3.org/1999/xlink" viewBox="0 0 141.7 141.7"><defs><clipPath id="clip-path"><rect width="141.7" height="141.73" fill="none"/></clipPath></defs><title>underconstruction</title><g clip-path="url(#clip-path)"><path d="M48.7,26.4a19.8,19.8,0,0,1,5.2-5.2Z" fill="#ffed00"/><path d="M109.7,53.6a20.7,20.7,0,0,0,17.9-5.1,21.7,21.7,0,0,0,6.8-15.4,3,3,0,0,0-5.1-2.4L117.5,41.6a6,6,0,0,1-8.6-.4L105.2,37a6.3,6.3,0,0,1,.5-8.7l12.1-11.2a3.1,3.1,0,0,0-1.7-5.4,20.3,20.3,0,0,0-16.4,5.4,21.6,21.6,0,0,0-6.5,18.4,8.9,8.9,0,0,1-2.6,7.4L71.9,60.8,44.3,30.6l4.4-4.2h0l3.7-3.7A19.9,19.9,0,0,1,56,19.8a23.1,23.1,0,0,1,14.5-3.9,32,32,0,0,1,5.6.6c2.4.4.9-3.1-1.2-4.4-4.2-2.5-6.3-3-12-3a26.5,26.5,0,0,0-15.6,4.7l-.5.3L41.9,18,37,22.7l-1.8-2a2.8,2.8,0,0,0-4-.1l-8.5,8.1a2.9,2.9,0,0,0-.1,4l.9,1-4.3,4.1a1.7,1.7,0,0,1-2.4,0h0a1.8,1.8,0,0,0-2.6,0L4.6,46.9a1.9,1.9,0,0,0-.1,2.7l12,13a1.8,1.8,0,0,0,2.6.1l9.6-9.2a1.9,1.9,0,0,0,.1-2.7,1.7,1.7,0,0,1,.1-2.4l4.3-4.2L59.4,72.8,41.8,89.6a8.2,8.2,0,0,1-7.1,2.3A20.6,20.6,0,0,0,17,97.2a21.1,21.1,0,0,0-6.5,16.3,3,3,0,0,0,5.1,2.1l11.9-11.4a5.8,5.8,0,0,1,8.5.2l3.8,4.1a6.4,6.4,0,0,1-.2,8.8L28,128.5a3.1,3.1,0,0,0,1.9,5.4,20.6,20.6,0,0,0,15.5-5.8,21.3,21.3,0,0,0,6.3-18.6,8.8,8.8,0,0,1,2.5-7.7L71.1,85.6l41.4,45.1a2.7,2.7,0,0,0,4,.1l8.4-8.1a2.8,2.8,0,0,0,.1-4L83.7,73.6l18.6-17.9a8.2,8.2,0,0,1,7.4-2.1" fill="#ffed00"/></g></svg>