<svg width="80" height="80" viewBox="0 0 80 80" fill="none" xmlns="http://www.w3.org/2000/svg">
<rect x="1.5" y="1.5" width="77" height="77" rx="18.5" stroke="#4E458F" stroke-width="3"/>
<path d="M34.8389 53.2256V51.3799C34.8389 48.7139 35.249 46.5264 36.0693 44.8174C36.8896 43.0856 38.4163 41.2627 40.6494 39.3486C43.7484 36.7282 45.6966 34.7572 46.4941 33.4355C47.3145 32.1139 47.7246 30.5189 47.7246 28.6504C47.7246 26.3262 46.9727 24.5374 45.4688 23.2842C43.9876 22.0081 41.8457 21.3701 39.043 21.3701C37.2428 21.3701 35.4883 21.5866 33.7793 22.0195C32.0703 22.4297 30.1107 23.193 27.9004 24.3096L25.8838 19.6953C30.1904 17.4395 34.6908 16.3115 39.3848 16.3115C43.737 16.3115 47.1208 17.3825 49.5361 19.5244C51.9515 21.6663 53.1592 24.6855 53.1592 28.582C53.1592 30.2454 52.9313 31.7152 52.4756 32.9912C52.0426 34.2445 51.3932 35.4408 50.5273 36.5801C49.6615 37.6966 47.793 39.5081 44.9219 42.0146C42.6204 43.9743 41.0938 45.6035 40.3418 46.9023C39.6126 48.2012 39.248 49.9329 39.248 52.0977V53.2256H34.8389ZM33.1641 63.377C33.1641 60.278 34.5312 58.7285 37.2656 58.7285C38.5872 58.7285 39.6012 59.1273 40.3076 59.9248C41.0368 60.7223 41.4014 61.873 41.4014 63.377C41.4014 64.8353 41.0368 65.9746 40.3076 66.7949C39.5785 67.5924 38.5645 67.9912 37.2656 67.9912C36.0807 67.9912 35.1009 67.638 34.3262 66.9316C33.5514 66.2025 33.1641 65.0176 33.1641 63.377Z" fill="#4E458F"/>
</svg>
