<svg width="80" height="80" viewBox="0 0 80 80" fill="none" xmlns="http://www.w3.org/2000/svg">
<rect width="80" height="80" rx="20" fill="#4E458F"/>
<path d="M40.9041 26L28.7841 54H22.3841L10.3041 26H17.3041L25.8241 46L34.4641 26H40.9041ZM61.0819 54L55.6819 46.2H55.3619H49.7219V54H43.2419V26H55.3619C57.8419 26 59.9885 26.4133 61.8019 27.24C63.6419 28.0667 65.0552 29.24 66.0419 30.76C67.0285 32.28 67.5219 34.08 67.5219 36.16C67.5219 38.24 67.0152 40.04 66.0019 41.56C65.0152 43.0533 63.6019 44.2 61.7619 45L68.0419 54H61.0819ZM60.9619 36.16C60.9619 34.5867 60.4552 33.3867 59.4419 32.56C58.4285 31.7067 56.9485 31.28 55.0019 31.28H49.7219V41.04H55.0019C56.9485 41.04 58.4285 40.6133 59.4419 39.76C60.4552 38.9067 60.9619 37.7067 60.9619 36.16Z" fill="white"/>
</svg>
