
<svg width="58px" height="28px" viewBox="0 0 58 28" version="1.1" xmlns="http://www.w3.org/2000/svg" xmlns:xlink="http://www.w3.org/1999/xlink">
    <g id="Page-1" stroke="none" stroke-width="1" fill="none" fill-rule="evenodd">
        <g id="VR" fill="#FFFFFF" fill-rule="nonzero">
            <path d="M30.9041,-1.90735e-06 L18.7841,27.9999981 L12.3841,27.9999981 L0.304062,-1.90735e-06 L7.304062,-1.90735e-06 L15.8241,19.9999981 L24.4641,-1.90735e-06 L30.9041,-1.90735e-06 Z M51.0819,27.9999981 L45.6819,20.2 L45.3619,20.2 L39.7219,20.2 L39.7219,27.9999981 L33.2419,27.9999981 L33.2419,-1.90735e-06 L45.3619,-1.90735e-06 C47.8419,-1.90735e-06 49.9885,0.413332 51.8019,1.24 C53.6419,2.06667 55.0552,3.24 56.0419,4.76 C57.0285,6.28 57.5219,8.08 57.5219,10.16 C57.5219,12.24 57.0152,14.04 56.0019,15.56 C55.0152,17.0533 53.6019,18.2 51.7619,18.9999981 L58.0419,27.9999981 L51.0819,27.9999981 Z M50.9619,10.16 C50.9619,8.58667 50.4552,7.38667 49.4419,6.56 C48.4285,5.70667 46.9485,5.28 45.0019,5.28 L39.7219,5.28 L39.7219,15.04 L45.0019,15.04 C46.9485,15.04 48.4285,14.6133 49.4419,13.76 C50.4552,12.9067 50.9619,11.7067 50.9619,10.16 Z" id="Shape"></path>
        </g>
    </g>
</svg>
