<svg xmlns="http://www.w3.org/2000/svg" viewBox="0 0 209.83 23.93"><defs><style>.cls-1{fill:#fff;}</style></defs><g id="Layer_2" data-name="Layer 2"><g id="лого"><path class="cls-1" d="M15,8.92H9.43v15H5.49v-15H0V5.44H15Z"/><path class="cls-1" d="M209.83,8.92h-5.52v15h-3.94v-15h-5.49V5.44h15Z"/><path class="cls-1" d="M28.81,20h-8L19.28,23.9H15.19L22.88,5.44h3.94l7.7,18.46H30.34ZM27.56,16.7,24.82,9.64,22.09,16.7Z"/><path class="cls-1" d="M53.1,15.91a4.58,4.58,0,0,1,.84,2.8,4.59,4.59,0,0,1-1.74,3.82,7.79,7.79,0,0,1-5,1.37H38.75V5.44h8a7.68,7.68,0,0,1,4.68,1.24,4.14,4.14,0,0,1,1.68,3.54,4.59,4.59,0,0,1-.64,2.41,4.64,4.64,0,0,1-1.8,1.65A4.64,4.64,0,0,1,53.1,15.91ZM42.71,13.09h3.72a3,3,0,0,0,2-.57,2.06,2.06,0,0,0,.66-1.67,2.06,2.06,0,0,0-.67-1.66,2.94,2.94,0,0,0-2-.58H42.71Zm7.19,5.28c0-1.53-.93-2.3-2.81-2.3H42.71v4.67h4.38C49,20.74,49.9,20,49.9,18.37Z"/><path class="cls-1" d="M69.89,6.26a6,6,0,0,1,2.6,2.32,6.71,6.71,0,0,1,.91,3.56,6.72,6.72,0,0,1-.91,3.55A5.94,5.94,0,0,1,69.89,18a9.09,9.09,0,0,1-4,.8H62.44V23.9h-4V5.44h7.46A9,9,0,0,1,69.89,6.26ZM68.43,14.5a3,3,0,0,0,.93-2.36,3,3,0,0,0-.93-2.39,4,4,0,0,0-2.74-.83H62.44v6.41h3.25A4,4,0,0,0,68.43,14.5Z"/><path class="cls-1" d="M188.29,6.26a6.05,6.05,0,0,1,2.6,2.32,6.8,6.8,0,0,1,.91,3.56,6.82,6.82,0,0,1-.91,3.55,6,6,0,0,1-2.6,2.32,9.12,9.12,0,0,1-4,.8h-3.47V23.9h-4V5.44h7.46A9,9,0,0,1,188.29,6.26Zm-1.47,8.24a3,3,0,0,0,.94-2.36,3,3,0,0,0-.94-2.39,4,4,0,0,0-2.73-.83h-3.25v6.41h3.25A4,4,0,0,0,186.82,14.5Z"/><path class="cls-1" d="M78,5.44h4v12l8.23-12h3.74V23.9H89.94v-12l-8.22,12H78Z"/><path class="cls-1" d="M116.93,23.93l-18.78,0,7.53-18.47h4Zm-13.42-3.51h7.81l-3.8-10.49Z"/><path class="cls-1" d="M133.63,20h-8L124.1,23.9H120l7.68-18.46h3.94l7.71,18.46h-4.19Zm-1.26-3.25-2.73-7.06L126.9,16.7Z"/><path class="cls-1" d="M168.06,20h-8l-1.53,3.95h-4.08l7.68-18.46h3.94l7.71,18.46h-4.19ZM166.8,16.7l-2.73-7.06-2.74,7.06Z"/><path class="cls-1" d="M153.47,6.58A6.59,6.59,0,1,1,146.89,0,6.58,6.58,0,0,1,153.47,6.58Z"/></g></g></svg>