<svg width="167" height="167" viewBox="0 0 167 167" fill="none" xmlns="http://www.w3.org/2000/svg">
<rect width="167" height="167" rx="83.5" fill="#ABEDE5"/>
<g clip-path="url(#clip0)">
<path d="M79.2517 40.5667H71.394V33.5195H96.2046V40.5816H88.3171V60.469H79.2368L79.2517 40.5667Z" fill="#4E458F"/>
<path d="M65.7877 69.6809L54.3962 96.5557H45.4501L34.1183 69.666H43.8845L50.2959 85.4027L56.8714 69.666L65.7877 69.6809Z" fill="#4E458F"/>
<path d="M119.226 89.688H116.766V96.4515H107.7V69.5767H120.657C122.882 69.5301 125.092 69.9523 127.143 70.8159C128.391 71.3975 129.506 72.2315 130.416 73.2653C131.327 74.2992 132.014 75.5105 132.434 76.8232C132.854 78.1359 132.998 79.5214 132.858 80.8927C132.717 82.2639 132.294 83.5911 131.616 84.7908C130.7 86.2583 129.394 87.442 127.844 88.2099L133.48 96.5261H123.804L119.226 89.688ZM122.849 77.3555C122.065 76.7442 121.082 76.4462 120.091 76.5194H116.781V82.7901H120.076C121.07 82.8698 122.058 82.5772 122.849 81.969C123.444 81.3396 123.775 80.5062 123.775 79.6398C123.775 78.7735 123.444 77.94 122.849 77.3107V77.3555Z" fill="#4E458F"/>
<path d="M69.6494 105.932H82.9047C85.643 105.878 88.3586 106.439 90.8518 107.575C93.0469 108.587 94.9013 110.216 96.1897 112.263C97.4347 114.44 98.0897 116.905 98.0897 119.414C98.0897 121.923 97.4347 124.389 96.1897 126.566C94.8845 128.624 93.0016 130.249 90.7773 131.239C88.2841 132.375 85.5684 132.936 82.8301 132.882H69.6345L69.6494 105.932ZM82.517 125.79C83.3666 125.833 84.2165 125.708 85.0175 125.421C85.8185 125.134 86.5548 124.691 87.1839 124.118C88.3149 122.809 88.9374 121.137 88.9374 119.407C88.9374 117.677 88.3149 116.004 87.1839 114.696C85.9061 113.54 84.2223 112.939 82.5021 113.024H78.7149V125.79H82.517Z" fill="#4E458F"/>
<path d="M47.6419 62.6341V47.0168H64.6992V44.0308H47.6419H44.6599V47.0168V62.6341H47.6419Z" fill="#4E458F"/>
<path d="M122.253 104.17V119.773H105.196V122.759H122.253H125.235V119.773V104.17H122.253Z" fill="#4E458F"/>
<path d="M96.1897 81.7148H71.3641V84.686H96.1897V81.7148Z" fill="#4E458F"/>
</g>
<defs>
<clipPath id="clip0">
<rect width="99.362" height="99.362" fill="white" transform="translate(34.1183 33.5195)"/>
</clipPath>
</defs>
</svg>
