<svg xmlns="http://www.w3.org/2000/svg" viewBox="0 0 85.45 21.85"><defs><style>.cls-1{fill:#0e0e0e;}.cls-1,.cls-2,.cls-3{stroke:#000;stroke-miterlimit:10;stroke-width:0.5px;}.cls-2{fill:#aaa9a9;}.cls-3{fill:#fdfdfd;}</style></defs><g id="Layer_2" data-name="Layer 2"><g id="Layer_4" data-name="Layer 4"><path class="cls-1" d="M59.23,19.26a4.24,4.24,0,0,1-1.63,1.43l-1,.46a4.65,4.65,0,0,1-4.4-.22,8.06,8.06,0,0,0-3.63-1,9.51,9.51,0,0,1-2.78-.63c-.31-.12-.41,0-.36.27s.12.68.16,1a.67.67,0,0,1-.23.75c-.26.17-.5.05-.74-.07a5.23,5.23,0,0,1-2.27-2.1c-.2-.38-.6-.36-.94-.39s-.11.19-.1.29A8.79,8.79,0,0,1,41.34,21c0,.11,0,.23-.12.3a2.1,2.1,0,0,1-.18-.92,5.59,5.59,0,0,1-.1-1.15c0-.36-.13-.42-.45-.44-1.7-.11-3.41-.19-5.11-.39-4-.45-7.93-.72-11.85-1.4a75.94,75.94,0,0,1-7.64-1.38c-.67-.19-1.33-.37-2-.62a16.07,16.07,0,0,0-3.82-.82,31.76,31.76,0,0,1-4.83-.87A3.19,3.19,0,0,1,3.5,12a5.15,5.15,0,0,0-1.7-1.55,5.48,5.48,0,0,1-1.23-.9C.07,9,.16,8.66.84,8.42A11.15,11.15,0,0,1,2.9,8c1.15-.18,2.3-.44,3.44-.67a31.7,31.7,0,0,1,6.44-.66c.7,0,.7,0,.62-.7a6.84,6.84,0,0,1-.11-1.11c0-.54.28-.72.75-.5a5.64,5.64,0,0,1,2.37,1.88,1,1,0,0,0,1.05.48c1.69,0,3.37,0,5.05,0a.53.53,0,0,0,.61-.42,12.83,12.83,0,0,1,2.2-3.53c.6-.75,1.3-1.41,1.86-2.21a.68.68,0,0,1,.69-.36c.34.08.43.37.48.66a5,5,0,0,1-.94,4.14,18.63,18.63,0,0,1-1.33,1.61c.11.14.23.1.33.1,1.46,0,2.92,0,4.38-.16a28.91,28.91,0,0,1,6.83.16,23.28,23.28,0,0,1,7,2,28,28,0,0,1,5.46,3.62c2.85,2.33,5.87,4.44,8.74,6.74.12.09.23.2.4.12ZM2.57,8.53A4.42,4.42,0,0,0,1,8.83c-.07,0-.18,0-.21.1s.07.17.14.22A13.27,13.27,0,0,0,2.33,10a.29.29,0,0,0,.27,0,8.54,8.54,0,0,1,1.8-.41l.41,0c1,0,1.94-.2,2.92-.14a13.26,13.26,0,0,1,3.18.81c.13.15.32.15.48.21a45,45,0,0,0,5.73,1.3,11.71,11.71,0,0,1-2.79.17,13.32,13.32,0,0,1-4-1.1,7.76,7.76,0,0,0-2.16-.68,27.25,27.25,0,0,0-4.78.1l-.16,0c-.09,0-.22,0-.25.11s.07.16.14.23A6.4,6.4,0,0,1,4,11.6a2.53,2.53,0,0,0,1.43,1,29.49,29.49,0,0,0,4.84.82,15.46,15.46,0,0,1,3.87.78A23.75,23.75,0,0,0,18.3,15.3c3.18.52,6.35,1.09,9.55,1.46,3.56.42,7.11.88,10.68,1.13,1.16.08,2.32.11,3.46.29a1.36,1.36,0,0,1,1.06.75,5,5,0,0,0,1.88,1.69c0-.28-.07-.48-.09-.68s-.05-.44-.06-.66c0-.69.19-.88.84-.63a10.34,10.34,0,0,0,3.44.61,7.34,7.34,0,0,1,2.57.54l1.3.53a3.48,3.48,0,0,0,1.74.26,12.27,12.27,0,0,0,3.46-1c.14,0,.35.07.39-.12s-.2-.15-.3-.23-.51-.33-.74-.52c-2.83-2.26-5.78-4.37-8.58-6.66A23.31,23.31,0,0,0,32.73,6.94c-3.1.11-6.2.27-9.31.29-2,0-4.08-.05-6.12,0-.45,0-.9-.06-1.36-.07s-.93,0-1.4,0-.82.07-1.24.05a26.26,26.26,0,0,0-5.67.37C5.93,7.79,4.25,8.19,2.57,8.53ZM27.64,1.24c-.4.5-.82,1-1.24,1.42a23,23,0,0,0-2.81,3.77c-.15.25-.16.35.18.33a6,6,0,0,1,1.12,0A1,1,0,0,0,26,6.14,16,16,0,0,0,27.4,3.55,5.3,5.3,0,0,0,27.64,1.24ZM16.23,6.69A9.49,9.49,0,0,0,14,4.92c-.16-.09-.23,0-.22.13,0,.48.05,1,.06,1.45,0,.14.06.19.2.19C14.74,6.68,15.45,6.69,16.23,6.69Z"/><path class="cls-1" d="M61.44,18.13a5,5,0,0,1,1.49.16l1.75.67c-.1-.48-.2-.91-.27-1.36a34.41,34.41,0,0,0-.66-3.48c-.2-.71-.14-1,.54-1.27s1.24-.51,1.86-.78a7.37,7.37,0,0,0,2.24-1.73,10.57,10.57,0,0,1-2.07.31,9.35,9.35,0,0,0-4.06,1.15,2.69,2.69,0,0,1-1.41.35,18.53,18.53,0,0,0-6.16,1.25c-.14,0-.35.06-.34.25s.19.17.31.23a5.47,5.47,0,0,0,3.27.39c.73-.11,1.48-.16,2.22-.23a2.26,2.26,0,0,1,.45,0c.1,0,.21,0,.21.16s-.14.1-.23.11c-1,.13-2,.26-3.07.37a5.27,5.27,0,0,1-3.17-.5c-.23-.13-.36-.41-.69-.4-.14,0-.12-.17,0-.25a1.56,1.56,0,0,1,.34-.23,14.08,14.08,0,0,1,6.23-1.74A4.4,4.4,0,0,0,62.4,11a8.67,8.67,0,0,1,3.76-1,9.92,9.92,0,0,0,3.1-.81c.32-.13.21-.28.11-.48a7.09,7.09,0,0,1-1-3s0-.06,0-.09c0-.39-.14-.94.16-1.13a1.9,1.9,0,0,1,1.77-.41,18.61,18.61,0,0,1,2.51,1.08,28.2,28.2,0,0,0,4.31,1.75,1.89,1.89,0,0,0,2-.53c.15-.14.08-.25,0-.36-.17-.3-.36-.59-.51-.9s-.25-.48-.06-.69.42-.13.68-.1a3.32,3.32,0,0,1,1.07.47.59.59,0,0,0,.78-.1l.29-.3c.22-.21.42-.63.71,0,0,.1.2.08.31.08a8.05,8.05,0,0,0,1.77-.06,1.46,1.46,0,0,1,.29,0c.23,0,.51-.07.62.2s-.1.5-.29.67a5.36,5.36,0,0,1-2.09,1c-.23.06-.28.16-.29.39a5.23,5.23,0,0,1-3.23,5c-.68.28-1.09.62-.93,1.42a1.46,1.46,0,0,1-.1.64c-.14.48-.49.6-.88.3a4.7,4.7,0,0,1-1.17-1.38c-.09-.17-.17-.21-.35-.16a3.19,3.19,0,0,1-2.21-.26.36.36,0,0,0-.51.09,4.56,4.56,0,0,1-3.88,1c-.31-.12-.69-.25-.66-.64s.45-.42.75-.44a4.56,4.56,0,0,0,2.26-1.12c.18-.14.22-.26,0-.33a2.92,2.92,0,0,1-1.38-1c-.18-.21-.27-.18-.43,0a12.33,12.33,0,0,1-1.19,1.31A8.59,8.59,0,0,1,65.16,13a1.57,1.57,0,0,0-.28.1c-.82.31-.8.3-.51,1.11a11,11,0,0,1,.49,4.12c0,.44,0,.79.44,1,.06,0,.17.08.1.18s-.11,0-.18,0c-.86-.13-1.64-.51-2.49-.68a9.59,9.59,0,0,0-1.6-.2c-.29,0-.55-.13-.42-.49A8.72,8.72,0,0,0,61,14.6c0-.07,0-.14,0-.21s-.08-.28.08-.32.21.16.23.28a8.9,8.9,0,0,1,0,3.45,2,2,0,0,0-.05.24c0,.05,0,.09,0,.12A.15.15,0,0,0,61.44,18.13ZM75,9.67c-.18.13-.29.34-.56.45l.15-.45a8.57,8.57,0,0,0,.54-1.29A3.08,3.08,0,0,0,75.24,7a.66.66,0,0,0-.46-.6A15,15,0,0,1,73,5.72a23.31,23.31,0,0,0-2.76-1.21,1.94,1.94,0,0,0-1.26,0c-.16,0-.2.13-.22.29-.07.38.29.32.45.45.84.67,1.69,1.32,2.54,2,0,0,.11.09.07.18s-.28-.09-.39-.17c-.79-.57-1.57-1.16-2.36-1.74-.06,0-.11-.14-.21-.1s-.06.12,0,.18a5.2,5.2,0,0,0,.71,2.17,4.07,4.07,0,0,0,2.85,2.74c.16,0,.34.07.37.27s-.14.28-.28.37c-.37.24-.74.47-1.1.72a3.69,3.69,0,0,1-1.72.65,1.61,1.61,0,0,0-.78.18,1.66,1.66,0,0,0,1.25.38,6.73,6.73,0,0,0,1.58-.43,1.68,1.68,0,0,0,1-.55c.36-.56.71-.62,1.31-.34a3,3,0,0,0,2,.08c.52-.12.64,0,.76.47a3,3,0,0,0,.83,1.26c.16.16.21,0,.23-.12a2.7,2.7,0,0,0,0-.94.87.87,0,0,1,.51-1c.38-.19.76-.4,1.13-.6,1.76-1,2.25-2.7,2.6-4.47.05-.27.11-.39.33-.48a9.56,9.56,0,0,0,1.43-.63c.15-.08.33-.14.39-.4a5,5,0,0,1-1.29,0,2.61,2.61,0,0,1-.84-.16c-.26-.12-.37-.05-.54.13-.58.59-1,.56-1.5.11a1.8,1.8,0,0,0-.76-.37c-.12,0-.26-.09-.34,0s0,.24.07.34c.2.35.42.69.61,1a.56.56,0,0,1,0,.66,2.43,2.43,0,0,1-2.91.65c-.39-.18-.78-.34-1.26-.54a2.51,2.51,0,0,1-.09,2.18ZM84.3,4.91l0,0,0,0,0,0Z"/><path class="cls-2" d="M66.32,10.65a10.57,10.57,0,0,0,2.07-.31,7.37,7.37,0,0,1-2.24,1.73c-.62.27-1.25.51-1.86.78s-.74.56-.54,1.27a34.41,34.41,0,0,1,.66,3.48c.07.45.17.88.27,1.36l-1.75-.67a2.06,2.06,0,0,0,0-1.78,16.34,16.34,0,0,1-.78-2.12A1.9,1.9,0,0,1,63.44,12a17.07,17.07,0,0,0,2.69-1C66.25,10.89,66.47,10.88,66.32,10.65Z"/><path class="cls-2" d="M61.44,18.13a.15.15,0,0,1-.17,0c-.06,0,0-.07,0-.12A.21.21,0,0,1,61.44,18.13Z"/><polygon class="cls-1" points="59.22 19.28 59.21 19.26 59.23 19.27 59.22 19.28"/><path class="cls-3" d="M10.91,10.28a13.26,13.26,0,0,0-3.18-.81c-1-.06-1.94.12-2.92.14l-.41,0c-.05-.11-.16-.09-.24-.12a3.34,3.34,0,0,1-1.59-1c1.68-.34,3.36-.74,5.06-1a26.26,26.26,0,0,1,5.67-.37c.42,0,.82-.08,1.24-.05s.94,0,1.4,0,.91.07,1.36.07c2,0,4.08,0,6.12,0,3.11,0,6.21-.18,9.31-.29A23.31,23.31,0,0,1,48.9,12.06c2.8,2.29,5.75,4.4,8.58,6.66.23.19.49.34.74.52s.33.08.3.23-.25.09-.39.12c0-.19-.17-.19-.28-.25-.91-.45-1.82-.91-2.75-1.33a31.26,31.26,0,0,0-4.58-1.74,8.55,8.55,0,0,1-2.17-.89,9.69,9.69,0,0,0-2.69-1.14,13,13,0,0,0-2-.21,12.24,12.24,0,0,0-4,.16,14.4,14.4,0,0,1-4.72.21c-1.09-.09-2.15-.32-3.22-.51-2.58-.44-5.19-.77-7.77-1.18s-5.31-1.05-8-1.43a43.75,43.75,0,0,1-4.51-1C11.22,10.25,11.06,10.09,10.91,10.28Z"/><path class="cls-2" d="M10.91,10.28c.15-.19.31,0,.44,0a43.75,43.75,0,0,0,4.51,1c2.68.38,5.32,1,8,1.43s5.19.74,7.77,1.18c1.07.19,2.13.42,3.22.51a14.4,14.4,0,0,0,4.72-.21,12.24,12.24,0,0,1,4-.16,13,13,0,0,1,2,.21,9.69,9.69,0,0,1,2.69,1.14,8.55,8.55,0,0,0,2.17.89A31.26,31.26,0,0,1,55.1,18c.93.42,1.84.88,2.75,1.33.11.06.28.06.28.25a12.27,12.27,0,0,1-3.46,1,3.48,3.48,0,0,1-1.74-.26l-1.3-.53a7.34,7.34,0,0,0-2.57-.54,10.34,10.34,0,0,1-3.44-.61c-.65-.25-.87-.06-.84.63q0,.33.06.66c0,.2,0,.4.09.68a5,5,0,0,1-1.88-1.69A1.36,1.36,0,0,0,42,18.18c-1.14-.18-2.3-.21-3.46-.29-3.57-.25-7.12-.71-10.68-1.13-3.2-.37-6.37-.94-9.55-1.46a23.75,23.75,0,0,1-4.15-1.11,15.46,15.46,0,0,0-3.87-.78,29.49,29.49,0,0,1-4.84-.82A2.53,2.53,0,0,1,4,11.6a6.4,6.4,0,0,0-.86-.94c-.07-.07-.18-.13-.14-.23s.16-.08.25-.11l.16,0a27.25,27.25,0,0,1,4.78-.1,7.76,7.76,0,0,1,2.16.68,13.32,13.32,0,0,0,4,1.1,11.71,11.71,0,0,0,2.79-.17,45,45,0,0,1-5.73-1.3C11.23,10.43,11,10.43,10.91,10.28Z"/><path class="cls-2" d="M82.93,4.89a5,5,0,0,0,1.29,0c-.06.26-.24.32-.39.4a9.56,9.56,0,0,1-1.43.63c-.22.09-.28.21-.33.48-.35,1.77-.84,3.5-2.6,4.47-.37.2-.75.41-1.13.6a.87.87,0,0,0-.51,1,2.7,2.7,0,0,1,0,.94c0,.14-.07.28-.23.12a3,3,0,0,1-.83-1.26c-.12-.5-.24-.59-.76-.47a3,3,0,0,1-2-.08c-.6-.28-1-.22-1.31.34a1.68,1.68,0,0,1-1,.55,6.73,6.73,0,0,1-1.58.43,1.66,1.66,0,0,1-1.25-.38,1.61,1.61,0,0,1,.78-.18,3.69,3.69,0,0,0,1.72-.65c.36-.25.73-.48,1.1-.72.14-.09.32-.16.28-.37s-.21-.24-.37-.27a4.07,4.07,0,0,1-2.85-2.74.77.77,0,0,1,.62.16,15.52,15.52,0,0,0,1.93,1,11.26,11.26,0,0,0,2.49.71l-.15.45c.27-.11.38-.32.56-.45a11.38,11.38,0,0,0,1.43,0,10.75,10.75,0,0,0,3.45-.87A1.12,1.12,0,0,0,80.56,8c.13-.5.28-1,.38-1.51a1.56,1.56,0,0,1,1.47-1.38C82.59,5.09,82.83,5.14,82.93,4.89Z"/><path class="cls-3" d="M74.58,9.67A11.26,11.26,0,0,1,72.09,9a15.52,15.52,0,0,1-1.93-1,.77.77,0,0,0-.62-.16,5.2,5.2,0,0,1-.71-2.17c0-.06,0-.15,0-.18s.15,0,.21.1c.79.58,1.57,1.17,2.36,1.74.11.08.21.23.39.17s0-.14-.07-.18c-.85-.66-1.7-1.31-2.54-2-.16-.13-.52-.07-.45-.45,0-.16.06-.25.22-.29a1.94,1.94,0,0,1,1.26,0A23.31,23.31,0,0,1,73,5.72a15,15,0,0,0,1.76.71.66.66,0,0,1,.46.6,3.08,3.08,0,0,1-.12,1.35A8.57,8.57,0,0,1,74.58,9.67Z"/><path class="cls-3" d="M82.93,4.89c-.1.25-.34.2-.52.22a1.56,1.56,0,0,0-1.47,1.38c-.1.51-.25,1-.38,1.51a1.12,1.12,0,0,1-.69.82,10.75,10.75,0,0,1-3.45.87,11.38,11.38,0,0,1-1.43,0l.36-.74a2.51,2.51,0,0,0,.09-2.18c.48.2.87.36,1.26.54a2.43,2.43,0,0,0,2.91-.65.56.56,0,0,0,0-.66c-.19-.34-.41-.68-.61-1-.06-.1-.14-.25-.07-.34s.22,0,.34,0a1.8,1.8,0,0,1,.76.37c.5.45.92.48,1.5-.11.17-.18.28-.25.54-.13A2.61,2.61,0,0,0,82.93,4.89Z"/></g></g></svg>