<svg xmlns="http://www.w3.org/2000/svg" viewBox="0 0 82.2 25.03"><defs><style>.cls-1{fill:#fff;}.cls-2{fill:#999;}.cls-3{fill:#ccc;}.cls-4{fill:#acacac;}</style></defs><g id="Layer_2" data-name="Layer 2"><g id="Layer_1-2" data-name="Layer 1"><path class="cls-1" d="M14.34,16.13c0,1.87.43,3.71.24,5.58-.05.48.7.48.75,0,.19-1.87-.28-3.71-.24-5.58,0-.49-.73-.49-.75,0Z"/><path class="cls-1" d="M54.09,15.07a9.24,9.24,0,0,0,.17,3,11.65,11.65,0,0,1,.3,1.3,8.54,8.54,0,0,1,0,1.43.75.75,0,1,0,1.5,0,9.64,9.64,0,0,0,0-1.52,13.37,13.37,0,0,0-.29-1.4,8.12,8.12,0,0,1-.17-2.82.75.75,0,1,0-1.5,0Z"/><path class="cls-1" d="M30.46,5.26c-1,1.14-.7,2.59-.62,4s.16,2.81.25,4.22q.29,4.3.68,8.6a1.54,1.54,0,0,0,1.5,1.5,1.52,1.52,0,0,0,1.5-1.5c-.23-2.55-.44-5.1-.61-7.66-.09-1.25-.17-2.5-.24-3.76,0-.62-.08-1.25-.11-1.87,0-.32,0-.63-.05-.94,0-.16,0-.32,0-.47,0-.32,0-.31-.16,0,1.26-1.45-.86-3.59-2.12-2.12Z"/><path class="cls-1" d="M22.71,10c0,1.93,0,3.85.12,5.78A49.49,49.49,0,0,1,23,21.64a1.5,1.5,0,0,0,3,0,49.49,49.49,0,0,0-.21-5.84c-.08-1.93-.09-3.85-.12-5.78s-3-1.93-3,0Z"/><path class="cls-1" d="M18.83,9c-1.3,1.8,0,3.8-.28,5.75a41.28,41.28,0,0,0-.44,6.85,1.53,1.53,0,0,0,1.5,1.5,1.51,1.51,0,0,0,1.5-1.5,35.09,35.09,0,0,1,.33-6.06,8.77,8.77,0,0,0,0-3.19,5.43,5.43,0,0,1-.19-1.14.73.73,0,0,1,.21-.69,1.51,1.51,0,0,0-.53-2.06A1.54,1.54,0,0,0,18.83,9Z"/><path class="cls-1" d="M16.59,11.32a7.75,7.75,0,0,0-2.31-.21l-.29,0h0a3.57,3.57,0,0,1-.57-.1,9.08,9.08,0,0,1-1.11-.29,1.13,1.13,0,0,0-1.38.79,1.14,1.14,0,0,0,.78,1.38,11.75,11.75,0,0,0,2.43.48,9.83,9.83,0,0,0,1.09.05h.51c.25,0-.24-.07,0,0a2.29,2.29,0,0,1,.28.09,1.13,1.13,0,0,0,1.38-.79,1.08,1.08,0,0,0-.11-.86,1.24,1.24,0,0,0-.67-.52Z"/><path class="cls-1" d="M10.26,13.4l.31,8.87a1.13,1.13,0,1,0,2.25,0l-.31-8.87a1.13,1.13,0,0,0-2.25,0Z"/><path class="cls-1" d="M4,5.69c-.34.47-.81.76-1,1.32A4,4,0,0,0,3,9c.19,1.57.21,3.16.27,4.73.13,3.17.22,6.33.14,9.5a1.13,1.13,0,0,0,2.25,0c.08-2.94,0-5.89-.11-8.83-.06-1.42-.1-2.85-.2-4.27a18.24,18.24,0,0,1-.22-2.06c0-.48.58-.84.87-1.24C6.82,5.66,4.87,4.54,4,5.69Z"/><path class="cls-1" d="M.55,10.85,1.07,22.4c.06,1.44,2.31,1.45,2.25,0L2.8,10.85C2.74,9.41.49,9.4.55,10.85Z"/><path class="cls-1" d="M51.33,5.33a1.62,1.62,0,0,0-1.19,1.24,4.68,4.68,0,0,0,.21,1.7,41.82,41.82,0,0,1,.07,4.48q.12,4.61.65,9.19a1.13,1.13,0,0,0,2.25,0c-.3-2.61-.51-5.22-.61-7.83-.05-1.31-.07-2.62-.08-3.93,0-.55,0-1.1,0-1.65q0-.4-.09-.81a4.64,4.64,0,0,0-.11-.51c-.05-.41-.21-.31-.49.29a1.13,1.13,0,0,0-.6-2.17Z"/><path class="cls-1" d="M45.94,12.25A42.51,42.51,0,0,1,46,21.13a1.13,1.13,0,0,0,1.13,1.12,1.15,1.15,0,0,0,1.12-1.12,42.51,42.51,0,0,0-.09-8.88,1.17,1.17,0,0,0-1.12-1.13,1.14,1.14,0,0,0-1.13,1.13Z"/><path class="cls-1" d="M41.83,11c0,1.84,0,3.68.13,5.52,0,.89.12,1.78.19,2.67a9.8,9.8,0,0,1,0,2.48,1.12,1.12,0,1,0,2.17.59,22.18,22.18,0,0,0-.08-5.52c-.11-1.91-.15-3.83-.14-5.74a1.13,1.13,0,0,0-2.25,0Z"/><path class="cls-1" d="M49.36,1.44a1.59,1.59,0,0,1-.13.13c-.09.1.19-.13,0,0s.16,0,0,0a1,1,0,0,0-.18.05c.06,0,.23,0,.08,0s.18.06,0,0-.18,0-.18-.05a2.15,2.15,0,0,1,.36.25l.15.57,0,.18-1.08.83c.12,0,.11,0-.06,0a.45.45,0,0,1-.21-.12L49,1.29c-1.42,0-2.84,0-4.25,0A1.14,1.14,0,0,0,43.6,2.42a1.16,1.16,0,0,0,1.13,1.13c1.41,0,2.83,0,4.25,0a1.15,1.15,0,0,0,1-.7,1.11,1.11,0,0,0-.24-1.22,1.78,1.78,0,0,0-1.32-.51,1.18,1.18,0,0,0-1.09.82A1.37,1.37,0,0,0,48,3.48a2.32,2.32,0,0,0,1.09.33A2.36,2.36,0,0,0,51,3a1.15,1.15,0,0,0,0-1.59,1.14,1.14,0,0,0-1.59,0Z"/><path class="cls-1" d="M43.13,1.24l-10,.17a.75.75,0,0,0,0,1.5l10-.17a.75.75,0,0,0,0-1.5Z"/><path class="cls-1" d="M62.31,13.72a5.39,5.39,0,0,0,.18,1.87c.13.62.25,1.24.32,1.87a19.91,19.91,0,0,1,.07,3.86.75.75,0,1,0,1.5,0,19.91,19.91,0,0,0-.07-3.86c-.07-.65-.17-1.29-.3-1.93a5.25,5.25,0,0,1-.2-1.81.76.76,0,0,0-.75-.75.77.77,0,0,0-.75.75Z"/><path class="cls-1" d="M69.4,12.36l0,.34.1-.38c.36-.18.42-.25.19-.22a1.55,1.55,0,0,0-.31,0,1.12,1.12,0,0,0-.53.27,1.17,1.17,0,0,0-.24,1.2c.14.46.35.9.48,1.36s.23,1,.31,1.47a27.69,27.69,0,0,1,.4,3,8.57,8.57,0,0,1,0,1.52c0,.25,0,.9-.28,1l1.13.65a32.73,32.73,0,0,0-.59-8.38c-.19-.94-1.63-.54-1.44.4a31.43,31.43,0,0,1,.53,8,.76.76,0,0,0,1.13.65c.92-.47,1-1.79,1-2.7a17.9,17.9,0,0,0-.3-3.42,16.83,16.83,0,0,0-.68-3.21c0-.07-.19-.71-.28-.74l-.37.4h.17a.83.83,0,0,0,.31,0c.59-.15.75-.63.7-1.19-.08-.95-1.58-1-1.5,0Z"/><path class="cls-1" d="M68.72,9l-.14.91a3.36,3.36,0,0,1-.14.78l.07-.17a.5.5,0,0,1-.08.14l.12-.15a.3.3,0,0,1-.08.08l.15-.12a.21.21,0,0,1-.1.06l.18-.07-.11,0,.2,0h-.11l.2,0,0,0,.18.08-.07,0,.15.12s0,0,0,0l.11.15,0-.09.08.18a2.66,2.66,0,0,1-.11-.47c0-.18-.07-.35-.09-.52l0,.2a1.7,1.7,0,0,1,0-.39l0,.2a1.82,1.82,0,0,1,.07-.25L69,9.79a.86.86,0,0,1,.1-.16L69,9.78l.12-.13-.15.12a.57.57,0,0,1,.13-.08l-.18.08.09,0a.75.75,0,0,0,.52-.92.77.77,0,0,0-.92-.53,1.44,1.44,0,0,0-1,1.09,3.85,3.85,0,0,0,.11,1.51,1.5,1.5,0,0,0,.32.77A1.11,1.11,0,0,0,69,12a1.34,1.34,0,0,0,1-1.14c.08-.46.13-.93.2-1.4a.83.83,0,0,0-.07-.58.77.77,0,0,0-.45-.34.78.78,0,0,0-.58.08.68.68,0,0,0-.34.44Z"/><path class="cls-1" d="M70.13,9.34c.43.67,1.09.52,1.76.61a13.15,13.15,0,0,1,1.74.47,9.82,9.82,0,0,0,1.93.37l1,.1L77,11l.25.06q.23.09,0,0l-.19-.34c-.05-.18,0,.21-.05.27l0,.47.37-.65c-.15.07-.28,0-.42-.08a3,3,0,0,0-.94-.29c-.56-.06-1.14,0-1.71,0a8.62,8.62,0,0,1-3.23-.79l.15,1.18c-.13.1,0,0,.08,0a1,1,0,0,1,.29.07c.22.07.44.17.67.24a8.53,8.53,0,0,0,1.67.25,11.69,11.69,0,0,1,3.12.37.75.75,0,0,0,.92-.52.76.76,0,0,0-.52-.92,15,15,0,0,0-3.77-.45A7,7,0,0,1,72,9.42a1.83,1.83,0,0,0-1.83.3.74.74,0,0,0,.15,1.17,10.71,10.71,0,0,0,3.42,1,12.2,12.2,0,0,0,1.71,0,1.63,1.63,0,0,1,.66.05,5.44,5.44,0,0,0,.79.32c.66.12,1.52-.08,1.61-.84.07-.59.24-1.3-.39-1.65a4.75,4.75,0,0,0-1.79-.39,11.45,11.45,0,0,1-1.65-.21c-.61-.14-1.2-.36-1.81-.52a7.87,7.87,0,0,0-1-.18l-.49,0c-.29,0-.11-.06,0,.15-.52-.81-1.82-.06-1.3.76Z"/><path class="cls-1" d="M78.11,14c.24,0,.48,0,.71,0l-.38-.1.06,0-.27-.27a4.75,4.75,0,0,1,.18.85c.07.31.14.62.2.94q.21.93.39,1.89a16,16,0,0,1,.28,3.84.75.75,0,0,0,1.47.2c.36-1.34-.52-2.54-.77-3.82-.12-.66-.21-1.33-.38-2a13.45,13.45,0,0,0-.69-1.93.76.76,0,0,0-1-.27.78.78,0,0,0-.27,1,14.86,14.86,0,0,1,.9,3.42A8.68,8.68,0,0,0,79,19.46,2.51,2.51,0,0,1,79.3,21l1.48.2a19.74,19.74,0,0,0-.5-5.08c-.16-.78-.33-1.56-.5-2.34-.09-.42-.14-.91-.55-1.14a2.35,2.35,0,0,0-1.12-.15c-1,0-1,1.47,0,1.5Z"/><path class="cls-2" d="M5,6.09c-.46,5.82-.59,11.66-.83,17.49-.07,1.78,2.4,1.92,3,.4a9.66,9.66,0,0,0,.5-4.36,1.55,1.55,0,0,0-1.5-1.5,1.5,1.5,0,0,0-1.5,1.5,7.43,7.43,0,0,1-.4,3.56l3,.4c.24-5.83.37-11.67.83-17.49.15-1.92-2.85-1.91-3,0Z"/><path class="cls-3" d="M24.8,9.8a.75.75,0,0,0,0-1.5.75.75,0,0,0,0,1.5Z"/><path class="cls-4" d="M24.18,9.42a3.85,3.85,0,0,1,.2,1.65c0,.52,0,1,.08,1.55.08,1.14.17,2.27.25,3.41.07,1,.29,2,.27,3,0,.48-.06,1-.08,1.44s.08,1.35-.27,1.49c-.88.39-.12,1.68.76,1.3,1.13-.49,1-2,1-3a9.63,9.63,0,0,0,0-1.78c-.07-.62-.16-1.23-.2-1.84-.1-1.4-.21-2.8-.31-4.2a10.73,10.73,0,0,0-.46-3.7c-.39-.88-1.68-.12-1.3.76Z"/><path class="cls-4" d="M20.34,8.42a28.36,28.36,0,0,0-.18,3.8c0,.57.11,1.12.17,1.67a12.18,12.18,0,0,1-.11,1.71c0,.52.18,1,.17,1.53a16.3,16.3,0,0,0-.07,1.71c.07.93.21,2-.8,2.48s-.11,1.7.76,1.29a3,3,0,0,0,1.58-2.38,11.08,11.08,0,0,0-.06-1.73,17.94,17.94,0,0,0,.05-2.07,4.77,4.77,0,0,1-.13-.83c0-.33.12-.66.14-1a15.42,15.42,0,0,0-.18-1.91,22.71,22.71,0,0,1,.16-4.28c.11-1-1.39-1-1.5,0Z"/><path class="cls-4" d="M14.83,16.36a9.28,9.28,0,0,1,.37,3.06c0,.52,0,1-.06,1.57a2.16,2.16,0,0,1-.07.51s-.08.21-.05.14-.07.12-.06.12a.77.77,0,0,0-.27,1,.75.75,0,0,0,1,.27c1-.77.94-2.12,1-3.29a11.31,11.31,0,0,0-.43-3.8.77.77,0,0,0-.92-.52.74.74,0,0,0-.52.92Z"/><path class="cls-3" d="M11.49,13.56a14.89,14.89,0,0,1,.22,2.5c0,.82.08,1.65.11,2.47s.06,1.65.07,2.48a5,5,0,0,1,0,1,1.48,1.48,0,0,1-.17.5,1.51,1.51,0,0,1-.18.26c-.15.14-.14.18,0,.11l.22.17v.06l-.11.26,0,0c.34-.35-.19-.88-.53-.53a.48.48,0,0,0,0,.73c.28.23.6.06.81-.17a3.8,3.8,0,0,0,.62-2.85c0-1.21-.07-2.41-.13-3.62a22.17,22.17,0,0,0-.28-3.55c-.11-.47-.83-.27-.73.2Z"/><path class="cls-4" d="M17.64,11.9v0l-.17.23h0l-.19.05c-.23,0-.26-.23-.23-.1l0,.12c0-.05,0,0,0,0v.11a2.47,2.47,0,0,1-.08.43L17,13s-.05.1,0,0l0,.05,0,0,0,0H17c-.06,0,0,0,.06,0s0,.06.07.11l-.17.42c.35-.16.42-.58.45-.93a1.18,1.18,0,0,0-.33-1,1.79,1.79,0,0,0-1-.34l-.55-.08-.24-.05c-.09,0-.11-.08-.23-.11a.38.38,0,0,0-.46.27.37.37,0,0,0,.26.46c-.1,0,0,0,0,0l.15.06a1.17,1.17,0,0,0,.2.06l.46.07a3.82,3.82,0,0,1,.82.15c-.08,0,.11.07.05,0l.06.06s0,0,0,0v0c0,.06,0,0,0,0a.29.29,0,0,0,0,.09c0,.11,0,0,0,0s0,.07,0,.1,0,.13,0,.19,0,.13,0,0a.19.19,0,0,1,0,.08.29.29,0,0,0,0,.09c0,.06,0,0,0,0s0,.06,0,0l0,0a.05.05,0,0,1,0,0,.39.39,0,0,0-.18.43.64.64,0,0,0,.86.36,1.12,1.12,0,0,0,.53-.82,2.26,2.26,0,0,0,.06-1,.63.63,0,0,0-.28-.47.41.41,0,0,0-.61.24.39.39,0,0,0,.27.46.38.38,0,0,0,.46-.26Z"/><path class="cls-4" d="M31.86,5.7V9.92a31.54,31.54,0,0,0,.09,4,24.32,24.32,0,0,1,.16,3.82l0,2,0,1,0,.66c-.1.49.08.49.54,0-1.44-.08-1.44,2.17,0,2.25,1.78.09,1.71-2,1.74-3.24,0-1.66.15-3.33.09-5,0-.69-.21-1.36-.26-2.05s0-1.64,0-2.45V5.7a1.13,1.13,0,0,0-2.25,0Z"/><path class="cls-4" d="M43,10.63c.2,1.92.32,3.86.34,5.8,0,.95,0,1.9,0,2.85,0,.45,0,.91-.07,1.36A3.36,3.36,0,0,1,43.06,22c-.46.85.83,1.61,1.29.76A6.39,6.39,0,0,0,44.79,20c.05-1,.07-2.05.07-3.08a59.2,59.2,0,0,0-.34-6.25c-.1-1-1.6-1-1.5,0Z"/><path class="cls-4" d="M46.82,12.21l0,4.27,0,2.14v1.75c0,.16,0,.15.21,0-1,.07-1,1.57,0,1.5s1.27-.8,1.29-1.64,0-1.78,0-2.67l0-5.34a.75.75,0,0,0-1.5,0Z"/><path class="cls-4" d="M52,6.64c.67-.06.38,3,.39,3.5,0,1.35.06,2.71.11,4.06.09,2.66.19,5.31.3,8l.75-.75-1.18.13c-.95.1-1,1.6,0,1.5l1.18-.13a.77.77,0,0,0,.75-.75c-.13-3.31-.27-6.61-.37-9.92,0-1.6,0-3.2,0-4.8,0-1.13-.56-2.43-1.9-2.31-.95.08-1,1.58,0,1.5Z"/><path class="cls-4" d="M55.07,14.77l.14,3.6a4.79,4.79,0,0,1-.08,1.56c-.07.25-.16.48-.21.73a3.47,3.47,0,0,0-.06.45v.23c0,.13.09.06.22-.22a.75.75,0,0,0,.4,1.45,1.06,1.06,0,0,0,.8-.72,3.47,3.47,0,0,0,.08-.79c0-.33.21-.65.28-1a4.53,4.53,0,0,0,.1-1c0-1.43-.11-2.86-.17-4.28,0-1-1.54-1-1.5,0Z"/><path class="cls-4" d="M50.39,1.52a2.74,2.74,0,0,1,.09.39l0-.2a2.26,2.26,0,0,1,0,.52l0-.2a2.46,2.46,0,0,1-.15.53l.08-.18a2.43,2.43,0,0,1-.2.35l.12-.15s-.09.1-.15.15l.15-.12-.09.05.18-.07-.11,0,.2,0a1.78,1.78,0,0,0-.75.16,1,1,0,0,0-.51.84.75.75,0,1,0,1.5,0v0l0,.2a.07.07,0,0,1,0,0l-.07.18v0L50.56,4,50.63,4l-.16.12.06,0-.18.07.12,0-.2,0A3.07,3.07,0,0,0,50.8,4a1.24,1.24,0,0,0,.54-.35,2.42,2.42,0,0,0,.49-.87,2.74,2.74,0,0,0,0-1.7.77.77,0,0,0-.34-.45A.78.78,0,0,0,50.91.6a.74.74,0,0,0-.52.92Z"/><path class="cls-4" d="M63.48,14c-.24-.1-.16-.13-.1.11s.07.31.11.46c.07.37.14.73.2,1.09a19.54,19.54,0,0,1,.2,2,20.25,20.25,0,0,1,0,2.06,6.69,6.69,0,0,1-.06.9,1.66,1.66,0,0,0-.06.21c0,.09,0,.12,0,.08s.13-.07,0,0a.76.76,0,0,0-.53.92.78.78,0,0,0,.93.53c.83-.16,1.12-1,1.2-1.76a18.71,18.71,0,0,0,0-2.9,21.4,21.4,0,0,0-.34-2.87c-.15-.88-.24-1.87-1.17-2.25a.75.75,0,0,0-.4,1.45Z"/><path class="cls-4" d="M70.36,12.63c.17.82.33,1.64.49,2.45A11.27,11.27,0,0,1,71,17.54,22.59,22.59,0,0,0,71.17,20c0,.37.08.75.09,1.12,0,.09,0,.62-.1.6-.94-.21-1.34,1.23-.4,1.45a1.63,1.63,0,0,0,1.95-1.35,12,12,0,0,0-.16-3.16c-.08-1.06.06-2.12-.1-3.17s-.42-2.18-.64-3.27-1.63-.54-1.45.4Z"/><path class="cls-3" d="M79.55,13.75a2,2,0,0,1,.27.85c.08.4.14.8.2,1.2.1.73.17,1.46.22,2.2s.07,1.49.07,2.24c0,.38.11,1.17-.32,1.36a.76.76,0,0,0-.27,1,.78.78,0,0,0,1,.27,2.12,2.12,0,0,0,1-1.9,20.57,20.57,0,0,0,0-2.83c0-1-.16-1.91-.3-2.86a4.94,4.94,0,0,0-.84-2.62.75.75,0,1,0-1.06,1.06Z"/><path class="cls-3" d="M79.36,10.22h0l0,.2h0l-.22.53h0l-.33.19h0l-.2,0h0l-.2,0h0l-.18-.08,0,0L78.17,11h0l-.11-.15a2,2,0,0,1,.13.29l-.07-.18c.06.16.13.33.18.49a3.28,3.28,0,0,1,.15.51l0-.2v0l0-.2v0l.07-.18,0,0,.12-.15,0,0,.15-.11,0,0,.18-.08H78.8l.2,0h-.07l.2,0a.66.66,0,0,1-.2-.06l-.2,1.48a1.55,1.55,0,0,0,.84-.19A1.38,1.38,0,0,0,80,12,.36.36,0,0,0,80,12a1.84,1.84,0,0,0,.09-.25,1.34,1.34,0,0,0-.11-.9,1,1,0,0,0-.21-.3,1.18,1.18,0,0,0-.47-.28.75.75,0,0,0-.85,1.1l.12.15a.79.79,0,0,0,.33.19h0l-.18-.08.09.06-.16-.12.08.07-.12-.15.06.1-.08-.18a.42.42,0,0,1,0,.15l0-.2v.14l0-.2a.27.27,0,0,1,0,.12l.08-.18a.41.41,0,0,1,0,.09l.12-.16-.08.09.15-.12-.12.07.18-.08-.17.05.2,0h-.23a.74.74,0,0,0-.53.21.76.76,0,0,0-.21.44.7.7,0,0,0,.09.47l.12.16a.78.78,0,0,0,.33.19,1,1,0,0,0,1.29-.4,1,1,0,0,0,.11-.47,2.08,2.08,0,0,0-.06-.36c0-.11-.07-.23-.11-.34-.1-.29-.21-.56-.33-.83a.79.79,0,0,0-.18-.29.86.86,0,0,0-.38-.22.76.76,0,0,0-1,.94.58.58,0,0,0,.13.26.76.76,0,0,0,.21.19.83.83,0,0,0,.58.08.75.75,0,0,0,.45-.35.74.74,0,0,0,.08-.58Z"/><path d="M51.9.27a13.45,13.45,0,0,1-.45,2.85c-.19.46-.31.53-.8.47l-1.33-.16c-1.9-.24-3.81-.47-5.72-.64s-3.81-.28-5.72-.29q-1.34,0-2.67.06a5,5,0,0,1-1.52.11c-.55-.19-.65-.86-.72-1.41l-.38.37,9.46,0a56.53,56.53,0,0,0,9-.5c.48-.08.28-.8-.2-.72A58.78,58.78,0,0,1,41.67.9l-9.08,0a.38.38,0,0,0-.37.38c.07.6.27,1.78.86,2.12.32.18.83,0,1.18,0,.57,0,1.14-.08,1.71-.1a61.59,61.59,0,0,1,7.44.24c2.42.21,4.83.54,7.24.82.58.07,1.08.06,1.37-.5a5.29,5.29,0,0,0,.32-1.59L52.62.47C52.7,0,52-.2,51.9.27Z"/><path d="M50.46,5.38a19.71,19.71,0,0,0,3.41-.64l-.47-.36c0,3.68,0,7.35.07,11a38.6,38.6,0,0,0,.43,5.15c.14.93.4,2.48-1,2.47a20.59,20.59,0,0,0-2.35-.26l.32.57a5.41,5.41,0,0,0,.22-3.76,28.55,28.55,0,0,1-.63-5.45c0-1.79-.07-3.59-.1-5.38a8,8,0,0,1,0-2.54c.43-1.3,2.32-.65,3.14-.2.43.23.81-.42.38-.65-1.08-.58-3-1.15-4,0a2.76,2.76,0,0,0-.39,1.74c0,1.13,0,2.27.06,3.41,0,2.12,0,4.27.21,6.38.2,1.88,1.32,4.23.37,6-.12.22,0,.6.33.56,1.22-.13,3,.89,3.93-.43a3.43,3.43,0,0,0,.2-2.3c-.14-1.05-.33-2.08-.4-3.14-.29-4.4-.11-8.87-.14-13.27A.38.38,0,0,0,53.68,4a19.46,19.46,0,0,1-3.22.61c-.47,0-.48.79,0,.75Z"/><path d="M34.3,4.76A34.62,34.62,0,0,0,33.74,15L34,20.15c0,.78.33,2-.26,2.62-.76.82-2.08.39-3,.12l.28.37-.65-11.17c-.1-1.77-.31-3.56-.29-5.33,0-1.08.32-1.7,1.56-1.75a26.18,26.18,0,0,1,2.93.18l-.33-.56L33.91,5a.38.38,0,0,0,.38.65A1.9,1.9,0,0,0,34.93,5a.38.38,0,0,0-.32-.57,27.23,27.23,0,0,0-3.25-.18A1.91,1.91,0,0,0,29.82,5a3,3,0,0,0-.45,1.77c0,1,.11,2.07.16,3.09l.78,13.41a.39.39,0,0,0,.27.36c1.27.38,3,.73,3.9-.55a2.78,2.78,0,0,0,.35-1.81c0-1.11-.12-2.22-.18-3.33C34.41,13.57,34,9.25,35,5a.38.38,0,0,0-.73-.19Z"/><path d="M41.91,10.36V20a8.74,8.74,0,0,1-.31,3.1.37.37,0,0,0,.36.47h2.47a.36.36,0,0,0,.32-.19,9.06,9.06,0,0,0,.67-3.93c0-1.59,0-3.18-.08-4.77l0-2.36a7.15,7.15,0,0,0-.09-2.07c-.17-.48-.61-.57-1.07-.63a14.41,14.41,0,0,0-2.37-.05c-.48,0-.48.78,0,.75a14.83,14.83,0,0,1,2,0c.38,0,.63,0,.75.4a4.09,4.09,0,0,1,0,1l.07,3.8c0,1.25,0,2.5.06,3.75A8.43,8.43,0,0,1,44.09,23l.33-.18H42l.36.48a7.67,7.67,0,0,0,.34-2.78V10.36a.38.38,0,0,0-.75,0Z"/><path d="M46.6,11.5c.43-.41.93.16,1,.56a5.31,5.31,0,0,1,.08,1.49l0,3.3,0,3.3v.7c0,.32.13.71-.23.82A7.15,7.15,0,0,1,46,21.8l.37.38q.07-6,0-11.93a.38.38,0,0,0-.75,0q0,6,0,11.93a.38.38,0,0,0,.38.37,7,7,0,0,0,2-.22c.51-.2.44-.79.44-1.24l0-5.06,0-2.48a5.34,5.34,0,0,0-.18-1.91A1.4,1.4,0,0,0,46.07,11c-.34.33.19.86.53.53Z"/><path d="M70.26,8.65a1.68,1.68,0,0,0-2.41-.79c-1.1.62-1.19,2.15-.77,3.21s1.62,2,2.75,1.26a2,2,0,0,0,.73-1.6A7.75,7.75,0,0,0,70.33,8l-.46.46,5.43.9c.87.14,1.76.27,2.63.43s1.89.46,2,1.43c.13,1.21-1.5,1-2.22.84s-1.7-.4-2.57-.53c-1.75-.26-3.51-.37-5.26-.47-.49,0-.48.72,0,.75a41.3,41.3,0,0,1,6.83.78,5.26,5.26,0,0,0,2.8.26,1.65,1.65,0,0,0,1.18-1.43c.11-2-2.26-2.31-3.69-2.54L70.07,7.76a.38.38,0,0,0-.47.46,5.94,5.94,0,0,1,.16,2.87c-.31,1.23-1.54.65-1.93-.18A2.09,2.09,0,0,1,68,8.74c.38-.45,1.34-.54,1.58.11.17.45.9.26.73-.2Z"/><path d="M71.59,11.62a56,56,0,0,0,.23,6.6c.11,1.09.25,2.18.42,3.26a2.7,2.7,0,0,1,.07,1.26c-.21.45-1.13.26-1.55.25a5.82,5.82,0,0,1-1.47,0,3.16,3.16,0,0,1,.2-.43,4.68,4.68,0,0,0,.21-.73,8.25,8.25,0,0,0,0-2.67c-.29-2.18-.65-4.36-1-6.54-.07-.47-.8-.27-.73.2.3,2,.61,4,.9,6a8.49,8.49,0,0,1,.09,2.8,7.24,7.24,0,0,1-.41,1.13.68.68,0,0,0,.11.71c.45.5,1.48.31,2.08.32s1.6.2,2.07-.4A2.23,2.23,0,0,0,73,21.62c-.16-1-.31-2-.41-3.06a53.69,53.69,0,0,1-.27-6.94.38.38,0,0,0-.75,0Z"/><path d="M79.88,13.09l1.43.14-.37-.37.34,6c0,1,.2,2,.17,3,0,.74-1.11,1.1-1.77.94s-.07-.61,0-.95a2.73,2.73,0,0,0,0-1.1c-.2-1-.46-1.9-.69-2.85-.47-1.92-1-3.83-1.48-5.73a.37.37,0,0,0-.72.19c.47,1.78.93,3.55,1.38,5.33.22.89.43,1.78.65,2.67a2.92,2.92,0,0,1,.15,1.4,3.28,3.28,0,0,0-.31.86c0,1.28,1.89,1,2.61.66a1.46,1.46,0,0,0,1-1.33,25.51,25.51,0,0,0-.14-2.76l-.36-6.34a.41.41,0,0,0-.38-.38l-1.43-.14c-.48-.05-.47.7,0,.75Z"/><path d="M23.84,9c.73-.83,1.48-.15,1.75.62a7.68,7.68,0,0,1,.29,2c.11,1.49.17,3,.19,4.48s0,3,0,4.48c0,.4,0,.8,0,1.19,0,.55,0,.87-.56,1.09a5.77,5.77,0,0,1-2.27.16l.37.28c-1-4.61-.54-9.5-.45-14.18a.38.38,0,0,0-.75,0c-.09,4.75-.54,9.7.47,14.38a.38.38,0,0,0,.36.27,7.29,7.29,0,0,0,2.83-.28c.8-.29.74-1,.75-1.72,0-2.24.05-4.48,0-6.72,0-1.09-.08-2.18-.16-3.28a8.69,8.69,0,0,0-.39-2.49C25.76,8,24.32,7.3,23.31,8.45c-.32.36.21.9.53.53Z"/><path d="M19.56,8.81c.46-.42,1.79-1.25,2-.32a11.46,11.46,0,0,1,.09,2.42c.06,1.71.09,3.42.1,5.13a27.64,27.64,0,0,1-.08,4.55,2.06,2.06,0,0,1-.78,1.5,6.8,6.8,0,0,1-2.75.37l.37.38-.06-7.17c0-1.17,0-2.34,0-3.51a6.7,6.7,0,0,1,.63-3.27c.23-.42-.42-.8-.65-.38-1.06,2-.73,4.41-.71,6.56l.07,7.77a.38.38,0,0,0,.38.37c1.67-.12,3.52,0,4.13-1.85a7.76,7.76,0,0,0,.23-2.3q0-1.81,0-3.63c0-2.36-.07-4.73-.2-7.09,0-.84-.38-1.11-1.23-1a3.54,3.54,0,0,0-2.07,1c-.35.33.18.86.53.53Z"/><path d="M18.21,11.31A4.79,4.79,0,0,0,16.73,11l-1.85-.2L13,10.54a5.67,5.67,0,0,0-1.59-.08,1.22,1.22,0,0,0-.91,1.81,2.25,2.25,0,0,0,2.31,1.1,8.59,8.59,0,0,1,1.9.11,5.55,5.55,0,0,1,1.75.75c.41.26.79-.39.38-.65a6.08,6.08,0,0,0-3.29-1,5.75,5.75,0,0,1-1.71-.08,1,1,0,0,1-.74-.88c0-.54.67-.49,1-.45l1.89.21,1.93.21a5.77,5.77,0,0,1,1.85.34c.43.21.81-.44.38-.65Z"/><path d="M12.26,12.86h0l.26.26-.15.28-.29,0a8.87,8.87,0,0,1,0,1.18l.08,1.38.13,2.57c.05.91.1,1.83.14,2.75,0,.68,0,2-.93,2.11-.58.05-.46-.69-.48-1.08S11,21.4,11,21c0-.89-.06-1.79-.09-2.68,0-1.83,0-3.65,0-5.48a.38.38,0,0,0-.75,0c0,2,0,4,.06,6,0,1,.06,2,.1,3,0,.64-.12,1.61.47,2a1.37,1.37,0,0,0,1.65-.11,2.58,2.58,0,0,0,.82-1.94c0-1-.08-1.95-.13-2.92l-.15-3-.09-1.7a2.83,2.83,0,0,0-.16-1.3.49.49,0,0,0-.89.4c0,.12.13.25.26.26h.06c.47.07.67-.65.19-.72Z"/><path d="M15.17,16c0-.13.2-.14.32-.09s.29.36.33.57a15.29,15.29,0,0,1,.11,1.91l.1,2a3.46,3.46,0,0,1-.2,1.94.87.87,0,0,1-.58.46c-.35.06-.35-.21-.36-.48,0-.69,0-1.39-.07-2.08L14.69,16c0-.48-.77-.49-.75,0l.15,4.58a14,14,0,0,0,.09,2.15,1,1,0,0,0,1.11.79c1.39-.15,1.56-1.77,1.51-2.86,0-.75-.08-1.49-.11-2.24s0-1.39-.13-2.06a1.34,1.34,0,0,0-.95-1.23.93.93,0,0,0-1.16.63c-.11.47.61.67.72.2Z"/><path d="M3.7,6a7.67,7.67,0,0,1,2.5-.91C7,5,7.42,5,7.54,5.92a8.81,8.81,0,0,1,0,1.15l.07,5.36c0,1.82.06,3.64,0,5.46,0,.92,0,1.84-.1,2.75A6.26,6.26,0,0,1,7,23.35a2.43,2.43,0,0,1-2.44.87c-1.46-.21-1.07-1.3-1-2.34.1-1.81.14-3.61.12-5.42s-.1-3.61-.24-5.41a14.93,14.93,0,0,1,.2-5.25l-.74-.1v.63a.38.38,0,0,0,.75,0V5.7a.37.37,0,0,0-.73-.1,14.28,14.28,0,0,0-.25,5.09c.14,1.92.24,3.84.26,5.77s0,3.87-.14,5.8c-.06,1-.27,2.31,1,2.63a4.16,4.16,0,0,0,3.39-.54c1.08-.91,1.06-2.62,1.14-3.9.25-3.81.06-7.65,0-11.47,0-1.08,0-2.17,0-3.25,0-.47,0-1-.47-1.32A2.77,2.77,0,0,0,6,4.39a8.81,8.81,0,0,0-2.68,1A.38.38,0,0,0,3.7,6Z"/><path d="M.7,10.68l.09-.14s.07-.09,0,0l0,0,.11-.1H1a.18.18,0,0,1,.07,0l.14-.08.06,0s-.06,0,0,0l.32-.08h.32l.16,0,.07,0,.05,0h0l.07,0,.07,0h0a1.31,1.31,0,0,1,.12.11.39.39,0,0,0,.54,0,.4.4,0,0,0,0-.53,1.9,1.9,0,0,0-2.94.43.38.38,0,0,0,.13.52.37.37,0,0,0,.51-.14Z"/><path d="M0,10.25Q.26,17,.74,23.72a.37.37,0,0,0,.37.37,6.15,6.15,0,0,0,2-.51c.44-.19.06-.84-.38-.65a5.17,5.17,0,0,1-1.6.41l.38.38Q1,17,.75,10.25c0-.48-.77-.48-.75,0Z"/><path d="M65,13.48l.11-.17L64.5,13l.17,5.18.09,2.68a2,2,0,0,1-.1,1.05c-.2.33-.62.31-1,.3s-.42,0-.53-.21a2.19,2.19,0,0,1,0-.57l-.08-1.34-.16-2.6c0-.86-.11-1.73-.16-2.59a3.34,3.34,0,0,1,.06-1.18c.1-.36.47-.8.89-.62s.82-.45.38-.65a1.38,1.38,0,0,0-1.59.33,2.57,2.57,0,0,0-.5,2c.09,1.84.23,3.69.34,5.54,0,.45,0,.9.08,1.34a1.57,1.57,0,0,0,.24.95c.36.46,1.15.44,1.68.36,1.66-.27,1.19-2.41,1.15-3.6L65.25,13a.38.38,0,0,0-.56-.32.81.81,0,0,0-.49.82c0,.48.78.48.75,0Z"/><path d="M54.85,14.52a2.87,2.87,0,0,0,.63.1l.64.14c.26.06.41.05.42.33s0,.5,0,.73l-.12,3a14.15,14.15,0,0,1-.16,2.69,1,1,0,0,1-.61.81.48.48,0,0,1-.63-.23c-.2-.44-.85-.06-.65.38.45,1,1.86.68,2.35-.1a4,4,0,0,0,.39-1.92L57.18,18l.09-2.43c0-.67.06-1.26-.69-1.48-.32-.1-.65-.15-1-.22a1.66,1.66,0,0,0-1,0,.74.74,0,0,0-.27,1.19c.35.33.88-.2.53-.53Z"/><path class="cls-1" d="M30.68,23.26l-.92-16"/><path d="M31.06,23.26l-.93-16c0-.48-.77-.49-.75,0l.93,16c0,.48.77.48.75,0Z"/></g></g></svg>