<svg xmlns="http://www.w3.org/2000/svg" viewBox="0 0 60.76 32.09"><defs><style>.cls-1{fill:#0d0d0d;}.cls-2{fill:#aaa9a9;}.cls-3{fill:#fdfdfd;}</style></defs><g id="Layer_2" data-name="Layer 2"><g id="Layer_4" data-name="Layer 4"><path class="cls-1" d="M5.58,23.36a12.86,12.86,0,0,1-1.74.19c-.07,0-.13,0-.18,0s-.06.09-.11.05,0-.08,0-.11c.06-.22.12-.43.17-.64s0-.1.13-.1.22-.06.23-.23a18.36,18.36,0,0,1,.3-1.95,5.86,5.86,0,0,1,.1-.58c0-.05,0-.11.09-.1s0,.07,0,.11,0,.12.11.11A11.16,11.16,0,0,1,6,20c.06,0,.12,0,.16-.08s.14,0,.14.05c0,.3.25.5.35.8.11-.14.2-.18.24,0s.08.08.13.09l.77.23c.13.05.2,0,.25-.11a1.43,1.43,0,0,0,.07-.28c0-.1.08-.21-.11-.13s-.11,0-.1-.11A.39.39,0,0,1,8,20.2a7.69,7.69,0,0,0,.68-.91c1.11-1.55,2.34-3,3.57-4.47l.88-1a.51.51,0,0,0,.13-.3c0-.21.06-.42.1-.63s0-.16-.11-.14-.13,0-.14,0,.07-.07.12-.08c.83-.2,1.65-.41,2.47-.59l4.16-.91a.5.5,0,0,0,.29-.18q2.31-2.82,4.63-5.63c.52-.62,1.07-1.21,1.6-1.82,0,0,.07-.07.07-.09-.09-.25.12-.21.25-.25l1.45-.47L35.93.26l.13,0s.07,0,.07,0a.06.06,0,0,1,0,.08l-.24.08L28.7,2.61c-.61.19-1.22.38-1.84.54-.23.06-.33.16-.34.38L26.4,5.6a2.53,2.53,0,0,0,.49-.14c1.47-.54,3-.9,4.5-1.3s3.14-.82,4.68-1.33c.08,0,.2-.12.24,0s-.12.13-.2.16a18.76,18.76,0,0,1-2,.68c-.93.26-1.85.57-2.8.8-.09,0-.13.06-.12.16a.5.5,0,0,1,0,.21c0,.12.06.13.13.1l1.51-.44c1.12-.3,2.23-.61,3.35-.9.14,0,.19-.09.19-.24a23.73,23.73,0,0,0,0-2.53c0-.21,0-.41-.08-.62,0-.06-.05-.17,0-.17s.18,0,.27,0l3.6,3.47,5.4,5.19,1.87,1.81a.45.45,0,0,1,.14.31,18.66,18.66,0,0,0,.17,2c.22,1.46.32,2.93.5,4.39.08.67.15,1.33.22,2,0,.05,0,.13,0,.14s-.1-.05-.11-.12,0-.12-.06-.08-.19-.24-.27,0-.2-.06-.14.12,0,.45.27.57.24.2.41.24.06.14.07.21c0,.55.11,1.1.15,1.65,0,.15.07.19.2.18,1.28-.11,2.57,0,3.85-.12A1,1,0,0,1,53,22c.05,0,.12,0,.11,0,0,.21.16.23.26.3.36.25.74.49,1.11.73l.08.05c.08.05.21.13.18.19s-.17,0-.29,0c0,.23.06.46.1.7q.51,3.54,1,7.09c0,.13.07.16.19.18,1.51.19,3,.41,4.54.54a1.53,1.53,0,0,0,.43,0v.23A6.08,6.08,0,0,0,59.63,32c-1.38-.05-2.74-.26-4.11-.43-1.61-.2-3.2-.43-4.8-.64a11.83,11.83,0,0,1-2-.44,8,8,0,0,0-2.17-.38L45.17,30c-.12,0-.25-.05-.36,0s-.05,0-.07,0c-.31-.19-.67-.08-1-.16-.12,0-.15.08-.22.13h0s0-.15-.08-.16-.18,0-.22.09a.41.41,0,0,1-.16.19s0,0,0,0c0-.29,0-.28-.31-.32l-2.15-.32c-.25,0-.26,0-.23.26,0-.22,0-.22-.12-.3a.12.12,0,0,0-.13,0l-.34,0a.45.45,0,0,0-.28,0l-.74,0a1.7,1.7,0,0,0-.55,0l-.54,0a1.52,1.52,0,0,0-.52,0c-.69,0-1.37,0-2.06,0a1,1,0,0,0-.43,0l-1,0a4.6,4.6,0,0,0-.91,0h-.63a3.1,3.1,0,0,0-.86,0l-.58,0a.24.24,0,0,0-.2,0l-.42,0a.23.23,0,0,0-.2,0H28.32a.88.88,0,0,0-.36,0l-.15,0c-.1,0-.16.08-.26,0a3.36,3.36,0,0,0-1,0l-.73,0a1.8,1.8,0,0,0-.52,0h-.74a4.61,4.61,0,0,0-.83,0H21.29c-.05-.05-.11,0-.18,0l-.38,0a.25.25,0,0,0-.17,0H20.3a.12.12,0,0,0-.13,0l-.26,0a.2.2,0,0,0-.17,0l-.3,0a.39.39,0,0,0-.28,0,25.69,25.69,0,0,0-2.91,0c-.66.05-1.31.07-2,.11s-1.46.14-2.19.22c-.42,0-.84.1-1.26.11s-1,.07-1.45.07c-.09,0-.16,0-.19.11s-.14.1-.19,0a.21.21,0,0,0-.19-.1c-1.8.09-3.59-.06-5.39.05-.2,0-.43-.06-.6.14h0c-.3-.23-.63-.07-.95-.05-.59,0-1.17.11-1.76.17,0,0,0,0-.07,0H0a5.91,5.91,0,0,1,2-.48l.54-.05c.13,0,.18-.06.2-.18.27-1.63.59-3.25.94-4.87a1.9,1.9,0,0,0,0-.25.06.06,0,0,1,.06-.06s.06,0,.06,0c0,.17.12.16.21.21a6.71,6.71,0,0,0,1,.4c.14.06.18,0,.21-.13.11-.53.22-1.06.37-1.58.14,0,.13.06.12.14a5.46,5.46,0,0,0-.1.69c0,.39-.26.77-.12,1.18,0,0,0,0,0,0-.19.12-.15.33-.19.51L4.62,29.5c0,.17,0,.21.17.21q.51,0,1,0c.13,0,.17,0,.19-.17.2-1.24.41-2.48.61-3.72a1,1,0,0,0,0-.77c-.06-.1-.1-.14-.22-.13s-.44,0-.65.06v-.06l.78-.08c-.26-.53-.48-1.05-.7-1.59ZM39.88,3.47h0s0,0,0,0h0a.06.06,0,0,0-.05-.06.06.06,0,0,0,0,0L37,.65s-.06-.1-.12-.08,0,.11,0,.16c0,.74,0,1.47,0,2.21a.34.34,0,0,0,.13.28L47.4,12.64c.05,0,.09.12.18.12a19.35,19.35,0,0,1-.12-2c0-.09-.07-.12-.12-.17L45.48,8.81l-4-3.87c-.36-.34-.7-.71-1.08-1,0,0,0-.07-.08-.05h0c0-.05,0-.06,0-.05h0s0-.06,0,0h0a.59.59,0,0,0-.28-.28h0S39.92,3.47,39.88,3.47ZM44.18,16s0,0,0,0a3.33,3.33,0,0,0-.48-.52c0,.11,0,.2.06.27a2.11,2.11,0,0,0,.4.26l0,0a.08.08,0,0,0,.09,0v0h0S44.22,15.93,44.18,16ZM30.73,8.79s-.09,0-.1,0a.13.13,0,0,0,.12,0l.05-.05S30.75,8.76,30.73,8.79ZM17.27,23.91c.1,0,.22,0,.32-.08l-.36,0-.35,0c-.11,0-.24,0-.26.17-.08.91-.19,1.81-.29,2.72-.08.74-.17,1.49-.26,2.23,0,.15,0,.16.15.15l1.35-.05a28.19,28.19,0,0,1,3.18.14c1.15.11,2.3,0,3.46.08,1,0,2,0,3-.08.08,0,.17,0,.15-.12a11.55,11.55,0,0,1,0-1.95c0-.15,0-.19-.17-.23L21.3,25.45c-1.39-.35-2.8-.68-4.18-1.09-.06,0-.16,0-.15-.12s.11,0,.17,0l.05,0c.74.15,1.48.33,2.22.52a.69.69,0,0,0,.25,0l1.63-.21,3.27-.36,3-.34c1.31-.15,2.61-.31,3.92-.44,1.58-.15,3.14-.49,4.74-.5.66,0,1.31-.11,2-.17L42,22.39l2-.18c.11,0,.14-.05.13-.15a3.14,3.14,0,0,1,0-.53c0-.18-.07-.2-.22-.18l-1.09.11-2.15.21-2.56.26-2.15.21-2.93.3-2.55.24-2.92.3-2.93.29-3.73.38L17.14,24c-.07-.05-.19.1-.22-.06ZM48.21,19v0h0c0-.06-.08-.08-.13-.11-.4-.29-.8-.57-1.2-.87a1.67,1.67,0,0,0-.63-.3c0,.25,0,.25.17.37s.5.32.73.51A1.63,1.63,0,0,0,48.21,19Zm-30-5.6h0c-1.57.31-3.14.63-4.73.88a.12.12,0,0,0-.11.11c0,.28-.09.55-.14.83a3.1,3.1,0,0,0,.7-.14c1.18-.27,2.36-.52,3.55-.77.07,0,.16,0,.21-.08a9.08,9.08,0,0,0,.57-.81l0,0h0Zm-8.08,9.38a6.64,6.64,0,0,0,1.54-.14c.09,0,.13-.05.14-.15.07-.46.15-.92.23-1.38,0-.26.08-.52.12-.82-.36.49-.69.94-1,1.37a3.63,3.63,0,0,1-.9.89s-.07,0-.06-.07a.88.88,0,0,1,.16-.32,20.83,20.83,0,0,1,1.82-2.05.17.17,0,0,0,0-.11l.12-.92c.07-.53.1-1.06.19-1.59a.1.1,0,0,0,0-.09l0,.06A9.37,9.37,0,0,1,11.33,19c-.69.77-1.28,1.62-2,2.37-.05.05-.07.1,0,.12s.17.05.14.15-.14.07-.22,0a.2.2,0,0,0-.28.08l-.65.78L8,22.94C8.76,22.83,9.45,22.78,10.14,22.74ZM29.83,8.27c0-.19.26-.09.36-.21-.13,0-.24,0-.36.06s-.13.08-.09.18L29.57,9c1-.24,1.95-.58,2.93-.77-.06.09-.16.11-.24.15a9.6,9.6,0,0,0-1.16.34,9.29,9.29,0,0,0,1.16-.27l1.5-.37c.38-.1.39-.1.29.28a.89.89,0,0,1-.2.47,1.47,1.47,0,0,1,0-.63l-.2,0L30.64,9c-.85.2-1.69.43-2.54.61-.06,0-.13,0-.14.1s-.06.31-.09.46v0h0l.26-.07c.68-.23,1.4-.33,2.1-.5s1.71-.31,2.55-.55c.33-.09.69-.13,1-.19,0,0,.12,0,.13,0s0,.09-.11.1l-.37.06c-.78.14-1.53.39-2.32.5-.11,0-.12.08-.12.16,0,.48,0,1-.05,1.45,0,.14,0,.14.16.12l4.93-1.07c.18,0,.22-.11.22-.28,0-2.05.07-4.1,0-6.15,0-.19-.06-.2-.21-.15l-2.48.72-2.37.69c-.06,0-.14,0-.14.12,0,.58,0,1.16,0,1.75.06,0,.12,0,.19,0l1.39-.38c.1,0,.21,0,.19.11a1.55,1.55,0,0,1-.16.63.47.47,0,0,0-.14.35.31.31,0,0,1-.16.28c0-.11,0-.21,0-.32ZM12.69,17.06c0,.4-.09.76-.13,1.13-.08.85-.18,1.7-.3,2.54-.09.62-.2,1.25-.29,1.87,0,.25,0,.25.23.22l1.64-.19,1.94-.21,2.43-.26,1.95-.2,2.74-.3,2.36-.25,3.1-.34,2.74-.28,3-.35L36,20.25a.12.12,0,0,0,.12-.12c0-.19,0-.37,0-.56.08-2.27.09-4.53.13-6.8,0-.14,0-.17-.16-.14L34.38,13c-2.71.51-5.43,1-8.13,1.54L15.3,16.71c-.67.13-1.33.24-2,.41A.63.63,0,0,1,12.69,17.06ZM39.82,28c0-.1,0-.15.13-.16a.16.16,0,0,1,.17.11l.09.22a5,5,0,0,1,.14.86c0,.13.06.17.19.19l1.14.17c.12,0,.17,0,.16-.14a8.1,8.1,0,0,0-.07-1.3c0-.06,0-.13.06-.14s.1,0,.11.11a2,2,0,0,1,.06.42c0,.32,0,.64,0,1,0,.08,0,.14.1.15l.93.12c.09,0,.13,0,.13-.11s0-.38,0-.56c0-.59,0-1.18,0-1.76a3.8,3.8,0,0,1,.11-.95c0-.06,0-.12.12-.11s.08.07.08.13a1.33,1.33,0,0,1,0,.2,5.79,5.79,0,0,0,0,1.44,7.61,7.61,0,0,1-.08,1.58c0,.07-.07.18.09.2s.19,0,.22-.14c.07-.31.15-.61.2-.92,0-.07,0-.16.13-.13s.06.1.06.16a.5.5,0,0,1,0,.12c-.07.26-.14.53-.22.79s0,.16.12.16a4.07,4.07,0,0,1,.49.05c.2,0,.22-.05.2-.22-.09-.77-.18-1.53-.22-2.3-.08-1.43-.12-2.86-.23-4.29,0-.14,0-.33,0-.41s-.28,0-.42,0c-1.18.09-2.35.17-3.53.28-1.53.15-3.06.22-4.58.42-.56.07-1.12.11-1.67.17l-3.85.41L27.92,24c-.08,0-.14,0-.14.13,0,.64,0,1.28,0,1.92l-.06,3c0,.16,0,.2.2.19,1-.05,2.07-.05,3.11-.11.69,0,1.38,0,2.07,0,2-.05,4-.12,6,0l1,.05c.06,0,.14,0,.12-.09-.06-.32-.1-.65-.19-1C40,28,40,27.87,39.82,28ZM37,10.92c.09,0,.13,0,.19.08,1.83,1.29,3.68,2.58,5.5,3.89a.77.77,0,0,0,.85.15l.12,0c.11,0,.22,0,.18.17s.05.11.09.15A20.7,20.7,0,0,0,46,17.1s.09.08.11.07.11,0,.14.09a.24.24,0,0,0,.05.1c.17.12.3.29.47.41l1.34.94c.05,0,.09.08.16.07s0-.23,0-.34c-.07-.7-.15-1.4-.22-2.09s-.17-1.66-.25-2.49c0-.14,0-.34-.21-.34,0,0,0,0,0,0a7.33,7.33,0,0,0-.65-.6L37,4.1s-.05-.08-.12,0,0,.11,0,.17q0,3.56,0,7.11a.29.29,0,0,0,.16.28l3.22,2.18c.61.42,1.23.83,1.83,1.26.2.14.36.29.62.19.08,0,.2,0,.21-.07s-.1-.12-.16-.16L37.1,11.06C37,11,37,11,37,10.92Zm7.11,9.92c0-.37-.08-.84-.13-1.32,0-.09,0-.17-.17-.16-1.4.13-2.8.22-4.19.38-.9.11-1.79.25-2.7.29-.09,0-.2,0-.2.16s-.08.12-.16.13l-1.59.17-1.67.17-1.69.18-2,.21-2.4.26-2,.2-2.38.26L20.43,22l-2.73.3L15,22.6l-2.85.3c-.15,0-.21.06-.2.2s0,.19-.1.18-.07-.12-.06-.18-.05-.16-.16-.14a4.93,4.93,0,0,1-.66.07C10,23,9,23.1,8,23.15c-.16,0-.15.06-.1.17.2.39.39.79.57,1.18.05.12.11.13.23.12l1-.11,2.1-.21,2.21-.22,2.14-.21,2.59-.26L21,23.4l2.19-.22L25.29,23l2.25-.22,2.18-.22,1.65-.17c.05,0,.13,0,.14,0s.08.08.13.07l1.2-.12,2.56-.26,2.54-.25,2.93-.3,2.93-.28C44.08,21.23,44.08,21.22,44.06,20.84ZM12.72,16.77l.75-.16,7.29-1.39c3.17-.62,6.33-1.31,9.49-2L36.08,12c.16,0,.21-.1.21-.26,0-.42,0-.84,0-1.25,0-.19-.06-.18-.2-.15l-2.52.53c-.8.17-1.61.35-2.42.51a.2.2,0,0,0-.18.24,1.22,1.22,0,0,1,0,.27c0,.08,0,.12-.13.12a.13.13,0,0,1-.11-.12V11.7c0-.13,0-.18-.16-.14l-4.47.95c-.12,0-.21.07-.2.21a.07.07,0,0,1-.07.08s-.07,0-.06-.07-.07-.13-.16-.11c-.53.12-1.06.26-1.6.35s-1,.3-1.57.36a7.45,7.45,0,0,0-.94.19c-1,.2-1.92.39-2.87.61-.36.08-.78,0-1.05.38,0,0-.09,0-.09,0,0-.22-.12-.09-.18-.08l-4,.83s-.1,0-.12,0-.16.06-.26.05-.17,0-.17.12A12.1,12.1,0,0,1,12.72,16.77Zm-1.37,12.8,1.71-.18q1.33-.11,2.67-.18c.11,0,.15-.05.16-.16a6,6,0,0,1,.07-.74c.23-1.42.35-2.85.57-4.27,0-.09,0-.11-.1-.1l-1.92.19-3,.3-2.76.27c-.15,0-.14.05-.09.17.7,1.44,1.39,2.89,2.09,4.34C10.94,29.58,10.94,29.58,11.35,29.57ZM29.64,8.19l-.53.1c-.09,0-.15,0-.11-.13l.15-.48a.24.24,0,0,1,.17-.19c.44-.17.91-.27,1.36-.4.11,0,.17,0,.18-.19,0-.53.05-1.07.07-1.61,0-.12-.06-.09-.13-.07l-.61.18-3.68,1c-.1,0-.18,0-.19.17,0,.73-.1,1.45-.15,2.18-.08,1.1-.15,2.21-.23,3.31,0,.35,0,.35.3.27l.09,0,4.25-.91c.11,0,.17-.06.17-.2,0-.47,0-1,0-1.42,0-.13,0-.18-.16-.13a.8.8,0,0,1-.15,0l-2.61.61c-.11,0-.15,0-.12-.09a3.18,3.18,0,0,0,.1-.52A.23.23,0,0,1,28,9.5l1.61-.42c-.25-.09-.17-.26-.13-.42S29.6,8.37,29.64,8.19ZM44.23,19.32s0,.05,0,.06a21.28,21.28,0,0,1,.41,3,.31.31,0,0,0,.15.23c.5.37,1.08.61,1.6.94a1.15,1.15,0,0,1,.35.29,1.31,1.31,0,0,1-.35-.11,10,10,0,0,1-1.52-.88s-.1-.1-.17-.06,0,.11,0,.16c0,.75.11,1.5.13,2.25a35.42,35.42,0,0,0,.35,4.36c0,.15.08.2.23.21q1,0,2,.12c.12,0,.14,0,.13-.14-.08-.74-.16-1.48-.23-2.21Q47,24.24,46.65,21c0-.2-.13-.27-.25-.37s-.09.06-.13,0c-.13-.23-.39-.3-.58-.44C45.23,19.85,44.73,19.61,44.23,19.32Zm7.7,8.19c-.86,0-1.72.09-2.58.12-.13,0-.14.07-.13.17.07.73.13,1.46.19,2.18,0,.07,0,.17-.06.18s-.09-.09-.1-.15c-.06-.71-.13-1.41-.18-2.12,0-.2-.07-.24-.25-.21-.4,0-.8.08-1.2.1-.11,0-.12,0-.11.14.06.62.13,1.24.19,1.86,0,.08,0,.11.11.12.55.1,1.08.29,1.62.43,1.43.36,2.89.45,4.34.68.14,0,.11-.05.1-.14L53.63,29c-.05-.41-.1-.83-.16-1.24,0-.06,0-.17-.1-.18a5.81,5.81,0,0,0-.72,0Zm-1-5.29c-.78,0-1.41,0-2,.05-.09,0-.13,0-.11.12s0,.31,0,.47c.08.7.12,1.4.17,2.09,0,.15.07.19.2.18.95-.09,1.9-.05,2.85-.07.32,0,.63,0,.94,0,.13,0,.15-.07.14-.19-.12-.83-.22-1.65-.32-2.48,0-.16-.06-.21-.22-.19A11.82,11.82,0,0,1,50.91,22.22ZM21.26,12.51l0,0,2.26-.45a.28.28,0,0,0,.18-.14c.51-.68,1.11-1.28,1.63-2a3.89,3.89,0,0,1,.43-.48c.06-.07.13-.12.2,0,.06-.8.12-1.59.16-2.39,0-.23.13-.47,0-.7,0,0,0-.06,0-.08s.07-.21.07-.34l-.06,0a.41.41,0,0,0-.05.09,2,2,0,0,1-.44.82c-1.34,1.75-2.68,3.5-4.13,5.17C21.45,12.25,21.36,12.38,21.26,12.51ZM51.88,27.35c.54,0,1,0,1.38,0,.11,0,.15,0,.14-.15-.08-.54-.14-1.07-.2-1.61,0-.32,0-.32-.36-.31h-.06c-1.05,0-2.11,0-3.16,0-.16,0-.31,0-.47,0s-.14,0-.13.15c.06.62.12,1.23.16,1.85,0,.13.06.15.18.14A22.51,22.51,0,0,1,51.88,27.35ZM21.54,10.73l.56-.11a.85.85,0,0,0,.49-.32q1.59-2,3.2-3.92a1.71,1.71,0,0,0,.52-1.16c0-.54.06-1.08.1-1.61C24.32,6,22.33,8.5,20.27,11l.36-.07a.9.9,0,0,0,.67-.41c1.5-1.9,3-3.76,4.57-5.62.08-.1.2-.3.27-.23s-.08.22-.16.32c-1.43,1.86-2.86,3.71-4.33,5.55A.32.32,0,0,0,21.54,10.73ZM9.48,29.67h0l1-.07c.15,0,.18,0,.11-.19-.72-1.5-1.44-3-2.15-4.53a.2.2,0,0,0-.24-.13L7,24.86c-.11,0-.11.06-.09.14a.94.94,0,0,0,.06.15c.66,1.51,1.42,3,2.18,4.43a.16.16,0,0,0,.17.1ZM20,24.87c0,.05.06,0,.1.05l7.21,1.81c.14,0,.17,0,.16-.14s0-.21,0-.31c0-.38,0-.36-.34-.5-.89-.36-1.75-.77-2.6-1.2-.16-.28-.41-.15-.63-.14l-.15,0C22.52,24.6,21.27,24.76,20,24.87ZM3.87,24.8c-.08.46-.16.89-.24,1.31-.22,1.18-.43,2.35-.65,3.52,0,.12,0,.15.14.14l1-.05c.13,0,.18,0,.21-.16.27-1.34.55-2.67.84-4,0-.1,0-.14-.1-.18A7.23,7.23,0,0,1,3.87,24.8Zm2.89.72c0,.36-.1.65-.14.95-.16,1-.32,2-.49,3,0,.17,0,.23.17.24.78,0,1.55,0,2.33,0,.16,0,.2,0,.11-.19-.41-.78-.82-1.55-1.19-2.35C7.31,26.63,7,26.11,6.76,25.52Zm36.76-7.11c0-.13,0-.28,0-.43a.26.26,0,0,0-.12-.24,1,1,0,0,0-1-.23H42.3l-2.2.21c-.13,0-.17.06-.17.2,0,.41,0,.83,0,1.24,0,.14,0,.19.18.17l2.76-.24c.19,0,.45,0,.56-.09S43.49,18.63,43.52,18.41Zm4.13-5.13a.64.64,0,0,0-.26-.51L37,3.37c0-.05-.09-.12-.19-.11s0,.26,0,.39a.3.3,0,0,0,.12.25l4,3.48,6.58,5.81S47.57,13.29,47.65,13.28ZM36.76,14.69h0c0,.4,0,.8,0,1.19,0,.16,0,.21.19.19.83-.07,1.66-.19,2.48-.33a.13.13,0,0,0,.12-.06.83.83,0,0,0-.13-.61l-2.5-1.7c-.14-.09-.15,0-.15.09Zm2.88,3.92h0c0-.21,0-.42,0-.64s0-.18-.18-.15c-.84.11-1.69.24-2.54.31-.13,0-.15.07-.15.19,0,.41,0,.82,0,1.22,0,.13,0,.12.14.12.89,0,1.76-.17,2.64-.26.09,0,.12,0,.11-.14ZM12.68,16h0l-.41.54c-1.21,1.5-2.47,3-3.72,4.43-.22.26-.21.27.1.35l.17.05A.19.19,0,0,0,9,21.26l2.9-3.41a9.2,9.2,0,0,1,.63-.77.1.1,0,0,0,0-.1c0-.06-.06,0-.1,0s-.13,0-.14-.05.09-.06.13-.08.15,0,.16-.12S12.65,16.21,12.68,16Zm34.74,9.38c-.15-.06-.18,0-.16.22.08.65.14,1.3.21,2,0,.12,0,.16.18.14.39-.05.78-.11,1.18-.14.17,0,.21-.07.19-.23-.06-.6-.1-1.19-.15-1.79,0-.12,0-.17-.17-.16Zm-5.24-10a.71.71,0,0,0-.25-.22L38.79,13,37,11.72s-.09-.1-.15-.06,0,.09,0,.14,0,.29,0,.43a.25.25,0,0,0,.13.23l4.38,2.89a.37.37,0,0,0,.23.07A4.45,4.45,0,0,1,42.18,15.35Zm-29-1.27c-.09,0-.11.1-.16.15l-1,1.21q-1.8,2.18-3.48,4.44a1.75,1.75,0,0,0-.24.81l1.24-1.5c.89-1.07,1.78-2.14,2.72-3.18.09-.11.17-.25.31-.28s.11-.09.11-.16a3.36,3.36,0,0,1,.07-.61c.08.12,0,.22.06.32.07-.06.21,0,.22-.13C13.05,14.79,13.12,14.44,13.17,14.08Zm5.75-1.61h-.09c-1.67.29-3.33.6-5,.86a.24.24,0,0,0-.16.09.91.91,0,0,0-.28.6c0,.12,0,.15.13.12l1-.23,3.8-.77c.06,0,.12,0,.15-.08ZM53.77,27.8c0,.17,0,.3,0,.44.12.91.29,1.82.37,2.74,0,.09.05.09.11.1l.81.11c.14,0,.17,0,.15-.16-.1-.82-.21-1.65-.3-2.48a.28.28,0,0,0-.24-.27,1.21,1.21,0,0,1-.33-.15Zm-17-11v.47c0,.13,0,.18.16.15l.6-.07c.63-.07,1.27-.07,1.9-.18.13,0,.18-.07.17-.2s0-.52,0-.78,0-.22-.22-.19a17.11,17.11,0,0,1-2,.23c-.18,0-.44-.06-.54,0S36.77,16.63,36.75,16.8ZM14,13.07c.1.06.17,0,.24,0,1.59-.28,3.19-.57,4.78-.87.08,0,.18,0,.24-.07l.59-.75-.24,0c-1.61.36-3.22.73-4.85,1C14.28,12.5,14.16,12.8,14,13.07Zm39,9.13a.82.82,0,0,1,0,.14c.12.78.25,1.56.35,2.34,0,.29.12.47.43.51a2.15,2.15,0,0,1,.32.13,3.26,3.26,0,0,0,.5.21c0-.1,0-.18,0-.27-.07-.55-.15-1.11-.19-1.66A.64.64,0,0,0,54,23a1.66,1.66,0,0,1-.31-.23Zm-5.19,1.55h.07v1.33c0,.09,0,.11.11.1.25,0,.51,0,.76,0s.15-.05.14-.16c-.08-.86-.15-1.72-.23-2.59,0-.09,0-.12-.13-.11a5.65,5.65,0,0,1-.58,0c-.12,0-.15.05-.15.16C47.75,22.91,47.75,23.33,47.75,23.75Zm7.17,4.49c-.11-.82-.23-1.65-.34-2.47,0-.07-.06-.09-.11-.11l-.88-.38c-.06,0-.12-.09-.18,0s0,.11,0,.16c.08.61.18,1.21.25,1.82a.5.5,0,0,0,.24.37A9.54,9.54,0,0,1,54.92,28.24ZM7.07,22.09l0,.18a10.34,10.34,0,0,1-.35,1.24,1.06,1.06,0,0,0,0,1.15c.08.09.13.14.24.13l1.24-.12c.11,0,.11-.05.07-.12a.77.77,0,0,0-.07-.16l-.91-1.92C7.2,22.36,7.14,22.25,7.07,22.09Zm34.1-6.67c0-.05-.09-.07-.15-.11l-4-2.66c-.07-.05-.15-.16-.22-.12s0,.17,0,.25c0,.26.07.4.29.53.75.47,1.48,1,2.23,1.44a.46.46,0,0,0,.18.1c0-.18.06-.23.13-.22s.13.13.16.22,0,.19.08.25A1.15,1.15,0,0,0,41.17,15.42ZM24.63,24.36l2.79,1.23c.11.05.11,0,.11-.1,0-.44,0-.89.08-1.33,0-.12,0-.14-.14-.13l-1.16.13ZM31,4.74c.05-.19,0-.23-.19-.17s-.68.17-1,.27c-1.05.28-2.09.6-3.13.93-.2.07-.27.13-.27.34s0,.17.19.13c1.38-.39,2.77-.79,4.16-1.17C30.9,5,31,5,31,4.74Zm1.82,1.9-.35.1c-.49.17-1,.3-1.49.44s-1,.26-1.56.41a.13.13,0,0,0-.12.09c-.05.16-.11.32-.17.51.62-.13,1.2-.3,1.8-.44s1.17-.31,1.76-.45c.05,0,.09,0,.08-.08A4.13,4.13,0,0,1,32.78,6.64Zm14.69,13c.09.85.21,1.66.25,2.48,0,.09.06.1.14.09a4.9,4.9,0,0,1,.54,0c.13,0,.18,0,.17-.18,0-.54-.09-1.08-.12-1.61,0-.06,0-.11-.06-.14A2.36,2.36,0,0,0,48,20l0,.26C48,19.85,47.72,19.75,47.47,19.6Zm-23.4-7.66,0,0,.61-.12a7.9,7.9,0,0,1,1.08-.2c.1,0,.06-.07.06-.11,0-.31.06-.63.08-1s0-.66,0-1Zm22.7,9c0,.36.08.71.11,1.06s0,.33.37.28h.07c.16,0,.21-.07.19-.23-.06-.8-.11-1.61-.16-2.41a.12.12,0,0,0,0-.11L46.64,19c0,.16,0,.27,0,.38a7.66,7.66,0,0,1,0,1.07.19.19,0,0,0,.11.23,2.38,2.38,0,0,1,.43.34s.1.09,0,.15-.12,0-.17,0A1.47,1.47,0,0,0,46.77,20.91ZM20,13.68h.08l2.64-.57a.14.14,0,0,0,.12-.06,4.88,4.88,0,0,1,.52-.7.29.29,0,0,0-.21,0c-.41.07-.82.18-1.23.23a1.75,1.75,0,0,0-1.4.77c0,.06-.11.13-.18.11S20.12,13.59,20,13.68Zm21.9,3.06c-.38-.25-.73-.45-1-.7a.86.86,0,0,0-.88-.15c-.09,0-.13.06-.13.16q0,.45,0,.9c0,.09,0,.12.13.1ZM25.79,11.87,24,12.21a.29.29,0,0,0-.13,0,5.1,5.1,0,0,0-.66.77l2.14-.46c.52-.11.52-.12.5-.65C25.81,11.9,25.8,11.89,25.79,11.87Zm18,4.68c-.21.2-.2.32,0,.47l2.07,1.37c.06,0,.1.09.17.09s0-.13,0-.19a.47.47,0,0,0-.28-.53c-.66-.43-1.3-.89-1.95-1.33a.44.44,0,0,0-.19-.1C43.62,16.44,43.62,16.54,43.78,16.55ZM47.6,23.8h-.07c0-.43,0-.86,0-1.29,0-.05,0-.13-.07-.15-.33-.08-.53.1-.49.43.08.72.16,1.44.23,2.17,0,.27,0,.29.32.25.07,0,.08,0,.08-.11Zm-4-6.75a1.5,1.5,0,0,1,0,.31.37.37,0,0,0,.21.39c.63.4,1.26.82,1.89,1.24.12.08.24.12.35,0s0-.34-.11-.41l-.54-.35Zm1.84,2.13s0-.05,0-.06L43.74,18c-.1-.07-.11,0-.12.08a4.51,4.51,0,0,0,0,.9c0,.07,0,.1.1.08s.33,0,.48.13l.42.24a.18.18,0,0,0,.2,0A4.57,4.57,0,0,1,45.48,19.18Zm-8.73-1.42c0,.29,0,.29.27.25l2.45-.34c.19,0,.12-.15.13-.24s-.09-.12-.17-.11c-.82.11-1.64.13-2.45.22C36.8,17.56,36.69,17.58,36.75,17.76Zm-29,5.06c.08-.13.21-.2.2-.33A8.18,8.18,0,0,1,8,21.38c0-.1,0-.13-.11-.16L7,21s-.1-.06-.14,0a.14.14,0,0,0,0,.16C7.15,21.71,7.42,22.25,7.7,22.82Zm35-5.51v0l-.53-.34a.19.19,0,0,0-.13,0l-1.95.29c-.2,0-.15.15-.15.27s.11.11.19.11l1.07-.12Zm1-1.57a.48.48,0,0,0,.22.62c.68.43,1.34.9,2,1.35,0,0,.08.08.14.06,0-.23,0-.23-.14-.38a24,24,0,0,0-2-1.47ZM5.83,21.85a9,9,0,0,1-1.49.32.1.1,0,0,0-.1.1c0,.12,0,.25-.08.38s0,.11.08.09c.47-.06.93-.1,1.39-.12.07,0,0-.05.06-.08C5.73,22.32,5.78,22.1,5.83,21.85Zm.92-.41s0,0,0,.06c-.23.6-.36,1.22-.64,1.8a.14.14,0,0,0,0,.11l.32.66c0-.09,0-.15,0-.2.14-.59.24-1.2.41-1.78A.69.69,0,0,0,6.75,21.44Zm35-5.8,1.25.83a.41.41,0,0,0,.38.08c.07,0,.19,0,.2-.09s0-.22-.11-.31-.56-.37-.84-.56a.23.23,0,0,0-.18-.07Zm-.9.12,1.36.89a.19.19,0,0,0,.15,0l.63-.1a11.27,11.27,0,0,1-1.05-.71A1.16,1.16,0,0,0,40.82,15.76ZM5.73,23.17c0-.31-.11-.36-.42-.36a13.31,13.31,0,0,1-1.41.07c-.07,0-.06,0-.06.06l-.09.47A15.06,15.06,0,0,1,5.73,23.17Zm40.53-5.09c0,.14,0,.23,0,.33a.34.34,0,0,0,.2.37l1.07.71.26.17c-.11-.32,0-.71-.53-.66.07,0,.14,0,.17-.07s0-.05,0-.07ZM6,23.17c.06-.19.1-.35.15-.51.14-.49.27-1,.44-1.48.09-.29-.09-.35-.29-.38,0,0-.07,0-.06,0s0,.19,0,.29a6.58,6.58,0,0,1-.31,1.45A.63.63,0,0,0,6,23.17ZM4.55,21.05c.44,0,.87-.12,1.31-.18.06,0,.12,0,.13-.08s-.06-.09-.12-.1l-1.19-.36c-.08,0-.12,0-.13.07s0,.37-.07.56S4.46,21.07,4.55,21.05Zm16-9.16.6-.1c.09,0,.18,0,.24-.07l.74-.9-.78.17a.27.27,0,0,0-.16.1Zm-.11,1-.61.13c-.08,0-.18,0-.23.08-.22.26-.42.52-.67.83l1-.21s.07,0,0-.06,0-.17.08-.23Zm24.44,6.64c.44.26.84.48,1.21.75,0-.21,0-.38,0-.55a.4.4,0,0,0-.51-.36C45.39,19.42,45.18,19.49,44.91,19.53ZM19.41,12.1c.28,0,.55,0,.71-.16a6,6,0,0,0,.65-.77,4.68,4.68,0,0,0-.54.08.38.38,0,0,0-.24.11Zm-.27,1.11,0-.05c-.21.06-.47,0-.63.17a9.16,9.16,0,0,0-.64.84c.35-.11.73,0,.86-.43l0-.05Zm1.95-1.12a1.13,1.13,0,0,0-1.2.71A1.15,1.15,0,0,0,21.09,12.09ZM4.31,22a12.22,12.22,0,0,1,1.45-.25c.17,0,.13-.19.13-.28s-.12,0-.17,0a6.25,6.25,0,0,1-1.13.21C4.35,21.69,4.28,21.79,4.31,22Zm14.4-9a1.09,1.09,0,0,0,1.11-.71C19.24,12.25,19,12.6,18.71,13ZM4.39,21.45c0,.05,0,.12.08.1.47-.08.92-.21,1.4-.26.1,0,.07-.11.07-.17s-.05-.05-.09-.05a8.72,8.72,0,0,1-1.24.14A.22.22,0,0,0,4.39,21.45ZM8,22.38c.17-.2.32-.39.48-.57.29-.34.29-.33-.14-.45-.14,0-.18,0-.19.13C8.15,21.78,8.09,22.07,8,22.38Zm34.48-5.53c.26.16.46.45.82.38.07,0,.17.05.19-.07a.23.23,0,0,0-.09-.25C43.14,16.64,42.83,16.82,42.52,16.85Zm1-.77c0-.17.14-.33,0-.48a.69.69,0,0,0-.83-.1Zm3.11,4.49c0-.17,0-.34,0-.51l-.06-.85s0-.1-.07-.09a.08.08,0,0,0-.09.1v.11a3.21,3.21,0,0,1,0,.82C46.35,20.44,46.34,20.44,46.64,20.57Zm-41.59-.3c.29.08.58.15.86.24s.14-.08.15-.16.09-.17-.09-.18A3.56,3.56,0,0,0,5.05,20.27Zm9.17-7.74-.59.12a.1.1,0,0,0-.09.11,2.13,2.13,0,0,0,0,.25c0,.06,0,.13,0,.16a.16.16,0,0,0,.19-.06ZM36.41.15a3.41,3.41,0,0,0,.05.66c.13-.13-.08-.38.17-.49A.47.47,0,0,0,36.41.15Zm3.41,15.2c0,.12,0,.24,0,.29a.37.37,0,0,0,.31-.06ZM19.15,23.72a4.48,4.48,0,0,0-1.21.12ZM6.29,20.32c-.1.27-.09.31.12.3Zm37.06-5c.09.06.14.13.24.14C43.61,15.27,43.61,15.27,43.35,15.37Zm2.93,3.43c0,.22,0,.22.2.14ZM43.5,17.5c0-.05,0-.13,0-.16s-.13,0-.2,0A.44.44,0,0,0,43.5,17.5Zm-18,5.58a.63.63,0,0,0-.31,0A.66.66,0,0,0,25.47,23.08Zm4.81-.5a.48.48,0,0,0,.29,0A.57.57,0,0,0,30.28,22.58Zm-3.57.35a1,1,0,0,0,.34,0A.65.65,0,0,0,26.71,22.93Zm-5.51.57.27,0A.32.32,0,0,0,21.2,23.5Zm-.39,0,.28,0A.34.34,0,0,0,20.81,23.54Zm-.11,0v0h-.28v0Zm-.36,0a.63.63,0,0,0-.36,0A.86.86,0,0,0,20.34,23.59Zm-1.1.11.29,0A.29.29,0,0,0,19.24,23.7Zm.68-.08a.87.87,0,0,0-.32,0A.44.44,0,0,0,19.92,23.62Zm11-1.08a.39.39,0,0,0-.26,0A.57.57,0,0,0,31,22.54Zm-1.88.16a.56.56,0,0,0,.29,0A.48.48,0,0,0,29.08,22.7Zm-.38,0a.53.53,0,0,0,.28,0A.45.45,0,0,0,28.7,22.74Zm-.08,0a.61.61,0,0,0-.33,0A.74.74,0,0,0,28.62,22.77Zm-.41,0a.69.69,0,0,0-.32,0A.58.58,0,0,0,28.21,22.81Zm-.39,0a.93.93,0,0,0-.33,0A.61.61,0,0,0,27.82,22.84Zm-.7.05a.65.65,0,0,0,.31,0A.54.54,0,0,0,27.12,22.89Zm-2.07.23a1,1,0,0,0-.34,0A.65.65,0,0,0,25.05,23.12Zm-.73.05a.83.83,0,0,0,.35,0A.7.7,0,0,0,24.32,23.17Zm-.34,0a.41.41,0,0,0,.31,0Zm-2.42.25a.65.65,0,0,0,.34,0A.65.65,0,0,0,21.56,23.44Zm.45,0a.42.42,0,0,0,.27,0A.41.41,0,0,0,22,23.4ZM26.36,23a.36.36,0,0,0,.25,0A.52.52,0,0,0,26.36,23Zm-3.69.38a.53.53,0,0,0-.28,0A.39.39,0,0,0,22.67,23.35ZM30.53,8.82l-.06,0s0,0,0,0l.06,0ZM23.86,23.24h0ZM30.24,8l0,0,.06,0h-.08Zm0,.93s.05,0,.05,0l0,0-.05,0Zm-.1,0s0,0-.05,0h0l.06,0Zm.32-.07,0,0s-.08,0-.07,0S30.39,8.92,30.42,8.89ZM26.19,23h0Z"/><path class="cls-2" d="M26.55,29.59a3.36,3.36,0,0,1,1,0c.1,0,.16-.08.26,0s0,.21-.21.18C27.25,29.66,26.9,29.63,26.55,29.59Z"/><path class="cls-2" d="M32.77,29.4a4.6,4.6,0,0,1,.91,0A2.33,2.33,0,0,1,32.77,29.4Z"/><path class="cls-2" d="M31.28,29.4a3.1,3.1,0,0,1,.86,0A2.48,2.48,0,0,1,31.28,29.4Z"/><path class="cls-2" d="M23.73,29.61a4.61,4.61,0,0,1,.83,0A1.94,1.94,0,0,1,23.73,29.61Z"/><path class="cls-2" d="M38.2,29.38a1.7,1.7,0,0,1,.55,0A.86.86,0,0,1,38.2,29.38Z"/><path class="cls-2" d="M37.14,29.34a1.52,1.52,0,0,1,.52,0A.77.77,0,0,1,37.14,29.34Z"/><path class="cls-2" d="M25.3,29.63a1.8,1.8,0,0,1,.52,0A.72.72,0,0,1,25.3,29.63Z"/><path class="cls-2" d="M34.65,29.36a1,1,0,0,1,.43,0A.54.54,0,0,1,34.65,29.36Z"/><path class="cls-2" d="M28,29.51a.88.88,0,0,1,.36,0A.38.38,0,0,1,28,29.51Z"/><path class="cls-2" d="M39.49,29.42a.45.45,0,0,1,.28,0A.26.26,0,0,1,39.49,29.42Z"/><path class="cls-2" d="M19.16,29.42a.39.39,0,0,1,.28,0A.26.26,0,0,1,19.16,29.42Z"/><path class="cls-2" d="M30.5,29.44a.24.24,0,0,1,.2,0A.15.15,0,0,1,30.5,29.44Z"/><path class="cls-2" d="M29.88,29.48a.23.23,0,0,1,.2,0A.15.15,0,0,1,29.88,29.48Z"/><path class="cls-2" d="M20.56,29.53a.25.25,0,0,1,.17,0A.1.1,0,0,1,20.56,29.53Z"/><path class="cls-2" d="M19.74,29.46a.2.2,0,0,1,.17,0A.11.11,0,0,1,19.74,29.46Z"/><path class="cls-2" d="M21.11,29.59c.07,0,.13,0,.18,0S21.16,29.66,21.11,29.59Z"/><path class="cls-2" d="M20.17,29.5a.12.12,0,0,1,.13,0C20.25,29.56,20.21,29.55,20.17,29.5Z"/><path class="cls-2" d="M40.11,29.46a.12.12,0,0,1,.13,0C40.19,29.52,40.15,29.51,40.11,29.46Z"/><path class="cls-1" d="M43.47,30.11s0,0,.06-.05h0s0,0,0,0Z"/><polygon class="cls-1" points="43.48 30.1 43.48 30.11 43.47 30.11 43.48 30.1"/><path class="cls-3" d="M12.69,17.06a.63.63,0,0,0,.62.06c.66-.17,1.32-.28,2-.41l11-2.22c2.7-.55,5.42-1,8.13-1.54l1.73-.32c.13,0,.17,0,.16.14,0,2.27-.05,4.53-.13,6.8,0,.19,0,.37,0,.56a.12.12,0,0,1-.12.12l-1.85.19-3,.35-2.74.28-3.1.34-2.36.25-2.74.3-1.95.2-2.43.26-1.94.21-1.64.19c-.24,0-.26,0-.23-.22.09-.62.2-1.25.29-1.87.12-.84.22-1.69.3-2.54C12.6,17.82,12.64,17.46,12.69,17.06Z"/><path class="cls-3" d="M39.82,28c.13-.08.18,0,.21.11.09.32.13.65.19,1,0,.12-.06.09-.12.09l-1-.05c-2-.1-4,0-6,0-.69,0-1.38,0-2.07,0-1,.06-2.07.06-3.11.11-.16,0-.21,0-.2-.19l.06-3c0-.64,0-1.28,0-1.92,0-.12.06-.12.14-.13l2.17-.25,3.85-.41c.55-.06,1.11-.1,1.67-.17,1.52-.2,3-.27,4.58-.42,1.18-.11,2.35-.19,3.53-.28.14,0,.33-.11.42,0s0,.27,0,.41c.11,1.43.15,2.86.23,4.29,0,.77.13,1.53.22,2.3,0,.17,0,.25-.2.22a4.07,4.07,0,0,0-.49-.05c-.12,0-.15,0-.12-.16s.15-.53.22-.79a.5.5,0,0,0,0-.12c0-.06,0-.15-.06-.16s-.12.06-.13.13c-.05.31-.13.61-.2.92,0,.13-.1.15-.22.14s-.11-.13-.09-.2a7.61,7.61,0,0,0,.08-1.58,5.79,5.79,0,0,1,0-1.44,1.33,1.33,0,0,0,0-.2c0-.06,0-.12-.08-.13s-.1,0-.12.11a3.8,3.8,0,0,0-.11.95c0,.58,0,1.17,0,1.76,0,.18,0,.37,0,.56s0,.12-.13.11l-.93-.12c-.11,0-.1-.07-.1-.15,0-.32,0-.64,0-1a2,2,0,0,0-.06-.42c0-.06,0-.12-.11-.11s-.07.08-.06.14a8.1,8.1,0,0,1,.07,1.3c0,.14,0,.16-.16.14l-1.14-.17c-.13,0-.18-.06-.19-.19a5,5,0,0,0-.14-.86l-.09-.22a.16.16,0,0,0-.17-.11C39.87,27.8,39.83,27.85,39.82,28Z"/><path class="cls-2" d="M37,10.92c0,.08.09.11.15.14L42.66,15c.06,0,.19.07.16.16s-.13,0-.21.07c-.26.1-.42-.05-.62-.19-.6-.43-1.22-.84-1.83-1.26l-3.22-2.18a.29.29,0,0,1-.16-.28q0-3.55,0-7.11c0-.06,0-.12,0-.17s.09,0,.12,0l9.89,8.79a7.33,7.33,0,0,1,.65.6s0,0,0,0c.25,0,.19.2.21.34.08.83.16,1.66.25,2.49s.15,1.39.22,2.09c0,.11.07.22,0,.34s-.11,0-.16-.07l-1.34-.94c-.17-.12-.3-.29-.47-.41a.24.24,0,0,1-.05-.1c0-.07,0-.19-.14-.09s-.08,0-.11-.07a20.7,20.7,0,0,1-2.09-1.76s-.11-.07-.09-.15-.07-.18-.18-.17l-.12,0a.77.77,0,0,1-.85-.15c-1.82-1.31-3.67-2.6-5.5-3.89C37.08,11,37,10.9,37,10.92Z"/><path class="cls-3" d="M44.06,20.84c0,.38,0,.39-.26.42l-2.93.28-2.93.3-2.54.25-2.56.26-1.2.12c-.05,0-.11,0-.13-.07s-.09,0-.14,0l-1.65.17-2.18.22L25.29,23l-2.15.21L21,23.4l-2.14.21-2.59.26-2.14.21-2.21.22-2.1.21-1,.11c-.12,0-.18,0-.23-.12-.18-.39-.37-.79-.57-1.18,0-.11-.06-.16.1-.17C9,23.1,10,23,10.92,23a4.93,4.93,0,0,0,.66-.07c.11,0,.18,0,.16.14s0,.17.06.18.1-.1.1-.18,0-.19.2-.2L15,22.6l2.75-.28,2.73-.3,2.37-.25,2.38-.26,2-.2,2.4-.26,2-.21,1.69-.18,1.67-.17,1.59-.17c.08,0,.16,0,.16-.13s.11-.16.2-.16c.91,0,1.8-.18,2.7-.29,1.39-.16,2.79-.25,4.19-.38.16,0,.16.07.17.16C44,20,44,20.47,44.06,20.84Z"/><path class="cls-2" d="M17.14,24.19c-.06,0-.16,0-.17,0s.09.1.15.12c1.38.41,2.79.74,4.18,1.09L27.18,27c.13,0,.18.08.17.23a11.55,11.55,0,0,0,0,1.95c0,.15-.07.12-.15.12-1,.06-2,.11-3,.08-1.16,0-2.31,0-3.46-.08a28.19,28.19,0,0,0-3.18-.14l-1.35.05c-.12,0-.17,0-.15-.15.09-.74.18-1.49.26-2.23.1-.91.21-1.81.29-2.72,0-.2.15-.14.26-.16l0,0c0,.16.15,0,.22.06Z"/><path class="cls-3" d="M12.72,16.77a12.1,12.1,0,0,0,.07-1.33c0-.13.1-.12.17-.12s.19,0,.26-.05.08,0,.12,0l4-.83c.06,0,.21-.14.18.08,0,.06.07,0,.09,0,.27-.35.69-.3,1.05-.38.95-.22,1.91-.41,2.87-.61a7.45,7.45,0,0,1,.94-.19c.54-.06,1-.28,1.57-.36s1.07-.23,1.6-.35c.09,0,.18,0,.16.11s0,.08.06.07a.07.07,0,0,0,.07-.08c0-.14.08-.18.2-.21l4.47-.95c.16,0,.18,0,.16.14v.23a.13.13,0,0,0,.11.12c.08,0,.13,0,.13-.12a1.22,1.22,0,0,0,0-.27.2.2,0,0,1,.18-.24c.81-.16,1.62-.34,2.42-.51l2.52-.53c.14,0,.21,0,.2.15,0,.41,0,.83,0,1.25,0,.16,0,.22-.21.26l-5.83,1.22c-3.16.65-6.32,1.34-9.49,2l-7.29,1.39Z"/><path class="cls-3" d="M27.87,10.15c0-.15.07-.3.09-.46s.08-.09.14-.1c.85-.18,1.69-.41,2.54-.61l3.06-.75.2,0a1.47,1.47,0,0,0,0,.63.89.89,0,0,0,.2-.47c.1-.38.09-.38-.29-.28l-1.5.37V8.37c.08,0,.18-.06.24-.15-1,.19-1.93.53-2.93.77l.17-.69.09,0,2.62-.7c0,.11,0,.21,0,.32a.31.31,0,0,0,.16-.28.47.47,0,0,1,.14-.35,1.55,1.55,0,0,0,.16-.63c0-.14-.09-.14-.19-.11l-1.39.38c-.07,0-.13.06-.19,0,0-.59,0-1.17,0-1.75,0-.1.08-.1.14-.12l2.37-.69,2.48-.72c.15,0,.21,0,.21.15,0,2.05,0,4.1,0,6.15,0,.17,0,.24-.22.28l-4.93,1.07c-.12,0-.16,0-.16-.12,0-.48,0-1,.05-1.45,0-.08,0-.14.12-.16.79-.11,1.54-.36,2.32-.5L33.86,9c.06,0,.13,0,.11-.1s-.08-.06-.13,0c-.34.06-.7.1-1,.19-.84.24-1.71.34-2.55.55s-1.42.27-2.1.5l-.26.07Z"/><path class="cls-3" d="M11.35,29.57c-.41,0-.41,0-.59-.36-.7-1.45-1.39-2.9-2.09-4.34-.05-.12-.06-.16.09-.17l2.76-.27,3-.3,1.92-.19c.09,0,.12,0,.1.1-.22,1.42-.34,2.85-.57,4.27a6,6,0,0,0-.07.74c0,.11-.05.15-.16.16q-1.34.08-2.67.18Z"/><path class="cls-2" d="M40.36,3.91c.38.32.72.69,1.08,1l4,3.87,1.86,1.77c0,.05.12.08.12.17a19.35,19.35,0,0,0,.12,2c-.09,0-.13-.07-.18-.12L37,3.22a.34.34,0,0,1-.13-.28c0-.74,0-1.47,0-2.21,0,0,0-.13,0-.16s.09.05.12.08l2.83,2.69a.06.06,0,0,1,0,0l.05.06h0l0,0h0l0,0h0a.4.4,0,0,0,.28.28h0l0,0h0l0,.05h0C40.29,3.91,40.33,3.9,40.36,3.91Z"/><path class="cls-3" d="M29.64,8.19c0,.18-.08.32-.12.47s-.12.33.13.42L28,9.5a.23.23,0,0,0-.2.22,3.18,3.18,0,0,1-.1.52c0,.13,0,.12.12.09l2.61-.61a.8.8,0,0,0,.15,0c.14,0,.17,0,.16.13,0,.47,0,.95,0,1.42,0,.14-.06.18-.17.2l-4.25.91-.09,0c-.33.08-.33.08-.3-.27.08-1.1.15-2.21.23-3.31,0-.73.11-1.45.15-2.18,0-.14.09-.15.19-.17l3.68-1,.61-.18c.07,0,.13,0,.13.07,0,.54,0,1.08-.07,1.61,0,.14-.07.16-.18.19-.45.13-.92.23-1.36.4a.24.24,0,0,0-.17.19L29,8.16c0,.12,0,.14.11.13Z"/><path class="cls-3" d="M17.14,24.19V24l3.74-.36,3.73-.38L27.54,23l2.92-.3L33,22.44l2.93-.3,2.15-.21,2.56-.26,2.15-.21,1.09-.11c.15,0,.23,0,.22.18a3.14,3.14,0,0,0,0,.53c0,.1,0,.14-.13.15l-2,.18-3.83.34c-.66.06-1.31.16-2,.17-1.6,0-3.16.35-4.74.5-1.31.13-2.61.29-3.92.44l-3,.34-3.27.36-1.63.21a.69.69,0,0,1-.25,0c-.74-.19-1.48-.37-2.22-.52Z"/><path class="cls-2" d="M44.23,19.32c.5.29,1,.53,1.46.86.19.14.45.21.58.44,0,.06.08,0,.13,0s.24.17.25.37q.32,3.26.65,6.51c.07.73.15,1.47.23,2.21,0,.12,0,.15-.13.14q-1-.08-2-.12c-.15,0-.21-.06-.23-.21a35.42,35.42,0,0,1-.35-4.36c0-.75-.09-1.5-.13-2.25,0-.05,0-.13,0-.16s.12,0,.17.06a10,10,0,0,0,1.52.88,1.31,1.31,0,0,0,.35.11,1.15,1.15,0,0,0-.35-.29c-.52-.33-1.1-.57-1.6-.94a.31.31,0,0,1-.15-.23,21.28,21.28,0,0,0-.41-3S44.22,19.36,44.23,19.32Z"/><path class="cls-3" d="M51.93,27.51h.72a5.81,5.81,0,0,1,.72,0c.12,0,.09.12.1.18.06.41.11.83.16,1.24l.24,1.89c0,.09,0,.16-.1.14-1.45-.23-2.91-.32-4.34-.68-.54-.14-1.07-.33-1.62-.43-.08,0-.1,0-.11-.12-.06-.62-.13-1.24-.19-1.86,0-.09,0-.13.11-.14.4,0,.8-.06,1.2-.1.18,0,.24,0,.25.21,0,.71.12,1.41.18,2.12,0,.06,0,.17.1.15s.06-.11.06-.18c-.06-.72-.12-1.45-.19-2.18,0-.1,0-.16.13-.17C50.21,27.6,51.07,27.5,51.93,27.51Z"/><path class="cls-3" d="M50.91,22.22a11.82,11.82,0,0,0,1.65,0c.16,0,.21,0,.22.19.1.83.2,1.65.32,2.48,0,.12,0,.17-.14.19-.31,0-.62,0-.94,0-1,0-1.9,0-2.85.07-.13,0-.19,0-.2-.18,0-.69-.09-1.39-.17-2.09,0-.16,0-.31,0-.47s0-.12.11-.12C49.5,22.26,50.13,22.19,50.91,22.22Z"/><path class="cls-2" d="M21.26,12.51c.1-.13.19-.26.3-.38C23,10.46,24.35,8.71,25.69,7a2,2,0,0,0,.44-.82.41.41,0,0,1,.05-.09l.06,0c0,.13,0,.24-.07.34s-.05.06,0,.08c.15.23,0,.47,0,.7,0,.8-.1,1.59-.16,2.39-.07-.11-.14-.06-.2,0a3.89,3.89,0,0,0-.43.48c-.52.67-1.12,1.27-1.63,2a.28.28,0,0,1-.18.14l-2.26.45Z"/><path class="cls-3" d="M51.88,27.35a22.51,22.51,0,0,0-2.52.12c-.12,0-.17,0-.18-.14,0-.62-.1-1.23-.16-1.85,0-.12,0-.14.13-.15s.31,0,.47,0c1.05,0,2.11-.05,3.16,0h.06c.32,0,.32,0,.36.31.06.54.12,1.07.2,1.61,0,.13,0,.16-.14.15C52.84,27.31,52.42,27.35,51.88,27.35Z"/><path class="cls-3" d="M21.54,10.73a.32.32,0,0,1,.11-.19C23.12,8.7,24.55,6.85,26,5c.08-.1.26-.22.16-.32s-.19.13-.27.23c-1.53,1.86-3.07,3.72-4.57,5.62a.9.9,0,0,1-.67.41l-.36.07c2.06-2.5,4.05-5,6.14-7.39,0,.53-.11,1.07-.1,1.61a1.71,1.71,0,0,1-.52,1.16q-1.61,2-3.2,3.92a.85.85,0,0,1-.49.32Z"/><path class="cls-3" d="M9.48,29.67H9.27a.16.16,0,0,1-.17-.1c-.76-1.46-1.52-2.92-2.18-4.43A.94.94,0,0,1,6.86,25c0-.08,0-.13.09-.14l1.21-.11a.2.2,0,0,1,.24.13c.71,1.51,1.43,3,2.15,4.53.07.16,0,.19-.11.19l-1,.07Z"/><path class="cls-2" d="M20,24.87c1.25-.11,2.5-.27,3.76-.41l.15,0c.22,0,.47-.14.63.14.85.43,1.71.84,2.6,1.2.36.14.37.12.34.5,0,.1,0,.21,0,.31s0,.17-.16.14l-7.21-1.81S20,24.92,20,24.87Z"/><path class="cls-3" d="M5.58,23.36l.19-.11c.22.54.44,1.06.7,1.59l-.78.08V25c.21,0,.43,0,.65-.06s.16,0,.22.13a1,1,0,0,1,0,.77c-.2,1.24-.41,2.48-.61,3.72,0,.13-.06.17-.19.17q-.51,0-1,0c-.17,0-.21,0-.17-.21l.69-3.56c0-.18,0-.39.19-.51,0,0,0,0,0,0-.14-.41.09-.79.12-1.18a5.46,5.46,0,0,1,.1-.69c0-.08,0-.18-.12-.14Z"/><path class="cls-2" d="M12.51,17.45c-.09.53-.12,1.06-.19,1.59L12.2,20a.17.17,0,0,1,0,.11,20.83,20.83,0,0,0-1.82,2.05.88.88,0,0,0-.16.32s0,.06.06.07-.14.12-.1.23c-.69,0-1.38.09-2.11.2l.32-.44L9,21.72a.2.2,0,0,1,.28-.08c.08,0,.18.07.22,0s-.06-.13-.14-.15-.07-.07,0-.12c.71-.75,1.3-1.6,2-2.37a9.37,9.37,0,0,0,1.13-1.54Z"/><path class="cls-3" d="M3.87,24.8A7.23,7.23,0,0,0,5,25.37c.09,0,.12.08.1.18-.29,1.34-.57,2.67-.84,4,0,.13-.08.16-.21.16l-1,.05c-.13,0-.16,0-.14-.14.22-1.17.43-2.34.65-3.52C3.71,25.69,3.79,25.26,3.87,24.8Z"/><path class="cls-3" d="M6.76,25.52c.28.59.55,1.11.79,1.65.37.8.78,1.57,1.19,2.35.09.17,0,.19-.11.19-.78,0-1.55.05-2.33,0-.19,0-.2-.07-.17-.24.17-1,.33-2,.49-3C6.66,26.17,6.71,25.88,6.76,25.52Z"/><path class="cls-2" d="M43.52,18.41c0,.22.09.48,0,.6s-.37.07-.56.09l-2.76.24c-.15,0-.18,0-.18-.17,0-.41,0-.83,0-1.24,0-.14,0-.19.17-.2l2.2-.21h.09a1,1,0,0,1,1,.23.26.26,0,0,1,.12.24C43.51,18.13,43.52,18.28,43.52,18.41Z"/><path class="cls-2" d="M47.65,13.28c-.08,0-.12,0-.16-.09L40.91,7.38l-4-3.48a.3.3,0,0,1-.12-.25c0-.13,0-.26,0-.39s.14.06.19.11l10.38,9.4A.64.64,0,0,1,47.65,13.28Z"/><path class="cls-2" d="M36.76,14.69V13.46c0-.12,0-.18.15-.09l2.5,1.7a.83.83,0,0,1,.13.61.13.13,0,0,1-.12.06c-.82.14-1.65.26-2.48.33-.16,0-.2,0-.19-.19,0-.39,0-.79,0-1.19Z"/><path class="cls-2" d="M39.64,18.61v.65c0,.09,0,.13-.11.14-.88.09-1.75.25-2.64.26-.09,0-.14,0-.14-.12,0-.4,0-.81,0-1.22,0-.12,0-.18.15-.19.85-.07,1.7-.2,2.54-.31.16,0,.18,0,.18.15s0,.43,0,.64Z"/><path class="cls-3" d="M18.23,13.37a9.08,9.08,0,0,1-.57.81c-.05.07-.14.06-.21.08-1.19.25-2.37.5-3.55.77a3.1,3.1,0,0,1-.7.14c.05-.28.1-.55.14-.83a.12.12,0,0,1,.11-.11c1.59-.25,3.16-.57,4.73-.88h.05Z"/><path class="cls-3" d="M12.68,16c0,.25-.06.5-.08.75s-.1.09-.16.12-.14,0-.13.08.09.05.14.05.08,0,.1,0a.1.1,0,0,1,0,.1,9.2,9.2,0,0,0-.63.77L9,21.26a.19.19,0,0,1-.22.06l-.17-.05c-.31-.08-.32-.09-.1-.35C9.76,19.45,11,18,12.23,16.49l.41-.54Z"/><path class="cls-3" d="M47.42,25.34H48.7c.13,0,.16,0,.17.16.05.6.09,1.19.15,1.79,0,.16,0,.22-.19.23-.4,0-.79.09-1.18.14-.14,0-.17,0-.18-.14-.07-.66-.13-1.31-.21-2C47.24,25.36,47.27,25.28,47.42,25.34Z"/><path class="cls-2" d="M42.18,15.35a4.45,4.45,0,0,0-.67.07.37.37,0,0,1-.23-.07L36.9,12.46a.25.25,0,0,1-.13-.23c0-.14,0-.28,0-.43s0-.11,0-.14.11,0,.15.06L38.79,13l3.14,2.15A.71.71,0,0,1,42.18,15.35Z"/><path class="cls-3" d="M13.17,14.08c-.05.36-.12.71-.14,1.07,0,.15-.15.07-.22.13,0-.1,0-.2-.06-.32a3.36,3.36,0,0,0-.07.61c0,.07,0,.13-.11.16s-.22.17-.31.28c-.94,1-1.83,2.11-2.72,3.18L8.3,20.69a1.75,1.75,0,0,1,.24-.81q1.68-2.26,3.48-4.44l1-1.21C13.06,14.18,13.08,14.11,13.17,14.08Z"/><path class="cls-3" d="M18.92,12.47l-.45.59c0,.06-.09.07-.15.08l-3.8.77-1,.23c-.12,0-.15,0-.13-.12a.91.91,0,0,1,.28-.6.24.24,0,0,1,.16-.09c1.67-.26,3.33-.57,5-.86Z"/><path class="cls-2" d="M53.77,27.8l.62.33a1.21,1.21,0,0,0,.33.15.28.28,0,0,1,.24.27c.09.83.2,1.66.3,2.48,0,.14,0,.18-.15.16l-.81-.11c-.06,0-.1,0-.11-.1-.08-.92-.25-1.83-.37-2.74C53.81,28.1,53.79,28,53.77,27.8Z"/><path class="cls-2" d="M36.75,16.8c0-.17-.09-.42,0-.54s.36,0,.54,0a17.11,17.11,0,0,0,2-.23c.17,0,.23,0,.22.19s0,.52,0,.78,0,.18-.17.2c-.63.11-1.27.11-1.9.18l-.6.07c-.14,0-.17,0-.16-.15Z"/><path class="cls-3" d="M14,13.07c.21-.27.33-.57.76-.65,1.63-.29,3.24-.66,4.85-1l.24,0-.59.75c-.06.07-.16.06-.24.07-1.59.3-3.19.59-4.78.87C14.12,13.06,14.05,13.13,14,13.07Z"/><path class="cls-2" d="M52.94,22.2l.73.56A1.66,1.66,0,0,0,54,23a.64.64,0,0,1,.36.61c0,.55.12,1.11.19,1.66,0,.09,0,.17,0,.27a3.26,3.26,0,0,1-.5-.21,2.15,2.15,0,0,0-.32-.13c-.31,0-.4-.22-.43-.51-.1-.78-.23-1.56-.35-2.34A.82.82,0,0,0,52.94,22.2Z"/><path class="cls-3" d="M47.75,23.75c0-.42,0-.84,0-1.27,0-.11,0-.16.15-.16a5.65,5.65,0,0,0,.58,0c.09,0,.13,0,.13.11.08.87.15,1.73.23,2.59,0,.11,0,.16-.14.16s-.51,0-.76,0c-.08,0-.11,0-.11-.1V23.75Z"/><path class="cls-2" d="M54.92,28.24a9.54,9.54,0,0,0-1-.65.5.5,0,0,1-.24-.37c-.07-.61-.17-1.21-.25-1.82,0,0-.05-.13,0-.16s.12,0,.18,0l.88.38c.05,0,.1,0,.11.11C54.69,26.59,54.81,27.42,54.92,28.24Z"/><path class="cls-3" d="M7.07,22.09c.07.16.13.27.18.38l.91,1.92a.77.77,0,0,1,.07.16c0,.07,0,.11-.07.12l-1.24.12c-.11,0-.16,0-.24-.13a1.06,1.06,0,0,1,0-1.15A10.34,10.34,0,0,0,7,22.27Z"/><path class="cls-2" d="M41.17,15.42a1.15,1.15,0,0,1-1.34-.32c-.09-.06,0-.17-.08-.25s0-.2-.16-.22-.09,0-.13.22a.46.46,0,0,1-.18-.1c-.75-.48-1.48-1-2.23-1.44-.22-.13-.34-.27-.29-.53,0-.08,0-.21,0-.25s.15.07.22.12l4,2.66C41.08,15.35,41.14,15.37,41.17,15.42Z"/><path class="cls-2" d="M24.63,24.36l1.68-.2L27.47,24c.12,0,.15,0,.14.13,0,.44-.05.89-.08,1.33,0,.08,0,.15-.11.1Z"/><path class="cls-3" d="M31,4.74c.05.21-.06.28-.26.33-1.39.38-2.78.78-4.16,1.17-.15,0-.19,0-.19-.13s.07-.27.27-.34c1-.33,2.08-.65,3.13-.93.34-.1.69-.17,1-.27S31,4.55,31,4.74Z"/><path class="cls-3" d="M32.78,6.64a4.13,4.13,0,0,0-.05.58c0,.07,0,.07-.08.08-.59.14-1.17.32-1.76.45s-1.18.31-1.8.44c.06-.19.12-.35.17-.51a.13.13,0,0,1,.12-.09c.52-.15,1-.27,1.56-.41s1-.27,1.49-.44Z"/><path class="cls-2" d="M47.47,19.6c.25.15.49.25.48.61L48,20a2.36,2.36,0,0,1,.41.25s0,.08.06.14c0,.53.07,1.07.12,1.61,0,.14,0,.18-.17.18a4.9,4.9,0,0,0-.54,0c-.08,0-.13,0-.14-.09C47.68,21.26,47.56,20.45,47.47,19.6Z"/><path class="cls-3" d="M10.14,22.74c0-.11.1-.14.1-.23a3.63,3.63,0,0,0,.9-.89c.34-.43.67-.88,1-1.37,0,.3-.08.56-.12.82-.08.46-.16.92-.23,1.38,0,.1-.05.13-.14.15A6.64,6.64,0,0,1,10.14,22.74Z"/><path class="cls-3" d="M24.07,11.94,25.93,9.6c0,.34,0,.67,0,1s-.05.64-.08,1c0,0,0,.11-.06.11a7.9,7.9,0,0,0-1.08.2l-.61.12Z"/><path class="cls-2" d="M46.77,20.91a1.47,1.47,0,0,1,.36.27s.12.1.17,0,0-.11,0-.15a2.38,2.38,0,0,0-.43-.34.19.19,0,0,1-.11-.23,7.66,7.66,0,0,0,0-1.07c0-.11,0-.22,0-.38l.67.45a.12.12,0,0,1,0,.11c0,.8.1,1.61.16,2.41,0,.16,0,.23-.19.23h-.07c-.34.05-.33.05-.37-.28S46.81,21.27,46.77,20.91Z"/><path class="cls-2" d="M20,13.68c.12-.09.16-.24.34-.2s.14-.05.18-.11a1.75,1.75,0,0,1,1.4-.77c.41,0,.82-.16,1.23-.23a.29.29,0,0,1,.21,0,4.88,4.88,0,0,0-.52.7.14.14,0,0,1-.12.06l-2.64.57Z"/><path class="cls-2" d="M41.9,16.74,40,17.05c-.09,0-.12,0-.13-.1q0-.45,0-.9c0-.1,0-.13.13-.16a.86.86,0,0,1,.88.15C41.17,16.29,41.52,16.49,41.9,16.74Z"/><path class="cls-3" d="M25.79,11.87s0,0,0,.05c0,.53,0,.54-.5.65L23.17,13a5.1,5.1,0,0,1,.66-.77.29.29,0,0,1,.13,0Z"/><path class="cls-2" d="M43.78,16.55c-.16,0-.16-.11-.13-.22a.44.44,0,0,1,.19.1c.65.44,1.29.9,1.95,1.33a.47.47,0,0,1,.28.53c0,.06,0,.13,0,.19s-.11-.05-.17-.09L43.81,17C43.58,16.87,43.57,16.75,43.78,16.55Z"/><path class="cls-3" d="M47.6,23.8v1.3c0,.07,0,.09-.08.11-.27,0-.29,0-.32-.25-.07-.73-.15-1.45-.23-2.17,0-.33.16-.51.49-.43.11,0,.07.1.07.15,0,.43,0,.86,0,1.29Z"/><path class="cls-2" d="M43.64,17.05l1.79,1.19.54.35c.1.07.18.34.11.41s-.23.07-.35,0c-.63-.42-1.26-.84-1.89-1.24a.37.37,0,0,1-.21-.39A1.5,1.5,0,0,0,43.64,17.05Z"/><path class="cls-2" d="M45.48,19.18a4.57,4.57,0,0,0-.65.24.18.18,0,0,1-.2,0l-.42-.24c-.15-.09-.28-.21-.48-.13s-.09,0-.1-.08a4.51,4.51,0,0,1,0-.9c0-.08,0-.15.12-.08l1.72,1.15S45.47,19.15,45.48,19.18Z"/><path class="cls-2" d="M36.75,17.76c-.06-.18,0-.2.23-.22.81-.09,1.63-.11,2.45-.22.08,0,.18,0,.17.11s.06.21-.13.24L37,18C36.75,18.05,36.75,18.05,36.75,17.76Z"/><path class="cls-3" d="M7.7,22.82c-.28-.57-.55-1.11-.81-1.66a.14.14,0,0,1,0-.16c0-.06.09,0,.14,0l.87.22c.09,0,.12.06.11.16a8.18,8.18,0,0,0-.1,1.11C7.91,22.62,7.78,22.69,7.7,22.82Z"/><path class="cls-2" d="M42.66,17.31l-1.49.16-1.07.12c-.08,0-.19,0-.19-.11s0-.24.15-.27L42,16.92a.19.19,0,0,1,.13,0l.53.34Z"/><path class="cls-2" d="M43.7,15.74l.25.18a24,24,0,0,1,2,1.47c.18.15.18.15.14.38-.06,0-.1,0-.14-.06-.66-.45-1.32-.92-2-1.35A.48.48,0,0,1,43.7,15.74Z"/><path class="cls-3" d="M5.83,21.85c0,.25-.1.47-.14.69,0,0,0,.08-.06.08-.46,0-.92.06-1.39.12-.08,0-.1,0-.08-.09s0-.26.08-.38a.1.1,0,0,1,.1-.1A9,9,0,0,0,5.83,21.85Z"/><path class="cls-3" d="M6.75,21.44a.69.69,0,0,1,.11.65c-.17.58-.27,1.19-.41,1.78,0,.05,0,.11,0,.2l-.32-.66a.14.14,0,0,1,0-.11c.28-.58.41-1.2.64-1.8C6.72,21.49,6.74,21.47,6.75,21.44Z"/><path class="cls-2" d="M41.72,15.64l.7-.12a.23.23,0,0,1,.18.07c.28.19.56.39.84.56s.12.19.11.31-.13.06-.2.09a.41.41,0,0,1-.38-.08Z"/><path class="cls-2" d="M40.82,15.76a1.16,1.16,0,0,1,1.09.12,11.27,11.27,0,0,0,1.05.71l-.63.1a.19.19,0,0,1-.15,0Z"/><path class="cls-3" d="M5.73,23.17a15.06,15.06,0,0,0-2,.24l.09-.47s0-.07.06-.06a13.31,13.31,0,0,0,1.41-.07C5.62,22.81,5.7,22.86,5.73,23.17Z"/><path class="cls-2" d="M46.26,18.08l1.13.78s.06,0,0,.07-.1,0-.17.07c.5-.05.42.34.53.66l-.26-.17-1.07-.71a.34.34,0,0,1-.2-.37C46.27,18.31,46.26,18.22,46.26,18.08Z"/><path class="cls-3" d="M6,23.17a.63.63,0,0,1-.12-.61,6.58,6.58,0,0,0,.31-1.45c0-.1.16-.17,0-.29s0,0,.06,0c.2,0,.38.09.29.38-.17.49-.3,1-.44,1.48C6.06,22.82,6,23,6,23.17Z"/><path class="cls-3" d="M4.55,21.05c-.09,0-.08,0-.07-.09s0-.37.07-.56,0-.09.13-.07l1.19.36c.06,0,.12,0,.12.1s-.07.08-.13.08C5.42,20.93,5,21,4.55,21.05Z"/><path class="cls-3" d="M20.58,11.89l.64-.8a.27.27,0,0,1,.16-.1l.78-.17-.74.9c-.06.07-.15,0-.24.07Z"/><path class="cls-3" d="M20.47,12.89l-.43.54c-.05.06-.15.12-.08.23s0,.05,0,.06l-1,.21c.25-.31.45-.57.67-.83.05-.07.15-.07.23-.08Z"/><path class="cls-2" d="M48.21,19a1.63,1.63,0,0,1-1.06-.4c-.23-.19-.49-.34-.73-.51s-.18-.12-.17-.37a1.67,1.67,0,0,1,.63.3c.4.3.8.58,1.2.87.05,0,.11,0,.13.11Z"/><path class="cls-2" d="M44.91,19.53c.27,0,.48-.11.7-.16a.4.4,0,0,1,.51.36c0,.17,0,.34,0,.55C45.75,20,45.35,19.79,44.91,19.53Z"/><path class="cls-3" d="M19.41,12.1l.58-.74a.38.38,0,0,1,.24-.11,4.68,4.68,0,0,1,.54-.08,6,6,0,0,1-.65.77C20,12.09,19.69,12.05,19.41,12.1Z"/><path class="cls-3" d="M19.14,13.21l-.39.48,0,.05c-.13.4-.51.32-.86.43a9.16,9.16,0,0,1,.64-.84c.16-.16.42-.11.63-.17Z"/><path class="cls-3" d="M21.09,12.09a1.15,1.15,0,0,1-1.2.71A1.13,1.13,0,0,1,21.09,12.09Z"/><path class="cls-3" d="M4.31,22c0-.23,0-.33.28-.34a6.25,6.25,0,0,0,1.13-.21s.17-.08.17,0,0,.26-.13.28A12.22,12.22,0,0,0,4.31,22Z"/><path class="cls-3" d="M18.71,13c.24-.43.53-.78,1.11-.71A1.09,1.09,0,0,1,18.71,13Z"/><path class="cls-3" d="M4.39,21.45a.22.22,0,0,1,.22-.24,8.72,8.72,0,0,0,1.24-.14s.1,0,.09.05,0,.16-.07.17c-.48.05-.93.18-1.4.26C4.35,21.57,4.39,21.5,4.39,21.45Z"/><path class="cls-3" d="M8,22.38c.05-.31.11-.6.15-.89,0-.13.05-.17.19-.13.43.12.43.11.14.45C8.36,22,8.21,22.18,8,22.38Z"/><path class="cls-2" d="M42.52,16.85c.31,0,.62-.21.92.06a.23.23,0,0,1,.09.25c0,.12-.12.06-.19.07C43,17.3,42.78,17,42.52,16.85Z"/><path class="cls-2" d="M43.53,16.08l-.86-.58a.69.69,0,0,1,.83.1C43.67,15.75,43.51,15.91,43.53,16.08Z"/><path class="cls-2" d="M46.64,20.57c-.3-.13-.29-.13-.26-.42a3.21,3.21,0,0,0,0-.82v-.11a.08.08,0,0,1,.09-.1c.08,0,.06.05.07.09l.06.85C46.62,20.23,46.63,20.4,46.64,20.57Z"/><path class="cls-3" d="M5.05,20.27a3.56,3.56,0,0,1,.92-.1c.18,0,.1.11.09.18s0,.2-.15.16S5.34,20.35,5.05,20.27Z"/><path class="cls-3" d="M14.22,12.53l-.51.58a.16.16,0,0,1-.19.06s0-.1,0-.16a2.13,2.13,0,0,1,0-.25.1.1,0,0,1,.09-.11Z"/><path class="cls-2" d="M44.14,15.91a2.11,2.11,0,0,1-.4-.26c-.1-.07-.06-.16-.06-.27a3.33,3.33,0,0,1,.48.52Z"/><path class="cls-2" d="M36.41.15a.47.47,0,0,1,.22.17c-.25.11,0,.36-.17.49A3.41,3.41,0,0,1,36.41.15Z"/><path class="cls-2" d="M32.26,8.37v.07a9.29,9.29,0,0,1-1.16.27A9.6,9.6,0,0,1,32.26,8.37Z"/><path class="cls-2" d="M39.82,15.35l.35.23a.37.37,0,0,1-.31.06C39.78,15.59,39.82,15.47,39.82,15.35Z"/><path class="cls-2" d="M19.15,23.72l-1.21.12A4.48,4.48,0,0,1,19.15,23.72Z"/><path class="cls-2" d="M6.29,20.32l.12.3C6.2,20.63,6.19,20.59,6.29,20.32Z"/><path class="cls-2" d="M43.35,15.37c.26-.1.26-.1.24.14C43.49,15.5,43.44,15.43,43.35,15.37Z"/><path class="cls-2" d="M29.83,8.27l-.09,0c0-.1,0-.16.09-.18s.23-.08.36-.06C30.09,8.18,29.87,8.08,29.83,8.27Z"/><path class="cls-2" d="M46.28,18.8l.2.14C46.3,19,46.3,19,46.28,18.8Z"/><path class="cls-3" d="M40.2,3.79a.4.4,0,0,1-.28-.28A.59.59,0,0,1,40.2,3.79Z"/><path class="cls-2" d="M43.5,17.5a.44.44,0,0,1-.19-.12c.07,0,.14-.08.2,0S43.54,17.45,43.5,17.5Z"/><path class="cls-2" d="M25.47,23.08a.66.66,0,0,1-.31,0A.63.63,0,0,1,25.47,23.08Z"/><path class="cls-2" d="M30.28,22.58a.57.57,0,0,1,.29,0A.48.48,0,0,1,30.28,22.58Z"/><path class="cls-2" d="M26.71,22.93a.65.65,0,0,1,.34,0A1,1,0,0,1,26.71,22.93Z"/><path class="cls-2" d="M21.2,23.5a.32.32,0,0,1,.27,0Z"/><path class="cls-2" d="M20.81,23.54a.34.34,0,0,1,.28,0Z"/><path class="cls-2" d="M20.7,23.57h-.28v0h.28Z"/><path class="cls-2" d="M20.34,23.59a.86.86,0,0,1-.36,0A.63.63,0,0,1,20.34,23.59Z"/><path class="cls-2" d="M19.24,23.7a.29.29,0,0,1,.29,0Z"/><path class="cls-2" d="M17.23,23.86l.36,0c-.1.08-.22.06-.32.08Z"/><path class="cls-2" d="M17.27,23.91l-.35,0,0,0,.35-.05Z"/><path class="cls-2" d="M19.92,23.62a.44.44,0,0,1-.32,0A.87.87,0,0,1,19.92,23.62Z"/><path class="cls-2" d="M31,22.54a.57.57,0,0,1-.26,0A.39.39,0,0,1,31,22.54Z"/><path class="cls-2" d="M29.08,22.7a.48.48,0,0,1,.29,0A.56.56,0,0,1,29.08,22.7Z"/><path class="cls-2" d="M28.7,22.74a.45.45,0,0,1,.28,0A.53.53,0,0,1,28.7,22.74Z"/><path class="cls-2" d="M28.62,22.77a.74.74,0,0,1-.33,0A.61.61,0,0,1,28.62,22.77Z"/><path class="cls-2" d="M28.21,22.81a.58.58,0,0,1-.32,0A.69.69,0,0,1,28.21,22.81Z"/><path class="cls-2" d="M27.82,22.84a.61.61,0,0,1-.33,0A.93.93,0,0,1,27.82,22.84Z"/><path class="cls-2" d="M27.12,22.89a.54.54,0,0,1,.31,0A.65.65,0,0,1,27.12,22.89Z"/><path class="cls-2" d="M25.05,23.12a.65.65,0,0,1-.34,0A1,1,0,0,1,25.05,23.12Z"/><path class="cls-2" d="M24.32,23.17a.7.7,0,0,1,.35,0A.83.83,0,0,1,24.32,23.17Z"/><path class="cls-2" d="M24,23.19h.31A.41.41,0,0,1,24,23.19Z"/><path class="cls-2" d="M21.56,23.44a.65.65,0,0,1,.34,0A.65.65,0,0,1,21.56,23.44Z"/><path class="cls-2" d="M22,23.4a.41.41,0,0,1,.27,0A.42.42,0,0,1,22,23.4Z"/><path class="cls-2" d="M26.36,23a.52.52,0,0,1,.25,0A.36.36,0,0,1,26.36,23Z"/><path class="cls-2" d="M22.67,23.35a.39.39,0,0,1-.28,0A.53.53,0,0,1,22.67,23.35Z"/><path class="cls-2" d="M30.53,8.82l0,0-.06,0s0,0,0,0Z"/><path class="cls-2" d="M23.86,23.24h0Z"/><path class="cls-2" d="M30.24,8h.08l-.06,0Z"/><path class="cls-2" d="M30.75,8.82a.13.13,0,0,1-.12,0c0-.06.06,0,.1,0Z"/><path class="cls-2" d="M30.2,9l0,0,.05,0,0,0S30.22,9,30.2,9Z"/><path class="cls-2" d="M30.1,9l0,0L30,9h0S30.08,9,30.1,9Z"/><path class="cls-2" d="M30.42,8.89s-.08,0-.1,0,0,0,.07,0Z"/><path class="cls-2" d="M30.73,8.79s0,0,.07,0l-.05.05Z"/><path class="cls-3" d="M40.36,3.91s-.07,0-.08-.05S40.34,3.89,40.36,3.91Z"/><path class="cls-2" d="M44.18,16s.06,0,.08,0h0a.08.08,0,0,1-.09,0Z"/><path class="cls-2" d="M26.19,23h0Z"/><path class="cls-2" d="M12.46,17.42l0-.06a.1.1,0,0,1,0,.09Z"/><path class="cls-3" d="M40.28,3.87l0-.05S40.29,3.82,40.28,3.87Z"/><path class="cls-3" d="M40.24,3.83l0,0S40.25,3.79,40.24,3.83Z"/><path class="cls-2" d="M44.26,16h0v0Z"/><path class="cls-3" d="M27.9,10.19h0v0Z"/><path class="cls-3" d="M39.85,3.44l-.05-.06A.06.06,0,0,1,39.85,3.44Z"/><path class="cls-3" d="M39.89,3.48l0,0S39.89,3.44,39.89,3.48Z"/><path class="cls-3" d="M39.93,3.52l0,0S39.93,3.48,39.93,3.52Z"/><path class="cls-2" d="M44.16,15.9s0,0,0,0h0l0,0Z"/><path class="cls-3" d="M18.22,13.36l0,0h0l0,0Z"/><path class="cls-2" d="M48.21,19h0v0Z"/></g></g></svg>