<svg xmlns="http://www.w3.org/2000/svg" viewBox="0 0 47.54 24.5"><defs><style>.cls-1{fill:#101010;}.cls-2{fill:#a9a8a8;}.cls-3{fill:#fdfdfd;}</style></defs><g id="Layer_2" data-name="Layer 2"><g id="Layer_4" data-name="Layer 4"><path class="cls-1" d="M38.63,9.19c.4,1.08.81,2.15,1.2,3.22a.34.34,0,0,0,.37.27c1.42,0,2.82.29,4.22.39a1.51,1.51,0,0,1,1.37,1,18.85,18.85,0,0,1,1.68,3.58,1.59,1.59,0,0,1,.05.75.72.72,0,0,1-.58-.27,3.47,3.47,0,0,1-.78-1.18c-.38-1-.78-1.89-1.17-2.83-.08-.18-.14-.33-.39-.36-1.29-.17-2.59-.37-3.88-.55-.19,0-.47-.17-.57,0s.07.45.13.67.11.15.2.19.17.18.15.37c-.22,1.47-.4,2.94-.6,4.41a24.89,24.89,0,0,1-.77,4.1c.3.06.4-.21.58-.34a21.16,21.16,0,0,1,5.47-3.2c.44-.15.84-.4,1.26-.59.11,0,.32-.2.29.13l-.18.12c-.07,0-.1,0-.1.08h0a.24.24,0,0,0-.29.18c-.16,0-.24.15-.36.22s-.1,0-.11.07c-1.38.87-2.92,1.46-4.29,2.37-.66.44-1.35.83-2,1.23a.88.88,0,0,0-.39.46,2.22,2.22,0,0,1-.36.7,2.75,2.75,0,0,1-.11-1.17c0-.14,0-.12-.13-.08a6.87,6.87,0,0,1-2,.28c-2.93,0-5.86.16-8.79.05-.25,0-.51,0-.76,0a1.22,1.22,0,0,0-1.09.53c-.06.11-.16.24-.31.23a5.83,5.83,0,0,0-.85-2.46.58.58,0,0,0,0-.18c-.86-1.72-1.71-3.43-2.58-5.15,0,0-.06-.05-.14-.1,0,.26,0,.48.09.69a8.24,8.24,0,0,1,0,3c-.16.92-.15.9.75,1.22.47.16,1,.18,1.33.64a.85.85,0,0,1-.58.13c-1.7,0-3.39-.26-5.08-.35s-3.66-.14-5.49-.23c-.36,0-.52.09-.52.46s-.26,1-.22,1.51c0,.1-.12.24-.22.1a.72.72,0,0,0-.3-.2c-.2-.12-.31-.1-.31.17s0,.68-.06,1a7.23,7.23,0,0,1-.26-1c-.05-.4-.24-.55-.63-.6-.58-.07-1.15-.21-1.72-.32-.12,0-.25-.12-.36,0s.13.22.08.38a1.85,1.85,0,0,1-.93-.37L2.13,19.19c-.4-.26-.78-.53-1.18-.78-.57-.36-.58-.35-.94.23a2.21,2.21,0,0,1,.13-.94A39.27,39.27,0,0,1,1.9,12.91c.14-.3.3-.56.66-.6s.2-.22.28-.35c.24-.42.37-1,.73-1.24s.83.2,1.29.24a27,27,0,0,1,3.07.76c.56.11,1.13.11,1.68.17.09-.14,0-.2-.06-.26A19.22,19.22,0,0,1,7.5,7.85c-.15-.35-.25-.56-.64-.31a1,1,0,0,1-.23,0,1.41,1.41,0,0,1,.7-.74c.66-.46,1.34-.9,2-1.31a.61.61,0,0,0,.33-.61c0-.67,0-1.33,0-2A.91.91,0,0,1,10.31,2c1.22-.46,2.47-.85,3.71-1.27.16-.05.44,0,.28-.37-.07-.14.14-.12.23-.14A5.32,5.32,0,0,1,16.22.14a28.87,28.87,0,0,1,3.34.18.78.78,0,0,0,.31.91c.12.05.17,0,.19-.12s.23-.31.44-.36A19.67,19.67,0,0,1,23.55.39c.48,0,1,.11,1.46.07.31,0,.43.21.51.46.17.61.35,1.21.54,1.87A8.07,8.07,0,0,0,27.38,1.5,11.15,11.15,0,0,1,29,.1a.48.48,0,0,1,.4-.09,7.32,7.32,0,0,0,1.81.11.93.93,0,0,1,.71.34c.62.55,1.24,1.12,1.85,1.7a1.72,1.72,0,0,0,1.09.59,1.88,1.88,0,0,1,.54.17c.18.07.4.15.38.36s-.3.07-.44.19c.1.24.21.37.49.17a.71.71,0,0,1,.83,0,33,33,0,0,0,3,1.67,1.49,1.49,0,0,1,.14.12c-1,0-2,0-3,0-.46,0-1.08-.27-1.34,0s-.15.9-.22,1.36a2.58,2.58,0,0,1-.45,1.35,10.94,10.94,0,0,1,.09-4.24c.11-.47.09-.56-.41-.66a1.53,1.53,0,0,0-.37,0,20.32,20.32,0,0,1-3-.18.43.43,0,0,0-.51.22c-1,1.58-2.14,3.06-3.09,4.67-.75,1.27-1.55,2.51-2.26,3.81-.31.34-.23.73-.2,1.15.18,2.43.31,4.86.5,7.29a10.09,10.09,0,0,0,.32,2.56c.18.39-.33.7-.13,1.16L26.3,23c0-.09.18-.15,0-.26h0c.17.14.17-.1.26-.12a1.28,1.28,0,0,0,.32-.45C28,20.92,29,19.62,30.17,18.38c1.33-1.46,2.57-3,4-4.38a.22.22,0,0,0,0-.25c-.33-1.37-.39-2.78-.68-4.15,0-.17,0-.35-.22-.45A25.1,25.1,0,0,1,31.5,13c-1.31,2.43-2.55,4.89-3.9,7.29a18.84,18.84,0,0,1-1,1.75h-.19c0-.3.23-.51.36-.75.95-1.77,1.66-3.65,2.58-5.44,1.22-2.37,2.58-4.66,3.75-7.06.06-.12.21-.24-.05-.31,0-.38.3-.39.58-.37a29,29,0,0,1,3.6.45.52.52,0,0,0,.62-.24c.53-.78,1.09-1.54,1.65-2.3.14-.2.31-.53.58-.33s0,.46-.16.65c-.56.7-1.14,1.38-1.7,2.08-.08.09-.28.28-.1.32S38.4,9.14,38.63,9.19ZM23.57,6.63l-.05-.07,0,0,.06.05a5.59,5.59,0,0,0,.15,1c0,.26,0,.61.31.8l.76,3.26c1.86-2.89,3.42-5.87,5.34-8.61a.74.74,0,0,0-.1-1,3.56,3.56,0,0,1-.72-.87c-.33-.52-.36-.53-.83-.11-.15.14-.28.3-.42.45-.37.4-.73.83-1.13,1.21A43,43,0,0,0,23.8,6.15c-.16.17-.2.31,0,.48C23.71,6.76,23.64,6.61,23.57,6.63ZM3.1,12.22,6.94,12a22.83,22.83,0,0,0-3.08-.79c-.07,0-.21,0-.22,0-.14.36-.53.59-.53,1l-.07,0v.06Zm23.52,11a5.18,5.18,0,0,1,1.47-.16c1.46,0,2.9-.11,4.35-.13,2,0,4-.4,6,.07.22.05.27-.06.3-.25.43-2.61.87-5.23,1.32-7.84.07-.37,0-.44-.4-.44-1.57,0-3.15,0-4.73,0-.38,0-.68,0-.88.43a3.76,3.76,0,0,1-.6.73C31.17,18,29,20.46,26.81,22.85,26.72,23,26.57,23,26.62,23.26ZM11.35,2.38c-.33,0-.67,0-1,0s-.37,0-.28.34a4.11,4.11,0,0,1,.16.93c.19,3.22.38,6.45.55,9.68.14,2.6.26,5.2.5,7.8.05.53.08,1.06.11,1.6,0,.31.27.34.46.37s.16-.21.17-.34q.33-3,.84-6c.26-1.52.51-3.05.77-4.57,0-.16,0-.37.26-.4.66-.08.76-.18.88-.81.38-1.87.71-3.76,1.16-5.61a2.83,2.83,0,0,0-.24-2.62.68.68,0,0,1-.11-.31c0-.31-.23-.37-.51-.32A33.05,33.05,0,0,1,11.35,2.38ZM24.92,20.57a3.1,3.1,0,0,0,0-.39c-.23-2-.36-4.06-.44-6.09,0-.42-.14-.82-.13-1.22a4,4,0,0,0,0-1c-.24-1.11-.49-2.22-.72-3.33-.13-.6-.26-1.2-.38-1.8,0-.23.13-.46-.11-.71a35.62,35.62,0,0,1-3.92-4.91C19.09,1,19,.89,18.82,1a12.32,12.32,0,0,1-2.69,1c-.31.09-.27.22-.15.43.3.53.59,1.05.85,1.59l4.79,10.08c.11.22.1.59.5.6.11,0,0,.09,0,.13-.15.19,0,.33.08.47q1.17,2.38,2.35,4.75A.93.93,0,0,0,24.92,20.57ZM10.8,22.49l0-.32a67.37,67.37,0,0,1-.8-8.62c0-1-.05-1-1.06-1H8.53l-4.69.05c-.21,0-.32,0-.37.28a28.67,28.67,0,0,1-1.35,4.64c-.1.29,0,.33.21.43.47.21.94.44,1.39.69,1.44.81,2.86,1.65,4.3,2.45.81.46,1.66.86,2.5,1.29C10.6,22.47,10.67,22.54,10.8,22.49Zm7.63-13.8c-.16,0-.21.13-.27.21a19.07,19.07,0,0,1-2.93,2.89,1.4,1.4,0,0,1-1,.45c-.14,0-.17.08-.2.2-.1.4.16.39.43.4l4.87.14a1.11,1.11,0,0,1,.79.25,8.91,8.91,0,0,1-2.35.28,31.46,31.46,0,0,1-3.49-.23c-.18,0-.34-.06-.38.2-.09.59-.2,1.18-.3,1.77,0,.17,0,.26.21.25a8.3,8.3,0,0,1,1.79.12c.13,0,.27.08.41,0a20.29,20.29,0,0,1,4.36-2c.21-.06.23-.14.14-.33Zm19.67.23a2.34,2.34,0,0,1-.63.12,23.93,23.93,0,0,1-3-.22c-.39-.06-.46.06-.4.42.24,1.43.46,2.86.66,4.3,0,.33.16.44.51.43a35.08,35.08,0,0,1,4.35,0c.42,0,.36-.14.24-.4-.33-.75-.69-1.49-1-2.26A10.56,10.56,0,0,1,38.1,8.92ZM21.67,18.38c-.05-.39-.11-.87-.16-1.35s-.14-.73.13-1,0-.4-.05-.57-.3-.1-.44,0l-2.87,1.44c-.16.08-.26.16-.19.36a7.37,7.37,0,0,1,.28,2.09.46.46,0,0,0,.35.48,17,17,0,0,1,2.51.8c.17.08.22,0,.24-.15C21.53,19.8,21.59,19.14,21.67,18.38Zm-1.28,2.69c-1.21-.44-2.43-.86-3.63-1.31-.4-.14-.89-.17-1.09-.66,0-.08-.14-.07-.21,0a6.31,6.31,0,0,1-1.5.15c-.33,0-.73-.1-1,.05s-.16.6-.25.91-.09.4-.15.58c-.12.4.1.41.34.35a5,5,0,0,1,1.59-.1C16.46,21.06,18.42,21,20.39,21.07ZM15,11a.36.36,0,0,0,.3-.13A31.11,31.11,0,0,1,18.07,8.5c.2-.14.14-.28.07-.45L17,5.5c-.15-.34-.32-.67-.53-1.11A55.62,55.62,0,0,1,15,11Zm.8,6.54h0c0-.38,0-.76.06-1.13,0-.18,0-.3-.22-.31-.62,0-1.23,0-1.85-.06-.21,0-.28.07-.31.25l-.39,2.09c0,.22,0,.34.27.32a4.25,4.25,0,0,1,2.23.23c.23.11.23-.05.23-.2Zm7.27-12a2.1,2.1,0,0,0,.28-1.61c-.06-.52-.06-1-.07-1.55s.18-1-.1-1.22-.78,0-1.18,0-.47.14-.51.46a2.36,2.36,0,0,1-.2.77.69.69,0,0,0,.14.89A18.91,18.91,0,0,1,23.06,5.53Zm.59,0c.66-.78,1.22-1.49,1.87-2.13.14-.15.05-.29,0-.43A5.79,5.79,0,0,1,25,1.34c-.08-.47-.22-.57-.79-.49-.38.05-.66.18-.51.67a1.73,1.73,0,0,1,0,.56A25.39,25.39,0,0,1,23.65,5.53Zm-14,.26c-.46.32-.83.58-1.21.83-.73.49-.74.49-.35,1.27C8.66,9,9.21,10,9.75,11.11,9.76,9.37,9.68,7.64,9.68,5.79ZM3,12.84c0-.05-.08,0-.19-.05a.46.46,0,0,0-.55.34c-.47,1.26-1,2.5-1.47,3.74-.29.73-.3.73.43.89a3.41,3.41,0,0,1,.37.08c.23.09.31,0,.34-.22.12-1,.41-2,.62-2.94C2.68,14.1,2.83,13.52,3,12.84Zm13.71,2.79c.38.28.73.49,1,.76a.36.36,0,0,0,.49,0,12.83,12.83,0,0,1,2.28-1.23c.84-.28.81-.3.44-1.09-.13-.27-.25-.31-.49-.14a8.48,8.48,0,0,1-1.86.92Zm17-13C33,2,32.35,1.51,31.78.94A1.56,1.56,0,0,0,30,.56c-.18.06-.25.11-.17.29l.69,1.44a.33.33,0,0,0,.26.18A17.72,17.72,0,0,0,33.69,2.62ZM1.35,18.19l.32.21c1.41.93,2.9,1.72,4.27,2.71a4.45,4.45,0,0,0,2.74,1.08,5,5,0,0,1,.92.18,5.38,5.38,0,0,0-1.19-.7c-2-1-3.9-2.13-5.85-3.18A2.17,2.17,0,0,0,1.35,18.19Zm14.88-.7h0c0,.41,0,.82,0,1.23,0,.17,0,.31.2.37l1.26.42c.13,0,.28,0,.23-.16-.17-.82-.24-1.64-.34-2.47-.06-.57-.7-.54-1.05-.82s-.35-.08-.34.2S16.23,17.08,16.23,17.49ZM12.69,1.72a9.56,9.56,0,0,0,4-.4A12.62,12.62,0,0,1,18.61.84c.11,0,.35.05.29-.18s-.25-.08-.37-.07c-.92.08-1.85.09-2.78.08a1.51,1.51,0,0,0-.56.07ZM37.93,5c-.54-.36-1.14-.61-1.64-1-.17-.14-.8.16-.87.39-.11.42,0,.57.43.57C36.54,4.91,37.23,4.91,37.93,5Zm-17-2.32c.06-.44.1-.83.15-1.21,0-.16-.07-.19-.2-.18s-.37,0-.48.21a.44.44,0,0,0,0,.55C20.62,2.2,20.76,2.4,20.94,2.64Z"/><path class="cls-2" d="M38.63,9.19c-.23,0-.22-.37-.51-.42s0-.23.1-.32c.56-.7,1.14-1.38,1.7-2.08.15-.19.42-.44.16-.65s-.44.13-.58.33c-.56.76-1.12,1.52-1.65,2.3a.52.52,0,0,1-.62.24,29,29,0,0,0-3.6-.45c-.28,0-.55,0-.58.37h-.13c0-.07-.05,0-.08,0h0A3.7,3.7,0,0,0,31.48,9a41.32,41.32,0,0,1-4.15,1.81,12.51,12.51,0,0,0-2,.95h-.15c.71-1.3,1.51-2.54,2.26-3.81.95-1.61,2.11-3.09,3.09-4.67a.43.43,0,0,1,.51-.22,20.32,20.32,0,0,0,3,.18,1.53,1.53,0,0,1,.37,0c.5.1.52.19.41.66a10.94,10.94,0,0,0-.09,4.24,2.58,2.58,0,0,0,.45-1.35c.07-.46,0-1.08.22-1.36s.88,0,1.34,0c1,0,2,0,3,0,.29,0,.5,0,.48.37a2.28,2.28,0,0,0,.16.53,5.23,5.23,0,0,0-1.52,2.19C39,8.81,38.81,9,38.63,9.19Z"/><path class="cls-2" d="M46.86,18.94c0-.33-.18-.17-.29-.13-.42.19-.82.44-1.26.59a21.16,21.16,0,0,0-5.47,3.2c-.18.13-.28.4-.58.34a24.89,24.89,0,0,0,.77-4.1c.2-1.47.38-2.94.6-4.41,0-.19,0-.29-.15-.37s-.18-.09-.2-.19-.24-.48-.13-.67.38,0,.57,0c1.29.18,2.59.38,3.88.55.25,0,.31.18.39.36.39.94.79,1.88,1.17,2.83a3.47,3.47,0,0,0,.78,1.18.72.72,0,0,0,.58.27C47.32,18.59,47.24,18.94,46.86,18.94Z"/><path class="cls-2" d="M24.12,21.88c-.32-.46-.86-.48-1.33-.64-.9-.32-.91-.3-.75-1.22a8.24,8.24,0,0,0,0-3c0-.21-.06-.43-.09-.69.08.05.13.07.14.1.87,1.72,1.72,3.43,2.58,5.15a.58.58,0,0,1,0,.18Z"/><path class="cls-1" d="M38.91,8.49A5.23,5.23,0,0,1,40.43,6.3c.19.06.2.2.12.34a6,6,0,0,1-1.46,1.81S39,8.48,38.91,8.49Z"/><path class="cls-2" d="M46.29,19.32a.24.24,0,0,1,.29-.18C46.57,19.33,46.41,19.29,46.29,19.32Z"/><path class="cls-2" d="M46.58,19.14c0-.07,0-.11.1-.08Z"/><path class="cls-2" d="M45.82,19.61c0-.07,0-.11.11-.07Z"/><path class="cls-2" d="M38.51,23.12c.08,0,.15-.06.13.08Z"/><path class="cls-2" d="M26.62,23.26c-.05-.24.1-.31.19-.41,2.21-2.39,4.36-4.85,6.62-7.2a3.76,3.76,0,0,0,.6-.73c.2-.39.5-.43.88-.43,1.58,0,3.16,0,4.73,0,.37,0,.47.07.4.44-.45,2.61-.89,5.23-1.32,7.84,0,.19-.08.3-.3.25-2-.47-4-.1-6-.07-1.45,0-2.89.17-4.35.13A5.18,5.18,0,0,0,26.62,23.26Z"/><path class="cls-3" d="M11.35,2.38a33.05,33.05,0,0,0,3.72-.26c.28-.05.47,0,.51.32a.68.68,0,0,0,.11.31,2.83,2.83,0,0,1,.24,2.62c-.45,1.85-.78,3.74-1.16,5.61-.12.63-.22.73-.88.81-.23,0-.23.24-.26.4-.26,1.52-.51,3.05-.77,4.57q-.51,3-.84,6c0,.13.08.38-.17.34s-.45-.06-.46-.37c0-.54-.06-1.07-.11-1.6-.24-2.6-.36-5.2-.5-7.8-.17-3.23-.36-6.46-.55-9.68a4.11,4.11,0,0,0-.16-.93c-.09-.31,0-.36.28-.34S11,2.38,11.35,2.38Z"/><path class="cls-2" d="M24.92,20.57a.93.93,0,0,1-.36-.51q-1.18-2.37-2.35-4.75c-.07-.14-.23-.28-.08-.47,0,0,.1-.13,0-.13-.4,0-.39-.38-.5-.6L16.83,4C16.57,3.49,16.28,3,16,2.44c-.12-.21-.16-.34.15-.43a12.32,12.32,0,0,0,2.69-1c.2-.1.27,0,.37.15a35.62,35.62,0,0,0,3.92,4.91c.24.25.07.48.11.71.12.6.25,1.2.38,1.8.23,1.11.48,2.22.72,3.33a4,4,0,0,1,0,1c0,.4.11.8.13,1.22.08,2,.21,4.06.44,6.09A3.1,3.1,0,0,1,24.92,20.57Z"/><path class="cls-3" d="M10.8,22.49c-.13.05-.2,0-.28-.06C9.68,22,8.83,21.6,8,21.14c-1.44-.8-2.86-1.64-4.3-2.45-.45-.25-.92-.48-1.39-.69-.22-.1-.31-.14-.21-.43a28.67,28.67,0,0,0,1.35-4.64c0-.26.16-.28.37-.28l4.69-.05h.38c1-.07,1-.07,1.06,1a67.37,67.37,0,0,0,.8,8.62Z"/><path class="cls-3" d="M25.19,11.76h.15c.05.23.06.24.34.16,2.55-.79,5.11-1.55,7.17-3.38h0l.08,0h.13c.26.07.11.19.05.31-1.17,2.4-2.53,4.69-3.75,7.06-.92,1.79-1.63,3.67-2.58,5.44-.13.24-.36.45-.36.75-.2.23-.17.66-.6.69a10.09,10.09,0,0,1-.32-2.56c-.19-2.43-.32-4.86-.5-7.29C25,12.49,24.88,12.1,25.19,11.76Z"/><path class="cls-3" d="M23.78,6.63c-.18-.17-.14-.31,0-.48a43,43,0,0,1,3.11-3.36c.4-.38.76-.81,1.13-1.21.14-.15.27-.31.42-.45.47-.42.5-.41.83.11a3.56,3.56,0,0,0,.72.87.74.74,0,0,1,.1,1c-1.92,2.74-3.48,5.72-5.34,8.61L24,8.46a1.6,1.6,0,0,0-.12-.68c0-.2-.15-.46,0-.58C24.17,6.92,23.93,6.79,23.78,6.63Z"/><path class="cls-2" d="M18.43,8.69l2.12,4.58c.09.19.07.27-.14.33a20.29,20.29,0,0,0-4.36,2c-.14.08-.28,0-.41,0a8.3,8.3,0,0,0-1.79-.12c-.23,0-.24-.08-.21-.25.1-.59.21-1.18.3-1.77,0-.26.2-.23.38-.2a31.46,31.46,0,0,0,3.49.23,8.91,8.91,0,0,0,2.35-.28,1.11,1.11,0,0,0-.79-.25l-4.87-.14c-.27,0-.53,0-.43-.4,0-.12.06-.21.2-.2a1.4,1.4,0,0,0,1-.45A19.07,19.07,0,0,0,18.16,8.9C18.22,8.82,18.27,8.71,18.43,8.69Z"/><path class="cls-2" d="M38.1,8.92a10.56,10.56,0,0,0,.71,2.38c.28.77.64,1.51,1,2.26.12.26.18.43-.24.4a35.08,35.08,0,0,0-4.35,0c-.35,0-.46-.1-.51-.43-.2-1.44-.42-2.87-.66-4.3-.06-.36,0-.48.4-.42a23.93,23.93,0,0,0,3,.22A2.34,2.34,0,0,0,38.1,8.92Z"/><path class="cls-3" d="M26.6,22.08a18.84,18.84,0,0,0,1-1.75c1.35-2.4,2.59-4.86,3.9-7.29a25.1,25.1,0,0,0,1.83-3.89c.19.1.19.28.22.45.29,1.37.35,2.78.68,4.15a.22.22,0,0,1,0,.25c-1.44,1.37-2.68,2.92-4,4.38C29,19.62,28,20.92,26.91,22.19A.27.27,0,0,1,26.6,22.08Z"/><path class="cls-2" d="M21.67,18.38c-.08.76-.14,1.42-.2,2.07,0,.17-.07.23-.24.15a17,17,0,0,0-2.51-.8.46.46,0,0,1-.35-.48,7.37,7.37,0,0,0-.28-2.09c-.07-.2,0-.28.19-.36l2.87-1.44c.14-.07.32-.22.44,0s.3.32.05.57-.17.65-.13,1S21.62,18,21.67,18.38Z"/><path class="cls-2" d="M20.39,21.07c-2-.08-3.93,0-5.88-.07a5,5,0,0,0-1.59.1c-.24.06-.46,0-.34-.35.06-.18.1-.38.15-.58s0-.76.25-.91.65,0,1-.05a6.31,6.31,0,0,0,1.5-.15c.07,0,.17,0,.21,0,.2.49.69.52,1.09.66C18,20.21,19.18,20.63,20.39,21.07Z"/><path class="cls-2" d="M15,11A55.62,55.62,0,0,0,16.5,4.39c.21.44.38.77.53,1.11l1.11,2.55c.07.17.13.31-.07.45a31.11,31.11,0,0,0-2.78,2.35A.36.36,0,0,1,15,11Z"/><path class="cls-2" d="M15.79,17.52v1.19c0,.15,0,.31-.23.2a4.25,4.25,0,0,0-2.23-.23c-.31,0-.31-.1-.27-.32l.39-2.09c0-.18.1-.26.31-.25.62,0,1.23.06,1.85.06.24,0,.23.13.22.31,0,.37,0,.75-.06,1.13Z"/><path class="cls-3" d="M23.06,5.53a18.91,18.91,0,0,0-1.64-2.24.69.69,0,0,1-.14-.89,2.36,2.36,0,0,0,.2-.77c0-.32.17-.47.51-.46s1-.21,1.18,0,.08.8.1,1.22,0,1,.07,1.55A2.1,2.1,0,0,1,23.06,5.53Z"/><path class="cls-2" d="M23.65,5.53a25.39,25.39,0,0,0,.1-3.45,1.73,1.73,0,0,0,0-.56c-.15-.49.13-.62.51-.67.57-.08.71,0,.79.49A5.79,5.79,0,0,0,25.51,3c.06.14.15.28,0,.43C24.87,4,24.31,4.75,23.65,5.53Z"/><path class="cls-3" d="M9.68,5.79c0,1.85.08,3.58.07,5.32C9.21,10,8.66,9,8.12,7.89c-.39-.78-.38-.78.35-1.27C8.85,6.37,9.22,6.11,9.68,5.79Z"/><path class="cls-3" d="M3,12.84c-.17.68-.32,1.26-.45,1.84-.21,1-.5,1.95-.62,2.94,0,.23-.11.31-.34.22a3.41,3.41,0,0,0-.37-.08C.49,17.6.5,17.6.79,16.87c.5-1.24,1-2.48,1.47-3.74a.46.46,0,0,1,.55-.34C2.92,12.8,3,12.79,3,12.84Z"/><path class="cls-2" d="M16.71,15.63l1.9-.74A8.48,8.48,0,0,0,20.47,14c.24-.17.36-.13.49.14.37.79.4.81-.44,1.09a12.83,12.83,0,0,0-2.28,1.23.36.36,0,0,1-.49,0C17.44,16.12,17.09,15.91,16.71,15.63Z"/><path class="cls-3" d="M33.69,2.62a17.72,17.72,0,0,1-2.88-.15.33.33,0,0,1-.26-.18L29.86.85c-.08-.18,0-.23.17-.29a1.56,1.56,0,0,1,1.75.38C32.35,1.51,33,2,33.69,2.62Z"/><path class="cls-2" d="M1.35,18.19a2.17,2.17,0,0,1,1.21.3c1.95,1.05,3.84,2.23,5.85,3.18a5.38,5.38,0,0,1,1.19.7,5,5,0,0,0-.92-.18,4.45,4.45,0,0,1-2.74-1.08c-1.37-1-2.86-1.78-4.27-2.71Z"/><path class="cls-2" d="M16.23,17.49c0-.41,0-.82,0-1.23s.12-.36.34-.2,1,.25,1.05.82c.1.83.17,1.65.34,2.47.05.2-.1.2-.23.16l-1.26-.42c-.19-.06-.2-.2-.2-.37,0-.41,0-.82,0-1.23Z"/><path class="cls-3" d="M12.69,1.72l2.5-1a1.51,1.51,0,0,1,.56-.07c.93,0,1.86,0,2.78-.08.12,0,.32-.12.37.07s-.18.16-.29.18a12.62,12.62,0,0,0-1.95.48A9.56,9.56,0,0,1,12.69,1.72Z"/><path class="cls-3" d="M3.11,12.23c0-.42.39-.65.53-1,0,0,.15,0,.22,0A22.83,22.83,0,0,1,6.94,12l-3.84.23Z"/><path class="cls-3" d="M37.93,5c-.7,0-1.39,0-2.08-.06-.43,0-.54-.15-.43-.57.07-.23.7-.53.87-.39C36.79,4.35,37.39,4.6,37.93,5Z"/><path class="cls-3" d="M20.94,2.64c-.18-.24-.32-.44-.49-.63a.44.44,0,0,1,0-.55c.11-.22.3-.19.48-.21s.21,0,.2.18C21,1.81,21,2.2,20.94,2.64Z"/><path class="cls-2" d="M26.6,22.08a.27.27,0,0,0,.31.11,1.28,1.28,0,0,1-.32.45c0-.07-.08-.13-.17-.1a.15.15,0,0,0-.09.22h0c-.12,0-.23,0-.23.13s.08.15.19.13l-.62.91c-.2-.46.31-.77.13-1.16.43,0,.4-.46.6-.69Z"/><path class="cls-2" d="M23.78,6.63c.15.16.39.29.09.57-.13.12,0,.38,0,.58a1.6,1.6,0,0,1,.12.68c-.3-.19-.27-.54-.31-.8a5.59,5.59,0,0,1-.15-1l0,0C23.64,6.61,23.71,6.76,23.78,6.63Z"/><path class="cls-3" d="M26.33,22.76a.15.15,0,0,1,.09-.22c.09,0,.14,0,.17.1S26.5,22.9,26.33,22.76Z"/><path class="cls-3" d="M26.3,23c-.11,0-.19,0-.19-.13s.11-.15.23-.13S26.29,22.92,26.3,23Z"/><path class="cls-2" d="M23.55,6.65l-.06-.05,0,0,.05.07Z"/><path class="cls-3" d="M3.1,12.22l-.05,0v-.06l.07,0Z"/><path class="cls-1" d="M32.85,8.53c-2.06,1.83-4.62,2.59-7.17,3.38-.28.08-.29.07-.34-.16a12.51,12.51,0,0,1,2-.95A41.32,41.32,0,0,0,31.48,9,3.7,3.7,0,0,1,32.85,8.53Z"/><path class="cls-1" d="M32.92,8.51l-.08,0S32.88,8.44,32.92,8.51Z"/></g></g></svg>