<svg xmlns="http://www.w3.org/2000/svg" viewBox="0 0 44.15 42.49"><defs><style>.cls-1{fill:#fff;}.cls-2{fill:#abaaaa;}.cls-3{fill:#060606;}.cls-4{fill:#fdfdfd;}</style></defs><g id="Layer_2" data-name="Layer 2"><g id="Layer_4" data-name="Layer 4"><path class="cls-1" d="M41.28,23.59c-1.26-.14-2.43-.69-3.7-.78s-2.64.25-4,.27a33.86,33.86,0,0,0-4,.16c-.71.1-3.23.92-3.81.64l-2.29,5.44a13.33,13.33,0,0,0,5.69-.2c3.7-.95,2.13-6.7-1.59-5.74a4.6,4.6,0,0,1-2.52.2c-3-.46-5.62,3.88-2.29,5.44,3.16,1.49,6.09-.11,9.41-.09,1.4,0,2.68,0,4.09-.11,1.69-.09,3.34.53,5,.72,3.81.43,3.77-5.52,0-5.95Z"/><path class="cls-1" d="M29.18,23.25c-4.82.73-9-.47-13.7,1.46S6.81,29.47,2.12,31.29a3,3,0,0,0-.72,5.44c1.3.94,2.36,1,3.75,1.53s2.66,2.05,4.3,2.5c2.91.81,5.29-1,7.93-1.93,3.39-1.14,6.71-1.42,10.23-2,4.79-.77,8.42-3.67,13.3-3.57v-6A86.9,86.9,0,0,0,10.59,32.5c-3.58,1.28-2,7,1.58,5.74a82.7,82.7,0,0,1,28.74-5c3.83,0,3.83-5.88,0-6a17.71,17.71,0,0,0-9.32,2.06c-3.73,2-7.68,1.64-11.69,2.48-2.65.55-5.2,2.18-7.8,2.64-1.74.3-6.16-1.8-7.69-2.91L3.7,37a99.27,99.27,0,0,0,12-5.82c5-2.75,9.78-1.42,15.1-2.22,3.78-.57,2.17-6.3-1.58-5.74Z"/><path class="cls-2" d="M33.21,34.2s.08,0,.11-.06A4.82,4.82,0,0,1,35.17,33a19.63,19.63,0,0,1,3.28-.89,9.06,9.06,0,0,1,1.87-.19,4.68,4.68,0,0,1,2.13.61,6.69,6.69,0,0,0,1,.49,1.4,1.4,0,0,1,.61.38s.08.06,0,.1a10.82,10.82,0,0,0-1,.65c0-.1-.11-.05-.17,0a14.77,14.77,0,0,1-2,.46c-1.24.19-2.48.39-3.71.69a21.88,21.88,0,0,0-4.43,1.52c-.69.33-1.34.73-2,1.07a4.83,4.83,0,0,1-1.9.5,23.7,23.7,0,0,1-2.53-.16s0,0-.05,0a7.62,7.62,0,0,0-.93-.18c-.14,0-.29,0-.35.18a.32.32,0,0,1-.14,0c-.69,0-1.38.05-2.07.11-1.13.1-2.25.28-3.38.46a42,42,0,0,0-4.56,1l-1.24.37c0-.09.08-.09.13-.14a8.13,8.13,0,0,1,2.12-1.56,17.21,17.21,0,0,1,2.5-1.16,1.78,1.78,0,0,1,.55-.1,19.27,19.27,0,0,1,2.28,0,2.62,2.62,0,0,0,.28,0l1.24,0a6.86,6.86,0,0,0,1.91-.3c1-.25,2.08-.5,3.13-.72s1.84-.35,2.76-.52a.52.52,0,0,0,.21-.07,1.08,1.08,0,0,0,1.18.34,1.95,1.95,0,0,0,1.37-1.68Z"/><path class="cls-3" d="M26.17,5.39c.11-.35.25-.68.33-1,0,0,0-.09,0-.14s-.05-.14,0-.17.14-.13.15-.26a4.25,4.25,0,0,0-.09-1.18,1,1,0,0,0-.1-.28.18.18,0,0,1,.06-.23A.58.58,0,0,1,27,2a.79.79,0,0,0,.72-.15.63.63,0,0,1,.52-.16,2.49,2.49,0,0,0,1.15-.15c.45-.14.91-.21,1.36-.37,0,0,.07,0,.08-.09a1,1,0,0,1,.28-.63c.07-.06,0-.18.05-.27s0-.14.09-.14.09.08.1.14c.05.42,0,.85,0,1.28.1,4.21,0,8.43,0,12.64,0,2.71-.06,5.42-.09,8.14a3.18,3.18,0,0,0,.08.81c0,.09.06.11.15.1L32.72,23a15.51,15.51,0,0,1,2.89,0c1.22.09,2.43.26,3.65.38a9.09,9.09,0,0,0,2.15,0,3.16,3.16,0,0,1,.92.08.52.52,0,0,1,.28.15,1.06,1.06,0,0,1-.35.09c-.41,0-.82,0-1.23.06a10.31,10.31,0,0,1-1.92-.11c-1.11-.13-2.22-.29-3.34-.4a16.66,16.66,0,0,0-3.53,0l-.68,0a.2.2,0,0,0-.17.08.25.25,0,0,1-.44,0c0-.06-.15-.08-.11-.19s-.07,0-.11,0c-.54,0-1.07,0-1.61.07-.85.06-1.7.09-2.56.07-.44,0-.87-.09-1.3-.13a13.8,13.8,0,0,0-2.65,0,1.69,1.69,0,0,0-.45.14l-2,.82a.12.12,0,0,1-.12,0l.48-.26s.1,0,.1-.08-.07-.06-.1-.08a1.17,1.17,0,0,0-1.09,0,3.84,3.84,0,0,1-1.34.44.47.47,0,0,0-.28.11,12.14,12.14,0,0,0,1.39.27c-.35.22-.72.07-1.09,0l-.15,0a2.84,2.84,0,0,0-2.12.2l-.47.24c-.11.05-.2.11-.15.28-.11-.13-.19,0-.27,0-.36.29-.7.59-1.06.87a8.62,8.62,0,0,1-2,1.14,7.33,7.33,0,0,0-1.35.58s-.13,0-.11.12,0,0,0,0-.19,0-.27.07l-2,.92a11.15,11.15,0,0,1-1.46.45,4.67,4.67,0,0,0-.62.24A9.63,9.63,0,0,1,4.92,30c0,.06.06.06.06.1a.2.2,0,0,1-.29,0,.11.11,0,0,0-.17,0l-.11.16c0-.15,0-.17-.1-.12l-.7.28A4.07,4.07,0,0,0,2,31.72a11.07,11.07,0,0,0-.71,1c-.24.39-.51.77-.73,1.17a.07.07,0,0,0,0-.07,1.07,1.07,0,0,1,.18-.57,9.55,9.55,0,0,1,1.11-1.7,4.34,4.34,0,0,1,1.82-1.29c.23-.09.46-.17.69-.28a.25.25,0,0,0,.15-.15c0-.09.06-.21.21-.22s0,0,0,0a1.64,1.64,0,0,0,.29-1.1,9.52,9.52,0,0,0-.28-1.2s0-.06,0-.09,0-.12,0-.14.1,0,.12.09L5,27.3c.15.48.27,1,.39,1.46a1.57,1.57,0,0,0,.24.59,3.56,3.56,0,0,0,.17-.68.3.3,0,0,1,.06-.18s.06,0,.07,0,.22-.08.33,0a.3.3,0,0,1,.08.17c0,.17.05.34.07.51s0,.13.17.1a25.15,25.15,0,0,0,3.12-1.32l.41-.19a.15.15,0,0,0,.1-.16.58.58,0,0,1,.17-.46c.17-.17.32-.13.39.1,0,0,0,.05.05.07s.12-.17.24-.08.06,0,.08-.05L11.3,27c.06-.06.16-.09.2,0s.14.07.22,0a7.85,7.85,0,0,0,2-1.09c.46-.34.89-.71,1.33-1.07a.2.2,0,0,0,.08-.14l.09-.46a.38.38,0,0,1,.22-.3c.07,0,.15-.08.22,0a.2.2,0,0,1,.08.21c0,.09,0,.18-.06.3a7,7,0,0,0,.67-.34c.07,0,.14-.09.17,0s.07,0,.1,0a2.53,2.53,0,0,1,.91,0,.15.15,0,0,0,.11,0,1.35,1.35,0,0,1,.67-.26,2.61,2.61,0,0,0,.86-.31,1.52,1.52,0,0,1,1.46-.07,1,1,0,0,0,.28,0,2,2,0,0,0,1-.32,3.92,3.92,0,0,1,1.56-.34,9.36,9.36,0,0,1,1.3.09,16.31,16.31,0,0,0,3.76.12,20.08,20.08,0,0,1,2.33-.1c.11,0,.16,0,.18-.14a2.6,2.6,0,0,0,.05-.68q0-7.29,0-14.57c0-.66,0-1.33,0-2,0-.26-.17-.42-.26-.62,0,0-.07,0-.11,0a2.6,2.6,0,0,1-1.76.09,1.05,1.05,0,0,0-1,.12,1,1,0,0,1-.37.16.59.59,0,0,1-.52-.06.46.46,0,0,0-.41-.07A1.23,1.23,0,0,0,26.17,5.39Zm3.35-2.61a.86.86,0,0,1-.39,0l-.49-.11a.54.54,0,0,0-.59.17.52.52,0,0,1-.31.18,1.93,1.93,0,0,1-.48,0,.82.82,0,0,0-.4.1c-.05,0-.12,0-.12.12s0,.42,0,.63c0,0,0,.09.08.07a.77.77,0,0,1,.45,0,1.92,1.92,0,0,0,.53.06.39.39,0,0,0,.28,0,11.14,11.14,0,0,0,1.61-.4,1.48,1.48,0,0,1,.69-.06c.17,0,.19,0,.2-.17s-.07-.43-.07-.65-.15-.37-.4-.23A1.78,1.78,0,0,1,29.52,2.78ZM26.6,4.93a.82.82,0,0,1,.65.05.42.42,0,0,0,.33,0c.14,0,.27-.08.41-.12a1.17,1.17,0,0,1,.69,0,2,2,0,0,0,.8.06,5.69,5.69,0,0,0,.72-.12c.06,0,.12,0,.09-.11a.49.49,0,0,1,.13-.5c.09-.09.07-.21.1-.32s0-.05-.08-.06a1.32,1.32,0,0,0-1,.15,1.72,1.72,0,0,1-.92.17,1,1,0,0,0-.3,0,2.74,2.74,0,0,1-.64,0A3.69,3.69,0,0,0,27,4c.4.1.71.41,1.1.46,0,0-.11,0-.2,0a2.38,2.38,0,0,1-.58-.16A1.69,1.69,0,0,0,27,4.23c-.22-.06-.24-.05-.27.17a1.31,1.31,0,0,1-.12.51v0Zm3.09-2.31h.06c.22-.06.38-.24.62-.25l0,0a1.59,1.59,0,0,0,.21-.8c0-.14-.05-.15-.15-.09-.3.08-.6.16-.89.22a3.37,3.37,0,0,1-1.18.16.7.7,0,0,0-.62.21.76.76,0,0,1-.67.08.36.36,0,0,0-.52,0,.16.16,0,0,0-.07.23.92.92,0,0,1,.1.32c0,.17.07.33.1.51A1,1,0,0,1,27.38,3a.81.81,0,0,0,.68-.27.44.44,0,0,1,.36-.15,2.44,2.44,0,0,1,.6.11A.91.91,0,0,0,29.69,2.62Zm1.12.44a.94.94,0,0,0,0,.59c.08.21.2.41.3.65A1.51,1.51,0,0,0,30.81,3.06ZM5.23,28.91a.61.61,0,0,1-.12.42,1.54,1.54,0,0,0-.23.39s0,0,0,.06h.06l.65-.21A2,2,0,0,1,5.23,28.91Zm.55.62a4,4,0,0,0,.45-.15s0,0,0-.08c0-.19-.06-.38-.08-.58-.09.06-.07.2-.18.2s-.07,0-.08.1A2.23,2.23,0,0,1,5.78,29.53ZM31.09,3.38A1.6,1.6,0,0,0,31,2.46s0-.1-.08-.07a.13.13,0,0,0-.07.11A1.45,1.45,0,0,0,31.09,3.38Zm.05-1.62V.68A.9.9,0,0,0,31.14,1.76Zm-.09,3.31a1.45,1.45,0,0,0-.23-1A1.33,1.33,0,0,0,31.05,5.07ZM15.21,24.7c.29-.05.29-.28.35-.46s0-.16,0-.19-.13,0-.19.09a.2.2,0,0,0,0,.08C15.28,24.37,15.25,24.53,15.21,24.7ZM31,1.67c0,.25-.09.51.08.75,0,0,0,.09.07.12A1.16,1.16,0,0,0,31,1.67Zm-20.62,26c.3-.12.31-.14.27-.36s-.06-.09-.11,0A.49.49,0,0,0,10.34,27.62ZM27,4h0Z"/><path class="cls-3" d="M26.27,38.21a23.7,23.7,0,0,0,2.53.16,4.83,4.83,0,0,0,1.9-.5c.7-.34,1.35-.74,2-1.07a21.88,21.88,0,0,1,4.43-1.52c1.23-.3,2.47-.5,3.71-.69a14.77,14.77,0,0,0,2-.46c.06,0,.13-.06.17,0a1.67,1.67,0,0,1-.47.28,12.58,12.58,0,0,1-2.48.65c-1,.17-2.08.37-3.1.63A8.76,8.76,0,0,0,36,36c-.94.38-1.91.67-2.84,1.1a15.81,15.81,0,0,0-3.46,2.19,23.65,23.65,0,0,0-2.53,2.37c-.11.13-.19.29-.32.42a1.68,1.68,0,0,1,.25-.5,11.39,11.39,0,0,1,2.49-2.65.17.17,0,0,0,.06-.24c-.09-.23-.09-.24-.35-.2a.07.07,0,0,0-.06,0l-.23,0a.06.06,0,0,0-.07,0h-1a.25.25,0,0,0-.19,0h-.26a.15.15,0,0,0-.13,0H27.1a.08.08,0,0,0-.09,0h-.24a.08.08,0,0,0-.09,0h-.29a.31.31,0,0,0-.19,0h-.5a4.26,4.26,0,0,0-1.07,0h-.3c-.79,0-1.58.08-2.37.17a4.43,4.43,0,0,0-.73.11h-.06a.17.17,0,0,0-.15,0H21a.17.17,0,0,0-.15,0h-.06a1.67,1.67,0,0,0-.44.06,9.6,9.6,0,0,0-1,.18H19.2a.13.13,0,0,0-.12,0H19a.13.13,0,0,0-.12,0h0a.15.15,0,0,0-.13,0h0a.15.15,0,0,0-.13,0l-.08,0a2.36,2.36,0,0,0-.6.11H17.8a.08.08,0,0,0-.09,0h-.06a.08.08,0,0,0-.09,0H17.5a.08.08,0,0,0-.09,0H17.3c-1,.2-2.07.41-3.09.69-.28.07-.54.18-.83.24l.17-.11,1.24-.37a42,42,0,0,1,4.56-1c1.13-.18,2.25-.36,3.38-.46.69-.06,1.38-.1,2.07-.11a.32.32,0,0,0,.14,0,.38.38,0,0,0,.15,0C25.48,38.19,25.87,38.19,26.27,38.21Zm4.11,0a.35.35,0,0,0,.19-.15c-.09,0-.15,0-.19.09s-.17.08-.26.09-.24.09-.2.34Zm-.68.53c.2-.13.21-.14.14-.33s-.1,0-.15,0-.12,0-.07.08S29.65,38.67,29.7,38.76Z"/><path class="cls-3" d="M17,32.19a.84.84,0,0,1-.93-.91V31.2s0-.06-.06-.07-.05,0-.05.06c0,.24-.13.47-.2.71,0,.09-.05.17-.2.17s-.24,0-.37,0-.14,0-.1-.16c.24-.7.41-1.42.63-2.12,0-.18.11-.23.3-.21.38,0,.36,0,.26.4,0,.13-.07.26-.09.39s-.06.12,0,.16.12,0,.15-.08a2,2,0,0,1,.85-.79,1.44,1.44,0,0,1,.53-.14.88.88,0,0,1,1,1,1.23,1.23,0,0,1-.34.81,3.79,3.79,0,0,1-.47.51A1.64,1.64,0,0,1,17,32.19Zm.15-1.67c-.06,0-.11,0-.15,0a1.07,1.07,0,0,0-.17.46v.08c0,.23.24.34.49.22a1.15,1.15,0,0,0,.59-.67.39.39,0,0,0-.33-.5c-.18,0-.27.1-.39.18s-.06.1,0,.15S17.16,30.51,17.14,30.52Z"/><path class="cls-3" d="M24.85,26.85a3.63,3.63,0,0,1-.47-.64s0-.09-.08-.08,0,.06,0,.09c-.08.28-.08.28.16.44a.64.64,0,0,1,.28.37l-.44-.25c-.09-.06-.11,0-.13.06a5.09,5.09,0,0,1-.18.67.33.33,0,0,1-.42.2c-.05,0,0-.05,0-.09.1-.41.16-.83.28-1.23,0-.09-.05-.11-.1-.13s-.08,0-.09.07a2.67,2.67,0,0,1-.55,1,1.15,1.15,0,0,0-.19.26c-.06.13-.15.12-.26.1a.22.22,0,0,1-.2-.21,8,8,0,0,1-.09-1.3s0-.09-.05-.1a.09.09,0,0,0-.1.07c-.11.3-.13.62-.21.92s-.06.36-.09.54a.13.13,0,0,1-.12.13c-.38,0-.42,0-.35-.37.14-.68.28-1.36.41-2,0-.15.09-.21.24-.25a2,2,0,0,1,.64,0c.11,0,.19.09.16.18-.1.33.16.5.29.74a2.77,2.77,0,0,0,.38-.72c.08-.24.14-.28.39-.26l.42,0c.14,0,.2.08.17.22a1.33,1.33,0,0,0-.11.5c0,.15.18.28.26.43a2.71,2.71,0,0,1,.22.49.12.12,0,0,1,0,.1Zm-2-1h0l.06.61c.21-.25.21-.25,0-.48A.64.64,0,0,1,22.82,25.87Z"/><path class="cls-3" d="M22.25,30.66a3.94,3.94,0,0,1-.54-.54.09.09,0,0,0-.1-.05,2.91,2.91,0,0,1-1.06.05c-.05,0-.12,0-.14,0a.13.13,0,0,0,.09.16.33.33,0,0,0,.17,0,4.4,4.4,0,0,1,.51.05.58.58,0,0,1,.46.85.9.9,0,0,1-.17.3,1.52,1.52,0,0,1-1.29.58,6.08,6.08,0,0,0-.61,0c-.12,0-.23-.06-.35-.07s-.06-.07,0-.12a3.23,3.23,0,0,1,.1-.61c.17-.48.32-1,.47-1.46,0-.05.05-.1,0-.15s0-.15.1-.17a.34.34,0,0,1,.1,0,2.38,2.38,0,0,0,.84,0,2.68,2.68,0,0,1,.8,0c.19,0,.21.07.16.25a.35.35,0,0,0,.08.34C22,30.3,22.12,30.48,22.25,30.66Zm-1.83.66c.13,0,.29,0,.41-.1s.06-.13,0-.15L20.23,31c-.06,0-.09,0-.09.08,0,.26-.1.21.17.22Z"/><path class="cls-3" d="M30.18,34.72a2.19,2.19,0,0,1-.5-.38c-.06-.05-.09-.06-.15,0a.55.55,0,0,0-.14.45.86.86,0,0,1-.8,1,10.26,10.26,0,0,1-1.24,0c-.09,0-.18,0-.26.06s-.08,0-.08,0a.14.14,0,0,1,0-.09c.26-.72.33-1.5.57-2.23a.27.27,0,0,1,.26-.21,3.55,3.55,0,0,1,1.3,0,.61.61,0,0,1,.51.79.08.08,0,0,0,.05.1A2.12,2.12,0,0,1,30.18,34.72Zm-2.39.56a2,2,0,0,0,.84-.23s.08,0,.08-.08-.05-.06-.08-.07a2.6,2.6,0,0,0-.67-.15s-.08,0-.08.06A2.77,2.77,0,0,1,27.79,35.28Zm.63-1.08h0l.4,0c.08,0,.17,0,.17-.13s-.09-.1-.17-.12-.44,0-.66-.06a.07.07,0,0,0-.07.06c-.11.26-.1.27.18.27Z"/><path class="cls-3" d="M25.61,32.18a2.82,2.82,0,0,1,.13-.91c.14-.54.35-1.07.47-1.63a.22.22,0,0,1,.19-.18,2.89,2.89,0,0,1,1.4.07.48.48,0,0,1,.31.72c0,.07,0,.09.05.12a1.35,1.35,0,0,1,.26.32s0,.07,0,.12a1.49,1.49,0,0,1-.41-.28s-.07-.08-.14,0-.13.08,0,.16a.69.69,0,0,1-.21,1.14,2.34,2.34,0,0,1-1.2.13,4.44,4.44,0,0,1-.63,0c-.07,0-.08,0-.09.07S25.65,32.11,25.61,32.18Zm1.14-.86a.85.85,0,0,0,.45-.12s.09-.05.09-.1-.07-.07-.12-.08l-.58-.08a.07.07,0,0,0-.09,0C26.36,31.24,26.4,31.32,26.75,31.32Zm.36-1a.6.6,0,0,0,.28-.05.12.12,0,0,0,.08-.11c0-.06,0-.08-.09-.09a1.41,1.41,0,0,0-.5-.07s-.07,0-.08.06c0,.27-.1.22.18.25Z"/><path class="cls-3" d="M33.21,34.2a1.95,1.95,0,0,1-1.37,1.68,1.08,1.08,0,0,1-1.18-.34,1.24,1.24,0,0,1,0-1.22,1.81,1.81,0,0,1,1.62-1.13.89.89,0,0,1,.87.58A.92.92,0,0,1,33.21,34.2Zm-1.62-.09a1.14,1.14,0,0,0-.25.91.24.24,0,0,0,.34.18,1,1,0,0,0,.49-.44s0-.08,0-.12A4.59,4.59,0,0,1,31.59,34.11Zm.67.46a.82.82,0,0,0,.08-.4.35.35,0,0,0-.19-.36.54.54,0,0,0-.42.13s-.07.05,0,.09A6.88,6.88,0,0,1,32.26,34.57Z"/><path class="cls-3" d="M27.47,25.89c-.1.5-.3,1-.4,1.44a.36.36,0,0,1-.52.29c-.13-.05-.14-.15-.11-.26.11-.33.16-.68.24-1,0,0,.05-.1,0-.13s-.07,0-.1.07c-.34.38-.67.77-1,1.18a.62.62,0,0,1-.65.12c-.05,0,0-.09,0-.14.21-.73.34-1.48.53-2.21,0-.12.08-.2.23-.15a1,1,0,0,0,.24,0c.18,0,.23.05.18.23a3.41,3.41,0,0,0-.2.76s0,.06,0,.11c.17-.19.34-.36.49-.55s.34-.37.5-.56a.44.44,0,0,1,.38-.08c.33,0,.34,0,.27.34s-.07.43.17.57a2.16,2.16,0,0,1,.38.36s.09.09,0,.14-.1,0-.14,0S27.66,26.06,27.47,25.89Zm-.77.32h0Z"/><path class="cls-3" d="M20.16,34.73A.17.17,0,0,1,20,34.6a1.22,1.22,0,0,1-.14-.28.09.09,0,0,0-.09-.06l-.19,0a.26.26,0,0,1-.3-.1.39.39,0,0,0-.61-.08,1.07,1.07,0,0,0-.26.26c0,.06,0,.09,0,.12.24.09.49.15.73.22a.87.87,0,0,1,.34.15,2.51,2.51,0,0,1-1.05-.25c-.19-.09-.19-.09-.27.1s-.15.39,0,.54.34,0,.5,0,.28-.2.45-.26a.17.17,0,0,1,.14,0l.21.11a.2.2,0,0,1,.1.32,1.85,1.85,0,0,1-1.53.76.75.75,0,0,1-.73-.71,1.89,1.89,0,0,1,.73-1.74,1.71,1.71,0,0,1,1.42-.32A.79.79,0,0,1,20,34c0,.13,0,.13.15.13,0,0-.06,0-.09,0s-.16.06-.1.19Z"/><path class="cls-3" d="M5.84,33.6c0,.09-.13,0-.14.12a1,1,0,0,0-.08.37c0,.11.15.19.25.26s.06,0,.09,0a7.08,7.08,0,0,1,.63-.59l0,0c.12-.29.37-.09.56-.14,0,0,.06,0,0,.08a5.35,5.35,0,0,0-.17.69.2.2,0,0,0,.06.16c.16.19.31.38.48.6A.25.25,0,0,1,7.36,35a3.11,3.11,0,0,1-.31-.32c-.09-.11-.1,0-.12,0-.1.35-.19.7-.28,1a1.72,1.72,0,0,1-.07.21c-.06.11-.06.17,0,.16a.49.49,0,0,1-.16,0c-.13,0-.27.06-.39,0s-.07,0-.13,0c.07-.43.2-.83.29-1.23l0-.08s0-.06,0-.07,0,0-.07,0c-.37.38-.78.73-1.13,1.14,0,.07,0,.09,0,.1s.08,0,.12,0-.17,0-.24.06a.63.63,0,0,1-.36,0c-.07,0-.07,0-.06-.09a21.78,21.78,0,0,1,.63-2.37.14.14,0,0,1,.14-.11Zm-.49,1.31.07-.07.24-.24c.16-.16.16-.17,0-.3h0s-.07,0-.09,0Z"/><path class="cls-3" d="M23.57,34.73a1,1,0,0,1-.37-.4c0-.06-.05-.06-.11,0a.57.57,0,0,1-.18,0,.16.16,0,0,1-.19-.1.6.6,0,0,0-.89-.15c-.06,0,0,.09,0,.13s.23.35.33.54a1.37,1.37,0,0,1-.46-.52.83.83,0,0,0-.17,1,.33.33,0,0,0,.38.1,1,1,0,0,0,.46-.25.53.53,0,0,1,.65.08.23.23,0,0,1-.06.31,1.68,1.68,0,0,1-1.55.55.89.89,0,0,1-.67-1.17,2.06,2.06,0,0,1,1.57-1.52,1,1,0,0,1,1,.37.42.42,0,0,1,0,.47c-.05.07,0,.1,0,.16A.78.78,0,0,1,23.57,34.73Z"/><path class="cls-3" d="M22.56,31.13a1.16,1.16,0,0,1,.07-.4,3.29,3.29,0,0,1,.51-1,1.09,1.09,0,0,1,1-.41A.94.94,0,0,1,25,30.47,1.83,1.83,0,0,1,23.57,32,.81.81,0,0,1,22.56,31.13Zm1.54-.38a.81.81,0,0,0,.08-.55.23.23,0,0,0-.36-.16.84.84,0,0,0-.24.18c-.11.11-.11.13,0,.22a1.73,1.73,0,0,1,.35.31,1.22,1.22,0,0,1-.38-.22s0,0,0,0-.16-.07-.2,0l-.06.18s0,0,0,.07v.05a.09.09,0,0,0,0,.1v.14s0,.06,0,.09c.09.21.23.23.44.06a.07.07,0,0,0,.07-.05.54.54,0,0,0,.15-.15A.07.07,0,0,0,24,31s0,0,0,0A.4.4,0,0,0,24.1,30.75Z"/><path class="cls-3" d="M7.84,35.28a2.23,2.23,0,0,0,0-.36.06.06,0,0,0,0-.07,3.31,3.31,0,0,1,.18-.53,1.28,1.28,0,0,1,1.35-.79,1.13,1.13,0,0,1,1,.55c.05.08,0,.19.14.24s0,0,0,0a.14.14,0,0,0,0,.21,1.05,1.05,0,0,1,.15.43,1,1,0,0,1-.26-.48c0-.09-.05-.09-.12-.07a.65.65,0,0,1-.2,0c-.24,0-.27,0-.38-.21a.35.35,0,0,0-.46-.2.74.74,0,0,0-.49.41,2.41,2.41,0,0,0-.18.47c-.1.29.22.56.54.47a2.12,2.12,0,0,0,.53-.35c.06,0,0-.08,0-.11l-.48-.64s-.08-.06,0-.1.07,0,.1,0a2.66,2.66,0,0,1,.45.66.44.44,0,0,0,.3.28c.25.06.27.16.07.33s-.11.13,0,.21a1,1,0,0,1,.23.33h0a1,1,0,0,1-.33-.32c-.05-.07-.06,0-.1,0a1.46,1.46,0,0,1-1.45.33.57.57,0,0,1-.46-.51s0,0,0-.06v-.06s0,0,0-.06v-.06S7.87,35.29,7.84,35.28Z"/><path class="cls-3" d="M12,34.46c.12-.08.29-.14.22-.34,0,0,0-.06.05,0s.12,0,.15-.08a1.35,1.35,0,0,1,.42-.37,1,1,0,0,1,.51-.06.09.09,0,0,1,.08.06.26.26,0,0,1-.05.24c0,.05,0,.19-.13.16h0c-.08,0-.18,0-.08.18a2.55,2.55,0,0,1,.32.69,1.91,1.91,0,0,1-.4-.65c0-.12-.06-.1-.12,0l-.14.15c-.15.2-.15.2,0,.38a1.85,1.85,0,0,1,.24.33l0,0c-.12-.13-.23-.27-.35-.39s-.08-.11-.14,0-.11.07-.05.17a1.45,1.45,0,0,1,.18.53,1.18,1.18,0,0,0,.31.67c-.27,0-.48.06-.7,0S12,36,12,35.77a1.61,1.61,0,0,0-.08-.57.11.11,0,0,0-.07-.08,4.69,4.69,0,0,1-.39,1s0,0,0,0h0c0-.06,0-.06-.08-.06l-.41,0c-.08,0-.13-.05-.08-.1a.75.75,0,0,0,.13-.37c.12-.51.25-1,.4-1.53a2.47,2.47,0,0,0,.06-.29c0-.17.08-.21.26-.21a2.09,2.09,0,0,0,.25,0c.15,0,.19,0,.18.18a1.73,1.73,0,0,1-.18.7s0,0,0,0S12,34.47,12,34.46Z"/><path class="cls-3" d="M13.75,30.62a.63.63,0,0,1-.25-.26c-.06-.06-.08-.07-.12,0-.11.32-.24.64-.35,1a2.77,2.77,0,0,1-.31.62.52.52,0,0,1-.71.08.36.36,0,0,1,.15-.49c.22,0,.31-.17.4-.35a3.17,3.17,0,0,0,.26-.86c0-.2.09-.4.14-.6a.17.17,0,0,1,.2-.15c.42,0,.85,0,1.27,0h.14c.18,0,.24.07.18.24a.39.39,0,0,0,.08.41,4.12,4.12,0,0,1,.39.63,0,0,0,0,1,0,.07,1.57,1.57,0,0,1-.3-.38c-.07-.09-.13-.19-.19-.28a.09.09,0,0,0-.06-.06c-.05,0,0,.05-.05.08-.18.54-.33,1.09-.48,1.64-.06.21-.07.22-.28.21h-.17c-.2,0-.21,0-.15-.22.1-.37.18-.73.28-1.1,0-.07,0-.1,0-.16h0s.06.06.08,0,.09-.32.13-.47,0-.07-.05-.07-.28,0-.41,0-.1,0,0,.1.18.27.27.41Z"/><path class="cls-3" d="M30.29,30.33l.39,0a.58.58,0,0,1,.53.81,1,1,0,0,1-.85.73,5.78,5.78,0,0,1-1.44,0c-.1,0-.09-.07-.07-.13.08-.3.15-.59.24-.88a9.21,9.21,0,0,0,.32-1.28.19.19,0,0,1,.21-.19c.4,0,.46.05.38.42l-.09.42c0,.08,0,.11.09.1Zm-.6,1a2.62,2.62,0,0,0,.57-.07c.09,0,.22-.06.21-.17s-.15-.11-.25-.12a2.09,2.09,0,0,1-.25,0c-.13,0-.23,0-.23.16A.63.63,0,0,1,29.69,31.31Z"/><path class="cls-3" d="M29.53,24.92a2.76,2.76,0,0,1,.57.06.54.54,0,0,1,.39.66,1.41,1.41,0,0,1-.55.8,1.52,1.52,0,0,1-.93.23c-.08,0-.12,0-.13.09a4.13,4.13,0,0,1-.13.61.19.19,0,0,1-.2.16,2.11,2.11,0,0,1-.25,0c-.08,0-.16,0-.14-.14.05-.36.14-.71.19-1.07a7.7,7.7,0,0,1,.34-1.25.16.16,0,0,1,.15-.12A2.68,2.68,0,0,1,29.53,24.92Zm-.26.63c-.06,0-.1,0-.09.11s0,.08,0,.13-.1.19,0,.24.18,0,.27,0a.65.65,0,0,0,.26-.17c.1-.1.07-.2-.07-.23A2.66,2.66,0,0,0,29.27,25.55Z"/><path class="cls-3" d="M16.28,34.29c-.15.08-.2.23-.3.35s0,0,.06.07a1.08,1.08,0,0,1,.35.22,1.26,1.26,0,0,1-.38-.1.16.16,0,0,0-.23.06c-.19.27-.4.52-.61.77a1.34,1.34,0,0,1-.76.44.53.53,0,0,1-.22,0,.16.16,0,0,1-.12-.22l.09-.28a.24.24,0,0,1,.2-.16.49.49,0,0,0,.26-.1c.18-.1.2-.16.13-.35a4.06,4.06,0,0,1-.23-1.24c0-.15,0-.19.2-.18l.39,0c.08,0,.08.07.09.13a4.07,4.07,0,0,1,.07.61.45.45,0,0,0,0,.22c.14-.16.27-.32.41-.47a2.65,2.65,0,0,0,.21-.26.59.59,0,0,1,.69-.23c.12,0,.15.08.07.17l-.34.41s-.09.07-.07.13Z"/><path class="cls-3" d="M26.3,33.94c.08.21.24.35.3.55-.07,0-.09,0-.12-.06a1,1,0,0,1-.14-.21.48.48,0,0,0-.57-.29c-.05,0-.08,0-.09.08a11.66,11.66,0,0,1-.46,1.92s0,.08-.06.09a.94.94,0,0,1-.47,0c-.15,0-.14-.16-.12-.28s.1-.42.16-.63c.09-.37.18-.73.3-1.09,0-.09,0-.11-.08-.11h-.4c-.11,0-.17-.06-.15-.17s0-.07,0-.11a.86.86,0,0,1,.05-.23c.05-.09.14,0,.2,0,.42,0,.83-.05,1.24-.07.21,0,.42,0,.62,0s.18,0,.05.13-.05.14-.05.21S26.46,34,26.3,33.94Z"/><path class="cls-3" d="M1.16,35c-.1-.1-.17-.09-.23,0a.88.88,0,0,0-.07.32A2.47,2.47,0,0,0,.9,36a.52.52,0,0,0,.76.42c.4-.15.79-.33,1.21-.46a2.39,2.39,0,0,1,.46-.12c.37-.06.57.15.5.52a5.4,5.4,0,0,1-.18.57,1.15,1.15,0,0,0-.07.45.39.39,0,0,0,.41.39,1.18,1.18,0,0,0,.68-.18,1.22,1.22,0,0,1,.56-.2.5.5,0,0,1,.45.2.65.65,0,0,0-.77.11A1.23,1.23,0,0,1,4,38a.61.61,0,0,1-.63-.58,1.5,1.5,0,0,1,.11-.7,2.44,2.44,0,0,0,.14-.46c0-.17,0-.23-.2-.23A1.29,1.29,0,0,0,3,36.1a10,10,0,0,0-1,.39,1.87,1.87,0,0,1-.4.13.64.64,0,0,1-.81-.48,1.74,1.74,0,0,1,0-1L.86,35c.11-.16.21-.17.34,0Z"/><path class="cls-2" d="M13.38,40.2c.29-.06.55-.17.83-.24,1-.28,2.05-.49,3.09-.69h.05a.74.74,0,0,1-.41.11,15.76,15.76,0,0,0-2.6.75,4.28,4.28,0,0,1-.51.15c-.45.11-.86.36-1.31.46a.21.21,0,0,1-.18,0l.33-.25,0,0s0,0,0,0l-.25.07v-.05c.32-.09.59-.33,1-.31l0,0Z"/><path class="cls-2" d="M21.23,38.65a4.43,4.43,0,0,1,.73-.11c.79-.09,1.58-.15,2.37-.17h.09a.87.87,0,0,1-.45.07c-.75.08-1.49.11-2.23.18A1.46,1.46,0,0,1,21.23,38.65Z"/><path class="cls-3" d="M16.27,34.29c.13,0,.18.14.24.23s.17.23.26.36a1.1,1.1,0,0,1-.49-.59Z"/><path class="cls-2" d="M19.26,39a9.6,9.6,0,0,1,1-.18,1.67,1.67,0,0,1,.44-.06c-.1.08-.22.06-.33.08l-1,.17C19.34,39,19.3,39,19.26,39Z"/><path class="cls-2" d="M24.63,38.38a4.26,4.26,0,0,1,1.07,0,.58.58,0,0,1-.32,0A4.7,4.7,0,0,1,24.63,38.38Z"/><path class="cls-3" d="M6,37.83c-.12,0-.21,0-.24-.11s0-.08,0-.08.08,0,.08,0S5.93,37.77,6,37.83Z"/><path class="cls-2" d="M17.86,39.19a2.36,2.36,0,0,1,.6-.11A1.36,1.36,0,0,1,17.86,39.19Z"/><path class="cls-2" d="M1.16,35l0,0a.47.47,0,0,1,.14.28A.59.59,0,0,1,1.16,35Z"/><path class="cls-2" d="M26.77,42.2l-.1.29a.34.34,0,0,1,.06-.3Z"/><path class="cls-2" d="M27.72,38.51a.25.25,0,0,1,.19,0A.17.17,0,0,1,27.72,38.51Z"/><path class="cls-2" d="M26.2,38.39a.31.31,0,0,1,.19,0A.15.15,0,0,1,26.2,38.39Z"/><path class="cls-2" d="M7.6,35.1c.06,0,.09.07.13.11l0,0a.19.19,0,0,1-.14-.09S7.6,35.12,7.6,35.1Z"/><path class="cls-2" d="M20.81,38.71a.17.17,0,0,1,.15,0C20.92,38.75,20.87,38.74,20.81,38.71Z"/><path class="cls-2" d="M21,38.68a.17.17,0,0,1,.15,0A.1.1,0,0,1,21,38.68Z"/><path class="cls-2" d="M18.72,39a.15.15,0,0,1,.13,0C18.81,39.07,18.77,39.06,18.72,39Z"/><path class="cls-2" d="M18.54,39.06a.15.15,0,0,1,.13,0C18.63,39.1,18.59,39.09,18.54,39.06Z"/><path class="cls-2" d="M19.08,39a.13.13,0,0,1,.12,0C19.17,39,19.13,39,19.08,39Z"/><path class="cls-2" d="M18.9,39A.13.13,0,0,1,19,39C19,39,19,39,18.9,39Z"/><path class="cls-2" d="M27.33,38.48a.15.15,0,0,1,.13,0A.09.09,0,0,1,27.33,38.48Z"/><path class="cls-2" d="M17.56,39.24a.08.08,0,0,1,.09,0C17.63,39.27,17.6,39.28,17.56,39.24Z"/><path class="cls-2" d="M17.71,39.21a.08.08,0,0,1,.09,0C17.78,39.24,17.75,39.25,17.71,39.21Z"/><path class="cls-2" d="M27,38.45a.08.08,0,0,1,.09,0A.05.05,0,0,1,27,38.45Z"/><path class="cls-2" d="M26.68,38.42a.08.08,0,0,1,.09,0A.05.05,0,0,1,26.68,38.42Z"/><path class="cls-2" d="M17.41,39.27a.08.08,0,0,1,.09,0S17.45,39.31,17.41,39.27Z"/><path class="cls-2" d="M12.37,40.61l0,0s0,0,0,0l0,0S12.37,40.58,12.37,40.61Z"/><path class="cls-2" d="M7.84,35.28s0,0,0,.06S7.77,35.31,7.84,35.28Z"/><path class="cls-2" d="M7.86,35.4s0,0,0,.06S7.84,35.42,7.86,35.4Z"/><path class="cls-2" d="M7.89,35.52s0,0,0,.06S7.86,35.55,7.89,35.52Z"/><path class="cls-2" d="M7.73,35.21s.06,0,0,0,0,0-.06,0Z"/><path class="cls-2" d="M29.19,38.49a.07.07,0,0,1,.06,0S29.22,38.52,29.19,38.49Z"/><path class="cls-2" d="M28.89,38.52a.06.06,0,0,1,.07,0S28.92,38.55,28.89,38.52Z"/><path class="cls-2" d="M7.91,34.85a.06.06,0,0,1,0,.07S7.88,34.87,7.91,34.85Z"/><polygon class="cls-3" points="4.4 30.38 4.39 30.38 4.39 30.39 4.4 30.38"/><path class="cls-3" d="M10.26,36.08v0h0Z"/><path class="cls-3" d="M13.78,30.65s0,0,0,0h0l0,0Z"/><path class="cls-3" d="M7.6,35.1s0,0,0,0,0,0,0,0Z"/><polygon class="cls-3" points="24.85 26.85 24.86 26.85 24.85 26.85 24.85 26.85"/><path class="cls-3" d="M26.79,42.13h0Z"/><path class="cls-3" d="M26.77,42.2h0l0,0Z"/><path class="cls-3" d="M13.39,40.19l0,0Z"/><path class="cls-4" d="M26.27,38.21c-.4,0-.79,0-1.18,0a.38.38,0,0,1-.15,0c.06-.19.21-.19.35-.18a7.62,7.62,0,0,1,.93.18S26.25,38.2,26.27,38.21Z"/><path class="cls-4" d="M29.69,2.62a.91.91,0,0,1-.67.06,2.44,2.44,0,0,0-.6-.11.44.44,0,0,0-.36.15.81.81,0,0,1-.68.27,1,1,0,0,0-.66.18c0-.18-.07-.34-.1-.51a.92.92,0,0,0-.1-.32.16.16,0,0,1,.07-.23.36.36,0,0,1,.52,0A.76.76,0,0,0,27.78,2a.7.7,0,0,1,.62-.21,3.37,3.37,0,0,0,1.18-.16c.29-.06.59-.14.89-.22a2.81,2.81,0,0,0-.48.61A2.23,2.23,0,0,0,29.69,2.62Z"/><path class="cls-2" d="M27,4.23a1.69,1.69,0,0,1,.36.12,2.38,2.38,0,0,0,.58.16c.09,0,.16,0,.2,0-.39,0-.7-.36-1.1-.46a3.69,3.69,0,0,1,.58.09,2.74,2.74,0,0,0,.64,0,1,1,0,0,1,.3,0A1.72,1.72,0,0,0,29.45,4a1.32,1.32,0,0,1,1-.15s.09,0,.08.06,0,.23-.1.32a.49.49,0,0,0-.13.5c0,.09,0,.1-.09.11a5.69,5.69,0,0,1-.72.12,1.55,1.55,0,0,0-.8-.06,1.17,1.17,0,0,0-.69,0c-.14,0-.27.09-.41.12a.42.42,0,0,1-.33,0,.82.82,0,0,0-.65-.05l0,0a1.31,1.31,0,0,0,.12-.51A1,1,0,0,0,27,4.23Z"/><path class="cls-4" d="M27.78,4.05A1.92,1.92,0,0,1,27.25,4a.77.77,0,0,0-.45,0c-.06,0-.08,0-.08-.07,0-.21,0-.42,0-.63s.07-.1.12-.12a.82.82,0,0,1,.4-.1,1.93,1.93,0,0,0,.48,0,.52.52,0,0,0,.31-.18.54.54,0,0,1,.59-.17l.49.11a.86.86,0,0,0,.39,0,.15.15,0,0,1,0,.11,3.65,3.65,0,0,1-1.49,1C27.92,4,27.83,4,27.78,4.05Z"/><path class="cls-2" d="M27.78,4.05c0-.09.14-.09.21-.11a3.65,3.65,0,0,0,1.49-1,.15.15,0,0,0,0-.11,1.78,1.78,0,0,0,.57-.24c.25-.14.4,0,.4.23s.09.43.07.65,0,.2-.2.17a1.48,1.48,0,0,0-.69.06,11.14,11.14,0,0,1-1.61.4A.39.39,0,0,1,27.78,4.05Z"/><path class="cls-2" d="M29.69,2.62a2.23,2.23,0,0,1,.3-.57,2.81,2.81,0,0,1,.48-.61c.1-.06.14-.05.15.09a1.59,1.59,0,0,1-.21.8l0,0c-.24,0-.4.19-.62.25Z"/><path class="cls-4" d="M30.81,3.06a1.51,1.51,0,0,1,.25,1.24c-.1-.24-.22-.44-.3-.65A.94.94,0,0,1,30.81,3.06Z"/><path class="cls-4" d="M5.23,28.91a2,2,0,0,0,.35.67l-.65.21H4.87s0,0,0-.06a1.54,1.54,0,0,1,.23-.39A.61.61,0,0,0,5.23,28.91Z"/><path class="cls-4" d="M5.78,29.53A2.23,2.23,0,0,0,5.93,29c0-.05,0-.1.08-.1s.09-.14.18-.2c0,.2,0,.39.08.58,0,0,0,.06,0,.08A4,4,0,0,1,5.78,29.53Z"/><path class="cls-4" d="M31.09,3.38a1.45,1.45,0,0,1-.27-.88.13.13,0,0,1,.07-.11c.07,0,.06,0,.08.07A1.6,1.6,0,0,1,31.09,3.38Z"/><path class="cls-4" d="M31.14,1.76a.9.9,0,0,1,0-1.08Z"/><path class="cls-4" d="M31.05,5.07a1.33,1.33,0,0,1-.23-1A1.45,1.45,0,0,1,31.05,5.07Z"/><path class="cls-4" d="M15.21,24.7c0-.17.07-.33.1-.48a.2.2,0,0,1,0-.08c.06-.05.12-.12.19-.09s0,.12,0,.19S15.5,24.65,15.21,24.7Z"/><path class="cls-4" d="M31,1.67a1.16,1.16,0,0,1,.15.87c-.05,0,0-.09-.07-.12C30.87,2.18,31,1.92,31,1.67Z"/><path class="cls-4" d="M10.34,27.62a.49.49,0,0,1,.16-.4c.05,0,.09,0,.11,0S10.64,27.5,10.34,27.62Z"/><path class="cls-4" d="M28.68,4.86a1.55,1.55,0,0,1,.8.06A2,2,0,0,1,28.68,4.86Z"/><path class="cls-4" d="M27,4.23a1,1,0,0,1-.27.17C26.73,4.18,26.75,4.17,27,4.23Z"/><path class="cls-2" d="M26.6,4.93h0v0Z"/><polygon class="cls-2" points="26.97 4.01 26.98 4.02 26.97 4.03 26.96 4.02 26.97 4.01"/><path class="cls-4" d="M30.38,38.23l-.46.37c0-.25,0-.29.2-.34s.16-.1.26-.09Z"/><path class="cls-4" d="M29.7,38.76c-.05-.09,0-.2-.08-.28s0-.07.07-.08.11-.07.15,0S29.9,38.63,29.7,38.76Z"/><path class="cls-2" d="M30.38,38.23v-.06c0-.07.1-.08.19-.09A.35.35,0,0,1,30.38,38.23Z"/><path class="cls-4" d="M17.18,30.47c-.06,0-.08-.08,0-.15s.21-.2.39-.18a.39.39,0,0,1,.33.5,1.15,1.15,0,0,1-.59.67c-.25.12-.47,0-.49-.22V31a1.07,1.07,0,0,1,.17-.46c0-.07.09-.07.15,0a1,1,0,0,0,.2.15s0,.06.06,0,0-.05,0-.06S17.28,30.49,17.18,30.47Z"/><path class="cls-2" d="M17.34,30.67a1,1,0,0,1-.2-.15s.06,0,0-.05.14.09.18.17Z"/><path class="cls-4" d="M22.82,25.87a.64.64,0,0,0,.08.14c.16.23.16.23,0,.48l-.06-.61Z"/><path class="cls-4" d="M20.42,31.32h-.11c-.27,0-.21,0-.17-.22,0-.07,0-.09.09-.08l.55.05c.11,0,.11.07,0,.15S20.55,31.3,20.42,31.32Z"/><path class="cls-4" d="M27.79,35.28a2.77,2.77,0,0,0,.09-.47c0-.05,0-.06.08-.06a2.6,2.6,0,0,1,.67.15s.08,0,.08.07-.05.06-.08.08A2,2,0,0,1,27.79,35.28Z"/><path class="cls-4" d="M28.42,34.2h-.15c-.28,0-.29,0-.18-.27a.07.07,0,0,1,.07-.06c.22,0,.45,0,.66.06s.17,0,.17.12-.09.12-.17.13l-.4,0Z"/><path class="cls-4" d="M26.75,31.32c-.35,0-.39-.08-.25-.35a.07.07,0,0,1,.09,0l.58.08s.11,0,.12.08-.05.08-.09.1A.85.85,0,0,1,26.75,31.32Z"/><path class="cls-4" d="M27.11,30.32H27c-.28,0-.2,0-.18-.25,0,0,0-.06.08-.06a1.41,1.41,0,0,1,.5.07s.09,0,.09.09a.12.12,0,0,1-.08.11A.6.6,0,0,1,27.11,30.32Z"/><path class="cls-4" d="M31.59,34.11a4.59,4.59,0,0,0,.55.53s.06.07,0,.12a1,1,0,0,1-.49.44.24.24,0,0,1-.34-.18A1.14,1.14,0,0,1,31.59,34.11Z"/><path class="cls-4" d="M32.26,34.57a6.88,6.88,0,0,0-.54-.54c-.06,0,0-.06,0-.09a.54.54,0,0,1,.42-.13.35.35,0,0,1,.19.36A.82.82,0,0,1,32.26,34.57Z"/><path class="cls-4" d="M26.7,26.21h0Z"/><path class="cls-4" d="M5.35,34.91l.19-.6c0-.06,0-.05.09,0h0c.18.13.18.14,0,.3l-.24.24Z"/><path class="cls-4" d="M23.29,30.74l.06-.18c0-.12.1-.14.2,0l0,0a1.22,1.22,0,0,0,.38.22h0l0,0c.06.07,0,.13,0,.19s0,0,0,0-.06,0,0,.07a.54.54,0,0,1-.15.15s-.06,0-.07.05c-.21.17-.35.15-.44-.06,0,0,0-.07,0-.09V31s0-.06,0-.1v-.05S23.31,30.78,23.29,30.74Z"/><path class="cls-4" d="M24,30.75a1.73,1.73,0,0,0-.35-.31c-.15-.09-.15-.11,0-.22a.84.84,0,0,1,.24-.18.23.23,0,0,1,.36.16.81.81,0,0,1-.08.55H24Z"/><path class="cls-2" d="M24,30.75h.08A.4.4,0,0,1,24,31c0-.06.08-.12,0-.19Z"/><path class="cls-2" d="M23.24,31.1s0,0,0,.09S23.22,31.13,23.24,31.1Z"/><path class="cls-2" d="M23.25,30.86s0,.07,0,.1A.09.09,0,0,1,23.25,30.86Z"/><path class="cls-2" d="M23.92,31.05s0-.06,0-.07A.07.07,0,0,1,23.92,31.05Z"/><path class="cls-2" d="M23.7,31.25s0-.06.07-.05A.07.07,0,0,1,23.7,31.25Z"/><path class="cls-2" d="M23.29,30.74s0,.06,0,.07S23.26,30.76,23.29,30.74Z"/><path class="cls-2" d="M23.59,30.53l0,0S23.58,30.51,23.59,30.53Z"/><path class="cls-4" d="M12,34.46s0,0,0,0,0,0,0,0Z"/><path class="cls-4" d="M13.77,30.66l0,0c-.09-.14-.17-.28-.27-.41s0-.1,0-.1.27,0,.41,0,.06,0,.05.07-.09.31-.13.47S13.8,30.67,13.77,30.66Z"/><path class="cls-4" d="M29.69,31.31a.63.63,0,0,0,0-.21c0-.18.1-.18.23-.16a2.09,2.09,0,0,0,.25,0c.1,0,.23,0,.25.12s-.12.14-.21.17A2.62,2.62,0,0,1,29.69,31.31Z"/><path class="cls-4" d="M29.27,25.55a2.66,2.66,0,0,1,.35.05c.14,0,.17.13.07.23a.65.65,0,0,1-.26.17c-.09,0-.21.07-.27,0s0-.16,0-.24,0-.09,0-.13S29.21,25.54,29.27,25.55Z"/><path class="cls-4" d="M12.66,40.52s0,0,0,0l0,0Z"/><path class="cls-2" d="M17.36,30.64s.07,0,0,.06,0,0-.06,0Z"/><path class="cls-3" d="M24,30.75l0,0,0,0Z"/></g></g></svg>