<svg xmlns="http://www.w3.org/2000/svg" viewBox="0 0 17.48 50"><defs><style>.cls-1{fill:#fefefe;}.cls-2{fill:#adacac;}</style></defs><g id="Layer_2" data-name="Layer 2"><g id="Layer_1-2" data-name="Layer 1"><path d="M17.48,48.32v.33a.66.66,0,0,1-.29.23c-.49.16-1,.23-1.5.34a8.19,8.19,0,0,0-2,.58,1.78,1.78,0,0,1-.81.19c-1.5,0-3-.07-4.48-.16a19.37,19.37,0,0,1-3.31-.21A5.61,5.61,0,0,0,4,49.48a5.81,5.81,0,0,1-1.1-.14,11.63,11.63,0,0,0-2.49-.46A.38.38,0,0,1,0,48.57a.88.88,0,0,1,.17-.77,9.53,9.53,0,0,0,1-2.17,10.11,10.11,0,0,0,.44-2,.51.51,0,0,1,.46-.49c.3,0,.6-.12.9-.15s.32-.15.32-.4a4.25,4.25,0,0,1,0-.8A14.14,14.14,0,0,0,3.5,40c0-1.23-.23-2.46-.19-3.69a8.87,8.87,0,0,1,0-1,8,8,0,0,0,0-2.58A1.28,1.28,0,0,0,3,31.86c-.15-.14-.35-.23-.45-.45A1,1,0,0,0,2,30.83c-.49-.2-.54-.61-.19-1a1.41,1.41,0,0,1,1.24-.54c0-.43.08-.83.08-1.24,0-.78,0-1.56,0-2.34,0-1.2-.11-2.41,0-3.62,0-.11,0-.23.06-.32.33-.34.6-.81,1.2-.63a.4.4,0,0,0,.11,0,.4.4,0,0,0,0-.24c-.45-.06-.79-.32-.78-.65a3,3,0,0,0-.13-.79c0-.13-.06-.25-.25-.28a.3.3,0,0,1-.22-.43,7.47,7.47,0,0,0,.27-1.33,3.32,3.32,0,0,1,.25-1c.12-.21.27-.32.52-.21l.24.07c.14.06.24.07.34-.1a.44.44,0,0,1,.45-.27A16.47,16.47,0,0,0,7,15.85l0,0c0-.05-.08,0-.12-.05a2.29,2.29,0,0,1-1.63-1.44,4.63,4.63,0,0,1-.32-2.41A2.5,2.5,0,0,1,6.19,10c.35-.2.77-.29,1.12-.5a.61.61,0,0,1-.11-.29c0-1-.16-1.88-.14-2.83A2.18,2.18,0,0,0,7,5.77,2.15,2.15,0,0,1,7,4.59c0-.17,0-.28-.16-.35a.59.59,0,0,1-.42-.44A2.09,2.09,0,0,1,6.7,2.35a1.91,1.91,0,0,0,.38-1.18c0-.5.06-1,.65-1.17h.33c.09.09.26.1.28.25a1.91,1.91,0,0,1,0,1.16A.49.49,0,0,0,8.49,2a.66.66,0,0,1,.3.62.75.75,0,0,0,.3.68l.45.37a.58.58,0,0,1,.15.83,1,1,0,0,1-.34.37.47.47,0,0,0-.2.55A7.23,7.23,0,0,1,9.36,8c-.07.44,0,.9-.06,1.35a2.28,2.28,0,0,1,2.07,1,8,8,0,0,1,.6,1,3.77,3.77,0,0,1,.49,1.88,2.61,2.61,0,0,1-2,2.36,1.09,1.09,0,0,0-.45.15.64.64,0,0,0,.38.08,3.87,3.87,0,0,1,.83,0A5.71,5.71,0,0,0,12.4,16a.69.69,0,0,1,.46.15.36.36,0,0,1,.06.41h.44a.57.57,0,0,1,.55.51,10.09,10.09,0,0,0,.27,1.72c0,.21.08.47-.11.6s-.26.48-.27.76a.86.86,0,0,1-.71.89.7.7,0,0,0,0,.29c.34.07.68.11,1,.2s.46.08.55.32A3.44,3.44,0,0,1,14.92,23c0,1-.08,2-.08,2.95a26,26,0,0,1,0,2.79c0,.23,0,.45-.06.67a4.06,4.06,0,0,0,.82.15c.28,0,.53.15.6.48a.68.68,0,0,1-.3.72,4.49,4.49,0,0,0-.46.41L14.6,32c0,3.71,0,7.43,0,11.15.23,0,.46.1.69.13a.88.88,0,0,1,.69.56c.32.7.44,1.46.71,2.17a5.86,5.86,0,0,1,.19.72A5.67,5.67,0,0,0,17.48,48.32ZM14,30l-.54-.09a4.48,4.48,0,0,0,.09,1.37c0,.11.06.17.17.18a.56.56,0,0,0,.68-.19,2.19,2.19,0,0,1,.44-.42c.23-.19.45-.39.69-.61Zm-2.28-.17c-.42.08-.84,0-1.28.06A2.64,2.64,0,0,0,11,31.32s.07.09.11.07.38,0,.57,0,.34.12.46-.11a2.4,2.4,0,0,0,.19-1.47A1.21,1.21,0,0,0,11.74,29.84Zm-3.3,0H6.94a4.68,4.68,0,0,0,.43,1.6,4.59,4.59,0,0,1,.91,0c.23.1.35,0,.46-.2a3,3,0,0,0,.34-1.43Zm-2.38-7.9c-.2,0-.42,0-.62-.06a5.31,5.31,0,0,0-1.19-.06.43.43,0,0,0-.46.36,9.87,9.87,0,0,0-.06,1.33c0,.58.08,1.16.09,1.74,0,1-.09,1.93,0,2.9a9.67,9.67,0,0,1-.09,1.18h.78c.09,0,.15,0,.13-.13s0-.37,0-.56c.09-.79.08-1.59.19-2.38a7.07,7.07,0,0,0-.08-2,1.74,1.74,0,0,1,1-1.63c.48-.07.8.23,1.15.48a1,1,0,0,1,.22.38,2.56,2.56,0,0,1,.23,1v4.24a1.11,1.11,0,0,0,0,.44H8c.19,0,.22,0,.23-.23,0-.66,0-1.33.07-2a29.42,29.42,0,0,0,0-3,1.19,1.19,0,0,1,1.15-1.33,1,1,0,0,1,.82.37,2.37,2.37,0,0,1,.4.92v.16l.06,5.15a1.63,1.63,0,0,0,.88,0c0-1.8,0-3.57-.05-5.35a1.2,1.2,0,0,1,.37-.92.67.67,0,0,1,.61-.2c.83.12,1.06.56,1.07,1.34,0,1.36,0,2.72.07,4.07a2.64,2.64,0,0,1-.05,1.12c.2.05.34.15.52.12l0-.1c0-.93.08-1.86.06-2.79,0-.52,0-1,0-1.56a21.32,21.32,0,0,0,0-2.26.46.46,0,0,0-.44-.5,17.59,17.59,0,0,0-2.4-.25H6.06ZM4.72,31.55c.16.08.26,0,.34-.14a2.35,2.35,0,0,0,.31-1.5.2.2,0,0,0-.15,0c-.78,0-1.56,0-2.34,0-.25,0-.41.14-.64.37.49,0,.61.3.78.58a3.72,3.72,0,0,1,.19.34c.09.23.27.27.48.28A5.08,5.08,0,0,1,4.72,31.55ZM7.64,15.29h.07l0,0c-.17-.28-.35-.55-.51-.82a2.91,2.91,0,0,1-.5-1.19,6.75,6.75,0,0,1,0-1,3.7,3.7,0,0,1,.72-2l0-.08a.08.08,0,0,0-.11,0l-.78.32a1.56,1.56,0,0,0-1,1.2A3.49,3.49,0,0,0,5.79,14a1.75,1.75,0,0,0,.88,1C7,15.15,7.33,15.17,7.64,15.29ZM6.17,16.54H5.38a12.58,12.58,0,0,1-.21,4.59.7.7,0,0,0,.39.09H9.74a.49.49,0,0,0,.27,0l1.83,0h.56a.39.39,0,0,1,0-.13c0-1.26-.11-2.52,0-3.79a1.93,1.93,0,0,0-.05-.47c0-.08,0-.22-.12-.22a5.81,5.81,0,0,0-1-.13.39.39,0,0,0,0,.09c0,.06,0,.13,0,.19a3.83,3.83,0,0,1-.17,2.5,2,2,0,0,1-1.32,1.34,1.28,1.28,0,0,1-1-.31A2.52,2.52,0,0,1,8,19a5.89,5.89,0,0,1-.18-1.51c0-.33,0-.65,0-1A14.21,14.21,0,0,0,6.17,16.54Zm.66,32.22c-.08.12,0,.25-.08.4,2-.06,4.06.31,6.11.2A14.35,14.35,0,0,1,12.41,47c-.14-1-.31-2-.5-3,0-.12,0-.24-.2-.25l-.53,0c-.83,0-1.66-.1-2.49-.16a11.78,11.78,0,0,0-1.19,0,13.08,13.08,0,0,1,0,1.67c-.07.57-.12,1.13-.24,1.68S7,48.11,6.83,48.76ZM.72,48.19a36.29,36.29,0,0,0,5.39.89c.12-.65.21-1.32.37-2a13.06,13.06,0,0,0,.36-3.41c0-.23-.07-.31-.29-.25a14.57,14.57,0,0,1-2.38.16,14.37,14.37,0,0,0-1.6.13c-.09,0-.23,0-.24.14-.06.39-.2.76-.29,1.15a8.69,8.69,0,0,1-.69,2A12.24,12.24,0,0,0,.72,48.19Zm9-18.35A2.86,2.86,0,0,1,9,32a.36.36,0,0,0-.09.24c0,1.72,0,3.44,0,5.16s0,3.5,0,5.25c0,.06,0,.13,0,.18L10.5,43c0-.1,0-.16,0-.23,0-2.44,0-4.89.05-7.34,0-1.07,0-2.16,0-3.24a.93.93,0,0,0-.14-.49A3.43,3.43,0,0,1,9.81,30C9.81,29.84,9.78,29.8,9.67,29.84ZM6,29.91a2.33,2.33,0,0,1-.23,1.47A2.35,2.35,0,0,0,5.43,33a4.92,4.92,0,0,1,.07,1.09c0,.71-.1,1.42-.11,2.14,0,1.3.09,2.6.06,3.9a14,14,0,0,0,0,1.45A6,6,0,0,0,5.53,43l1.19-.18c.1,0,.11-.08.11-.16,0-.33.09-.66.06-1a9.74,9.74,0,0,1,0-1.21c.08-1.59,0-3.18.12-4.77.1-1.12,0-2.24,0-3.37a1.44,1.44,0,0,0-.15-.69,3.77,3.77,0,0,1-.53-1.67A.48.48,0,0,0,6,29.91ZM16.76,48.34a31.57,31.57,0,0,1-1-3.19c-.06-.23-.14-.44-.2-.67a.81.81,0,0,0-.87-.7c-.15,0-.3-.07-.46-.08-.57,0-1.14,0-1.77,0,.5,1.82.51,3.69,1,5.51A21.58,21.58,0,0,1,16.76,48.34ZM3.84,32.16a5.28,5.28,0,0,1,.21,1.4c0,.65-.07,1.31-.1,2a22.08,22.08,0,0,0,.11,2.81,14.91,14.91,0,0,1,0,2.5A5.92,5.92,0,0,0,4,42.94h.81c0-1,0-1.92,0-2.86,0-1.19-.13-2.36-.11-3.54a27.62,27.62,0,0,0,.06-3.64c-.09-.72-.1-.78-.83-.75Zm2.89-2.95c0-.47.06-.91.06-1.36,0-.74,0-1.48,0-2.23a5.29,5.29,0,0,0-.21-1.89A.79.79,0,0,0,6,23.24c-.27,0-.4.19-.51.37a1.15,1.15,0,0,0-.13.53c0,.29.07.57.06.86a10.83,10.83,0,0,1-.06,1.89c-.1.53,0,1.07-.09,1.6a1.92,1.92,0,0,0,0,.79C5.78,29.2,6.24,29.29,6.73,29.21ZM8.18,42.83v-.21c0-3.34,0-6.68.05-10,0-.55,0-.57-.57-.53l-.07,0v.26c0,.5,0,1,0,1.48,0,1,0,2-.06,3-.06,1.49,0,3-.07,4.46,0,.51,0,1,0,1.55ZM10,29.19a.57.57,0,0,0,0-.12c0-1.6,0-3.2,0-4.8a1.58,1.58,0,0,0-.21-.79.31.31,0,0,0-.28-.19c-.41,0-.62.13-.62.55s0,.65,0,1c.05,1.2-.09,2.4-.09,3.59a3.12,3.12,0,0,0,0,.75C9.22,29.19,9.62,29.12,10,29.19ZM11.17,43h.56a1.15,1.15,0,0,0,0-.18c0-1.68,0-3.37,0-5,0-1-.06-2.07,0-3.1.07-.79.07-1.58.07-2.36,0-.12,0-.27-.15-.27h-.48c0,.09,0,.17,0,.25.07,1.62,0,3.23,0,4.85v.17c-.1,1.88,0,3.77,0,5.66Zm1.66-11.85c-.12.44-.44.8-.35,1.29a1.31,1.31,0,0,1,0,.28c.06,1.08-.12,2.15-.11,3.23,0,.7,0,1.39,0,2.09s0,1.65,0,2.48,0,1.41,0,2.12c0,.43,0,.43.44.41l.11,0v-.14c0-1.78,0-3.56,0-5.33A18,18,0,0,1,13,34.91a10.09,10.09,0,0,0,0-2,4.58,4.58,0,0,1,0-1A2,2,0,0,0,12.83,31.15ZM7.65,2a1.93,1.93,0,0,1-.23.37,1.66,1.66,0,0,0-.34,1.12.22.22,0,0,0,.15.23.71.71,0,0,1,.44,1,2.28,2.28,0,0,0-.06.82c0,.78.1,1.56.18,2.33,0,.4,0,.8.07,1.18a1.69,1.69,0,0,0,.84.05c0-.34,0-.68,0-1a5.86,5.86,0,0,0,0-1.45A10.87,10.87,0,0,0,8.1,4.1c0-.06,0-.13,0-.18.25-.31.15-.62.1-1A1.68,1.68,0,0,0,7.65,2Zm3,15.74c-.54,0-.74-.13-.71-.34,0-.39.38-.32.64-.35,0-.41-.28-.54-.61-.61a5.59,5.59,0,0,0-1.08-.05c-.46,0-.6.19-.47.66a1,1,0,0,1,.65,0,.31.31,0,0,1,.23.33.32.32,0,0,1-.36.28c-.18,0-.36,0-.56,0,0,.2.11.36.1.54a2.29,2.29,0,0,0,.4,1.39.69.69,0,0,0,1.22.1A2.71,2.71,0,0,0,10.68,17.72ZM9.06,15a2.39,2.39,0,0,0,1.18-2.72,2.37,2.37,0,0,0-1.4-2C9,11.9,8.89,13.46,9.06,15Zm4.88,28V32.17a.58.58,0,0,0-.31-.05c0,3.64-.22,7.27,0,10.91ZM13,29.14v-.32c0-1.49,0-3-.05-4.46a2.24,2.24,0,0,0-.05-.63c-.08-.25-.25-.42-.47-.38s-.21.26-.21.43q0,2.59,0,5.19c0,.05,0,.11,0,.17Zm-2.82-14.2a.42.42,0,0,0,.39-.06,3.6,3.6,0,0,0,.58-.32,1.46,1.46,0,0,0,.67-1.12,3.91,3.91,0,0,0-1.41-3.2A1.09,1.09,0,0,0,9.57,10a3.23,3.23,0,0,1,1.33,2.36A2.88,2.88,0,0,1,10.15,14.94ZM8.36,15c-.11-1.55,0-3.09-.17-4.68a3.38,3.38,0,0,0-.82,2.92A4,4,0,0,0,8.36,15ZM4.24,16.87c0,.05-.06.08-.06.11-.09.51-.17,1-.25,1.54a.22.22,0,0,0,0,.17A2.71,2.71,0,0,1,4.43,20c0,.09,0,.22.11.24s.14-.14.16-.22a10.06,10.06,0,0,0,.11-3.1C4.62,16.9,4.42,17,4.24,16.87Zm8.86,3.47c.06-.09,0-.18,0-.26.06-.34,0-.72.31-1,.11-.1.09-.17.08-.28a7.32,7.32,0,0,1-.22-1.31c0-.2-.06-.3-.28-.25A26.49,26.49,0,0,0,13.1,20.34Z"/><path class="cls-1" d="M.72,48.19A12.24,12.24,0,0,1,1.35,47,8.69,8.69,0,0,0,2,45c.09-.39.23-.76.29-1.15,0-.13.15-.12.24-.14a14.37,14.37,0,0,1,1.6-.13,14.57,14.57,0,0,0,2.38-.16c.22-.06.29,0,.29.25a13.06,13.06,0,0,1-.36,3.41c-.16.65-.25,1.32-.37,2A36.29,36.29,0,0,1,.72,48.19Z"/><path class="cls-2" d="M9.67,29.84c.11,0,.14,0,.14.12a3.43,3.43,0,0,0,.63,1.7.93.93,0,0,1,.14.49c0,1.08,0,2.17,0,3.24-.1,2.45,0,4.9-.05,7.34,0,.07,0,.13,0,.23l-1.66-.13c-.06,0,0-.12,0-.18,0-1.75,0-3.5,0-5.25s0-3.44,0-5.16A.36.36,0,0,1,9,32,2.86,2.86,0,0,0,9.67,29.84Z"/><path class="cls-2" d="M6,29.91a.48.48,0,0,1,.29,0,3.77,3.77,0,0,0,.53,1.67,1.44,1.44,0,0,1,.15.69c0,1.13.14,2.25,0,3.37-.13,1.59,0,3.18-.12,4.77a9.74,9.74,0,0,0,0,1.21c0,.34-.06.67-.06,1,0,.08,0,.15-.11.16L5.53,43a6,6,0,0,1-.08-1.4,14,14,0,0,1,0-1.45c0-1.3-.08-2.6-.06-3.9,0-.72.12-1.43.11-2.14A4.92,4.92,0,0,0,5.43,33a2.35,2.35,0,0,1,.32-1.6A2.33,2.33,0,0,0,6,29.91Z"/><path class="cls-2" d="M16.76,48.34a21.58,21.58,0,0,0-3.29.87c-.48-1.82-.49-3.69-1-5.51.63,0,1.2,0,1.77,0,.16,0,.31.08.46.08a.81.81,0,0,1,.87.7c.06.23.14.44.2.67A31.57,31.57,0,0,0,16.76,48.34Z"/><path class="cls-1" d="M6.83,48.76c.12-.65.24-1.3.38-1.95s.17-1.11.24-1.68a13.08,13.08,0,0,0,0-1.67,11.78,11.78,0,0,1,1.19,0c.83.06,1.66.16,2.49.16-.15.56-.22,1.14-.37,1.7a6.5,6.5,0,0,1-.29,1c-.11.27-.26.51-.35.79a1.92,1.92,0,0,1-1.62,1.21,3.2,3.2,0,0,0-1.43.37A.6.6,0,0,1,6.83,48.76Z"/><path class="cls-2" d="M6.83,48.76a.6.6,0,0,0,.29-.08,3.2,3.2,0,0,1,1.43-.37,1.92,1.92,0,0,0,1.62-1.21c.09-.28.24-.52.35-.79a6.5,6.5,0,0,0,.29-1c.15-.56.22-1.14.37-1.7l.53,0c.16,0,.18.13.2.25.19,1,.36,2,.5,3a14.35,14.35,0,0,0,.45,2.39c-2,.11-4.07-.26-6.11-.2C6.8,49,6.75,48.88,6.83,48.76Z"/><path class="cls-2" d="M10.63,24v-.11c.18-.7.58-1.31.77-2a17.59,17.59,0,0,1,2.4.25.46.46,0,0,1,.44.5,21.32,21.32,0,0,1,0,2.26c0,.52,0,1,0,1.56,0,.93,0,1.86-.06,2.79l0,.1c-.18,0-.32-.07-.52-.12a2.64,2.64,0,0,0,.05-1.12c-.07-1.35,0-2.71-.07-4.07,0-.78-.24-1.22-1.07-1.34a.67.67,0,0,0-.61.2,1.2,1.2,0,0,0-.37.92c0,1.78.08,3.55.05,5.35a1.63,1.63,0,0,1-.88,0l-.06-5.15,0,0Z"/><path class="cls-1" d="M9.74,21.23H5.56s-.09-.06,0-.11a.88.88,0,0,0,.21-.53c.14-.81.31-1.6.4-2.41a5.56,5.56,0,0,0,0-1.63,14.21,14.21,0,0,1,1.61-.05c0,.32,0,.64,0,1A5.89,5.89,0,0,0,8,19a2.52,2.52,0,0,0,.81,1.38,1.28,1.28,0,0,0,1,.31Z"/><path class="cls-1" d="M3.84,32.16H4c.73,0,.74,0,.83.75a27.62,27.62,0,0,1-.06,3.64c0,1.18.14,2.35.11,3.54,0,.94,0,1.89,0,2.86H4a5.92,5.92,0,0,1,.08-2.1,14.91,14.91,0,0,0,0-2.5A22.08,22.08,0,0,1,4,35.53c0-.66.09-1.32.1-2A5.28,5.28,0,0,0,3.84,32.16Z"/><path class="cls-1" d="M6.73,29.21c-.49.08-1,0-1.43.07a1.92,1.92,0,0,1,0-.79c.09-.53,0-1.07.09-1.6A10.83,10.83,0,0,0,5.44,25c0-.29-.07-.57-.06-.86a1.15,1.15,0,0,1,.13-.53c.11-.18.24-.39.51-.37a.79.79,0,0,1,.55.49,5.29,5.29,0,0,1,.21,1.89c0,.75,0,1.49,0,2.23C6.79,28.3,6.69,28.74,6.73,29.21Z"/><path class="cls-2" d="M9.74,21.23v-.57a2,2,0,0,0,1.32-1.34,3.83,3.83,0,0,0,.17-2.5c0-.06,0-.13,0-.19a.39.39,0,0,1,0-.09,5.81,5.81,0,0,1,1,.13c.11,0,.11.14.12.22a1.93,1.93,0,0,1,.05.47c-.08,1.27.07,2.53,0,3.79a.39.39,0,0,0,0,.13h-.56l-1.83,0A.49.49,0,0,1,9.74,21.23Z"/><path class="cls-1" d="M8.18,42.83H7.47c.06-.53,0-1,0-1.55,0-1.48,0-3,.07-4.46,0-1,.06-2,.06-3,0-.49,0-1,0-1.48V32.1l.07,0c.55,0,.58,0,.57.53-.06,3.34-.05,6.68-.05,10Z"/><path class="cls-1" d="M10,29.19c-.41-.07-.81,0-1.22,0a3.12,3.12,0,0,1,0-.75c0-1.19.14-2.39.09-3.59,0-.32,0-.65,0-1s.21-.59.62-.55a.31.31,0,0,1,.28.19,1.58,1.58,0,0,1,.21.79c0,1.6,0,3.2,0,4.8A.57.57,0,0,1,10,29.19Z"/><path class="cls-1" d="M11.17,43l0,0c0-1.89-.06-3.78,0-5.66v-.17c0-1.62.1-3.23,0-4.85,0-.08,0-.16,0-.25h.48c.18,0,.15.15.15.27,0,.78,0,1.57-.07,2.36-.09,1,0,2.07,0,3.1,0,1.68,0,3.37,0,5a1.15,1.15,0,0,1,0,.18Z"/><path class="cls-2" d="M12.83,31.15A2,2,0,0,1,13,32a4.58,4.58,0,0,0,0,1,10.09,10.09,0,0,1,0,2,18,18,0,0,0-.13,2.64c.06,1.77,0,3.55,0,5.33V43l-.11,0c-.44,0-.44,0-.44-.41,0-.71,0-1.42,0-2.12s0-1.66,0-2.48,0-1.39,0-2.09c0-1.08.17-2.15.11-3.23a1.31,1.31,0,0,0,0-.28C12.39,32,12.71,31.59,12.83,31.15Z"/><path class="cls-1" d="M4.59,29.17c0,.1,0,.13-.13.13H3.68a9.67,9.67,0,0,0,.09-1.18c0-1,.08-1.93,0-2.9,0-.58-.08-1.16-.09-1.74a9.87,9.87,0,0,1,.06-1.33.43.43,0,0,1,.46-.36,5.31,5.31,0,0,1,1.19.06A4.51,4.51,0,0,1,4.75,23a.87.87,0,0,0-.25.67c0,1.74,0,3.49,0,5.23C4.51,29,4.49,29.09,4.59,29.17Z"/><path class="cls-2" d="M7.65,2a1.68,1.68,0,0,1,.54,1c.05.35.15.66-.1,1,0,.05,0,.12,0,.18a10.87,10.87,0,0,1,.61,2.5,5.86,5.86,0,0,1,0,1.45c0,.34,0,.68,0,1A1.69,1.69,0,0,1,7.86,9c-.05-.38,0-.78-.07-1.18-.08-.77-.13-1.55-.18-2.33a2.28,2.28,0,0,1,.06-.82.71.71,0,0,0-.44-1,.22.22,0,0,1-.15-.23,1.66,1.66,0,0,1,.34-1.12A1.93,1.93,0,0,0,7.65,2Z"/><path class="cls-1" d="M7.44,10.26a3.7,3.7,0,0,0-.72,2,6.75,6.75,0,0,0,0,1,2.91,2.91,0,0,0,.5,1.19c.16.27.34.54.51.82l-.05,0c-.31-.12-.66-.14-1-.27a1.75,1.75,0,0,1-.88-1,3.49,3.49,0,0,1-.18-2.25,1.56,1.56,0,0,1,1-1.2l.78-.32Z"/><path class="cls-1" d="M10.68,17.72a2.71,2.71,0,0,1-.55,2,.69.69,0,0,1-1.22-.1,2.29,2.29,0,0,1-.4-1.39c0-.18-.14-.34-.1-.54.2,0,.38,0,.56,0a.32.32,0,0,0,.36-.28.31.31,0,0,0-.23-.33,1,1,0,0,0-.65,0c-.13-.47,0-.66.47-.66a5.59,5.59,0,0,1,1.08.05c.33.07.59.2.61.61-.26,0-.59,0-.64.35C9.94,17.59,10.14,17.68,10.68,17.72Zm-1.07.88h.11c.22,0,.4-.12.39-.34s-.18-.33-.4-.33H9.6c-.27,0-.47.17-.44.36S9.39,18.6,9.61,18.6Zm0,.22h0a1,1,0,0,0-.25,0c-.16,0-.29.13-.28.31a.3.3,0,0,0,.28.29c.11,0,.22,0,.33,0s.43-.07.43-.31-.2-.32-.42-.31Z"/><path class="cls-1" d="M9.06,15c-.17-1.57,0-3.13-.22-4.7a2.37,2.37,0,0,1,1.4,2A2.39,2.39,0,0,1,9.06,15Z"/><path class="cls-1" d="M13.94,43.07l-.33,0c-.2-3.64.06-7.27,0-10.91a.58.58,0,0,1,.31.05Z"/><path class="cls-1" d="M13,29.14h-.74c0-.06,0-.12,0-.17q0-2.59,0-5.19c0-.17,0-.38.21-.43s.39.13.47.38a2.24,2.24,0,0,1,.05.63c0,1.49,0,3,.05,4.46Z"/><path class="cls-2" d="M9,21.9h.62c0,.26,0,.54-.22.72A1.19,1.19,0,0,0,8.26,24a29.42,29.42,0,0,1,0,3c-.05.67-.06,1.34-.07,2,0,.18,0,.27-.23.23a1.09,1.09,0,0,1,0-.44c0-1.58,0-3.15,0-4.73,0-.43.06-.49-.43-.48-.12,0-.24,0-.36,0a1,1,0,0,0-.22-.38.6.6,0,0,1,.65-.24,2.44,2.44,0,0,0,.47,0,.36.36,0,0,0,.28-.08A5.74,5.74,0,0,0,9,21.9Z"/><path class="cls-1" d="M10.15,14.94a2.88,2.88,0,0,0,.75-2.58A3.23,3.23,0,0,0,9.57,10a1.09,1.09,0,0,1,.81.24,3.91,3.91,0,0,1,1.41,3.2,1.46,1.46,0,0,1-.67,1.12,3.6,3.6,0,0,1-.58.32A.42.42,0,0,1,10.15,14.94Z"/><path class="cls-1" d="M4.72,31.55a5.08,5.08,0,0,0-1,0c-.21,0-.39-.05-.48-.28A3.72,3.72,0,0,0,3,30.89c-.17-.28-.29-.6-.78-.58.23-.23.39-.37.64-.37.78,0,1.56,0,2.34,0A2.57,2.57,0,0,1,4.89,31,.83.83,0,0,0,4.72,31.55Z"/><path class="cls-1" d="M8.36,15a4,4,0,0,1-1-1.76,3.38,3.38,0,0,1,.82-2.92C8.36,11.93,8.25,13.47,8.36,15Z"/><path class="cls-1" d="M7.16,23.46c.12,0,.24,0,.36,0,.49,0,.45.05.43.48-.09,1.58,0,3.15,0,4.73a1.09,1.09,0,0,0,0,.44H7.42a1.11,1.11,0,0,1,0-.44V24.47A2.56,2.56,0,0,0,7.16,23.46Z"/><path class="cls-2" d="M6.17,16.54a5.56,5.56,0,0,1,0,1.63c-.09.81-.26,1.6-.4,2.41a.88.88,0,0,1-.21.53c0,.05,0,.08,0,.11a.7.7,0,0,1-.39-.09,12.58,12.58,0,0,0,.21-4.59Z"/><path class="cls-1" d="M9,21.9a5.74,5.74,0,0,1-.67.87.36.36,0,0,1-.28.08,2.44,2.44,0,0,1-.47,0,.6.6,0,0,0-.65.24c-.35-.25-.67-.55-1.15-.48,0-.24.27-.43.27-.69Z"/><path class="cls-2" d="M6.06,21.91c0,.26-.22.45-.27.69a1.74,1.74,0,0,0-1,1.63,7.07,7.07,0,0,1,.08,2c-.11.79-.1,1.59-.19,2.38,0,.19,0,.37,0,.56-.1-.08-.08-.19-.08-.29,0-1.74,0-3.49,0-5.23A.87.87,0,0,1,4.75,23a4.51,4.51,0,0,0,.69-1.13C5.64,21.91,5.86,21.87,6.06,21.91Z"/><path class="cls-1" d="M4.24,16.87c.18.11.38,0,.57.07A10.06,10.06,0,0,1,4.7,20c0,.08,0,.23-.16.22s-.09-.15-.11-.24A2.71,2.71,0,0,0,4,18.69a.22.22,0,0,1,0-.17c.08-.51.16-1,.25-1.54C4.18,17,4.21,16.92,4.24,16.87Z"/><path class="cls-1" d="M8.28,31.44a4.59,4.59,0,0,0-.91,0,4.68,4.68,0,0,1-.43-1.6h1.5a1.13,1.13,0,0,1,0,.41A2.82,2.82,0,0,0,8.28,31.44Z"/><path class="cls-1" d="M9.41,22.62c.27-.18.21-.46.22-.72H11.4c-.19.7-.59,1.31-.77,2a2.37,2.37,0,0,0-.4-.92A1,1,0,0,0,9.41,22.62Z"/><path class="cls-1" d="M11.63,31.38c-.19,0-.38-.09-.57,0s-.08,0-.11-.07a2.64,2.64,0,0,1-.49-1.42c.44,0,.86,0,1.28-.06A6.66,6.66,0,0,0,11.63,31.38Z"/><path class="cls-2" d="M14,30l1.53.24c-.24.22-.46.42-.69.61a2.19,2.19,0,0,0-.44.42.56.56,0,0,1-.68.19.26.26,0,0,0,.06-.21A2.8,2.8,0,0,1,14,30Z"/><path class="cls-2" d="M8.28,31.44a2.82,2.82,0,0,1,.16-1.22,1.13,1.13,0,0,0,0-.41h.64a3,3,0,0,1-.34,1.43C8.63,31.45,8.51,31.54,8.28,31.44Z"/><path class="cls-2" d="M11.63,31.38a6.66,6.66,0,0,1,.11-1.54,1.21,1.21,0,0,1,.54,0,2.4,2.4,0,0,1-.19,1.47C12,31.5,11.78,31.35,11.63,31.38Z"/><path class="cls-2" d="M13.1,20.34A26.49,26.49,0,0,1,13,17.26c.22-.05.28,0,.28.25a7.32,7.32,0,0,0,.22,1.31c0,.11,0,.18-.08.28-.28.26-.25.64-.31,1C13.13,20.16,13.16,20.25,13.1,20.34Z"/><path class="cls-1" d="M14,30a2.8,2.8,0,0,0-.22,1.25.26.26,0,0,1-.06.21c-.11,0-.15-.07-.17-.18a4.48,4.48,0,0,1-.09-1.37Z"/><path class="cls-2" d="M4.72,31.55A.83.83,0,0,1,4.89,31a2.57,2.57,0,0,0,.33-1.09.2.2,0,0,1,.15,0,2.35,2.35,0,0,1-.31,1.5C5,31.58,4.88,31.63,4.72,31.55Z"/><path class="cls-1" d="M7.38,10.21a.08.08,0,0,1,.11,0l0,.08Z"/><path class="cls-1" d="M7.69,15.24l0,0H7.64Z"/><path class="cls-1" d="M10.63,24l0,0,0,0Z"/><path d="M9.61,18.6c-.22,0-.42-.05-.45-.31s.17-.35.44-.36h.11c.22,0,.4.11.4.33s-.17.33-.39.34Z"/><path d="M9.6,18.82h.09c.22,0,.43.07.42.31s-.2.32-.43.31-.22,0-.33,0a.3.3,0,0,1-.28-.29c0-.18.12-.27.28-.31a1,1,0,0,1,.25,0Z"/></g></g></svg>