<svg xmlns="http://www.w3.org/2000/svg" viewBox="0 0 45.21 52.25"><defs><style>.cls-1{fill:#fdfdfd;}.cls-2{fill:#fefefe;}.cls-3{fill:#adacac;}.cls-4{fill:#ccc;}.cls-5{fill:#333;}</style></defs><g id="Layer_2" data-name="Layer 2"><g id="Layer_1-2" data-name="Layer 1"><path class="cls-1" d="M28.07,32.68a14.84,14.84,0,0,0-5.53.87A6.36,6.36,0,0,0,19,36.28a6,6,0,0,0,2.13,8.15,5.88,5.88,0,0,0,4.59.6,11.43,11.43,0,0,1,2.23-.58l-1.58.21a12.31,12.31,0,0,1,1.72-.08,6,6,0,0,0,6-5.95,6.06,6.06,0,0,0-6-6Z"/><path class="cls-1" d="M13.41,31.47a8.37,8.37,0,0,1,1.32,1.34l-.93-1.2q.3.41.57.84a6.12,6.12,0,0,0,3.55,2.74,4.59,4.59,0,0,0,2.38.11,4.41,4.41,0,0,0,2.21-.71A6,6,0,0,0,25.25,31a6.2,6.2,0,0,0-.6-4.58,12.86,12.86,0,0,0-2.82-3.4,4.47,4.47,0,0,0-1.92-1.23,4.41,4.41,0,0,0-2.29-.52,6,6,0,0,0-6,6,5.86,5.86,0,0,0,1.75,4.21Z"/><path class="cls-2" d="M21.75,6.47,20.67,8.9a8,8,0,0,0-.52,1.16c-.29.45-.25.46.11,0l-.26.19c-2.45,1.42-2,4.81,0,6.32.78.58,1,1.07.63-.48-.48-.59-.47-1.05,0-1.37,0,.08,0,.12-.18.1a9.63,9.63,0,0,0-2.73,1c-2.14.95-3.76,2.16-4,4.62a3,3,0,0,0,2.2,2.9,1.34,1.34,0,0,1-.87-.91.82.82,0,0,1,.17-.68c.27-.48.28-.59.05-.33-.29,0-1,.68-1.23.86A21.16,21.16,0,0,1,10.83,24C9.07,24.65,8,26.56,9,28.37l-.11-1.1c.32-.32.39-.47.22-.44,0,0-.74.41-.68.38C5.73,28.68,7.12,32.69,10,32.8a8.11,8.11,0,0,1,4,1.82c-.12-.06-.1,0,0,.09s.15.16.05,0,0-.37,0-.36-.19.27-.1.19c-.26.26-.34.34-.23.22-.63.31-.39.34.72.08l1.32.77c-.2-.17-.19-.23-.05,0a5.32,5.32,0,0,0-.64-.84,4.24,4.24,0,0,0-1.76-1.16,5.57,5.57,0,0,0-3.69.15c-2.51.93-5,2-7.43,3-1.7.69-2.95,2.62-1.79,4.41a41.62,41.62,0,0,0,3,4.11,7.71,7.71,0,0,1,.71.85,13.79,13.79,0,0,0,.48,2.24c1.66,3.16,5.86,2.73,8.9,2.92a36.27,36.27,0,0,0,4.66.12c1.65-.11,3.25-.4,4.91-.36,3.51.09,6.86.66,10.37.11a3,3,0,0,0,2.15-3.29,3,3,0,0,0-2.94-2.6,63,63,0,0,0-10.09.13c-1.6.1-3.2.19-4.81.19-1.24,0-2.81.17-3.84-.45L15,49.28c-.42.35-.42.39,0,.11a1.25,1.25,0,0,1,.41-.18,11.87,11.87,0,0,1,1.19-.4,21.34,21.34,0,0,1,2.85-.64c1.69-.27,3.41-.34,5.12-.44,3.9-.22,7.91-.42,11.6-1.85a3,3,0,0,0,2.15-3.29,3,3,0,0,0-3-2.6c-2.53.26-5.55,1.81-5.49,4.77a3.39,3.39,0,0,0,3.24,3.34A3.85,3.85,0,0,0,36.58,46a16.93,16.93,0,0,0,2-7.21c.17-2.53-.86-5.26-3.25-6.42l-.72,5.49L36,37.52c2.54-.59,2.89-4.23.72-5.49a18,18,0,0,0-2.46-.87c.26.11-.4-.28-.2-.14a4.32,4.32,0,0,1-.76-.78,7,7,0,0,1-1-1.36c-.07-.14-.08,0,0,.35l.22-.55a4.34,4.34,0,0,0,.2-1.75c-.14-1.75-1.4-3.6-2.27-5.1a48,48,0,0,0-2.95-4.52,3,3,0,0,0-5.18,0,35.66,35.66,0,0,0-2.79,4.58c-.91,1.76-2.09,3.79-1.61,5.84a4,4,0,0,0,4.93,3,4.46,4.46,0,0,0,1.94-1.25c.29-.31.5-.68.77-1s.09-.14-.11.12c.53-.51.12-.34-1.23.5l-1.51-.41a8.77,8.77,0,0,1,1.68,2.68c.56,1.14,1,2.2,1.47,3.4a27.72,27.72,0,0,0,1.78,3.68A17.88,17.88,0,0,0,29,40.44a3.27,3.27,0,0,0,.6.69c.41.54.48.3.2-.74.19-1,.09-1.27-.32-.74-.21,0-.66.32-1,.4a8,8,0,0,1-2.13.12c-1.72-.05-3.44-.18-5.16-.27l-5.48-.31a16.62,16.62,0,0,1-4.44-.66L12,44.41c1.69-1.26,3.46-3,5.41-3.79a22.39,22.39,0,0,1,3.63-.8,20.87,20.87,0,0,0,3.6-1.21c1.26-.54,2.53-1.1,3.09-2.46a4.19,4.19,0,0,0-.8-4,5.49,5.49,0,0,0-3.1-2.29,5.46,5.46,0,0,0-2.54.1,3.08,3.08,0,0,0-.75.21c-.31.06-.25.08.18,0a1.17,1.17,0,0,1,1,.34l.78,1.33-.34,1.4a3.1,3.1,0,0,0,0-4.24C21.17,28,19,27.74,18,29s-1.76,2.58-1.3,4.19a4,4,0,0,0,2.59,2.67,5.56,5.56,0,0,0,3.08,0c.25-.08.5-.16.76-.22A2.16,2.16,0,0,1,22,35.51a6.23,6.23,0,0,1,.39.75L22,34.75V35l.41-1.52-.14.19,1.08-1.07C21.11,34,18.48,34,16.05,34.76c-2.68.87-4.84,2.81-7.06,4.47a3,3,0,0,0,.72,5.48,28,28,0,0,0,7.52,1l7.48.42c2.56.14,5.21.2,7.52-1.09s4.25-4.15,2.7-6.8c-.47-.8-1.27-1.47-1.74-2.13a16.84,16.84,0,0,1-1.42-2.56c-.78-1.69-1.43-3.55-2.3-5.29s-2.35-4.39-4.47-5a3.87,3.87,0,0,0-3.66,1,9.2,9.2,0,0,0-.91,1.15c-.2.27-.2.27,0,0a2.62,2.62,0,0,1,1.06-.48L23,25.3,23.76,27a1.12,1.12,0,0,1,.14-.4,3.69,3.69,0,0,0,.29-.64c.32-.67.66-1.34,1-2a39.43,39.43,0,0,1,2.27-3.59H22.3c.93,1.27,1.81,2.58,2.61,3.93a13.84,13.84,0,0,1,1.95,3.85V26.53c-.26,1.39-.76,2.43-.35,3.91a10,10,0,0,0,2.08,3.48A10.11,10.11,0,0,0,31,36.18c.81.5,2.07.67,2.7,1l.71-5.49L33,32.06c-2.41.56-3.05,4.36-.72,5.48.76.37.25.16.2.07s.1.23.09.27a9.53,9.53,0,0,1-.16,1.67,9.4,9.4,0,0,1-1.29,3.85l1.07-1.08-.24.18,1.51-.41h-.27l1.51.41-.17-.13,1.38,1.79c0,.13.14,1.76-.47,1.82l-.79-5.89c-3.91,1.51-8,1.47-12.14,1.76a38,38,0,0,0-6.63.94c-2.29.59-4.67,1.4-6,3.45a3,3,0,0,0,1.08,4.11c3,1.84,7.31,1.33,10.71,1.14a70.29,70.29,0,0,1,11.05-.19l-.8-5.89c-2.73.42-5.58-.2-8.31-.31-2.92-.13-5.76.47-8.68.3l-4.09-.25c-.37,0-.76,0-1.14-.07-.08,0-.49,0-.2,0-.4-.15-.42-.12-.06.06a.77.77,0,0,1,.49.57c.24.55.31.56.22,0l-.1-.8a8.11,8.11,0,0,0-2-3.52,31,31,0,0,1-2.35-3.23l-1.8,4.41,4.55-1.85,2.27-.92c.25-.1.51-.21.77-.3a2.91,2.91,0,0,1,.5-.16c.37-.07.22-.09-.45,0-.27-.09-1-1.07-.74-.41a4,4,0,0,0,.74.91,3.77,3.77,0,0,0,2.64,1,6.19,6.19,0,0,0,4.25-2.18,5.87,5.87,0,0,0-.21-8.33A13.41,13.41,0,0,0,10,26.8l1.51,5.59c2.58-1.38,4.43-4.22,2.73-7l-1.79,4.41c2.56-1,5.71-2.31,7.49-4.49a4.83,4.83,0,0,0-2.36-7.69l2.21,2.89,0-.32-.41,1.51c-.21.38-.55.38,0,.09.27-.14.52-.3.79-.44a10.94,10.94,0,0,1,1.35-.5,7,7,0,0,0,3.59-2.13,4.66,4.66,0,0,0,.93-4A4.22,4.22,0,0,0,25,12.75a5.67,5.67,0,0,0-.87-.68c-.7-.45-.21-.31.06.54V14.2l0-.31-.77,1.32c-.25.09-.22,0,.11-.13a6.29,6.29,0,0,0,.89-.73,6.14,6.14,0,0,0,1-1.62c.51-1.06,1-2.16,1.44-3.24a3.09,3.09,0,0,0-1.07-4.1c-1.28-.75-3.45-.41-4.11,1.08Z"/><path class="cls-2" d="M24.2,1.91l0,0-.11-.15,0,.05-.08-.18a.24.24,0,0,1,0,.08l0-.2v.11l0-.19a1.13,1.13,0,0,1-.08.24l.08-.18c-.08.17-.16.34-.23.52a1.93,1.93,0,0,0-.1.63A3.55,3.55,0,0,0,24,3.77a.75.75,0,0,0,.92.52.76.76,0,0,0,.53-.92,4.15,4.15,0,0,1-.19-.69l0,.2a1.28,1.28,0,0,1,0-.39l0,.2a1.67,1.67,0,0,1,.08-.3l-.08.18a3.75,3.75,0,0,0,.28-.65,1.16,1.16,0,0,0,0-.49,1.22,1.22,0,0,0-.27-.59.78.78,0,0,0-.54-.21.8.8,0,0,0-.53.21.84.84,0,0,0-.22.54.89.89,0,0,0,.22.53Z"/><path class="cls-3" d="M43,35.52c0-.12,0,0,0,.06l0,.19-.09.37a6.18,6.18,0,0,1-.23.73l1.25-.34c-.1-.1,0,.06,0,0s0,.13,0,0a.76.76,0,0,0-1.48.2,14,14,0,0,0,.57,3.14.75.75,0,0,0,1.44,0,6.48,6.48,0,0,0,.19-2.4.78.78,0,0,0-.75-.75.75.75,0,0,0-.75.75,6.35,6.35,0,0,1,0,1.07c0,.07,0,.15,0,.23s0,.1,0,0l0,.16c0,.17-.07.35-.11.52h1.44A14,14,0,0,1,44,38a2,2,0,0,1-.06-.35l0-.15v-.08h0c0-.25,0-.49-.07-.74l-1.47.2a1.53,1.53,0,0,0,.39.7.76.76,0,0,0,.73.19.8.8,0,0,0,.53-.53,7.35,7.35,0,0,0,.41-1.74.75.75,0,0,0-.75-.75.77.77,0,0,0-.75.75Z"/><path class="cls-3" d="M23.49,7.75c-.06,2.83,2.67,3.72,5,3.85v-3a3,3,0,0,0-3.1,3,1.51,1.51,0,0,0,2.26,1.29l.85-.5L26.69,10c-2.74,3.43,1.45,7.64,5.16,7l-1.46-2.5q.81-.27.15-.24a5.25,5.25,0,0,0-.68.08,2.16,2.16,0,0,0-.89.49,2.24,2.24,0,0,0-.65,1.49c0,.22,0,.16.11-.19L31,17.23a10,10,0,0,0-1.58-4.11c-.72-1.17-1.6-2.33-1.56-3.76.06-1.95-2.88-1.92-3,0a13.39,13.39,0,0,0,.36,4.41,35,35,0,0,0,1.62,4.15A11.84,11.84,0,0,0,28.9,21.6a16.48,16.48,0,0,0,3.47,2.62c1.25.77,2.9-.8,2.06-2.06-.73-1.08-1.61-3.21-3.06-3.44-1-.16-2.34.66-1.85,1.84a3.6,3.6,0,0,0,1.79,2.06,7.34,7.34,0,0,1,1,.45c.41.28.74.68,1.17.94,1.39.87,3.51,1.75,4.9.56a1.51,1.51,0,0,0,.39-1.46l0-.17c-.34-1.72-2.88-1.23-2.94.4,0-1,1.14-1.1.2-.83a2.91,2.91,0,0,0-.64.31,1.83,1.83,0,0,0-.93,1.53c0,.42.24,0,.08,0s-.42.25-.56.34a3,3,0,0,0-1.17,1.26c-.52,1.21.67,3,2.05,2.06,1.56-1.11,3.64-1.82,3.55-4.13s-2.29-3.31-4.18-4.08c-1-.39-1.83.59-1.89,1.45-.15,1.9-.34,3.8-.41,5.7a5.1,5.1,0,0,0,1,3.81,3.49,3.49,0,0,0,1.87.9,5.21,5.21,0,0,1,1.88,1,4,4,0,0,0,4.18.52l-2.05-.53a5.08,5.08,0,0,0,1,1.21c1,.93,3.13,0,2.51-1.46a5,5,0,0,0-4.74-3.28A1.52,1.52,0,0,0,36.06,31a2.72,2.72,0,0,0,1.37,1.69c.41.22,1.46.36,1.69.65s.2.79.44,1.09a1.9,1.9,0,0,0,1.16.68,1.8,1.8,0,0,0,2.11-1.32l-2.75.35.12.18-.15-1.16c.14-.42-.15,0-.36.17a3.41,3.41,0,0,0-.53.66,4.17,4.17,0,0,0-.59,1.79c-.18,1.55.52,2.86.84,4.34a14.54,14.54,0,0,1-.18,4.41A7.22,7.22,0,0,0,40,48.6l.89-2.2A2.31,2.31,0,0,0,39,48.83l2.56-1.06-.11-.13.38,1.46.06-.2-.69.9.18-.11-1.16.15H40.1A1.51,1.51,0,0,0,42.46,48a2.75,2.75,0,0,0-2.5-1.3,4.51,4.51,0,0,0-1.3.28,8.15,8.15,0,0,0-1,.46c-.6.31-.43.06.06.48l-.3,2.36.16-.08-1.15.15c-.36-.09.39.41.54.49a2.11,2.11,0,0,0,1,.27,2.21,2.21,0,0,0,1-.23,2.15,2.15,0,0,0,.5-.35c.4-.26.23-.28-.51-.08l.4-2.94a10.07,10.07,0,0,0-4.06.65l1.9,1.45c-.1.21-.07.23.09.05a5.22,5.22,0,0,0,.43-.39c.17-.19.33-.4.48-.6a9,9,0,0,0,1-1.94,27.33,27.33,0,0,0,1.3-4.51,31.28,31.28,0,0,0,.48-9.36c-.19-1.9-3.2-1.92-3,0a28.56,28.56,0,0,1-.51,9.22,20.48,20.48,0,0,1-1.32,4.22c-.57,1.21-2.05,1.8-1.91,3.31.09.87.91,1.82,1.9,1.44a7.91,7.91,0,0,1,3.26-.54,1.51,1.51,0,0,0,.4-3,2,2,0,0,0-1.36.09,2.12,2.12,0,0,0-.51.33l-.25.19c-.33.26-.06.26.81,0,0-.24-.82-.62-1-.68a1.9,1.9,0,0,0-1.49.19,1.5,1.5,0,0,0-.3,2.35,2.39,2.39,0,0,0,2.46.52,12.52,12.52,0,0,0,1.33-.64,2.8,2.8,0,0,1,.57-.22c.29,0,.26,0-.09-.19l2.35-1.82c-1.64-1.84-4.45.28-2.76,2.19A1.51,1.51,0,0,0,42,48.83l-.37.46a1.53,1.53,0,0,0,.9-2.21,6.41,6.41,0,0,1-.19-3.76,11,11,0,0,0-.11-4.24c-.27-1-1.19-2.55-.51-3.56.3-.46.8-.64,1-1.18a1.64,1.64,0,0,0-.12-1.73,1.52,1.52,0,0,0-2.74.36l0,.18.69-.9c.46-.22,1.47.82,1.33,0a1.93,1.93,0,0,0-.37-.71,3,3,0,0,0-.95-.83,6.19,6.19,0,0,0-1.06-.43,3.38,3.38,0,0,0-.54-.17c-.34-.05-.15-.34,0,.09l-1.45,1.9a1.92,1.92,0,0,1,1.85,1.08l2.5-1.46a1.32,1.32,0,0,1-.48-.61,1.56,1.56,0,0,0-2.06-.54c-.54.26-1.88-1.09-2.34-1.33-.68-.36-1.83-.25-2.06-1A9.48,9.48,0,0,1,35,25.09l.3-3.86-1.9,1.45c.49.19,2.12.58,2,1.38-.09.49-1.66,1.06-2.06,1.34l2.06,2.05c.15-.36.76-.56,1.11-.87a2.24,2.24,0,0,0,.92-1.77c-.12-.7-.28.61-.38.52.06.06.7-.25.78-.29a1.91,1.91,0,0,0,1-1.7l-3,.4,0,.17.39-1.46c.58-.23.61-.38.09-.43l-.71-.25a4.45,4.45,0,0,1-1.07-.69,5.94,5.94,0,0,0-1.05-.82c-.24-.13-1-.22-1.09-.5l-1.85,1.85c-.4-.42-.41-.38-.05.1l.4.59.92,1.38,2.05-2.06a13.4,13.4,0,0,1-2.73-2,10.2,10.2,0,0,1-1.78-3.33,14.9,14.9,0,0,1-1.53-6.93h-3a7.67,7.67,0,0,0,1.26,4.11c.68,1.16,1.71,2.38,1.88,3.76a1.53,1.53,0,0,0,2.57,1.06,2,2,0,0,0,.64-1l0-.25c.18-.69-.05-.6-.69.28.49.39,1.69-.3,2-.64a1.52,1.52,0,0,0-1.46-2.51c-.57.09-2.84-1.26-2.24-2,1-1.25-.24-3.29-1.81-2.35l-.86.5,2.26,1.3c-.06,0,0,0,.1,0,1.94,0,1.92-2.9,0-3-.57,0-2,0-2-.85.05-1.93-2.95-1.93-3,0Z"/><path class="cls-4" d="M25.2,6.74a2.44,2.44,0,0,0,.44-.19A1.69,1.69,0,0,0,26.22,6a1.82,1.82,0,0,0,.27-.91L24.23,6.35a.74.74,0,0,0,.22.1,1,1,0,0,0,.22.09l.4.06h0c.12,0,.64-.12.43-.06A1.85,1.85,0,0,0,26,6.36a1.64,1.64,0,0,0,.6-.6l.15-.36L26.78,5l-.05-.4a1.14,1.14,0,0,0-.27-.51.7.7,0,0,0-.27-.27.7.7,0,0,0-.33-.2.83.83,0,0,0-.38-.1,1.22,1.22,0,0,0-.6,0,2,2,0,0,0-.93.58,2.11,2.11,0,0,0-.33.44,2.55,2.55,0,0,0-.22.54,3.42,3.42,0,0,0,.09,1.71,3.79,3.79,0,0,0,.28.73,1.54,1.54,0,0,0,.21.31,1.76,1.76,0,0,0,.54.51,2,2,0,0,0,1,.3,3.07,3.07,0,0,0,.52-.06l.17,0a3.12,3.12,0,0,0,.49-.23A2.3,2.3,0,0,0,27.13,8a2,2,0,0,0,.46-.78l0-.08a3.7,3.7,0,0,0,.06-.48,1.06,1.06,0,0,0-.13-.58,1,1,0,0,0-.31-.48,1.08,1.08,0,0,0-.48-.31,1.06,1.06,0,0,0-.58-.13,1.5,1.5,0,0,0-1.06.44l-.23.3a1.48,1.48,0,0,0-.21.76v0l.05-.4,0,.11.15-.36a.54.54,0,0,1-.07.13L25,5.87l-.1.1.31-.23-.15.09.36-.16a.6.6,0,0,1-.19.06l.4-.06H25.5l.4.06-.12,0,.36.15L26,5.79l.3.23a.74.74,0,0,1-.13-.12l.24.3A1.13,1.13,0,0,1,26.33,6l.15.36a3.58,3.58,0,0,1-.2-.78l0,.4a2,2,0,0,1,0-.35l0,.4a.86.86,0,0,1,.06-.23l-.15.36a.77.77,0,0,1,.1-.18l-.23.3.1-.11-.3.24L26,6.32l-.36.15.06,0L24,4.25l0,0,.24-.3,0,0,.31-.24-.05,0,.36-.15h0l.39,0h-.07l.4,0h0l.35.15,0,0a1.5,1.5,0,0,0-.75-.2,1.54,1.54,0,0,0-.76.2,1.4,1.4,0,0,0-.54.54,1.54,1.54,0,0,0-.2.76v0l.06-.4,0,0,.15-.36a.2.2,0,0,1,0,.08l.23-.3s0,0,0,0l.3-.24-.05,0,.36-.15h0a1.57,1.57,0,0,0-.89.69,1.12,1.12,0,0,0-.18.56,1,1,0,0,0,0,.6,1.47,1.47,0,0,0,.69.89,1.45,1.45,0,0,0,1.15.15Z"/><path class="cls-3" d="M23.38,3.51a2,2,0,0,0-.1.35,6,6,0,0,0-.09.74,4.53,4.53,0,0,0,.08.74,2.37,2.37,0,0,0,.09.36,1.13,1.13,0,0,0,.26.51,1.13,1.13,0,0,0,.43.38,1.09,1.09,0,0,0,.55.18,1.12,1.12,0,0,0,.6,0l.36-.15a1.55,1.55,0,0,0,.54-.54l.15-.35a1.55,1.55,0,0,0,0-.8,2.62,2.62,0,0,1-.09-.38l.05.4a2.62,2.62,0,0,1,0-.56l-.05.4a2.12,2.12,0,0,1,.11-.45,1,1,0,0,0,0-.6,1.12,1.12,0,0,0-.18-.56,1.18,1.18,0,0,0-.38-.42,1.26,1.26,0,0,0-.51-.27l-.4,0a1.54,1.54,0,0,0-.76.2l-.3.24a1.39,1.39,0,0,0-.39.66Z"/><path class="cls-4" d="M25.22,6h-.08a1.27,1.27,0,0,0-.58.13,1.11,1.11,0,0,0-.48.31,1.23,1.23,0,0,0-.32.49,1.11,1.11,0,0,0-.12.57l.05.4a1.39,1.39,0,0,0,.39.66l.3.24a1.51,1.51,0,0,0,.76.2h.08a1.06,1.06,0,0,0,.58-.13,1.08,1.08,0,0,0,.48-.31,1,1,0,0,0,.31-.48,1.06,1.06,0,0,0,.13-.58l0-.4a1.49,1.49,0,0,0-.39-.66L26,6.21A1.48,1.48,0,0,0,25.22,6Z"/><path class="cls-3" d="M41.68,29.07a1.33,1.33,0,0,0-1.61.25,1.36,1.36,0,0,0,0,1.77,1.7,1.7,0,0,0,.55.45c.1.06.31.12.37.17s0,.12.05.16a1.61,1.61,0,0,1,0,.58,10.44,10.44,0,0,1-.69,2.44A13,13,0,0,0,39.83,38h2.25a2.27,2.27,0,0,1,.33-1.35c.13-.2.28-.39.41-.59a2.64,2.64,0,0,0,.2-.37l.11-.27q.16-.39-.21.18l-.87.11.1,0-.79-1.38s-.09.11-.17.2-.27.29-.39.44a2.49,2.49,0,0,0-.58,1.61A20.38,20.38,0,0,0,40.78,40a1.14,1.14,0,0,0,1.38.79A1.16,1.16,0,0,0,43,39.36q-.15-.72-.27-1.44a7.62,7.62,0,0,1-.21-1.34v-.12c.1-.14.24-.26.35-.39a3.51,3.51,0,0,0,.71-1.15,1.12,1.12,0,0,0-.79-1.38,1.36,1.36,0,0,0-1.55.69,10.44,10.44,0,0,1-.56,1,4.33,4.33,0,0,0-.8,2.72,1.13,1.13,0,0,0,2.25,0,10.72,10.72,0,0,1,.39-2.32c.21-.73.52-1.44.68-2.18a4.33,4.33,0,0,0-.06-2.42,2.43,2.43,0,0,0-.67-1,1.63,1.63,0,0,0-.44-.3l-.22-.1c-.23-.14-.18,0,.16.29v.6l0-.1-.29.49.07-.07-.5.29.09,0L40.46,31l.08,0a1.16,1.16,0,0,0,1.54-.41,1.13,1.13,0,0,0-.4-1.54Z"/><path class="cls-3" d="M42.84,40.81c.07,0,0,0-.09,0a.29.29,0,0,1-.22,0,.75.75,0,0,0,.88-.44.73.73,0,0,0-.31-.93l-1.5-.66A.75.75,0,0,0,40.69,40a3.06,3.06,0,0,0,1,.57l.1,0,0,0,.2.1.08,0c.1.06-.11-.1-.05,0l.06.06c-.08-.05-.1-.14,0,0s0-.14,0-.05,0-.15,0,0,0-.08,0,0l0,.15c-.05.21-.12.41-.19.62s-.07.21-.11.31l0,.09c0-.1,0,.06,0,.07-.1.21-.2.41-.31.61a.75.75,0,0,0,1.3.75,9.17,9.17,0,0,0,.64-1.43,2.57,2.57,0,0,0,.2-1.63,1.58,1.58,0,0,0-.9-.91,2.87,2.87,0,0,0-.37-.15L42,39.08c-.06,0-.15-.09,0,0L41.83,39l-.09,0,.07.06-.05-.06-.91,1.18,1.5.66.57-1.37a1.08,1.08,0,0,0-.84.12.75.75,0,1,0,.76,1.29Z"/><path d="M23.17,52.25C5.77,52.25,4.23,50,4.09,49.58l0-.09v-.08a12.56,12.56,0,0,0,.16-1.57c0-.29-.47-.85-.87-1.23a1.35,1.35,0,0,1-.92-.26c-.58-.38-1-1.57-1.86-3.73l-.08-.21c-.85-2.2-.4-4.31.59-4.84.31-.44,1.59-2.18,2.58-2.51.43-.15,1.7-.49,3.18-.89l3.55-1c-1.48-.88-3-1.78-3.12-1.92a5.6,5.6,0,0,1-.75-1.81c0-.09-.18-.7.56-1.63l.07-.07L8.7,26.65a2.24,2.24,0,0,1-.21-1.25,2.31,2.31,0,0,1,.4-1,1.82,1.82,0,0,1,.22-.23,26.27,26.27,0,0,1,4.94-2.28,10.72,10.72,0,0,1-1-3,.84.84,0,0,1,.54-.79l.28-.18c.47-.31.65-.54.65-.83a.69.69,0,0,1,.32-.72,4.66,4.66,0,0,0,.6-.52A5,5,0,0,1,17.8,15l.49-.11a2.8,2.8,0,0,1-.81-2,1.38,1.38,0,0,1,.72-1l.08-.06s0-.09,0-.14a3.47,3.47,0,0,1-.11-.73c0-.39.39-.63,2.09-1.3h0a3,3,0,0,1-.16-.81,1.92,1.92,0,0,1,.64-1,1.76,1.76,0,0,1-.15-.62c0-.39.44-.65,1.22-1.07L21.92,6a.53.53,0,0,1-.1-.31.89.89,0,0,1,.34-.61l.22-.22V4.69a.61.61,0,0,1,.48-.56l.09,0a1.29,1.29,0,0,1-.08-.38A.49.49,0,0,1,23,3.43,1.37,1.37,0,0,1,23,3.14V3.06c0-.25.19-.46.57-.62h0a.44.44,0,0,1-.15-.36.64.64,0,0,1,.18-.43l.1-.07.1-.05c0-.09-.08-.2-.12-.32L23.63,1,23.8.83A1.7,1.7,0,0,0,24,.55a.52.52,0,0,1,.29-.42.88.88,0,0,1,.85,0A.85.85,0,0,1,25.7.6a1.38,1.38,0,0,1,.1.24.64.64,0,0,1,.14.21h.17l.15.27a.89.89,0,0,1-.1.72,2.43,2.43,0,0,1,.29.26.53.53,0,0,1,.16.38,1,1,0,0,1-.29.6,1.68,1.68,0,0,1,1,1,.87.87,0,0,1-.49,1l.63.17a2.74,2.74,0,0,1,1.24.49.58.58,0,0,1,.16.48c-.06.59-1,1.34-1.37,1.62a1.77,1.77,0,0,1,.23.19,1.85,1.85,0,0,0,.47.16,7.5,7.5,0,0,1,2.24.92l.14.09,0,.16c.13.64-.38,1.39-.91,2.19a9.46,9.46,0,0,0-.59.94c1,.38,3.51,1.43,4.36,2.42l.07.08v.1c.13.79,0,.94-.72,1.71-.36.37-.88.91-1.64,1.79a72.22,72.22,0,0,1,7.91,3.6l.11.06,0,.12c.82,2.12-1.83,4.2-3.77,5.71l-.16.13,1.22.31c.53.12,5.21,1.2,6.08,2.25l.08.16c.17.81.49,2.11.49,2.11l0,.09a2.37,2.37,0,0,0,.46.33c1,.62,1.33,1.48,1.49,4.22a4.65,4.65,0,0,1-1,3.61,2,2,0,0,1-.7.49,9.16,9.16,0,0,1-.64,1.48,33.29,33.29,0,0,0,.2,6v.12l-.07.11C42.84,49.93,40.86,52.25,23.17,52.25ZM4.84,49.4c.28.28,2.62,2.1,18.33,2.1,15.49,0,18.62-1.77,19.13-2.17-.13-1.5-.44-5.57-.11-6.24a6,6,0,0,0,.62-1.46v-.38h.37a1,1,0,0,0,.49-.32,3.92,3.92,0,0,0,.77-3c-.16-2.76-.48-3.24-1.12-3.62s-.82-.6-.85-.88l0-.18h0c-.09-.36-.3-1.23-.43-1.86-.68-.64-3.77-1.52-5.62-1.94l-2.69-.68.57-.47.77-.61c1.71-1.34,4-3.16,3.57-4.73a80.53,80.53,0,0,0-8.16-3.66L30,19.07l.33-.4c1-1.14,1.59-1.8,2-2.23s.6-.62.55-1a15.59,15.59,0,0,0-4.35-2.26l-.34-.13.11-.34a6.81,6.81,0,0,1,.82-1.45,5,5,0,0,0,.8-1.49A6.61,6.61,0,0,0,28,9.07a1.59,1.59,0,0,1-.81-.35A1.14,1.14,0,0,0,27,8.54c-.16-.1-.39-.23-.4-.5A.74.74,0,0,1,27,7.48a4.5,4.5,0,0,0,1.17-1.1c-.19-.08-.57-.18-.82-.25-.72-.19-1.14-.31-1.3-.62s.2-.73.41-.87a1.22,1.22,0,0,0,.23-.19c-.09-.24-.37-.37-.64-.49l-.15-.08c-.26-.12-.44-.21-.48-.45A.52.52,0,0,1,25.6,3l.21-.24a.79.79,0,0,0-.14-.11.41.41,0,0,1-.44-.24c-.1-.24.05-.4.18-.53l-.07,0-.16-.11,0-.27a.61.61,0,0,1,0-.15.43.43,0,0,1-.1-.28s0,0,0-.05A.54.54,0,0,0,25,.82l-.09,0a.22.22,0,0,0-.13,0,1,1,0,0,1-.24.42l0,0h.17l.09.3c.07.29-.15.45-.5.63a.91.91,0,0,1,0,.76L24.17,3l-.15,0a1,1,0,0,0-.24.1v.15a.87.87,0,0,1,.06.16l0,.33-.15,0,.09.26c.08.33-.24.49-.4.57l-.27.12h0v.34l-.42.42A.42.42,0,0,1,23,6c0,.29-.24.42-.81.73a6.57,6.57,0,0,0-.82.49c0,.09.07.2.1.29s.17.44,0,.65l-.12.16h-.13a2,2,0,0,0-.39.51,4.39,4.39,0,0,0,.15.54h.12l.07.31c.06.32-.13.39-.68.61a11,11,0,0,0-1.6.72,3.73,3.73,0,0,0,.08.44,1.58,1.58,0,0,1,.07.42c0,.25-.18.39-.39.55s-.42.31-.42.43A2,2,0,0,0,19,14.5a.54.54,0,0,1,.31.55c-.07.4-.51.49-1.39.68a4.84,4.84,0,0,0-2,.67,4.91,4.91,0,0,1-.68.59h0a.4.4,0,0,0,0,.11,1.79,1.79,0,0,1-1,1.46l-.3.19a1.76,1.76,0,0,0-.2.13,8.74,8.74,0,0,0,1.12,3l-.35.66a22.49,22.49,0,0,0-5,2.24.59.59,0,0,0-.12.12,1.35,1.35,0,0,0-.24.63,1.52,1.52,0,0,0,.26,1l.21.3L7.66,28.33c-.46.6-.4.93-.4.94a5.5,5.5,0,0,0,.57,1.47c.17.14,2.35,1.45,3.68,2.23l.65.39-.71.28c-.48.19-2.47.73-4.4,1.26-1.4.37-2.72.73-3.13.87a7.56,7.56,0,0,0-2.26,2.31l-.07.09-.1,0c-.54.22-1.06,1.91-.28,3.93l.08.21a11.8,11.8,0,0,0,1.57,3.38.57.57,0,0,0,.46.13l.22-.11.18.17C3.93,46.1,5,47.05,5,47.84A11.29,11.29,0,0,1,4.84,49.4ZM21.16,8.33h0Z"/><ellipse class="cls-3" cx="31.33" cy="36.23" rx="3.35" ry="3.6"/><path d="M31.33,40.2a4,4,0,1,1,3.73-4A3.86,3.86,0,0,1,31.33,40.2Zm0-7.19a3.23,3.23,0,1,0,3,3.22A3.11,3.11,0,0,0,31.33,33Z"/><ellipse class="cls-3" cx="13.28" cy="38.11" rx="3.11" ry="3.19"/><path d="M13.28,41.67a3.56,3.56,0,1,1,3.48-3.56A3.52,3.52,0,0,1,13.28,41.67Zm0-6.37A2.81,2.81,0,1,0,16,38.11,2.77,2.77,0,0,0,13.28,35.3Z"/><path d="M43.26,41.18c-1,0-1.76-1.53-1.76-3.56s.76-3.56,1.76-3.56S45,35.59,45,37.62,44.27,41.18,43.26,41.18Zm0-6.37c-.41,0-1,1.09-1,2.81s.6,2.81,1,2.81,1-1.09,1-2.81S43.68,34.81,43.26,34.81Z"/><path d="M2.6,46c-.4,0-.76-.38-1.13-1.15a12.32,12.32,0,0,1-.8-2.58c-.08-.41-.77-4,.44-4.23.44-.09.85.28,1.25,1.14a11.56,11.56,0,0,1,.81,2.58c.08.41.77,4-.45,4.23ZM1.27,38.85a7.26,7.26,0,0,0,.14,3.29,7.21,7.21,0,0,0,1.15,3.08,7,7,0,0,0-.13-3.29A7,7,0,0,0,1.27,38.85Z"/><path d="M33.17,14.87a11.63,11.63,0,0,1-5.28.84,26.86,26.86,0,0,0-4.7.66,19.55,19.55,0,0,1-5.07-.06c-.59-.09-1.42-.47-2-.27s-.62.61-.78,1,.55.64.73.2c.3-.78,1.69-.23,2.27-.15a18.93,18.93,0,0,0,2.26.16,20.18,20.18,0,0,0,4.45-.44,10.63,10.63,0,0,1,2.37-.37c.73,0,1.45.09,2.18,0a11.7,11.7,0,0,0,3.95-1c.44-.19.06-.83-.38-.64Z"/><path d="M30.06,10.69c.72,0,.62-1-.13-1a8.29,8.29,0,0,0-1.6.45c-.6.16-1.2.31-1.81.44a14.92,14.92,0,0,1-7.39-.18.37.37,0,0,0-.2.72,14.13,14.13,0,0,0,5.56.53,21.17,21.17,0,0,0,2.74-.46c.47-.11.93-.23,1.4-.36l.69-.2c.14,0,.63-.1.55-.26l0-.29.23-.14c-.49,0-.48.73,0,.75Z"/><path class="cls-5" d="M14.85,24.91a.38.38,0,0,0,0-.75.38.38,0,0,0,0,.75Z"/><path d="M14.66,25c1.06.33,2.27-.21,3.37-.23a26.79,26.79,0,0,1,4.19.33c2.75.37,5.51.65,8.28.77a15.6,15.6,0,0,0,6.37-.73c.65-.25,3.24-1.48,1.87-2.43-.4-.28-.77.37-.38.64.12.09-1.31.91-1.44,1a8.2,8.2,0,0,1-1.29.45,13.21,13.21,0,0,1-2.87.38,46.11,46.11,0,0,1-5.63-.24c-2-.17-4-.45-6-.69A21.37,21.37,0,0,0,18,24c-.93,0-2.31.52-3.17.25-.47-.14-.66.58-.2.73Z"/><path d="M42.21,30.58a10.87,10.87,0,0,1-6.25.66,27.21,27.21,0,0,0-5-.68c-1.82,0-3.41,1-5.21,1.14A28.94,28.94,0,0,1,20,31.35c-.48-.05-.48.71,0,.75a26.51,26.51,0,0,0,6.16.3c1.92-.26,3.57-1.19,5.56-1.07s3.78.71,5.7.84a11,11,0,0,0,5.15-.94c.44-.19.06-.84-.38-.65Z"/><path d="M24.22,16.38a1.79,1.79,0,0,0-.34,2c.14.39.36.76.49,1.15a2.11,2.11,0,0,1,0,1.29.37.37,0,0,0,.72.2,2.78,2.78,0,0,0,.09-1.28,4.49,4.49,0,0,0-.42-1.18c-.23-.49-.55-1.26,0-1.68a.37.37,0,0,0-.53-.53Z"/><path d="M30.39,18.53a1.91,1.91,0,0,0-1.48.81,6.85,6.85,0,0,1-.51.77,2.72,2.72,0,0,1-.69.52,6.47,6.47,0,0,1-4,.32c-.48-.06-.47.69,0,.75a7.62,7.62,0,0,0,4-.24,3.43,3.43,0,0,0,1.34-1c.4-.49.59-1.16,1.33-1.2.48,0,.48-.78,0-.75Z"/><path d="M29.12,16a1.57,1.57,0,0,0-.69,1.08,1.64,1.64,0,0,0,.33,1.32.38.38,0,0,0,.53,0,.39.39,0,0,0,0-.53c.07.09,0,0,0,0l-.05-.1c0-.07,0,.08,0,0s0,0,0-.06l0-.11a.09.09,0,0,1,0-.05s0-.09,0,0,0,0,0,0v-.23c0-.08,0,.09,0,0a2,2,0,0,1,.06-.23s0,0,0-.05,0,.07,0,0l.06-.11.06-.09c0-.07-.06.06,0,0s0,0,0,0l.08-.08.05,0,0,0,0,0a.39.39,0,0,0,.13-.52.37.37,0,0,0-.51-.13Z"/><path d="M27.53,10.53A1.53,1.53,0,0,0,26.94,12a5,5,0,0,1,0,.78v.12a1.16,1.16,0,0,1,0,.18c0,.08,0,0,0,0s-.05.08,0,.05,0,0,0,0l-.08.07a.38.38,0,0,0,0,.53.39.39,0,0,0,.53,0,1.69,1.69,0,0,0,.42-1.56c0-.12,0-.24,0-.36a1.21,1.21,0,0,1,0-.19s0-.06,0-.09,0-.11,0-.06,0-.06,0-.06,0-.06,0-.08l0-.09c0-.06,0,0,0,0a.43.43,0,0,0,0-.07c0-.06,0,0,0,0l.06-.06c-.05,0,0,0,0,0a.38.38,0,0,0-.38-.65Z"/><path d="M31.51,25.56c0-.09.09-.13,0-.08a1.06,1.06,0,0,0-.12.1,1,1,0,0,0-.17.19,1.3,1.3,0,0,0-.24.52,2.65,2.65,0,0,0,0,1.22,3.77,3.77,0,0,0,.52,1.2c.17.27.51.65.47,1a.37.37,0,0,0,.72.2c.13-.95-.7-1.59-.95-2.45a1.8,1.8,0,0,1,0-1.1A1.06,1.06,0,0,1,32,26a.59.59,0,0,0,.19-.63.39.39,0,0,0-.46-.27.38.38,0,0,0-.26.47Z"/><path d="M14.39,22.3a4.32,4.32,0,0,0,2.36-.61,6.32,6.32,0,0,1,2.47-.44.38.38,0,0,0,0-.75,6.94,6.94,0,0,0-2.43.38c-.38.13-.73.31-1.1.47a2,2,0,0,1-1.1.23.39.39,0,0,0-.47.26.37.37,0,0,0,.27.46Z"/><path d="M26.43,25.2a4.43,4.43,0,0,0,0,1.31,1.74,1.74,0,0,0,.2.58c.11.19.27.34.37.54a2.32,2.32,0,0,1,.13,1.14c0,.27,0,.67-.28.84s0,.91.38.65c.72-.47.72-1.55.63-2.32a2.17,2.17,0,0,0-.19-.66c-.11-.2-.28-.37-.39-.57a2.09,2.09,0,0,1-.08-1.31.38.38,0,0,0-.73-.2Z"/><path d="M9,25.11a12.13,12.13,0,0,0,2.33.17L11,24.81a5,5,0,0,0-.16,1.44,7.06,7.06,0,0,0,.34,1.46,2.92,2.92,0,0,1,.08,2.48c-.25.41.4.78.65.37A3.11,3.11,0,0,0,12.07,28c-.14-.48-.32-1-.42-1.45A3.53,3.53,0,0,1,11.74,25a.39.39,0,0,0-.37-.48,10.19,10.19,0,0,1-2.13-.15c-.47-.08-.68.64-.2.73Z"/><path d="M11,33.69a3.4,3.4,0,0,0,1.31.06c.46-.09.74-.43,1.13-.65.7-.4,1.54-.46,2.23-.89.41-.25,0-.9-.38-.65a18.09,18.09,0,0,1-2.05.79,3,3,0,0,0-.44.28,3.21,3.21,0,0,1-.48.34,2,2,0,0,1-1.12,0,.37.37,0,1,0-.2.72Z"/><path d="M21,24.23a1,1,0,0,0-.49,1c0,.44.29.83.31,1.28a2,2,0,0,1-.29,1.12,2.69,2.69,0,0,0-.44,1.18c0,.49.72.48.75,0a2.31,2.31,0,0,1,.41-.92,3,3,0,0,0,.32-1.1,2.68,2.68,0,0,0-.16-1.12c-.07-.19-.31-.64,0-.78.43-.21.05-.86-.38-.65Z"/><path d="M26.68,7.78A5.75,5.75,0,0,1,24.49,8a.38.38,0,0,0-.38.38.38.38,0,0,0,.38.37,6.43,6.43,0,0,0,2.39-.2A.37.37,0,0,0,27.14,8a.38.38,0,0,0-.46-.26Z"/><path d="M26.63,5.24A.81.81,0,0,0,26,5.07a1.37,1.37,0,0,0-.5.21l-.11,0s0,0,0,0l-.06,0-.24.07h-.38a.39.39,0,0,0-.46.26.38.38,0,0,0,.26.46,2,2,0,0,0,1.08-.07c.16-.07.31-.15.46-.23s0,0,0,0l.06,0h.06s0,0,0,0,0,0,0,0a.37.37,0,1,0,.53-.53Z"/><path d="M25.08,8.47v-.1l0-.09A.75.75,0,0,1,25,8.4a.54.54,0,0,0-.1.2.73.73,0,0,0,.06.54,1.23,1.23,0,0,0,.24.31,1.73,1.73,0,0,1,.24.23l-.06-.08,0,0a.41.41,0,0,0,.23.18.39.39,0,0,0,.28,0,.37.37,0,0,0,.14-.51A1.25,1.25,0,0,0,25.85,9c-.07-.07-.15-.13-.21-.2l.06.07a1.27,1.27,0,0,1-.07-.12l0,.09a.2.2,0,0,1,0-.11v.12s0,0,0-.06l0,.09a.67.67,0,0,1,.11-.18.77.77,0,0,0,.07-.16.5.5,0,0,0,0-.27A.38.38,0,0,0,25.34,8a.36.36,0,0,0-.22.18.39.39,0,0,0,0,.28Z"/><path d="M25,5.65a2.13,2.13,0,0,0-.13.83,1.15,1.15,0,0,0,.35.75.44.44,0,0,0,.27.11.41.41,0,0,0,.26-.11.37.37,0,0,0,0-.53l-.1-.11.06.08a.64.64,0,0,1-.08-.14l0,.09a.86.86,0,0,1-.06-.23v.1a1,1,0,0,1,0-.29l0,.1c0-.15.07-.3.11-.45a.37.37,0,0,0-.26-.46.38.38,0,0,0-.46.26Z"/></g></g></svg>