<svg xmlns="http://www.w3.org/2000/svg" viewBox="0 0 68.03 46.12"><defs><style>.cls-1{fill:#adacac;}.cls-2{fill:#fefefe;}.cls-3{fill:#fdfdfd;}.cls-4{fill:#fbfbfb;}.cls-5{fill:#fcfcfc;}.cls-6{fill:#f9f9f9;}.cls-7{fill:#f7f7f7;}</style></defs><g id="Layer_2" data-name="Layer 2"><g id="Layer_1-2" data-name="Layer 1"><path d="M0,19.09a3.37,3.37,0,0,0,.3-.36,1.52,1.52,0,0,1,1.18-.84,6.62,6.62,0,0,0,2.14-1c.19-.13.3-.39.47-.55.64-.6,1.32-1.17,1.9-1.78A10.82,10.82,0,0,1,9.1,12.18c.71-.36,1.35-.82,2.07-1.17a10.07,10.07,0,0,1,1.91-.74c1.28-.34,2.55-.66,3.86-.89,1.1-.2,2.24-.25,3.35-.38.65-.07,1.28-.19,1.92-.26s1.18-.1,1.83-.13h1.33a6.37,6.37,0,0,0-.12-1.44A3.49,3.49,0,0,1,25.45,5c.31-.88.63-1.75.93-2.63.21-.6.37-1.17.57-1.82a.93.93,0,0,1,1-.57c.32,0,.5.21.61.66a1.13,1.13,0,0,1,0,.26c0,.74,0,1.48.07,2.21,0,.49.2,1,.24,1.45a3.27,3.27,0,0,1-.08,1.08c-.14.54-.36,1-.54,1.57a.53.53,0,0,0,0,.52c.13.2.18.44.31.66a.57.57,0,0,0,.34.22c1.34.07,2.68.09,4,.19,1.17.08,2.23.24,3.33.37l1.59.21a.87.87,0,0,1,.77.85v3.91a.24.24,0,0,1,0,.12l.38.33a5,5,0,0,0,0-.95,2.75,2.75,0,0,1,.51-1.86c.46-.71,1-1.38,1.49-2.05.19-.22.46-.11.68,0A3,3,0,0,1,43.24,11a2.18,2.18,0,0,1,.16.68c.45-.41.93-.83,1.4-1.27s.47-.3.84,0,.63.4.92.62.46.38.73.61a3,3,0,0,0,.62-.44,1.56,1.56,0,0,1,1.44-.48,3.59,3.59,0,0,1,.86.2c.75.22,1.49.48,2.24.72,1.08.34,2.19.62,3.24,1.06A11,11,0,0,1,57.93,14a26,26,0,0,1,2,1.73,14.59,14.59,0,0,0,1.17,1A7.84,7.84,0,0,1,63,19.28c.59.92,1.24,1.79,1.86,2.71.18.25.31.55.47.82s.53.9.81,1.33a13.33,13.33,0,0,1,1.57,3.59A14.31,14.31,0,0,1,68,30.08a10.46,10.46,0,0,1,0,1.77,14,14,0,0,1-.22,1.71,15.28,15.28,0,0,1-.31,1.64,17.56,17.56,0,0,1-1,3.62,26.16,26.16,0,0,1-1.37,2.41c-.67,1-1.38,2-2.11,3a16.14,16.14,0,0,1-1.17,1.17c-.24.25-.5.47-.75.7h-.86l-1.36-.42c-.43-.15-.94-.16-1.24-.6a1.06,1.06,0,0,1-.09-1c.3-.38.54-.41,1-.2a6.2,6.2,0,0,0,.87.24l.53.17.45.19c.13-1.67.27-3.31.4-5V36.87a2,2,0,0,0-.62-1.49,15.59,15.59,0,0,1-1-1.41c-.59-.83-1.17-1.69-1.79-2.51s-1.08-1.29-1.61-1.94c-.34-.44-.64-.91-1-1.38a16.27,16.27,0,0,1-.58,1.67,6,6,0,0,1-.65,1.08c-.33.44-.87.72-1,1.32a.26.26,0,0,1-.13.19,4,4,0,0,0-1.1,1.17,5.34,5.34,0,0,1-1,.94c-.67.53-1.37,1-2.06,1.51a2.46,2.46,0,0,1-.66.06.4.4,0,0,1-.34-.45h0c.07-1.38.14-2.74.2-4.11s.07-2.67.09-4c0-.62.11-.74.67-.95a6.24,6.24,0,0,1,2.35-.34c.22,0,.37,0,.46-.27a21.44,21.44,0,0,0,.88-2c.09-.24-.11-.62-.25-.89s-.21-.3-.1-.5c.31-.55.6-1.11.92-1.63.41-.72.87-1.4,1.26-2.13a4.66,4.66,0,0,0,.36-1s0-.14-.11-.17l-2.16-1.72h-.13c-.11.48-.21,1-.35,1.46q-.4,1.42-.84,2.82a1,1,0,0,1-.25.39.34.34,0,0,1-.46.09l0,0a.36.36,0,0,1-.08-.48,14.51,14.51,0,0,0,1-3.41,7.4,7.4,0,0,1,.29-.91c0-.17.08-.27-.12-.36-.47-.21-.93-.46-1.4-.67a6.51,6.51,0,0,0-.88-.3c-.1.54-.18,1-.27,1.52s-.23,1.34-.36,2a.48.48,0,0,1-.52.44h0a.57.57,0,0,1-.28-.69c.25-1.18.47-2.35.7-3.46a.33.33,0,0,0,0-.14L46,14c-.07.72-.13,1.43-.2,2.14a4.59,4.59,0,0,1-.16.9c0,.14-.27.35-.36.33s-.29-.23-.39-.38a.36.36,0,0,1,0-.25,14.52,14.52,0,0,0,.32-3,.87.87,0,0,1,.51-.9,3.08,3.08,0,0,0,.69-.61c.12-.12,0-.49-.11-.59l-1-.62A8,8,0,0,0,43,13.39a.49.49,0,0,0-.08.23A22.68,22.68,0,0,1,42.81,16a1.82,1.82,0,0,1-.07.61c-.06.14-.26.33-.38.32a.5.5,0,0,1-.32-.37,20.78,20.78,0,0,1,.09-2.34.49.49,0,0,0,0-.17,2.27,2.27,0,0,1,.8-1.95.56.56,0,0,1-.4-.66c0-.4-.31-.59-.56-.79a4.7,4.7,0,0,0-.65-.37c-.12.16-.23.35-.36.5a6.22,6.22,0,0,0-1.23,1.89.71.71,0,0,0,0,.29v2.18a.75.75,0,0,0,.14.41c.22.38.45.73.7,1.08a8.17,8.17,0,0,0,.94,1.17,2.12,2.12,0,0,1,.63,1.54c0,.44,0,.89,0,1.33a2.24,2.24,0,0,1-.34.9c-.39.62-.82,1.17-1.25,1.81s-1.18,1.53-1.74,2.34c-.4.52-.75,1.08-1.17,1.57a4.2,4.2,0,0,1-1.84,1.18c-1.07.4-2.17.75-3.24,1.17-.55.21-1.07.5-1.61.74-.24.1-.55.08-.78.2a22.09,22.09,0,0,0-2.69,1.17,3.51,3.51,0,0,1-1.06.26,5.57,5.57,0,0,0-.77.3c-.15.07-.28.25-.43.28a7,7,0,0,1-1.35.25c-1.59.07-3.17.11-4.75.14a23.39,23.39,0,0,0-3.24.1,45.85,45.85,0,0,1-4.69.18,1.29,1.29,0,0,0-.81.24c-.29.23-.88,0-1.17-.21a5.94,5.94,0,0,0-1.29-.89c-1-.5-2-.93-3.09-1.37-.6-.25-1.17-.45-1.83-.69-.36-.15-.71-.33-1.06-.49-.2-.08-.39-.15-.59-.21A.57.57,0,0,1,.87,29c-.11-1-.25-2.18-.34-3.27V22.44a3.38,3.38,0,0,0-.19-1.37A7.65,7.65,0,0,1,.07,19.9,1.42,1.42,0,0,0,0,19.68Zm6.79-4.27.13-.06a.86.86,0,0,1,.32,0,14.86,14.86,0,0,0,1.4.53c1.08.28,2.19.54,3.28.78.56.13,1.17.22,1.7.33l.08-.08c-.08-.13-.13-.33-.24-.37a11.92,11.92,0,0,0-1.38-.59c-1.17-.39-2.35-.74-3.44-1.17a1.6,1.6,0,0,0-1.77.43l-.13.07h0ZM55.49,25l-.07.07a8.21,8.21,0,0,0-.27,1,.67.67,0,0,0,.15.59c.63.78,1.24,1.59,1.85,2.34s1,1.24,1.43,1.88a4.2,4.2,0,0,0,.53.58,5.61,5.61,0,0,1,1.37,1.62,10.47,10.47,0,0,0,1.18,1.54c.11.16.24.33.35.5a1.21,1.21,0,0,1,.23.47v2.61c0,1.17-.12,2.26-.18,3.39,0,.5-.09,1-.12,1.5a8.43,8.43,0,0,1-.09,1.17H62l.19-.27c.49-.68,1-1.33,1.47-2,.64-1,1.24-2,1.84-2.95a2.62,2.62,0,0,0,.47-1.55,18.08,18.08,0,0,0-.86-3.84,12.52,12.52,0,0,1-.71-3.15A11.7,11.7,0,0,0,64.16,29a1.79,1.79,0,0,0-.83-1.42c-.68-.41-1.34-.86-2-1.28s-1.17-.58-1.71-.87c-.34-.18-.67-.37-1-.52-.82-.36-1.64-.69-2.46-1-.11-.19-.19-.09-.22,0-.13.38-.24.78-.34,1.17Zm.2-2.71L53.34,24a2.94,2.94,0,0,0,2.35-1.68v0Zm-1.77.35A7.76,7.76,0,0,0,56,20.91l-.43-.81c-.28.36-.56.65-.78,1s-.64,1-1,1.53v.08ZM48.09,12l-1.18.86-.46.45h.46l1.47.23,1.23-.63.75-.4,1-.48-.56-.14-1.8-.5a.23.23,0,0,0-.2,0C48.57,11.61,48.36,11.81,48.09,12Zm10.55,6.36-2.92-.2c.09.19.13.31.19.42a.83.83,0,0,0,.74.58,6.74,6.74,0,0,1,1,.17l1.54.38L63,20.5l-1-1.7c0-.07-.14-.17-.21-.17-.43-.07-.85-.1-1.27-.14ZM26.1,8.23a1.75,1.75,0,0,0,.41,1.42l.2-.45c.23-.62.51-1.17.7-1.86.3-1,.93-1.88.6-3-.06-.23-.1-.46-.14-.69L27.75.83h-.11c-.07.18-.16.36-.22.56-.19.59-.33,1.17-.53,1.78s-.5,1.38-.75,2.06a3.11,3.11,0,0,0-.24,1.51C26,7.23,26,7.72,26.1,8.23Zm33.43,13.3.71.26a2.32,2.32,0,0,1,.61.21,8.65,8.65,0,0,0,2.29,1.05c.22.08.44.17.65.27l1,.55h.08a1,1,0,0,0-.09-.41,19.63,19.63,0,0,0-1.17-1.85.58.58,0,0,0-.28-.21c-.53-.13-1.06-.24-1.6-.34l-2.4-.47-3-.69a1.92,1.92,0,0,0,.28.68.72.72,0,0,0,.37.27c.38.12.79.19,1.17.3S59.1,21.39,59.53,21.53ZM27.35,16.84l.19.62c.32-.1.64-.2,1-.28a.27.27,0,0,0,.24-.3v0c-.06-.33-.1-.66-.17-1A1.52,1.52,0,0,1,28.7,15a1.6,1.6,0,0,0,.15-.75,2.4,2.4,0,0,0-.19-.79,5.35,5.35,0,0,1-.26-2V10.14a3,3,0,0,0-.19-.58l-.42-1.05h-.08a5.16,5.16,0,0,1-1,2.12v.1a5.17,5.17,0,0,0,.17,1.17,3.56,3.56,0,0,1-.1,2.91.81.81,0,0,0,0,.8c.22.43.39.83.59,1.21Zm4.89-6.15.66-1.08-3.79-.27.06,1.48a5.07,5.07,0,0,0,.15,2.29c.07.21.12.37.38.34a3,3,0,0,1,1.71.37c.16.07.33.12.5.18Zm.85,0a.67.67,0,0,0-.07.18,13.25,13.25,0,0,0-.24,3.33c0,.07.17.19.26.19H34.9c.33,0,.4-.12.4-.43a3.85,3.85,0,0,1,.46-2.57l1-1.4h-.61L34,9.69a.36.36,0,0,0-.25,0c-.23.37-.45.67-.67,1ZM59.53,22.42c-.77-.28-1.53-.59-2.34-.84a.49.49,0,0,0-.45.12c-.21.44-.36.9-.52,1.32l3.27,1.51.8.46c1,.58,2.06,1.17,3.08,1.77a8,8,0,0,1,.75.55c.2-.82.4-1.63.59-2.45a.3.3,0,0,0-.08-.21l-1.86-.89c-.68-.31-1.35-.62-2-.91a8.83,8.83,0,0,0-1.2-.45Zm-1.78-4.91,3.31.31a2.42,2.42,0,0,0-.5-.51l-1-1L59.18,16c-.47-.41-.9-.87-1.4-1.23s-1.18-.71-1.8-1.09a10.22,10.22,0,0,0-2.29-.81l-1-.32c-.14,0-.32-.13-.44-.08-.28.14-.56.29-.83.46l-2.17.95,1.44.69a10.23,10.23,0,0,1,1.45.71c.8.53,1.58,1.17,2.34,1.75a1.64,1.64,0,0,0,1.17.43c.64,0,1.38,0,2.09,0ZM10.84,31.29l.09,1.3c1.64-.11,3.29,0,4.92-.2a28.07,28.07,0,0,1,3.43-.09l4.78-.13a5.28,5.28,0,0,0,.68-.09A58.85,58.85,0,0,1,23,23.87c-1.81.06-3.61.48-5.44.38q-.35,0-.69.06h-6Zm25.68-3.85a19.46,19.46,0,0,1-2.79-6.58l-2.17.69c-.27.08-.55.13-.82.21a4.91,4.91,0,0,1-.86.32,8.94,8.94,0,0,0-2.15.55,1.13,1.13,0,0,1-.26,0,4.17,4.17,0,0,0-1,.2c-.34.09-.88.31-1.35.48a59.3,59.3,0,0,0,1.89,8,4,4,0,0,1,.65-.41c.71-.29,1.41-.57,2.11-.83s1.18-.38,1.76-.6c.32-.12.61-.31.93-.43l3.33-1.17c.27-.13.53-.28.79-.43ZM9.17,32.35c0-.49-.07-.93-.07-1.38V24.39c0-.38-.09-.46-.46-.55-.57-.14-1.17-.32-1.7-.47L5,22.84c-.27-.07-.55-.07-.81-.13-.63-.16-1.24-.36-1.87-.5a9.55,9.55,0,0,0-1.06-.12v3.8a25.57,25.57,0,0,0,.26,2.75.48.48,0,0,0,.17.37,15.65,15.65,0,0,0,1.44.67c.57.23,1.17.42,1.74.66s.88.4,1.33.57a11,11,0,0,1,2.71,1.34A.52.52,0,0,0,9.17,32.35Zm4.9-14.15c-.16-.3-.3-.59-.46-.87a.44.44,0,0,0-.22-.16c-1.17-.25-2.34-.46-3.51-.76a1.29,1.29,0,0,0-1.07.3l-1.5,1c-.24.15-.52.25-.74.41a12.52,12.52,0,0,1-1,.78,22.1,22.1,0,0,1-2,1,5.81,5.81,0,0,0-1.88,1.42l.42.1,1.7.33c.38.07.74.19,1.18.27s.62.13.92.22c.71.21,1.38.51,2.09.68a4.8,4.8,0,0,1,1.76.65.57.57,0,0,0,.59,0c.37-.42.68-.9,1-1.36s.71-.94,1.07-1.4.72-.85,1-1.32A13,13,0,0,0,14.07,18.2Zm-2.89,5.39h.94l6.54-.08a7.43,7.43,0,0,0,1.41-.09l2.67-.3a3.52,3.52,0,0,0,.65-.1.21.21,0,0,0,.19-.23.16.16,0,0,0,0-.09c-.09-.34-.16-.68-.23-1-.14-.74-.27-1.48-.43-2.23,0-.25-.15-.36-.45-.37-.74,0-1.48-.12-2.22-.19s-1.55-.21-2.35-.25-1.58,0-2.34,0a1.24,1.24,0,0,1-.47,0c-.28-.1-.39,0-.48.22a3.57,3.57,0,0,1-.34.71c-.72,1-1.47,1.93-2.19,2.91ZM34.1,19.9a2,2,0,0,0-.3-.21l-3-1.45-1-.52c-.09,0-.23-.11-.32-.07a15.84,15.84,0,0,1-2.63.58c-.77.14-1.52.3-2.27.47a8.31,8.31,0,0,0-1,.32l.7,3.61a7.88,7.88,0,0,0,.87-.19l2-.58a5.41,5.41,0,0,0,.58-.07,7.27,7.27,0,0,1,1.83-.48,9.45,9.45,0,0,0,1.26-.45c.78-.25,1.58-.46,2.35-.69Zm1.53-.2c.21.48.4.93.6,1.36a5.82,5.82,0,0,1,.42,1,8.86,8.86,0,0,0,.88,2.5c.2.34.37.69.59,1.09l.1-.18,1.55-2c.44-.59.89-1.18,1.28-1.8s.36-.65-.12-1.23a5.91,5.91,0,0,1-1.32-2.13c-.14-.47-.32-.92-.51-1.44a11.81,11.81,0,0,1-3.47,2.93Zm-.8-.31c.26-.16.56-.37.86-.55a7.5,7.5,0,0,0,2.67-2.64c.26-.4.1-.68,0-1A.23.23,0,0,0,38.2,15a2.56,2.56,0,0,0-.62-.07l-4.33.27a.52.52,0,0,0-.27.15c-.46.39-.9.78-1.37,1.17s-.69.54-1.06.82ZM18.41,17.82v.1a6.51,6.51,0,0,1,1.18.07c.36.07,1.1.14,1.66.18s1.18,0,1.77.1A4,4,0,0,0,24.34,18c.64-.2,1.32-.29,2-.43l.52-.09a10.46,10.46,0,0,0-.71-1.37A1.33,1.33,0,0,1,26,14.57v-.08H26c-1.1.35-2.19.74-3.29,1.07a10.2,10.2,0,0,0-3.34,1.64,5.48,5.48,0,0,1-1,.67Zm29.91,9.69v3.28c0,.6-.1,1.18-.14,1.81,0,.87-.07,1.72-.1,2.59h.07c.86-.67,1.76-1.31,2.59-2a.9.9,0,0,0,.37-.92C51,31.93,51,31.6,51,31.3c-.15-.65-.34-1.29-.48-1.95s-.19-1.08-.29-1.61a.28.28,0,0,0-.18-.22c-.59,0-1.11,0-1.72,0Zm18.24,8.33V35.7l.53-2.5a3.53,3.53,0,0,0,.13-.54,5.29,5.29,0,0,0-.54-2.21c-.38-1-.82-1.88-1.23-2.82-.13-.31-.22-.62-.29-.84L64.72,28a.37.37,0,0,0,0,.29,8.88,8.88,0,0,1,.46,2.8,5.37,5.37,0,0,0,.22,1.26c.34,1.15.73,2.34,1.11,3.56ZM1.07,20.79l.27-.22A7.76,7.76,0,0,1,4,18.84a11.46,11.46,0,0,0,1.7-1c.36-.22.7-.47,1.05-.69l1.64-1.05V16L7.2,15.61l-2,1.17c-.34.19-.69.37-1,.57a8.82,8.82,0,0,1-2.74,1.33,1,1,0,0,0-.66,1C.87,20,1,20.38,1.07,20.79Zm25.32-7.14a7.22,7.22,0,0,0-.14-1,5.34,5.34,0,0,1-.36-2.1h0l-2.75.4c.06.32.13.65.18,1,.11.74.22,1.46.34,2.2,0,.25.13.31.37.23Zm-5.55,1.8L23,14.69,22.38,11c-.81.14-1.61.13-2.15.73Zm-6.05-1.3L12,12.86c-.28-.12-.57-.23-.86-.33a2.11,2.11,0,0,0-.82-.17,2.63,2.63,0,0,0-.75.42l-1.17.63,5.47,1.8ZM18.31,17a3.92,3.92,0,0,0,.42-.24c.35-.23.68-.52,1.06-.72a.45.45,0,0,0,.27-.57v0c-.12-.68-.12-1.41-.29-2.06-.07-.45-.19-.88-.31-1.36l-1.87.91Zm-1.64-4.38-.89-.44c-.6-.28-1.24-.52-1.82-.82-.4-.21-.74-.44-1.18-.21s-1,.37-1.47.56a5.16,5.16,0,0,0,.78.39,13.59,13.59,0,0,1,1.43.54c.46.21,1.18.62,1.73.95a.3.3,0,0,0,.4,0Zm-.47,5.25a1.81,1.81,0,0,0,1.39-.31.32.32,0,0,0,.13-.28,4.15,4.15,0,0,0-.15-.7,11.68,11.68,0,0,1-.22-1.18,5.29,5.29,0,0,0-.45-2c-.43.4-.84.77-1.25,1.17a.19.19,0,0,0,0,.18Zm21.68-3.62V10.32c0-.19-.1-.25-.23-.12s-.43.51-.65.78a2.63,2.63,0,0,1-.3.44c-.85.81-.67,1.83-.65,2.82ZM25.38,31.63l.77-.27a77.28,77.28,0,0,1-1.8-7.8.59.59,0,0,0-.57.6.41.41,0,0,0,0,.16c.27,1.37.52,2.74.8,4.12C24.84,29.49,25.12,30.54,25.38,31.63Zm12.23-5.47a10.59,10.59,0,0,1-1.25-2.63A16.82,16.82,0,0,0,35,20.27l-.13.09c-.36.11-.4.35-.27.68s.27,1,.46,1.49c.34.9.68,1.81,1.09,2.69a3.5,3.5,0,0,0,1.07,1.55ZM17.23,12.3l2.35-1.18-.72-.3a3.44,3.44,0,0,0-3-.41h-.13l-1.37.34c.64.27,1.24.47,1.79.75S17.11,11.69,17.23,12.3Zm12.54,1.89c-.12.37-.21.69-.31,1a1.07,1.07,0,0,0-.11.46,11.08,11.08,0,0,0,.22,1.26,10.54,10.54,0,0,0,2.81-2C31.41,14.76,30.67,14,29.77,14.19Zm25.07,4a7,7,0,0,1-.36.85c-.63,1.11-1.29,2.22-1.95,3.34a.42.42,0,0,0,.06.58h0c1.09-1.09,1.52-2.68,2.78-3.64ZM52.5,31l.7-.75a.47.47,0,0,0,.12-.32c-.2-.74-.42-1.47-.63-2.2-.1-.32-.32-.38-.61-.32l-.27.08Zm-.57-4.78c.79-.08,1.56-.14,2.35-.23.07,0,.15-.13.19-.22.14-.39.27-.79.4-1.18V24.4c-.52.15-1,.31-1.52.44a1.61,1.61,0,0,0-1.45,1.34Zm13.6-1.59a3.08,3.08,0,0,0-.08.53,1.51,1.51,0,0,0,.07.56c.15.43.34.86.5,1.28.34.88.67,1.76,1,2.65h.12A9.38,9.38,0,0,0,65.53,24.59ZM25.65,9.76c0-.29-.15-.38-.4-.37H22.38v.1c.22.2.23.63.68.58a5.71,5.71,0,0,1,.93,0c.55-.07,1.12-.19,1.67-.28ZM15.48,17.87l-.63-2.66c-.42.5-.45.55-.48,1.42a1.51,1.51,0,0,0,0,.52A1,1,0,0,0,15.48,17.87Zm6.44-7.64a2.5,2.5,0,0,0-.21-.35.58.58,0,0,0-.33-.19c-.66,0-1.3.07-2,.12h-.6v.08l1.55.7ZM9.91,32.8H10c0-.08.13-.16.13-.24,0-.52-.1-1.05-.1-1.58V25.74A5.61,5.61,0,0,0,10,24.57H9.91ZM40.29,17.7a3.68,3.68,0,0,0,1.07,2c.23-1-.64-1.35-1.07-2Zm13.94,9.39-1,.08.49,1.33h.07Zm-2.78,3.68h.16a8.67,8.67,0,0,0-.73-3.33Z"/><path class="cls-1" d="M48.28,36c.69-.5,1.39-1,2.06-1.51a5.34,5.34,0,0,0,1-.94,4.53,4.53,0,0,1,1.1-1.17.26.26,0,0,0,.13-.19c.11-.6.65-.88,1-1.32a6,6,0,0,0,.65-1.08c.23-.54.39-1.1.58-1.67.34.47.64.94,1,1.38.53.65,1.09,1.27,1.61,1.94S58.5,33.14,59.12,34a15.71,15.71,0,0,0,1,1.37,2,2,0,0,1,.63,1.49v2.69l-2.13-.6c-1.17-.37-2.34-.76-3.52-1.11a8.93,8.93,0,0,0-1.17-.2l-.51-.12c-.66-.14-1.32-.29-2-.42s-1.33-.21-2-.34A1.87,1.87,0,0,1,48.28,36Z"/><path class="cls-1" d="M17.59,24.25c1.83.1,3.63-.32,5.45-.38a57.43,57.43,0,0,0,1.77,8.21c-.23,0-.45.07-.68.09l-4.78.13a28.07,28.07,0,0,0-3.43.09c-1.63.25-3.28.09-4.92.2l-.09-1.3.9-.54a15.93,15.93,0,0,0,1.43-.86c.75-.59,1.49-1.17,2.19-1.83a4.3,4.3,0,0,0,1.24-1.84A5.92,5.92,0,0,1,17.59,24.25Z"/><path class="cls-1" d="M36.55,27.42c-.27.15-.54.28-.81.41L32.41,29c-.32.12-.61.3-.93.42-.57.22-1.17.4-1.76.61s-1.41.54-2.11.82a5.59,5.59,0,0,0-.66.41,59.89,59.89,0,0,1-1.84-8c.47-.17.9-.35,1.35-.48a7.64,7.64,0,0,1,1-.2,1.13,1.13,0,0,0,.26,0,8.9,8.9,0,0,1,2.16-.55,5.12,5.12,0,0,0,.85-.32c.27-.08.56-.13.83-.21l2.17-.69A19.25,19.25,0,0,0,36.55,27.42Z"/><path class="cls-2" d="M9.17,32.35a.69.69,0,0,1-.19-.1,10.87,10.87,0,0,0-2.71-1.34c-.44-.17-.87-.4-1.32-.57s-1.17-.43-1.75-.66A15.47,15.47,0,0,1,1.77,29c-.1,0-.16-.25-.17-.37-.1-.92-.23-1.83-.26-2.75v-3.8a8.79,8.79,0,0,1,1,.15c.63.14,1.24.34,1.87.51.26.06.54.06.81.13l2,.54,1.7.47c.36.09.46.17.46.55V31A4.85,4.85,0,0,0,9.17,32.35Z"/><path class="cls-2" d="M14.07,18.2a12,12,0,0,1-.64,1.23c-.31.47-.68.88-1,1.32s-.73.93-1.07,1.4-.65.94-1,1.36a.57.57,0,0,1-.59,0A4.55,4.55,0,0,0,8,22.87c-.71-.16-1.38-.45-2.1-.63a8.21,8.21,0,0,0-1-.18c-.38-.09-.74-.2-1.18-.27l-1.63-.37-.42-.1A5.81,5.81,0,0,1,3.52,19.9a20.88,20.88,0,0,0,2-.94c.35-.24.7-.5,1-.77s.5-.26.74-.42l1.5-1a1.27,1.27,0,0,1,1.08-.35c1.17.29,2.34.5,3.52.75a.47.47,0,0,1,.21.16C13.77,17.61,13.91,17.9,14.07,18.2Z"/><path class="cls-3" d="M11.18,23.59,12,22.42c.73-1,1.48-1.92,2.2-2.91a3.77,3.77,0,0,0,.34-.7c.09-.23.2-.33.48-.23a1.24,1.24,0,0,0,.47,0h2.34c.75,0,1.55.17,2.35.25s1.48.16,2.22.19a.39.39,0,0,1,.45.37c.16.75.28,1.49.42,2.23.08.35.15.69.24,1a.21.21,0,0,1-.08.29.11.11,0,0,1-.08,0,3.68,3.68,0,0,0-.65.11l-2.66.34c-.47,0-.94.09-1.41.09l-6.54.08Z"/><path class="cls-1" d="M64.14,29c.07.52.18,1,.22,1.52a12.69,12.69,0,0,0,.71,3.16,18.29,18.29,0,0,1,.86,3.81A2.6,2.6,0,0,1,65.46,39c-.6,1-1.18,2-1.84,3-.46.71-1,1.35-1.47,2l-.19.27h-.13c0-.37.07-.74.1-1.17s.08-1,.11-1.5c.06-1.17.15-2.25.19-3.39v-2.6a1.09,1.09,0,0,0-.23-.47c-.11-.18-.24-.34-.35-.51a2.45,2.45,0,0,1,.17-.45c.47-.86,1-1.71,1.41-2.6A20.85,20.85,0,0,0,64,29.37,2.71,2.71,0,0,0,64.14,29Z"/><path class="cls-2" d="M64.14,29c0,.14-.11.27-.16.4a21.62,21.62,0,0,1-.75,2.23c-.41.89-.94,1.73-1.41,2.59a2.54,2.54,0,0,0-.17.46,10.31,10.31,0,0,1-1.18-1.54,5.61,5.61,0,0,0-1.37-1.62,3.33,3.33,0,0,1-.53-.59.9.9,0,0,0,.43-.8,6.09,6.09,0,0,1,.22-1.95,2.91,2.91,0,0,0,.1-.72c.07-.69.13-1.39.2-2.08.57.29,1.18.56,1.72.87s1.36.87,2,1.28A1.78,1.78,0,0,1,64.14,29Z"/><path class="cls-2" d="M34.1,19.9l-.91.27c-.78.23-1.58.44-2.34.69a9.58,9.58,0,0,1-1.27.45,7.27,7.27,0,0,0-1.83.48,5.54,5.54,0,0,1-.57.07l-2,.58a8.23,8.23,0,0,1-.86.19L23.62,19a9,9,0,0,1,1-.32c.75-.17,1.5-.33,2.27-.47a16.18,16.18,0,0,0,2.64-.58.52.52,0,0,1,.31.07l1,.52,3,1.45A1.94,1.94,0,0,1,34.1,19.9Z"/><path class="cls-3" d="M17.59,24.25a6.13,6.13,0,0,0-.92,1.95A4.36,4.36,0,0,1,15.43,28c-.7.63-1.44,1.24-2.19,1.83a15.83,15.83,0,0,1-1.43.85l-.9.54V24.39h6C17.16,24.35,17.38,24.31,17.59,24.25Z"/><path class="cls-1" d="M35.63,19.75a11.8,11.8,0,0,0,3.52-3c.19.52.36,1,.5,1.43A6,6,0,0,0,41,20.36c.48.57.52.59.12,1.23s-.85,1.17-1.28,1.79l-1.58,2.05-.11.18c-.22-.4-.39-.75-.59-1.09a9.35,9.35,0,0,1-.89-2.45,5.48,5.48,0,0,0-.42-1C36,20.67,35.84,20.23,35.63,19.75Z"/><path class="cls-2" d="M34.83,19.44l-4.28-2.12c.37-.28.72-.54,1.06-.82s.91-.78,1.37-1.18a.72.72,0,0,1,.27-.15L37.53,15a3.18,3.18,0,0,1,.62.07c.06,0,.13.11.17.18.11.34.28.62,0,1a7.61,7.61,0,0,1-2.68,2.64C35.39,19.07,35.09,19.28,34.83,19.44Z"/><path class="cls-1" d="M59.53,25.38c-.07.69-.12,1.39-.19,2.08a2.92,2.92,0,0,1-.11.72A6.39,6.39,0,0,0,59,30.13a.9.9,0,0,1-.43.8c-.46-.63-.95-1.25-1.43-1.87S56,27.45,55.3,26.71a.65.65,0,0,1-.15-.58,8.36,8.36,0,0,1,.27-1l.07-.07h0a2.55,2.55,0,0,0,.56-1.17c.82.35,1.64.68,2.46,1A3.47,3.47,0,0,1,59.53,25.38Z"/><path class="cls-1" d="M48.28,27.56h1.66c.06,0,.16.13.18.22.1.53.17,1.08.29,1.61s.33,1.3.48,1.94c.07.31.09.64.16.94a.91.91,0,0,1-.37.93c-.83.71-1.72,1.36-2.59,2H48c0-.87.06-1.73.1-2.59,0-.6.13-1.18.14-1.81C48.29,29.77,48.28,28.71,48.28,27.56Z"/><path class="cls-3" d="M51.43,12.86c.27-.17.55-.32.83-.46a.81.81,0,0,1,.44.09l1,.31a9.69,9.69,0,0,1,2.29.85c.6.37,1.23.69,1.8,1.09A17.3,17.3,0,0,1,59.18,16l.35.3,1,1a2.47,2.47,0,0,1,.5.52l-3.31-.32a2.59,2.59,0,0,0-.37-.56c-.66-.58-1.33-1.17-2-1.67A20.42,20.42,0,0,0,53.66,14,22.59,22.59,0,0,0,51.43,12.86Z"/><path class="cls-1" d="M51.43,12.86A22.59,22.59,0,0,1,53.66,14a17.93,17.93,0,0,1,1.71,1.18c.68.54,1.35,1.09,2,1.66a2.59,2.59,0,0,1,.37.56c-.71,0-1.43-.07-2.13,0A1.65,1.65,0,0,1,54.44,17c-.75-.61-1.52-1.17-2.34-1.76a11.25,11.25,0,0,0-1.44-.7l-1.4-.68Z"/><path class="cls-3" d="M59.53,22.4c.42.14.85.27,1.25.43.69.28,1.36.6,2,.9l1.85.89a.27.27,0,0,1,.08.22c-.18.82-.38,1.63-.58,2.45a8,8,0,0,0-.75-.55c-1-.6-2.06-1.18-3.09-1.78l-.8-.45Z"/><path class="cls-1" d="M66.51,35.88c-.38-1.17-.77-2.41-1.17-3.62A5.37,5.37,0,0,1,65.12,31a8.88,8.88,0,0,0-.46-2.8.48.48,0,0,1,0-.29l.45-1.17c.07.21.15.52.28.83.41.94.85,1.86,1.23,2.83a5.36,5.36,0,0,1,.53,2.27,3.53,3.53,0,0,1-.13.54l-.53,2.5Z"/><path class="cls-3" d="M1.07,20.79C1,20.38.87,20,.8,19.62a1,1,0,0,1,.65-1A8.76,8.76,0,0,0,4.2,17.27c.33-.2.68-.39,1-.57l2-1.18,1.17.41v.12l-1.64,1c-.35.23-.69.47-1.06.7a11.34,11.34,0,0,1-1.7,1,7.94,7.94,0,0,0-2.63,1.72A2.66,2.66,0,0,1,1.07,20.79Z"/><path class="cls-1" d="M26.39,13.65,24,14.34c-.24.08-.34,0-.37-.22-.12-.74-.22-1.47-.34-2.21a5.19,5.19,0,0,0-.18-1l2.72-.43h0a5.37,5.37,0,0,0,.37,2.06A6.38,6.38,0,0,1,26.39,13.65Z"/><path class="cls-1" d="M35.76,11.41A3.86,3.86,0,0,0,35.3,14c0,.31-.07.44-.4.43H33c-.09,0-.26-.12-.26-.19A13.25,13.25,0,0,1,33,10.94a.67.67,0,0,1,.07-.18,8.11,8.11,0,0,1,.86.14A5.21,5.21,0,0,1,35.76,11.41Z"/><path class="cls-1" d="M20.84,15.45l-.61-3.76c.54-.6,1.34-.59,2.15-.73l.6,3.71Z"/><path class="cls-1" d="M32.24,10.68,32,14c-.18-.06-.34-.1-.51-.17a2.92,2.92,0,0,0-1.71-.38c-.26,0-.3-.13-.37-.34a5,5,0,0,1-.19-2.24,4,4,0,0,1,.9-.24C30.8,10.61,31.53,10.66,32.24,10.68Z"/><path class="cls-3" d="M14.79,14.15l-.93,1.08L8.44,13.41l1.18-.63a2.63,2.63,0,0,1,.75-.42,2.11,2.11,0,0,1,.82.17c.29.1.58.21.86.33Z"/><path class="cls-1" d="M18.36,17l-.77-4.06L19.42,12c.12.48.25.91.32,1.36.13.68.2,1.38.33,2.06a.45.45,0,0,1-.25.58h0c-.38.2-.71.49-1.06.72A1.56,1.56,0,0,1,18.36,17Z"/><path class="cls-3" d="M27.35,16.82c-.2-.38-.37-.78-.6-1.17a.81.81,0,0,1,0-.8,3.57,3.57,0,0,0,.1-2.9,4.74,4.74,0,0,1-.17-1.18v-.09a5.16,5.16,0,0,0,1-2.12h.07l.43,1a2,2,0,0,0-.26.51,2.81,2.81,0,0,0,0,.58c0,.62-.1,1.25-.07,1.88S28,14.06,28,14.8c0,.47-.09.93-.1,1.4S27.86,16.67,27.35,16.82Z"/><path class="cls-3" d="M59.41,20.54l2.4.47c.54.11,1.07.21,1.6.34a.58.58,0,0,1,.28.21c.38.61.76,1.18,1.17,1.86a1,1,0,0,1,.09.41h-.08c-.34-.19-.67-.38-1-.55a3.81,3.81,0,0,0-.66-.27A8.62,8.62,0,0,1,60.91,22a2.75,2.75,0,0,0-.61-.21l-.71-.26Z"/><path class="cls-3" d="M16.71,12.61l-1.06.93a.3.3,0,0,1-.4,0c-.58-.33-1.18-.67-1.73-.95a11.3,11.3,0,0,0-1.43-.54,4.58,4.58,0,0,1-.78-.36c.49-.19,1-.34,1.47-.57a1.13,1.13,0,0,1,1.18.22c.58.3,1.17.54,1.82.82Z"/><path class="cls-1" d="M16.24,17.86l-.66-3.09a.17.17,0,0,1,0-.17c.41-.4.82-.78,1.25-1.18a5.3,5.3,0,0,1,.45,2,6.32,6.32,0,0,0,.22,1.17,4.37,4.37,0,0,1,.15.7.3.3,0,0,1-.06.26A1.79,1.79,0,0,1,16.24,17.86Z"/><path class="cls-3" d="M26.1,8.23c-.07-.51-.14-1-.2-1.5a3.17,3.17,0,0,1,.24-1.52c.25-.68.52-1.36.75-2s.34-1.17.53-1.78c.06-.2.15-.38.22-.56h.11l.12,2.83c-.11.12-.28.24-.31.37A9.19,9.19,0,0,1,27,6.56C26.66,7.13,26.37,7.68,26.1,8.23Z"/><path class="cls-1" d="M37.88,14.24H36c0-1-.2-2,.65-2.82A3.41,3.41,0,0,0,37,11a8.14,8.14,0,0,1,.65-.78c.23-.25.22,0,.23.12s0,.37,0,.56Z"/><path class="cls-1" d="M59.53,22.4v2.11L56.3,23a12.84,12.84,0,0,1,.53-1.31.47.47,0,0,1,.44-.13C58,21.81,58.76,22.11,59.53,22.4Z"/><path class="cls-4" d="M25.38,31.63c-.26-1.08-.54-2.13-.77-3.19-.28-1.38-.53-2.75-.8-4.12a.59.59,0,0,1,.38-.74l.16,0a77.28,77.28,0,0,0,1.8,7.8Z"/><path class="cls-3" d="M37.61,26.15l-.43.62a3.5,3.5,0,0,1-1.07-1.55c-.41-.88-.75-1.79-1.09-2.69-.19-.49-.28-1-.46-1.49s-.09-.57.27-.68l.13-.09a17,17,0,0,1,1.4,3.26A10.52,10.52,0,0,0,37.61,26.15Z"/><path class="cls-1" d="M27.35,16.82c.51-.15.52-.19.54-.68s.13-.93.11-1.4c0-.74-.14-1.48-.17-2.22a12.54,12.54,0,0,1,.07-1.88,2.81,2.81,0,0,1,0-.58,2.45,2.45,0,0,1,.26-.51,2.46,2.46,0,0,1,.19.58v1.31a5.11,5.11,0,0,0,.27,2,3.21,3.21,0,0,1,.19.8,1.74,1.74,0,0,1-.16.75,1.44,1.44,0,0,0-.11.89c.07.32.1.65.16,1a.27.27,0,0,1-.2.32h0c-.33.08-.66.18-1,.28Z"/><path class="cls-5" d="M6.87,14.7a1.62,1.62,0,0,1,1.77-.43c1.18.37,2.35.73,3.44,1.17a14,14,0,0,1,1.38.59c.11,0,.16.24.24.37l-.08.08c-.57-.11-1.18-.19-1.7-.32-1.09-.25-2.2-.51-3.28-.79a14.86,14.86,0,0,1-1.4-.53H6.92Z"/><path class="cls-3" d="M17.23,12.3c-.12-.57-.65-.6-1-.79-.55-.28-1.17-.48-1.8-.75l1.38-.34h.13a3.45,3.45,0,0,1,3,.41l.71.31Z"/><path class="cls-3" d="M58.64,18.36l1.81.13a8,8,0,0,1,1.27.14c.07,0,.16.1.21.17l1,1.7-3.76-.79c-.09-.27-.18-.54-.29-.8S58.64,18.55,58.64,18.36Z"/><path class="cls-3" d="M32.24,10.68c-.71,0-1.44-.07-2.17-.06a4,4,0,0,0-.9.25,12.63,12.63,0,0,0-.06-1.48l3.79.21Z"/><path class="cls-1" d="M26.1,8.23c.27-.55.56-1.1.82-1.67A8.88,8.88,0,0,0,27.56,4c0-.13.2-.25.31-.36a2.82,2.82,0,0,0,.14.69c.33,1.1-.3,2-.6,3-.19.63-.47,1.24-.7,1.86l-.2.45A1.75,1.75,0,0,1,26.1,8.23Z"/><path class="cls-3" d="M35.76,11.41A5.18,5.18,0,0,0,34,10.82a6.17,6.17,0,0,0-.86-.14c.22-.32.44-.62.68-.93a.36.36,0,0,1,.25,0l2.15.27h.61Z"/><path class="cls-1" d="M50.33,12.52l-.75.4-1.23.63-1.44-.23v-.46L48.09,12a3.45,3.45,0,0,1,.77.13Z"/><path class="cls-1" d="M58.64,18.36c.09.19.18.37.26.55s.2.53.29.8l-1.54-.38a6.74,6.74,0,0,0-1-.17.83.83,0,0,1-.74-.58c0-.11-.1-.23-.19-.42Z"/><path class="cls-5" d="M54.84,18.22l.54,1.17c-1.26,1-1.69,2.56-2.78,3.65a.41.41,0,0,1-.08-.57v0c.66-1.11,1.32-2.22,1.95-3.34A6.9,6.9,0,0,0,54.84,18.22Z"/><path class="cls-1" d="M52.46,31l-.69-3.52a1.38,1.38,0,0,1,.27-.08c.29-.06.52,0,.61.31.21.74.43,1.47.63,2.21a.42.42,0,0,1-.11.32Z"/><path class="cls-5" d="M51.9,26.18a1.62,1.62,0,0,1,1.4-1.34c.5-.13,1-.29,1.51-.44v.15c-.13.39-.26.79-.4,1.18a.29.29,0,0,1-.19.22C53.46,26,52.69,26.1,51.9,26.18Z"/><path class="cls-1" d="M65.53,24.59a9.39,9.39,0,0,1,1.62,5H67c-.34-.89-.67-1.77-1-2.65-.16-.42-.35-.84-.5-1.28a1.51,1.51,0,0,1-.07-.56A2.67,2.67,0,0,1,65.53,24.59Z"/><path class="cls-1" d="M59.41,20.54l.12,1c-.43-.14-.86-.31-1.3-.44s-.81-.18-1.17-.3a.66.66,0,0,1-.36-.27,1.94,1.94,0,0,1-.29-.68Z"/><path class="cls-3" d="M25.66,9.79,24,10.08h-.92c-.31,0-.46-.37-.68-.57V9.4h2.87C25.51,9.4,25.63,9.49,25.66,9.79Z"/><path class="cls-3" d="M50.33,12.52l-1.42-.39c-.26-.06-.52-.08-.78-.13.23-.19.44-.39.67-.57a.23.23,0,0,1,.2,0l1.81.49.55.14Z"/><path class="cls-1" d="M15.48,17.87a1,1,0,0,1-1.11-.74,1.57,1.57,0,0,1,0-.53,1.54,1.54,0,0,1,.48-1.42Z"/><path class="cls-3" d="M21.92,10.23l-1.56.41L18.77,10V9.87h.59c.66,0,1.31-.09,2-.12a.58.58,0,0,1,.33.19A2.44,2.44,0,0,1,21.92,10.23Z"/><path class="cls-3" d="M53.86,22.62c.31-.51.62-1,1-1.53s.5-.63.78-1l.43.81A7.63,7.63,0,0,1,54,22.68Z"/><path class="cls-6" d="M9.91,32.8V24.59H10c0,.4.08.8.08,1.17V31c0,.53.07,1.06.1,1.59,0,.07-.1.15-.13.23Z"/><path class="cls-7" d="M55.71,22.35A2.93,2.93,0,0,1,53.37,24l2.34-1.7Z"/><path class="cls-1" d="M40.29,17.73c.43.61,1.3,1,1.07,2A3.65,3.65,0,0,1,40.29,17.73Z"/><path class="cls-1" d="M54.23,27.13l-.4,1.41h-.07l-.49-1.32Z"/><path class="cls-1" d="M51.45,30.82l-.61-3.35a8.58,8.58,0,0,1,.77,3.34Z"/><path class="cls-7" d="M56.05,23.82A2.6,2.6,0,0,1,55.49,25c.1-.39.21-.79.34-1.17C55.86,23.73,56,23.63,56.05,23.82Z"/><path class="cls-7" d="M46.91,12.86v.45h-.46Z"/><path class="cls-5" d="M6.74,14.77l.13-.07h0l-.13.06Z"/><path class="cls-7" d="M55.69,22.33h0v0Z"/><path class="cls-5" d="M6.79,14.82h0Z"/><path class="cls-3" d="M54,22.68h-.07V22.6Z"/><path class="cls-7" d="M55.49,25l-.07.07Z"/></g></g></svg>