<svg xmlns="http://www.w3.org/2000/svg" viewBox="0 0 50.43 44.34"><defs><style>.cls-1{fill:#fff;}.cls-2{fill:#666;}.cls-3{fill:none;stroke:#000;stroke-miterlimit:10;stroke-width:0.75px;}.cls-4{fill:#adacac;}.cls-5{fill:#ccc;}</style></defs><g id="Layer_2" data-name="Layer 2"><g id="Layer_4" data-name="Layer 4"><path class="cls-1" d="M31.32,5.1c1.5,2.4-.2,8.8,0,11.6.1,2.2.5,3.2.3,5.4a53.43,53.43,0,0,1-4.4,15.6,12.12,12.12,0,0,1-2,3.3c-3.3,3.6-9.4,3.1-13.6.5-.8-.5-3.3-1.3-4-2a40.78,40.78,0,0,1-3.2-5.8c-3.3-6-2.4-7.2-3.7-16.4-.4-2.8-.4-4.8,1.1-7.2.8-1.2,2.9-4.8,4-5.7,1.3-.9,7.5-4,9-4.2,5.5-.5,11.6,2,16.5,4.9"/><path class="cls-2" d="M30.92,5.3c.8,1.5.6,3.5.5,5.1-.2,1.8-.5,3.6-.6,5.4-.1,2.1.4,4.1.3,6.1a37.59,37.59,0,0,1-1.4,7.3,44.51,44.51,0,0,1-2.4,7c-1,2.3-2,4.6-4.2,6-3.8,2.3-8.2.9-11.8-1-1.5-.8-3.3-1.1-4.2-2.6s-1.6-3-2.4-4.5a24.38,24.38,0,0,1-2.9-8.2c-.2-1.7-.3-3.4-.5-5A32.19,32.19,0,0,1,.72,14a12.5,12.5,0,0,1,2.4-5.4A13.69,13.69,0,0,1,6,4.8a24.06,24.06,0,0,1,4.2-2.2A18.54,18.54,0,0,1,14.62.8a17.54,17.54,0,0,1,8.5,1A38,38,0,0,1,31,5.5c.4.2.8-.4.4-.6-4.5-2.7-9.8-5-15.2-4.9C12.92.1,9.82,1.9,7,3.5a7,7,0,0,0-2.8,2.3,46.64,46.64,0,0,0-3,4.7,10.63,10.63,0,0,0-1.1,6.8c.3,2.3.6,4.6.8,7a23.38,23.38,0,0,0,2.3,8.6c.9,1.7,1.7,3.4,2.6,5.1a8.58,8.58,0,0,0,1.3,2,9.17,9.17,0,0,0,2.1,1.3c1.8.8,3.5,1.8,5.3,2.4a13.52,13.52,0,0,0,6,.5c4.9-.9,6.8-5.3,8.4-9.6a55,55,0,0,0,2.5-8.8,20.07,20.07,0,0,0,.5-4.2c0-1.3-.2-2.6-.3-3.9a36.69,36.69,0,0,1,.5-6.6c.2-1.9.4-4.1-.5-5.8-.2-.8-.9-.4-.7,0Z"/><path class="cls-1" d="M50.32,26.6,48.52,21l1-1.7-.3-2.6L47,12.5l-2.1-1.7-5.2.7-4.9,1.7-1.6,1.6-1.4,3.9-.3,4.8,1.8,9.9,1,2.9,4.3,4.3,3.4-.3,3-1.4.9-2.2a29.28,29.28,0,0,1,1.2-4.7c.3-.9.6-1.8.8-2.6.1-.4,1.1-2,1.5-2Z"/><path class="cls-3" d="M48.32,28s.5-.2-.4,2.5-2.3,5.7-2.3,5.7"/><path class="cls-4" d="M22.52,6c.2.5.5,1.1.7,1.7-.1-.2-.2-.5-.3-.7a17,17,0,0,1,1.5,5c0-.3-.1-.5-.1-.8a17.7,17.7,0,0,1,.1,2.3,3,3,0,0,0,2.2,2.9,7.49,7.49,0,0,1,1.6.5c-.2-.1-.5-.2-.7-.3.1,0,.1,0,.2.1.5-1.9,1-3.7,1.5-5.6a3.26,3.26,0,0,0-3.3,4.1,3,3,0,0,0,2.5,2.1,3,3,0,0,0,3-1.4,3.21,3.21,0,0,0,0-3.4,3,3,0,1,0-5.2,3,.1.1,0,0,0,.1.1c-.1-.2-.2-.5-.3-.7V13.5c.1-.2.2-.5.3-.7a.1.1,0,0,1-.1.1c1.8.2,3.7.5,5.5.7V15c-.3.4-.5.9-.8,1.3l.1-.1c-.4.3-.9.5-1.3.8h.1c-.3,0-.5.1-.8.1h.2a3,3,0,0,0,1.8-.6,3.09,3.09,0,0,0,1.1-1.6,4.3,4.3,0,0,0,0-1.6,3.1,3.1,0,0,0-1.4-1.8,10.64,10.64,0,0,0-2.5-.9c.7,1,1.5,1.9,2.2,2.9.2-3.7-1.3-7.1-2.7-10.4a3.19,3.19,0,0,0-1.8-1.4,3.06,3.06,0,0,0-2.3.3,3.19,3.19,0,0,0-1.4,1.8,2.82,2.82,0,0,0,.3,2.2Z"/><path class="cls-4" d="M21.72,18.6a7,7,0,0,0-.2,3.5l.3,1.5c.1.5.2,1,.3,1.4a1,1,0,0,0,2,0c-.1-1.1-.4-2.1-.6-3.2a5.36,5.36,0,0,1,.2-2.8,1,1,0,0,0-.7-1.2,1.07,1.07,0,0,0-1.3.8Z"/><path class="cls-4" d="M21.42,34.1h0c0-.1.1-.1.1-.2l-.3.6.2-.2a1.21,1.21,0,0,1-.5.5l.2-.2c-.2.1-.4.3-.6.4a.35.35,0,0,0,.2-.1c-.2.1-.4.1-.5.2l1.2,1.2v-.2a.35.35,0,0,1-.1.2,1.38,1.38,0,0,1,.3-.4c.1-.2.2-.5.3-.7v-.3a1.07,1.07,0,0,0-.2-.6,2.7,2.7,0,0,0-.8-.7,1.13,1.13,0,0,0-.8.1,1.47,1.47,0,0,0-.5.6,1.13,1.13,0,0,0,.1.8,1,1,0,0,0,.6.5h0a.35.35,0,0,1-.2-.1h.1l-.2-.2h0l-.2-.2a.1.1,0,0,0,.1.1.35.35,0,0,0-.1-.2v-.3c0,.1,0,.1-.1.2a.35.35,0,0,1,.1-.2.76.76,0,0,0-.2.4l-.3.6a1,1,0,0,0,.3,1,1.21,1.21,0,0,0,1,.3,3.81,3.81,0,0,0,1.7-.8,4.35,4.35,0,0,0,.6-.7,3,3,0,0,0,.4-.8,1.13,1.13,0,0,0-.1-.8,1.47,1.47,0,0,0-.6-.5,1.13,1.13,0,0,0-.8.1l-.2.2c-.1.1-.1.3-.2.4Z"/><path class="cls-4" d="M28.72,19.1h0a4.33,4.33,0,0,1-.5.1h-.3a.35.35,0,0,1-.2-.1h.1l-.2-.2a.1.1,0,0,1,.1.1l-.2-.2a.52.52,0,0,1,.2.4.35.35,0,0,0-.1-.2.6.6,0,0,1,.1.4v-.2c0,.1-.1.2-.1.4a.35.35,0,0,1,.1-.2c-.1.1-.1.3-.2.4l.2-.2-.3.3.2-.2c-.1.1-.1.1-.2.1.4.5.8,1,1.2,1.6a1.31,1.31,0,0,0,.3-1.2c-.1-.2-.2-.5-.5-.6a1.06,1.06,0,0,0-.8-.1,1,1,0,0,0-.7,1.2h0v-.4a.35.35,0,0,1,.1-.2v.1l.2-.2h0a1,1,0,0,0,1.2,1.6,2,2,0,0,0,.9-.9,1.92,1.92,0,0,0,.4-1.2,2.77,2.77,0,0,0-.3-1.3,1,1,0,0,0-.4-.5,1.08,1.08,0,0,0-1.4-.2,1.47,1.47,0,0,0-.5.6,1.13,1.13,0,0,0,.1.8,1.37,1.37,0,0,0,1.5.2Z"/><path class="cls-4" d="M12.62,17.4c.1.2.1.5.2.7v-.3a2.72,2.72,0,0,1,0,.9v-.1a.35.35,0,0,1,.1-.2v.1l.2-.2h0l.2-.2h0a.35.35,0,0,0,.2-.1h0c-.2.1-.5.2-.6.5a1.06,1.06,0,0,0-.1.8c.1.2.2.5.5.6a1.06,1.06,0,0,0,.8.1,1.35,1.35,0,0,0,.9-.9,2,2,0,0,0,.1-.8,7.72,7.72,0,0,0-.2-1.5c-.1-.2-.2-.5-.5-.6a1.06,1.06,0,0,0-.8-.1c-.2.1-.5.2-.6.5a.63.63,0,0,0-.4.8Z"/><path class="cls-4" d="M15.72,27.6h0l-.1-.1a.52.52,0,0,1,.2.4c0-.2,0-.2-.1-.3.1.2.1.3.2.5V28c0,.1-.1.3-.1.4v.4a.6.6,0,0,0,.1.4,1.47,1.47,0,0,0,.6.5,1.13,1.13,0,0,0,.8-.1l.2-.2c.1-.1.2-.3.3-.4a2.57,2.57,0,0,0,.1-1.5,2.39,2.39,0,0,0-.7-1.3,1,1,0,0,0-1.4,0,.91.91,0,0,0-.3.7v.3c0,.1.1.2.2.4Z"/><path class="cls-4" d="M27.42,21c-.7,1.4.37,3.36.37,4.86,0,2.5-.3,3.94-.37,5.24a1.94,1.94,0,0,0,2.7-.7,5.42,5.42,0,0,0,.6-2.5,12,12,0,0,0,0-1.9V23.6c0-.1.1-.4,0-.5v.3c0-.1,0-.2.1-.2s0-.2.1-.2c-.1.3-.1.3,0,.1a2,2,0,0,0-3.5-2.1Z"/><path class="cls-4" d="M28.12,30.1A28.31,28.31,0,0,1,27,34c-.2.6-.58,1.82-.85,2.67a16.58,16.58,0,0,0-.62,3.51c.1.5.41-1.75,1-1.75s1.1-.5,1-1,.3-.9.5-1.4.5-1.2.8-1.9A24.15,24.15,0,0,0,30,30.6a1,1,0,0,0-1.9-.5Z"/><path class="cls-4" d="M20.42,38.4a3,3,0,0,1,.2,1,1.09,1.09,0,0,1-.1.5c-.1.2-.1.4-.2.6s-.1.3-.2.5c.1-.2-.1.1-.1.1s-.1.2-.1.3-.1.2-.1.1l-.1.1-.1.1h-.1a14.31,14.31,0,0,1,1.1,1.5.55.55,0,0,1-.5.3h.2a.75.75,0,0,0,.5-.1,4.05,4.05,0,0,0,.9-.5,3.15,3.15,0,0,0,.8-1.5,7.49,7.49,0,0,0-.3-4.2,11.73,11.73,0,0,1-.5,1.1.37.37,0,0,1-.3.1.76.76,0,0,1,.4.1h.4a1.6,1.6,0,0,0,.9-.7,8,8,0,0,0,.8-1.6c-.6-.2-1.2-.3-1.9-.5a5.46,5.46,0,0,1-.1,1.8,11.63,11.63,0,0,1-.4,1.8,5.92,5.92,0,0,0-.5,1.9v.2a.1.1,0,0,1,.1-.1l-.1.1c.1-.1-.1,0-.1.1s-.2.1-.4.2a1.08,1.08,0,0,0-.4,1.4,1.11,1.11,0,0,0,1.4.4,2.42,2.42,0,0,0,1.4-1.4c.1-.3.1-.7.2-1s.2-.7.3-1a15.52,15.52,0,0,0,.4-2.1,9,9,0,0,0,.2-2.3,1.2,1.2,0,0,0-.7-1,1,1,0,0,0-1.1.5c-.2.5-.5.9-.7,1.3a.1.1,0,0,1-.1.1c-.2.2,0,.2.4-.1h.1a.76.76,0,0,1-.4-.1,1.08,1.08,0,0,0-.8.2,1,1,0,0,0-.5,1.1,5.88,5.88,0,0,1,.3,3.2c0,.1-.1.2-.1.3.1-.2-.1.1-.1.1h0l-.1.1h-.1a.9.9,0,0,0-.5.1,1.46,1.46,0,0,0-.9.6,1,1,0,0,0,1.1,1.5,3.7,3.7,0,0,0,2.1-2.6,5.26,5.26,0,0,0,.4-1.8,4.48,4.48,0,0,0-.4-2,1.08,1.08,0,0,0-1.4-.4,2.22,2.22,0,0,0-.1,1.6Z"/><path class="cls-4" d="M26.72,8.8c.4.1.8.3,1.2.4-.2-.1-.5-.2-.7-.3.1.1.2.1.3.2-.2-.2-.4-.3-.6-.5l.1.1c-.2-.2-.3-.4-.5-.6,0,.1.1.1.1.2-.1-.2-.2-.5-.3-.7,0,.1,0,.1.1.2,0-.3-.1-.5-.1-.8V8a3.59,3.59,0,0,0,.2,1.1,1.42,1.42,0,0,1,.2.6c0-.3-.1-.5-.1-.8a17,17,0,0,1-.1,3.9c0-.3.1-.5.1-.8,0,.2-.1.4-.1.6a3.62,3.62,0,0,0,.3,2.3,3.56,3.56,0,0,0,1.8,1.4,3.06,3.06,0,0,0,2.3-.3,2.83,2.83,0,0,0,1.4-1.8c.2-1.2.3-2.4.4-3.6V9.2a6.75,6.75,0,0,0-.2-1.4,1.45,1.45,0,0,1-.2-.7c0,.3.1.5.1.8V7a3.7,3.7,0,0,0-.6-2.1c-.8-1.2-2.1-1.6-3.4-2.1a3.06,3.06,0,0,0-2.3.3,3.56,3.56,0,0,0-1.4,1.8A3.06,3.06,0,0,0,25,7.2a2.48,2.48,0,0,0,1.7,1.6Z"/><path class="cls-4" d="M29.72,17.1a12.91,12.91,0,0,0-3.8-.8,6.3,6.3,0,0,0-3.6,1,1,1,0,0,0,1,1.8,4.36,4.36,0,0,1,2.8-.7,18.34,18.34,0,0,1,3.2.7,1,1,0,0,0,1.2-.7,1.21,1.21,0,0,0-.8-1.3Z"/><path class="cls-4" d="M29.12,16.5a45.5,45.5,0,0,1,.4,5.2,13.32,13.32,0,0,1-.7,4.8,1,1,0,0,0,.7,1.2c.6.2,1-.2,1.2-.7a12.7,12.7,0,0,0,.8-5.1c0-1.8-.3-3.6-.4-5.4a1,1,0,0,0-1-1,1.08,1.08,0,0,0-1,1Z"/><path class="cls-4" d="M27.22,31.4v-.1c-.1.4-.37,2.84-.53,3.4-.74,2.68.73.1,1.13-.3,1.4-1.4,1.4-3.7,1.3-5.5a1,1,0,0,0-1-1C27.72,27.9,27.22,31.4,27.22,31.4Z"/><path class="cls-4" d="M21.72,25c.3.6.5,1.2.8,1.9a.6.6,0,0,1,.1.4c0,.1.1.2.1.3s.1.2,0,.2v.3c0,.2.1-.2,0,0a.37.37,0,0,1-.1.3,1,1,0,0,0,.7,1.2,1,1,0,0,0,1.2-.7,3.94,3.94,0,0,0-.1-2.4,16.67,16.67,0,0,0-.8-2c-.1-.3-.2-.5-.5-.6a1.06,1.06,0,0,0-.8-.1c-.2.1-.5.2-.6.5s-.1.5,0,.7Z"/><path class="cls-4" d="M20.82,33.9c.1,0,.3.1.4.1a.35.35,0,0,1-.2-.1,2.09,2.09,0,0,1,.6.4l-.2-.2c.1.1.3.2.4.3s.2.2.3.2.2.1.4.1a1.08,1.08,0,0,0,.7-.3,1,1,0,0,0,0-1.4,2.18,2.18,0,0,0-.9-.7l-.6-.3a.6.6,0,0,0-.4-.1,1.13,1.13,0,0,0-.8.1c-.1.1-.2.1-.3.3s-.1.2-.2.3a1.13,1.13,0,0,0,.1.8c.2.3.4.5.7.5Z"/><path d="M30.92,5.3c.8,1.5.6,3.5.5,5.1-.2,1.8-.5,3.6-.6,5.4-.1,2.1.4,4.1.3,6.1a37.59,37.59,0,0,1-1.4,7.3,44.51,44.51,0,0,1-2.4,7c-1,2.3-2,4.6-4.2,6-3.8,2.3-8.2.9-11.8-1-1.5-.8-3.3-1.1-4.2-2.6s-1.6-3-2.4-4.5a24.38,24.38,0,0,1-2.9-8.2c-.2-1.7-.3-3.4-.5-5A32.19,32.19,0,0,1,.72,14a12.5,12.5,0,0,1,2.4-5.4A13.69,13.69,0,0,1,6,4.8a24.06,24.06,0,0,1,4.2-2.2A18.54,18.54,0,0,1,14.62.8a17.54,17.54,0,0,1,8.5,1A38,38,0,0,1,31,5.5c.4.2.8-.4.4-.6-4.5-2.7-9.8-5-15.2-4.9C12.92.1,9.82,1.9,7,3.5a7,7,0,0,0-2.8,2.3,46.64,46.64,0,0,0-3,4.7,10.63,10.63,0,0,0-1.1,6.8c.3,2.3.6,4.6.8,7a23.38,23.38,0,0,0,2.3,8.6c.9,1.7,1.7,3.4,2.6,5.1a8.58,8.58,0,0,0,1.3,2,9.17,9.17,0,0,0,2.1,1.3c1.8.8,3.5,1.8,5.3,2.4a13.52,13.52,0,0,0,6,.5c4.9-.9,6.8-5.3,8.4-9.6a55,55,0,0,0,2.5-8.8,20.07,20.07,0,0,0,.5-4.2c0-1.3-.2-2.6-.3-3.9a36.69,36.69,0,0,1,.5-6.6c.2-1.9.4-4.1-.5-5.8-.2-.8-.9-.4-.7,0Z"/><path class="cls-4" d="M47.42,18.2h0a.9.9,0,0,0,.1.5c0,.1.1.2.2.3s.2.2.3.2.2.1.4.1h.3c.2,0,.3-.1.4-.3l.2-.2a.9.9,0,0,0,.1-.5v-.1a.6.6,0,0,0-.1-.4c0-.1-.1-.2-.2-.3s-.2-.2-.3-.2-.2-.1-.4-.1h-.3c-.2,0-.3.1-.4.3l-.2.2a4.33,4.33,0,0,1-.1.5Z"/><path class="cls-4" d="M44.82,29.1c.2.6.3,1.1.5,1.7.1.2.2.5.5.6a1.06,1.06,0,0,0,.8.1c.2-.1.5-.2.6-.5a1.06,1.06,0,0,0,.1-.8c-.2-.6-.3-1.1-.5-1.7-.1-.2-.2-.5-.5-.6a1.06,1.06,0,0,0-.8-.1c-.2.1-.5.2-.6.5a1.13,1.13,0,0,0-.1.8Z"/><path class="cls-4" d="M41.12,19.5h0a.9.9,0,0,0-.5.1c-.1,0-.2.1-.3.2s-.2.2-.2.3-.1.2-.1.4v.3c0,.2.1.3.3.4l.2.2a.9.9,0,0,0,.5.1h.1a.6.6,0,0,0,.4-.1c.1,0,.2-.1.3-.2s.2-.2.2-.3.1-.2.1-.4v-.3c0-.2-.1-.3-.3-.4l-.2-.2a.75.75,0,0,0-.5-.1Z"/><path class="cls-5" d="M44.92,36.2h0a.35.35,0,0,0-.1.2h0l-.2.2h0a.35.35,0,0,0-.2.1h-.5a.35.35,0,0,1-.2-.1h.1l-.2-.2.1.1-.2-.2c.1.2.2.3.3.5a2.19,2.19,0,0,0,.3.5.35.35,0,0,0-.1-.2c0,.1,0,.1.1.2v-.4a.35.35,0,0,1,.1-.2c0,.1,0,.1-.1.1l.2-.2c-.2.2-.4.3-.5.5a2.65,2.65,0,0,1-.6.5c.6.1,1.1.3,1.7.4v.2a4.33,4.33,0,0,1,.1-.5,2,2,0,0,0,.1-.8,5.85,5.85,0,0,0-.2-1.3c-.1-.3-.2-.5-.5-.6a1.06,1.06,0,0,0-.8-.1c-.2.1-.5.2-.6.5a1.06,1.06,0,0,0-.1.8c.1.2.1.4.2.6v0a2.54,2.54,0,0,1-.2.7,2.05,2.05,0,0,0,0,1.1,1.21,1.21,0,0,0,.7.7,1,1,0,0,0,1-.3c.3-.3.6-.5.9-.8l.5-.5a1.63,1.63,0,0,0,.1-1.2l-.6-1.2a1.78,1.78,0,0,0-.8-.7,1.3,1.3,0,0,0-1.3.5,1,1,0,0,0,.4,1.4c.2.3.8.1,1.1-.3Z"/><path d="M30.52,16.7a5.68,5.68,0,0,0-2.2-.7,15.64,15.64,0,0,0-3.1-.2,5.59,5.59,0,0,0-2.5.5c-.7.3-.8.9-.9,1.6a21.66,21.66,0,0,0,.1,3.6c.1,1.2.1,2.5.3,3.7s.4,2.4.5,3.7c0,.6-.5.9-1,1.2a2.56,2.56,0,0,1-1.9.4,3.55,3.55,0,0,1-.9-.4,7.26,7.26,0,0,1-.9-.5h-.1c-.1-.1-.2,0-.1.2l.2-.2a.76.76,0,0,0,.2-.4c0-.4-.5-.6-.9-.6a1.68,1.68,0,0,0-1.5.7.48.48,0,0,0,.2.6,5,5,0,0,0,1.7.2c.5-.1.3-.8-.2-.7a1.91,1.91,0,0,1-1.3-.2c.1.2.1.4.2.6a.55.55,0,0,1,.5-.3s.9-.1.4-.3l-.3.3a.52.52,0,0,0,0,.8,5.39,5.39,0,0,0,1.3.7,7.84,7.84,0,0,0,1.4.5,3.77,3.77,0,0,0,3-1.1c.6-.6.5-1.2.4-2-.3-2.4-.6-4.9-.7-7.4a9.23,9.23,0,0,1,.1-3.3c.2-.6,1-.7,1.6-.8a17.09,17.09,0,0,1,3.2,0,5.59,5.59,0,0,1,2.6.7.58.58,0,0,0,.6-.9Z"/><path d="M23.22,18.6a3.69,3.69,0,0,1,1.4-.7,10.62,10.62,0,0,1,1.9-.4,2.22,2.22,0,0,1,1.6.3,2.89,2.89,0,0,1,1.3,1.9l.5-.5c-.5-.2-1-.6-1.5-.8a4.28,4.28,0,0,0-2.2-.6,8.51,8.51,0,0,0-2.2.4c-.5.2-1.3.4-1.4,1s.6.7.7.2h0l.1-.1c.1-.1.2-.1.3-.2l.9-.3a5.82,5.82,0,0,1,1.9-.3,4.9,4.9,0,0,1,1.9.7,9.14,9.14,0,0,0,1.4.7c.3.1.5-.2.5-.5a4.35,4.35,0,0,0-1.5-2.2,2.88,2.88,0,0,0-2-.5,14.35,14.35,0,0,0-2.2.4,3.5,3.5,0,0,0-1.7.9c-.6.5-.1,1,.3.6Z"/><path d="M29,20.1c-.3.9-1.5,1-2.3.9a5.77,5.77,0,0,1-1.4-.3.86.86,0,0,1-.7-.8.4.4,0,0,0-.8,0,1.51,1.51,0,0,0,.9,1.4,5.84,5.84,0,0,0,1.8.4c1.2.1,2.6-.2,3.1-1.4.3-.4-.4-.6-.6-.2Z"/><path d="M19.12,33.5a2.27,2.27,0,0,1,2.9-.2,17,17,0,0,1,1.9,1.9,2.09,2.09,0,0,1,.4-.6,13.32,13.32,0,0,1-1.9-.5,4.23,4.23,0,0,0-1.2-.4,2.81,2.81,0,0,0-2.5.9c.1-.1.3-.1.4-.2-.7-.2-1.1-.8-1.8-.9a7.14,7.14,0,0,0-2,.2c-.8.2-1.6.3-2.4.5-.4.1-1.4.3-1.7,0-.1.2-.1.4-.2.6a36.83,36.83,0,0,0,3.5-1.5,3.7,3.7,0,0,1,3.8,0c.4.2.8-.4.4-.6a4.46,4.46,0,0,0-3.9-.3c-1.4.5-2.7,1.2-4.1,1.7-.3.1-.4.4-.2.6a2,2,0,0,0,1.5.4c.8-.1,1.7-.3,2.5-.4a9.26,9.26,0,0,1,2.3-.4c.7,0,1.2.7,1.9.9.2,0,.3,0,.4-.2a2.4,2.4,0,0,1,2.2-.5,24.13,24.13,0,0,0,2.5.8.38.38,0,0,0,.4-.6,9.15,9.15,0,0,0-2.5-2.3,2.91,2.91,0,0,0-3.4.6c-.1.3.5.9.8.5Z"/><path d="M22.82,35c-.7.7-1.7,2-2.8,1.6-.3-.1-.6-.3-.9-.4-.5,0-1,.3-1.5.3s-1.1-.3-1.6-.4-1.3-.4-1.9-.6a13.36,13.36,0,0,1-1.8-.7,4.13,4.13,0,0,1-1.1-.7c-.3-.4-.8.2-.5.5a6.92,6.92,0,0,0,3.1,1.5c.7.2,1.4.4,2.2.6.5.1,1.1.3,1.6.4s1-.4,1.5-.3.7.3,1.1.4c1.3.2,2.4-1.1,3.2-1.9.2-.2-.3-.7-.6-.3Z"/><path d="M11.12,16.9a3.3,3.3,0,0,1,2.2.1,4.49,4.49,0,0,1,1,1.3c.1.2.4.7.1.9s-.9.2-1.2.2a22.6,22.6,0,0,1-2.6-.1c-1.8-.1-3.6-.3-5.3-.4l.4.4c0-.5.7-.7,1.1-.9s.9-.5,1.3-.7a6.63,6.63,0,0,1,3-.8c.4,0,.4-.7-.1-.7a7.59,7.59,0,0,0-3.6,1.1c-.5.3-1.1.5-1.6.8a1.53,1.53,0,0,0-.9,1.2.43.43,0,0,0,.4.4c1.8.1,3.5.3,5.3.4a19.27,19.27,0,0,0,2.4.1c.6,0,1.8,0,2.2-.6s-.2-1.9-.6-2.4a2.66,2.66,0,0,0-1.1-1,4.26,4.26,0,0,0-2.5,0c-.6.1-.4.8.1.7Z"/><path d="M4.72,18.8c.9-2.1,3.2-2.9,5.3-3.1s4.5-.1,6.2,1.3c.4.3.9-.2.5-.5-1.9-1.6-4.7-1.7-7.1-1.4S4.92,16.4,4,18.7c-.2.4.5.6.7.1Z"/><path d="M16.52,25.6a2,2,0,0,0-2.1,1.5,2.53,2.53,0,0,0-.2,1.7,1.41,1.41,0,0,0,1.4,1,.4.4,0,0,0,0-.8.67.67,0,0,1-.7-.6,1.27,1.27,0,0,1,.1-.6c0-.1.1-.2.1-.3v-.2a2.18,2.18,0,0,1,.5-.8.91.91,0,0,1,.7-.3.55.55,0,0,0,.5-.3.32.32,0,0,0-.3-.3Z"/><path d="M40.52,11.6a7.36,7.36,0,0,1,3.6-.5,3.65,3.65,0,0,1,1.5.3,2.36,2.36,0,0,1,.9.8,10.14,10.14,0,0,1,1.6,2.6c.2.4.4.9.6,1.3s.5,1.1.2,1.4.2.8.5.5c.9-.7-.1-2.3-.4-3.1a10.74,10.74,0,0,0-2-3.2,5.24,5.24,0,0,0-1.1-1,5.26,5.26,0,0,0-1.7-.4,8.23,8.23,0,0,0-4.1.6.4.4,0,0,0,.4.7Z"/><path d="M49.82,17.8a.86.86,0,0,0-1.1-.6c-.3.1-.5.3-.8.4-.1.1-.3.1-.4.3a.35.35,0,0,0-.1.2c-.1.1,0,.1.1,0h.3l.1.2c0-.1.2-.1-.1.2h-.4c-.2-.1-.1-.2-.1,0v.2c0,.2.1.3.1.5.1.4.2.8.3,1.1.3,1,.6,1.9.9,2.9.4,1.2.8,2.4,1.1,3.6v-.3a2.34,2.34,0,0,1-1.2,1c-.4.1-.6-.1-1-.2a4.25,4.25,0,0,0-1.1-.2c-.6,0-1.5.3-1.5,1.1,0,.4.5.6.8.7a1.19,1.19,0,0,0,1.1-.4c.3-.4-.2-.9-.5-.5a.38.38,0,0,1-.7,0c0,.1.1.2.1.4.2-.7,1.5-.4,1.9-.1a1.68,1.68,0,0,0,1.9-.4c.3-.2,1-.8.9-1.2,0-.2-.2-.5-.2-.7-.4-1.4-.9-2.7-1.3-4.1-.2-.7-.4-1.5-.6-2.2a2.92,2.92,0,0,1-.2-.9c-.1-.2-.1-.5-.2-.7-.4-.6-1,.2-.7.7.2.3.5.2.7,0s.2-.3.4-.4.1-.1.2-.1.3-.2.3-.1c.4.2,1.1,0,1-.4Z"/><path d="M42.22,20.5c.3-.1.5-.3.4-.6a1.07,1.07,0,0,1-.2-.6.37.37,0,0,0-.6-.3c-.4.2-1-.1-1.4,0a8.43,8.43,0,0,0-1.4.6,8.51,8.51,0,0,1-3.1.9.4.4,0,0,0,0,.8,9,9,0,0,0,3.3-.9c.2-.1.5-.2.7-.3s.5-.2.7-.3a.88.88,0,0,1,.7.1,1.08,1.08,0,0,0,.8-.2l-.6-.3a1,1,0,0,0,.2.7l.1.1c.1.1,0-.4.1-.3a.35.35,0,0,1-.2.1c-.3,0,.1.7.5.5Z"/><path d="M41.82,20.1a4.88,4.88,0,0,0-.3.7c0,.1,0,.2-.1.2h0v.1h-.1c-.1,0-.2.1-.3.1s-.4.1-.6.1a8.92,8.92,0,0,1-2.8-.3c-.5-.1-.7.6-.2.7l1.5.3a4.85,4.85,0,0,0,1.7,0,1.54,1.54,0,0,0,1.3-.5c.1-.2.2-.3.3-.5s.1-.4.3-.6c.2-.4-.5-.8-.7-.3Z"/><path d="M46.72,30.8h0c-.1.1-.1.1-.2.1a4.33,4.33,0,0,0-.5.1c-.5.1-.9.2-1.3.3-.1,0-.3.1-.4.1h-.4c-.1,0-.1,0-.2-.1s-.3-.1-.5-.2c-.4-.2-.8.4-.4.6a2.46,2.46,0,0,0,1.1.4c.3,0,.6-.1.9-.1l1.5-.3c.5-.1,1-.3,1.1-.9a.43.43,0,0,0-.4-.4.45.45,0,0,0-.3.4Z"/><path d="M45.42,33.3c-.5.2-.7.7-1.1,1a.4.4,0,0,0-.2.4c.1.6.5.9.8,1.4a1.7,1.7,0,0,1-.4,2.7c-1.7,1.1-4.2,2-6.2,1a7.56,7.56,0,0,1-2.1-1.9,10,10,0,0,1-1.9-2.2,15.83,15.83,0,0,1-.9-3.1c-.3-1.1-.5-2.3-.8-3.4-.9-4.5-1.4-8.9.4-13.3,1.3-3.1,4.4-3.3,7.2-4.3.5-.2.3-.9-.2-.7-2.3.8-5.1,1-6.7,3a14.87,14.87,0,0,0-1.9,4.5,17.24,17.24,0,0,0-.2,6.4,46.19,46.19,0,0,0,1.1,6.3c.4,1.8.6,3.9,1.7,5.5a16.59,16.59,0,0,0,3.5,3.5,5.22,5.22,0,0,0,4.4.5c1.2-.4,3.8-1.2,4.1-2.6a3.28,3.28,0,0,0-.1-1.7c-.3-.8-1.1-1.1-1.3-1.9-.1.1-.1.3-.2.4.5-.2.7-.7,1.1-1,.8-.1.4-.7-.1-.5Z"/><path d="M22.32,24.7a7.45,7.45,0,0,0,1.1,2.4,1.43,1.43,0,0,1,.3,1.1.75.75,0,0,1-.7.5.4.4,0,0,0,0,.8,1.52,1.52,0,0,0,1.4-2.1,6.38,6.38,0,0,0-.8-1.4,5.17,5.17,0,0,1-.6-1.3c0-.4-.7-.4-.7,0Z"/><path d="M49.12,18.2V19h0a1.42,1.42,0,0,1-.2.6v.1h0v.1a.35.35,0,0,1-.1.2l-.3.6c-.1.2.1.4.3.5s.4-.1.5-.3v-.1h0a.1.1,0,0,1,.1-.1.35.35,0,0,1,.1-.2,1.42,1.42,0,0,0,.2-.6,4.4,4.4,0,0,0,.2-1.6.4.4,0,0,0-.8,0Z"/><path d="M45.92,33.8h0c.2.1.3.1.4,0a1.21,1.21,0,0,0,.5-.5.63.63,0,0,0-.1-.9,2,2,0,0,0-.8-.4,3.4,3.4,0,0,0-1-.1h-.7c-.2-.1-.4.1-.5.3a.55.55,0,0,0,.3.5,1.27,1.27,0,0,0,.6.1h.8a.6.6,0,0,1,.4.1h.4v0h0V33a.1.1,0,0,1-.1.1h0a.1.1,0,0,1-.1.1h0c-.1.1,0,0,.1,0h.1c-.1,0,.1.1,0,0a.37.37,0,0,0-.3-.1.43.43,0,0,0-.4.4c.1.1.2.3.4.3Z"/><path d="M46.52,28.8a.4.4,0,0,0,0-.8c-.5.1-.5.8,0,.8Z"/><path d="M42.62,19.5V19a1.38,1.38,0,0,0-.3.4,3.29,3.29,0,0,0,1.3-.7.45.45,0,0,0,0-.5.45.45,0,0,0-.5,0l-.2.2a.1.1,0,0,0,.1-.1,2.09,2.09,0,0,1-.6.4h.1c-.1,0-.2.1-.3.1s-.3.2-.3.4v.5a.43.43,0,0,0,.4.4c.2-.3.3-.4.3-.6Z"/><path d="M46.52,29.5c.2.4.3.7.5,1.1,0,.1.1.1.2.2h.3c.1-.1.2-.1.2-.2v-.3c-.2-.4-.3-.7-.5-1.1,0-.1-.1-.1-.2-.2h-.3c-.1.1-.2.1-.2.2a.19.19,0,0,0,0,.3Z"/><path d="M44.62,25.4a2,2,0,0,0-1.3,1.7,1.83,1.83,0,0,0,1.1,1.8c.2.1.4.1.5-.1s.1-.4-.1-.5-.1-.1-.2-.1a.1.1,0,0,1-.1-.1h0c-.1-.1-.2-.2-.2-.3a1.45,1.45,0,0,1-.2-.7,1.42,1.42,0,0,1,.2-.6h0l.1-.1.1-.1h0c.1,0,.1-.1.2-.1h.2a.55.55,0,0,0,.3-.5.86.86,0,0,0-.6-.3Z"/></g></g></svg>