<svg xmlns="http://www.w3.org/2000/svg" viewBox="0 0 65.23 52.61"><defs><style>.cls-1{fill:#fff;}.cls-2{fill:#adacac;}.cls-3{fill:#ccc;}.cls-4{fill:#4d4d4d;}</style></defs><g id="Layer_2" data-name="Layer 2"><g id="Layer_1-2" data-name="Layer 1"><path class="cls-1" d="M16.53,36.48a20.73,20.73,0,0,0,2.88,3l3.18,2.83a1.5,1.5,0,1,0,2.12-2.13l-3.1-2.74c-.46-.41-.92-.81-1.36-1.24-.22-.22-.45-.44-.66-.67l-.31-.35L19.14,35c0-.05-.27-.34,0,0a1.63,1.63,0,0,0-.9-.69,1.54,1.54,0,0,0-1.15.15,1.49,1.49,0,0,0-.69.9,1.41,1.41,0,0,0,.15,1.15Z"/><path class="cls-1" d="M12.4,30.6a12.15,12.15,0,0,0,1.47,3.8,1.5,1.5,0,1,0,2.59-1.51,11.69,11.69,0,0,1-.67-1.32l.15.35a11.06,11.06,0,0,1-.65-2.12,1.47,1.47,0,0,0-.69-.89,1.49,1.49,0,0,0-2,.53,1.67,1.67,0,0,0-.15,1.16Z"/><path class="cls-1" d="M8.64,36.27c.42.27.83.55,1.23.86l-.3-.24a15.67,15.67,0,0,1,2.73,2.73l-.24-.31c.29.38.56.77.82,1.17A1.5,1.5,0,1,0,15.47,39a17.08,17.08,0,0,0-5.32-5.28,1.51,1.51,0,0,0-2.05.54,1.53,1.53,0,0,0,.54,2.05Z"/><path class="cls-1" d="M18.69,50.36a1.78,1.78,0,0,1,.46,0l-.4-.06c.44.07.87.19,1.29.29l1.31.3a1.5,1.5,0,0,0,1.15-.15,1.53,1.53,0,0,0,.69-.89A1.5,1.5,0,0,0,22.14,48l-1.57-.37a7.1,7.1,0,0,0-1.88-.3,1.63,1.63,0,0,0-1.07.44,1.51,1.51,0,0,0-.43,1.06,1.49,1.49,0,0,0,.43,1.06,1.54,1.54,0,0,0,1.07.44Z"/><path class="cls-1" d="M24.18,44.05l1.73,0a2.28,2.28,0,0,1,.37,0s-.38-.17-.11,0a6.1,6.1,0,0,0,.71.39l.55.23.27.11.2.1c.12.07.31.21.1,0l.26.23c.06.07.25.35.06.06a6.16,6.16,0,0,1,.33.55c.05.09.09.19.13.28-.16-.32,0,0,0,.08.08.21.15.42.21.64.14.44.26.88.41,1.32a5.83,5.83,0,0,0,1.71,2.71,1.53,1.53,0,0,0,2.12,0,1.51,1.51,0,0,0,0-2.12,2.58,2.58,0,0,1-.5-.49c.22.27,0,0,0-.07a3.07,3.07,0,0,1-.17-.31,3.18,3.18,0,0,1-.16-.32c.15.32,0,0,0-.09s-.16-.46-.23-.69a10.46,10.46,0,0,0-1.2-3,4.73,4.73,0,0,0-1.36-1.35,7,7,0,0,0-1-.46l-.28-.11-.26-.13c-.27-.14-.52-.3-.8-.42A3,3,0,0,0,26.06,41c-.63,0-1.26,0-1.88,0a1.5,1.5,0,1,0,0,3Z"/><path class="cls-1" d="M32.5,49.08h0l.39-.05a2.44,2.44,0,0,1-.54,0l.4,0a3.27,3.27,0,0,1-.74-.21l.36.15c-.33-.15-.64-.34-.95-.51a3.12,3.12,0,0,0-.77-.34,2.48,2.48,0,0,0-1.21,0,1.5,1.5,0,0,0-1,1.84,1.46,1.46,0,0,0,.69.9,1.64,1.64,0,0,0,1.15.15h0l-.4,0h.21l-.4,0a1.11,1.11,0,0,1,.3.08L29.59,51c.22.1.41.23.62.34a7.34,7.34,0,0,0,1,.47,3.22,3.22,0,0,0,.69.2,3.94,3.94,0,0,0,.69.08A4.4,4.4,0,0,0,33.3,52a1.5,1.5,0,0,0,.89-.69,1.57,1.57,0,0,0,.16-1.16,1.54,1.54,0,0,0-.69-.89l-.36-.16a1.55,1.55,0,0,0-.8,0Z"/><path class="cls-1" d="M45.12,18.22A7.39,7.39,0,0,1,44,19c-.18.15-.28.35-.45.49a1.37,1.37,0,0,1-.47.23,5,5,0,0,0-2.33,1.57,5.6,5.6,0,0,1-1,.72c-.45.3-.86.66-1.27,1l-2.68,2.13a.75.75,0,0,0,0,1.06.77.77,0,0,0,1.06,0l2.61-2.07a12.36,12.36,0,0,1,1.22-.94,4.64,4.64,0,0,0,1.13-.83,3.91,3.91,0,0,1,.91-.86A10,10,0,0,1,44,21a2.15,2.15,0,0,0,.57-.37,5.6,5.6,0,0,1,.4-.45c.18-.14.42-.22.62-.36a4.44,4.44,0,0,0,.56-.5c.64-.72-.41-1.78-1.06-1.07Z"/><path class="cls-1" d="M33.61,24.69c-.69,0-1.38,0-2.07,0a.76.76,0,0,0-.75.75.77.77,0,0,0,.75.75c.69,0,1.38,0,2.07,0a.74.74,0,0,0,.53-.21.76.76,0,0,0-.53-1.29Z"/><path class="cls-1" d="M50.45,11.81a2.43,2.43,0,0,0-.7,1.42.71.71,0,0,0,.42.78.64.64,0,0,0,.83-.26.52.52,0,0,0-.44-.77c-.64-.07-.68.79-.68,1.22a3,3,0,0,1,0,.6c-.05.17,0,0,0,.08s-.07.08,0,.06,0,0-.06,0a6.18,6.18,0,0,0-1.44.4l-1.43.5a.52.52,0,0,0-.36.43.5.5,0,0,0,.24.5c.52.23.82-.11,1.14-.46l.88-.94,1.71-1.83-.84-.5a3,3,0,0,1-.53,1.31.51.51,0,0,0,.88.51,3.62,3.62,0,0,0,.62-1.55.5.5,0,0,0-.84-.49l-1.5,1.6-.73.78-.36.39c-.1.1-.22.27-.33.32l.26-.07H47l.26.07-.05,0-.12.92,1.39-.49a6.87,6.87,0,0,1,1.34-.39,1.1,1.1,0,0,0,1-.89,3,3,0,0,0,.07-.73c0-.11,0-.23,0-.34a.76.76,0,0,1,0-.15s.05-.1,0-.05l-.18.18,0,0-.26.07h0l-.44-.76,0-.05.22-.13c.11,0,.35.32.37.3s0-.09,0-.11a2.83,2.83,0,0,1,.11-.31,1,1,0,0,1,.28-.41.52.52,0,0,0,0-.72.51.51,0,0,0-.72,0Z"/><path class="cls-1" d="M49,15.81A3.48,3.48,0,0,1,46.94,17a2,2,0,0,0-1.46.87l.69-.19c-1.13-.58-2.19.86-3,1.49A39.31,39.31,0,0,1,38.9,22a11.59,11.59,0,0,0-1.72,1.13A5,5,0,0,0,36,24.78a7.14,7.14,0,0,1-1.12,1.75A3.84,3.84,0,0,0,34,28.15a.51.51,0,0,0,.93.4l.76-1.29c.35-.58-.49-1-.87-.51a1.1,1.1,0,0,0-.24.84.52.52,0,0,0,.87.36,30.13,30.13,0,0,1,3.16-2.71,40.23,40.23,0,0,1,3.15-2.71c2.47-1.58,4.77-3.4,7.11-5.17.52-.39,0-1.28-.51-.88l-3.73,2.83c-1.16.88-2.38,1.66-3.59,2.48S39,23.6,38,24.44a33.32,33.32,0,0,0-3.26,2.79l.87.36.09-.33-.87-.51L34,28l.93.39a3.74,3.74,0,0,1,1-1.52,6.5,6.5,0,0,0,.89-1.38,5.28,5.28,0,0,1,.9-1.54,8.25,8.25,0,0,1,1.56-1.06c1.14-.68,2.28-1.35,3.36-2.12.47-.33.92-.68,1.37-1,.23-.18,1.37-1.38,1.65-1.24a.52.52,0,0,0,.69-.18c.31-.42.71-.31,1.15-.39a1.64,1.64,0,0,0,.64-.3,5.46,5.46,0,0,0,1.57-1.13c.42-.49-.3-1.21-.72-.71Z"/><path class="cls-1" d="M36,23.44l-1.32.66.51.88.31-.21a.5.5,0,0,0,.23-.57.63.63,0,0,0-.62-.48,1.83,1.83,0,0,0-.78.31,3.54,3.54,0,0,1-1.48.2c-.52,0-1.3-.08-1.71.3s-.24,1-.18,1.49a11,11,0,0,1,0,2,4.23,4.23,0,0,0,.06,1.7.81.81,0,0,0,.59.54,1.33,1.33,0,0,0,.93-.31,3.32,3.32,0,0,0,1.37-1.06c.78-1.34,1.49-2.73,2.24-4.09a.5.5,0,0,0-.87-.51l-1.68,2.24a5.16,5.16,0,0,0-.61,1c-.08.22-.15.74-.46.7l.25.95a4.66,4.66,0,0,0,1.93-4,.51.51,0,0,0-.86-.36c-1,1-1.18,2.48-2,3.56l.86.36c.13-1,.29-1.93.48-2.89l-1-.14,0,1.79a2.08,2.08,0,0,0,.39,1.41.5.5,0,0,0,.79-.1,7,7,0,0,0,.77-3.47.51.51,0,0,0-.77-.43A7,7,0,0,0,30.9,28l1,.27a7.82,7.82,0,0,0,.22-2.64.53.53,0,0,0-.51-.51.51.51,0,0,0-.5.51A6.77,6.77,0,0,1,30.9,28a.51.51,0,0,0,1,.27,5.72,5.72,0,0,1,2-2.52l-.77-.44a5.94,5.94,0,0,1-.62,3l.79-.11a.6.6,0,0,1-.07-.35c0-.23,0-.46,0-.69V25.7c0-.55-.89-.71-1-.13-.2,1.05-.37,2.1-.51,3.16a.51.51,0,0,0,.86.36,7.58,7.58,0,0,0,1-1.85,5,5,0,0,1,1-1.71l-.86-.36a3.63,3.63,0,0,1-1.43,3.16.52.52,0,0,0,.26,1c1.11.14,1.27-1.25,1.72-1.92.6-.88,1.27-1.72,1.9-2.57l-.87-.51L33.7,27.11c-.24.44-.45.92-.73,1.33a1.3,1.3,0,0,1-.42.32l-.69.39s-.15.07-.15.09.29.08.24.14l0-.15a6.77,6.77,0,0,1,0-.78c0-.52.06-1,.05-1.55a9.41,9.41,0,0,0-.15-1.49,1,1,0,0,0,0-.17s.06-.1,0,0,0,0,0,0a6,6,0,0,0,.61,0,12.06,12.06,0,0,0,1.47-.07,3.27,3.27,0,0,0,.7-.18,2.53,2.53,0,0,0,.33-.16.75.75,0,0,0,.15-.09c0-.05.1,0-.05,0l-.23-.13,0,0-.13-.23,0,.06.23-.58-.31.21a.51.51,0,0,0,.51.88l1.32-.67c.58-.29.07-1.17-.51-.87Z"/><path class="cls-1" d="M29.88,25a6.12,6.12,0,0,1-.14,1.28,10.84,10.84,0,0,0-.12,1.29,11.58,11.58,0,0,0,.2,2.63.51.51,0,1,0,1-.26,10.77,10.77,0,0,1-.16-2.47,9.72,9.72,0,0,1,.12-1.21A5.93,5.93,0,0,0,30.9,25c0-.64-1.06-.65-1,0Z"/><path class="cls-1" d="M29.82,24.51c-.75.17-1.51.31-2.26.44l-1.12.17-.18,0-.19,0a1.23,1.23,0,0,0-.27,0l.11,0a.76.76,0,0,1,.28,1.25l-.45.27.09,0-.78-.1,0,0-.37-.37c.09-.74.07-.95-.06-.64l-.07.14-.15.33c-.1.23-.21.47-.31.71a11.1,11.1,0,0,0-.46,1.3A6.1,6.1,0,0,0,23.53,31a1,1,0,0,0,.71.71,1.09,1.09,0,0,0,1-.26c.09-.08.09-.08,0,0l.15-.11.24-.14.25-.12c-.2.09.14-.05.18-.07l.54-.13c-.24.05.15,0,.2,0h.31a10.25,10.25,0,0,0,1.36,0,5.6,5.6,0,0,0,1.7-.48,1,1,0,0,0,.46-1.15,1,1,0,0,0-1-.74c-1.35,0-2.69,0-4-.1l.71,1.73.21-.21.09-.08c-.13.13,0,0,0,0a3.6,3.6,0,0,1,.5-.29l.16-.07,0,0,.28-.11.62-.19a3.15,3.15,0,0,0,1.38-.59,1.53,1.53,0,0,0,.15-1.9,2.67,2.67,0,0,0-2.61-1c-1,.11-3,.59-2.7,2,.15.61.9,1,1.43,1.26a6.44,6.44,0,0,0,1.64.54,1,1,0,0,0,1.25-.71A1,1,0,0,0,28,27.53c-.2,0-.4-.08-.6-.13l-.32-.1s-.29-.12-.11,0l-.5-.26a1.43,1.43,0,0,1-.24-.16l-.16-.1q.14.11,0,0l.26.44,0-.06v.54c-.38.38-.47.51-.27.4l.13-.07.17-.09c-.17.08.12,0,.13,0l.23-.07.24-.06.15,0c-.12,0,.14,0,.16,0h.41c.25,0-.19-.06,0,0l.19.05c.11,0-.15-.1,0,0s.17.15.08.05h0l-.07-.08c0,.2,0-.16,0-.15l0-.12a.51.51,0,0,1,.33-.4c.06,0,.06,0,0,0l-.12,0-.21.06-.41.12a8.69,8.69,0,0,0-.86.29,4.56,4.56,0,0,0-1.76,1.13,1,1,0,0,0,.72,1.73c1.33.09,2.67.12,4,.1l-.52-1.89c.15-.07-.2.07-.23.08l-.3.08s-.42.08-.24.06l-.31,0c-.48,0-1,0-1.46,0A5.14,5.14,0,0,0,23.79,30l1.7.45s-.07-.42,0-.22c0-.13,0-.26,0-.4s0-.26,0-.39a1.5,1.5,0,0,1,0-.2c0,.11,0,.1,0,0a10.55,10.55,0,0,1,.45-1.55s.16-.38.1-.23c.05-.13.11-.25.17-.38a7.11,7.11,0,0,0,.4-.89A1.13,1.13,0,0,0,25,24.88,1.27,1.27,0,0,0,25,27a2.92,2.92,0,0,0,2,.06c1.13-.16,2.26-.36,3.38-.6a1,1,0,0,0,.71-1.25,1,1,0,0,0-1.25-.71Z"/><path class="cls-1" d="M24.05,24.89a4.45,4.45,0,0,1-.51.33l-.12.06c.1,0,.09,0,0,0l-.26.09-.27.06c-.24.05.12,0-.1,0h-.28s-.42,0-.19,0a1.05,1.05,0,0,0-1.25.71,1,1,0,0,0,.71,1.25,2.15,2.15,0,0,0,2-.62A1,1,0,0,0,24,25.68a1,1,0,0,0-.92-.62,39.06,39.06,0,0,1-4.19.07,1,1,0,0,0-1,1l0,2.86c0,1-.21,2.48,1,2.82a6.7,6.7,0,0,0,1.42.12c.45,0,.9.07,1.35.07,1,0,2.32-.27,2.61-1.41a9.72,9.72,0,0,0,.18-1.71c0-.54.07-1.09.09-1.64a1,1,0,0,0-.75-1,1.05,1.05,0,0,0-1.14.46,5.33,5.33,0,0,0-.75,1.75c-.07.27-.14.54-.22.8,0,.07-.05.14-.07.21s-.1.25,0,.12,0,.1-.06.12a1.59,1.59,0,0,1-.13.22l1.89.52.32-2.59c.07-.59.2-1.33-.45-1.67a2.24,2.24,0,0,0-1.45,0l-1.28.17a3.87,3.87,0,0,0-1.48.29,1.52,1.52,0,0,0-.6,1.54l.07,1.36a1,1,0,0,0,.74,1c1,.25,1.56-.66,2-1.34a9.64,9.64,0,0,0,.92-1.62L20.22,27,20,30.29,22,30l-.45-1.57c-.19-.67-.33-1.48-1.17-1.59a1.15,1.15,0,0,0-1.14.6,2.27,2.27,0,0,0-.2,1,10.11,10.11,0,0,0,.12,1.74,1,1,0,0,0,1.25.71,1,1,0,0,0,.71-1.25c0-.05,0-.15,0,0a1.49,1.49,0,0,0,0-.21c0-.16,0-.32,0-.48s0-.28,0-.42,0-.14,0-.21h0a.59.59,0,0,1-.17.33l-.44.26.05,0H20l.05,0-.45-.26,0,.05-.26-.45c.28.77.46,1.59.68,2.37a1,1,0,0,0,1.12.73,1,1,0,0,0,.88-1L22.25,27a1,1,0,0,0-1.89-.51,10.14,10.14,0,0,1-.67,1.26c-.13.19-.26.38-.4.56s0,0,0,0l-.12.15-.13.15c-.13.13-.07.12.17-.05h.54l-.07,0,.74,1,0-1,0-.45c0-.08,0-.15,0-.23v-.1c0-.13,0,0-.07.25l-.36.36a.31.31,0,0,1-.18,0l.22,0,.34,0,.78-.1.78-.11.34,0,.22,0c.17,0,.15,0-.06,0l-.6-.46,0,.05-.13-.51c0,.55-.13,1.1-.2,1.64l-.21,1.69a1,1,0,0,0,.75,1A1,1,0,0,0,23.14,31a6.36,6.36,0,0,0,.68-1.79,7.36,7.36,0,0,1,.24-.8c0-.07.05-.14.07-.2-.08.19,0,0,0,0a2.06,2.06,0,0,1,.25-.4l-1.89-.52c0,.51-.05,1-.08,1.53l-.06.73,0,.34c0,.07,0,.15,0,.22,0-.12,0-.12,0,0,0-.07.11-.13.16-.21s-.1.06,0,0,0,0-.06,0l-.2.05h-.06c.07,0,.05,0-.06,0h-.2c-.45,0-.89,0-1.34,0l-.69-.05-.37,0c-.13,0-.15,0,0,0a.63.63,0,0,1,.53.48c.06.27,0,0,0-.06s0-.3,0-.45v-.67l-.07-3-1,1a39.06,39.06,0,0,0,4.19-.07l-.72-1.73s-.19.15-.08.08-.21,0,.07,0l-.16,0c.12,0,.15,0,.07,0s-.05,0,.07,0l-.54,2a4.37,4.37,0,0,0,3.31-.77,1,1,0,0,0,.36-1.39,1,1,0,0,0-1.38-.36Z"/><path class="cls-1" d="M25.48,14l-1.63-.84a1,1,0,0,0-1.49,1.15,13.74,13.74,0,0,0,.79,2.14,6.88,6.88,0,0,1,.18,2.44l-.06,5.57a1,1,0,0,0,1.53.88A2.64,2.64,0,0,0,26,23H24a7.34,7.34,0,0,0,.51,2.27,1,1,0,0,0,2,0,9.8,9.8,0,0,0,.14-2.48l0-2.42A13.51,13.51,0,0,0,26.5,18a8.53,8.53,0,0,1-.3-2.29,1,1,0,0,0-1-1,1,1,0,0,0-1,1,7.29,7.29,0,0,0,.26,2.23,10.42,10.42,0,0,1,.15,2.23l0,2.32a8.89,8.89,0,0,1-.07,2.25h2A5.51,5.51,0,0,1,26,23a1,1,0,0,0-2,0c0,.24,0,.55-.19.64l1.52.88.06-5.79a8.4,8.4,0,0,0-.2-2.6,20.36,20.36,0,0,1-.84-2.3L22.83,15l1.62.84c1.16.6,2.19-1.16,1-1.76Z"/><path class="cls-1" d="M8.58,18.54a21.2,21.2,0,0,0,2,1.56c.24.16.54-.22.31-.4a12,12,0,0,0-1.53-1A.26.26,0,0,0,9,19,3.17,3.17,0,0,0,10,20.47a4.82,4.82,0,0,1,1.16,1.91c.06.22.44.26.48,0a3.2,3.2,0,0,0-1.1-2.58c-.2-.22-.53.06-.4.31a3.31,3.31,0,0,0,1.33,1.32.25.25,0,0,0,.37-.28,2.33,2.33,0,0,0-1-1.3c-.2-.13-.5.14-.35.35a6.45,6.45,0,0,0,2.34,2,.26.26,0,0,0,.35-.35,3,3,0,0,0-1.69-1.27c-.29-.12-.41.31-.2.46l4.88,3.73c.26.19.52-.25.26-.44l-4.88-3.73-.2.47a2.41,2.41,0,0,1,1.39,1l.35-.35A5.86,5.86,0,0,1,11,19.94l-.34.35a1.75,1.75,0,0,1,.72,1l.37-.28a2.87,2.87,0,0,1-1.14-1.15l-.4.31a2.73,2.73,0,0,1,1,2.08h.48a5.26,5.26,0,0,0-1-1.77c-.42-.52-1.12-.94-1.25-1.64l-.38.29a11.37,11.37,0,0,1,1.43.94l.31-.4a20.87,20.87,0,0,1-1.89-1.48c-.24-.21-.6.15-.35.36Z"/><path class="cls-1" d="M16.62,24.64a28.6,28.6,0,0,1-2.34-2.05,23.87,23.87,0,0,0-2.54-2,.51.51,0,0,0-.62.8l3.4,4.3a.51.51,0,0,0,.86-.36l0-.38-.15.36v0l-.25.07a.34.34,0,0,0-.14-.09l-.07-.25s0,0,0,0l-.14,0a1,1,0,0,1-.38,0c-.14-.08-.16-.33-.2-.47a5.38,5.38,0,0,0-.66-1.49,12.44,12.44,0,0,0-2.18-2.46c-.4-.37-1.15.13-.8.62l2.09,2.89c.33.45.64.94,1,1.37a1,1,0,0,0,1.25.29,1,1,0,0,0,.4-1.13,1.81,1.81,0,0,0-1-1,6.72,6.72,0,0,1-1.75-1.93c-.55-.77-1.34-2.07-2.44-2a.52.52,0,0,0-.36.87,9.87,9.87,0,0,1,1.46,1.88A.51.51,0,0,0,12,22,11.62,11.62,0,0,0,10.36,20l-.36.87c.42,0,.77.44,1,.73s.54.72.8,1.09a6.78,6.78,0,0,0,1.87,1.94,1.79,1.79,0,0,1,.48.38s0,.05,0,.05,0,.05,0,0a.22.22,0,0,1,.16,0l-.2-.24-.22-.3-.51-.71-2.12-2.95-.8.62a13.53,13.53,0,0,1,1.8,1.91,5.29,5.29,0,0,1,.63,1.11,5.73,5.73,0,0,0,.43,1.2c.47.71,2.05.75,2.36-.15a.76.76,0,0,0-.54-1,.74.74,0,0,0-.64.15c-.23.22-.18.49-.15.78l.86-.35-3.39-4.31-.62.8a20.56,20.56,0,0,1,2.51,1.95,29,29,0,0,0,2.38,2.06c.53.37,1-.51.51-.88Z"/><path class="cls-1" d="M16.51,25.89c.3,1.78.52,3.56.66,5.36l1.42-.39a18.06,18.06,0,0,0-1.85-2.66c-.29-.38-.58-.75-.86-1.15a5.73,5.73,0,0,0-1-1.35L14.36,27l2.38.06L16,26.3a7.92,7.92,0,0,0,1,4.15.78.78,0,0,0,1,.27.77.77,0,0,0,.27-1,6.53,6.53,0,0,1-.79-3.38.77.77,0,0,0-.76-.76l-2.38-.06a.76.76,0,0,0-.54,1.3,5.65,5.65,0,0,1,.81,1.12c.31.44.64.87,1,1.3a16.82,16.82,0,0,1,1.66,2.43.77.77,0,0,0,1.42-.38q-.23-2.89-.72-5.76A.75.75,0,0,0,17,25a.77.77,0,0,0-.53.93Z"/><path class="cls-1" d="M18.74,26.8h1.4a11.37,11.37,0,0,1,1.43,0c.17,0,.35.1.53.14a2.75,2.75,0,0,0,.7,0c.49,0,1-.06,1.46-.09a.79.79,0,0,0,.76-.77.77.77,0,0,0-.76-.76l-1.41.1a10.16,10.16,0,0,1-1.28-.19c-.93-.07-1.9,0-2.83,0a.76.76,0,0,0,0,1.52Z"/><path class="cls-1" d="M23.64,25.47c-.3,1.57-.61,3.13-.95,4.68a4.48,4.48,0,0,1-.11.5l0,.11,0-.05a.24.24,0,0,1,.18-.13c.08,0,.07,0-.05,0-.38,0-.78,0-1.17,0s-.75,0-1.12,0l-.53,0-.22,0-.1,0q-.25-.06.15.15l.11.39c0,.06,0,.05,0-.05a.61.61,0,0,0,.05-.12,1.61,1.61,0,0,0,.09-.29,4.28,4.28,0,0,0,.12-.73A5.58,5.58,0,0,0,20,28.64c-.06-.44-.14-.87-.22-1.31,0-.17-.06-.34-.08-.51l0-.3c0-.07,0-.13,0-.2s0-.09,0,.13l-.27.27s-.23,0-.08,0h.28l.51,0h2.2s.15,0,.18,0c-.12.07-.3-.32-.36-.28s0,.26,0,.3c-.16.61-.5,1.16-.69,1.76a7.15,7.15,0,0,0-.29,2.1.75.75,0,0,0,.66.75.76.76,0,0,0,.83-.54,7.59,7.59,0,0,0,.05-2.56,1.72,1.72,0,0,0-1.2-1.57.79.79,0,0,0-.94.53,13.73,13.73,0,0,0-.73,3.58l1.49-.2a18.19,18.19,0,0,0-1.17-4.23.77.77,0,0,0-.86-.35.78.78,0,0,0-.56.74l-.13,3.78a.76.76,0,0,0,1.52,0l.13-3.78-1.42.38a16.61,16.61,0,0,1,1,3.87.76.76,0,0,0,.84.54.77.77,0,0,0,.66-.75A12.38,12.38,0,0,1,22,27.62l-.94.53c.09,0,.09,0,0,0h0c-.05-.18.08.2,0,0a2,2,0,0,1,.11.59,5.86,5.86,0,0,1-.06,1.62l1.5.2a5.68,5.68,0,0,1,.47-2.33c.34-.76.93-1.94.25-2.7a1.6,1.6,0,0,0-1.27-.38c-.49,0-1,0-1.47,0s-.9,0-1.35,0a1,1,0,0,0-1.07,1,16.45,16.45,0,0,0,.37,2.6,5.43,5.43,0,0,1,0,1c0,.39-.27.78-.28,1.2,0,1.21,1.61,1.14,2.43,1.12l1.31,0a2.89,2.89,0,0,0,1.49-.25,2,2,0,0,0,.65-1.37L24.5,29c.21-1,.41-2.05.61-3.08a.79.79,0,0,0-.54-.94.76.76,0,0,0-.93.53Z"/><path class="cls-1" d="M2.37,16.39c0,.76.61,1.11,1.19,1.47a8.45,8.45,0,0,1,1.81,1.57c1.06,1.18,1.91,2.53,3,3.71a14.81,14.81,0,0,0,1.93,1.78c.13.11.35.37.52.41s-.13-.1,0-.12a1.38,1.38,0,0,0-.27.23,10,10,0,0,1-1.06.78,4.17,4.17,0,0,1-1.15.54,1.25,1.25,0,0,1-.35.08c-.12,0,.32.26-.06-.06-.17-.14-.26-.54-.36-.74-.41-.9-.79-1.81-1.13-2.73A32,32,0,0,0,4,17.39c-.35-.55-1.23,0-.88.52,1.15,1.81,1.62,4,2.39,6,.38,1,.8,2,1.26,3,.15.32.28.75.6.94a1.72,1.72,0,0,0,1.26-.05A7.39,7.39,0,0,0,11,26.33c.61-.49,1.22-1.07.47-1.76s-1.59-1.26-2.28-2S8,21.15,7.47,20.43a19.4,19.4,0,0,0-1.89-2.25,9.68,9.68,0,0,0-1-.88c-.25-.18-1.15-.55-1.15-.91a.51.51,0,0,0-1,0Z"/><path class="cls-1" d="M3.32,18.13a3.46,3.46,0,0,0,1.35,2.09l2,1.94,4,4,.16-1.2c.05,0-.16-.07-.21-.09s-.27-.17-.4-.25a6.92,6.92,0,0,1-.69-.52A14.82,14.82,0,0,1,8.12,22.8c-.85-.9-1.62-1.89-2.38-2.87a.78.78,0,0,0-1-.27.77.77,0,0,0-.27,1l1.16,1.75A12.17,12.17,0,0,1,6.68,24.2,12.43,12.43,0,0,1,7.14,26a14.43,14.43,0,0,0,.73,2c.27.63,1.23.4,1.39-.18L9.5,27a3.26,3.26,0,0,1,.19-.66l-.27.27.11-.05-.59.07c.1,0,.15.17.25.2l.06.09a.23.23,0,0,1,.05-.21l.39-.1c.07,0,.05.1,0-.05l-.15-.23-.39-.63-.84-1.34L6.64,21.76c-.27-.43-1.07-.55-1.31,0-.44,1,.23,1.8.71,2.63l1.57,2.69A.76.76,0,0,0,9,26.49,9.51,9.51,0,0,0,8,24.2c-.33-.51-1.27-.5-1.4.18a3.69,3.69,0,0,0,1.14,3.48c.74.65,1.82-.43,1.08-1.07a2.17,2.17,0,0,1-.75-2L6.63,25a7.78,7.78,0,0,1,.9,1.94l1.39-.59-1.2-2.06-.55-.95-.28-.47c0-.08-.18-.46-.25-.3H5.33l2.12,3.39c.51.83,1.33,2.75,2.62,2.12s.65-1.95-.13-2.58a1,1,0,0,0-1.61.19,8.77,8.77,0,0,0-.54,1.81l1.39-.18a12,12,0,0,1-.64-1.92A8.68,8.68,0,0,0,8,23.43a12.57,12.57,0,0,0-1-1.67L5.74,19.93l-1.31.77A35.6,35.6,0,0,0,7.5,24.34a14.69,14.69,0,0,0,1.77,1.47,2.21,2.21,0,0,0,2.28.44.78.78,0,0,0,.15-1.2L8.11,21.49,6.35,19.74l-.88-.87c-.16-.16-.61-.49-.63-.74-.08-1-1.61-1-1.52,0Z"/><path class="cls-1" d="M11.49,26.89l3.36,3.89c.21.24.49.41.43.73a7.84,7.84,0,0,1-.43,1.14l-.91,2.45,1.27-.34A15.47,15.47,0,0,1,12,30.83a6.64,6.64,0,0,0-1.3-1.76,3.65,3.65,0,0,0-.94-.62c-.15-.07-.3-.16-.45-.22s-.09,0-.12-.14l-.73,1a4.34,4.34,0,0,0,2-.68c.55-.26.86-.21,1.18.33s.66,1.34,1,2a8.43,8.43,0,0,0,1.6,1.92.76.76,0,0,0,1.07-1.08q-2.58-2.93-5.3-5.74a.77.77,0,0,0-1.3.54c0,1.27.89,2.33,1.56,3.33L12.55,33l1.2-.92a32.43,32.43,0,0,1-3.5-4c-.56-.79-1.88,0-1.31.77q2.61,3.75,5,7.65c.51.83,1.83.07,1.32-.77q-2.4-3.9-5-7.65l-1.31.77a34.73,34.73,0,0,0,3.73,4.31c.6.6,1.69-.19,1.19-.92l-2-3c-.33-.48-.65-1-1-1.44a2.52,2.52,0,0,1-.59-1.44L9,26.85q2.7,2.82,5.3,5.74l1.07-1.08a7.52,7.52,0,0,1-1.6-2,10.45,10.45,0,0,0-1.23-2.13,2.08,2.08,0,0,0-2.12-.59c-.64.18-1.23.77-1.91.77a.78.78,0,0,0-.74,1c.18.8.9,1.05,1.55,1.4a4.21,4.21,0,0,1,1.42,1.7,16.61,16.61,0,0,0,3.41,4.24.78.78,0,0,0,1.28-.34l1-2.71c.34-.91.66-1.68,0-2.53-1.21-1.53-2.56-3-3.84-4.44-.64-.75-1.71.33-1.07,1.07Z"/><path class="cls-1" d="M14.83,27.36a3.17,3.17,0,0,0,1.92-.76c.13-.08.27-.15.4-.24s.11-.05,0,0a.33.33,0,0,1-.33-.08s-.11-.18-.08-.18-.05.87-.05,1a10.51,10.51,0,0,0,.23,2c.07.34.14.67.2,1,0,.14,0,.17,0,.29s0,0,0,0,.07-.08.1-.08l.86.35-.68-1.3a4.53,4.53,0,0,0-.71-1.2c-.1-.09-.22-.15-.32-.23.09.08-.08-.1,0,0a5.35,5.35,0,0,1-.39-.58L15.21,26a.79.79,0,0,0-1.05-.28.77.77,0,0,0-.27,1L14.71,28a4.14,4.14,0,0,0,.92,1.12c.06,0,.11.11,0,0,.05.07.09.16.13.23s.22.44.34.65l.67,1.3a.78.78,0,0,0,.86.35,1.3,1.3,0,0,0,1-1,3.38,3.38,0,0,0-.11-1.34,11.64,11.64,0,0,1-.32-2.42,3.84,3.84,0,0,0,0-1.22A1.2,1.2,0,0,0,17,24.84a3,3,0,0,0-1.25.58l-.53.32a.51.51,0,0,1-.4.1.77.77,0,0,0-.77.76.79.79,0,0,0,.77.76Z"/><path class="cls-1" d="M22.8,32.42A21.93,21.93,0,0,0,23.55,37a28.81,28.81,0,0,0,1.67,4.21l-.1-.38v.07l.1-.38-.05.07.28-.27a3.41,3.41,0,0,1-.74.09l-1,.14a7.74,7.74,0,0,1-1.79.2l.39.1-.11-.06.27.27c.07.13,0,.06,0,0a2.81,2.81,0,0,0,0-.29c0-.2,0-.41-.07-.62a8.24,8.24,0,0,0-.22-1.1,19.65,19.65,0,0,0-.81-2.22,11.23,11.23,0,0,1-1.2-4.36l-1,.73A8.32,8.32,0,0,0,23,33l-1-.73a24.28,24.28,0,0,0,1.41,8.19l1.39-.58a40,40,0,0,1-2.66-6.59.77.77,0,0,0-1.5.2,36.71,36.71,0,0,0,.62,6.7l1.47-.4A34.13,34.13,0,0,0,20,32.06c-.29-.63-1.22-.4-1.4.18a3.53,3.53,0,0,0,.25,2.07l.64,2.15,1.27,4.31a.76.76,0,0,0,1.47-.4L21,36.4l-.57-1.89-.3-1a1.45,1.45,0,0,1-.12-.84l-1.39.18a32.7,32.7,0,0,1,2.68,7.39c.18,1,1.64.56,1.47-.4a34.18,34.18,0,0,1-.57-6.3l-1.49.2a42.8,42.8,0,0,0,2.82,7c.4.74,1.68.23,1.39-.59a23,23,0,0,1-1.36-7.79.76.76,0,0,0-1-.73,6.58,6.58,0,0,1-3,.1.77.77,0,0,0-1,.74,10.94,10.94,0,0,0,1.06,4.3A12.29,12.29,0,0,1,21,40.78a2,2,0,0,0,.18,1,1.17,1.17,0,0,0,1.23.42l2.82-.38a2,2,0,0,0,1.16-.35,1,1,0,0,0,.12-1.15c-.35-.75-.71-1.48-1-2.26a20,20,0,0,1-1.17-5.67c-.06-1-1.58-1-1.53,0Z"/><path class="cls-1" d="M17.57,31.93c-.3,1.73.34,3.29.85,4.91a37,37,0,0,1,1.15,4.87.77.77,0,0,0,1.5-.2c-.13-1.55-1.28-2.42-2.42-3.31a4.81,4.81,0,0,1-1.24-1.38,3.84,3.84,0,0,0-1.34-1.46.78.78,0,0,0-1.15.66,1.28,1.28,0,0,0,.65,1.19.77.77,0,0,0,1-.28,13.34,13.34,0,0,0,1.67-5.1.76.76,0,0,0-1.41-.38,18.22,18.22,0,0,0-.93,2.35c-.2.64-.73,1.78-.15,2.35s1.61,0,2.21-.26a7.15,7.15,0,0,0,1.86-1.32l-1.27-.74c-.49,2.56.24,5.05,1,7.48.3.92,1.77.52,1.46-.41-.7-2.13-1.47-4.4-1-6.67a.77.77,0,0,0-1.28-.74,5,5,0,0,1-2.55,1.43h.41l-.11,0,.53.53a3.07,3.07,0,0,1,.19-.68c.08-.29.17-.58.26-.86a15,15,0,0,1,.67-1.65l-1.42-.39a11.64,11.64,0,0,1-1.46,4.33l1-.27.11.13-1.15.65a2.69,2.69,0,0,1,.9,1.1,5.49,5.49,0,0,0,1.16,1.34c.75.62,2.09,1.3,2.19,2.4l1.49-.2A37.17,37.17,0,0,0,20,36.78c-.42-1.4-1.21-3-.95-4.44a.79.79,0,0,0-.53-.94.77.77,0,0,0-.94.53Z"/><path class="cls-1" d="M19.83,42.54a4.88,4.88,0,0,0,.57,2.18c.28.63.55,1.26.86,1.88A12.36,12.36,0,0,0,23.67,50l.93-1.19c-2.2-1.68-4.37-3.38-6.53-5.11l-1.54-1.24-.81-.65c-.14-.12-.63-.39-.67-.57a3,3,0,0,1,.25-.8c.07-.29.13-.57.18-.86a15.48,15.48,0,0,0,.22-2l-1.3.54a15.18,15.18,0,0,0,3.17,3,4.64,4.64,0,0,1,2.37,3.19l1.41-.38c-1.46-2.24-3.09-4.53-5.77-5.34a.77.77,0,0,0-1,.73c-.08.69.54,1.31,1,1.76a14.65,14.65,0,0,0,1.6,1.35,8.34,8.34,0,0,1,2.71,2.77l1.05-1c-2.24-1.32-4.44-2.71-6.6-4.14-.61-.41-1.5.42-1,1a16.79,16.79,0,0,0,3,2.81L20,46.78l.92-1.2a23.56,23.56,0,0,0-3.56-1.85c-.56-.23-1.14-.43-1.71-.64a2.07,2.07,0,0,1-1.16-.77l-.28,1a.29.29,0,0,1,.3,0c.86.47,1.63-.84.77-1.32a1.86,1.86,0,0,0-1.83,0,.77.77,0,0,0-.28,1c.66,1.09,1.86,1.38,3,1.79a20.85,20.85,0,0,1,4,2c.72.45,1.61-.65.93-1.2l-3.46-2.78a16.66,16.66,0,0,1-3-2.65l-1,1q3.24,2.16,6.6,4.15c.69.41,1.36-.39,1-1.05a8,8,0,0,0-2.46-2.7c-.48-.37-1-.72-1.43-1.11-.23-.2-.45-.4-.66-.61s-.56-.49-.53-.69l-1,.74c2.27.68,3.64,2.76,4.87,4.64.37.56,1.51.42,1.42-.39a5.58,5.58,0,0,0-2.32-3.93c-.64-.48-1.33-.89-1.92-1.43A18.81,18.81,0,0,1,15.47,37c-.44-.54-1.28-.07-1.3.53a10.66,10.66,0,0,1-.27,2.18,4.05,4.05,0,0,0-.29,2c.19.58.77.94,1.22,1.3l1.8,1.46q3.57,2.85,7.2,5.63c.69.53,1.54-.61.92-1.19A10.58,10.58,0,0,1,22.67,46c-.27-.53-.52-1.07-.76-1.61a4.14,4.14,0,0,1-.55-1.86c.05-1-1.47-1-1.53,0Z"/><path class="cls-1" d="M14.27,40.64s.36-.64.41-.79a4.76,4.76,0,0,0,.2-1,5,5,0,0,0,0-2c-.23-.74-.92-1.08-1.53-1.46l-2.08-1.31L7.08,31.45a4.71,4.71,0,0,1-1.55-1.28,3.18,3.18,0,0,0-1.29-1.28.78.78,0,0,0-1,.19.75.75,0,0,0,.06,1,11.71,11.71,0,0,1,2.47,2.45,22.56,22.56,0,0,0,2,3c1.72,1.91,3.65,3.66,5.47,5.47a.77.77,0,0,0,1.3-.54A4,4,0,0,0,14,38.35a14,14,0,0,0-1.06-1.84A14.38,14.38,0,0,0,10,33.33a.79.79,0,0,0-1.07,0,.76.76,0,0,0,0,1.08,13.1,13.1,0,0,1,2.6,2.71,12.8,12.8,0,0,1,1,1.58A3.22,3.22,0,0,1,13,40.48l1.3-.53c-1.82-1.81-3.75-3.56-5.46-5.47a33.45,33.45,0,0,1-1.94-3A13.42,13.42,0,0,0,4.39,29L3.47,30.2c.47.2.67.65,1,1.05a5.23,5.23,0,0,0,1.5,1.27l4,2.5,1.89,1.19,1,.65c.24.15.51.25.59.53a4.29,4.29,0,0,1-.15,1.88c-.19.64-.66,1.07-.47,1.78a.76.76,0,0,0,1.47-.41Z"/><path class="cls-1" d="M9.07,36.83A7.82,7.82,0,0,1,5,35.37c-.71-.5-1.53.6-.92,1.2a7.87,7.87,0,0,0,1.75,1.28c.68.37,1.38.67,2,1.1,1.37.9,2.73,1.84,4.09,2.75.65.44,1.43-.41,1.05-1a8.65,8.65,0,0,0-3.06-3A.76.76,0,0,0,9.16,39a6.88,6.88,0,0,1,2.51,2.43l1-1c-1.32-.89-2.64-1.79-4-2.68-1.18-.78-2.56-1.22-3.58-2.22l-.93,1.2a9.38,9.38,0,0,0,4.85,1.66c1,.06,1-1.47,0-1.52Z"/><path class="cls-1" d="M10.39,41l.92,1.32a2.17,2.17,0,0,1,.56,1.18,5.88,5.88,0,0,0,0,1.39A1.66,1.66,0,0,0,12.7,46a.76.76,0,0,0,1.11-.86,6,6,0,0,0-.7-1.49A10.25,10.25,0,0,0,12,42.45c-.74-.77-1.21-1.75-2-2.47a21.72,21.72,0,0,1-2.29-2,4.69,4.69,0,0,0-2.12-1.82c-.93-.31-1.33,1.16-.4,1.46.69.23,1.11,1.05,1.56,1.57a21.41,21.41,0,0,0,2.18,1.86,19.61,19.61,0,0,1,1.76,2.21c.33.39.74.68,1.06,1.07a4.09,4.09,0,0,1,.6,1.2l1.11-.86c-.19-.11-.11-.55-.1-.73a3.11,3.11,0,0,0-.13-1.39,12.42,12.42,0,0,0-1.52-2.35.78.78,0,0,0-1-.27.77.77,0,0,0-.28,1Z"/><path class="cls-1" d="M12.59,43.61a21.16,21.16,0,0,0,2.74,2.16l3.21,2.3,3.16,2.27A6.93,6.93,0,0,0,24.8,52c.85.09,1-1.32.2-1.5A23.43,23.43,0,0,0,21.17,50l-2-.08-1.06-.05a2.44,2.44,0,0,1-.81-.08,2.52,2.52,0,0,1-.52-.64c-.2-.25-.38-.5-.56-.75-.34-.48-.67-1-1-1.47a25.07,25.07,0,0,1-1.7-3.3l-.86,1.12A4.8,4.8,0,0,1,14.23,46a14,14,0,0,1,1.48,1.5c.75.92,1.06,2.34,2.15,2.92A.78.78,0,0,0,19,49.94a2,2,0,0,0-.39-1.8c-.41-.66-.84-1.3-1.28-1.94-.74-1.06-1.52-2.44-2.7-3.07l-.77,1.32a17.69,17.69,0,0,1,4.65,3.36c.71.65,1.4,1.31,2.12,1.94a6.83,6.83,0,0,0,2.44,1.69l.2-1.5a7,7,0,0,1-6.4-3.2c-.56-.79-1.88,0-1.32.77,1.77,2.48,4.56,4.31,7.72,4,.8-.09,1.09-1.25.2-1.49a3.68,3.68,0,0,1-1.26-.86l-1-.88c-.69-.62-1.36-1.27-2-1.89a18.23,18.23,0,0,0-4.54-3.21c-.87-.4-1.65.85-.77,1.32a7.07,7.07,0,0,1,2,2.34c.32.45.63.91.93,1.37.19.3.85,1,.71,1.37l1.12-.45c-.52-.28-.7-1-1-1.48a9.68,9.68,0,0,0-1.26-1.66,21,21,0,0,0-1.53-1.45,5,5,0,0,0-1.75-1.18.77.77,0,0,0-.86,1.12,26.7,26.7,0,0,0,1.81,3.48c.35.55.72,1.09,1.1,1.62A11.43,11.43,0,0,0,16.35,51a2.41,2.41,0,0,0,1.66.4l2.24.09A26.52,26.52,0,0,1,24.6,52l.2-1.5a3.14,3.14,0,0,1-1.37-.75l-1.34-1-3-2.13-2.84-2a19.89,19.89,0,0,1-2.61-2,.76.76,0,0,0-1.08,1.07Z"/><path class="cls-1" d="M15.23,41.93a12.27,12.27,0,0,0,.83-4.48c0-.93-1.18-1-1.5-.2-.46,1.1,1,2.36,1.77,3,1.08.87,2.26,1.63,3.41,2.43a6.85,6.85,0,0,1,.83.58c.23.22.19.5.25.79a7.77,7.77,0,0,0,.68,1.79c.64,1.37,1.31,2.72,2,4.07l1.2-.93a41.5,41.5,0,0,0-5-4.26C18,43.48,16,42.57,14.6,41.05l-.53,1.3c.22,0,.69.45.85.57l.93.64c.6.41,1.19.8,1.79,1.19q1.86,1.2,3.76,2.31a.76.76,0,0,0,.92-1.19A13.71,13.71,0,0,0,19,43.35a32.14,32.14,0,0,1-3.75-3,.77.77,0,0,0-1.2.92,4.42,4.42,0,0,0,1.52,1.49c.63.43,1.18.93,1.78,1.39a10.19,10.19,0,0,0,4.46,1.68.77.77,0,0,0,.74-1.27c-2-2.24-5.1-3.29-6.88-5.74l-1,1a37.44,37.44,0,0,1,4.86,3.11c.78.59,1.54-.73.77-1.31a35.44,35.44,0,0,0-4.86-3.11c-.62-.33-1.52.38-1,1,1.88,2.6,5,3.69,7.12,6l.74-1.27a9.06,9.06,0,0,1-3.95-1.4c-.53-.41-1-.87-1.56-1.26a4,4,0,0,1-1.34-1.19l-1.2.92a37.58,37.58,0,0,0,3.73,3A14.75,14.75,0,0,1,21.24,47l.93-1.2q-2.1-1.23-4.14-2.56c-.66-.43-1.32-.87-2-1.33s-1.24-1.1-2-1a.77.77,0,0,0-.54,1.3c1.41,1.51,3.37,2.43,5,3.61a39.59,39.59,0,0,1,5,4.28.77.77,0,0,0,1.2-.92c-.63-1.21-1.23-2.42-1.81-3.65a8.81,8.81,0,0,1-.68-1.65c-.15-.6-.13-1.14-.61-1.6a13.25,13.25,0,0,0-1.5-1.08L18.58,40c-.5-.35-1-.7-1.49-1.1-.18-.17-1.16-1-1.06-1.23l-1.49-.2a11.11,11.11,0,0,1-.78,4.07c-.35.92,1.12,1.31,1.47.41Z"/><path class="cls-1" d="M17.3,32.25a17.76,17.76,0,0,0,1.26,4.43,30.85,30.85,0,0,1,1,4.47L21,40.56a21.32,21.32,0,0,0-2-2.77,8.92,8.92,0,0,0-1.24-1.14A8,8,0,0,0,17,36.2a3.28,3.28,0,0,1-.62-.32l.19.34,0-.13v.4a3.28,3.28,0,0,1,.47-1c.2-.36.41-.71.59-1.07a4.93,4.93,0,0,0,.59-2.31.77.77,0,0,0-1.42-.39,8.39,8.39,0,0,0-.64,1.4c-.33.93,1.14,1.33,1.47.41a6.15,6.15,0,0,1,.49-1l-1.42-.38a5.24,5.24,0,0,1-1,2.61,4.59,4.59,0,0,0-.62,1.35c-.12.63.29,1,.81,1.24,1.7.82,2.77,2.47,3.77,4a.77.77,0,0,0,1.4-.59,31.66,31.66,0,0,0-1-4.31c-.21-.68-.44-1.35-.7-2a7,7,0,0,1-.56-2.16c0-1-1.55-1-1.52,0Z"/><path class="cls-1" d="M25.81,42c-.47.81.1,1.63.48,2.35s.89,1.68,1.36,2.51c.92,1.63,1.89,3.22,2.91,4.79l.66-1.14a30.9,30.9,0,0,1-3.6-.2c-.35,0-1.05,0-1.29-.27a4.28,4.28,0,0,1-.4-.69l-.41-.75a46.42,46.42,0,0,1-2.72-6.17l-.73,1c.66,0,1.32-.05,2,0,.32,0,.63,0,1,0l.52,0,.17,0c.21,0,.23,0,.05,0l-.2-.34c.44,1.18.83,2.37,1.35,3.52A29.59,29.59,0,0,0,28.71,50c.44.69,1.72.25,1.39-.59a40.09,40.09,0,0,0-1.83-4.2,6.74,6.74,0,0,0-2.56-2.88.77.77,0,0,0-1.12.45,3.27,3.27,0,0,0,.57,2c.3.63.63,1.25.94,1.87a18.32,18.32,0,0,1,1.5,3.84l.53-.94-.11,0h.41c-.1,0-.42-.54-.51-.66-.21-.28-.41-.56-.6-.85-.37-.56-.7-1.13-1-1.71-.66-1.2-1.23-2.44-1.8-3.68a.77.77,0,0,0-1.2-.15,2,2,0,0,0-.15,2,15.26,15.26,0,0,0,.82,2,12.83,12.83,0,0,1,1.46,3.77l1.3-.54A8.66,8.66,0,0,1,25,46.27a14.62,14.62,0,0,0-2.07-4,.77.77,0,0,0-1.39.19c-.48,1.89.74,3.67,1.58,5.28l1.33,2.52a2.72,2.72,0,0,0,.71,1.05,1.12,1.12,0,0,0,1.27,0c.81-.54.05-1.86-.77-1.31H26c0,.06,0,.07,0,0L26,50l-.25-.48-.5-.94-1-2c-.56-1.07-1.55-2.43-1.23-3.71L21.58,43a14.28,14.28,0,0,1,2.06,4,9.34,9.34,0,0,0,2,3.79c.42.42,1.39.15,1.3-.54a12.16,12.16,0,0,0-1.26-3.68c-.27-.56-.55-1.11-.79-1.69-.11-.27-.21-.54-.3-.82s-.21-.56-.11-.8l-.2.33.08-.1-1.2-.15c.68,1.46,1.35,2.91,2.16,4.3a20.22,20.22,0,0,0,1.31,2c.46.61,1,1.53,1.89,1.27a.78.78,0,0,0,.53-.94,18.21,18.21,0,0,0-1.37-3.62c-.28-.58-.58-1.15-.87-1.73l-.39-.79a4.49,4.49,0,0,1-.38-.76l-1.12.45A5.54,5.54,0,0,1,27,46.06c.62,1.2,1.12,2.46,1.62,3.72L30,49.19a27,27,0,0,1-2.69-5.5,3.63,3.63,0,0,0-.56-1.36c-.35-.37-.94-.34-1.43-.39a22.45,22.45,0,0,0-3.28,0,.78.78,0,0,0-.74,1,49.53,49.53,0,0,0,3.12,7,4.3,4.3,0,0,0,1,1.49,3.43,3.43,0,0,0,1.69.46,29,29,0,0,0,4.06.26.77.77,0,0,0,.66-1.15q-1.35-2.05-2.58-4.19c-.4-.7-.79-1.4-1.17-2.11-.2-.36-.38-.71-.57-1.07L27.28,43l-.1-.21c0-.16-.05-.16-.05,0A.76.76,0,0,0,25.81,42Z"/><path class="cls-1" d="M29.38,30.18a23.85,23.85,0,0,0-4.67,1.87l2.77.72-.38-.69a2,2,0,0,0-2.53-.83,2,2,0,0,0-1.18,2.39,36.2,36.2,0,0,0,1.52,5.41c.72,1.94,2,3.48,4.22,3.1a2,2,0,0,0,1.49-1.95,11.82,11.82,0,0,1,.59-4.26H27.29L29,41.16a2,2,0,0,0,4-.54c.05-1.3.12-2.6.17-3.9A5,5,0,0,0,32.07,33l-2.46,3.18a6,6,0,0,1,1.74,2.06A4.19,4.19,0,0,1,32,40.56l.52-.89c.05-.06.3,0,0,0,.12,0-.4.07-.29.06-.41,0-.55-.07-1.06-.06a2.41,2.41,0,0,0-2.28,2.5c0,1.74,1.27,3.1,1.53,4.78s.64,3.4,2.31,4.4,3.4.75,5.12.5a2,2,0,0,0,1.49-2,16.55,16.55,0,0,0-4-9,2,2,0,0,0-3.39.9A35.72,35.72,0,0,0,31,47.47h4.06A11.66,11.66,0,0,1,35,45.6a2,2,0,0,0-4.06,0A12.94,12.94,0,0,0,31,47.47a2,2,0,0,0,4.06,0,29.55,29.55,0,0,1,.77-4.56l-3.39.9a11.82,11.82,0,0,1,2.8,6.1L36.74,48l-.41,0-.49,0a2.39,2.39,0,0,1-1-.1c-.11,0-.06,0-.22-.13.08.09.09.11,0,0a4.74,4.74,0,0,1-.25-1,10.91,10.91,0,0,0-.68-2.7A5.8,5.8,0,0,1,32.93,42l-.28,1,.1-.18-.73.72.15-.07-1,.28c-.6,0,.63,0,.78.06a5.72,5.72,0,0,0,1.24-.11A4.4,4.4,0,0,0,34.84,43c1.45-1,1.31-2.77,1-4.29a10.2,10.2,0,0,0-4.16-6.06A2,2,0,0,0,29,33.2a2.08,2.08,0,0,0,.16,2.67c-.19-.23-.08-.4-.09-.06v.37c0,.49,0,1-.06,1.47l-.13,3,4-.54-1.69-5.22a2.05,2.05,0,0,0-3.92,0,15.3,15.3,0,0,0-.73,5.34l1.49-2c1,.45,1.34.48.92.1l.05,0a2.23,2.23,0,0,0-.2-.42c-.21-.58-.41-1.18-.6-1.77a35.2,35.2,0,0,1-.91-3.64L23.6,34.13l.38.69a2.05,2.05,0,0,0,2.77.73,20,20,0,0,1,3.71-1.46c2.51-.7,1.44-4.62-1.08-3.91Z"/><path class="cls-2" d="M26.05,18.68a11.47,11.47,0,0,0,2.15.54V15.31c-3.84,1.3-3.2,6.23-2.26,9.29a2,2,0,0,0,3.92-1.08,14.26,14.26,0,0,1-.41-1.59l-.09-.49,0-.25c-.06-.35.06.56,0,.2s-.06-.64-.07-1a7.47,7.47,0,0,0,0-.94c0,.09-.09.59,0,.23,0-.08,0-.15.05-.23s.07-.25.11-.38c.1-.31-.08.24-.11.25s.07-.14.09-.18a1.63,1.63,0,0,0,.11-.17l-.08.1c-.13.17-.16.2-.07.1a.92.92,0,0,0,.14-.14c.19-.2-.47.3-.2.16l.14-.08c.33-.2-.49.18-.19.08a2.08,2.08,0,0,0,1.49-2,2.29,2.29,0,0,0-.28-1,2,2,0,0,0-1.21-.93,10.78,10.78,0,0,1-2.15-.55,2,2,0,0,0-2.49,1.42,2.08,2.08,0,0,0,1.41,2.5Z"/><path class="cls-2" d="M32,33.67C37.64,31.6,43.41,29.5,47,24.4a2,2,0,0,0-3.51-2A14.38,14.38,0,0,1,41,25l-.16.13c.12-.08.12-.09,0,0l-.33.24c-.28.2-.57.39-.86.57-.55.35-1.11.67-1.69,1s-1.11.56-1.68.81l-.48.21c-.08,0-.43.19-.18.09l-.87.35c-1.25.5-2.51.95-3.77,1.42a2.09,2.09,0,0,0-1.42,2.5A2.05,2.05,0,0,0,32,33.67Z"/><path class="cls-2" d="M48.37,16.44c-2.71,7.24-9.32,12.68-16.46,15.27a2.09,2.09,0,0,0-1.42,2.5A2.06,2.06,0,0,0,33,35.63c8.61-3.13,16-9.41,19.29-18.11A2,2,0,0,0,50.87,15a2.07,2.07,0,0,0-2.5,1.41Z"/><path class="cls-2" d="M52,20.65c.39-.51.77-1,1.13-1.54l.4-.57.16-.22.11-.14c.68-.82,1.46-1.56,2.16-2.37a45.55,45.55,0,0,0,4-5.22,2,2,0,0,0-.73-2.77,2.07,2.07,0,0,0-2.78.72c-.54.83-1.1,1.65-1.7,2.44l-.16.21-.11.14-.44.55c-.33.4-.67.8-1,1.19-.66.76-1.39,1.46-2,2.24-.39.47-.75,1-1.1,1.46-.14.19-.27.39-.4.58l-.25.35c-.05.07-.3.39-.05.08a2.2,2.2,0,0,0-.6,1.43A2,2,0,0,0,52,20.65Z"/><path class="cls-2" d="M59.91,8.47a4.35,4.35,0,0,0,1.65-2.21A10.61,10.61,0,0,1,63.17,3.6l-1.06-.82L60.57,5.64l-.75,1.41-.38.7-.19.35a.7.7,0,0,1-.09.17.26.26,0,0,1,.13-.1h.3l.47.83a6.63,6.63,0,0,0,.28-1.23.81.81,0,0,0-.88-.88c-.87.1-1,1.32-1,2a.68.68,0,0,0,.67.68.69.69,0,0,0,.68-.68,2.65,2.65,0,0,1,.07-.48c0-.08,0-.17.06-.25s.09,0-.19,0h-.31L59.13,8l0,.05L59,7.79V7.65l0,.16-.07.28-.13.54a.68.68,0,0,0,.47.83c.77.12,1.06-.43,1.38-1l.89-1.65,1.78-3.31a.69.69,0,0,0-.18-.88.67.67,0,0,0-.89.06,11.5,11.5,0,0,0-1.72,2.69,4,4,0,0,1-1.27,2,.68.68,0,0,0,.69,1.16Z"/><path class="cls-2" d="M35.93,40.56C45.5,36.1,51.72,27.32,58.24,19.41a2.71,2.71,0,1,0-3.83-3.83C48.05,23.31,42.18,31.7,33.2,35.89a2.71,2.71,0,0,0-1,3.7,2.78,2.78,0,0,0,3.7,1Z"/><path class="cls-2" d="M58.52,17.33a8.81,8.81,0,0,0,4.1-2.71,1.45,1.45,0,0,0,.39-1,1.36,1.36,0,0,0-.39-.95,1.39,1.39,0,0,0-1-.4,1.33,1.33,0,0,0-1,.4,7.43,7.43,0,0,1-1.17,1.14l.28-.22a7.22,7.22,0,0,1-1.65,1l.32-.13c-.22.09-.45.18-.68.25a1.35,1.35,0,0,0-.95,1.66,1.38,1.38,0,0,0,1.67.95Z"/><path class="cls-2" d="M58.54,15.7C57.21,17.76,56,19.88,54.82,22c-.41.77.76,1.45,1.17.68q1.73-3.24,3.72-6.33c.47-.74-.7-1.42-1.17-.69Z"/><path class="cls-2" d="M58.64,15.68l-2.28,5.4c-.61,1.43-1.08,3.31-2.33,4.32l2.26,1.32a7.51,7.51,0,0,0,.4-3.12,1.37,1.37,0,0,0-2.31-1A14,14,0,0,0,52,25.92a1.37,1.37,0,0,0,.81,2l1.22.3-.32-2.47c-1.83,1.35-3.62,2.76-5.37,4.21s-3.32,3-5.08,4.34a33.18,33.18,0,0,1-5.7,3.2L31,40.77c-1.56.77-.19,3.11,1.36,2.33l6.45-3.21a35.3,35.3,0,0,0,5.88-3.3c1.74-1.32,3.32-2.83,5-4.23s3.57-2.92,5.42-4.3a1.37,1.37,0,0,0-.32-2.47l-1.22-.3.81,2a11.41,11.41,0,0,1,2-2.72L54,23.6a5.75,5.75,0,0,1-.31,2.4,1.38,1.38,0,0,0,.62,1.53,1.41,1.41,0,0,0,1.64-.22c1.4-1.12,2-3,2.62-4.56L61,17.05a1.41,1.41,0,0,0-.48-1.86,1.37,1.37,0,0,0-1.86.49Z"/><path class="cls-2" d="M39.19,45.28a7.09,7.09,0,0,1,.75-.45l.2-.1q.49-.23-.18.06a4.89,4.89,0,0,1,1.59-.53c1-.31,2.1-.57,3.13-.93a14,14,0,0,0,3.69-1.77c.66-.48,1.21-1.06,1.82-1.59l.59-.5.47-.38c-.39.3.4-.3.48-.35l.62-.45,1.47-1c1-.66,1.91-1.32,2.84-2a30,30,0,0,0,6.09-5.93c1.08-1.42.27-3.84-1.21-4.63a3.5,3.5,0,0,0-4.63,1.22c.47-.62-.15.17-.25.29l-.63.7c-.37.39-.75.77-1.14,1.13s-.92.81-1.4,1.19c-.1.08-.75.67-.14.11a7.21,7.21,0,0,1-.62.47c-2,1.46-4.07,2.81-6,4.34-.43.35-.87.7-1.29,1.06l-.58.52-.37.36.2-.13a5.59,5.59,0,0,1-1.42.77c.81-.21,0,0-.12,0l-.84.28c-2.2.68-4.57,1.12-6.51,2.43a3.38,3.38,0,0,0,3.42,5.84Z"/><path class="cls-2" d="M63,25.07a3.1,3.1,0,0,0-1.51.95.76.76,0,0,0-.19.48.73.73,0,0,0,.19.48.71.71,0,0,0,.48.19.65.65,0,0,0,.48-.19,2,2,0,0,1,.37-.35l-.14.1a2.33,2.33,0,0,1,.55-.32l-.16.07.29-.11a.67.67,0,0,0,.41-.31.72.72,0,0,0,.07-.52.73.73,0,0,0-.31-.4.71.71,0,0,0-.53-.07Z"/><path class="cls-3" d="M40.37,48.86a64.11,64.11,0,0,0,8-4.81l-3-1.21a5.22,5.22,0,0,1,.18.56.94.94,0,0,0,.06.3s0-.5,0-.34,0,.11,0,.16,0,.49,0,.5.12-.64,0-.21c0,.09-.05.17-.07.25s-.16.42,0,0,0-.09,0,0-.18.3-.28.45c-.2.3.31-.36.1-.14l-.15.18a3.78,3.78,0,0,1-.41.39l-.22.19c-.27.24.26-.18.15-.11l-.5.35c-.33.22-.68.43-1,.62s-.73.37-1.11.54l-.53.24-.29.13-.12,0,.24-.1a2.62,2.62,0,0,0-.63.26l-.56.23L38.75,48A2,2,0,0,0,38,50.77a2.1,2.1,0,0,0,2.78.73l.44-.2c.28-.12-.51.22-.17.08l.29-.12,1.12-.47a30.17,30.17,0,0,0,2.77-1.27,8.29,8.29,0,0,0,4.17-4.24,5.13,5.13,0,0,0-.09-3.52,2.14,2.14,0,0,0-1.18-1.32,2,2,0,0,0-1.8.11,65.33,65.33,0,0,1-8,4.81,2,2,0,0,0-.73,2.77,2.05,2.05,0,0,0,1.22.94,2.42,2.42,0,0,0,1.56-.21Z"/><path class="cls-2" d="M56.84,30.14C53.13,38,46,43.13,38.63,47.28c-2.28,1.28-.23,4.78,2,3.5,7.93-4.45,15.67-10.17,19.67-18.59a2.09,2.09,0,0,0-.73-2.78,2,2,0,0,0-2.78.73Z"/><path d="M39.3,52.61h-.11l-22.5-.68-5.52-7.59L0,33l12.32,8.13L.12,26.17l12.11,8.08L7.06,28,.91,13.41,11.76,24.26l-6-9L17.11,24.2l1.21.59,4.26-.07.68-7-1.5-5.25,4.11.84,6,3.74-3,1.52L30,24.06l7-1.27,8.72-6,6.18-7-.81,5.64,0,0L65.23,0,58.56,13.68l5-2.88-5.72,15,.75-1h6.23L58.41,36.94,47.51,47.82ZM17.08,51.18l22,.67.28-.17L39,51.42,57.16,25.63l5-13.14-3.77,2.15L36.4,40l-.57-.49,22-26,4.42-9.1L51.66,16l-18,14-.46-.59L50.35,15.5l.48-3.35L46.25,17.3l-9,6.21-7.79,1.42L28,18.2,30.32,17l-4.79-3-2.71-.55L24,17.7l-.76,7.76-5.11.09-1.44-.72L9,18.79l8.37,12.56-.61.44L11.85,25.4,3.09,16.64l4.64,11,8.39,10.06L3.88,29.58,16,44.43l-10.55-7,6.26,6.39ZM59,25.55,40,51.31l7.06-4.12L57.84,36.45l5.77-10.9Z"/><path d="M25.55,13.93a4.68,4.68,0,0,1,.7,3.29,25.47,25.47,0,0,0-.05,3.6c.13,1.33.24,2.66.35,4a.26.26,0,0,0,.26.26c.93-.07,1.86-.14,2.78-.23.33,0,.33-.54,0-.51-.92.09-1.85.16-2.78.23l.25.25c-.12-1.44-.26-2.89-.39-4.33-.2-2.25.79-5-.76-6.91-.2-.25-.56.11-.36.36Z"/><path d="M35.88,40.24c.79,3.52,1.78,7,2.68,10.49L39,52.3a.26.26,0,0,0,.49-.14L36.74,41.61c-.13-.5-.26-1-.37-1.5a.25.25,0,0,0-.49.13Z"/><path d="M23.41,16a19.79,19.79,0,0,0,2.08-1.56.25.25,0,0,0-.36-.36,18.88,18.88,0,0,1-2,1.48.27.27,0,0,0-.09.35.26.26,0,0,0,.35.09Z"/><path d="M22.44,13.29h0a.12.12,0,0,0,0,.05.37.37,0,0,0,.19.11l-.12-.06c.23.27.48.52.73.77l.37.39.18.2.07.09.07.09a.26.26,0,0,0,.34.09.26.26,0,0,0,.1-.35,12.31,12.31,0,0,0-.9-1c-.15-.15-.3-.31-.44-.47L23,13.07,22.9,13l-.08,0s0,0,0,0h0l0,0a.52.52,0,0,0-.19-.11.25.25,0,0,0-.31.17.26.26,0,0,0,.18.32Z"/><path d="M23.78,18.14a1.94,1.94,0,0,1,1.89-.62A.25.25,0,0,0,25.8,17a2.45,2.45,0,0,0-2.38.75.26.26,0,0,0,0,.36.25.25,0,0,0,.36,0Z"/><path d="M26.49,17.35l1.92,1.25a.25.25,0,0,0,.35-.09.26.26,0,0,0-.09-.34l-1.93-1.26a.26.26,0,0,0-.34.09.25.25,0,0,0,.09.35Z"/><path class="cls-4" d="M22.73,25.35l3.91-.27c.32,0,.33-.53,0-.5l-3.91.27c-.33,0-.33.53,0,.5Z"/><path d="M24.59,25.06c-.34,2.09-.61,4.2-.81,6.31,0,.32.47.32.5,0,.2-2.07.46-4.12.8-6.17.05-.32-.44-.46-.49-.14Z"/><path d="M23.77,31.33A60,60,0,0,0,31.82,52c.17.27.61,0,.44-.26a59.52,59.52,0,0,1-8-20.5c-.06-.32-.55-.19-.49.13Z"/><path d="M31,30.23c-1.9.3-3.81.6-5.72.88-.39.05-.77.12-1.16.15s-.33.54,0,.51c.9-.08,1.81-.25,2.71-.38l3.5-.55.81-.13c.32-.05.18-.54-.14-.48Z"/><path d="M17,24.57a4.35,4.35,0,0,1-3.5,1.11.28.28,0,0,0-.31.18c0,.12,0,.3.18.31a4.89,4.89,0,0,0,4-1.24c.24-.23-.12-.58-.36-.36Z"/><path d="M11.82,25.25a4.75,4.75,0,0,1-2,1.7,12.85,12.85,0,0,1-1.2.53c-.18.07-.9.45-1,.2a.25.25,0,0,0-.44.25c.25.44.79.35,1.19.21s1-.39,1.49-.63a5.43,5.43,0,0,0,2.39-2,.25.25,0,0,0-.43-.26Z"/><path d="M2.76,35.51c2.19.64,4.43,1.08,6.62,1.72a.25.25,0,0,0,.14-.49C7.33,36.1,5.08,35.66,2.89,35a.25.25,0,0,0-.13.49Z"/><path d="M30.8,16.69A23.45,23.45,0,0,0,28,16.51l-.91-.05c-.18,0-.48-.07-.64,0s0,.61.25.44c0,0-.1,0,0,0h.15l.39,0,.91,0a19.55,19.55,0,0,1,2.65.18.26.26,0,0,0,.26-.25.27.27,0,0,0-.26-.26Z"/><path d="M46.14,17.25c1.57-.3,3-1,4.63-1.3.32-.07.19-.56-.13-.49-1.58.3-3.06,1-4.64,1.3-.32.06-.18.55.14.49Z"/><path d="M57.87,13.36l-3,.47a9.53,9.53,0,0,0-2.74.7c-.3.14,0,.57.25.43a10.25,10.25,0,0,1,2.74-.66L58,13.85c.32,0,.18-.54-.14-.49Z"/><path d="M36.79,23.09l-3.17,5.67-.45.81a.25.25,0,0,0,.44.25l3.17-5.66.45-.81a.26.26,0,0,0-.44-.26Z"/><path d="M18.46,31.73a100,100,0,0,0,2.27,10,45.59,45.59,0,0,0,4.77,10c.17.28.61,0,.44-.25A44.52,44.52,0,0,1,21.13,41.3c-.95-3.17-1.54-6.46-2.18-9.71-.07-.32-.56-.18-.49.14Z"/><path d="M14.5,36.4l-1.24,4.8-.17.67a.26.26,0,0,0,.49.14l1.23-4.8.17-.67a.25.25,0,0,0-.48-.14Z"/><path d="M13.08,41.94c-.09,1.43,0,2.87-.09,4.3,0,.33.49.33.5,0,.09-1.43,0-2.87.09-4.3,0-.33-.48-.33-.5,0Z"/><path d="M16.52,31.15l-1.77,4.6-.25.65c-.12.31.37.44.48.14l1.77-4.6.26-.65c.11-.31-.38-.44-.49-.14Z"/><path d="M18.7,31.91A41.05,41.05,0,0,0,24,31.8c.32,0,.32-.55,0-.51a41.05,41.05,0,0,1-5.32.12.25.25,0,0,0,0,.5Z"/><path d="M13.25,42.47c2,1.63,4.17,3.05,6.29,4.53,1.1.77,2.2,1.54,3.23,2.4S24.6,51,25.54,51.81c.25.21.61-.15.36-.36-.92-.75-1.78-1.58-2.69-2.34s-2-1.56-3-2.29c-2.2-1.55-4.47-3-6.57-4.71-.25-.2-.61.15-.35.36Z"/><path d="M58.37,14.25c-.4,2.14-.61,4.32-.86,6.49-.13,1.18-.26,2.36-.37,3.55a12.22,12.22,0,0,0-.13,2c0,.33.54.33.51,0a11,11,0,0,1,.12-1.9c.1-1.17.23-2.34.36-3.52.25-2.16.46-4.34.86-6.48.06-.32-.43-.46-.49-.14Z"/><path d="M58.82,25.55c.07,3.31-.13,6.64-.3,10,0,.32.49.32.5,0,.17-3.31.38-6.64.3-9.95a.25.25,0,0,0-.5,0Z"/><path d="M14.51,36.6l5.43,5.06.77.71c.24.22.59-.13.36-.36L15.63,37l-.77-.71c-.23-.22-.59.14-.35.36Z"/><path d="M30.8,24.26c-.14,2.38-.51,4.91.33,7.19A46.83,46.83,0,0,0,36,40.27c.17.27.61,0,.44-.26a46.12,46.12,0,0,1-4.82-8.69c-.83-2.23-.45-4.73-.32-7.06,0-.33-.49-.33-.5,0Z"/><path d="M18,25.39l.34,5.22,0,.76c0,.32.53.32.51,0l-.34-5.22-.05-.76c0-.32-.53-.32-.51,0Z"/><path d="M18.56,31.42,17,31.31h-.23a.25.25,0,0,0-.25.25.25.25,0,0,0,.25.25l1.57.11.23,0a.25.25,0,0,0,.25-.25.26.26,0,0,0-.25-.26Z"/><rect x="30.97" y="29.66" width="2.62" height="0.75" transform="translate(-8.21 12.58) rotate(-19.61)"/></g></g></svg>