<svg xmlns="http://www.w3.org/2000/svg" viewBox="0 0 43.06 47.95"><defs><style>.cls-1{fill:#0d0d0d;}.cls-2{fill:#a8a8a8;}.cls-3{fill:#fdfdfd;}</style></defs><g id="Layer_2" data-name="Layer 2"><g id="Layer_1-2" data-name="Layer 1"><path class="cls-1" d="M12.36,5.69c.37-.83.72-1.66,1.1-2.47a8.54,8.54,0,0,1,1.42-2.15c.2-.22.23-.55.53-.74a1.6,1.6,0,0,1,2.15.18,4.32,4.32,0,0,1,1,1.73,21.18,21.18,0,0,1,1,5.52,62.44,62.44,0,0,1-.06,9.67c0,.09,0,.17,0,.26,0,.26,0,.34.31.2.63-.35,1.27-.66,1.9-1a33.08,33.08,0,0,1,6-2.44c.18-.06.38-.17.51,0s0,.36-.13.5a15.83,15.83,0,0,1-1.61,1.56,36.12,36.12,0,0,1-5.55,4.12c-.31.19-.33.33-.1.62a63.71,63.71,0,0,1,4.76,6.84.39.39,0,0,0,.47.21c1.83-.22,3.66-.51,5.51-.64,1.58-.11,3.17-.18,4.75-.42a.7.7,0,0,1,.88.61A3.79,3.79,0,0,1,37,29.74a14.39,14.39,0,0,1-1.54,3.77c-.06.13-.12.25-.22.43.57-.11.69.25.78.64a4.16,4.16,0,0,1-.14,2,15.57,15.57,0,0,1-.52,1.73c-.12.35,0,.42.31.48a27.93,27.93,0,0,1,4.83,1.35,4.88,4.88,0,0,1,2.39,2,2.24,2.24,0,0,1-.26,2A6.29,6.29,0,0,1,39,46.22a34,34,0,0,1-6.79,1.28,75.25,75.25,0,0,1-10.18.43A64.5,64.5,0,0,1,9.44,46.57a19.76,19.76,0,0,1-4.36-1.45,7.73,7.73,0,0,1-1.72-1.34.42.42,0,0,1-.12-.27,8.66,8.66,0,0,1-.11-2.64c.16-.72.74-1,1.31-1.29a14.68,14.68,0,0,1,4.2-1.27c.24-.05.3-.14.26-.37a41.71,41.71,0,0,1-.51-8c0-.36-.05-.44-.44-.38a5.77,5.77,0,0,1-3.22-.29,6.62,6.62,0,0,1-3-2.64,8.25,8.25,0,0,1-.89-6,3.91,3.91,0,0,1,1.43-2.29c.24-.2.24-.35.1-.61A23.38,23.38,0,0,1,.25,12.16,10.53,10.53,0,0,1,0,9.09,2.35,2.35,0,0,1,2,7a5.55,5.55,0,0,1,2.9.41,18.4,18.4,0,0,1,3.79,2c.11.07.23.23.36.17s.08-.26.09-.39A23.36,23.36,0,0,1,10.27,2.4c.08-.22.08-.55.38-.56a.77.77,0,0,1,.64.46,5.09,5.09,0,0,1,.57,1.92c.05.49.21,1,.31,1.47l0,.27a33.38,33.38,0,0,0-1.46-3.7,2.16,2.16,0,0,0-.25.74c-.06.26-.13.52-.19.77a28.17,28.17,0,0,0-.71,5.92c0,.17,0,.35.13.48l1.11.82.5-2,1-2.87C12.3,6,12.4,5.85,12.36,5.69Zm3.87,35.63c-.23.07-.2.47-.52.42a3.09,3.09,0,0,1,.45-.91.89.89,0,0,0,.14-.57c-.09-.69-.17-1.38-.33-2.07-.05-.23-.46-.38-.57-.18-.29.55-.52,1.14-.77,1.71,0,.05,0,.14,0,.21.24.52.46,1,.71,1.55.06.12.09.34.32.26.11.09-.05.35.2.34s.19-.19.22-.32.15-.28.09-.45l.06,0,0,0ZM32.5,37.19l.07-.09a9.18,9.18,0,0,1,1.85-2.48,6.26,6.26,0,0,1-1.07-.13.63.63,0,0,0-.72.22,11.46,11.46,0,0,0-1.19,1.58c-.6.9-.62.82.35,1.34l.32.3c.11-.28.34-.46.4-.74ZM12.25,15c.2-.24.16-.6.34-.84.28-.4,0-.52-.28-.69a4.88,4.88,0,0,0-.22,1.1c-.12.53-.44,1.06,0,1.71Zm4.24,7.24c0-.06,0-.13,0-.17-.5-.59-1-1.18-1.59-1.84l.38,2.54c0,.25,0,.51.05.77s0,.21.2.17a1.14,1.14,0,0,0,1-1.09C16.49,22.46,16.48,22.33,16.49,22.21Zm-2,14.63A12.94,12.94,0,0,0,15,34.93a.9.9,0,0,0-.52-.88c-.32,0-.21.33-.35.48a1.25,1.25,0,0,0-.12.31,6.65,6.65,0,0,1-.56,1,.38.38,0,0,0-.05.36c.14.41.26.82.38,1.23,0,.12.07.23.22.21s.26,0,.3-.19S14.44,37,14.5,36.84Zm8,4.23c.2-.57-.11-.83-.57-1a5,5,0,0,1-.66-.4c-.13-.09-.22-.1-.31,0a2.89,2.89,0,0,0-.62,1.19c.65.08,1.31.07,1.95.21C22.39,41.16,22.47,41.26,22.52,41.07Zm-3.19-17.8a4,4,0,0,1,2.11.07l-1.67-2.09a2.42,2.42,0,0,0-.5-.59l-.38,2.76A.92.92,0,0,0,19.33,23.27Zm-5.91-8.84c0-.14,0-.33-.23-.36a.42.42,0,0,0-.41.25,3.29,3.29,0,0,0-.41,2,.29.29,0,0,0,.14.25l1.41,1.39a20.81,20.81,0,0,0-.38-3.39S13.47,14.47,13.42,14.43ZM12.1,31.48v0l0,0a1.55,1.55,0,0,0,0,.21c.33,1.23.64,2.46,1.08,3.72a9.07,9.07,0,0,0,.8-1.75.24.24,0,0,0-.08-.27,9.35,9.35,0,0,0-1-1c-.08,0-.13,0-.19,0C12.69,31.93,12.3,31.77,12.1,31.48Zm4.77-8.14a3,3,0,0,0-.11.37c-.3,2-.66,4-1.12,6-.09.4-.06.46.36.69.44-2.34.77-4.69,1.05-7,0-.24.15-.5-.07-.75C16.72,22.85,17,23.12,16.87,23.34ZM11,36.24c.07.19.15.38.44.32l-.26-.33a6,6,0,0,1-.45-1.32,26.31,26.31,0,0,1-.5-5.16.78.78,0,0,0-.07-.5c-.08-.11-.13-.27-.31-.23s-.16.21-.16.34a24.36,24.36,0,0,0,.4,4.18A7.2,7.2,0,0,0,11,36.24Zm2.84-4.13c0,.14.17.18.25.28.22.26.32.19.4-.1.14-.51.31-1,.45-1.53,0-.13.09-.28,0-.4-.47-.48-.85-1-1.36-1.48a9.82,9.82,0,0,0-1-1.25c.08,1.17.14,2.22.21,3.27a.55.55,0,0,0,.22.35Zm21,2.71a18.35,18.35,0,0,0-2.27,3.36,1,1,0,0,0,.53.08c.44.14.9.14,1.34.25.24.06.34,0,.41-.24.24-.69.51-1.36.73-2.06a4.32,4.32,0,0,0,.21-1.34c0-.1,0-.28-.13-.26S35,34.52,34.82,34.82ZM18.13,2.93c-.23-.49-.24-1.1-.8-1.54.11.37.21.63.28.91a28.27,28.27,0,0,1,.68,5.18,83,83,0,0,1-.21,10.22c0,.17,0,.34.12.47l.66.74c0-.16,0-.23,0-.29a59.58,59.58,0,0,0,0-12.31A14,14,0,0,0,18.13,2.93ZM32.67,38.65c-.17,0-.37-.08-.48.16-.36.72-.72,1.44-1.09,2.16a20.24,20.24,0,0,0-.9,1.86c.92-.18,1.74-.31,2.56-.4.18,0,.22-.17.28-.3.46-1,.92-2,1.39-3,.09-.19.08-.28-.15-.31Zm-13-18.85.17.26c.07.09.15.18.21.27.16.27.3.33.57.06a6.4,6.4,0,0,1,1.09-.83,44.32,44.32,0,0,0,5-3.8,2.05,2.05,0,0,0,.6-.61c.07-.13.28-.15.33-.38a45.05,45.05,0,0,0-7.83,3.39A1.1,1.1,0,0,0,19.66,19.8Zm-6.53,7.42A27.45,27.45,0,0,0,15,29.4c.16.18.23.15.29-.08a3.4,3.4,0,0,0-.13-1.65,70.7,70.7,0,0,1-.94-7.37,3.09,3.09,0,0,0-1.38-2.17,1.49,1.49,0,0,0-.48-.45,42,42,0,0,0,.23,8.47A1.48,1.48,0,0,0,13.13,27.22Zm4.64-.11a1,1,0,0,0,0,.3,2.49,2.49,0,0,0,4.22.65,2.55,2.55,0,0,0-1.34-4.14A2.43,2.43,0,0,0,18,25,2.24,2.24,0,0,0,17.77,27.11ZM2.11,25.9l0,0h0l.05,0A2.62,2.62,0,0,0,2.74,27a4.86,4.86,0,0,0,4.43,2.13,7.23,7.23,0,0,0,5-3,.41.41,0,0,0,.11-.28c0-1.45,0-2.91-.17-4.36-.12-.66.12-1.29-.27-2a5.12,5.12,0,0,0-2.68-2.31,5.59,5.59,0,0,0-3.5,0,9.18,9.18,0,0,0-2.73,1.4,4.41,4.41,0,0,0-1.46,4.44A3.34,3.34,0,0,1,4.16,20.6a3.31,3.31,0,0,1,3.59,1.89,3.39,3.39,0,0,1,.15,2.43,2.59,2.59,0,0,1-2,2.08,4.94,4.94,0,0,1-1.67.14A2.92,2.92,0,0,1,2.11,25.9Zm23,12.69a3.13,3.13,0,0,1-.62-.16,15.69,15.69,0,0,1-3.81-2.29c-1.15-1-2.28-2-3.33-3-.08-.09-.14-.22-.32-.22-.14.49-.27,1-.43,1.46-.1.28-.1.49.17.67a3.82,3.82,0,0,1,.32.27C18,36.15,19,36.93,20,37.71a20.65,20.65,0,0,0,5.15,3.12,4.69,4.69,0,0,0,2.31.39A1.6,1.6,0,0,0,28.9,39.6a13,13,0,0,0-.35-3.35,16.54,16.54,0,0,0-1.43-3.77,27.61,27.61,0,0,0-2.6-4.54,7.64,7.64,0,0,0-1.29-2,3.47,3.47,0,0,1-.55,2.23.56.56,0,0,0,0,.75,32.9,32.9,0,0,1,3,5.35,3,3,0,0,0,.4.92l.39,2A1,1,0,0,1,26,38.34,2.27,2.27,0,0,1,25.11,38.59Zm-8.63,6.68a11,11,0,0,1-2-.21c-1-.19-2.1-.28-3.14-.47a23.14,23.14,0,0,1-7.21-2.18C4,42.3,3.88,42,3.55,42a2.89,2.89,0,0,0,1.54,2.7,11,11,0,0,0,1.66.7,50.47,50.47,0,0,0,13.09,2,6.27,6.27,0,0,0,1.37.07,73.42,73.42,0,0,0,14-.85,22.06,22.06,0,0,0,5.44-1.54,2.34,2.34,0,0,0,1.56-2,6.59,6.59,0,0,1-2.27,1.08,32.49,32.49,0,0,1-5.27,1,89.92,89.92,0,0,1-12.28.43C20.4,45.58,18.44,45.43,16.48,45.27Zm18.38-5.68c-.42.89-.85,1.78-1.26,2.68-.09.18-.16.31-.39.34-.76.1-1.52.23-2.29.33a5.51,5.51,0,0,1-2.14.17c-.53-.12-.63-.21-.53-.74a2,2,0,0,0,.12-.79,3.3,3.3,0,0,1-2.11.25,10,10,0,0,1-3-1c-.22-.11-.35-.15-.44.13a.38.38,0,0,1-.38.28,9.74,9.74,0,0,1-2,0c-.38-.07-.55.08-.6.39s-.1.21-.27.24a6.87,6.87,0,0,1-2.17-.14c-.43-.07-.59,0-.71.44-.21.76-.89.89-1.44.32a2.75,2.75,0,0,1-.57-.9l-.47-1.15A13.55,13.55,0,0,1,12,43l-.26,0c-.56.09-.6.07-.79-.51,0-.09-.11-.13-.18-.18a2.66,2.66,0,0,1-.86-1.05A8.65,8.65,0,0,1,9.13,39c-.07-.33-.19-.4-.52-.34a32.89,32.89,0,0,0-3.39.84,2.38,2.38,0,0,0-1.43,1.35.27.27,0,0,0,0,.34,6.68,6.68,0,0,0,.61.69A5.83,5.83,0,0,0,7,43.11a53.11,53.11,0,0,0,9.62,1.61,89.57,89.57,0,0,0,14.65.2,32.48,32.48,0,0,0,10.39-2.06.87.87,0,0,0,.35-1.4,4.56,4.56,0,0,0-1.59-1,23.59,23.59,0,0,0-4.66-1.32C35,39,35.19,38.91,34.86,39.59ZM9.1,13.54c0-.91,0-1.73,0-2.56a.46.46,0,0,0-.24-.38A21,21,0,0,0,5,8.32a6,6,0,0,0-2.45-.57A1.84,1.84,0,0,0,.75,9.1a4.06,4.06,0,0,0-.13,1.7,23,23,0,0,0,2.43,6.67c.09.19.18.21.36.11A7,7,0,0,1,4.79,17c.3-.09.28-.22.16-.45A14.34,14.34,0,0,1,4,14.26a4.18,4.18,0,0,1-.22-1.53c.07-1.08.62-1.49,1.68-1.24a5.37,5.37,0,0,1,1.5.63A23.57,23.57,0,0,1,9.1,13.54ZM35.28,27.83c-.43,0-.87,0-1.3,0-2.57.23-5.14.43-7.7.74-.37,0-.39.13-.21.43a34.15,34.15,0,0,1,2.28,4.52,5,5,0,0,0,.9,1.49c.46.52.88,1.07,1.34,1.63A19.06,19.06,0,0,1,35.28,27.83ZM18,28.57l-.7,3.11a.37.37,0,0,0,.12.34c.94.93,1.89,1.84,2.89,2.71.11.1.2.13.32,0a2.71,2.71,0,0,1,2.67-.64,1.69,1.69,0,0,1,1.42,1.37,3.71,3.71,0,0,1-.17,1.78c0,.12-.09.23.09.25.62.07.89.06.91-.64a4.13,4.13,0,0,0-.32-1.51A31.28,31.28,0,0,0,22,29.25c-.14-.2-.25-.16-.43-.07a2.88,2.88,0,0,1-2.45.11A4.2,4.2,0,0,1,18,28.57ZM17,16.88a2.07,2.07,0,0,0,0-.31,47.13,47.13,0,0,0,0-6.06,13.74,13.74,0,0,0-.69-3.92c-.14-.39-.32-.87-.75-.92s-.66.41-.88.74a16.52,16.52,0,0,0-1.38,3,2.42,2.42,0,0,0,0,1.55,16.74,16.74,0,0,1,.56,2.64.29.29,0,0,0,.09.22C15,14.77,16,15.78,17,16.88ZM12.2,12.14c.06-.22.1-.4.15-.58A25.85,25.85,0,0,1,14,6.82a3.82,3.82,0,0,1,1-1.37,1,1,0,0,1,1.48.26A3.86,3.86,0,0,1,17,6.93a19.24,19.24,0,0,1,.52,3.92,53.33,53.33,0,0,1-.07,5.93c0,.21-.11.46.13.67,0-.2.06-.37.07-.54a79.82,79.82,0,0,0-.08-12.37A12.49,12.49,0,0,0,16.84,1c-.14-.36-.35-.48-.7-.33a2.75,2.75,0,0,0-1.61,1.17c-.12.24-.29.46-.43.69a34.72,34.72,0,0,0-3,8.38.37.37,0,0,0,.27.5c.22.06.18-.2.22-.32a22.61,22.61,0,0,1,2.19-5.45A4.32,4.32,0,0,1,14.9,4.33a1.28,1.28,0,0,1,2,.5c.06.11.12.24,0,.32s-.23,0-.32-.11c-.71-.73-1.16-.73-1.86,0a7.31,7.31,0,0,0-1.15,1.76,28.46,28.46,0,0,0-1.71,4.68C11.75,11.83,11.91,12,12.2,12.14ZM1.88,23.78a2.79,2.79,0,0,0,2.87,2.79A2.74,2.74,0,0,0,7.5,23.94,2.62,2.62,0,0,0,4.87,21.2C2.94,21.19,2,22.16,1.88,23.78ZM34,34c.66,0,.67,0,.82-.27a19.36,19.36,0,0,0,1.8-4.31,3.07,3.07,0,0,0,.12-1.24c0-.29-.17-.42-.5-.34a2.44,2.44,0,0,0-1.18.81,16.58,16.58,0,0,0-2.52,3.72,21.35,21.35,0,0,0-1.33,3.16c0,.09-.07.19,0,.24s.17-.05.22-.12c.26-.33.51-.66.78-1s.81-.92,1.53-.67A1.13,1.13,0,0,0,34,34ZM4.46,13a2,2,0,0,0,0,.27,11.37,11.37,0,0,0,1.11,3.1.4.4,0,0,0,.53.25,6.14,6.14,0,0,1,2.86,0c.27.06.26-.06.23-.24a12.34,12.34,0,0,1-.08-1.5.49.49,0,0,0-.2-.4,14.86,14.86,0,0,0-2.72-1.79,2.55,2.55,0,0,0-1.1-.33C4.66,12.29,4.46,12.48,4.46,13Zm9.29,26.22c-.1-.32-.2-.65-.31-1,0-.12-.16-.11-.26-.1-1.21.1-2.42.24-3.63.43-.15,0-.24.06-.19.24a7.48,7.48,0,0,0,1.24,3,1.11,1.11,0,0,0,2-.07,9.63,9.63,0,0,0,1.13-2.27C13.71,39.36,13.72,39.28,13.75,39.18ZM13,36.51a.8.8,0,0,1-.39.58,1.26,1.26,0,0,1-1.71-.28,5,5,0,0,1-1-2.33,23.45,23.45,0,0,1-.56-4.86c0-.38-.13-.38-.43-.27s-.21.27-.21.45a47.18,47.18,0,0,0,.52,8.14c0,.25.11.25.32.22a30.88,30.88,0,0,1,3.33-.4c.41,0,.5-.17.35-.54C13.11,37,13.07,36.84,13,36.51Zm4.85,1.37c-.36,0-.66,0-1,0s-.32.09-.27.33A13.23,13.23,0,0,1,16.92,41c0,.22.07.29.29.31.67.06,1.34.09,2,.1a.54.54,0,0,0,.59-.37,7.44,7.44,0,0,1,.9-1.51c.15-.19.06-.29-.07-.37a17.76,17.76,0,0,1-1.6-1.13c-.48-.36-.75-.29-1.1.2a4.36,4.36,0,0,1-.87,1.27A6.58,6.58,0,0,1,17.83,37.88ZM16.7,21,17,18.12a.53.53,0,0,0-.22-.4c-.84-.92-1.72-1.8-2.61-2.67-.06-.05-.1-.15-.25-.09.12,1.07.25,2.14.38,3.21a.28.28,0,0,0,.09.19C15.09,19.2,15.86,20,16.7,21Zm-6.09,8.87s-.06.06-.06.08a21.16,21.16,0,0,0,.69,5.77,1.8,1.8,0,0,0,.4.73.55.55,0,0,0,.77.07c.24-.15.47-.31.33-.69a29,29,0,0,1-1.21-4.47A3,3,0,0,0,10.61,29.82Zm11.92,4.71A1.89,1.89,0,0,0,21,35c-.12.11-.21.19,0,.33a16.28,16.28,0,0,0,2.8,1.91c.21.1.29.06.35-.17a4.81,4.81,0,0,0,.14-1.14,1.2,1.2,0,0,0-.93-1.26A2.8,2.8,0,0,0,22.53,34.53Zm-5.4-7.8-.66,3.88c-.07.39.07.61.51.78l.63-3.07a.5.5,0,0,0,0-.38A10.15,10.15,0,0,1,17.13,26.73Zm-4.51,4.06c0-.37-.1-.74-.13-1.1a7.54,7.54,0,0,1-.1-2c.06-.29-.13-.36-.24-.45s-.19.12-.27.2-.32.36-.49.54-.16.16-.14.3A3.6,3.6,0,0,0,12.62,30.79ZM18,19.09a19.82,19.82,0,0,1-.21,2.45c-.15.72.3,1.05.71,1.56.11-1,.2-1.93.29-2.84a.46.46,0,0,0-.12-.39Zm-8.4-8v2.59a.42.42,0,0,0,.22.39c.07.05.07.19.18.16s.12-.15.14-.24c.14-.63.27-1.26.41-1.89a.29.29,0,0,0-.1-.34Zm6.77,12.55-.8.41a.26.26,0,0,0-.18.26,23,23,0,0,0,.27,3.21A38.14,38.14,0,0,0,16.33,23.67Zm0,12-.11,0a9.54,9.54,0,0,1,.29,1.58c0,.13.09.17.21.17h1.47l0-.14Zm-.49-4.18c0-.32-.19-.41-.34-.55s-.13,0-.16.08c-.18.63-.38,1.26-.52,1.9,0,.24.22.38.42.49s.19,0,.21-.13C15.55,32.72,15.68,32.1,15.8,31.54ZM32,38.22c.06-.14,0-.15-.11-.19a4.45,4.45,0,0,1-.79-.47c-.23-.19-.37-.1-.49.07s-.27.45,0,.69.42.46.63.69c0,.05.12.17.2.07C31.59,38.79,31.77,38.5,32,38.22ZM11.51,12.76c-.14.67-.27,1.32-.44,2a.59.59,0,0,0,.4.78c.15-.69.27-1.37.44-2A.55.55,0,0,0,11.51,12.76Zm17.6,22.7a18.83,18.83,0,0,1,.5,2.24c0,.14.11.19.24.19.3,0,.29-.32.42-.49s.23-.23.08-.41C30,36.52,29.57,36,29.11,35.46Zm.5,7.29.37-.84c.29-.66.29-.67-.29-1.09-.11-.08-.22-.29-.39-.14a.46.46,0,0,0-.15.5C29.29,41.67,29.44,42.17,29.61,42.75ZM16.23,31.87,16,33.18c-.06.25-.12.49-.17.75a.36.36,0,0,0,.26.4c.2.06.16-.17.2-.29.13-.4.2-.83.36-1.23A.65.65,0,0,0,16.23,31.87ZM10.78,12.15c-.14.69-.27,1.37-.43,2a.41.41,0,0,0,.29.57c.16-.68.31-1.34.49-2C11.21,12.46,11.12,12.28,10.78,12.15Zm19.08,26.7a6.23,6.23,0,0,0-.37,1.41s0,.11.08.14l.83.66C30.17,40.28,30,39.57,29.86,38.85Zm.31-.3.39,2c.62-1,.62-1-.09-1.73ZM11.65,16.88c-.25,1.11-.24,1.13.49,1.89C12,18.09,12.36,17.39,11.65,16.88ZM28.81,41.15a4.38,4.38,0,0,0-.29,1.41c0,.12.64.34.74.27s0-.11,0-.15Zm-18-25c0,.07,0,.11-.05.15,0,.19-.08.39-.11.58-.1.51-.06.57.45.74C11.36,16.3,11.37,16.54,10.83,16.12Zm6.57,2.34a12.09,12.09,0,0,0-.21,3.12A10.23,10.23,0,0,0,17.4,18.46Zm0,6.73c.2-.3.33-.53.5-.75.33-.44.25-.72-.31-1C17.54,24,17.32,24.54,17.35,25.19Zm-7.21-9.7a8.82,8.82,0,0,0-.26,1.24c0,.19.13.25.26.28s.11-.13.13-.21c.05-.26.07-.51.13-.76A.4.4,0,0,0,10.14,15.49Zm5.25,20.08-.59,2.07A2.15,2.15,0,0,0,15.39,35.57ZM12.85,11.28c-.39,1.17-.37,1.29.32,1.69ZM9.59,16.15a1.65,1.65,0,0,0,.27-.88.19.19,0,0,0-.17-.21c-.16,0-.1.14-.1.22C9.58,15.57,9.59,15.86,9.59,16.15ZM14.38,39a2,2,0,0,0,.39-1A1.87,1.87,0,0,0,14.38,39Zm1.38-2.07c-.07.28-.22.41-.15.59s.16,0,.19,0S15.82,37.2,15.76,36.93Z"/><path class="cls-2" d="M12.36,5.69c0,.16-.06.27-.13.39L12.15,6l0-.27Z"/><path class="cls-3" d="M34.86,39.59c.33-.68.13-.6.91-.45a23.59,23.59,0,0,1,4.66,1.32,4.56,4.56,0,0,1,1.59,1,.87.87,0,0,1-.35,1.4,32.48,32.48,0,0,1-10.39,2.06,89.57,89.57,0,0,1-14.65-.2A53.11,53.11,0,0,1,7,43.11,5.83,5.83,0,0,1,4.45,41.9a6.68,6.68,0,0,1-.61-.69.27.27,0,0,1,0-.34,2.38,2.38,0,0,1,1.43-1.35,32.89,32.89,0,0,1,3.39-.84c.33-.06.45,0,.52.34a8.65,8.65,0,0,0,.79,2.31,2.66,2.66,0,0,0,.86,1.05c.07,0,.15.09.18.18.19.58.23.6.79.51L12,43c.16.33.4.17.6.08a2.51,2.51,0,0,0,.87-.75c.25-.32.4-.3.62,0a1.84,1.84,0,0,0,2.19.83,5.28,5.28,0,0,1,2.09-.18c.95.1,1.89.26,2.84.38,1.12.15,2.23.34,3.37.4.95,0,1.9.17,2.86.22a17.27,17.27,0,0,0,2.49.08A18.66,18.66,0,0,1,32.42,44c.31,0,.62.11.94.08a36.47,36.47,0,0,0,4.28-.62,3.79,3.79,0,0,0,1.13-.39,1.12,1.12,0,0,0,.06-2,3,3,0,0,0-.9-.4,9.36,9.36,0,0,1-2.11-.83A1.66,1.66,0,0,0,34.86,39.59Z"/><path class="cls-2" d="M34.86,39.59a1.66,1.66,0,0,1,1,.19,9.36,9.36,0,0,0,2.11.83,3,3,0,0,1,.9.4,1.12,1.12,0,0,1-.06,2,3.79,3.79,0,0,1-1.13.39,36.47,36.47,0,0,1-4.28.62c-.32,0-.63-.08-.94-.08a18.66,18.66,0,0,0-2.48.15,17.27,17.27,0,0,1-2.49-.08c-1,0-1.91-.18-2.86-.22-1.14-.06-2.25-.25-3.37-.4-.95-.12-1.89-.28-2.84-.38a5.28,5.28,0,0,0-2.09.18,1.84,1.84,0,0,1-2.19-.83c-.22-.33-.37-.35-.62,0a2.51,2.51,0,0,1-.87.75c-.2.09-.44.25-.6-.08a13.55,13.55,0,0,0,2.23-2.63l.47,1.15a2.75,2.75,0,0,0,.57.9c.55.57,1.23.44,1.44-.32.12-.42.28-.51.71-.44a6.87,6.87,0,0,0,2.17.14c.17,0,.23-.05.27-.24s.22-.46.6-.39a9.74,9.74,0,0,0,2,0,.38.38,0,0,0,.38-.28c.09-.28.22-.24.44-.13a10,10,0,0,0,3,1,3.3,3.3,0,0,0,2.11-.25,2,2,0,0,1-.12.79c-.1.53,0,.62.53.74a5.51,5.51,0,0,0,2.14-.17c.77-.1,1.53-.23,2.29-.33.23,0,.3-.16.39-.34C34,41.37,34.44,40.48,34.86,39.59Z"/><path class="cls-3" d="M4.27,27.14A4.94,4.94,0,0,0,5.94,27a2.59,2.59,0,0,0,2-2.08,3.39,3.39,0,0,0-.15-2.43A3.31,3.31,0,0,0,4.16,20.6a3.34,3.34,0,0,0-2.72,2.47A4.41,4.41,0,0,1,2.9,18.63a9.18,9.18,0,0,1,2.73-1.4,5.59,5.59,0,0,1,3.5,0,5.12,5.12,0,0,1,2.68,2.31c.39.71.15,1.34.27,2-.45-.17-.65.14-.77.46a9.76,9.76,0,0,1-1.8,2.84,7.47,7.47,0,0,1-4,2.47C5.08,27.39,4.62,27.55,4.27,27.14Z"/><path class="cls-2" d="M16.48,45.27c2,.16,3.92.31,5.88.35a89.92,89.92,0,0,0,12.28-.43,32.49,32.49,0,0,0,5.27-1,6.59,6.59,0,0,0,2.27-1.08,2.34,2.34,0,0,1-1.56,2,22.06,22.06,0,0,1-5.44,1.54,73.42,73.42,0,0,1-14,.85,6.27,6.27,0,0,1-1.37-.07c0-.21-.19-.19-.3-.24-.78-.3-1.56-.56-2.35-.8S16.38,46,16.48,45.27Z"/><path class="cls-3" d="M9.1,13.54A23.57,23.57,0,0,0,7,12.12a5.37,5.37,0,0,0-1.5-.63c-1.06-.25-1.61.16-1.68,1.24A4.18,4.18,0,0,0,4,14.26,14.34,14.34,0,0,0,5,16.53c.12.23.14.36-.16.45a7,7,0,0,0-1.38.6c-.18.1-.27.08-.36-.11A23,23,0,0,1,.62,10.8,4.06,4.06,0,0,1,.75,9.1,1.84,1.84,0,0,1,2.53,7.75,6,6,0,0,1,5,8.32,21,21,0,0,1,8.86,10.6.46.46,0,0,1,9.1,11C9.09,11.81,9.1,12.63,9.1,13.54Z"/><path class="cls-3" d="M35.28,27.83a19.06,19.06,0,0,0-4.69,8.81c-.46-.56-.88-1.11-1.34-1.63a5,5,0,0,1-.9-1.49A34.15,34.15,0,0,0,26.07,29c-.18-.3-.16-.39.21-.43,2.56-.31,5.13-.51,7.7-.74C34.41,27.8,34.85,27.83,35.28,27.83Z"/><path class="cls-3" d="M24.52,27.94a27.61,27.61,0,0,1,2.6,4.54,16.54,16.54,0,0,1,1.43,3.77,13,13,0,0,1,.35,3.35,1.6,1.6,0,0,1-1.46,1.62,4.69,4.69,0,0,1-2.31-.39A20.65,20.65,0,0,1,20,37.71c-1-.78-2-1.56-2.89-2.42,0-.45.21-.25.38-.1a20,20,0,0,0,6.43,3.44,1.22,1.22,0,0,0,1.21,0,2.27,2.27,0,0,0,.84-.25,1,1,0,0,0,.49-1.13l-.39-2c.13-.09.06-.2.05-.31-.08-.52-.15-1-.23-1.57A23.62,23.62,0,0,0,24.8,29C24.69,28.66,24.41,28.35,24.52,27.94Z"/><path class="cls-3" d="M12.2,12.14c-.29-.17-.45-.31-.36-.64a28.46,28.46,0,0,1,1.71-4.68A7.31,7.31,0,0,1,14.7,5.06c.7-.75,1.15-.75,1.86,0,.09.09.19.22.32.11s0-.21,0-.32a1.28,1.28,0,0,0-2-.5,4.32,4.32,0,0,0-1.15,1.33,22.61,22.61,0,0,0-2.19,5.45c0,.12,0,.38-.22.32a.37.37,0,0,1-.27-.5,34.72,34.72,0,0,1,3-8.38c.14-.23.31-.45.43-.69A2.75,2.75,0,0,1,16.14.69c.35-.15.56,0,.7.33a12.49,12.49,0,0,1,.74,3.52,79.82,79.82,0,0,1,.08,12.37c0,.17,0,.34-.07.54-.24-.21-.14-.46-.13-.67a53.33,53.33,0,0,0,.07-5.93A19.24,19.24,0,0,0,17,6.93a3.86,3.86,0,0,0-.51-1.22A1,1,0,0,0,15,5.45a3.82,3.82,0,0,0-1,1.37,25.85,25.85,0,0,0-1.65,4.74C12.3,11.74,12.26,11.92,12.2,12.14Z"/><path class="cls-3" d="M16.48,45.27c-.1.73,0,.88.71,1.11s1.57.5,2.35.8c.11,0,.3,0,.3.24a50.47,50.47,0,0,1-13.09-2,11,11,0,0,1-1.66-.7A2.89,2.89,0,0,1,3.55,42c.33,0,.41.26.61.37a23.14,23.14,0,0,0,7.21,2.18c1,.19,2.1.28,3.14.47A11,11,0,0,0,16.48,45.27Z"/><path class="cls-2" d="M4.27,27.14c.35.41.81.25,1.19.15a7.47,7.47,0,0,0,4.05-2.47A9.76,9.76,0,0,0,11.31,22c.12-.32.32-.63.77-.46.16,1.45.15,2.91.17,4.36a.41.41,0,0,1-.11.28,7.23,7.23,0,0,1-5,3A4.86,4.86,0,0,1,2.74,27a2.62,2.62,0,0,1-.62-1.1h0A2.92,2.92,0,0,0,4.27,27.14Z"/><path class="cls-3" d="M1.88,23.78c.08-1.62,1.06-2.59,3-2.58A2.62,2.62,0,0,1,7.5,23.94a2.74,2.74,0,0,1-2.75,2.63A2.79,2.79,0,0,1,1.88,23.78Z"/><path class="cls-3" d="M18,25a2.43,2.43,0,0,1,2.64-1A2.55,2.55,0,0,1,22,28.06a2.49,2.49,0,0,1-4.22-.65,1,1,0,0,1,0-.3c.16-.19.11-.44.13-.65A4.75,4.75,0,0,0,18,25Z"/><path class="cls-2" d="M34,34a1.13,1.13,0,0,1-.26,0c-.72-.25-1.13.21-1.53.67s-.52.65-.78,1c-.05.07-.11.2-.22.12s0-.15,0-.24a21.35,21.35,0,0,1,1.33-3.16A16.58,16.58,0,0,1,35,28.65a2.44,2.44,0,0,1,1.18-.81c.33-.08.46.05.5.34a3.07,3.07,0,0,1-.12,1.24,19.36,19.36,0,0,1-1.8,4.31C34.62,34,34.61,34,34,34Z"/><path class="cls-2" d="M12.83,18.13a3.09,3.09,0,0,1,1.38,2.17,70.7,70.7,0,0,0,.94,7.37,3.4,3.4,0,0,1,.13,1.65c-.06.23-.13.26-.29.08a27.45,27.45,0,0,1-1.86-2.18,8,8,0,0,0,0-1.19c-.12-1.1-.19-2.19-.24-3.29,0-.77-.12-1.54-.14-2.31A12.61,12.61,0,0,1,12.83,18.13Z"/><path class="cls-3" d="M13.75,39.18c0,.1,0,.18-.07.26a9.63,9.63,0,0,1-1.13,2.27,1.11,1.11,0,0,1-2,.07,7.48,7.48,0,0,1-1.24-3c0-.18,0-.22.19-.24,1.21-.19,2.42-.33,3.63-.43.1,0,.22,0,.26.1C13.55,38.53,13.65,38.86,13.75,39.18Z"/><path class="cls-3" d="M13,36.51c.09.33.13.53.2.71.15.37.06.52-.35.54a30.88,30.88,0,0,0-3.33.4c-.21,0-.28,0-.32-.22a47.18,47.18,0,0,1-.52-8.14c0-.18,0-.36.21-.45s.42-.11.43.27a23.45,23.45,0,0,0,.56,4.86,5,5,0,0,0,1,2.33,1.26,1.26,0,0,0,1.71.28A.8.8,0,0,0,13,36.51Z"/><path class="cls-3" d="M17.83,37.88a6.58,6.58,0,0,0-.75,1.64A4.36,4.36,0,0,0,18,38.25c.35-.49.62-.56,1.1-.2a17.76,17.76,0,0,0,1.6,1.13c.13.08.22.18.07.37a7.44,7.44,0,0,0-.9,1.51.54.54,0,0,1-.59.37c-.68,0-1.35,0-2-.1-.22,0-.29-.09-.29-.31a13.23,13.23,0,0,0-.32-2.81c-.05-.24,0-.35.27-.33S17.47,37.88,17.83,37.88Zm-.77,1.75,0,0v0Z"/><path class="cls-2" d="M24.52,27.94c-.11.41.17.72.28,1.07a23.62,23.62,0,0,1,1.07,4.31c.08.53.15,1,.23,1.57,0,.11.08.22-.05.31a3,3,0,0,1-.4-.92,32.9,32.9,0,0,0-3-5.35.56.56,0,0,1,0-.75A3.47,3.47,0,0,0,23.23,26,7.64,7.64,0,0,1,24.52,27.94Z"/><path class="cls-2" d="M25.11,38.59a1.22,1.22,0,0,1-1.21,0,20,20,0,0,1-6.43-3.44c-.17-.15-.36-.35-.38.1a3.82,3.82,0,0,0-.32-.27c-.27-.18-.27-.39-.17-.67.16-.48.29-1,.43-1.46.18,0,.24.13.32.22,1,1.07,2.18,2.06,3.33,3a15.69,15.69,0,0,0,3.81,2.29A3.13,3.13,0,0,0,25.11,38.59Z"/><path class="cls-3" d="M19.84,18.16a45.05,45.05,0,0,1,7.83-3.39c-.05.23-.26.25-.33.38a1.54,1.54,0,0,0-.91.44c-2,1.46-4,2.9-6.06,4.23-.17.1-.32.26-.54.24l-.17-.26A3.4,3.4,0,0,0,19.84,18.16Z"/><path class="cls-3" d="M16.7,21c-.84-.92-1.61-1.75-2.36-2.59a.28.28,0,0,1-.09-.19C14.12,17.1,14,16,13.87,15c.15-.06.19,0,.25.09.89.87,1.77,1.75,2.61,2.67a.53.53,0,0,1,.22.4Z"/><path class="cls-3" d="M11.28,9l-.5,2-1.11-.82c-.17-.13-.14-.31-.13-.48a28.17,28.17,0,0,1,.71-5.92c.06-.25.13-.51.19-.77.11.06.1.16.11.26.14,1.17.29,2.35.49,3.51a3.44,3.44,0,0,1,.11,2C11.12,8.82,11.14,8.94,11.28,9Z"/><path class="cls-2" d="M32.67,38.65l1.61.22c.23,0,.24.12.15.31-.47,1-.93,2-1.39,3-.06.13-.1.29-.28.3-.82.09-1.64.22-2.56.4A20.24,20.24,0,0,1,31.1,41c.06,0,.13,0,.16,0A8.46,8.46,0,0,0,32.67,38.65Z"/><path class="cls-3" d="M18.2,18.17c-.16-.13-.13-.3-.12-.47a83,83,0,0,0,.21-10.22,28.27,28.27,0,0,0-.68-5.18c-.07-.28-.17-.54-.28-.91.56.44.57,1.05.8,1.54-.19.15-.07.33,0,.5a28.54,28.54,0,0,1,.73,6.25c0,2.55-.18,5.1-.39,7.63C18.41,17.59,18.52,18,18.2,18.17Z"/><path class="cls-2" d="M18.2,18.17c.32-.21.21-.58.23-.86.21-2.53.38-5.08.39-7.63a28.54,28.54,0,0,0-.73-6.25c0-.17-.15-.35,0-.5a14,14,0,0,1,.73,3.38,59.58,59.58,0,0,1,0,12.31c0,.06,0,.13,0,.29Z"/><path class="cls-3" d="M22.53,34.53a2.8,2.8,0,0,1,.83.09,1.2,1.2,0,0,1,.93,1.26A4.81,4.81,0,0,1,24.15,37c-.06.23-.14.27-.35.17A16.28,16.28,0,0,1,21,35.28c-.18-.14-.09-.22,0-.33A1.89,1.89,0,0,1,22.53,34.53Z"/><path class="cls-3" d="M12.83,18.13a12.61,12.61,0,0,0,0,2.3c0,.77.11,1.54.14,2.31.05,1.1.12,2.19.24,3.29a8,8,0,0,1,0,1.19,1.48,1.48,0,0,1-.55-1.07,42,42,0,0,1-.23-8.47A1.49,1.49,0,0,1,12.83,18.13Z"/><path class="cls-2" d="M34.82,34.82c.21-.3.54-.18.82-.21s.12.16.13.26a4.32,4.32,0,0,1-.21,1.34c-.22.7-.49,1.37-.73,2.06-.07.21-.17.3-.41.24-.44-.11-.9-.11-1.34-.25.44-.73.89-1.46,1.32-2.2A2.49,2.49,0,0,0,34.82,34.82Z"/><path class="cls-2" d="M11.28,9c-.14,0-.16-.13-.13-.22a3.44,3.44,0,0,0-.11-2c-.2-1.16-.35-2.34-.49-3.51,0-.1,0-.2-.11-.26a2.16,2.16,0,0,1,.25-.74A33.38,33.38,0,0,1,12.15,6l.08.12C11.92,7,11.6,8,11.28,9Z"/><path class="cls-2" d="M31.79,37.63c-1-.52-.95-.44-.35-1.34a11.46,11.46,0,0,1,1.19-1.58.63.63,0,0,1,.72-.22,6.26,6.26,0,0,0,1.07.13,9.18,9.18,0,0,0-1.85,2.48c-.06,0-.08,0-.07.09h0A1.19,1.19,0,0,0,31.79,37.63Z"/><path class="cls-2" d="M19.83,20.06c.22,0,.37-.14.54-.24,2.08-1.33,4.08-2.77,6.06-4.23a1.54,1.54,0,0,1,.91-.44,2.05,2.05,0,0,1-.6.61,44.32,44.32,0,0,1-5,3.8,6.4,6.4,0,0,0-1.09.83c-.27.27-.41.21-.57-.06C20,20.24,19.9,20.15,19.83,20.06Z"/><path class="cls-2" d="M15.71,41.74c-.23.08-.26-.14-.32-.26-.25-.51-.47-1-.71-1.55,0-.07-.07-.16,0-.21.25-.57.48-1.16.77-1.71.11-.2.52,0,.57.18.16.69.24,1.38.33,2.07a.89.89,0,0,1-.14.57,3.09,3.09,0,0,0-.45.91Z"/><path class="cls-3" d="M13.81,32.11l-.89-.86a.55.55,0,0,1-.22-.35c-.07-1-.13-2.1-.21-3.27a9.82,9.82,0,0,1,1,1.25,3.74,3.74,0,0,0,.15,1.24A4.07,4.07,0,0,1,13.81,32.11Z"/><path class="cls-3" d="M11,36.24a7.2,7.2,0,0,1-.91-2.7,24.36,24.36,0,0,1-.4-4.18c0-.13-.05-.3.16-.34s.23.12.31.23a.78.78,0,0,1,.07.5,26.31,26.31,0,0,0,.5,5.16,6,6,0,0,0,.45,1.32Z"/><path class="cls-3" d="M17.05,23.34c-.28,2.36-.61,4.71-1.05,7.05-.42-.23-.45-.29-.36-.69.46-2,.82-4,1.12-6a3,3,0,0,1,.11-.37Z"/><path class="cls-3" d="M12.89,32.41a9.35,9.35,0,0,1,1,1,.24.24,0,0,1,.08.27,9.07,9.07,0,0,1-.8,1.75c-.44-1.26-.75-2.49-1.08-3.72a1.55,1.55,0,0,1,0-.21h0c.2.29.59.45.6.88A7,7,0,0,0,13,34.27,9.59,9.59,0,0,0,12.89,32.41Z"/><path class="cls-2" d="M13.81,32.11a4.07,4.07,0,0,0-.14-2,3.74,3.74,0,0,1-.15-1.24c.51.44.89,1,1.36,1.48.12.12.07.27,0,.4-.14.51-.31,1-.45,1.53-.08.29-.18.36-.4.1C14,32.29,13.84,32.25,13.81,32.11Z"/><path class="cls-2" d="M17.13,26.73a10.15,10.15,0,0,0,.47,1.21.5.5,0,0,1,0,.38L17,31.39c-.44-.17-.58-.39-.51-.78Z"/><path class="cls-3" d="M12.62,30.79a3.6,3.6,0,0,1-1.37-2.52c0-.14.07-.21.14-.3s.31-.37.49-.54.09-.35.27-.2.3.16.24.45a7.54,7.54,0,0,0,.1,2C12.52,30.05,12.57,30.42,12.62,30.79Z"/><path class="cls-2" d="M18,19.09l.67.78a.46.46,0,0,1,.12.39c-.09.91-.18,1.83-.29,2.84-.41-.51-.86-.84-.71-1.56A19.82,19.82,0,0,0,18,19.09Z"/><path class="cls-2" d="M13.42,14.43c.05,0,.11.07.12.11a20.81,20.81,0,0,1,.38,3.39l-1.41-1.39c.27,0,.29-.19.33-.37A15.43,15.43,0,0,1,13.42,14.43Z"/><path class="cls-3" d="M9.56,11.12l.85.67a.29.29,0,0,1,.1.34c-.14.63-.27,1.26-.41,1.89,0,.09,0,.21-.14.24s-.11-.11-.18-.16a.42.42,0,0,1-.22-.39Z"/><path class="cls-3" d="M19.77,21.25l1.67,2.09a4,4,0,0,0-2.11-.07,8,8,0,0,0,.26-1.69C19.6,21.44,19.55,21.27,19.77,21.25Z"/><path class="cls-3" d="M22.31,41.08c-.64-.14-1.3-.13-1.95-.21A2.89,2.89,0,0,1,21,39.68c.09-.15.18-.14.31,0A5,5,0,0,0,22,40c.46.21.77.47.57,1C22.45,41,22.38,41.05,22.31,41.08Z"/><path class="cls-3" d="M14.5,36.84c-.06.2-.11.41-.16.62s-.18.17-.3.19-.19-.09-.22-.21c-.12-.41-.24-.82-.38-1.23a.38.38,0,0,1,.05-.36,6.65,6.65,0,0,0,.56-1c.24,0,.16.23.19.37A10.06,10.06,0,0,0,14.5,36.84Z"/><path class="cls-3" d="M15.26,22.74l-.38-2.54c.57.66,1.09,1.25,1.59,1.84,0,0,0,.11,0,.17C16,22.3,15.69,22.61,15.26,22.74Z"/><path class="cls-3" d="M34.82,34.82a2.49,2.49,0,0,1-.42,1.24c-.43.74-.88,1.47-1.32,2.2a1,1,0,0,1-.53-.08A18.35,18.35,0,0,1,34.82,34.82Z"/><path class="cls-2" d="M14.5,36.84a10.06,10.06,0,0,1-.26-1.63c0-.14,0-.33-.19-.37a1.25,1.25,0,0,1,.12-.31c.14-.15,0-.53.35-.48a.9.9,0,0,1,.52.88A12.94,12.94,0,0,1,14.5,36.84Z"/><path class="cls-2" d="M15.8,31.54c-.12.56-.25,1.18-.39,1.79,0,.11-.09.2-.21.13s-.47-.25-.42-.49c.14-.64.34-1.27.52-1.9,0-.07.08-.14.16-.08S15.84,31.22,15.8,31.54Z"/><path class="cls-3" d="M32,38.22c-.18.28-.36.57-.56.86-.08.1-.15,0-.2-.07-.21-.23-.4-.48-.63-.69s-.17-.47,0-.69.26-.26.49-.07a4.45,4.45,0,0,0,.79.47C31.91,38.07,32,38.08,32,38.22Z"/><path class="cls-3" d="M13.42,14.43a15.43,15.43,0,0,0-.58,1.74c0,.18-.06.39-.33.37a.29.29,0,0,1-.14-.25,3.29,3.29,0,0,1,.41-2,.42.42,0,0,1,.41-.25C13.42,14.1,13.38,14.29,13.42,14.43Z"/><path class="cls-3" d="M11.51,12.76a.55.55,0,0,1,.4.72c-.17.66-.29,1.34-.44,2a.59.59,0,0,1-.4-.78C11.24,14.08,11.37,13.43,11.51,12.76Z"/><path class="cls-3" d="M29.61,42.75c-.17-.58-.32-1.08-.46-1.57a.46.46,0,0,1,.15-.5c.17-.15.28.06.39.14.58.42.58.43.29,1.09Z"/><path class="cls-2" d="M15.26,22.74c.43-.13.78-.44,1.23-.53,0,.12,0,.25,0,.38a1.14,1.14,0,0,1-1,1.09c-.18,0-.19-.05-.2-.17S15.28,23,15.26,22.74Z"/><path class="cls-2" d="M16.23,31.87a.65.65,0,0,1,.38.94c-.16.4-.23.83-.36,1.23,0,.12,0,.35-.2.29a.36.36,0,0,1-.26-.4c.05-.26.11-.5.17-.75Z"/><path class="cls-2" d="M19.77,21.25c-.22,0-.17.19-.18.33a8,8,0,0,1-.26,1.69.92.92,0,0,1-.44.15l.38-2.76A2.42,2.42,0,0,1,19.77,21.25Z"/><path class="cls-3" d="M10.78,12.15c.34.13.43.31.35.62-.18.66-.33,1.32-.49,2a.41.41,0,0,1-.29-.57C10.51,13.52,10.64,12.84,10.78,12.15Z"/><path class="cls-3" d="M32.67,38.65a8.46,8.46,0,0,1-1.41,2.27s-.1,0-.16,0c.37-.72.73-1.44,1.09-2.16C32.3,38.57,32.5,38.66,32.67,38.65Z"/><path class="cls-3" d="M29.86,38.85c.14.72.31,1.43.54,2.21l-.83-.66s-.09-.1-.08-.14A6.23,6.23,0,0,1,29.86,38.85Z"/><path class="cls-3" d="M30.17,38.55l.3.31c.71.74.71.74.09,1.73Z"/><path class="cls-3" d="M11.65,16.88c.71.51.36,1.21.49,1.89C11.41,18,11.4,18,11.65,16.88Z"/><path class="cls-3" d="M28.81,41.15l.48,1.53s0,.11,0,.15-.76-.15-.74-.27A4.38,4.38,0,0,1,28.81,41.15Z"/><path class="cls-3" d="M10.83,16.12c.54.42.53.18.29,1.47-.51-.17-.55-.23-.45-.74,0-.19.07-.39.11-.58C10.79,16.23,10.81,16.19,10.83,16.12Z"/><path class="cls-2" d="M17.4,18.46a10.23,10.23,0,0,1-.21,3.12A12.09,12.09,0,0,1,17.4,18.46Z"/><path class="cls-2" d="M17.35,25.19c0-.65.19-1.17.19-1.73.56.26.64.54.31,1C17.68,24.66,17.55,24.89,17.35,25.19Z"/><path class="cls-3" d="M10.14,15.49a.4.4,0,0,1,.26.55c-.06.25-.08.5-.13.76,0,.08,0,.24-.13.21s-.3-.09-.26-.28A8.82,8.82,0,0,1,10.14,15.49Z"/><path class="cls-2" d="M18,25a4.75,4.75,0,0,1-.14,1.5c0,.21,0,.46-.13.65A2.24,2.24,0,0,1,18,25Z"/><path class="cls-2" d="M19.84,18.16a3.4,3.4,0,0,1-.18,1.64A1.1,1.1,0,0,1,19.84,18.16Z"/><path class="cls-2" d="M15.39,35.57a2.15,2.15,0,0,1-.59,2.07Z"/><path class="cls-2" d="M12.85,11.28,13.17,13C12.48,12.57,12.46,12.45,12.85,11.28Z"/><path class="cls-2" d="M12.09,14.54a4.88,4.88,0,0,1,.22-1.1c.29.17.56.29.28.69-.18.24-.14.6-.34.84C12.06,14.88,12.23,14.65,12.09,14.54Z"/><path class="cls-3" d="M12.09,14.54c.14.11,0,.34.16.43l-.15,1.28C11.65,15.6,12,15.07,12.09,14.54Z"/><path class="cls-2" d="M12.89,32.41A9.59,9.59,0,0,1,13,34.27a7,7,0,0,1-.32-1.91C12.76,32.4,12.81,32.45,12.89,32.41Z"/><path class="cls-3" d="M31.79,37.63a1.19,1.19,0,0,1,.72-.44c-.06.28-.29.46-.4.74Z"/><path class="cls-2" d="M9.59,16.15c0-.29,0-.58,0-.87,0-.08-.06-.23.1-.22a.19.19,0,0,1,.17.21A1.65,1.65,0,0,1,9.59,16.15Z"/><path class="cls-2" d="M16.22,41.31c.06.17,0,.3-.09.45s0,.31-.22.32-.09-.25-.2-.34h0c.32,0,.29-.35.52-.42Z"/><path class="cls-2" d="M14.38,39a1.87,1.87,0,0,1,.39-1A2,2,0,0,1,14.38,39Z"/><path class="cls-2" d="M15.76,36.93c.06.27.15.42,0,.57s-.16.07-.19,0S15.69,37.21,15.76,36.93Z"/><path class="cls-2" d="M17.05,23.34h-.18c.14-.22-.15-.49.11-.75C17.2,22.84,17.06,23.1,17.05,23.34Z"/><path class="cls-2" d="M11,36.24h.18l.26.33C11.12,36.62,11,36.43,11,36.24Z"/><path class="cls-2" d="M22.31,41.08c.07,0,.14-.06.21,0S22.39,41.16,22.31,41.08Z"/><path class="cls-2" d="M16.23,41.32l0-.08,0,0-.06,0Z"/><path class="cls-3" d="M32.5,37.19c0-.06,0-.09.07-.09Z"/><polygon class="cls-3" points="12.11 31.48 12.09 31.5 12.1 31.48 12.11 31.48"/><path class="cls-2" d="M2.12,25.9l-.05,0h0l0,0Z"/><polygon class="cls-1" points="17.06 39.63 17.04 39.64 17.04 39.61 17.06 39.63"/></g></g></svg>