<svg xmlns="http://www.w3.org/2000/svg" viewBox="0 0 47.76 23.11"><defs><style>.cls-1{fill:#fff;}.cls-2{fill:#090909;}.cls-3{fill:#a1a0a0;}.cls-4{fill:#fdfdfd;}</style></defs><g id="Layer_2" data-name="Layer 2"><g id="Layer_4" data-name="Layer 4"><path class="cls-1" d="M3.25,16.44A20.33,20.33,0,0,0,11.39,16c1.11-.27,2.2-.6,3.3-.9.51-.13,1-.26,1.54-.37l.95-.19c.1,0,1.23-.18.82-.13,4.31-.5,9.79-.44,14.54-.59L40,13.58c.32,0,.66,0,1,0,.51-.05.18-.05.18,0l-.21,0c-1.52-.62-2.2-1.58-2-2.88a2,2,0,0,1,.23-1.27c-.36.69.06,0,.15-.15s.77-.43,0-.07c-.49.23-1,.47-1.45.73A7.57,7.57,0,0,0,35,12.13c-.21.36.06,0,.22-.1,1.09-.51.09-.09.07-.07.16-.14.95,0,.1-.09l-1,0c-2.28-.12-4.6-.39-6.88-.35a8.1,8.1,0,0,0-4.61,1.35c-.42.29-.82.62-1.22.95s-.38.17,0,0c-.86.35-.19.1,0,.06-.12,0-1.19.24-.62.16s-.32,0-.44,0l-1.14,0H17.58c-1.39,0-2.77-.15-4.14-.32-2.35-.29-4.6,2.28-4.5,4.5.12,2.69,2,4.19,4.5,4.5a35.82,35.82,0,0,0,8,.21,11.28,11.28,0,0,0,4.81-1.39c.09-.06,1.82-1.47,1.85-1.44s-.61.33-.65.36q.66-.16.15-.06c-.35,0-.29.06.16,0,2.52.22,5.14.4,7.67.4a8.25,8.25,0,0,0,4.52-1.18,8.56,8.56,0,0,0,1.7-1.47,8,8,0,0,1,.64-.66c-.49.4,0,.09.27-.06,2.77-1.44,5.38-3.6,5.24-7.07a6,6,0,0,0-2.7-4.87,8.39,8.39,0,0,0-5.09-1c-5.76.18-11.53.34-17.29.54A47.32,47.32,0,0,0,13,6.24c-1.47.37-2.92.83-4.4,1.18l-.88.19-.44.08h.09c-.37,0-.74.06-1.11.06-.18,0-1.42-.1-.57,0-2.32-.35-5,.57-5.54,3.14-.49,2.14.65,5.17,3.14,5.53Z"/><path class="cls-2" d="M25.84,15.26a3.36,3.36,0,0,1-.4,1.28.58.58,0,0,0-.12.43c0,.11-.08.18-.16.25a9.42,9.42,0,0,1-1.25.93,20.24,20.24,0,0,0-1.72,1.19,4.16,4.16,0,0,1-.66.43.89.89,0,0,1-.88,0c-.85-.48-1.71-1-2.57-1.41-3.34-1.83-6.69-3.67-10-5.54-.21-.12-.41-.26-.61-.38a3.6,3.6,0,0,1-.5-.29c-.07-.06-.08-.09-.06-.16A1.74,1.74,0,0,1,7,11.59a4.79,4.79,0,0,0,.24-.9c0-.2.07-.19.26-.13s.59.25.89.37a.3.3,0,0,0,.26,0L12,9.44a.59.59,0,0,1,.31-.09c.11,0,.13-.06.1-.15a1.09,1.09,0,0,1,.08-.69.13.13,0,0,1,.2-.08,1.18,1.18,0,0,1,.28.12,21.5,21.5,0,0,0,2,1.13c2.09,1.11,4.26,2,6.4,3.05,1.13.54,2.21,1.16,3.35,1.68a2.38,2.38,0,0,0,.88.31.27.27,0,0,1,.23.25C25.83,15.07,25.83,15.17,25.84,15.26Zm-10.93-.9h0c.12.14.23.14.38,0,.66-.47,1.36-.89,2-1.39,0,0,.1-.06.08-.12a.12.12,0,0,0-.16-.06.35.35,0,0,0-.14.06c-.37.26-.78.47-1.17.69a2,2,0,0,0-.54.37l-.45.32a.05.05,0,0,0-.06.06A0,0,0,0,0,14.91,14.36ZM12,12.81a.15.15,0,0,0,.19,0l.3-.21s.07,0,.11,0l.66-.35a8.34,8.34,0,0,1,1.38-.74s.1,0,.08-.09-.08,0-.12,0a.52.52,0,0,0-.13.06c-.58.35-1.21.62-1.82.93-.06,0-.13,0-.16.11l-.49.27s-.06,0-.06,0A0,0,0,0,0,12,12.81Zm8.31,2.1a.23.23,0,0,0-.18.15l0,0a.17.17,0,0,0-.16.12l0,0c-.06,0-.1,0-.11.09h0a.1.1,0,0,0-.12.09h-.05l-1.09.73c-.09.06-.07.12,0,.17l.34.18a.22.22,0,0,0,.28,0,8.41,8.41,0,0,1,1.75-1.27l.24-.13c.07,0,.07-.08,0-.13l-.29-.18c-.26-.16-.37-.13-.54.13Zm-.46,1.46c-.15.06-.24.19-.37.27s-.08.15,0,.2l.5.23a10.78,10.78,0,0,0,1.72.72A.45.45,0,0,1,22,18c.07.14.15.13.26,0a6.2,6.2,0,0,1,1-.68,9.79,9.79,0,0,0,.9-.58c.14-.11.14-.15,0-.24l-2.41-1.31a.26.26,0,0,0-.3,0c-.24.18-.51.32-.77.49a2.93,2.93,0,0,0-.64.47l0,0a.17.17,0,0,0-.14.12Zm-7-7.58c-.06,0-.06.06-.07.09a1.3,1.3,0,0,1-.14.39c-.08.1,0,.15.05.21l6.08,3.19,2.6,1.38,3,1.6c.12.06.19.06.21-.1s.17-.29.1-.43-.26-.15-.4-.23c-1.89-1-3.78-2-5.69-3L14.31,9.71a7,7,0,0,1-1.45-.89ZM7.73,11.92c0,.09,0,.11.1.14.23.11.46.21.69.33,1.72.92,3.44,1.84,5.18,2.72.27.13.54.25.8.39,1.18.63,2.34,1.31,3.5,2,.4.23.81.45,1.2.7s1,.55,1.49.82c.1.06.13,0,.13-.07a.56.56,0,0,1,.09-.31c.07-.13,0-.18-.09-.24L10.61,13c-.82-.43-1.64-.84-2.44-1.3-.33-.19-.37-.18-.44.2Zm4.42-1.84-.13,0L9.34,11.24s-.1,0-.1.08.06.07.1.09l2,1.07a.24.24,0,0,0,.26,0c.8-.43,1.62-.84,2.45-1.23.05,0,.12,0,.13-.1s-.08-.07-.13-.1c-.56-.31-1.13-.61-1.7-.91A.32.32,0,0,0,12.15,10.08ZM15,11.59a1.38,1.38,0,0,0-.2.08l-2.35,1.21c-.14.07-.13.1,0,.19l1.89,1a.29.29,0,0,0,.36,0,9.78,9.78,0,0,1,1.47-1,6.08,6.08,0,0,0,.59-.35c.14-.08.14-.12,0-.2l-1.56-.88A.4.4,0,0,0,15,11.59ZM18,16a.29.29,0,0,0,.17-.06c.66-.44,1.31-.88,1.93-1.37.14-.11.14-.15,0-.24L17.8,13.09a.26.26,0,0,0-.35,0,12,12,0,0,1-1.9,1.33c-.21.13-.21.16,0,.28L17.88,16Z"/><path class="cls-2" d="M38.12,10.79l0,0a.45.45,0,0,0-.21-.2l-.06,0a.18.18,0,0,0-.15-.09l-.13-.07a.07.07,0,0,0-.09,0h-.06c-.12-.05-.16,0-.17.12L37.1,11.7a4.21,4.21,0,0,1-.12,1,.39.39,0,0,1-.64.21,1.92,1.92,0,0,1-.22-.18h0a.56.56,0,0,0-.23-.25l-.12-.13c0-.1-.11-.15-.18-.21s-.09-.06-.11,0h0a.66.66,0,0,0-.14.63c.09.42.23.84.35,1.25s.24.71.35,1.06l0,.06c0,.07,0,.12,0,.18l.51,1.41.33.93v.06a.06.06,0,0,0,0,.08l0,.06a.43.43,0,0,0,0,.25l0,.06a.12.12,0,0,0,0,.14v.38c-.08.29-.11.58-.21.86l-.06.08c-.22,0-.3,0-.35-.24,0,0,0-.08,0-.11V19a.23.23,0,0,0,0-.21v-.06a1.37,1.37,0,0,0,.09-.49v-.1a.26.26,0,0,0,0-.21v-.1a.14.14,0,0,0,0-.14.29.29,0,0,0,0-.16,3.93,3.93,0,0,0-.24-.78c-.35-1-.74-2-1-3-.11-.35-.2-.71-.29-1.07v-.24a2.46,2.46,0,0,1,.14-.38c.12-.27.12-.27-.13-.46l0-.06a.22.22,0,0,0-.13-.15l-.08-.09a.23.23,0,0,0-.12-.15l0,0a.13.13,0,0,0-.09-.12l0,0a.11.11,0,0,0-.08-.11l0,0a.12.12,0,0,0-.09-.12l0-.06a.08.08,0,0,0-.06-.08l0,0a.12.12,0,0,0-.08-.12l0,0a.06.06,0,0,0,0-.08,0,0,0,0,0,0,0,.18.18,0,0,0-.1-.15s0,0,0,0,0-.07,0-.09l0,0a.18.18,0,0,0-.09-.15v0A7.55,7.55,0,0,1,33.43,9V8.92c0-.1.1-.26-.13-.21h-.1l-.66.13h-.2a.23.23,0,0,0-.24,0s0,.09.08.12l0,.09a.08.08,0,0,0,.05.08l0,0a1,1,0,0,1-.09.65c-.25.6-.54,1.17-.82,1.75,0,.05-.08.09-.06.16v.06c0,.18-.11.32-.15.48l0,0a.06.06,0,0,0-.05.08s0,0,0,0a.08.08,0,0,0-.06.08v0a.07.07,0,0,0-.06.07h0a.34.34,0,0,1-.24,0l0,0a.47.47,0,0,1-.07-.35,7.13,7.13,0,0,1,.5-1.43s.06-.08.05-.14v0a.38.38,0,0,0,.13-.22v0a.18.18,0,0,0,.09-.15l.05-.09A.35.35,0,0,0,31.6,10l.1-.19a1.44,1.44,0,0,0,.18-.4L32,9.29c.09,0,.14-.06.06-.15l0-.05c-.1-.14-.17-.07-.25,0l-.06,0-.52.21h-.06a1.77,1.77,0,0,1-.79-.15h0a.08.08,0,0,0-.08-.06L30.06,9a.61.61,0,0,1,0-.6c0-.07.09-.13.09-.22l0,0c.05,0,.06-.07.09-.11s0-.08,0-.08c-.27,0-.36,0-.45.31,0,0,0,0,0,0a.07.07,0,0,0-.06.08v0a.08.08,0,0,0-.07.07,1.28,1.28,0,0,1-.4.29s-.05,0-.07,0-.26,0-.28-.19a2,2,0,0,1,.17-.68,1.58,1.58,0,0,0,.09-.52s0-.09-.06-.1a3.5,3.5,0,0,0-.23.78,1.27,1.27,0,0,0-.08.51c-.09.26-.11.54-.19.8L28.16,11a.25.25,0,0,0,0,.08c-.07,0-.06.09-.06.15v.07a0,0,0,0,0,0,.07l0,.07s0,0,0,.07v.06c-.13.37-.19.76-.31,1.13a5,5,0,0,0-.22.84l0,.06a.2.2,0,0,0-.05.18l0,.06a.73.73,0,0,0-.09.32v.06a1.23,1.23,0,0,0-.13.49v.06a.05.05,0,0,0,0,.08v.06a.09.09,0,0,0,0,.11v.06a.08.08,0,0,0,0,.11v.07a.07.07,0,0,0,0,.1l0,.1a.12.12,0,0,0,0,.14v.07l-.11.27,0,0h-.22a.21.21,0,0,0-.07-.13v-.1a.11.11,0,0,0,0-.11V15.4c.09,0,.07-.07.06-.12v-.07a.07.07,0,0,0,0-.1l0-.07,0-.06c.11-.55.29-1.09.45-1.63a1.61,1.61,0,0,0,.12-.48V12.8a.08.08,0,0,0,0-.1v-.07s0,0,0-.07v-.07a.07.07,0,0,0,0-.1l0-.07a1.47,1.47,0,0,0,.12-.55l0-.07s0,0,0-.07v-.07A1.69,1.69,0,0,0,27.7,11l0-.07c.13-.41.26-.82.38-1.24A3.64,3.64,0,0,0,28.29,9V8.91s0,0,0-.07l0-.06a.06.06,0,0,0,0-.08V8.64A2.65,2.65,0,0,0,28.53,8l0-.06a.23.23,0,0,0,.05-.18V7.71a.93.93,0,0,0,.13-.35l.1-.2c.05,0,.05,0,.05-.1L29,7c.23-.1.28-.08.44.14s0,.23.08.22.06-.14.06-.22a1,1,0,0,1,.22-.45,5.35,5.35,0,0,1,.55-.51s.1,0,.1,0-.05-.07-.11,0a2.57,2.57,0,0,0-.47-.15,0,0,0,0,0-.08,0,.58.58,0,0,0-.26,0,.06.06,0,0,0-.09,0,.24.24,0,0,0-.15.11c-.09,0-.09.07-.07.13s-.1.07-.12.13,0,0-.06.07-.11.32-.29.4,0,.07.05.08a.19.19,0,0,1,0,.18.85.85,0,0,1-.55.31c-.36.07-.72.17-1.09.22,0,0-.1,0-.11,0-.14.18-.29.11-.44,0a1.89,1.89,0,0,0-.21-.09A1.36,1.36,0,0,1,25.65,7s-.08-.1-.15-.09h-.82a7,7,0,0,1-.93-.24l-.05,0a.18.18,0,0,0-.16-.09s0,0,0,0a.27.27,0,0,0-.18-.13h0a.09.09,0,0,0-.09-.06h0a.15.15,0,0,0-.14-.09l0,0a.06.06,0,0,0-.08,0l-.06-.05a.07.07,0,0,0-.08-.06l-.27-.27a.13.13,0,0,0-.09-.11l0,0c0-.08-.05-.11-.12-.09l-1,.3h-.06a.09.09,0,0,0-.11,0l-.06,0c-.05,0-.08,0-.11,0h-.07a6.94,6.94,0,0,0-1.1.23h-.07a.11.11,0,0,0-.11,0h-.06a.23.23,0,0,0-.18,0H19a1.07,1.07,0,0,0-.38.35l-.24.23a.37.37,0,0,0-.18.21s0,0,0,0a.93.93,0,0,0-.26.36l0,0c-.06,0-.08.06-.11.1a1.85,1.85,0,0,1-1,.69c-.32.1-.63.24-.94.36-.12,0-.24,0-.2-.17a0,0,0,0,0,0-.06L16,8.16a3.91,3.91,0,0,1,.74-.44c.05,0,.11,0,.13-.1L17,7.48a2.06,2.06,0,0,0,.39-.39L17.52,7a.33.33,0,0,0,.18-.17l.13-.11A.23.23,0,0,0,18,6.56l.05,0a.23.23,0,0,0,.15-.12l.06,0a.24.24,0,0,0,.17-.14l0,0a.21.21,0,0,0,.15-.11l0,0a.83.83,0,0,0,.29-.16s0,0,0,0l.38-.1h.06c.06,0,.13,0,.19,0a16.36,16.36,0,0,0,1.89-.57A2,2,0,0,0,22,4.92l.09,0c.17,0,.31-.07.25-.3a.41.41,0,0,1,.06-.28,2.07,2.07,0,0,1,.48-.66,3.72,3.72,0,0,1,4-.83,1.38,1.38,0,0,1,.95.9s0,.07.07.07l0-.06c.17-.75.46-1.46.65-2.21a5,5,0,0,0,.2-.76.31.31,0,0,0,0-.23.29.29,0,0,1-.05-.18c.06,0,.11-.05.17,0s.1,0,.12,0h0a.07.07,0,0,0,0-.08l.1-.11a.5.5,0,0,1,.27,0l.08.06V.21h0a.07.07,0,0,0-.08,0s0,0,0,0a.56.56,0,0,0-.1.33V.65c0,.06,0,.1,0,.14a1.89,1.89,0,0,1,.21.51,9.38,9.38,0,0,1,.29,2.05A14.7,14.7,0,0,1,29.68,5c0,.15,0,.22.18.23a2.28,2.28,0,0,1,.63.18c.21.08.23.08.24-.15a5,5,0,0,1,.44-1.66c.1-.23.18-.47.27-.7,0,0,.07-.15,0-.12a3.09,3.09,0,0,0-.78.25l0,0-.17,0h0v-.2l.11-.11c.19-.09.41-.13.6-.24l.12-.07a.16.16,0,0,0,.15-.08s0,0,0,0,.16-.09.24-.13a.26.26,0,0,1,.41.24.29.29,0,0,1,0,.13,5,5,0,0,1-.23,1,6.87,6.87,0,0,1-.73,1.49l-.05.06a.06.06,0,0,0-.05.08L31,5.29a.08.08,0,0,0-.06.08v0c-.06,0-.12.11,0,.17s.18.23.34.12h.27l.63.2,0,0s0,0,.09,0,.25-.17.35-.28h0a.09.09,0,0,0,.09-.06h0a.22.22,0,0,0,.15-.1h0A.18.18,0,0,0,33,5.38h0a3.6,3.6,0,0,0,.69-.32.77.77,0,0,1,.89,0h0c.09.16.15.33.25.48a4.57,4.57,0,0,0,.53.77,0,0,0,0,0,0,0s0,0,0,0a2.37,2.37,0,0,1,.45.88.19.19,0,0,0,.16.14,1.89,1.89,0,0,1,.44.19,1.59,1.59,0,0,1,.69,1.15A5.09,5.09,0,0,1,37.25,10s-.06.16.07.14h.06a.86.86,0,0,1,.59.12l0,0a.08.08,0,0,0,.08,0s0,0,0,0a.35.35,0,0,0,.18.16l.2.18a5.7,5.7,0,0,0,.65.65l.15.16a.56.56,0,0,0,.23.25l.15.17a.31.31,0,0,0,.16.18l.22.23a.53.53,0,0,0,.2.22l.11.12a2.23,2.23,0,0,0,.47.5l0,0a2.73,2.73,0,0,1,.29.8A15.42,15.42,0,0,0,42.08,17s0,.09.07.12l0,.08c.12.39.25.78.36,1.17a4.68,4.68,0,0,0,.28,1v.17c-.08.14-.17.11-.27,0s0,0,0,0a.53.53,0,0,0-.11-.24v-.06c0-.05,0-.08,0-.11v-.07a.09.09,0,0,0,0-.11l0-.06a.12.12,0,0,0,0-.14v-.07a.4.4,0,0,0-.06-.28v-.06a0,0,0,0,0,0-.07l0-.07s0-.05,0-.07v-.06a1.14,1.14,0,0,0-.17-.51l0-.08a1.29,1.29,0,0,0-.24-.5l0-.09a1.52,1.52,0,0,0-.25-.53,0,0,0,0,0,0,0,.64.64,0,0,0,0-.07,9.76,9.76,0,0,1-.78-2.53.52.52,0,0,0-.12-.34v0a.09.09,0,0,0-.06-.09l0-.05a.43.43,0,0,0-.2-.22l-.18-.2a.14.14,0,0,0-.1-.11l-.21-.23a.64.64,0,0,0-.24-.25l-.14-.16a10.5,10.5,0,0,0-1-1l0-.06A.39.39,0,0,0,38.12,10.79ZM24.2,4.61s.05,0,.07,0a.44.44,0,0,1,.29.09.44.44,0,0,0,.25.15l0,0a.06.06,0,0,0,.08,0l0,0a.2.2,0,0,0,.15.12l.05,0s.05.06.07.09c.39.36.8.69,1.15,1.08a.2.2,0,0,0,.22,0,3.39,3.39,0,0,1,.83-.22.37.37,0,0,0,.32-.27,1.69,1.69,0,0,0-.05-.67V5c-.14-.4-.28-.8-.43-1.2,0-.07,0-.16-.13-.2L27,3.46s0-.07-.08-.06,0,0,0,0a1.21,1.21,0,0,0-.71-.24l-.07,0s-.07,0-.11,0a.09.09,0,0,0-.1,0s0,0,0,0a2,2,0,0,0-.77,0H25a.49.49,0,0,0-.27,0,2.36,2.36,0,0,0-1.06.5s0,0,0,0a1,1,0,0,0-.39.3h0a1.45,1.45,0,0,0-.55.63c0,.07,0,.09.07.08l.86-.1.17,0,.25.09c.06,0,.11,0,.13-.06ZM31.52,6h-.2a.82.82,0,0,1-.3.1.38.38,0,0,0-.2.66,1.53,1.53,0,0,0,.46.34c.07,0,.12,0,.15-.05l.18-.44a4.25,4.25,0,0,1,.27-.46A.06.06,0,0,0,32,6.09s0,0-.07,0a.86.86,0,0,0-.28,0A.05.05,0,0,0,31.52,6ZM28.1,3.91s-.05,0-.05.08,0,0,0,0a.19.19,0,0,0-.06.23,3,3,0,0,1,.17.67c0,.07,0,.11.11,0h.17l.31.14.17.17c0,.09.08.08.14.05s.16-.08.15-.2c0-.42,0-.84,0-1.27a20,20,0,0,0-.11-2c0-.06,0-.13-.07-.19-.06.17-.11.34-.16.51a13.48,13.48,0,0,1-.71,1.76S28.1,3.9,28.1,3.91ZM35.19,8a.19.19,0,0,0-.19.07l-.19.07a.06.06,0,0,0-.09,0l-.3.13-.61.26a.18.18,0,0,0-.12.24A2.9,2.9,0,0,0,34,9.6a16.62,16.62,0,0,0,1.41,1.84c.07.07.12.07.18,0s.29-.37.44-.55.16-.21.26-.14,0,.19,0,.27a5.27,5.27,0,0,1-.43.62.16.16,0,0,0,0,.23c.16.15.33.27.49.4s.17.08.18-.07c0-.34.07-.68.11-1a7.82,7.82,0,0,0,0-2.16,1,1,0,0,0-.13-.47.64.64,0,0,0-.35-.45.06.06,0,0,0-.08,0A.9.9,0,0,0,35.91,8s0,0-.08,0l-.16,0a.1.1,0,0,0-.14,0l-.17,0a.08.08,0,0,0-.11,0ZM34,7.5c-.19-.72-.4-1-1.14-1.14-.51-.1-.69,0-.88.52-.09.13-.12.28-.2.42s-.3.56-.66.64a1.17,1.17,0,0,0-.76.65c-.09.18-.07.26.11.35a1,1,0,0,0,1,0c.08-.05.24-.07.15-.24s0-.11.09-.12a.84.84,0,0,1,.2-.05l1-.09a.31.31,0,0,0,.22-.09A2,2,0,0,1,34,7.8C34.17,7.71,34.17,7.7,34,7.5Zm-9.22-.92.34,0c.1,0,.12,0,.07-.14a4,4,0,0,0-.6-.87c-.2-.2-.46-.37-.5-.7,0-.07-.08-.07-.14-.07s0,0,0,.07c0,.22,0,.27-.2.33l-.94.28c-.05,0-.12,0-.13.06s0,.1.09.13a7.08,7.08,0,0,0,.85.58A1.9,1.9,0,0,0,24.81,6.58Zm10.59.66a1.83,1.83,0,0,0-.28-.46,6.42,6.42,0,0,1-.79-1.27c0-.12-.11-.1-.18,0s-.3.3-.44.46-.18.19,0,.33a1.09,1.09,0,0,1,.45.52,1.93,1.93,0,0,1,.16.7c0,.1,0,.13.13.09a3.63,3.63,0,0,1,.85-.26C35.38,7.32,35.41,7.3,35.4,7.24Zm-6.88-.6a.19.19,0,0,0-.17-.2A.5.5,0,0,1,28,6.28a.26.26,0,0,0-.34-.07c-.28.12-.57.24-.87.35,0,0-.1,0-.07.1s.11.22.26.21l.51-.08A3.5,3.5,0,0,1,28.52,6.64Zm1.77-.25a.92.92,0,0,0-.42.78,1.3,1.3,0,0,1,0,.48c0,.08,0,.09.09.1a.84.84,0,0,0,.77-.43.07.07,0,0,0,0-.1A1,1,0,0,1,30.29,6.39ZM29.16,8.54a1.32,1.32,0,0,0,.45-.43c.06-.08.12-.15,0-.23s0-.08,0-.11.13,0,.09-.09,0-.1-.09-.11-.08.06-.11.1A5.59,5.59,0,0,0,29.16,8.54Zm-.46-3s-.12-.16-.18-.16-.24.22-.23.32.11.11.18.13S28.71,5.65,28.7,5.58Zm2.08,2.07a1.35,1.35,0,0,0,.4-.12.11.11,0,0,0,.07-.11s-.06,0-.1,0S30.88,7.38,30.78,7.65Zm-1.68.93h0Z"/><path class="cls-3" d="M28.74.75a5,5,0,0,1-.2.76c-.19.75-.48,1.46-.65,2.21l0,.06c-.05,0-.06,0-.07-.07a1.38,1.38,0,0,0-.95-.9,3.72,3.72,0,0,0-4,.83,2.07,2.07,0,0,0-.48.66.41.41,0,0,0-.06.28c.06.23-.08.27-.25.3,0-.06.07-.07.12-.08a.14.14,0,0,0,.07-.13,1.25,1.25,0,0,1,.42-.94,3.76,3.76,0,0,1,3.58-1.15,2.33,2.33,0,0,1,1.31.6,1.38,1.38,0,0,1,.19.28s0,.09.1.08,0-.06,0-.1c.25-.82.49-1.65.74-2.48C28.66.89,28.65.79,28.74.75Z"/><path class="cls-3" d="M30.62,3a3.09,3.09,0,0,1,.78-.25c.11,0,.06.07,0,.12-.09.23-.17.47-.27.7a5,5,0,0,0-.44,1.66c0,.23,0,.23-.24.15a2.28,2.28,0,0,0-.63-.18c-.16,0-.2-.08-.18-.23a14.7,14.7,0,0,0,.09-1.63,9.38,9.38,0,0,0-.29-2,1.89,1.89,0,0,0-.21-.51s-.07-.08,0-.14a1.69,1.69,0,0,1,.36.82,9,9,0,0,1,.24,2.59c0,.31,0,.62-.08.92,0,.09,0,.14.1.16a2,2,0,0,1,.68.19c.08,0,.15,0,.15-.09a6.18,6.18,0,0,1,.61-2.18c0-.06.09-.13,0-.19s-.12,0-.18,0A4.87,4.87,0,0,1,30.62,3Z"/><path class="cls-3" d="M24.81,6.92h.69c.07,0,.11,0,.15.09a1.36,1.36,0,0,0,.73.49,1.89,1.89,0,0,1,.21.09c.15.09.3.16.44,0,0,0,.07,0,.11,0,.37,0,.73-.15,1.09-.22A.85.85,0,0,0,28.78,7s0,.09.11.07,0,.08-.05.1-.08,0-.12,0a1.64,1.64,0,0,1-.8.28l-.79.15s-.06,0-.08,0-.32.11-.49,0a1.19,1.19,0,0,0-.26-.11,1,1,0,0,1-.58-.37A.48.48,0,0,0,25.24,7c-.1,0-.21,0-.31,0S24.83,7,24.81,6.92Z"/><path class="cls-3" d="M37.32,10.11c-.13,0-.07-.09-.07-.14a5.09,5.09,0,0,0-.07-1.23,1.59,1.59,0,0,0-.69-1.15,1.89,1.89,0,0,0-.44-.19.19.19,0,0,1-.16-.14,2.37,2.37,0,0,0-.45-.88s0,0,0,0,.11.07.14.12a2.29,2.29,0,0,1,.37.75.19.19,0,0,0,.14.13,1.69,1.69,0,0,1,1.21,1.6C37.34,9.33,37.29,9.72,37.32,10.11Z"/><path class="cls-3" d="M35.05,12.7c.09.36.18.72.29,1.07.3,1,.69,2,1,3a3.93,3.93,0,0,1,.24.78c-.07,0-.06-.1-.08-.15-.35-1-.71-2-1.06-3A15.07,15.07,0,0,1,35,12.81S35,12.73,35.05,12.7Z"/><path class="cls-3" d="M31.12,5.09a6.87,6.87,0,0,0,.73-1.49,5,5,0,0,0,.23-1,.29.29,0,0,0,0-.13.26.26,0,0,0-.41-.24c-.08,0-.14.12-.24.13a.53.53,0,0,1,.38-.23.31.31,0,0,1,.34.33,2.88,2.88,0,0,1-.14.87A5.6,5.6,0,0,1,31.26,5S31.2,5.08,31.12,5.09Z"/><path class="cls-3" d="M42.15,17.16s0-.08-.07-.12A15.42,15.42,0,0,1,41.16,14a2.73,2.73,0,0,0-.29-.8.83.83,0,0,1,.3.57,15.45,15.45,0,0,0,.54,2.13c.13.39.28.78.43,1.16C42.15,17.08,42.18,17.11,42.15,17.16Z"/><path class="cls-3" d="M36.12,12.73a1.92,1.92,0,0,0,.22.18A.39.39,0,0,0,37,12.7a4.21,4.21,0,0,0,.12-1l.12-1.25c0-.11.05-.17.17-.12a.17.17,0,0,0-.12.17c-.05.66-.1,1.31-.17,2a.73.73,0,0,1-.19.48A.5.5,0,0,1,36.12,12.73Z"/><path class="cls-3" d="M40.54,13.41a.52.52,0,0,1,.12.34,9.76,9.76,0,0,0,.78,2.53.64.64,0,0,1,0,.07c-.08,0-.09-.09-.12-.14a9.48,9.48,0,0,1-.54-1.55A10.67,10.67,0,0,1,40.54,13.41Z"/><path class="cls-3" d="M36,15.11c-.11-.35-.24-.7-.35-1.06s-.26-.83-.35-1.25a.66.66,0,0,1,.14-.63,1.12,1.12,0,0,0-.07.7c.05.18.09.36.15.54.15.52.31,1,.47,1.56C36,15,36.09,15.06,36,15.11Z"/><path class="cls-3" d="M31.33,11.74c0-.07,0-.11.06-.16.28-.58.57-1.15.82-1.75a1,1,0,0,0,.09-.65c.12.09.09.2.07.31a3,3,0,0,1-.29.77c-.22.47-.45.93-.67,1.39C31.39,11.69,31.38,11.73,31.33,11.74Z"/><path class="cls-3" d="M15.93,8.6c.31-.12.62-.26.94-.36a1.85,1.85,0,0,0,1-.69s.05-.09.11-.1,0,.11-.08.16a1.67,1.67,0,0,1-.84.64c-.33.1-.63.28-1,.35C16,8.61,16,8.65,15.93,8.6Z"/><path class="cls-3" d="M22,4.92a2,2,0,0,1-.52.24,16.36,16.36,0,0,1-1.89.57c-.06,0-.13,0-.19,0s0,0,.06,0a11.91,11.91,0,0,0,2.42-.75S21.93,4.89,22,4.92Z"/><path class="cls-3" d="M36.94,17.69l-.33-.93-.51-1.41c0-.06-.06-.11,0-.18a1.46,1.46,0,0,1,.18.45c.23.61.44,1.22.66,1.83C36.93,17.53,37,17.6,36.94,17.69Z"/><path class="cls-3" d="M28.8,8.6a1.27,1.27,0,0,1,.08-.51,3.5,3.5,0,0,1,.23-.78c.08,0,.06.06.06.1a1.58,1.58,0,0,1-.09.52,2,2,0,0,0-.17.68Z"/><path class="cls-3" d="M27.29,12.87a1.61,1.61,0,0,1-.12.48c-.16.54-.34,1.08-.45,1.63l0,.06c-.07-.08,0-.15,0-.22.13-.65.36-1.26.54-1.89C27.25,12.9,27.26,12.87,27.29,12.87Z"/><path class="cls-3" d="M42.83,19.38a4.68,4.68,0,0,1-.28-1c-.11-.39-.24-.78-.36-1.17a.8.8,0,0,1,.18.41c.12.37.22.75.32,1.13a3.66,3.66,0,0,0,.13.44C42.84,19.27,42.89,19.32,42.83,19.38Z"/><path class="cls-3" d="M31.19,10.67c0,.06,0,.1-.05.14a7.13,7.13,0,0,0-.5,1.43.47.47,0,0,0,.07.35c-.11,0-.13-.11-.14-.21a.19.19,0,0,1,0-.08,6.45,6.45,0,0,1,.53-1.55S31.14,10.67,31.19,10.67Z"/><path class="cls-3" d="M27.48,13.53a5,5,0,0,1,.22-.84c.12-.37.18-.76.31-1.13.06.11,0,.21,0,.31-.11.53-.28,1.06-.44,1.58C27.52,13.48,27.52,13.52,27.48,13.53Z"/><path class="cls-3" d="M28.29,9a3.64,3.64,0,0,1-.19.72c-.12.42-.25.83-.38,1.24,0-.1,0-.19,0-.28.15-.53.31-1.06.47-1.59C28.24,9,28.24,9,28.29,9Z"/><path class="cls-3" d="M34.63,5.06a.77.77,0,0,0-.89,0,3.6,3.6,0,0,1-.69.32s0,0,0,0a9,9,0,0,1,1-.46A.49.49,0,0,1,34.63,5.06Z"/><path class="cls-3" d="M38.37,11.07a10.5,10.5,0,0,1,1,1,.12.12,0,0,1-.1-.06l-.81-.81S38.35,11.14,38.37,11.07Z"/><path class="cls-3" d="M35.41,6.31a4.57,4.57,0,0,1-.53-.77c-.1-.15-.16-.32-.25-.48.08,0,.11.06.14.11a7.05,7.05,0,0,0,.63,1.06A.11.11,0,0,1,35.41,6.31Z"/><path class="cls-3" d="M16.84,7.62c0,.06-.08.08-.13.1a3.91,3.91,0,0,0-.74.44c0-.12.13-.16.22-.22A1.47,1.47,0,0,1,16.84,7.62Z"/><path class="cls-3" d="M21.3,5.88l1-.3c.07,0,.12,0,.12.09a.39.39,0,0,0-.26,0q-.37.12-.75.21S21.34,5.93,21.3,5.88Z"/><path class="cls-3" d="M19.79,6.19A6.94,6.94,0,0,1,20.89,6c0,.07-.09.06-.14.07l-.87.17S19.81,6.22,19.79,6.19Z"/><path class="cls-3" d="M39.13,11.3a5.7,5.7,0,0,1-.65-.65c.18.06.27.22.4.35S39.11,11.15,39.13,11.3Z"/><path class="cls-3" d="M33.43,9a7.55,7.55,0,0,0,.38.93c-.09,0-.1-.11-.13-.17a3.45,3.45,0,0,1-.25-.63S33.38,9,33.43,9Z"/><path class="cls-3" d="M35.06,11.62c.25.19.25.19.13.46a2.46,2.46,0,0,0-.14.38.56.56,0,0,1,.09-.4c.07-.13.11-.24,0-.34A.08.08,0,0,1,35.06,11.62Z"/><path class="cls-3" d="M23.75,6.68a7,7,0,0,0,.93.24,1.08,1.08,0,0,1-.59-.08C24,6.81,23.83,6.8,23.75,6.68Z"/><path class="cls-3" d="M36.87,19.58c.1-.28.13-.57.21-.86A1.37,1.37,0,0,1,36.87,19.58Z"/><path class="cls-3" d="M30.19,8.19c0,.09-.06.15-.09.22a.61.61,0,0,0,0,.6.16.16,0,0,1-.12-.18A.84.84,0,0,1,30.19,8.19Z"/><path class="cls-3" d="M29.81,8.29C29.9,8,30,8,30.26,8c.08,0,.08,0,0,.08s0,.09-.09.11,0-.14-.12-.11S29.92,8.24,29.81,8.29Z"/><path class="cls-3" d="M30.3,9.22a1.77,1.77,0,0,0,.79.15.37.37,0,0,1-.35,0A.66.66,0,0,1,30.3,9.22Z"/><path class="cls-3" d="M40.82,13.13a2.23,2.23,0,0,1-.47-.5A1.33,1.33,0,0,1,40.82,13.13Z"/><path class="cls-3" d="M36.42,19.31s0,.07,0,.11c0,.22.13.28.35.24-.1.15-.22.07-.3,0A.31.31,0,0,1,36.42,19.31Z"/><path class="cls-3" d="M32.53,8.85l.66-.13A.9.9,0,0,1,32.53,8.85Z"/><path class="cls-3" d="M32.09,5.88l-.63-.2A.77.77,0,0,1,32.09,5.88Z"/><path class="cls-3" d="M31.19,5.68c-.16.11-.25,0-.34-.12s0-.13,0-.17C30.88,5.6,31,5.64,31.19,5.68Z"/><path class="cls-3" d="M38,10.22a.86.86,0,0,0-.59-.12A.45.45,0,0,1,38,10.22Z"/><path class="cls-3" d="M28.53,8a2.65,2.65,0,0,1-.16.63A1.08,1.08,0,0,1,28.53,8Z"/><path class="cls-3" d="M17.37,7.09a2.06,2.06,0,0,1-.39.39A.78.78,0,0,1,17.37,7.09Z"/><path class="cls-3" d="M31.14,2.51c-.19.11-.41.15-.6.24.05-.11.17-.12.26-.15S31,2.48,31.14,2.51Z"/><path class="cls-3" d="M18.65,6.61A1.07,1.07,0,0,1,19,6.26.81.81,0,0,1,18.65,6.61Z"/><path class="cls-3" d="M27.7,11a1.69,1.69,0,0,1-.12.55A.82.82,0,0,1,27.7,11Z"/><path class="cls-3" d="M32.58,5.66c-.1.11-.17.27-.35.28s-.07,0-.09,0,.27-.07.34-.21A.08.08,0,0,1,32.58,5.66Z"/><path class="cls-3" d="M27.53,11.77a1.47,1.47,0,0,1-.12.55A.88.88,0,0,1,27.53,11.77Z"/><path class="cls-3" d="M41.47,16.37a1.52,1.52,0,0,1,.25.53A1.3,1.3,0,0,1,41.47,16.37Z"/><path class="cls-3" d="M31.15,9.36l.52-.21A.6.6,0,0,1,31.15,9.36Z"/><path class="cls-3" d="M31.19,12.28c0-.16.16-.3.15-.48.1.07,0,.15,0,.22S31.3,12.24,31.19,12.28Z"/><path class="cls-3" d="M41.76,17a1.29,1.29,0,0,1,.24.5A1.06,1.06,0,0,1,41.76,17Z"/><path class="cls-3" d="M42,17.57a1.14,1.14,0,0,1,.17.51A1.19,1.19,0,0,1,42,17.57Z"/><path class="cls-3" d="M36.55,18.27a1.37,1.37,0,0,1-.09.49A.75.75,0,0,1,36.55,18.27Z"/><path class="cls-3" d="M27.16,14.7a1.23,1.23,0,0,1,.13-.49A.77.77,0,0,1,27.16,14.7Z"/><path class="cls-3" d="M18,7.43a.93.93,0,0,1,.26-.36A.51.51,0,0,1,18,7.43Z"/><path class="cls-3" d="M19.31,5.75l-.38.1A.34.34,0,0,1,19.31,5.75Z"/><path class="cls-3" d="M42.57,19.57c.1.09.19.12.27,0,0,.1,0,.14-.1.15S42.57,19.68,42.57,19.57Z"/><path class="cls-3" d="M31.88,9.36a1.44,1.44,0,0,1-.18.4A.6.6,0,0,1,31.88,9.36Z"/><path class="cls-3" d="M35.48,12.16c0-.08.07-.07.11,0s.16.11.18.21S35.62,12.17,35.48,12.16Z"/><path class="cls-3" d="M32.17,9c-.05,0-.12-.08-.08-.12a.23.23,0,0,1,.24,0C32.28,8.9,32.17,8.85,32.17,9Z"/><path class="cls-3" d="M35.89,12.48a.56.56,0,0,1,.23.25A.32.32,0,0,1,35.89,12.48Z"/><path class="cls-3" d="M39.5,12.24a.64.64,0,0,1,.24.25A.4.4,0,0,1,39.5,12.24Z"/><path class="cls-3" d="M28.93.3c0,.08-.07,0-.12,0s-.11,0-.17,0,.05-.09.11-.09Z"/><path class="cls-3" d="M39.51,11.71a.56.56,0,0,1-.23-.25A.36.36,0,0,1,39.51,11.71Z"/><path class="cls-3" d="M28.74,7.36a.93.93,0,0,1-.13.35A.42.42,0,0,1,28.74,7.36Z"/><path class="cls-3" d="M29.36.07a.5.5,0,0,0-.27,0C29.17,0,29.26,0,29.36.07Z"/><path class="cls-3" d="M37.88,10.56a.45.45,0,0,1,.21.2A.28.28,0,0,1,37.88,10.56Z"/><path class="cls-3" d="M27.3,14.15a.73.73,0,0,1,.09-.32A.32.32,0,0,1,27.3,14.15Z"/><path class="cls-3" d="M29.23.59a.56.56,0,0,1,.1-.33A.5.5,0,0,1,29.23.59Z"/><path class="cls-3" d="M18.91,5.87a.83.83,0,0,1-.29.16A.32.32,0,0,1,18.91,5.87Z"/><path class="cls-3" d="M38.12,10.79a.39.39,0,0,1,.2.22A.3.3,0,0,1,38.12,10.79Z"/><path class="cls-3" d="M33.29,8.71c.23-.05.12.11.13.21C33.35,8.86,33.37,8.76,33.29,8.71Z"/><path class="cls-3" d="M40.24,12.51a.53.53,0,0,1-.2-.22A.28.28,0,0,1,40.24,12.51Z"/><path class="cls-3" d="M40.23,13a.43.43,0,0,1,.2.22A.27.27,0,0,1,40.23,13Z"/><path class="cls-3" d="M42.28,18.41a.4.4,0,0,1,.06.28A.28.28,0,0,1,42.28,18.41Z"/><path class="cls-3" d="M26.87,15.93l.11-.27A.2.2,0,0,1,26.87,15.93Z"/><path class="cls-3" d="M30.74,12.63a.34.34,0,0,0,.24,0C30.92,12.72,30.84,12.75,30.74,12.63Z"/><path class="cls-3" d="M18.23,7.05a.37.37,0,0,1,.18-.21A.23.23,0,0,1,18.23,7.05Z"/><path class="cls-3" d="M39.82,12.06a.31.31,0,0,1-.16-.18A.19.19,0,0,1,39.82,12.06Z"/><path class="cls-3" d="M42.45,19.31a.53.53,0,0,1,.11.24A.21.21,0,0,1,42.45,19.31Z"/><path class="cls-3" d="M31.73,9.11c.08-.09.15-.16.25,0C31.89,9.05,31.81,9.1,31.73,9.11Z"/><path class="cls-3" d="M37,18.14a.43.43,0,0,1,0-.25A.23.23,0,0,1,37,18.14Z"/><path class="cls-3" d="M38.28,10.47a.35.35,0,0,1-.18-.16C38.2,10.31,38.25,10.37,38.28,10.47Z"/><path class="cls-3" d="M26.62,16h.22C26.76,16.06,26.7,16.06,26.62,16Z"/><path class="cls-3" d="M17.7,6.79a.33.33,0,0,1-.18.17A.21.21,0,0,1,17.7,6.79Z"/><path class="cls-3" d="M30.43,2.86v.2C30.33,3,30.34,2.92,30.43,2.86Z"/><path class="cls-3" d="M31.33,10.43a.38.38,0,0,1-.13.22A.24.24,0,0,1,31.33,10.43Z"/><path class="cls-3" d="M36.45,18.82a.23.23,0,0,1,0,.21A.16.16,0,0,1,36.45,18.82Z"/><path class="cls-3" d="M36.59,18a.26.26,0,0,1,0,.21A.16.16,0,0,1,36.59,18Z"/><path class="cls-3" d="M31.6,10a.35.35,0,0,1-.12.22A.21.21,0,0,1,31.6,10Z"/><path class="cls-3" d="M18.41,6.2a.24.24,0,0,1-.17.14A.16.16,0,0,1,18.41,6.2Z"/><path class="cls-3" d="M23.34,6.43a.27.27,0,0,1,.18.13A.17.17,0,0,1,23.34,6.43Z"/><path class="cls-3" d="M18.6,6.05a.21.21,0,0,1-.15.11A.11.11,0,0,1,18.6,6.05Z"/><path class="cls-3" d="M19.37,6.26a.23.23,0,0,1,.18,0C19.5,6.31,19.44,6.3,19.37,6.26Z"/><path class="cls-3" d="M34.69,11.17a.23.23,0,0,1,.12.15C34.73,11.3,34.68,11.26,34.69,11.17Z"/><path class="cls-3" d="M34.89,11.41a.22.22,0,0,1,.13.15C34.93,11.54,34.89,11.5,34.89,11.41Z"/><path class="cls-3" d="M18.18,6.39a.23.23,0,0,1-.15.12C18.05,6.43,18.09,6.38,18.18,6.39Z"/><path class="cls-3" d="M30.43,3.06l.17,0C30.56,3.1,30.51,3.16,30.43,3.06Z"/><path class="cls-3" d="M18,6.56a.23.23,0,0,1-.15.12A.12.12,0,0,1,18,6.56Z"/><path class="cls-3" d="M32,9.14c.08.09,0,.13-.06.15Z"/><path class="cls-3" d="M27.41,13.77a.2.2,0,0,1,.05-.18A.13.13,0,0,1,27.41,13.77Z"/><path class="cls-3" d="M28.6,7.77a.23.23,0,0,1-.05.18A.13.13,0,0,1,28.6,7.77Z"/><path class="cls-3" d="M33.82,9.93a.18.18,0,0,1,.09.15C33.84,10.06,33.82,10,33.82,9.93Z"/><path class="cls-3" d="M31.43,10.26a.18.18,0,0,1-.09.15A.13.13,0,0,1,31.43,10.26Z"/><path class="cls-3" d="M37.08,18.34a.12.12,0,0,1,0-.14A.09.09,0,0,1,37.08,18.34Z"/><path class="cls-3" d="M42.35,18.76a.12.12,0,0,1,0,.14A.09.09,0,0,1,42.35,18.76Z"/><path class="cls-3" d="M31.41,2.36a.16.16,0,0,1-.15.08A.12.12,0,0,1,31.41,2.36Z"/><path class="cls-3" d="M37.67,10.43a.18.18,0,0,1,.15.09C37.74,10.52,37.69,10.5,37.67,10.43Z"/><path class="cls-3" d="M23.07,6.26a.15.15,0,0,1,.14.09A.11.11,0,0,1,23.07,6.26Z"/><path class="cls-3" d="M33,5.38a.18.18,0,0,1-.15.09A.13.13,0,0,1,33,5.38Z"/><path class="cls-3" d="M27,15.59a.12.12,0,0,1,0-.14C27.06,15.51,27.06,15.56,27,15.59Z"/><path class="cls-3" d="M26.55,15.83a.21.21,0,0,1,.07.13C26.53,16,26.5,15.91,26.55,15.83Z"/><path class="cls-3" d="M34,10.21a.18.18,0,0,1,.1.15A.13.13,0,0,1,34,10.21Z"/><path class="cls-3" d="M23.54,6.57a.18.18,0,0,1,.16.09A.13.13,0,0,1,23.54,6.57Z"/><path class="cls-3" d="M32.86,5.48a.22.22,0,0,1-.15.1C32.73,5.5,32.78,5.48,32.86,5.48Z"/><path class="cls-3" d="M36.62,17.72a.14.14,0,0,1,0,.14A.09.09,0,0,1,36.62,17.72Z"/><path class="cls-3" d="M22.46,5.7a.13.13,0,0,1,.09.11C22.48,5.8,22.44,5.77,22.46,5.7Z"/><path class="cls-3" d="M34.17,10.48a.12.12,0,0,1,.08.12A.09.09,0,0,1,34.17,10.48Z"/><path class="cls-3" d="M34.37,10.76a.12.12,0,0,1,.09.12C34.39,10.86,34.36,10.83,34.37,10.76Z"/><path class="cls-3" d="M34.48,10.9a.11.11,0,0,1,.08.11A.08.08,0,0,1,34.48,10.9Z"/><path class="cls-3" d="M34.58,11a.13.13,0,0,1,.09.12A.09.09,0,0,1,34.58,11Z"/><path class="cls-3" d="M40,12.72a.14.14,0,0,1,.1.11C40,12.83,40,12.79,40,12.72Z"/><path class="cls-3" d="M21.13,5.91a.09.09,0,0,1,.11,0C21.21,6,21.18,6,21.13,5.91Z"/><path class="cls-3" d="M26.67,15.11a.07.07,0,0,1,0,.1S26.61,15.13,26.67,15.11Z"/><path class="cls-3" d="M27.39,12.39a.07.07,0,0,1,0,.1S27.34,12.41,27.39,12.39Z"/><path class="cls-3" d="M19.61,6.22a.11.11,0,0,1,.11,0C19.7,6.26,19.66,6.27,19.61,6.22Z"/><path class="cls-3" d="M27.33,12.7a.08.08,0,0,1,0,.1S27.27,12.72,27.33,12.7Z"/><path class="cls-3" d="M27.06,15.18a.08.08,0,0,1,0-.11C27.13,15.12,27.12,15.16,27.06,15.18Z"/><path class="cls-3" d="M27,15.35a.07.07,0,0,1,0-.1S27.09,15.33,27,15.35Z"/><path class="cls-3" d="M28.09,11.22c0-.06,0-.11.06-.15S28.18,11.2,28.09,11.22Z"/><path class="cls-3" d="M27.09,15a.09.09,0,0,1,0-.11S27.16,15,27.09,15Z"/><path class="cls-3" d="M26.64,15.28c0,.05,0,.11-.06.12S26.55,15.29,26.64,15.28Z"/><path class="cls-3" d="M26.57,15.62a.11.11,0,0,1,0,.11C26.5,15.68,26.51,15.65,26.57,15.62Z"/><path class="cls-3" d="M21,6s.06,0,.11,0S21,6,21,6Z"/><path class="cls-3" d="M42.39,19a.09.09,0,0,1,0,.11C42.35,19.05,42.34,19,42.39,19Z"/><path class="cls-3" d="M42.42,19.14s0,.06,0,.11S42.38,19.18,42.42,19.14Z"/><path class="cls-3" d="M27.57,11.63s0,0,0,.07S27.52,11.64,27.57,11.63Z"/><path class="cls-3" d="M31.05,12.49a.08.08,0,0,1,.06-.08C31.12,12.46,31.1,12.49,31.05,12.49Z"/><path class="cls-3" d="M40.47,13.3a.09.09,0,0,1,.06.09A.07.07,0,0,1,40.47,13.3Z"/><path class="cls-3" d="M23,6.19a.06.06,0,0,1,.08,0C23,6.26,23,6.24,23,6.19Z"/><path class="cls-3" d="M28,11.5s0-.06,0-.07S28.08,11.48,28,11.5Z"/><path class="cls-3" d="M28.06,11.36a0,0,0,0,1,0-.07S28.11,11.35,28.06,11.36Z"/><path class="cls-3" d="M31,12.59a.07.07,0,0,1,.06-.07C31.05,12.57,31,12.59,31,12.59Z"/><path class="cls-3" d="M27.13,14.84a.05.05,0,0,1,0-.08S27.18,14.82,27.13,14.84Z"/><path class="cls-3" d="M32.69,5.59a.09.09,0,0,1-.09.06C32.61,5.59,32.64,5.58,32.69,5.59Z"/><path class="cls-3" d="M29.43.21V.13a0,0,0,0,1,0,0S29.46.21,29.43.21Z"/><path class="cls-3" d="M34.27,10.62a.08.08,0,0,1,.06.08S34.26,10.67,34.27,10.62Z"/><path class="cls-3" d="M34.1,10.38a.06.06,0,0,1,0,.08S34.08,10.43,34.1,10.38Z"/><path class="cls-3" d="M29,.21a.07.07,0,0,1,0,.08C28.92.23,28.94.21,29,.21Z"/><path class="cls-3" d="M27.36,12.56s0,0,0,.07S27.31,12.57,27.36,12.56Z"/><path class="cls-3" d="M37.45,10.33a.07.07,0,0,1,.09,0S37.47,10.38,37.45,10.33Z"/><path class="cls-3" d="M29.35.24a.07.07,0,0,1,.08,0C29.43.26,29.39.26,29.35.24Z"/><path class="cls-3" d="M29.74,8.4a.07.07,0,0,1,.06-.08S29.79,8.39,29.74,8.4Z"/><path class="cls-3" d="M38.08,10.29a.08.08,0,0,1-.08,0S38.07,10.24,38.08,10.29Z"/><path class="cls-3" d="M33.93,10.1s.06,0,0,.09S33.91,10.15,33.93,10.1Z"/><path class="cls-3" d="M15.76,8.37a0,0,0,0,1,0,.06S15.71,8.37,15.76,8.37Z"/><path class="cls-3" d="M30.91,5.37A.08.08,0,0,1,31,5.29S31,5.36,30.91,5.37Z"/><path class="cls-3" d="M31,5.23a.06.06,0,0,1,.05-.08S31.07,5.22,31,5.23Z"/><path class="cls-3" d="M29.66,8.49a.08.08,0,0,1,.07-.07C29.74,8.47,29.72,8.5,29.66,8.49Z"/><path class="cls-3" d="M22.82,6.08a.07.07,0,0,1,.08.06S22.83,6.14,22.82,6.08Z"/><path class="cls-3" d="M37,17.83a.06.06,0,0,1,0-.08S37,17.79,37,17.83Z"/><path class="cls-3" d="M28.36,8.7a.06.06,0,0,1,0,.08S28.31,8.72,28.36,8.7Z"/><path class="cls-3" d="M42.21,18.14s0,0,0,.07S42.18,18.17,42.21,18.14Z"/><path class="cls-3" d="M29.19,8.8s0,0,.07,0S29.23,8.84,29.19,8.8Z"/><path class="cls-3" d="M30.19,9.15a.08.08,0,0,1,.08.06C30.22,9.22,30.2,9.2,30.19,9.15Z"/><path class="cls-3" d="M42.25,18.28a0,0,0,0,1,0,.07C42.22,18.34,42.21,18.31,42.25,18.28Z"/><path class="cls-3" d="M28.32,8.84s0,.06,0,.07S28.27,8.85,28.32,8.84Z"/><path class="cls-3" d="M31.12,12.39a.06.06,0,0,1,.05-.08S31.17,12.38,31.12,12.39Z"/><path class="cls-3" d="M23.23,6.36a.09.09,0,0,1,.09.06A.07.07,0,0,1,23.23,6.36Z"/><path class="cls-3" d="M32.27,9.13a.08.08,0,0,1-.05-.08C32.27,9.06,32.29,9.09,32.27,9.13Z"/><path class="cls-3" d="M12.81,8.79l0,0a7,7,0,0,0,1.45.89l4.22,2.18c1.91,1,3.8,2,5.69,3,.14.08.33.09.4.23s-.09.28-.1.43-.09.16-.21.1l-3-1.6-2.6-1.38L12.65,9.48c-.1-.06-.13-.11-.05-.21a1.3,1.3,0,0,0,.14-.39S12.75,8.8,12.81,8.79Z"/><path class="cls-3" d="M7.73,11.92v0c.07-.38.11-.39.44-.2.8.46,1.62.87,2.44,1.3l10.21,5.37c.11.06.16.11.09.24a.56.56,0,0,0-.09.31c0,.1,0,.13-.13.07-.5-.27-1-.52-1.49-.82s-.8-.47-1.2-.7c-1.16-.66-2.32-1.34-3.5-2-.26-.14-.53-.26-.8-.39-1.74-.88-3.46-1.8-5.18-2.72-.23-.12-.46-.22-.69-.33C7.77,12,7.7,12,7.73,11.92Z"/><path class="cls-3" d="M20.3,14.89c.17-.26.28-.29.54-.13l.29.18c.07.05.07.09,0,.13l-.24.13a8.41,8.41,0,0,0-1.75,1.27.22.22,0,0,1-.28,0l-.34-.18c-.09-.05-.11-.11,0-.17l1.09-.73h0c-.05.13-.18.18-.28.24s-.47.33-.71.48c-.09.06-.12.11,0,.17l.09.05c.07.05.14.09.14-.06a.27.27,0,0,1,.1-.18,4.54,4.54,0,0,1,.48-.39c.4-.27.83-.49,1.24-.74.05,0,.15-.05.12-.14a.24.24,0,0,0-.2-.11c-.06,0-.1,0-.15.07S20.38,14.91,20.3,14.89Z"/><path class="cls-3" d="M18,16,17.88,16l-2.32-1.23c-.22-.12-.22-.15,0-.28a12,12,0,0,0,1.9-1.33.26.26,0,0,1,.35,0l2.31,1.27c.15.09.15.13,0,.24-.62.49-1.27.93-1.93,1.37A.29.29,0,0,1,18,16Zm2.05-1.53a.13.13,0,0,0-.09-.1l-2.2-1.21a.24.24,0,0,0-.32,0c-.18.16-.37.3-.55.45-.39.32-.85.54-1.26.83-.14.1-.15.12,0,.2.7.37,1.4.73,2.08,1.11a.51.51,0,0,0,.64,0c.52-.37,1.05-.73,1.55-1.11A.46.46,0,0,0,20.07,14.5Z"/><path class="cls-3" d="M19.81,16.37c0,.14-.14.17-.22.24s-.13.14,0,.22c.5.25,1,.44,1.51.7a1.84,1.84,0,0,0,.51.14.76.76,0,0,1,.39.24c.06.07.13.1.21,0a17.89,17.89,0,0,1,1.65-1.07.71.71,0,0,0,.14-.1c.09-.07.08-.13,0-.18l-.65-.35-1.66-.91a.27.27,0,0,0-.32,0c-.42.31-.9.54-1.3.86,0,0-.05,0-.08,0a2.93,2.93,0,0,1,.64-.47c.26-.17.53-.31.77-.49a.26.26,0,0,1,.3,0l2.41,1.31c.16.09.16.13,0,.24a9.79,9.79,0,0,1-.9.58,6.2,6.2,0,0,0-1,.68c-.11.09-.19.1-.26,0a.45.45,0,0,0-.31-.21A10.78,10.78,0,0,1,20,17.07l-.5-.23c-.11-.05-.15-.12,0-.2S19.66,16.43,19.81,16.37Z"/><path class="cls-3" d="M15.37,14a2,2,0,0,1,.54-.37c.39-.22.8-.43,1.17-.69a.35.35,0,0,1,.14-.06.12.12,0,0,1,.16.06c0,.06,0,.09-.08.12-.64.5-1.34.92-2,1.39-.15.11-.26.11-.38,0,0,0,.09,0,.13,0a2.1,2.1,0,0,0,.37-.36S15.38,14,15.37,14Z"/><path class="cls-4" d="M20.3,14.89c.08,0,.1-.05.15-.08s.09-.09.15-.07a.24.24,0,0,1,.2.11c0,.09-.07.1-.12.14-.41.25-.84.47-1.24.74a4.54,4.54,0,0,0-.48.39.27.27,0,0,0-.1.18c0,.15-.07.11-.14.06l-.09-.05c-.12-.06-.09-.11,0-.17.24-.15.48-.31.71-.48s.23-.11.28-.24h0a.09.09,0,0,0,.12-.09h0c.07,0,.11,0,.11-.09l0,0a.14.14,0,0,0,.16-.12l0,0a.18.18,0,0,0,.18-.15Z"/><path class="cls-3" d="M12.45,12.46c0-.07.1-.08.16-.11.61-.31,1.24-.58,1.82-.93a.52.52,0,0,1,.13-.06s.1,0,.12,0,0,.08-.08.09a8.34,8.34,0,0,0-1.38.74l-.66.35s-.07,0-.11,0A.15.15,0,0,1,12.45,12.46Z"/><path class="cls-4" d="M12.45,12.46a.15.15,0,0,0,0,.13l-.3.21a.15.15,0,0,1-.19,0,.06.06,0,0,0,0-.08Z"/><path class="cls-4" d="M15.37,14s.07,0,.05.05a2.1,2.1,0,0,1-.37.36s-.09,0-.13,0h0a.1.1,0,0,0,0-.09Z"/><path class="cls-3" d="M20.27,14.91a.18.18,0,0,1-.18.15A.23.23,0,0,1,20.27,14.91Z"/><path class="cls-3" d="M20.07,15.08a.14.14,0,0,1-.16.12A.17.17,0,0,1,20.07,15.08Z"/><path class="cls-3" d="M20,16.23c0,.09,0,.14-.14.12A.17.17,0,0,1,20,16.23Z"/><path class="cls-3" d="M19.76,15.32a.09.09,0,0,1-.12.09A.1.1,0,0,1,19.76,15.32Z"/><path class="cls-3" d="M19.89,15.22c0,.07,0,.1-.11.09S19.83,15.21,19.89,15.22Z"/><path class="cls-3" d="M14.92,14.27a.1.1,0,0,1,0,.09,0,0,0,0,1-.05,0A.05.05,0,0,1,14.92,14.27Z"/><path class="cls-3" d="M12,12.73a.06.06,0,0,1,0,.08,0,0,0,0,1-.06,0S11.92,12.72,12,12.73Z"/><path class="cls-4" d="M24.83,4.84l0,0a.23.23,0,0,0-.25-.15.44.44,0,0,0-.29-.09c-.05,0-.07,0-.07,0h0c-.13,0-.25-.09-.38,0l-.17,0a1.9,1.9,0,0,0-.52-.24c-.15,0-.11-.08,0-.16s.15-.1.17-.21h0a.72.72,0,0,0,.39-.3s0,0,0,0,.07,0,.11,0A2.79,2.79,0,0,1,25,3.15a.06.06,0,0,0,.06,0h.06a4.17,4.17,0,0,0,.79,0,.09.09,0,0,1,.1,0c0,.05.07.06.11,0l.07,0c.23.1.47.16.71.24,0,0,0,0,0,0s0,.07.08.06l.14.14c.12.35.24.7.37,1.05a1.18,1.18,0,0,0,.19.41v.07l-.54.12A4.09,4.09,0,0,1,26,5.41c-.27,0-.55,0-.73-.29a.09.09,0,0,0-.12,0l-.05,0c0-.09-.06-.14-.15-.12l0,0C24.92,4.83,24.89,4.81,24.83,4.84Z"/><path class="cls-3" d="M36.55,8.55a1,1,0,0,1,.13.47,7.82,7.82,0,0,1,0,2.16c0,.33-.08.67-.11,1,0,.15-.07.15-.18.07s-.33-.25-.49-.4a.16.16,0,0,1,0-.23,5.27,5.27,0,0,0,.43-.62c0-.08.15-.2,0-.27s-.19.06-.26.14-.3.36-.44.55-.11.08-.18,0A16.62,16.62,0,0,1,34,9.6a2.9,2.9,0,0,1-.34-.81.18.18,0,0,1,.12-.24l.61-.26c-.07.16,0,.3.07.44.08.34.25.56.63.54l.09,0a.65.65,0,0,0,.6-.18,1.77,1.77,0,0,1,.32-.21C36.28,8.8,36.47,8.73,36.55,8.55Z"/><path class="cls-3" d="M34,7.5c.14.2.14.21-.06.3a2,2,0,0,0-.78.52.31.31,0,0,1-.22.09l-1,.09a.84.84,0,0,0-.2.05s-.12.07-.09.12-.07.19-.15.24a1,1,0,0,1-1,0c-.18-.09-.2-.17-.11-.35a1.17,1.17,0,0,1,.76-.65c.36-.08.5-.37.66-.64s.11-.29.2-.42c.12,0,.25,0,.38,0a6.14,6.14,0,0,1,1,.38A2.29,2.29,0,0,0,34,7.5Z"/><path class="cls-3" d="M24.81,6.58a1.9,1.9,0,0,1-1.2-.35,7.08,7.08,0,0,1-.85-.58s-.11-.06-.09-.13.08,0,.13-.06l.94-.28c.22-.06.24-.11.2-.33,0,0,0-.07,0-.07s.14,0,.14.07c0,.33.3.5.5.7a4,4,0,0,1,.6.87c.05.09,0,.13-.07.14Z"/><path class="cls-4" d="M36.55,8.55c-.08.18-.27.25-.42.35a1.77,1.77,0,0,0-.32.21.65.65,0,0,1-.6.18l-.09,0c-.38,0-.55-.2-.63-.54,0-.14-.14-.28-.07-.44l.3-.13q.08,0,.09,0L35,8.06A.15.15,0,0,0,35.19,8h.06s.09,0,.11,0l.17,0c0,.06.09.06.14,0l.16,0s0,.06.08,0a.9.9,0,0,1,.21.08c0,.06,0,.07.08,0A.64.64,0,0,1,36.55,8.55Z"/><path class="cls-4" d="M35.4,7.24c0,.06,0,.08-.07.09a3.63,3.63,0,0,0-.85.26c-.1,0-.12,0-.13-.09a1.93,1.93,0,0,0-.16-.7,1.09,1.09,0,0,0-.45-.52c-.21-.14-.21-.14,0-.33s.29-.31.44-.46.13-.1.18,0a6.42,6.42,0,0,0,.79,1.27A1.83,1.83,0,0,1,35.4,7.24Z"/><path class="cls-3" d="M25.14,5.08a.09.09,0,0,1,.12,0c.18.27.46.27.73.29a4.09,4.09,0,0,0,1.15-.16l.54-.12a1.69,1.69,0,0,1,.05.67.37.37,0,0,1-.32.27,3.39,3.39,0,0,0-.83.22.2.2,0,0,1-.22,0c-.35-.39-.76-.72-1.15-1.08C25.19,5.14,25.15,5.13,25.14,5.08Z"/><path class="cls-4" d="M34,7.5a2.29,2.29,0,0,1-.6-.22,6.14,6.14,0,0,0-1-.38c-.13,0-.26,0-.38,0,.19-.49.37-.62.88-.52C33.63,6.51,33.84,6.78,34,7.5Z"/><path class="cls-4" d="M28.52,6.64a3.5,3.5,0,0,0-1.07.15l-.51.08c-.15,0-.2-.11-.26-.21s0-.08.07-.1c.3-.11.59-.23.87-.35a.26.26,0,0,1,.34.07.5.5,0,0,0,.39.16A.19.19,0,0,1,28.52,6.64Z"/><path class="cls-3" d="M30.29,6.39a1,1,0,0,0,.38.83.07.07,0,0,1,0,.1.84.84,0,0,1-.77.43c-.06,0-.11,0-.09-.1a1.3,1.3,0,0,0,0-.48A.92.92,0,0,1,30.29,6.39Z"/><path class="cls-4" d="M29.85,5.88a2.57,2.57,0,0,1,.47.15v.1a5.35,5.35,0,0,0-.55.51,1.71,1.71,0,0,1-.7-.38c0-.06.08-.09.12-.13s.06-.08.07-.13a.24.24,0,0,1,.15-.11s.07,0,.09,0a.58.58,0,0,1,.26,0S29.81,5.93,29.85,5.88Z"/><path class="cls-3" d="M31.61,6.62l-.18.44c0,.08-.08.08-.15.05a1.53,1.53,0,0,1-.46-.34.38.38,0,0,1,.2-.66.82.82,0,0,0,.3-.1.27.27,0,0,1,0,.13A.47.47,0,0,0,31.61,6.62Z"/><path class="cls-3" d="M29.08,6.26a1.71,1.71,0,0,0,.7.38,1,1,0,0,0-.22.45h-.14c-.16-.22-.21-.24-.44-.14,0-.11-.12-.12-.2-.14s-.09-.07-.05-.08.18-.28.29-.4S29,6.27,29.08,6.26Z"/><path class="cls-4" d="M31.61,6.62a.47.47,0,0,1-.31-.48.27.27,0,0,0,0-.13h.2s.05,0,.08,0a.86.86,0,0,1,.28,0v.11A4.25,4.25,0,0,0,31.61,6.62Z"/><path class="cls-3" d="M23.27,4c0,.11-.11.14-.17.21s-.12.12,0,.16a1.9,1.9,0,0,1,.52.24l-.86.1c-.07,0-.12,0-.07-.08A1.45,1.45,0,0,1,23.27,4Z"/><path class="cls-3" d="M29.16,8.54a5.59,5.59,0,0,1,.38-.87s0-.12.11-.1.07.07.09.11,0,.07-.09.09-.07.07,0,.11,0,.15,0,.23A1.32,1.32,0,0,1,29.16,8.54Z"/><path class="cls-4" d="M28.7,5.58c0,.07-.17.3-.23.29s-.18,0-.18-.13.15-.32.23-.32S28.7,5.53,28.7,5.58Z"/><path class="cls-3" d="M25,3.1a.06.06,0,0,1-.06,0,2.79,2.79,0,0,0-1.16.45s-.07,0-.11,0a2.36,2.36,0,0,1,1.06-.5A.49.49,0,0,1,25,3.1Z"/><path class="cls-3" d="M27.67,5.06a1.18,1.18,0,0,1-.19-.41c-.13-.35-.25-.7-.37-1.05.08,0,.1.13.13.2.15.4.29.8.43,1.2Z"/><path class="cls-3" d="M30.78,7.65c.1-.27.18-.33.37-.28s.09,0,.1,0a.11.11,0,0,1-.07.11A1.35,1.35,0,0,1,30.78,7.65Z"/><path class="cls-3" d="M28,4a.52.52,0,0,0,0,.3c.1.2.1.44.19.65-.07.06-.1,0-.11,0A3,3,0,0,0,28,4.24.19.19,0,0,1,28,4Z"/><path class="cls-3" d="M25.88,3.12a4.17,4.17,0,0,1-.79,0,2,2,0,0,1,.77,0S25.87,3.1,25.88,3.12Z"/><path class="cls-3" d="M26.87,3.38c-.24-.08-.48-.14-.71-.24A1.21,1.21,0,0,1,26.87,3.38Z"/><path class="cls-4" d="M28.78,6.81c.08,0,.18,0,.2.14l-.09.11c-.07,0-.08,0-.11-.07A.19.19,0,0,0,28.78,6.81Z"/><path class="cls-3" d="M23.68,3.64a.72.72,0,0,1-.39.3A1,1,0,0,1,23.68,3.64Z"/><path class="cls-4" d="M29.42,7.09h.14c0,.08.07.22-.06.22S29.46,7.17,29.42,7.09Z"/><path class="cls-3" d="M23.82,4.58c.13-.06.25.08.38,0s-.07.08-.13.06Z"/><path class="cls-3" d="M28.43,5a.26.26,0,0,1,.31.14Z"/><path class="cls-3" d="M24.56,4.67a.23.23,0,0,1,.25.15A.44.44,0,0,1,24.56,4.67Z"/><path class="cls-3" d="M24.94,4.91c.09,0,.13,0,.15.12A.2.2,0,0,1,24.94,4.91Z"/><path class="cls-3" d="M35.19,8a.15.15,0,0,1-.19.07A.19.19,0,0,1,35.19,8Z"/><path class="cls-3" d="M30.33,6.13V6c.06,0,.12,0,.11,0S30.37,6.13,30.33,6.13Z"/><path class="cls-3" d="M35.67,7.94c-.05.06-.09.06-.14,0A.1.1,0,0,1,35.67,7.94Z"/><path class="cls-3" d="M29.27,6s0,.12-.07.13S29.18,6,29.27,6Z"/><path class="cls-3" d="M35.36,8c0,.06-.06.07-.11,0A.08.08,0,0,1,35.36,8Z"/><path class="cls-3" d="M26.09,3.12s-.08,0-.11,0S26.06,3.08,26.09,3.12Z"/><path class="cls-3" d="M31.88,6.16V6.05s.07,0,.07,0A.06.06,0,0,1,31.88,6.16Z"/><path class="cls-3" d="M31.6,6s-.05,0-.08,0A.05.05,0,0,1,31.6,6Z"/><path class="cls-3" d="M29.85,5.88s-.06,0-.08,0A0,0,0,0,1,29.85,5.88Z"/><path class="cls-3" d="M29.51,5.86s-.05.06-.09,0A.06.06,0,0,1,29.51,5.86Z"/><path class="cls-3" d="M35.91,8s-.06,0-.08,0S35.89,7.94,35.91,8Z"/><path class="cls-3" d="M36.2,8.1c-.05,0-.08,0-.08,0A.06.06,0,0,1,36.2,8.1Z"/><path class="cls-3" d="M24.83,4.84c.06,0,.09,0,.08,0A.06.06,0,0,1,24.83,4.84Z"/><path class="cls-3" d="M34.81,8.13s0,.06-.09,0A.06.06,0,0,1,34.81,8.13Z"/><path class="cls-3" d="M24.2,4.61c0-.06,0-.07.07,0S24.23,4.62,24.2,4.61Z"/><path class="cls-3" d="M27,3.46s-.08,0-.08-.06S27,3.41,27,3.46Z"/><path class="cls-3" d="M28.1,3.91s0,.07-.05.08S28.06,3.92,28.1,3.91Z"/><polygon class="cls-3" points="29.1 8.58 29.11 8.58 29.11 8.59 29.1 8.58"/></g></g></svg>