<svg xmlns="http://www.w3.org/2000/svg" viewBox="0 0 39.26 37.12"><defs><style>.cls-1{fill:#fff;}.cls-2{fill:#abaaaa;}.cls-3{fill:none;}.cls-4{fill:#fdfdfd;}.cls-5{fill:#111;}</style></defs><g id="Layer_2" data-name="Layer 2"><g id="Layer_1-2" data-name="Layer 1"><path class="cls-1" d="M19.08,14.25,16.9,16.6l2.54,1,0-1.66a1.51,1.51,0,0,0-2.78-.75c-2.38,3.21-2.12,4.64,2,5.88,2.9.89,5.94,1.56,8.63,3,5.17,2.8,3.72,6.6.07,9.9-1.42,1.29.69,3.39,2.11,2.1,3.43-3.09,6.4-7.63,2.89-11.88-1.62-2-4-3-6.33-3.89-1.58-.63-3.18-1.17-4.81-1.64s-3.31-.18-2-2L16.49,16l0,1.66A1.5,1.5,0,0,0,19,18.7l2.17-2.34c1.3-1.41-.8-3.52-2.1-2.11Z"/><path class="cls-1" d="M31.79,26.05c3.11,2.72.63,6.05-1.36,8.47-1.21,1.46.88,3.58,2.1,2.1,1.64-2,3.37-3.77,3.65-6.45a7.27,7.27,0,0,0-2.29-6.23c-1.43-1.26-3.55.84-2.1,2.11Z"/><path class="cls-1" d="M11.38,13.61c-1.59,0-2.82-.47-4.25.53a9.31,9.31,0,0,0-3,3.43A1.89,1.89,0,0,0,5.36,20c1.38.47,2-.73,3-1.24H6.89l.21.16-.69-.88a7.91,7.91,0,0,1,.25,1.07,1.5,1.5,0,0,0,2.49.66,11.43,11.43,0,0,1,1.27-1.24H8.92c.16.08.44.77.65,1a3.1,3.1,0,0,0,1.18.58c.41.14.49.11.82.22a4.2,4.2,0,0,0,1.95.32L12,19.16c.09.69-1.75,1.82-2,2.63A4.51,4.51,0,0,0,9.88,23a1.37,1.37,0,0,0,.38.66c-.16-.58-.48-.78-1-.59l1,.43-.16-.17.43,1.06A23.22,23.22,0,0,1,12,22.38a4.38,4.38,0,0,0,.63-2.28,1.51,1.51,0,0,0-2.54-1.05c-1.52,1.35-2.07,3-3.21,4.63L9.64,24c-.47-1.2.38-2.37.84-3.47.54-1.32-1.16-2.18-2.19-1.68a19.59,19.59,0,0,0-2.55,1.47L8,21.64c-.07-1.39-.73-3.29-2.48-3a2.25,2.25,0,0,0-1.6,1.29c-.18.33-.18.79-.43,1.08s-.75.48-1,.73c-1.41,1.3.7,3.4,2.11,2.11C5,23.47,7.41,21.72,6,21.62l-1.06-.44.09.46a1.5,1.5,0,0,0,2.24,1.28,19.48,19.48,0,0,1,2.54-1.47L7.61,19.77C6.91,21.46,6,23,6.77,24.82a1.51,1.51,0,0,0,2.72.36c1-1.4,1.41-2.83,2.74-4l-2.54-1c0,1.56-2,2.5-2.07,4.08a1.84,1.84,0,0,0,1.81,1.91c2.3.09,5.05-2.43,2.93-4.49L12.75,23c.18-.75,1.25-1.18,1.7-1.79A2.81,2.81,0,0,0,15,19.16c-.09-.75-.61-1.57-1.49-1.49-.68,0-1.07-.64-1.77-.56s0,.53-.24-.09a2.14,2.14,0,0,0-.6-.76C9.36,15,8.09,16.67,7,17.69l2.49.65a2.85,2.85,0,0,0-1.14-2.13,1.47,1.47,0,0,0-1.5,0,2.64,2.64,0,0,0-.81.55c-.19.21-.55.32-.33.34l1.06.43-.23-.23L7,18.74a7.2,7.2,0,0,1,1.53-1.85c.88-.63,1.88-.28,2.89-.3,1.92,0,1.92-3,0-3Z"/><path class="cls-1" d="M2.1,24.57,2.55,24l.22-.26a.58.58,0,0,0,.1-.12s0,0,0,0a.66.66,0,0,1-.34.12l-.45-.12,0,0A.89.89,0,1,0,3,22.12c-1-.55-1.63.53-2.16,1.19a.91.91,0,0,0,0,1.26.9.9,0,0,0,1.26,0Z"/><path class="cls-1" d="M4.64,19.46a5.86,5.86,0,0,0,2-.91A.93.93,0,0,0,7,17.32.92.92,0,0,0,5.73,17a4.14,4.14,0,0,1-1.56.73c-1.12.27-.65,2,.47,1.73Z"/><path class="cls-1" d="M2.49,24.52a5.35,5.35,0,0,0,2.71-.91.89.89,0,0,0-.9-1.54,3.77,3.77,0,0,1-1.81.67.89.89,0,0,0,0,1.78Z"/><path class="cls-2" d="M6.85,14.11a3.38,3.38,0,0,1,.75-.34.27.27,0,0,1,.2,0c.06,0,.11.07.11.14s-.09.07-.15.08a1,1,0,0,0-.57.3s.06,0,.08,0a1.58,1.58,0,0,1,.61-.21C8,14.11,8,14,8,13.86a.28.28,0,0,0-.37-.19,2.81,2.81,0,0,0-.88.4s-.11,0-.08.13S6.79,14.14,6.85,14.11Z"/><path class="cls-3" d="M6.67,18.33h0l.25-.19-.25.19Z"/><path class="cls-3" d="M6.52,20.2a2.8,2.8,0,0,1-1-.3.84.84,0,0,0-.85,0c-.12.07-.32.09-.3.23s.22.18.36.21A6,6,0,0,0,6,20.38a2,2,0,0,0,.58,0s.13,0,.12-.1S6.57,20.21,6.52,20.2Z"/><path class="cls-3" d="M11,21l0,0Z"/><path class="cls-3" d="M2.91,21.84a.36.36,0,0,1,0-.09A.36.36,0,0,0,2.91,21.84Z"/><path class="cls-3" d="M3,21.87a.16.16,0,0,0,.11,0s0,0,0,0,0,.07.05.08-.05,0-.05-.08,0,0,0,0A.16.16,0,0,1,3,21.87Z"/><path class="cls-2" d="M6.63,18.32a.13.13,0,0,0-.08,0A.13.13,0,0,1,6.63,18.32Z"/><path class="cls-2" d="M4.46,17.53c.07,0,.15-.05.19,0s0,.13-.1.17l-.19.12c-.12.08-.1.15,0,.2l.26.08.49.11c.08,0,.18,0,.18.12s-.12.08-.19.08a2.09,2.09,0,0,1-.79-.09.52.52,0,0,0-.62.17c-.17.19-.16.26.08.33s.65.17,1,.28a.26.26,0,0,0,.35-.07,4.08,4.08,0,0,1,.6-.5A1,1,0,0,0,6,18.16c.2-.51.38-1,.57-1.54,0-.1,0-.22.08-.32S6.85,16,6.59,16c0,0-.1,0-.09-.08s.07,0,.11,0c.3.09.42-.09.5-.33l0,0c.08-.2,0-.27-.16-.29s-.54-.06-.8-.07a.71.71,0,0,0-.52.3c-.06.08,0,.14.06.19a1.14,1.14,0,0,0,.35.13c.05,0,.14,0,.12.08s-.09,0-.14,0H5.72a.5.5,0,0,0-.43.18s-.14.08-.12.16.11.09.17.1l.64.13a1.59,1.59,0,0,1-.43.08.89.89,0,0,0-.66.32c-.17.21-.13.32.13.38s.29.05.43.09.11,0,.1.08-.07.06-.12.06a2.41,2.41,0,0,1-.38,0c-.19,0-.42,0-.51-.23s.1-.37.23-.52.16-.12.14-.22c-.08-.31.13-.45.33-.59s.18-.13.17-.23a.49.49,0,0,1,.23-.43c.07-.06.14-.12.09-.23a.26.26,0,0,1,.11-.33,1.13,1.13,0,0,1,.53-.25c.09,0,.2,0,.22-.15a1.51,1.51,0,0,0-.74.27c-.15.11-.3.22-.26.45a.17.17,0,0,1-.08.18.42.42,0,0,0-.17.23c0,.3-.24.44-.43.61s-.19.17-.15.29,0,.27-.13.39-.27.28-.22.48.06.28-.09.38C4.37,17.57,4.42,17.53,4.46,17.53Zm.86,1.21c-.11.11-.23.2-.35.31s-.11,0-.17,0l-.89-.26c-.06,0-.15,0-.16-.11s.07-.12.12-.16a.3.3,0,0,1,.25-.09,5.13,5.13,0,0,0,1.17.14C5.42,18.58,5.38,18.68,5.32,18.74Zm.55-3.18c-.13,0-.11-.11,0-.18a.59.59,0,0,1,.46-.16l.48,0c.14,0,.13.08.09.17a.39.39,0,0,1-.42.26A2.53,2.53,0,0,1,5.87,15.56Zm-.27.63s-.11,0-.12-.05,0-.09.09-.12A.58.58,0,0,1,6,16l.31.06s.15,0,.14.07a.13.13,0,0,1-.13.11A3.4,3.4,0,0,0,5.6,16.19Zm-.06,1c-.15,0-.32-.05-.47-.08S4.9,17,5,16.87a1,1,0,0,1,.86-.29h.23c.24,0,.25,0,.14.21l-.05.1C6,17.27,6,17.28,5.54,17.19Zm-.74.44c0-.08.08-.09.15-.09h.32c.1,0,.21,0,.31,0s.15,0,.08.15a1.83,1.83,0,0,0-.13.24c-.12.28-.13.29-.44.21L4.6,18s-.09,0-.09-.07,0-.08.07-.1A.39.39,0,0,0,4.8,17.63Z"/><path class="cls-2" d="M7.83,15a4.62,4.62,0,0,0,.74.06,3.92,3.92,0,0,0,1.28-.09c.06,0,.11,0,.17,0a.82.82,0,0,0,.57-.09l0,0c-.23.05-.47,0-.68,0A4.78,4.78,0,0,1,9,15a4.2,4.2,0,0,1-1.32-.12C7.64,15,7.74,15,7.83,15Z"/><path class="cls-2" d="M7,14.36c-.08.06-.19.1-.17.22s.12.13.2.16a.87.87,0,0,0,.57.09c0-.1-.07-.09-.13-.09a1.49,1.49,0,0,1-.21,0c-.3-.08-.32-.12-.12-.36a.1.1,0,0,1,0,0S7.07,14.33,7,14.36Z"/><path class="cls-2" d="M3.67,18.24c-.1,0-.17,0-.19.11A.15.15,0,0,0,3.67,18.24Z"/><path class="cls-2" d="M4.23,17.57c-.11,0-.18,0-.2.1A.18.18,0,0,0,4.23,17.57Z"/><path class="cls-2" d="M3.77,18c-.11,0-.08.11-.07.18S3.83,18.14,3.77,18Z"/><path class="cls-2" d="M3.82,17.84s-.06,0-.07,0,0,.05,0,.05S3.85,17.88,3.82,17.84Z"/><path class="cls-4" d="M3.06,21.9s0,0,0,0,.24,0,.35.09c.41.12.79.17,1.08-.24,0,0,.11-.07.08-.13s-.09,0-.14,0a2.32,2.32,0,0,1-.86-.18.91.91,0,0,0-.56-.1L3,21.39A.58.58,0,0,0,3.06,21.9Z"/><path class="cls-2" d="M3.75,20.38c-.13.05-.36.33-.33.44s.22.2.36.24a.22.22,0,0,0,.11,0,9.22,9.22,0,0,0,1.39,0A.21.21,0,0,0,5.47,21c0-.06-.09-.06-.15-.07A2.47,2.47,0,0,1,4,20.42.2.2,0,0,0,3.75,20.38Zm-.08.53a.13.13,0,0,1-.09-.21c.07-.1.16-.27.31-.18a7.75,7.75,0,0,0,.79.46A2.3,2.3,0,0,1,3.67,20.91Z"/><path class="cls-2" d="M6.34,14.64a.19.19,0,0,0-.22.14c0,.12.14.08.21.12s.15,0,.15-.1A.16.16,0,0,0,6.34,14.64Z"/><path class="cls-2" d="M3,21.39a.17.17,0,0,0-.14.22.7.7,0,0,0,0,.14.36.36,0,0,0,0,.09l0,0a.16.16,0,0,0,.11,0A.58.58,0,0,1,3,21.39Z"/><path class="cls-4" d="M6.88,15.44c0-.09,0-.16-.09-.17l-.48,0a.59.59,0,0,0-.46.16c-.09.07-.11.15,0,.18a2.53,2.53,0,0,0,.59.14A.39.39,0,0,0,6.88,15.44Z"/><path class="cls-5" d="M39,28.84a1.29,1.29,0,0,1-.27-.74c-.06-.46,0-.93-.1-1.39-.08-.71,0-1.44-.16-2.15a2.61,2.61,0,0,1,0-.28c0-.74-.06-1.48-.12-2.22,0-.32,0-.64,0-1-.08-.61-.06-1.24-.13-1.86,0-.32,0-.66,0-1,0-1.36,0-2.73,0-4.1a9,9,0,0,1,.17-1.54.75.75,0,0,1,.06-.13c0-.1.1-.15.21-.12a.18.18,0,0,1,.14.2,4.64,4.64,0,0,1,0,.53c0,.72,0,1.44.06,2.15s0,1.14.07,1.71.09,1.21.13,1.82.09,1.07.13,1.6.08,1.23.14,1.85c.11,1.35.05,2.7.06,4,0,.6-.07,1.19-.08,1.79A1.47,1.47,0,0,1,39,28.84Z"/><path class="cls-2" d="M24.72,13.25c0,.27,0,.55,0,.82a.35.35,0,0,1-.21.36c-.41.22-.81.44-1.22.68-.14.08-.21.07-.21-.11,0-.7,0-1.39,0-2.09a.2.2,0,0,1,.14-.19l1.26-.49c.14-.05.21,0,.2.15s0,.58,0,.87Z"/><path class="cls-2" d="M28,19.79c0,.14-.07.17-.18.13l-.51-.19c-.59-.23-1.19-.46-1.79-.65-.19-.06-.29-.16-.24-.37a14,14,0,0,0,.17-2.33c0-.57,0-1.14,0-1.72a.42.42,0,0,1,.22-.4l1.59-1c.22-.14.28-.11.29.16,0,.83,0,1.67.07,2.51,0,1,.16,2,.28,3C27.93,19.21,28,19.5,28,19.79Zm-.31-.08c.09,0,.16,0,.14-.12,0-.51-.1-1-.16-1.53a19.16,19.16,0,0,1-.2-2.51c0-.66-.07-1.31-.05-2,0-.06,0-.13,0-.17s-.13,0-.19.05c-.46.31-.92.62-1.39.92a.31.31,0,0,0-.17.29,24,24,0,0,1-.17,4,.26.26,0,0,0,.21.32c.41.13.82.29,1.22.44Z"/><path class="cls-2" d="M21.68,14.61a9.15,9.15,0,0,0,0-1,.27.27,0,0,1,.2-.29c.14-.05.28-.19.41-.13s0,.25,0,.38c0,.65,0,1.3.05,1.95a.87.87,0,0,1-.54.58c-.11,0-.09-.08-.1-.15C21.68,15.53,21.7,15.13,21.68,14.61Z"/><path class="cls-2" d="M22.9,18A12.45,12.45,0,0,0,23,16a.38.38,0,0,1,.2-.33,13.26,13.26,0,0,1,1.33-.74c.16-.08.23,0,.23.16,0,.54,0,1.08,0,1.62a12.64,12.64,0,0,0,.12,1.94c0,.19,0,.25-.22.19-.54-.18-1.08-.37-1.62-.54A.25.25,0,0,1,22.9,18Zm1.9.53c-.05-.64-.13-1.28-.12-1.93,0-.47,0-.93,0-1.4,0-.17-.06-.21-.22-.12l-1.1.62a.45.45,0,0,0-.24.43A8.61,8.61,0,0,1,23,18a.15.15,0,0,0,.1.2l1.52.51C24.76,18.71,24.82,18.66,24.8,18.53Z"/><path class="cls-2" d="M12.26,14.13a.15.15,0,0,0-.19.15A.17.17,0,0,0,12.26,14.13Z"/><path class="cls-3" d="M22.19,16.41c-.3.2-.58.41-.48.85,0,.17-.1.39.14.5l.57.22c.12.05.18,0,.15-.12a7.78,7.78,0,0,1-.17-1.36C22.39,16.34,22.32,16.32,22.19,16.41Z"/><path class="cls-3" d="M21.68,14.61c0,.52,0,.92,0,1.32,0,.07,0,.15.1.15a.87.87,0,0,0,.54-.58c0-.65,0-1.3-.05-1.95,0-.13.12-.31,0-.38s-.27.08-.41.13a.27.27,0,0,0-.2.29A9.15,9.15,0,0,1,21.68,14.61Z"/><path class="cls-3" d="M11.23,17.93c-.06.08-.11.2-.23.11a.68.68,0,0,0-.59,0c-.05,0-.1,0-.15,0A.41.41,0,0,0,10,18a9.63,9.63,0,0,0-1.46.41c-.35.12-.71.27-1.06.41,0,0-.1,0-.09.1s.06,0,.1.06c.61,0,1.22.05,1.84.06s1.21-.15,1.82-.15c.45,0,.89,0,1.33,0,.09,0,.19,0,.21-.11a4.21,4.21,0,0,0,.12-.51c0-.14-.06-.18-.19-.2-.33,0-.66,0-1,0-.07,0-.16,0-.18-.08l.34,0-.34,0Z"/><path class="cls-3" d="M23.29,15.11c.41-.24.81-.46,1.22-.68a.35.35,0,0,0,.21-.36c0-.27,0-.55,0-.82h0c0-.29,0-.58,0-.87s-.06-.2-.2-.15l-1.26.49a.2.2,0,0,0-.14.19c0,.7,0,1.39,0,2.09C23.08,15.18,23.15,15.19,23.29,15.11Z"/><path class="cls-3" d="M13,18.57v0l-.09.12,0,0,0,0,.09-.12Z"/><path class="cls-3" d="M14.9,20.15l-.42.34s0,.05,0,.07l.05,0a3.86,3.86,0,0,1,.53-.11c.08,0,.18,0,.21-.07s-.07-.18-.13-.25S15,20.1,14.9,20.15Z"/><path class="cls-3" d="M23.1,18.28c.54.17,1.08.36,1.62.54.19.06.25,0,.22-.19a12.64,12.64,0,0,1-.12-1.94c0-.54,0-1.08,0-1.62,0-.2-.07-.24-.23-.16a13.26,13.26,0,0,0-1.33.74A.38.38,0,0,0,23,16a12.45,12.45,0,0,1-.12,2A.25.25,0,0,0,23.1,18.28Z"/><path class="cls-3" d="M25.5,19.08c.6.19,1.2.42,1.79.65l.51.19c.11,0,.2,0,.18-.13s-.05-.58-.08-.86c-.12-1-.25-2-.28-3,0-.84-.05-1.68-.07-2.51,0-.27-.07-.3-.29-.16l-1.59,1a.42.42,0,0,0-.22.4c0,.58,0,1.15,0,1.72a14,14,0,0,1-.17,2.33C25.21,18.92,25.31,19,25.5,19.08Z"/><path class="cls-3" d="M10.94,21.06h0c-.05,0,0-.07,0-.11s.09-.38.13-.58,0-.31-.25-.26a1,1,0,0,1-.17,0c-.43,0-.85.31-1.31.06-.07,0-.19,0-.29,0l-.21,0c-.13,0-.34,0-.35.13s.21.12.33.15.13,0,.15.08-.07.09-.12.13-.37.08-.51.31h.3c.07,0,.13,0,.12.11s-.05.11-.12.11a2.25,2.25,0,0,0-.52.08c-.27.05-.34.27-.47.45s0,.08.07.1.11.05.1.12-.08.08-.13.09a.51.51,0,0,0-.4.34,8.63,8.63,0,0,1-.55,1,.14.14,0,0,0,0,.18.85.85,0,0,0,1,.23,4.24,4.24,0,0,1,1-.5,1.71,1.71,0,0,1,1.18-.1c.11,0,.13-.05.1-.1-.14-.22-.12-.5-.29-.7a.28.28,0,0,1-.06-.35A.34.34,0,0,1,9.86,22a1,1,0,0,1,.25,0c.53.12.55.1.62-.45a.69.69,0,0,1,.16-.43l0,0Z"/><path class="cls-5" d="M3.26,18.56c-.26.25-.22.54.11.67a3,3,0,0,0,.85.16c.07,0,.18,0,.21.06s-.09.11-.15.15a1.09,1.09,0,0,0-.58.52c0,.12-.2.18-.28.28a3.33,3.33,0,0,1-.79,1c-.15.5-.62.68-1,1A1.58,1.58,0,0,0,1,23a.51.51,0,0,1-.26.24A1.4,1.4,0,0,0,.19,24a.46.46,0,0,0,.24.55,1.91,1.91,0,0,0,1.11.18,10,10,0,0,0,1.22-.19c.05,0,.17,0,.18.09a.53.53,0,0,0,.53.44,3.15,3.15,0,0,1,.91.25,3.26,3.26,0,0,0,1.07.19.39.39,0,0,1,.29.09,1.11,1.11,0,0,0,.8.3.72.72,0,0,1,.63.28c.25.34.64.3,1,.24,1-.17,2-.42,3.05-.67a.84.84,0,0,0,.27-.17,3.25,3.25,0,0,0-1,0c-.8.08-1.58.27-2.37.39a1.93,1.93,0,0,1-.34,0s-.1,0-.1,0,0-.07.08-.08l.49-.13c.13,0,.25-.1.37-.15s.08-.05.07-.1-.06,0-.1,0a6.94,6.94,0,0,0-.79,0c-.42,0-.85,0-1.28,0l-.15,0s-.11,0-.11-.08.06-.07.11-.09a4.11,4.11,0,0,0,1.15-.52c.06,0,.14-.06.16-.2-.3.09-.58.16-.85.25a4.76,4.76,0,0,1-1.39.27,2.31,2.31,0,0,1-.37,0c-.07,0-.19,0-.19-.09s.1-.07.17-.09a8.61,8.61,0,0,0,1.3-.43,2.21,2.21,0,0,0,.52-.28A3.56,3.56,0,0,0,6,24.3c-.58.11-1.16.3-1.75.36a7.85,7.85,0,0,1-.84,0c-.09,0-.19,0-.2-.13s.1-.08.17-.1a9.91,9.91,0,0,0,2.1-.81,3.08,3.08,0,0,0,.64-.38c-.21-.06-.36.05-.52.09-.61.16-1.23.3-1.83.51a11.15,11.15,0,0,1-2.13.49,2.24,2.24,0,0,1-.93,0c-.26-.06-.32-.22-.18-.46a1.43,1.43,0,0,1,.23-.27c.26-.25.29-.25.59-.07a1.56,1.56,0,0,0,.94.19,12.19,12.19,0,0,0,2.08-.34,16.73,16.73,0,0,0,1.61-.5,1.09,1.09,0,0,0,.33-.18,4.31,4.31,0,0,0-.93.15c-.69.14-1.37.32-2.06.44a5.14,5.14,0,0,1-1.66.05c-.11,0-.21-.06-.23-.18a.29.29,0,0,1,.07-.33l1-.76c.09-.07.18,0,.27.05a2.75,2.75,0,0,0,2,.5,14.07,14.07,0,0,0,1.71-.24,1.91,1.91,0,0,0,.71-.26,4.24,4.24,0,0,0-.94,0c-.73.07-1.47.12-2.21.12A2.21,2.21,0,0,1,3.2,22h0l0,0s-.05,0-.05-.08,0,0,0,0a.16.16,0,0,1-.11,0l0,0a.36.36,0,0,1,0-.09.7.7,0,0,1,0-.14A.17.17,0,0,1,3,21.39L3,21.33a.22.22,0,0,1,.33-.11A3.39,3.39,0,0,0,5,21.53a13,13,0,0,0,2.71-.23c.11,0,.29,0,.29-.15s-.21,0-.31-.14c.22-.19.6-.06.77-.36a.64.64,0,0,0-.37-.11,14.74,14.74,0,0,0-1.88,0,5.53,5.53,0,0,1-1.67-.1,1.17,1.17,0,0,1-.31-.12c-.2-.09-.21-.27,0-.39a3.22,3.22,0,0,1,.86-.34.18.18,0,0,1,.16,0A3.84,3.84,0,0,0,7,20.12,7.31,7.31,0,0,0,9.22,20c.07,0,.15,0,.19,0,.25.22.51.08.76,0s.48-.11.73-.16.27,0,.26.22A4.8,4.8,0,0,1,11,21,.11.11,0,0,1,11,21l0,0h-.07l0,0c.08.12,0,.23,0,.34a1.18,1.18,0,0,0,0,.57,5.12,5.12,0,0,0,.51-1.13,2.65,2.65,0,0,0,.1-.84c0-.07,0-.14,0-.18a.21.21,0,0,1,.21-.06c.08,0,.06.1.06.16a4.62,4.62,0,0,1-.25,1.43,2.74,2.74,0,0,0-.09.39s0,.13,0,.15.1,0,.12-.09.18-.36.26-.55a3,3,0,0,0,.23-1.37.19.19,0,0,1,0-.18.21.21,0,0,1,.22-.1c.09,0,.08.11.08.18a10.47,10.47,0,0,1-.15,1.36,5.07,5.07,0,0,0-.1.77c0,.05,0,.13,0,.15s.1-.06.12-.11a3.94,3.94,0,0,0,.27-.82,3.75,3.75,0,0,0,.13-1.49c0-.11.05-.18.16-.21s.11,0,.11-.07-.08-.07-.13-.07c-.33,0-.65.07-1,.12a8.56,8.56,0,0,0-1.34.25,8.5,8.5,0,0,1-2,.18c-.36,0-.73,0-1.09,0a7.1,7.1,0,0,1-1.59-.23c-.19-.05-.37-.19-.59-.16,0,0-.08,0-.08-.05.16-.09,0-.32.19-.39A.6.6,0,0,1,5.47,19c.08,0,.16-.19.24,0s0,.23-.11.31-.11,0-.16,0c.21.16.27.05.38-.15s.3-.65.66-.8h0l0,0a.13.13,0,0,1,.08,0h.06l.25-.19c-.07,0,.08-.14-.06-.07a1.18,1.18,0,0,1-.31.08c-.14,0-.19,0-.13-.16a11.57,11.57,0,0,1,.66-1.53c.15-.28.21-.57.33-.85s.17-.27.36-.19l.19,0q.24,0,.15.27c-.22.57-.34,1.18-.57,1.74a.83.83,0,0,0,0,.15s0,.07,0,.08a.08.08,0,0,0,.1,0,2.39,2.39,0,0,0,.13-.21c.24-.6.52-1.17.71-1.79a.43.43,0,0,1,.55-.17c.08.06,0,.16,0,.24-.11.41-.21.81-.33,1.22a1.81,1.81,0,0,0-.06.52,2.56,2.56,0,0,0,.46-.8c0-.1,0-.28.16-.25s.11.19.08.31,0,0,0,.06-.05.17,0,.18.09-.08.1-.14c.11-.38.22-.76.3-1.14a.35.35,0,0,1,.33-.3h0c.46-.05.45-.06.38.4a11.6,11.6,0,0,0-.2,1.44.35.35,0,0,1-.34.36c-.44.08-.86.25-1.29.37a3.82,3.82,0,0,0-.87.4s-.1.05-.11.13c.38-.1.74-.22,1.1-.35a5.51,5.51,0,0,1,1.71-.32,2.3,2.3,0,0,1,.64.09h.17l.34,0h.34c.23,0,.45,0,.68.07s.15.1.12.22-.05.28-.09.42v0s0,0,0,0l0,0,.09-.12v0a.07.07,0,0,1,0-.05s0,0,.07,0l.05-.08c.06-.26.13-.32.36-.3a1.07,1.07,0,0,0,.49-.14l.18-.1c.13-.05.22,0,.2.13a2,2,0,0,0,.43,1.33c.21.31.21.32-.1.5-.14.08-.26.27-.41.22s-.11-.28-.18-.42-.08-.21-.2-.18-.08.15-.07.24c.09.72.15,1.44.2,2.16a.24.24,0,0,0,.08.19.66.66,0,0,0,.11-.4.27.27,0,0,1,.3-.26,1.27,1.27,0,0,0,.8-.39c-.21,0-.4.08-.61,0,.09-.17.29-.2.37-.38a1.58,1.58,0,0,0-.49.1c-.1,0-.24.13-.31,0a.27.27,0,0,1,.12-.36,2.39,2.39,0,0,0,.53-.42c.09-.1.18-.12.26,0A7.35,7.35,0,0,0,18.5,22c1.26.52,2.59.82,3.88,1.27,1,.36,2.09.67,3.1,1.1a13.18,13.18,0,0,1,3.19,1.79A5.18,5.18,0,0,1,30,27.69a1.76,1.76,0,0,1,0,1.9c-.53.85-1.13,1.65-1.74,2.45A16.43,16.43,0,0,0,27,34.11s-.12.12,0,.18.11,0,.16-.08A18,18,0,0,0,29.28,32c.44-.5.9-1,1.31-1.49A3.34,3.34,0,0,0,31.34,29a2.48,2.48,0,0,0-.27-1.66,5.88,5.88,0,0,0-1.28-1.57A8.69,8.69,0,0,0,28,24.52a23.63,23.63,0,0,0-2.44-1.15c-.67-.25-1.36-.49-2.05-.7L21.58,22c-.82-.26-1.64-.47-2.45-.76A12.83,12.83,0,0,1,16.32,20a4.07,4.07,0,0,1-1.05-1.1,3.23,3.23,0,0,1-.27-.44.72.72,0,0,1,.07-.71,5.56,5.56,0,0,1,1.67-1.64A17.09,17.09,0,0,1,18.33,15c.53-.32,1.1-.58,1.65-.85.25-.13.5-.26.75-.37s.28,0,.27.2a18.74,18.74,0,0,0,.12,2.25,1,1,0,0,1-.15.69.71.71,0,0,0,.13,1,1.58,1.58,0,0,1,.49.67c.06-.08,0-.19.13-.22s.16,0,.23.05c.91.35,1.83.68,2.73,1,1.05.41,2.11.79,3.14,1.24A20.73,20.73,0,0,1,30.63,22a31.13,31.13,0,0,1,4.08,2.86,7.91,7.91,0,0,1,1.06,1,8.6,8.6,0,0,1,1.09,1.52,3.8,3.8,0,0,1,.29,3.09,17.36,17.36,0,0,1-1.73,4,3.7,3.7,0,0,0-.18.4c.09,0,.12-.06.16-.1a9.15,9.15,0,0,0,2.53-4.31,4.66,4.66,0,0,0,.22-1.66,4.27,4.27,0,0,0-.8-2.22A1.69,1.69,0,0,1,37,25.2a1.51,1.51,0,0,0,0-.3c0-1.87.06-3.75.1-5.62,0-1.67.06-3.35,0-5s-.11-3.12-.21-4.69c-.06-1.13-.13-2.26-.2-3.39,0-.23-.06-.46-.09-.7a.11.11,0,0,0-.09-.12c-.07,0-.09,0-.11.11a1.07,1.07,0,0,0,0,.4c0,1.24,0,2.48.09,3.72.1,2.24.06,4.48.09,6.72s.09,4.57.13,6.86c0,.74.05,1.49.07,2.24,0,.07,0,.17,0,.21s-.14-.06-.18-.11a15.5,15.5,0,0,0-1.33-1.24.64.64,0,0,1-.26-.58c.1-3.35.13-6.7.12-10,0-2-.08-4-.14-6-.05-1.38-.13-2.77-.2-4.16,0-.09,0-.24-.08-.25s-.08.16-.11.24a3.15,3.15,0,0,0-.06.61c0,1.63.09,3.24.09,4.87s0,3.18.06,4.78.05,3.38.08,5.07c0,1.53.05,3.06.07,4.59v.22c0,.07,0,.15-.07.18s-.12,0-.17-.06l-1.3-.94c-.24-.17-.5-.33-.75-.48a.33.33,0,0,1-.19-.36,23.37,23.37,0,0,0,.2-2.51c0-.06,0-.11,0-.17,0-2.61.08-5.23,0-7.85,0-2.43-.16-4.86-.14-7.29,0-.87,0-1.74,0-2.61,0-.07,0-.19-.07-.21s-.14.1-.16.18a3.39,3.39,0,0,0-.15.89C31.94,4.49,32,6.58,32,8.67v.19q.08,5.25.05,10.5c0,.78.06,1.55.12,2.32,0,0,0,.07,0,.11s0,.18-.06.23S32,22,31.9,22A17.92,17.92,0,0,0,30.18,21a.45.45,0,0,1-.28-.5c.09-1,0-1.9.06-2.85.06-2.5.09-5,.06-7.49,0-2.92-.13-5.84-.11-8.76v-1c0-.08,0-.2-.09-.21s-.14.08-.16.17a4.39,4.39,0,0,0-.16,1c-.15,2.26-.14,4.53-.11,6.79,0,.81,0,1.62,0,2.43,0,1.25,0,2.49,0,3.73s-.05,2.27,0,3.4a23.94,23.94,0,0,0,.15,2.68c0,.23,0,.27-.22.18l-.79-.35a.34.34,0,0,1-.21-.34c-.05-.93-.07-1.87-.14-2.81-.09-1.23-.11-2.48-.19-3.71v-.13c0-.46,0-.51.44-.68.08,0,.18,0,.15-.16s-.1-.14-.2-.15h0c-.38,0-.38,0-.39-.39q-.12-3.11-.25-6.19c-.05-1.08-.11-2.16-.17-3.23,0-.7-.14-1.39-.24-2.08,0-.08,0-.15-.11-.15a.14.14,0,0,0-.14.14c0,.12,0,.25,0,.38,0,.8.08,1.6.1,2.4,0,1.3.13,2.6.19,3.89,0,.4,0,.8,0,1.21,0,1.14.1,2.28.1,3.42,0,.27-.06.53-.05.8a.31.31,0,0,1-.17.27l-1.52,1c-.16.1-.23.06-.24-.13a.13.13,0,0,1,0-.06c0-1.34-.06-2.68-.06-4s0-2.81,0-4.21c0-.87,0-1.73-.06-2.6,0-.36-.07-.72-.1-1.07a.85.85,0,0,0,0-.17c0-.07-.05-.17-.14-.16s-.09.11-.09.18c-.07.72-.09,1.43-.12,2.15-.11,2.61-.14,5.22-.12,7.82a.36.36,0,0,1-.27.4c-.39.14-.78.28-1.17.4-.15.05-.21-.06-.22-.2,0-.37.06-.73.06-1.1,0-.82.05-1.65.07-2.47,0-1.39.07-2.78,0-4.17A6.21,6.21,0,0,0,23.13,3c0-.06,0-.14-.11-.14s-.08.08-.1.13a3.56,3.56,0,0,0-.1.79c-.1,1-.18,2-.23,3,0,.57,0,1.14-.08,1.71-.06,1.18-.08,2.36-.13,3.53,0,.52-.05.51-.57.68-.15.05-.16,0-.16-.16,0-.39,0-.78,0-1.17,0-1.84,0-3.68,0-5.52a13.32,13.32,0,0,0-.19-1.53c0-.07,0-.17-.14-.16a.16.16,0,0,0-.14.18c0,.15,0,.29,0,.44-.1,2.68-.31,5.35-.22,8a.32.32,0,0,1-.25.34,21.18,21.18,0,0,0-3.35,1.72,14.67,14.67,0,0,0-2.1,1.59,3.73,3.73,0,0,0-.58.73.77.77,0,0,1-.42.33c-.22.08-.43.18-.64.27-.06,0-.11.05-.16,0a.14.14,0,0,1,0-.14,5.52,5.52,0,0,0,.16-.54c.05-.2.21-.27.37-.35l.74-.34c.06,0,.16-.08.12-.17s-.13,0-.19,0a3,3,0,0,0-.66.23c-.08,0-.19.13-.24,0s-.09-.29.09-.37a6.17,6.17,0,0,0,.85-.51c.09-.06.25-.14.19-.24s-.21,0-.31,0a3.08,3.08,0,0,0-.78.46c-.09.08-.14,0-.17-.05-.11-.3-.17-.62-.3-.93,0-.11.07-.17.15-.22s.43-.26.63-.4.15-.1.1-.18-.13,0-.19,0a2.2,2.2,0,0,0-.64.39.39.39,0,0,1-.4.06c-.1,0-.06-.1,0-.17,0-.42,0-.6-.28-.7a2.92,2.92,0,0,0-.65-.15c-.41-.05-.81-.13-1.22-.16a5.71,5.71,0,0,0-.92,0,.43.43,0,0,0,.3.12l1.87.3a.88.88,0,0,1,.27.1c.06,0,.15,0,.13.14s-.05.15-.14.15h0a.17.17,0,0,1-.19.15,0,0,0,0,1,0,0,.21.21,0,0,1-.23.15s0,0,0,0a.87.87,0,0,1-.5.26,1.64,1.64,0,0,1-.62.13h-.08A.82.82,0,0,1,10,15c-.06,0-.11,0-.17,0A3.92,3.92,0,0,1,8.57,15,4.62,4.62,0,0,1,7.83,15c-.09,0-.19,0-.19-.14h0a.87.87,0,0,1-.57-.09c-.08,0-.19-.06-.2-.16s.09-.16.17-.22.08-.07.13,0h0a1,1,0,0,1,.57-.3c.06,0,.14,0,.15-.08s0-.11-.11-.14a.27.27,0,0,0-.2,0,3.38,3.38,0,0,0-.75.34c-.06,0-.1.12-.19.09l-.07.05c0,.14-.13.15-.22.15a1.13,1.13,0,0,0-.53.25.26.26,0,0,0-.11.33c0,.11,0,.17-.09.23a.49.49,0,0,0-.23.43c0,.1-.08.17-.17.23s-.41.28-.33.59c0,.1-.08.15-.14.22s-.33.29-.23.52.32.19.51.23a2.41,2.41,0,0,0,.38,0c.05,0,.11,0,.12-.06s0-.07-.1-.08-.29-.06-.43-.09-.3-.17-.13-.38a.89.89,0,0,1,.66-.32A1.59,1.59,0,0,0,6,16.42l-.64-.13c-.06,0-.15,0-.17-.1s.07-.11.12-.16a.5.5,0,0,1,.43-.18H6s.13,0,.14,0-.07-.07-.12-.08a1.14,1.14,0,0,1-.35-.13c-.08,0-.12-.11-.06-.19a.71.71,0,0,1,.52-.3c.26,0,.53,0,.8.07s.24.09.16.29l0,0c-.08.24-.2.42-.5.33,0,0-.1,0-.11,0s0,.07.09.08c.26.08.29.14.09.35s0,.22-.08.32c-.19.51-.37,1-.57,1.54a1,1,0,0,1-.33.42,4.08,4.08,0,0,0-.6.5.26.26,0,0,1-.35.07c-.31-.11-.64-.19-1-.28s-.25-.14-.08-.33a.52.52,0,0,1,.62-.17,2.09,2.09,0,0,0,.79.09c.07,0,.18,0,.19-.08s-.1-.1-.18-.12l-.49-.11-.26-.08c-.12-.05-.14-.12,0-.2l.19-.12c.07,0,.13-.09.1-.17s-.12-.06-.19,0-.09,0-.14,0l-.09,0a.18.18,0,0,1-.2.1l-.21.17s0,.08,0,.08V18c.06.1,0,.16-.07.18l0,0a.15.15,0,0,1-.19.11h0a.18.18,0,0,1-.11.14l-.06,0ZM5.32,21c.06,0,.12,0,.15.07a.21.21,0,0,1-.19.08,9.22,9.22,0,0,1-1.39,0,.22.22,0,0,1-.11,0c-.14,0-.31-.06-.36-.24s.2-.39.33-.44a.2.2,0,0,1,.22,0A2.47,2.47,0,0,0,5.32,21Zm19.94-2.25a14,14,0,0,0,.17-2.33c0-.57,0-1.14,0-1.72a.42.42,0,0,1,.22-.4l1.59-1c.22-.14.28-.11.29.16,0,.83,0,1.67.07,2.51,0,1,.16,2,.28,3,0,.28.06.57.08.86s-.07.17-.18.13l-.51-.19c-.59-.23-1.19-.46-1.79-.65C25.31,19,25.21,18.92,25.26,18.71Zm-2.14-5.8a.2.2,0,0,1,.14-.19l1.26-.49c.14-.05.21,0,.2.15s0,.58,0,.87h0c0,.27,0,.55,0,.82a.35.35,0,0,1-.21.36c-.41.22-.81.44-1.22.68-.14.08-.21.07-.21-.11C23.09,14.3,23.1,13.61,23.12,12.91ZM22.9,18A12.45,12.45,0,0,0,23,16a.38.38,0,0,1,.2-.33,13.26,13.26,0,0,1,1.33-.74c.16-.08.23,0,.23.16,0,.54,0,1.08,0,1.62a12.64,12.64,0,0,0,.12,1.94c0,.19,0,.25-.22.19-.54-.18-1.08-.37-1.62-.54A.25.25,0,0,1,22.9,18Zm-.5-1.5a7.78,7.78,0,0,0,.17,1.36c0,.13,0,.17-.15.12l-.57-.22c-.24-.11-.12-.33-.14-.5-.1-.44.18-.65.48-.85C22.32,16.32,22.39,16.34,22.4,16.5Zm-.54-3.2c.14-.05.28-.19.41-.13s0,.25,0,.38c0,.65,0,1.3.05,1.95a.87.87,0,0,1-.54.58c-.11,0-.09-.08-.1-.15,0-.4,0-.8,0-1.32a9.15,9.15,0,0,0,0-1A.27.27,0,0,1,21.86,13.3ZM12,17.24a4.66,4.66,0,0,0,.12-2.13c0-.08,0-.16.06-.18s.12.07.14.14a15.59,15.59,0,0,0,.44,1.52L13,17l.07-.35s0-.09.08-.08.06.05.06.09a2.55,2.55,0,0,1-.13.87c0,.1-.13.09-.2.06a1.74,1.74,0,0,0-.68-.12C12,17.46,12,17.37,12,17.24Zm-.64,0a7,7,0,0,0,.24-1.88c0-.05,0-.13.06-.14s.1.07.1.13c0,.3,0,.6.06.8v1.14c0,.09,0,.2-.09.21a.66.66,0,0,1-.34-.05C11.34,17.36,11.39,17.26,11.4,17.19ZM11,15.43c0-.11.07-.21.2-.2s.11.14.11.23a2,2,0,0,1,0,.35,8.83,8.83,0,0,1-.17,1.45.17.17,0,0,1-.14.16c-.14,0-.28.08-.41,0s0-.1,0-.16C10.71,16.65,10.82,16,11,15.43ZM6.33,14.9c-.07,0-.22,0-.21-.12a.19.19,0,0,1,.22-.14.16.16,0,0,1,.14.16C6.48,14.9,6.41,14.9,6.33,14.9Z"/><path class="cls-2" d="M38.28,28.43a5.63,5.63,0,0,0-1-2.31.46.46,0,0,1-.09-.27c0-.33,0-.66,0-1,0-.68,0-1.37,0-2.05,0-1.31,0-2.63.1-3.95,0-.55,0-1.11,0-1.67,0-1.25,0-2.51,0-3.76-.06-.86,0-1.71-.11-2.57-.07-.65-.1-1.3-.13-2,0-1.06-.12-2.12-.18-3.17a1.24,1.24,0,0,0-.09-.39c-.05-.11-.13-.2-.26-.17a.26.26,0,0,0-.21.23,3.8,3.8,0,0,0,0,.46c0,.74,0,1.48,0,2.22,0,.28,0,.56,0,.84,0,.85.08,1.69.1,2.54,0,2,0,4,0,6,0,.81,0,1.62,0,2.43,0,1.06,0,2.12.08,3.19,0,.66,0,1.32,0,2,0,.05,0,.12-.05.14s-.1,0-.13-.07a8,8,0,0,0-.87-.78,1,1,0,0,1-.39-.87c0-1.46.06-2.92.08-4.38,0-2.37.06-4.75,0-7.12,0-.68,0-1.35,0-2,0-1-.09-2.09-.13-3.14s-.11-1.93-.1-2.89a2.36,2.36,0,0,0-.08-.65c0-.09,0-.2-.16-.22s-.19.08-.24.19a1.87,1.87,0,0,0-.11.81c0,.69,0,1.39,0,2.09s0,1.27,0,1.9c0,1.1,0,2.2,0,3.3,0,.81,0,1.63,0,2.45,0,1.17,0,2.34.06,3.51,0,.43,0,.87,0,1.3,0,1.59,0,3.18,0,4.76,0,0,0,.12,0,.15s-.1,0-.15,0a17.24,17.24,0,0,0-1.74-1.19.4.4,0,0,1-.21-.46,20.21,20.21,0,0,0,.16-2c0-.82,0-1.64.05-2.45s0-1.36,0-2c0-1.06,0-2.13,0-3.19,0-1.62,0-3.24-.12-4.86-.06-1,0-1.93,0-2.9s0-1.94.05-2.91a.25.25,0,0,0-.16-.27.24.24,0,0,0-.3.1,1.12,1.12,0,0,0-.19.61,31.69,31.69,0,0,0-.17,3.37c0,1.69.05,3.38.07,5.07,0,3,0,6,0,9a1.47,1.47,0,0,0,0,.21c.06.68,0,1.36.12,2,0,.06,0,.13,0,.17s-.13,0-.19,0c-.45-.29-.93-.54-1.4-.78s-.34-.17-.31-.54c0-.06,0-.11,0-.17,0-.7,0-1.41,0-2.11s0-1.44,0-2.16c0-2.57.06-5.14,0-7.72,0-.69,0-1.38,0-2.07s0-1.39,0-2.09,0-1.27,0-1.9a8.25,8.25,0,0,1,0-1.22,2.41,2.41,0,0,0,0-.6c0-.13-.06-.26-.23-.28s-.25.09-.31.23a1.92,1.92,0,0,0-.09.32,20.56,20.56,0,0,0-.2,3c0,2.05,0,4.1,0,6.15s0,4.25,0,6.37c0,.11,0,.21,0,.32,0,1.24.05,2.48.16,3.73,0,.14,0,.17-.18.11l-.57-.26c-.1,0-.12-.12-.13-.22-.07-.61-.06-1.23-.12-1.85s-.08-1.4-.11-2.1c-.05-.91-.1-1.82-.11-2.72,0-.39,0-.4.37-.52.14,0,.23-.12.22-.27a.3.3,0,0,0-.27-.3h-.19c-.12,0-.17-.05-.17-.16,0-.63-.06-1.25-.08-1.88S28,8.62,28,7.9c0-1.23-.16-2.46-.15-3.69a1.47,1.47,0,0,0,0-.21c-.1-.9-.09-1.81-.21-2.71-.05-.36-.11-.72-.17-1.08A.23.23,0,0,0,27.23,0,.25.25,0,0,0,27,.18a1.37,1.37,0,0,0-.09.49c0,.68.09,1.35.12,2s0,1.38.08,2.07.08,1.65.12,2.48.05,1.63.09,2.45,0,1.39.05,2.09c0,.07.05.17-.05.2a.26.26,0,0,1-.22-.11.52.52,0,0,0-.59-.16,4.83,4.83,0,0,0-.64.22c-.14.06-.22.05-.22-.13,0-.46,0-.91,0-1.36,0-1.93,0-3.87-.05-5.81,0-.67,0-1.34-.06-2a6.12,6.12,0,0,0-.15-1.27c0-.16-.1-.3-.29-.3s-.2.17-.23.3a5,5,0,0,0-.08.95c-.08.83-.07,1.67-.12,2.5s0,2-.05,2.92c0,1.22,0,2.45,0,3.67v0c0,.1,0,.16-.14.2l-.79.28c-.28.08-.29.07-.29-.21,0-1,.05-1.89.08-2.83,0-1.13,0-2.27,0-3.4a16.5,16.5,0,0,0,0-1.86,1.89,1.89,0,0,0-.14-.78c-.05-.1-.08-.18-.21-.18a.21.21,0,0,0-.22.15,2.24,2.24,0,0,0-.14.72c0,.42-.07.83-.11,1.24-.08.81-.13,1.62-.19,2.43,0,.58-.07,1.17-.08,1.75,0,1.05-.11,2.1-.1,3.14a.59.59,0,0,1,0,.19.24.24,0,0,1-.28.18c-.12,0-.08-.13-.08-.2,0-.53,0-1.07,0-1.6,0-1.86.09-3.71-.07-5.56a3.86,3.86,0,0,0-.16-.95c0-.12-.08-.22-.24-.21a.39.39,0,0,0-.36.5,3.07,3.07,0,0,1,0,.8A21.36,21.36,0,0,0,20.85,8c0,1.08-.07,2.15-.06,3.23a12.85,12.85,0,0,1,0,1.52.27.27,0,0,1-.17.25,29.06,29.06,0,0,0-2.75,1.34,20.31,20.31,0,0,0-2.11,1.46A3.88,3.88,0,0,0,14.68,17a1.56,1.56,0,0,1-.95.64c-.05,0-.11,0-.13-.05a1,1,0,0,1,.33-.62c.27-.11.52-.25.78-.38a1,1,0,0,0,.33-.26c.08-.1.05-.18-.07-.19a.76.76,0,0,0-.42,0l-.53.2c-.07,0-.15.06-.19,0s.05-.12.11-.16l.15-.08a4.83,4.83,0,0,0,.92-.63c.07-.07.17-.14.1-.25s-.17-.06-.27,0a3.73,3.73,0,0,0-1,.45s-.1.1-.15,0a.64.64,0,0,1-.11-.36c0-.06.06,0,.11-.07a3.74,3.74,0,0,0,1.2-.55.52.52,0,0,0,.11-.1c.05-.05.11-.11.07-.18s-.11-.06-.17-.06a3.25,3.25,0,0,0-.62.13l-.47.16c0-.07,0-.08.06-.1a5.64,5.64,0,0,0,.63-.46c.05-.05.11-.1.08-.18s-.12-.07-.18-.06a1.74,1.74,0,0,0-.51.13,3.25,3.25,0,0,0-.67.41.15.15,0,0,1-.19,0c-.06,0,0-.08,0-.13a.65.65,0,0,0-.52-.82,8.19,8.19,0,0,0-1-.17,9.18,9.18,0,0,0-2,0c-.33,0-.63.14-1,.18,0,0,0,0,0,.07l.05,0h.21a14.5,14.5,0,0,1,3.15.37c.15,0,.27.08.27.27.09,0,.13-.07.14-.15s-.07-.11-.13-.14a.88.88,0,0,0-.27-.1l-1.87-.3a.43.43,0,0,1-.3-.12,5.71,5.71,0,0,1,.92,0c.41,0,.81.11,1.22.16a2.92,2.92,0,0,1,.65.15c.26.1.32.28.28.7,0,.07-.05.15,0,.17a.39.39,0,0,0,.4-.06A2.2,2.2,0,0,1,14,14c.06,0,.16,0,.19,0s0,.14-.1.18-.42.27-.63.4-.19.11-.15.22c.13.31.19.63.3.93,0,.09.08.13.17.05a3.08,3.08,0,0,1,.78-.46c.1,0,.24-.16.31,0s-.1.18-.19.24a6.17,6.17,0,0,1-.85.51c-.18.08-.14.24-.09.37s.16.05.24,0a3,3,0,0,1,.66-.23c.06,0,.15-.07.19,0s-.06.13-.12.17l-.74.34c-.16.08-.32.15-.37.35a5.52,5.52,0,0,1-.16.54.14.14,0,0,0,0,.14c.05.05.1,0,.16,0,.21-.09.42-.19.64-.27a.77.77,0,0,0,.42-.33,3.73,3.73,0,0,1,.58-.73,14.67,14.67,0,0,1,2.1-1.59,21.18,21.18,0,0,1,3.35-1.72.32.32,0,0,0,.25-.34c-.09-2.68.12-5.35.22-8,0-.15,0-.29,0-.44a.16.16,0,0,1,.14-.18c.1,0,.13.09.14.16a13.32,13.32,0,0,1,.19,1.53c0,1.84,0,3.68,0,5.52,0,.39,0,.78,0,1.17,0,.11,0,.21.16.16.52-.17.55-.16.57-.68.05-1.17.07-2.35.13-3.53,0-.57.06-1.14.08-1.71.05-1,.13-2,.23-3a3.56,3.56,0,0,1,.1-.79s0-.14.1-.13.09.08.11.14a6.21,6.21,0,0,1,.12,1.21c0,1.39,0,2.78,0,4.17,0,.82-.06,1.65-.07,2.47,0,.37-.07.73-.06,1.1,0,.14.07.25.22.2.39-.12.78-.26,1.17-.4a.36.36,0,0,0,.27-.4c0-2.6,0-5.21.12-7.82,0-.72.05-1.43.12-2.15,0-.07,0-.18.09-.18s.12.09.14.16a.85.85,0,0,1,0,.17c0,.35.07.71.1,1.07.07.87,0,1.73.06,2.6,0,1.4,0,2.81,0,4.21s.06,2.68.06,4a.13.13,0,0,0,0,.06c0,.19.08.23.24.13l1.52-1a.31.31,0,0,0,.17-.27c0-.27.05-.53.05-.8,0-1.14-.07-2.28-.1-3.42,0-.41,0-.81,0-1.21-.06-1.29-.14-2.59-.19-3.89,0-.8-.12-1.6-.1-2.4,0-.13,0-.26,0-.38a.14.14,0,0,1,.14-.14c.09,0,.1.07.11.15.1.69.2,1.38.24,2.08.06,1.07.12,2.15.17,3.23q.13,3.09.25,6.19c0,.37,0,.38.39.39h0c.1,0,.18,0,.2.15s-.07.13-.15.16c-.42.17-.45.22-.44.68v.13c.08,1.23.1,2.48.19,3.71.07.94.09,1.88.14,2.81a.34.34,0,0,0,.21.34l.79.35c.2.09.26.05.22-.18a23.94,23.94,0,0,1-.15-2.68c0-1.13,0-2.27,0-3.4s0-2.48,0-3.73c0-.81,0-1.62,0-2.43,0-2.26,0-4.53.11-6.79A4.39,4.39,0,0,1,29.66.4c0-.09.07-.18.16-.17s.09.13.09.21v1c0,2.92.07,5.84.11,8.76,0,2.49,0,5-.06,7.49,0,.95,0,1.9-.06,2.85a.45.45,0,0,0,.28.5A17.92,17.92,0,0,1,31.9,22c.08,0,.14.11.23.06s.06-.15.06-.23,0-.07,0-.11c-.06-.77-.12-1.54-.12-2.32q0-5.25-.05-10.5V8.67c-.06-2.09-.07-4.18.06-6.28a3.39,3.39,0,0,1,.15-.89c0-.08,0-.21.16-.18s.07.14.07.21c0,.87,0,1.74,0,2.61,0,2.43.1,4.86.14,7.29,0,2.62,0,5.24,0,7.85,0,.06,0,.11,0,.17a23.37,23.37,0,0,1-.2,2.51.33.33,0,0,0,.19.36c.25.15.51.31.75.48l1.3.94s.1.09.17.06.07-.11.07-.18V23.4c0-1.53,0-3.06-.07-4.59,0-1.69-.06-3.38-.08-5.07s0-3.19-.06-4.78-.12-3.24-.09-4.87a3.15,3.15,0,0,1,.06-.61c0-.08,0-.25.11-.24s.08.16.08.25c.07,1.39.15,2.78.2,4.16.06,2,.13,4,.14,6,0,3.35,0,6.7-.12,10.05a.64.64,0,0,0,.26.58,15.5,15.5,0,0,1,1.33,1.24s.09.15.18.11,0-.14,0-.21c0-.75,0-1.5-.07-2.24,0-2.29-.09-4.57-.13-6.86s0-4.48-.09-6.72c0-1.24-.11-2.48-.09-3.72a1.07,1.07,0,0,1,0-.4c0-.06,0-.11.11-.11a.11.11,0,0,1,.09.12c0,.24.07.47.09.7.07,1.13.14,2.26.2,3.39.1,1.57.18,3.13.21,4.69s0,3.35,0,5c0,1.87-.07,3.75-.1,5.62a1.51,1.51,0,0,1,0,.3,1.69,1.69,0,0,0,.33,1.38,4.27,4.27,0,0,1,.8,2.22,4.66,4.66,0,0,1-.22,1.66,9.15,9.15,0,0,1-2.53,4.31s-.07.1-.16.1a3.7,3.7,0,0,1,.18-.4,17.36,17.36,0,0,0,1.73-4,3.8,3.8,0,0,0-.29-3.09,8.6,8.6,0,0,0-1.09-1.52,7.91,7.91,0,0,0-1.06-1A31.13,31.13,0,0,0,30.63,22a20.73,20.73,0,0,0-2.81-1.35c-1-.45-2.09-.83-3.14-1.24-.9-.36-1.82-.69-2.73-1-.07,0-.15-.09-.23-.05s-.07.14-.13.22a1.58,1.58,0,0,0-.49-.67.71.71,0,0,1-.13-1,1,1,0,0,0,.15-.69A18.74,18.74,0,0,1,21,14c0-.2-.08-.28-.27-.2s-.5.24-.75.37c-.55.27-1.12.53-1.65.85a17.09,17.09,0,0,0-1.59,1.08,5.56,5.56,0,0,0-1.67,1.64.72.72,0,0,0-.07.71,3.23,3.23,0,0,0,.27.44A4.07,4.07,0,0,0,16.32,20a12.83,12.83,0,0,0,2.81,1.31c.81.29,1.63.5,2.45.76l1.92.63c.69.21,1.38.45,2.05.7A23.63,23.63,0,0,1,28,24.52a8.69,8.69,0,0,1,1.8,1.26,5.88,5.88,0,0,1,1.28,1.57A2.48,2.48,0,0,1,31.34,29a3.34,3.34,0,0,1-.75,1.46c-.41.51-.87,1-1.31,1.49a18,18,0,0,1-2.2,2.25s-.1.12-.16.08,0-.13,0-.18A16.43,16.43,0,0,1,28.27,32c.61-.8,1.21-1.6,1.74-2.45a1.76,1.76,0,0,0,0-1.9,5.18,5.18,0,0,0-1.36-1.51,13.18,13.18,0,0,0-3.19-1.79c-1-.43-2.07-.74-3.1-1.1-1.29-.45-2.62-.75-3.88-1.27a7.35,7.35,0,0,1-3.36-2.08c-.08-.11-.17-.09-.26,0a2.39,2.39,0,0,1-.53.42.27.27,0,0,0-.12.36c.07.16.21.06.31,0a1.58,1.58,0,0,1,.49-.1c-.08.18-.28.21-.37.38.21,0,.4-.08.61,0a1.27,1.27,0,0,1-.8.39.27.27,0,0,0-.3.26.66.66,0,0,1-.11.4.24.24,0,0,1-.08-.19c-.05-.72-.11-1.44-.2-2.16,0-.09,0-.21.07-.24s.16.09.2.18,0,.37.18.42.27-.14.41-.22c.31-.18.31-.19.1-.5A2,2,0,0,1,14.31,18c0-.17-.07-.18-.2-.13l-.18.1a1.07,1.07,0,0,1-.49.14c-.23,0-.3,0-.36.3.08,0,.09,0,.13-.08s.08-.12.14-.11A1.38,1.38,0,0,0,14,18c.07,0,.15-.06.14.06a2.28,2.28,0,0,0,.52,1.35c.09.14.07.2-.07.28-.35.23-.35.23-.51-.15a.57.57,0,0,0-.63-.4,1,1,0,0,1-.38,0c0-.12.18-.08.24-.17a1.86,1.86,0,0,0-.34-.07c-.14,0-.19-.08-.15-.22l0,0s0,0,0,0v0c0-.14.05-.28.09-.42s0-.2-.12-.22-.45-.06-.68-.07h-.34l-.34,0c0,.12.11.08.18.08.33,0,.66,0,1,0,.13,0,.19.06.19.2a4.21,4.21,0,0,1-.12.51c0,.1-.12.1-.21.11-.44,0-.88,0-1.33,0-.61,0-1.21.15-1.82.15S8.05,19,7.44,19c0,0-.09,0-.1-.06s0-.08.09-.1c.35-.14.71-.29,1.06-.41A9.63,9.63,0,0,1,10,18a.41.41,0,0,1,.31,0c.05,0,.1,0,.15,0A.68.68,0,0,1,11,18c.12.09.17,0,.23-.11a2.3,2.3,0,0,0-.64-.09,5.51,5.51,0,0,0-1.71.32c-.36.13-.72.25-1.1.35,0-.08.06-.1.11-.13a3.82,3.82,0,0,1,.87-.4c.43-.12.85-.29,1.29-.37a.35.35,0,0,0,.34-.36,11.6,11.6,0,0,1,.2-1.44c.07-.46.08-.45-.38-.4h0a.35.35,0,0,0-.33.3c-.08.38-.19.76-.3,1.14,0,.06,0,.15-.1.14s0-.11,0-.18,0,0,0-.06,0-.28-.08-.31-.14.15-.16.25a2.56,2.56,0,0,1-.46.8A1.81,1.81,0,0,1,8.75,17c.12-.41.22-.81.33-1.22,0-.08.05-.18,0-.24a.43.43,0,0,0-.55.17c-.19.62-.47,1.19-.71,1.79a2.39,2.39,0,0,1-.13.21.08.08,0,0,1-.1,0s0-.05,0-.08a.83.83,0,0,1,0-.15c.23-.56.35-1.17.57-1.74q.09-.24-.15-.27l-.19,0c-.19-.08-.29,0-.36.19s-.18.57-.33.85A11.57,11.57,0,0,0,6.44,18c-.06.13,0,.19.13.16a1.18,1.18,0,0,0,.31-.08c.14-.07,0,.1.06.07s.16,0,.24,0,.08,0,.1,0,.15.08.21,0,.12-.19.17-.29a1.16,1.16,0,0,1,.73-.47c.11,0,.14,0,.12.13a.72.72,0,0,1-.44.65,5.42,5.42,0,0,0-1,.62.52.52,0,0,1-.48.09c-.11,0-.13-.07-.07-.18s.22-.19.2-.35H6.63a.13.13,0,0,0-.08,0l0,0h0c-.36.15-.48.51-.66.8s-.17.31-.38.15c0,0,.12,0,.16,0s.18-.2.11-.31-.16,0-.24,0a.6.6,0,0,0-.11.06c-.18.07,0,.3-.19.39,0,0,0,.06.08.05.22,0,.4.11.59.16a7.1,7.1,0,0,0,1.59.23c.36,0,.73,0,1.09,0a8.5,8.5,0,0,0,2-.18,8.56,8.56,0,0,1,1.34-.25c.32-.05.64-.08,1-.12.05,0,.12,0,.13.07s-.06.06-.11.07-.18.1-.16.21a3.75,3.75,0,0,1-.13,1.49,3.94,3.94,0,0,1-.27.82c0,.05-.05.13-.12.11s0-.1,0-.15a5.07,5.07,0,0,1,.1-.77,10.47,10.47,0,0,0,.15-1.36c0-.07,0-.15-.08-.18a.21.21,0,0,0-.22.1.19.19,0,0,0,0,.18,3,3,0,0,1-.23,1.37c-.08.19-.17.37-.26.55s-.05.12-.12.09,0-.1,0-.15a2.74,2.74,0,0,1,.09-.39A4.62,4.62,0,0,0,11.76,20c0-.06,0-.14-.06-.16a.21.21,0,0,0-.21.06c-.06,0,0,.11,0,.18a2.65,2.65,0,0,1-.1.84A5.12,5.12,0,0,1,10.84,22a1.18,1.18,0,0,1,0-.57c0-.11.1-.22,0-.34a.69.69,0,0,0-.16.43c-.07.55-.09.57-.62.45a1,1,0,0,0-.25,0,.34.34,0,0,0-.33.18.28.28,0,0,0,.06.35c.17.2.15.48.29.7,0,.05,0,.14-.1.1a1.71,1.71,0,0,0-1.18.1,4.24,4.24,0,0,0-1,.5.85.85,0,0,1-1-.23.14.14,0,0,1,0-.18,8.63,8.63,0,0,0,.55-1,.51.51,0,0,1,.4-.34c.05,0,.12,0,.13-.09s0-.1-.1-.12-.11,0-.07-.1.2-.4.47-.45a2.25,2.25,0,0,1,.52-.08c.07,0,.12,0,.12-.11S8.66,21,8.59,21h-.3c.14-.23.37-.2.51-.31s.13,0,.12-.13-.09-.07-.15-.08-.34,0-.33-.15.22-.11.35-.13l.21,0c.1,0,.22-.05.29,0,.46.25.88,0,1.31-.06a1,1,0,0,0,.17,0c.25-.05.3,0,.25.26s-.09.39-.13.58,0,.08,0,.11H11l0,0A.11.11,0,0,0,11,21a4.8,4.8,0,0,0,.14-.83c0-.22-.05-.27-.26-.22s-.48.13-.73.16-.51.17-.76,0c0,0-.12,0-.19,0A7.31,7.31,0,0,1,7,20.12a3.84,3.84,0,0,1-1.75-.53.18.18,0,0,0-.16,0,3.22,3.22,0,0,0-.86.34c-.19.12-.18.3,0,.39a1.17,1.17,0,0,0,.31.12,5.53,5.53,0,0,0,1.67.1,14.74,14.74,0,0,1,1.88,0,.64.64,0,0,1,.37.11c-.17.3-.55.17-.77.36.1.09.3,0,.31.14s-.18.13-.29.15A13,13,0,0,1,5,21.53a3.39,3.39,0,0,1-1.63-.31.22.22,0,0,0-.33.11.91.91,0,0,1,.56.1,2.32,2.32,0,0,0,.86.18s.11,0,.14,0,0,.09-.08.13c-.29.41-.67.36-1.08.24-.11,0-.22-.13-.35-.09s0,.07.05.08l0,0h0A2.21,2.21,0,0,0,4,22.2c.74,0,1.48-.05,2.21-.12a4.24,4.24,0,0,1,.94,0,1.91,1.91,0,0,1-.71.26,14.07,14.07,0,0,1-1.71.24,2.75,2.75,0,0,1-1.95-.5c-.09-.06-.18-.12-.27-.05l-1,.76a.29.29,0,0,0-.07.33c0,.12.12.16.23.18a5.14,5.14,0,0,0,1.66-.05c.69-.12,1.37-.3,2.06-.44a4.31,4.31,0,0,1,.93-.15,1.09,1.09,0,0,1-.33.18,16.73,16.73,0,0,1-1.61.5,12.19,12.19,0,0,1-2.08.34,1.56,1.56,0,0,1-.94-.19c-.3-.18-.33-.18-.59.07a1.43,1.43,0,0,0-.23.27c-.14.24-.08.4.18.46a2.24,2.24,0,0,0,.93,0,11.15,11.15,0,0,0,2.13-.49c.6-.21,1.22-.35,1.83-.51.16,0,.31-.15.52-.09a3.08,3.08,0,0,1-.64.38,9.91,9.91,0,0,1-2.1.81c-.07,0-.17,0-.17.1s.11.13.2.13a7.85,7.85,0,0,0,.84,0c.59-.06,1.17-.25,1.75-.36a3.56,3.56,0,0,1,.94-.11,2.21,2.21,0,0,1-.52.28,8.61,8.61,0,0,1-1.3.43c-.07,0-.17,0-.17.09s.12.08.19.09a2.31,2.31,0,0,0,.37,0,4.76,4.76,0,0,0,1.39-.27c.27-.09.55-.16.85-.25,0,.14-.1.16-.16.2a4.11,4.11,0,0,1-1.15.52s-.11,0-.11.09.06.07.11.08l.15,0c.43,0,.86,0,1.28,0a6.94,6.94,0,0,1,.79,0s.09,0,.1,0,0,.08-.07.1-.24.11-.37.15l-.49.13s-.09,0-.08.08.06,0,.1,0a1.93,1.93,0,0,0,.34,0c.79-.12,1.57-.31,2.37-.39a3.25,3.25,0,0,1,1,0,.84.84,0,0,1-.27.17c-1,.25-2,.5-3.05.67-.37.06-.76.1-1-.24a.72.72,0,0,0-.63-.28,1.11,1.11,0,0,1-.8-.3.39.39,0,0,0-.29-.09,3.26,3.26,0,0,1-1.07-.19,3.15,3.15,0,0,0-.91-.25.53.53,0,0,1-.53-.44c0-.1-.13-.1-.18-.09a10,10,0,0,1-1.22.19,1.91,1.91,0,0,1-1.11-.18A.46.46,0,0,1,.19,24a1.4,1.4,0,0,1,.59-.74A.51.51,0,0,0,1,23a1.58,1.58,0,0,1,.6-.68c.37-.29.84-.47,1-1a3.33,3.33,0,0,0,.79-1c.08-.1.24-.16.28-.28a1.09,1.09,0,0,1,.58-.52c.06,0,.17-.05.15-.15s-.14-.06-.21-.06a3,3,0,0,1-.85-.16c-.33-.13-.37-.42-.11-.67l0,0,.06,0a.18.18,0,0,0,.11-.14A.51.51,0,0,0,3,18.9a.58.58,0,0,0,.51.53c.12,0,.24,0,.35.06s.15.08.06.15a3.92,3.92,0,0,0-.58.71,12.61,12.61,0,0,1-.81,1s0,0,0,0a1.21,1.21,0,0,1-.55.59c-.39.31-.87.53-1,1.05,0,.06-.11.1-.16.13a1.89,1.89,0,0,0-.58.58.72.72,0,0,0-.12.5c.07.44.33.56.75.65a4.11,4.11,0,0,0,1.81-.1.23.23,0,0,1,.29.11.79.79,0,0,0,.53.35,2.76,2.76,0,0,1,.79.19,1,1,0,0,0,.41.14A3.13,3.13,0,0,1,6.07,26a1.07,1.07,0,0,0,.63.12.25.25,0,0,1,.22.09,1.1,1.1,0,0,0,1,.42,6.83,6.83,0,0,0,1.2-.2c.35-.07.71-.18,1.06-.26a9.91,9.91,0,0,1,1.88-.45.58.58,0,0,0,.46-.23,4.6,4.6,0,0,0,.42-1.12.2.2,0,0,0-.16-.24c-.12,0-.13.08-.14.17s-.06.14-.14.12c-.3-.1-.51.07-.73.22a.7.7,0,0,1-.44.12l-.57-.05c-.87-.14-1.72-.37-2.57-.57,0,0-.15,0-.16-.07s.1-.11.16-.12a5.69,5.69,0,0,0,.7-.12,1.14,1.14,0,0,1,.52,0,21,21,0,0,0,2.84.34.34.34,0,0,0,.4-.27c0-.1.07-.12.16-.09s.27-.05.3-.21,0-.15,0-.23a.25.25,0,0,1,.24-.27,4.31,4.31,0,0,0,.49-.11,2.15,2.15,0,0,0,1.08-.81,1.37,1.37,0,0,1,.42-.41,1,1,0,0,0,.35-.33c0-.06.07-.14,0-.18a1,1,0,0,1-.32-.41s-.13,0-.13-.09a.17.17,0,0,1,.12-.14c.08,0,.12,0,.18.07a4.1,4.1,0,0,0,.48.37,15.54,15.54,0,0,0,2.83,1.33c.89.32,1.81.56,2.71.86,1.08.36,2.16.73,3.23,1.11a13.8,13.8,0,0,1,3,1.46,5.9,5.9,0,0,1,2,1.88,1.61,1.61,0,0,1,.09,1.75c-.17.29-.36.56-.54.83-.6.9-1.3,1.72-1.87,2.63-.39.62-.72,1.27-1.15,1.87,0,0-.12.1-.06.17s.14,0,.21,0l.55-.45A12.91,12.91,0,0,0,28.62,33c.46-.5.89-1,1.34-1.54A8.73,8.73,0,0,0,31.1,30a2.63,2.63,0,0,0,0-2.91,7.44,7.44,0,0,0-2.58-2.44A16.78,16.78,0,0,0,26,23.37c-1.38-.57-2.82-1-4.24-1.45a37.75,37.75,0,0,1-4.12-1.41,5.37,5.37,0,0,1-2.35-1.83.77.77,0,0,1-.12-.84,3.35,3.35,0,0,1,.51-.72,8.89,8.89,0,0,1,1-.84,19.53,19.53,0,0,1,4-2.29c.05,0,.11,0,.15,0s0,.13-.05.17l-.19.13a8.2,8.2,0,0,0-1.77,1.61,2.08,2.08,0,0,0-.2,2.44,3.53,3.53,0,0,0,1.19,1.18,7.7,7.7,0,0,0,2.36.95c1.32.35,2.66.63,4,1a17,17,0,0,1,4.7,1.85,9.76,9.76,0,0,1,2.74,2.29,7.6,7.6,0,0,1,1.59,4.65,9.9,9.9,0,0,1-.2,2.1,10,10,0,0,1-1.3,3.38c-.24.41-.53.8-.82,1.23a1.55,1.55,0,0,0,.95-.43c.68-.7,1.47-1.27,2.11-2a9.93,9.93,0,0,0,1.5-2.14,11,11,0,0,0,.84-2.31A3.9,3.9,0,0,0,38.28,28.43ZM13.74,14.83a3.55,3.55,0,0,1,.92-.37c.08,0,.14,0,.16.06s0,.09-.06.11a4,4,0,0,1-.91.43c-.06,0-.15,0-.18-.05S13.68,14.87,13.74,14.83Zm-.26,0c0-.1.06-.14.14-.14S13.56,14.84,13.48,14.87Zm1.76,5.54c0,.08-.13.07-.21.07a3.86,3.86,0,0,0-.53.11l-.05,0s0,0,0-.07l.42-.34c.07,0,.15-.07.21,0S15.27,20.3,15.24,20.41ZM8.86,17.6l.23-.4a.13.13,0,0,1,.14-.08c.07,0,0,.09.06.14v.13c0,.05,0,.1.06.12s.09-.05.11-.1a.14.14,0,0,0,0-.06.6.6,0,0,1,.54-.52c.29,0,.29-.07.28.26s-.06.33-.31.38a4.69,4.69,0,0,0-1,.28.15.15,0,0,1-.16,0S8.84,17.64,8.86,17.6ZM6.53,20.35a2,2,0,0,1-.58,0,6,6,0,0,1-1.24-.08c-.14,0-.34-.07-.36-.21s.18-.16.3-.23a.84.84,0,0,1,.85,0,2.8,2.8,0,0,0,1,.3c.05,0,.12,0,.13.05S6.58,20.33,6.53,20.35ZM3.67,22.8c-.08.18-.15.33-.41.35l-1.13.11a1.36,1.36,0,0,1-.49-.08c-.18-.05-.21-.2-.07-.31s.59-.45.89-.67a.15.15,0,0,1,.21,0,2,2,0,0,0,.9.42C3.68,22.64,3.72,22.7,3.67,22.8Zm-.31,1.06a11.85,11.85,0,0,1-2.23.41l-.42-.05c-.18,0-.23-.13-.15-.29a1.09,1.09,0,0,1,.38-.39.18.18,0,0,1,.22,0,1.93,1.93,0,0,0,1.37.25c.27,0,.53-.08.79-.11.06,0,.14,0,.16.07S3.42,23.85,3.36,23.86Zm6.75-.11c-.28,0-.56-.09-.83-.14a2.43,2.43,0,0,0-.71.09c-.07,0-.13,0-.2,0a.1.1,0,0,0,0,0,1.87,1.87,0,0,1,1.18-.3c.23,0,.47.18.71.21l.88.16c.1,0,.2,0,.27.15A6.07,6.07,0,0,1,10.11,23.75Zm.62-.58v-.28c0-.06,0-.13.1-.14s.11.05.12.12a2.29,2.29,0,0,0,.08.64c0,.08,0,.08-.1.08s-.18,0-.19-.11,0-.21,0-.31Zm1.54.74a.33.33,0,0,1-.26-.05.12.12,0,0,1,0-.17,3.65,3.65,0,0,0,.14-.57c0-.05,0-.11.07-.11s.09.06.09.12a1.85,1.85,0,0,0,.06.58C12.32,23.8,12.36,23.89,12.27,23.91Zm.4-.93a3.31,3.31,0,0,0-.14.71l0,.11a1.58,1.58,0,0,1-.12-.62,1.69,1.69,0,0,0,0-.23c0-.08,0-.14-.11-.16a.18.18,0,0,0-.19.11,2.73,2.73,0,0,0-.1.41c0,.05,0,.11,0,.16s0,.13-.09.12-.06-.08-.06-.12,0-.3,0-.45,0-.17-.11-.18a2.7,2.7,0,0,0,0,.75c0,.05,0,.13,0,.15s-.18,0-.26,0-.09-.05-.07-.11a2.89,2.89,0,0,0,.08-.58c0-.15.12-.17.24-.17,0-.11-.13-.09-.21-.08s-.11.09-.12.16,0,.28-.05.42,0,.12-.09.12-.06-.07-.08-.11a1.3,1.3,0,0,1,0-.44c0-.19-.08-.28-.26-.27s-.14.17-.15.29a2.8,2.8,0,0,1,0,.29c0,.06,0,.15-.05.16s-.08-.08-.1-.14-.06-.22-.08-.33,0-.16-.07-.24a.15.15,0,0,0-.16-.11c-.09,0-.1.08-.12.15s0,.2-.07.21-.1-.12-.11-.19a1,1,0,0,0-.16-.32s-.1-.13,0-.21a.21.21,0,0,1,.24-.1,5.79,5.79,0,0,0,1.09.19,6.41,6.41,0,0,1,.89.21c.24,0,.43.21.68.26C12.68,22.76,12.71,22.84,12.67,23Zm.6-3.3c.12,0,.16.08.2.15a1.4,1.4,0,0,1,.12.6,3.76,3.76,0,0,1-.18,1.45.41.41,0,0,1-.05.09h0c0-.3,0-.61,0-.91a7.08,7.08,0,0,0-.09-1.13C13.17,19.82,13.17,19.72,13.27,19.68Zm.89,2.94a.83.83,0,0,1-.51.21,3.47,3.47,0,0,0-.46.13c-.17.06-.21.21-.24.36s0,.17-.07.18-.06-.11-.09-.17a.54.54,0,0,1,0-.11c0-.39.08-.5.44-.54a2.82,2.82,0,0,0,.89-.21s.13-.08.16,0S14.2,22.58,14.16,22.62Zm1.16-1.28s.13-.07.17,0,0,.1-.08.13a2.18,2.18,0,0,1-.84.46c-.1,0-.17,0-.19-.06s0-.09.1-.12Z"/><path class="cls-2" d="M12.79,18.65s0,0,0,0S12.79,18.67,12.79,18.65Z"/><path class="cls-2" d="M11.29,14.73a.87.87,0,0,0,.5-.26s-.09,0-.13,0a2.59,2.59,0,0,1-.77.26c-.08,0-.18,0-.22.12A1.64,1.64,0,0,0,11.29,14.73Z"/><path class="cls-2" d="M12.05,14.3a.18.18,0,0,0-.23.15A.21.21,0,0,0,12.05,14.3Z"/><path class="cls-2" d="M12.17,17.47a1.74,1.74,0,0,1,.68.12c.07,0,.18,0,.2-.06a2.55,2.55,0,0,0,.13-.87s0-.09-.06-.09-.07,0-.08.08L13,17l-.17-.41a15.59,15.59,0,0,1-.44-1.52c0-.07,0-.17-.14-.14s-.08.1-.06.18A4.66,4.66,0,0,1,12,17.24C12,17.37,12,17.46,12.17,17.47Z"/><path class="cls-2" d="M10.59,17.42c.13.08.27,0,.41,0a.17.17,0,0,0,.14-.16,8.83,8.83,0,0,0,.17-1.45,2,2,0,0,0,0-.35c0-.09,0-.21-.11-.23s-.17.09-.2.2c-.17.6-.28,1.22-.43,1.83C10.55,17.32,10.53,17.38,10.59,17.42Z"/><path class="cls-2" d="M11.43,17.4a.66.66,0,0,0,.34.05c.09,0,.09-.12.09-.21V16.1c0-.2,0-.5-.06-.8,0-.06,0-.14-.1-.13s-.06.09-.06.14a7,7,0,0,1-.24,1.88C11.39,17.26,11.34,17.36,11.43,17.4Z"/><path class="cls-2" d="M13,18.5s-.06,0-.07,0a.07.07,0,0,0,0,.05v0C13,18.61,13.06,18.57,13,18.5Z"/><path class="cls-5" d="M12.59,22.75c-.25-.05-.44-.23-.68-.26a6.41,6.41,0,0,0-.89-.21,5.79,5.79,0,0,1-1.09-.19.21.21,0,0,0-.24.1c-.07.08,0,.16,0,.21a1,1,0,0,1,.16.32c0,.07,0,.2.11.19s.06-.13.07-.21,0-.14.12-.15a.15.15,0,0,1,.16.11c0,.08,0,.16.07.24s.05.22.08.33,0,.15.1.14.05-.1.05-.16a2.8,2.8,0,0,0,0-.29c0-.12-.05-.28.15-.29s.27.08.26.27a1.3,1.3,0,0,0,0,.44s0,.11.08.11.08-.07.09-.12,0-.28.05-.42,0-.15.12-.16.17,0,.21.08h0c.11,0,.11.09.11.18s0,.3,0,.45,0,.11.06.12.08-.07.09-.12,0-.11,0-.16a2.73,2.73,0,0,1,.1-.41.18.18,0,0,1,.19-.11c.09,0,.11.08.11.16a1.69,1.69,0,0,1,0,.23,1.58,1.58,0,0,0,.12.62l0-.11a3.31,3.31,0,0,1,.14-.71C12.71,22.84,12.68,22.76,12.59,22.75Z"/><path class="cls-5" d="M13.27,21.05c0,.3,0,.61,0,.91h0a.41.41,0,0,0,.05-.09,3.76,3.76,0,0,0,.18-1.45,1.4,1.4,0,0,0-.12-.6c0-.07-.08-.18-.2-.15s-.1.14-.09.24A7.08,7.08,0,0,1,13.27,21.05Z"/><path class="cls-5" d="M11.13,23.74l-.88-.16c-.24,0-.48-.18-.71-.21a1.87,1.87,0,0,0-1.18.3.1.1,0,0,1,0,0c.07,0,.13,0,.2,0a2.43,2.43,0,0,1,.71-.09c.27.05.55.11.83.14a6.07,6.07,0,0,0,1.29.14C11.33,23.76,11.23,23.76,11.13,23.74Z"/><path class="cls-5" d="M14.11,22.47a2.82,2.82,0,0,1-.89.21c-.36,0-.44.15-.44.54a.54.54,0,0,0,0,.11c0,.06,0,.17.09.17s.06-.12.07-.18.07-.3.24-.36a3.47,3.47,0,0,1,.46-.13.83.83,0,0,0,.51-.21s.13-.07.11-.14S14.14,22.45,14.11,22.47Z"/><path class="cls-5" d="M13.85,15.06a4,4,0,0,0,.91-.43s.09-.05.06-.11-.08,0-.16-.06a3.55,3.55,0,0,0-.92.37c-.06,0-.11.1-.07.18S13.79,15.08,13.85,15.06Z"/><path class="cls-5" d="M14.38,21.88c0,.06.09.06.19.06a2.18,2.18,0,0,0,.84-.46c.05,0,.11-.07.08-.13s-.12,0-.17,0l-.84.42C14.43,21.79,14.36,21.81,14.38,21.88Z"/><path class="cls-2" d="M13.46,18.78h0a.11.11,0,0,0,.08,0,.63.63,0,0,0,.24-.14l.1-.08,0-.05c.06-.05.1-.1.1-.13s0-.12-.1-.09a1.06,1.06,0,0,0-.49.31.1.1,0,0,0,0,.12S13.45,18.77,13.46,18.78Z"/><path class="cls-2" d="M13.48,18.79a.11.11,0,0,0,.08,0,.63.63,0,0,0,.24-.14.63.63,0,0,1-.24.14A.11.11,0,0,1,13.48,18.79Z"/></g></g></svg>