<svg xmlns="http://www.w3.org/2000/svg" viewBox="0 0 38.12 14.64"><defs><style>.cls-1{fill:#0c0c0c;}.cls-2{fill:#fdfdfd;}.cls-3{fill:#a8a7a7;}</style></defs><g id="Layer_2" data-name="Layer 2"><g id="Layer_4" data-name="Layer 4"><path class="cls-1" d="M20.82,12.61a4.77,4.77,0,0,1,0,1,.25.25,0,0,0,.07.23.32.32,0,0,1-.15.58,3.66,3.66,0,0,1-1.19.06A13.92,13.92,0,0,0,18,14.41a2.78,2.78,0,0,0-.5,0c-.09,0-.16,0-.2.11a.22.22,0,0,1-.27.11.23.23,0,0,1-.21-.23c0-.13,0-.26,0-.39q.06-3.26,0-6.51c0-1-.08-2-.08-3a5.82,5.82,0,0,1,.08-.73,3.31,3.31,0,0,0,0-.77.33.33,0,0,1,0-.22c.28-.52.52-1.06.85-1.55.09-.12.16-.27.34-.3a0,0,0,0,0,0,0c0-.22.2-.17.34-.18a9.87,9.87,0,0,1,1.21.1,22,22,0,0,1,4.12.57l.59.12a3.63,3.63,0,0,1,1.68.79,5.18,5.18,0,0,1,1.9,3.48,2,2,0,0,1-.11.9c-.19.52-.43,1-.64,1.52a6.39,6.39,0,0,1-.77,1.17c-.31.42-.65.8-1,1.2a2.41,2.41,0,0,1-1,.69,8.82,8.82,0,0,1-1.61.49,5.69,5.69,0,0,1-1.7.09c-.12,0-.15,0-.14.13S20.82,12.41,20.82,12.61Zm4.66-2.86,0,0c-.07,0-.1.15-.16.13s-.16,0-.22.07l-.16.1a6.4,6.4,0,0,1-1.05.33,3.72,3.72,0,0,1-.74.14,6.24,6.24,0,0,1-2.32-.06,4.82,4.82,0,0,1,0,.93c0,.09,0,.13.11.14a10.65,10.65,0,0,0,2.52-.22,2.14,2.14,0,0,0,1-.47c.34-.29.62-.64.93-1,0,0,.1-.06.07-.13s0,0,0,0h0v0ZM18.05,1a1.09,1.09,0,0,1,.06.39c0,1,0,2.05,0,3.07,0,2.12-.09,4.25,0,6.37,0,.89,0,1.78.05,2.67,0,.15.06.21.22.21.47,0,.95,0,1.42.07a2.81,2.81,0,0,0,.58,0c.06,0,.11,0,.12-.11,0-.36.06-.72,0-1.08a9.48,9.48,0,0,1,0-1.92c0-.11,0-.23.18-.23s.05,0,0,0c-.07-.23.11-.18.22-.17a2.92,2.92,0,0,0,.66,0,10.53,10.53,0,0,0,2.84-.45,2.46,2.46,0,0,0,1.07-.62,7,7,0,0,0,1.62-2.59,2,2,0,0,0,.1-.64A3.45,3.45,0,0,0,27,4.57a6.47,6.47,0,0,0-.82-1.36A3.11,3.11,0,0,0,24.59,2.1a13.68,13.68,0,0,0-1.79-.42c-1-.16-2-.24-3-.42A13.94,13.94,0,0,0,18.05,1Zm-.28.73h0c-.26.45-.52.9-.79,1.35a.28.28,0,0,0,0,.18A20.29,20.29,0,0,1,17,5.35c0,2.51,0,5,.17,7.53,0,.28,0,.55.05.82,0,.05,0,.11.08.11.32,0,.39-.06.4-.38a.25.25,0,0,0,0-.08c0-1,.06-2.08.06-3.12,0-2.8-.06-5.59,0-8.38Z"/><path class="cls-1" d="M13.41,14.47l-2.53-.16a.49.49,0,0,1-.4-.21,2.81,2.81,0,0,1-.35-.5A2.33,2.33,0,0,1,10,13c0-.06,0-.14-.12-.1A2.92,2.92,0,0,1,8.7,13c-.66-.05-1.33,0-2,0a12.62,12.62,0,0,0-1.38-.08c-.07,0-.11,0-.14.08a3.22,3.22,0,0,1-.5.86c.05.16,0,.2-.17.23a1,1,0,0,1-.34,0,1.15,1.15,0,0,0-.58.07.4.4,0,0,1-.19,0c-.84,0-1.68.06-2.52,0-.25,0-.5,0-.75,0S0,14.16,0,14c0-.32.19-.53.31-.78C.87,12.15,1.41,11,2,9.94,3.34,7.43,4.6,4.88,5.89,2.35,6.24,1.66,6.6,1,7,.31A1.64,1.64,0,0,1,7.1.09c.1-.12.2-.12.27,0a.15.15,0,0,0,.16.07c.61,0,1.22.1,1.83.09h.21c.13,0,.21.08.2.22a.31.31,0,0,0,0,.13c.77,2.15,1.44,4.34,2.14,6.52s1.38,4.34,2.11,6.5a1.38,1.38,0,0,1,.08.27c0,.15.06.26.23.29s.09.09,0,.15a.62.62,0,0,1-.23.07A5.79,5.79,0,0,1,13.41,14.47Zm-3.24-3a.09.09,0,0,0,.1,0c.08,0,.16,0,.18.14a.06.06,0,0,0,0,.07v.06c.16.65.42,1.27.62,1.91v.06a.12.12,0,0,0,0,.1v.1c-.1.19-.15,0-.17,0a5.32,5.32,0,0,1-.45-.93c-.07-.2-.13-.41-.21-.66,0,.13-.06.22-.09.31a.47.47,0,0,0,0,.4,3.05,3.05,0,0,1,.35,1c0,.06,0,.09.09.09h.58a.62.62,0,0,0,.3,0h.13a1.14,1.14,0,0,0,.41,0h.09a.8.8,0,0,0,.31,0h.09a5.06,5.06,0,0,0,1.1,0c.12,0,.13,0,.08-.15-.29-.72-.6-1.43-.84-2.17-.55-1.74-1.07-3.48-1.63-5.22-.4-1.25-.85-2.48-1.22-3.74-.2-.67-.35-1.36-.58-2,0-.08,0-.14-.15-.13A15.84,15.84,0,0,1,7.67.58c-.14,0-.3-.14-.41-.06a1.06,1.06,0,0,0-.2.38c-1,2-2,4-3.07,6.05,0,0-.07.1-.07.16v0c-.06,0-.08.12-.11.18-1,2.08-2,4.17-3.1,6.22,0,.09-.09.18-.13.27s0,.11.06.11a1.75,1.75,0,0,0,.4,0h.5a1.49,1.49,0,0,0,.47,0h.1a1.78,1.78,0,0,0,.46,0h.6c.15,0,.24,0,.17-.17s0-.2.09-.29c.35-.62.68-1.26,1-1.9a1,1,0,0,1,.56,0s0,0,.06,0h.13a.09.09,0,0,0,.11,0l.19,0a0,0,0,0,0,.07,0H5.7a1.5,1.5,0,0,0,.47,0H7.83a1.82,1.82,0,0,0,.57,0h.37a8.35,8.35,0,0,0,1,0h.1a.36.36,0,0,0,.23,0Zm-2.67.16H5c-.19,0-.22,0-.13.22a5.23,5.23,0,0,1,.34.72s0,.08.09.07a5.54,5.54,0,0,1,1.35,0c.67,0,1.33-.05,2,0,.37,0,.75,0,1.12,0,.11,0,.16,0,.18-.14a5.49,5.49,0,0,1,.17-.7c0-.1,0-.11-.09-.11A21.4,21.4,0,0,1,7.5,11.62ZM4.67,12l-.06.06c-.24.52-.51,1-.73,1.55a.32.32,0,0,1-.09.16s-.08,0,0,.09.07,0,.11,0a1.84,1.84,0,0,1,.41,0c.15,0,.29,0,.24-.2,0,0,0-.06,0-.09a2.42,2.42,0,0,1,.29-.73c0-.05.07-.11,0-.17C4.81,12.45,4.74,12.25,4.67,12Z"/><path class="cls-1" d="M28.19,6.57c-.28-.09-.17-.33-.21-.51-.15-.66-.18-1.33-.27-2a.66.66,0,0,1,.21-.65c.48-.45.93-.93,1.42-1.37a.6.6,0,0,1,.6-.17,14.12,14.12,0,0,0,2.83.33l4.1.35a.62.62,0,0,0,.33,0,.36.36,0,0,1,.49.3,13,13,0,0,0,.25,1.86,1.23,1.23,0,0,1,0,.27c0,.11-.06.23.12.26s0,.06,0,.11a.67.67,0,0,1-.21.2L35.75,6.94c-.07,0-.11.09-.09.18.38,1.86.6,3.74.89,5.62.06.35.11.71.16,1.07a.28.28,0,0,0,.06.15s.14.08.13.13-.09.19-.13.29a.09.09,0,0,1-.11,0c-.5,0-1,.05-1.51.08a1.57,1.57,0,0,1-.75,0,1.8,1.8,0,0,0-.64-.09l-1.26-.12a.25.25,0,0,0-.25.09.27.27,0,0,1-.38,0A.3.3,0,0,1,31.8,14a.33.33,0,0,0,0-.17c-.15-1.11-.32-2.21-.51-3.31S31,8.61,30.92,7.65a7.3,7.3,0,0,1-.1-.94c0-.08,0-.12-.13-.11a8.7,8.7,0,0,1-1.84-.09l-.54,0C28.23,6.48,28.18,6.5,28.19,6.57Zm1.8-2s0,.1,0,.14l-.6.54a9.24,9.24,0,0,0-.88.89s-.07,0,0,.09.05,0,.09,0c.24,0,.48,0,.72.08a7.66,7.66,0,0,0,1.51.15A.26.26,0,0,0,31,6.41a9.16,9.16,0,0,1,1.35-1.14s.11-.06.12-.13a.83.83,0,0,0-.27,0c-.68-.08-1.33-.31-2-.43-.05,0-.1,0-.1-.09a.59.59,0,0,1,.37,0l2,.35c.11,0,.23.07.34,0s.07,0,.07,0,.25.16.27.35c.07.55.17,1.1.24,1.65.12.91.16,1.83.35,2.73.3,1.43.51,2.88.77,4.31,0,.1.06.1.14.09.53-.06,1.07-.11,1.61-.12.12,0,.16-.05.14-.16s-.07-.45-.11-.68c-.15-.7-.16-1.42-.29-2.12-.34-1.86-.66-3.72-.93-5.59,0-.06,0-.13-.06-.18S34.93,5,35.06,5a.88.88,0,0,1,.36,0l2,.17c.12,0,.16,0,.11-.13a5.34,5.34,0,0,1-.41-1.84c0-.15-.06-.21-.22-.22-1.76-.16-3.53-.32-5.29-.5a15,15,0,0,1-1.64-.22c-.29-.07-.28-.07-.23.21A17.82,17.82,0,0,1,30,4.58Zm4.07,9.56a10.36,10.36,0,0,1-.1-1.23c0-.14,0-.27,0-.41a39.24,39.24,0,0,0-.64-4.17,24,24,0,0,1-.44-3.16l0,0s-.05,0-.07.06a11.67,11.67,0,0,1-1.32,1.12c-.23.15-.34.3-.21.57a.66.66,0,0,1,0,.15c.13.93.29,1.86.41,2.8.15,1.25.29,2.49.48,3.74,0,.36,0,.36.42.38h.09A5.78,5.78,0,0,1,34.06,14.14ZM29.44,2.36c-.06,0-.07.05-.09.07A15.36,15.36,0,0,1,28,3.67a.19.19,0,0,0-.07.21,8.59,8.59,0,0,1,.18,1.44c0,.25,0,.51.07.76.1-.15.24-.26.34-.39A13.94,13.94,0,0,1,29.67,4.5c.06-.06.09-.09.07-.17a6.18,6.18,0,0,1-.2-.93C29.5,3.05,29.47,2.71,29.44,2.36Zm8.1,3h-.33c-.6,0-1.2-.07-1.79-.13-.12,0-.17,0-.14.14.1.43.22.85.28,1.28a.13.13,0,0,0,0,.09s.06,0,.09-.06a2.5,2.5,0,0,1,.47-.39C36.61,6,37.06,5.64,37.54,5.35Z"/><path class="cls-2" d="M18.05,1a13.94,13.94,0,0,1,1.75.22c1,.18,2,.26,3,.42a13.68,13.68,0,0,1,1.79.42,3.11,3.11,0,0,1,1.56,1.11A6.47,6.47,0,0,1,27,4.57,3.45,3.45,0,0,1,27.27,6a2,2,0,0,1-.1.64,7,7,0,0,1-1.62,2.59,2.46,2.46,0,0,1-1.07.62,10.53,10.53,0,0,1-2.84.45,2.92,2.92,0,0,1-.66,0c-.11,0-.29-.06-.22.17,0,0,0,0,0,0s-.16.12-.18.23a9.48,9.48,0,0,0,0,1.92c0,.36,0,.72,0,1.08,0,.08-.06.1-.12.11a2.81,2.81,0,0,1-.58,0c-.47,0-.95-.06-1.42-.07-.16,0-.21-.06-.22-.21-.05-.89,0-1.78-.05-2.67-.06-2.12,0-4.25,0-6.37,0-1,0-2,0-3.07A1.09,1.09,0,0,0,18.05,1Zm2.39,4.69q0,.61-.06,1.26a.55.55,0,0,0,.06.4c.09.12.21,0,.32.06a12.53,12.53,0,0,0,1.5,0,5.61,5.61,0,0,0,1.35-.17,1.42,1.42,0,0,0,1-.92,1.82,1.82,0,0,0-.8-2,2.53,2.53,0,0,0-.64-.21c-.73-.1-1.45-.31-2.2-.34-.48,0-.53.08-.54.48S20.44,5.24,20.44,5.73Z"/><path class="cls-2" d="M17.77,1.77v.08c0,2.79,0,5.58,0,8.38,0,1,0,2.08-.06,3.12a.25.25,0,0,1,0,.08c0,.32-.08.37-.4.38-.09,0-.08-.06-.08-.11,0-.27,0-.54-.05-.82-.12-2.5-.16-5-.17-7.53a20.29,20.29,0,0,0-.1-2.06.28.28,0,0,1,0-.18c.27-.45.53-.9.79-1.35Z"/><path class="cls-3" d="M25.45,9.79c0,.07,0,.09-.07.13-.31.32-.59.67-.93,1a2.14,2.14,0,0,1-1,.47,10.65,10.65,0,0,1-2.52.22c-.11,0-.11-.05-.11-.14a4.82,4.82,0,0,0,0-.93,6.24,6.24,0,0,0,2.32.06,3.72,3.72,0,0,0,.74-.14,6.4,6.4,0,0,0,1.05-.33l.16-.1c.06,0,.1-.13.22-.07s.09-.1.16-.13Z"/><path class="cls-3" d="M25.48,9.75s0,0,0,0h0l0,0Z"/><path class="cls-3" d="M25.48,9.75h0v0Z"/><path class="cls-2" d="M5.16,11.45H5s0-.05,0,0,0,0,0,0a1,1,0,0,0-.56,0c-.1,0-.1.08-.13.13-.22.43-.45.84-.65,1.27s-.42.51-.4.87c0,0,0,.06-.07.09h-.6a.61.61,0,0,0-.46,0H2a.64.64,0,0,0-.47,0H1a.15.15,0,0,0-.09,0c-.34,0-.34,0-.18-.33l.86-1.67c.76-1.48,1.46-3,2.19-4.46,0-.08.12-.16.1-.27v0C4,7.11,4,7.05,4,7c.54-1.09,1.1-2.16,1.66-3.23s1-2.09,1.56-3.14c0-.05,0-.12.12-.09a2.55,2.55,0,0,0,.72.14A9.26,9.26,0,0,0,9.25.8c.16,0,.21.06.25.19.38,1.31.73,2.63,1.18,3.92s.79,2.48,1.21,3.71c.35,1,.6,2.12,1,3.17.25.74.57,1.47.86,2.2,0,.11,0,.15-.1.15h-.48a1.9,1.9,0,0,0-.53,0h-.09a.29.29,0,0,0-.31,0h-.09a.53.53,0,0,0-.41,0h-.13a.27.27,0,0,0-.3,0h-.1l0-.14v-.1s0-.08,0-.1v-.06s0,0,0-.05c-.16-.62-.4-1.23-.6-1.84l0,0v-.06s0-.06,0-.07-.1-.12-.18-.14-.06-.06-.1,0H10.1c-.07-.08-.15-.06-.23,0h-.1s0,0,0,0a5.24,5.24,0,0,0-1,0H8.4a1,1,0,0,0-.57,0H7.64s-.06,0-.1,0h-1a.09.09,0,0,0-.09,0H6.17a.64.64,0,0,0-.47,0H5.53s0,0-.07,0l-.19,0S5.19,11.4,5.16,11.45ZM8.38,6l0,.07.63,1.55a1.69,1.69,0,0,1,0,.24c0,.18.11.27.23.24s.16-.16.11-.32a.14.14,0,0,0,0-.06l-.9-2.23c-.12-.29-.26-.59-.38-.88,0,0,0-.09-.09-.09A.06.06,0,0,0,8,4.55,1.16,1.16,0,0,1,7.73,5C7.19,6,6.67,7,6.17,8a.1.1,0,0,0,0,.11,11,11,0,0,1,3.12.19A.34.34,0,0,0,9,8.08a4.5,4.5,0,0,0-1-.12l-.6-.06A6.91,6.91,0,0,0,8.38,6Z"/><path class="cls-3" d="M7.5,11.62a21.4,21.4,0,0,0,2.53.09c.1,0,.12,0,.09.11a5.49,5.49,0,0,0-.17.7c0,.12-.07.15-.18.14-.37,0-.75,0-1.12,0-.67-.05-1.33,0-2,0a5.54,5.54,0,0,0-1.35,0c-.06,0-.07,0-.09-.07a5.23,5.23,0,0,0-.34-.72c-.09-.18-.06-.22.13-.22Z"/><path class="cls-3" d="M12.6,14.16a1.9,1.9,0,0,1,.53,0h.48c.13,0,.14,0,.1-.15-.29-.73-.61-1.46-.86-2.2-.36-1-.61-2.13-1-3.17-.42-1.23-.77-2.49-1.21-3.71S9.88,2.3,9.5,1c0-.13-.09-.2-.25-.19A9.26,9.26,0,0,1,8.08.69,2.55,2.55,0,0,1,7.36.55c-.09,0-.1,0-.12.09-.52,1-1,2.1-1.56,3.14S4.56,5.92,4,7c0,0,0,.1-.1.1S4,7,4,7c1-2,2.09-4,3.07-6a1.06,1.06,0,0,1,.2-.38c.11-.08.27,0,.41.06A15.84,15.84,0,0,0,9.36.74c.1,0,.12.05.15.13.23.67.38,1.36.58,2,.37,1.26.82,2.49,1.22,3.74.56,1.74,1.08,3.48,1.63,5.22.24.74.55,1.45.84,2.17.05.11,0,.15-.08.15A5.06,5.06,0,0,1,12.6,14.16Z"/><path class="cls-3" d="M4.67,12c.07.23.14.43.2.64,0,.06,0,.12,0,.17a2.42,2.42,0,0,0-.29.73s0,.06,0,.09c0,.23-.09.21-.24.2a1.84,1.84,0,0,0-.41,0s-.09,0-.11,0,0-.07,0-.09a.32.32,0,0,0,.09-.16c.22-.53.49-1,.73-1.55Z"/><path class="cls-3" d="M3.91,7.14c0,.11-.06.19-.1.27-.73,1.49-1.43,3-2.19,4.46L.76,13.54c-.16.31-.16.31.18.33a.15.15,0,0,1,.09,0,1.75,1.75,0,0,1-.4,0c-.08,0-.09,0-.06-.11s.08-.18.13-.27c1.07-2,2.09-4.14,3.1-6.22C3.83,7.26,3.85,7.18,3.91,7.14Z"/><path class="cls-3" d="M11.13,13.92l0,.14h-.48c-.07,0-.08,0-.09-.09a3.05,3.05,0,0,0-.35-1,.47.47,0,0,1,0-.4c0-.09,0-.18.09-.31.08.25.14.46.21.66a5.32,5.32,0,0,0,.45.93S11,14.11,11.13,13.92Z"/><path class="cls-3" d="M3.16,13.82s.07-.06.07-.09c0-.36.27-.58.4-.87s.43-.84.65-1.27c0-.05,0-.13.13-.13-.31.64-.64,1.28-1,1.9-.06.09-.13.19-.09.29S3.31,13.86,3.16,13.82Z"/><path class="cls-3" d="M10.48,11.75l0,0c.2.61.44,1.22.6,1.84,0,0,0,0,0,.05C10.9,13,10.64,12.4,10.48,11.75Z"/><path class="cls-3" d="M6.4,11.35a.09.09,0,0,1,.09,0h1s.08,0,.1,0Z"/><path class="cls-3" d="M8.77,11.39a5.24,5.24,0,0,1,1,0s0,0,0,0A8.35,8.35,0,0,1,8.77,11.39Z"/><path class="cls-3" d="M7.83,11.36a1,1,0,0,1,.57,0A1.82,1.82,0,0,1,7.83,11.36Z"/><path class="cls-3" d="M5.7,11.38a.64.64,0,0,1,.47,0A1.5,1.5,0,0,1,5.7,11.38Z"/><path class="cls-3" d="M2.1,13.85a.61.61,0,0,1,.46,0A1.78,1.78,0,0,1,2.1,13.85Z"/><path class="cls-3" d="M11.7,14.09a.53.53,0,0,1,.41,0A1.14,1.14,0,0,1,11.7,14.09Z"/><path class="cls-3" d="M11.27,14.06a.27.27,0,0,1,.3,0A.62.62,0,0,1,11.27,14.06Z"/><path class="cls-3" d="M12.2,14.13a.29.29,0,0,1,.31,0A.8.8,0,0,1,12.2,14.13Z"/><path class="cls-3" d="M9.87,11.42c.08,0,.16-.05.23,0A.36.36,0,0,1,9.87,11.42Z"/><path class="cls-3" d="M5.16,11.45s.06-.06.11,0A.09.09,0,0,1,5.16,11.45Z"/><path class="cls-3" d="M10.17,11.46s.08,0,.1,0A.09.09,0,0,1,10.17,11.46Z"/><path class="cls-3" d="M11.11,13.72c.05,0,.06.06,0,.1A.12.12,0,0,1,11.11,13.72Z"/><path class="cls-3" d="M5,11.45s0,0,0,0,0,0,0,0S5,11.48,5,11.45Z"/><path class="cls-3" d="M10.45,11.62s.05,0,0,.07A.06.06,0,0,1,10.45,11.62Z"/><path class="cls-3" d="M5.46,11.4s0-.05.07,0A0,0,0,0,1,5.46,11.4Z"/><path class="cls-2" d="M30,4.58A17.82,17.82,0,0,0,29.7,2.4c-.05-.28-.06-.28.23-.21a15,15,0,0,0,1.64.22c1.76.18,3.53.34,5.29.5.16,0,.21.07.22.22A5.34,5.34,0,0,0,37.49,5c0,.12,0,.14-.11.13l-2-.17a.88.88,0,0,0-.36,0c-.13,0-.16.14-.05.23s.05.12.06.18c.27,1.87.59,3.73.93,5.59.13.7.14,1.42.29,2.12,0,.23.07.45.11.68s0,.15-.14.16c-.54,0-1.08.06-1.61.12-.08,0-.12,0-.14-.09-.26-1.43-.47-2.88-.77-4.31-.19-.9-.23-1.82-.35-2.73-.07-.55-.17-1.1-.24-1.65,0-.19-.19-.22-.27-.35s-.06,0-.07,0-.23,0-.34,0l-2-.35a.59.59,0,0,0-.37,0Z"/><path class="cls-2" d="M34.06,14.14A5.78,5.78,0,0,0,32.64,14h-.09c-.37,0-.37,0-.42-.38-.19-1.25-.33-2.49-.48-3.74-.12-.94-.28-1.87-.41-2.8a.66.66,0,0,0,0-.15c-.13-.27,0-.42.21-.57a11.67,11.67,0,0,0,1.32-1.12s0,0,.07-.06l0,0a24,24,0,0,0,.44,3.16,39.24,39.24,0,0,1,.64,4.17c0,.14,0,.27,0,.41A10.36,10.36,0,0,0,34.06,14.14Z"/><path class="cls-3" d="M30,4.58h.07c0,.06.05.08.1.09.67.12,1.32.35,2,.43a.83.83,0,0,1,.27,0c0,.07-.07.09-.12.13A9.16,9.16,0,0,0,31,6.41a.26.26,0,0,1-.21.08,7.66,7.66,0,0,1-1.51-.15c-.24,0-.48-.06-.72-.08,0,0-.08,0-.09,0s0-.07,0-.09a9.24,9.24,0,0,1,.88-.89l.6-.54S30,4.62,30,4.58Z"/><path class="cls-2" d="M29.44,2.36c0,.35.06.69.1,1a6.18,6.18,0,0,0,.2.93c0,.08,0,.11-.07.17a13.94,13.94,0,0,0-1.11,1.19c-.1.13-.24.24-.34.39,0-.25-.06-.51-.07-.76A8.59,8.59,0,0,0,28,3.88.19.19,0,0,1,28,3.67a15.36,15.36,0,0,0,1.31-1.24S29.38,2.36,29.44,2.36Z"/><path class="cls-3" d="M37.54,5.35c-.48.29-.93.62-1.38.93a2.5,2.5,0,0,0-.47.39s0,.08-.09.06a.13.13,0,0,1,0-.09c-.06-.43-.18-.85-.28-1.28,0-.14,0-.15.14-.14.59.06,1.19.11,1.79.13Z"/><path class="cls-1" d="M20.44,5.73c0-.49,0-1,0-1.42s.06-.49.54-.48c.75,0,1.47.24,2.2.34a2.53,2.53,0,0,1,.64.21,1.82,1.82,0,0,1,.8,2,1.42,1.42,0,0,1-1,.92,5.61,5.61,0,0,1-1.35.17,12.53,12.53,0,0,1-1.5,0c-.11,0-.23.06-.32-.06a.55.55,0,0,1-.06-.4Q20.41,6.34,20.44,5.73Zm1,0a2.37,2.37,0,0,1,1.05.17A1,1,0,0,1,23.07,7c0,.07,0,.09.08.08a1,1,0,0,0,.92-.88,1.65,1.65,0,0,0-.42-1.16L23.54,5a6.43,6.43,0,0,0-2.73-.89c-.11,0-.13,0-.12.13,0,.48.1,1,.11,1.44,0,.08,0,.1.1.09ZM22,7.13h.53c.09,0,.13,0,.13-.11a.72.72,0,0,0-.56-.83,4.57,4.57,0,0,0-1.22-.14c-.09,0-.11,0-.11.12s0,.46,0,.7S20.87,7,21,7C21.32,7.07,21.68,7.09,22,7.13Z"/><path class="cls-1" d="M8.43,6l.63,1.55a1.69,1.69,0,0,1,0,.24c0,.18.11.27.23.24s.16-.16.11-.32a.14.14,0,0,0,0-.06l-.9-2.23c-.12-.29-.26-.59-.38-.88,0,0,0-.09-.09-.09A.06.06,0,0,0,8,4.55,1.16,1.16,0,0,1,7.73,5C7.19,6,6.67,7,6.17,8a.1.1,0,0,0,0,.11,11,11,0,0,1,3.12.19A.34.34,0,0,0,9,8.08a4.5,4.5,0,0,0-1-.12l-.6-.06A6.91,6.91,0,0,0,8.38,6Zm-.17-.18c-.07,0-.09.08-.12.15-.21.53-.48,1-.71,1.58,0,0,0,.06,0,.09,0,.23-.14.24-.32.23-.36,0-.36,0-.21-.32C7.25,6.81,7.62,6,8,5.22a.26.26,0,0,1,.1-.15l.24.67C8.34,5.8,8.35,5.84,8.26,5.86Z"/><path class="cls-3" d="M21.4,5.71l-.5,0c-.07,0-.1,0-.1-.09,0-.48-.08-1-.11-1.44,0-.1,0-.15.12-.13A6.43,6.43,0,0,1,23.54,5l.11.08a1.65,1.65,0,0,1,.42,1.16,1,1,0,0,1-.92.88c-.07,0-.09,0-.08-.08a1,1,0,0,0-.62-1.13A2.37,2.37,0,0,0,21.4,5.71Z"/><path class="cls-3" d="M8.08,5.07l.24.67c0,.06,0,.1-.06.12s-.09.08-.12.15c-.21.53-.48,1-.71,1.58,0,0,0,.06,0,.09,0,.23-.14.24-.32.23-.36,0-.36,0-.21-.32C7.25,6.81,7.62,6,8,5.22A.26.26,0,0,1,8.08,5.07Z"/></g></g></svg>