<svg xmlns="http://www.w3.org/2000/svg" viewBox="0 0 35.86 40"><defs><style>.cls-1{fill:#fff;}.cls-2{fill:#adacac;}.cls-3{fill:#666;}</style></defs><g id="Layer_2" data-name="Layer 2"><g id="Layer_4" data-name="Layer 4"><g id="Layer_2-2" data-name="Layer 2"><g id="Layer_3" data-name="Layer 3"><path class="cls-1" d="M10,18.9A21.63,21.63,0,0,0,5.14,20a1.59,1.59,0,0,0-1.08,1.47,12,12,0,0,0,.32,2.73c.08.39.17.8.25,1.21a3.41,3.41,0,0,0,.1.54c.07.37,0-.29,0,0A1.14,1.14,0,0,1,5.3,25l.76-.2H6a1.52,1.52,0,0,0,0,3l1.88-.06a5.09,5.09,0,0,0,2-.39,2.39,2.39,0,0,0,1-.85,2.62,2.62,0,0,0,.28-1.17c.06-.53.14-1.07.18-1.61a4,4,0,0,0-.18-1.68c-.33-.94-1.17-1.9-2.3-1.6-.68.18-1.12.84-1.55,1.36a15.1,15.1,0,0,0-1.19,1.6,1.53,1.53,0,0,0,.54,2.08A1.57,1.57,0,0,0,8.74,25l.39-.61a2,2,0,0,1,.22-.29l-.1.13A1,1,0,0,1,9.38,24a9.47,9.47,0,0,1,.88-1l-.67.4H8.94L8.27,23a.57.57,0,0,0,.11.1s-.2-.31-.07-.07h0a.45.45,0,0,0,0,.21c.06.06,0-.36,0-.15v.36a15,15,0,0,1-.19,1.77V25.2a.34.34,0,0,1,0-.2.79.79,0,0,1,.27-.33h0s.31-.1.05,0H8.3a.65.65,0,0,0-.6.71A.66.66,0,0,0,9,25.27a.65.65,0,0,0-.6-.6,1.62,1.62,0,0,0-.44,0l-2,.06v3A1.75,1.75,0,0,0,7.42,27a2.12,2.12,0,0,0,.31-1.09,8.77,8.77,0,0,0-.28-1.69c-.1-.5-.21-1-.29-1.48a1.31,1.31,0,0,1-.06-.27v-.1a5.08,5.08,0,0,1,0-.78L6,23a20.33,20.33,0,0,1,2.13-.69l1-.23L9.67,22,10,22c.09,0,.44-.06,0,0A1.7,1.7,0,0,0,11,21.51a1.51,1.51,0,0,0,0-2.15A1.44,1.44,0,0,0,10,18.92Z"/><path class="cls-1" d="M1.63,30.58a35.27,35.27,0,0,0,5.14-.27A28.74,28.74,0,0,1,11.84,30l-.77-.22.1.06-.54-.54v.08l-.21-.77c.09,1.43,0,2.89,0,4.32v4.42l1.52-1.52-5.22-.3c-.83,0-1.68-.13-2.52-.11a17.59,17.59,0,0,1-2.4.16l.78.22H2.49l.55.54c.09.17.12.6.12.2V36L3,35.19v-.91a1.46,1.46,0,0,1,.12-.39,11,11,0,0,0,.32-3.38l-2.84.77A22.8,22.8,0,0,1,2,33.3,8.83,8.83,0,0,0,3.2,35.51a3,3,0,0,0,2.74.61c.5-.07-.27,0,.25,0a2.18,2.18,0,0,1,.51,0c-.2,0,.24.06.28.07a1.28,1.28,0,0,1,.41.19,1.53,1.53,0,0,0,2.09-.57,1.51,1.51,0,0,0,.2-.8A5.07,5.07,0,0,0,7.52,31.1c-1.14-.8-3.39-1.42-4.25.09-.76,1.33-1.14,4.22,1.09,4.24.91,0,1.54-.76,2.13-1.34l1.62-1.62a1.52,1.52,0,0,0-.3-2.13,1.55,1.55,0,0,0-1.83,0L4.71,31.58l-.59.59-.31.28-.14.15c-.26.24-.06.17.6-.22l1.07.45-.07-.06.39.67c0,.16-.07.61,0,.24a2.49,2.49,0,0,1,.09-.46,2.63,2.63,0,0,1,.1-.36c.08-.29.24-.37-.13,0l-.65.43H5a2.62,2.62,0,0,1,.48.13,2,2,0,0,1,.57.33,1.48,1.48,0,0,1,.47.63,2.18,2.18,0,0,1,.16.62l2.29-1.32A5.42,5.42,0,0,0,6.53,33a7.72,7.72,0,0,0-1.17.11H5.13l.12.08c.13,0,.06.08,0-.08s-.16-.32-.24-.49c-.16-.34-.35-.68-.54-1a19.6,19.6,0,0,0-1.24-1.92A1.57,1.57,0,0,0,1.52,29,1.53,1.53,0,0,0,.41,30.44v1.73s-.07.45,0,.29A9.27,9.27,0,0,0,0,34.72a19,19,0,0,0,.18,2.37c.14,1.16,1.13,1.58,2.19,1.52.74,0,1.47-.18,2.22-.17s1.64.12,2.45.12l4.94.27a1.54,1.54,0,0,0,1.53-1.52V29.5a4.48,4.48,0,0,0-.15-1.5,1.65,1.65,0,0,0-1.52-1.06,28.38,28.38,0,0,0-5,.32,35.25,35.25,0,0,1-5.24.27,1.53,1.53,0,0,0,0,3Z"/><path class="cls-1" d="M30.61,10.25a18.27,18.27,0,0,0-3,.36,4.54,4.54,0,0,0-1.29.47,2.3,2.3,0,0,0-.89,1,1.54,1.54,0,0,0,0,1.08,1.4,1.4,0,0,1,.06.28l-.06-.4a4.59,4.59,0,0,0,.5,2.44l.54-2.08-.23.11a1.7,1.7,0,0,0-.55.55,1.49,1.49,0,0,0-.17,1,1.54,1.54,0,0,0,1,1.17c1.37.23,2.74.54,4.06.88a1.51,1.51,0,0,0,1.87-1.05,1.53,1.53,0,0,0-.69-1.73l-.11,0,.31.24-.12-.13.24.31L32,14.57l.15.35-.06-.23.06.4a3.78,3.78,0,0,0-.41-1.71,2.13,2.13,0,0,0-1.11-.87,2.52,2.52,0,0,0-.82-.08l.4.05h0l.37.15h0l.3.23h0l.25.31v-.06l.15.36a1.4,1.4,0,0,1-.06-.28l.06.4a9.1,9.1,0,0,0-.19-2,2.22,2.22,0,0,0-1-1.25,1.89,1.89,0,0,0-1.34-.15,2.17,2.17,0,0,0-.88.51l.31-.24a3.15,3.15,0,0,1-.61.36l.36-.15a3.71,3.71,0,0,1-.74.22l.41-.07H27a1.54,1.54,0,0,0-1.52,1.53A1.56,1.56,0,0,0,27,13.85a4.26,4.26,0,0,0,1.36-.26,5,5,0,0,0,1.52-.86l-.3.24.1-.07-.37.16h-.23L28.7,13h.05l-.36-.11.09,0-.3-.23.12.12-.24-.3.1.16L28,12.32a1.39,1.39,0,0,1,.09.35L28,12.26a3.86,3.86,0,0,1,0,.68,7,7,0,0,0,.09,1,1.81,1.81,0,0,0,.66,1.17,1.74,1.74,0,0,0,1,.37h.3l-.4-.05h.11l-.37-.15.11.07-.32-.25.17.12-.24-.31.1.15-.16-.36a1.38,1.38,0,0,1,.08.27l-.06-.4a6.37,6.37,0,0,0,.16,1.15,2.11,2.11,0,0,0,1,1.28l1.13-2.8c-1.35-.35-2.72-.65-4.05-.89l.36,2.79L28,16a1.56,1.56,0,0,0,.7-.91,1.42,1.42,0,0,0-.15-1.17,1.17,1.17,0,0,1-.15-.27l.15.37a2,2,0,0,1-.08-.35v.41a8.24,8.24,0,0,0-.19-1.85l-.39,1.48.17-.18-.3.25a1.55,1.55,0,0,1,.32-.2l-.36.16a8.38,8.38,0,0,1,1.84-.39h-.39q.72-.09,1.44-.12a1.54,1.54,0,0,0,1.52-1.52,1.54,1.54,0,0,0-1.52-1.52Z"/><path class="cls-1" d="M17.79,19.45a14,14,0,0,0,1.95-.2c.33-.05-.29,0,.06,0H21c1.13-.1,2.27-.33,3.39-.52l-1.87-1.06c-.07-.42,0,0,0,.16v.34a4.82,4.82,0,0,0,0,.76,14.16,14.16,0,0,0,.14,1.55L24.59,19c-2-.57-4.14-1.16-6.23-1.66l-.52,3a4.69,4.69,0,0,0,1.35-.13l.3-.06h0a2.17,2.17,0,0,0,.51,0,8.68,8.68,0,0,1,1,0c.21,0-.29-.05-.07,0l.28.05.56.15a1.52,1.52,0,0,0,.81-2.93,8.16,8.16,0,0,0-2.5-.34,12.46,12.46,0,0,0-1.37.14,2.36,2.36,0,0,1-.59.11h-.29a1.5,1.5,0,0,0-1.49,1.32,1.53,1.53,0,0,0,1.09,1.68c2.09.49,4.16,1.07,6.22,1.65A1.51,1.51,0,0,0,25,21.67a1.38,1.38,0,0,0,.6-1.19,11.78,11.78,0,0,1-.14-1.68,7.38,7.38,0,0,1,.07-.81,4.27,4.27,0,0,0-.06-1.13,1.51,1.51,0,0,0-.7-.9,1.78,1.78,0,0,0-1.18-.16l-1.52.25-.75.12h-.09a1,1,0,0,1-.34,0,14.3,14.3,0,0,0-1.84.17l-.34.05c-.41.06.33,0-.07,0a7.89,7.89,0,0,1-.84.05,1.52,1.52,0,0,0,0,3Z"/></g><g id="Layer_1-2" data-name="Layer 1-2"><path class="cls-2" d="M31.13,13c.19.07-.11,0-.16-.07.22.1-.14-.07-.11-.1l.1.11s-.23-.34-.08-.08h0s.05.27.07.4l-.05-.41c.16,1.29.2,2.6.29,3.89a1.52,1.52,0,1,0,3,0c-.08-1.11-.16-2.21-.23-3.32a5.25,5.25,0,0,0-.44-2,2.73,2.73,0,0,0-1.62-1.32,1.5,1.5,0,1,0-.81,2.89Z"/><polygon class="cls-2" points="12.73 32.08 11.63 29.33 9.5 27.71 11.13 26.66 31.79 31.58 12.73 32.08"/><path d="M12.48,32.47l-1.17-2.9L8.83,27.68l2.23-1.43,23.66,5.64Zm-2.31-4.74,1.77,1.36L13,31.69l15.87-.42L11.2,27.07Z"/><path class="cls-3" d="M31.79,2.57a1.63,1.63,0,0,0,1.49,0,.39.39,0,0,0-.3-.71l-.09,0h0a.89.89,0,0,1-.31.08h.1a2,2,0,0,1-.35,0h.11a1.11,1.11,0,0,1-.3-.08h0a.37.37,0,0,0-.29,0,.38.38,0,0,0-.1.69h0Z"/><path class="cls-3" d="M32.13,2.59a1.58,1.58,0,0,0,.75,0,1.6,1.6,0,0,0,.58-.42.4.4,0,0,0,0-.54.4.4,0,0,0-.54,0,.52.52,0,0,1-.11.1l.08-.06a1.28,1.28,0,0,1-.25.15h.09a1,1,0,0,1-.3.08h.11a1.71,1.71,0,0,1-.32,0h.07a.48.48,0,0,0-.29,0,.46.46,0,0,0-.17.24.37.37,0,0,0,0,.29.41.41,0,0,0,.22.17Z"/><path class="cls-3" d="M33.58,2.27a.39.39,0,0,0,.32-.44.33.33,0,1,0-.64.12A.41.41,0,0,0,33.58,2.27Z"/><path class="cls-3" d="M33.22,2.27a.38.38,0,0,0,.31-.44.36.36,0,0,0-.31-.32.38.38,0,0,0,0,.76Z"/><path d="M33.22,2.27a.61.61,0,0,0,.62-.59.64.64,0,0,0,0-.2.38.38,0,0,0-.46-.27.4.4,0,0,0-.27.47h0A10,10,0,0,1,33,3.5a2.37,2.37,0,0,0,.5,1.4.8.8,0,0,1,.18.74,9.88,9.88,0,0,1-.11,1c-.1.72-.22,1.44-.38,2.15l-.1.34c0,.11-.08.19,0,0l-.29.39-.16.24a.69.69,0,0,1-.11.13c-.07.05,0,.05.1,0a.39.39,0,0,0-.47.27.37.37,0,0,0,.27.46c.46.12.76-.31,1-.65a2.41,2.41,0,0,0,.38-.66,12.7,12.7,0,0,0,.43-2.21,5.74,5.74,0,0,0,.19-2,1.62,1.62,0,0,0-.35-.66,1.62,1.62,0,0,1-.32-.91,11.47,11.47,0,0,0,0-2l-.73.2.14-.17c-.49,0-.5.79,0,.76Z"/><path d="M33.46,5.15a.55.55,0,0,0,.37-.68.53.53,0,0,0-.13-.23c-.25-.26-.77,0-.64.37a1.27,1.27,0,0,1-.37,1.44H33c-.43-.13-.86-.3-1.3-.45a6.66,6.66,0,0,0-1.4-.27l.36.27a3,3,0,0,1,0-1.84,1.15,1.15,0,0,0,0-.89,2.86,2.86,0,0,1-.33-.59A.39.39,0,0,0,29.83,2a.38.38,0,0,0-.26.47,1.89,1.89,0,0,0,.34.66.29.29,0,0,1,.07.25,3.45,3.45,0,0,1-.12.46,3.77,3.77,0,0,0,.11,2,.41.41,0,0,0,.37.28,5.12,5.12,0,0,1,1.09.21c.41.14.8.31,1.21.42s.5-.09.7-.31a2.31,2.31,0,0,0,.38-.64,2,2,0,0,0,0-1.36l-.63.37h0L33,4.59h0l.14-.13h0c-.45.15-.26.88.21.73Z"/><path d="M30.42,2.46v-2a.38.38,0,0,0-.25-.4.37.37,0,0,0-.41.08h0l-.12.12-.17.1-.2.11h-.5c-.05,0-.11-.08,0,0a.37.37,0,0,0-.53,0,.38.38,0,0,0,0,.54,1.2,1.2,0,0,0,1.14.2,3.08,3.08,0,0,0,1-.56L29.65.4v2a.39.39,0,0,0,.37.39A.4.4,0,0,0,30.42,2.46Z"/><path d="M25.87,5.1l.19-1.81a.38.38,0,0,0-.29-.36.39.39,0,0,0-.42.17c0,.06.06-.06,0,0H25.3c-.06.06.06,0,0,0h-.47L24.69,3a.39.39,0,0,0-.52.13.42.42,0,0,0,.13.53A1.24,1.24,0,0,0,26,3.35l-.63,0L25.11,5.1a.38.38,0,0,0,.37.38h0A.38.38,0,0,0,25.87,5.1Z"/><path d="M32.26,6.29a.71.71,0,0,0-.83-.57.39.39,0,0,0-.31.47.29.29,0,0,0,.07.16,2.94,2.94,0,0,1,.19.64,7.7,7.7,0,0,1,.13,1.27,1.53,1.53,0,0,1-.34,1,.39.39,0,0,0,.06.54.37.37,0,0,0,.54-.06.47.47,0,0,0,.06-.09,2.2,2.2,0,0,0,.39-.85,3.32,3.32,0,0,0,0-.89,5.42,5.42,0,0,0-.42-2v.29h0l-.11.17a.24.24,0,0,1-.23.09h.06c-.06,0-.09-.28-.1-.22a.38.38,0,1,0,.76,0Z"/><path d="M32.71,10.17h0V10c0-.07.19-.25.3-.17l.14.14V10a.53.53,0,0,1,.06-.1l.14-.21a3.07,3.07,0,0,0,.2-.5,2.54,2.54,0,0,0,.09-1,7.16,7.16,0,0,0-.53-2A.4.4,0,0,0,32.65,6a.38.38,0,0,0-.28.47,3.91,3.91,0,0,1,.42,2.62c-.14.41-.68.9-.2,1.3a.49.49,0,0,0,.78-.6.38.38,0,0,0-.65.39Z"/><path d="M28,6.17a9.08,9.08,0,0,0,.63,3.61.38.38,0,0,0,.47.26.37.37,0,0,0,.26-.46,8.61,8.61,0,0,1-.6-3.41.39.39,0,0,0-.44-.32A.41.41,0,0,0,28,6.17Z"/><path d="M26.24,6.87a4.13,4.13,0,0,0,1.21,3.41A.38.38,0,0,0,28,9.74a3.45,3.45,0,0,1-1-2.87.38.38,0,1,0-.76,0Z"/><path d="M25.77,8.76c1.39-.07,2.78-.06,4.16-.11.8,0,1.6-.06,2.39-.13a3.76,3.76,0,0,0,1.45-.26c.44-.23,0-.89-.38-.66h-.11L33,7.66l-.81.08c-.79.06-1.58.09-2.36.11-1.33,0-2.66,0-4,.11-.48,0-.48.79,0,.76Z"/><path d="M33.33,18.4,33.21,24l.47-.38-17.06-4,.27.37V16.51l-.37.39L21,16.42l2.87-.31L24.7,16H25a29.61,29.61,0,0,1,4.45,1.13l4.21,1.13a.39.39,0,0,0,.47-.29s0,0,0-.08V14.08c0-1.12.21-2.13-.41-3-.34-.52-.65-1.11-1.28-1.31a9.86,9.86,0,0,0-3.51,0,14.29,14.29,0,0,0-1.6.21,6.08,6.08,0,0,1-.76.22s-.23-.37-.14-.29c-.59-.53-.27-1.36-.27-2S25.48,6,25.84,5.29H25.2c.23.56.4,1.55,1.09,1.64a4.16,4.16,0,0,0,1.35-.32l2-.5a.37.37,0,0,0,.26-.46h0c-.26-1-.52-2.19.37-3l-.62-.36-.12.3c-.16.47.57.66.73.2l.12-.3c.13-.37-.38-.62-.64-.37-1.1,1-.91,2.43-.58,3.78l.28-.51-2.15.56c-.95.24-1-.22-1.4-1a.36.36,0,0,0-.51-.13.4.4,0,0,0-.13.13c-.6,1.1.14,2.35.14,3.52a2.82,2.82,0,0,0,.78,2.42c.33.2.53,0,.88-.08a8.94,8.94,0,0,1,1.92-.31c1.06-.08,3-.44,3.8.45a9.87,9.87,0,0,1,.54.83c.24.34.09-.09.1.23v6l.48-.36-4.23-1.13a33,33,0,0,0-4.49-1.2,4.76,4.76,0,0,0-1.13.1l-3,.32-4.46.48a.39.39,0,0,0-.39.37V20a.41.41,0,0,0,.28.37l17.07,4a.41.41,0,0,0,.48-.29A.15.15,0,0,1,34,24l.12-5.57a.4.4,0,0,0-.45-.32.38.38,0,0,0-.31.32Z"/><polygon class="cls-2" points="33.58 23.96 33.58 24.64 33.51 31.87 11.13 26.66 11.11 18.74 33.58 23.96"/><path d="M33.79,32.23,10.85,26.89l0-8.51,23,5.36v.89ZM11.42,26.44l21.81,5.07.06-7.32L11.4,19.1Z"/><path d="M25.81,10.57a8.44,8.44,0,0,0-.76,1,2.65,2.65,0,0,0-.08.93l0,2.72.75-.1a.61.61,0,0,0-.45-.43.86.86,0,0,0-.39,0c-.18.06-.15.14-.19,0a2.5,2.5,0,0,1,.05-.55,3.86,3.86,0,0,0,0-.68c-.11-1-.34-1.88-.52-2.83a.38.38,0,0,0-.47-.26.35.35,0,0,0-.17.09,2.58,2.58,0,0,0-.8,1.91,4.48,4.48,0,0,1,.08.64c0,.42-.08.14-.17,0a.77.77,0,0,0-.63-.27.73.73,0,0,0-.69.69c0,.21,0,.43,0,.64V15l.23-.17h.29c.08,0-.07-.13-.1-.17l-.26-.42a1.76,1.76,0,0,0-.56-.59l.18.33c0-.4-.1-.9-.6-.85a.57.57,0,0,0-.42.27c-.12.18-.08.65-.39.59l.26.47a.81.81,0,0,0-.58-1l-.11,0a.39.39,0,0,0-.46.28.31.31,0,0,0,0,.19s0,.77-.13.52v-.37a.63.63,0,0,0-.45-.47.4.4,0,0,0-.47.27c-.07.18-.28,0-.3-.1s.09-.46.1-.63A2.22,2.22,0,0,0,17.17,12a.37.37,0,0,0-.33-.19c-1.81-.08-.59,3.43-.61,4.26a.38.38,0,0,0,.76,0,17.06,17.06,0,0,0-.31-2.26c0-.23-.21-1.26.16-1.24l-.32-.19a2.55,2.55,0,0,1,.26.61,2.15,2.15,0,0,1-.08.62.89.89,0,0,0,.3.87,1,1,0,0,0,1.34-.16.89.89,0,0,0,.14-.25l-.46.26c-.18-.06,0,.58.12.68a.77.77,0,0,0,.74.24c.75-.16.79-.92.69-1.53l-.47.46.1.14a.4.4,0,0,0,.27.47,1,1,0,0,0,.85-.15c.18-.13.56-.58.21-.67l-.26-.26a.65.65,0,0,1,0,.34.37.37,0,0,0,.19.33c.47.23.5,1.08,1,1.22.32.08.48-.17.52-.43a11.52,11.52,0,0,0,0-1.44,1.13,1.13,0,0,1,0-.26c.06-.12,0,.08,0,.12a.6.6,0,0,0,.16.22.79.79,0,0,0,1,0,1.11,1.11,0,0,0,.31-1.08A1.85,1.85,0,0,1,24,11l-.64-.16a24.87,24.87,0,0,1,.52,2.84,6.21,6.21,0,0,0,0,1.22.7.7,0,0,0,.3.51.72.72,0,0,0,.29.1c.14,0,.48-.11.59,0l-.17-.3v.09a.38.38,0,0,0,.45.28.37.37,0,0,0,.29-.38l.05-2.65V12a.61.61,0,0,0,0-.19v.12a6.21,6.21,0,0,0,.76-1c.3-.4-.36-.77-.66-.39Z"/><rect x="24.78" y="15.6" width="0.57" height="6.66" transform="translate(-0.26 0.35) rotate(-0.79)"/><polygon points="4.07 27.62 4.07 19.72 11.06 18.46 11.16 19.03 4.65 20.2 4.65 26.99 11.11 26.38 11.16 26.95 4.07 27.62"/><polygon class="cls-1" points="13.16 27.14 0.4 27.59 0.4 38.68 13.16 38.68 13.16 27.14"/><path d="M13.45,39H.11V27.31l13.34-.47ZM.68,38.39H12.87V27.44L.68,27.86Z"/><polygon class="cls-2" points="22.35 30.86 22.35 37.81 13.16 38.68 13.16 27.14 22.35 30.86"/><path d="M12.87,39V26.71l9.76,4v7.41Zm.58-11.43v10.8l8.61-.81v-6.5Z"/><polygon class="cls-2" points="35.58 31.89 35.58 37.66 31.79 39.54 31.79 31.28 35.58 31.89"/><path d="M31.5,40V30.94l4.36.71v6.19Zm.57-8.39v7.47l3.22-1.59V32.14Z"/><polygon class="cls-2" points="23.6 37.55 31.79 39.54 31.79 31.28 23.6 32.29 23.6 37.55"/><path d="M32.07,39.9l-8.75-2.12V32L32.07,31Zm-8.18-2.57,7.61,1.85V31.6l-7.61.94Z"/><polygon class="cls-2" points="25.38 15.68 33.71 17.9 33.68 23.57 25.38 22.06 25.38 15.68"/><path d="M34,23.91,25.09,22.3v-7L34,17.68Zm-8.31-2.09,7.74,1.41,0-5.11-7.77-2.07Z"/></g></g></g></g></svg>