<svg xmlns="http://www.w3.org/2000/svg" viewBox="0 0 50.25 35.91"><defs><style>.cls-1{fill:#adacac;}.cls-2{fill:#fff;}</style></defs><g id="Layer_2" data-name="Layer 2"><g id="Layer_4" data-name="Layer 4"><polygon class="cls-1" points="28.51 0.56 31.64 1.82 31.64 4.35 28.51 3.35 28.51 0.56"/><path d="M32,4.87,28.14,3.63V0L32,1.57ZM28.89,3.08l2.37.76V2.08l-2.37-1Z"/><rect class="cls-2" x="25.39" y="0.56" width="3.13" height="2.8"/><path d="M28.89,3.73H25V.18h3.88ZM25.76,3h2.38v-2H25.76Z"/><polygon class="cls-2" points="24.34 7 31.64 7.22 31.64 9.68 24.34 9.68 24.34 7"/><path d="M32,10.06H24V6.61l8,.25Zm-7.29-.75h6.54V7.59l-6.54-.2Z"/><rect class="cls-1" x="31.64" y="7.15" width="3.13" height="2.53"/><path d="M35.14,10.06H31.26V6.78h3.88ZM32,9.31h2.38V7.53H32Z"/><polygon class="cls-2" points="19.13 7.15 19.13 9.68 24.34 9.68 24.34 7.15 19.13 7.15 19.13 7.15"/><path d="M24.72,10.06h-6V6.78h6Zm-5.21-.75H24V7.53H19.51Z"/><polygon class="cls-1" points="35.96 9.52 35.96 12.7 31.68 12.64 31.68 9.52 35.96 9.52"/><path d="M36.33,13.08l-5-.07V9.15h5Zm-4.27-.81,3.52.05V9.9H32.06Z"/><polygon class="cls-2" points="31.62 9.36 31.62 12.7 26.58 12.54 26.58 9.36 31.62 9.36"/><path d="M32,13.09l-5.79-.19V9H32Zm-5-.92,4.29.14V9.74H27Z"/><polygon class="cls-2" points="16.01 9.36 16.01 11.89 24.34 12.22 24.34 9.36 16.01 9.36"/><path d="M24.72,12.61l-9.09-.35V9h9.09Zm-8.34-1.08,7.59.3V9.74H16.38Z"/><rect class="cls-1" x="24.34" y="9.36" width="2.08" height="3.8"/><path d="M26.8,13.54H24V9H26.8Zm-2.08-.75h1.33v-3H24.72Z"/><polygon class="cls-2" points="21.22 12.06 28.51 12.29 28.51 14.75 21.22 14.75 21.22 12.06"/><path d="M28.89,15.12h-8V11.68l8.05.24Zm-7.3-.75h6.55V12.65l-6.55-.2Z"/><polygon class="cls-2" points="31.64 12.06 35.81 12.29 35.81 14.75 31.64 14.75 31.64 12.06"/><path d="M36.18,15.12H31.26V11.67l4.92.26ZM32,14.37h3.42V12.64L32,12.46Z"/><rect class="cls-1" x="28.51" y="12.22" width="3.13" height="2.53"/><path d="M32,15.12H28.14V11.84H32Zm-3.12-.75h2.37V12.59H28.89Z"/><rect class="cls-1" x="35.81" y="12.22" width="2.08" height="2.53"/><path d="M38.27,15.12H35.43V11.84h2.84Zm-2.09-.75h1.34V12.59H36.18Z"/><polygon class="cls-2" points="13.92 12.22 13.92 14.75 21.22 14.75 21.22 12.22 13.92 12.22 13.92 12.22"/><path d="M21.59,15.12h-8V11.84h8Zm-7.29-.75h6.54V12.59H14.3Z"/><line class="cls-2" x1="18.09" y1="9.68" x2="18.09" y2="12.22"/><rect x="17.72" y="9.68" width="0.75" height="2.53"/><line class="cls-2" x1="20.17" y1="9.68" x2="20.17" y2="12.22"/><rect x="19.8" y="9.68" width="0.75" height="2.53"/><line class="cls-2" x1="22.26" y1="9.68" x2="22.26" y2="12.04"/><rect x="21.88" y="9.68" width="0.75" height="2.36"/><polygon class="cls-1" points="39.09 14.43 39.09 17.6 32.73 17.54 32.73 14.43 39.09 14.43"/><path d="M39.46,18l-7.11-.07V14.05h7.11Zm-6.36-.81,5.61,0V14.8H33.1Z"/><polygon class="cls-2" points="32.66 14.52 32.66 17.08 25.54 16.88 25.54 14.52 32.66 14.52"/><path d="M33,17.56l-7.88-.22V14.05H33Zm-7.13-1.13,6.38.18V15H25.91Z"/><polygon class="cls-1" points="25.54 14.43 25.88 17.56 23.35 17.54 23.35 14.43 25.54 14.43"/><path d="M23,18.17V14.05h2.94v2.51Zm.75-3.37v2.11l1.44-.8V14.8Z"/><polygon class="cls-2" points="9.75 14.43 9.75 16.96 23.3 17.28 23.3 14.43 9.75 14.43"/><path d="M23.68,17.66l-14.3-.33V14.05h14.3ZM10.13,16.59l12.8.31V14.8H10.13Z"/><polygon class="cls-2" points="47.02 27.09 47.02 33.18 42.37 32.79 42.37 27.09 47.02 27.09"/><path d="M47.4,33.58,42,33.14V26.71H47.4Zm-4.66-1.13,3.91.32V27.46H42.74Z"/><polygon class="cls-1" points="42.37 27.09 39.52 27.09 39.52 33.18 42.37 32.79 42.37 27.09"/><path d="M39.14,33.61v-6.9h3.6v6.41Zm.75-6.15v5.29l2.1-.29v-5Z"/><path class="cls-2" d="M39.52,27.09H33.81v5.7l5.71.39Z"/><path d="M39.89,33.58l-6.45-.44V26.71h6.08v.2h.37Zm-5.7-1.14,5,.34V27.46h-5Z"/><polygon class="cls-1" points="33.81 27.09 33.81 32.79 30.58 34.22 30.58 27.09 33.81 27.09"/><path d="M30.21,34.79V26.71h4V33ZM31,27.46v6.18l2.48-1.09V27.46Z"/><polygon class="cls-2" points="30.58 27.09 30.58 34.22 23.45 32.79 23.45 27.09 30.58 27.09"/><path d="M31,34.68,23.08,33.1V26.71H31Zm-7.13-2.19,6.38,1.27v-6.3H23.83Z"/><polygon class="cls-1" points="23.45 27.09 23.45 32.79 19.18 35.26 19.18 27.09 23.45 27.09"/><path d="M18.8,35.91v-9.2h5V33Zm.75-8.45v7.15l3.53-2V27.46Z"/><path class="cls-1" d="M49.88,27.47,47,27.09v6.09l2.86-1.43Z"/><path d="M46.65,33.78V26.66l3.27.44v.14h.34V32Zm.75-6.27v5.06l2.1-1.05V27.8Z"/><polygon class="cls-2" points="19.18 27.09 19.18 35.26 0.38 32.03 0.38 25.66 19.18 27.09"/><path d="M19.55,35.71,0,32.34V25.25l19.55,1.49Zm-18.8-4L18.8,34.82V27.43l-18-1.37Z"/><polygon class="cls-2" points="2.46 21.49 2.46 25.66 19.13 26.7 19.13 21.49 2.46 21.49"/><path d="M19.51,27.1,2.08,26v-4.9H19.51ZM2.83,25.31l15.93,1V21.86H2.83Z"/><polygon class="cls-2" points="21.22 21.49 26.43 20.44 26.43 26.7 21.22 26.7 21.22 21.49"/><path d="M26.8,27.08h-6v-5.9l6-1.19Zm-5.21-.75h4.46V20.9l-4.46.89Z"/><polygon class="cls-1" points="26.43 20.44 32.68 21.49 32.68 26.7 26.43 26.7 26.43 20.44"/><path d="M33.06,27.08h-7V20l7,1.17Zm-6.26-.75h5.51V21.8l-5.51-.91Z"/><polygon class="cls-2" points="21.22 17.13 28.51 17.08 28.51 20.81 21.22 21.08 21.22 17.13"/><path d="M20.84,21.47V16.75l8.05,0v4.46Zm.75-4v3.19l6.55-.24v-3Z"/><polygon class="cls-2" points="23.3 3.35 29.55 3.42 29.55 7.15 23.3 7.15 23.3 3.35"/><path d="M29.93,7.53h-7V3l7,.07Zm-6.25-.75h5.5v-3l-5.5-.07Z"/><polygon class="cls-2" points="31.64 17.13 35.81 17.35 35.81 21.08 31.64 21.08 31.64 17.13"/><path d="M36.18,21.45H31.26V16.73l4.92.26ZM32,20.7h3.42v-3L32,17.52Z"/><polygon class="cls-1" points="28.51 17.01 31.64 17.28 31.64 21.08 28.51 20.81 28.51 17.01"/><path d="M32,21.49l-3.87-.33V16.61l3.87.32Zm-3.12-1,2.37.2V17.62l-2.37-.2Z"/><polygon class="cls-1" points="29.55 3.35 32.68 4.62 32.68 7.15 29.55 7.15 29.55 3.35"/><path d="M33.06,7.53H29.18V2.8l3.88,1.57Zm-3.13-.75h2.38V4.87l-2.38-1Z"/><rect class="cls-1" x="35.81" y="17.28" width="2.08" height="3.8"/><path d="M38.27,21.45H35.43V16.9h2.84Zm-2.09-.75h1.34V17.65H36.18Z"/><polygon class="cls-2" points="37.89 17.13 42.06 17.35 42.06 21.08 37.89 21.08 37.89 17.13"/><path d="M42.43,21.45H37.52V16.73l4.91.26Zm-4.16-.75h3.41v-3l-3.41-.19Z"/><polygon class="cls-2" points="38.93 14.6 43.1 14.82 43.1 17.28 38.93 17.28 38.93 14.6"/><path d="M43.48,17.65H38.56V14.2l4.92.26Zm-4.17-.75h3.42V15.17L39.31,15Z"/><rect class="cls-1" x="42.06" y="17.28" width="2.08" height="3.8"/><path d="M44.52,21.45H41.68V16.9h2.84Zm-2.09-.75h1.34V17.65H42.43Z"/><polygon class="cls-2" points="32.68 21.49 43.1 20.44 43.1 26.7 32.68 26.7 32.68 21.49"/><path d="M43.48,27.08H32.31V21.15L43.48,20Zm-10.42-.75h9.67V20.86l-9.67,1Z"/><polygon class="cls-1" points="43.1 20.44 47.27 21.49 47.27 26.7 43.1 26.7 43.1 20.44"/><path d="M47.64,27.08H42.73V20l4.91,1.23Zm-4.16-.75h3.41V21.78l-3.41-.86Z"/><rect class="cls-1" x="19.13" y="21.49" width="2.08" height="5.22"/><path d="M21.59,27.08H18.76v-6h2.83Zm-2.08-.75h1.33V21.86H19.51Z"/><rect x="4.17" y="21.49" width="0.75" height="4.37"/><rect x="6.25" y="21.49" width="0.75" height="4.37"/><rect x="8.34" y="21.49" width="0.75" height="4.37"/><rect x="11.46" y="21.49" width="0.75" height="4.37"/><rect x="14.59" y="21.49" width="0.75" height="5.41"/><polygon class="cls-2" points="6.63 17.28 6.63 21.08 13.92 21.08 13.92 17.28 6.63 17.28 6.63 17.28"/><path d="M14.3,21.45h-8V16.9H14.3ZM7,20.7h6.55V17.65H7Z"/><polygon class="cls-2" points="13.92 17.28 13.92 21.08 21.22 21.08 21.22 17.28 13.92 17.28 13.92 17.28"/><path d="M21.59,21.45h-8V16.9h8ZM14.3,20.7h6.54V17.65H14.3Z"/><line class="cls-2" x1="11.84" y1="14.75" x2="11.84" y2="17.28"/><rect x="11.46" y="14.75" width="0.75" height="2.53"/><line class="cls-2" x1="13.92" y1="14.75" x2="13.92" y2="17.28"/><rect x="13.55" y="14.75" width="0.75" height="2.53"/><line class="cls-2" x1="16.01" y1="14.75" x2="16.01" y2="17.11"/><rect x="15.63" y="14.75" width="0.75" height="2.36"/><line class="cls-2" x1="19.13" y1="14.75" x2="19.13" y2="17.18"/><rect x="18.76" y="14.75" width="0.75" height="2.43"/></g></g></svg>