<svg xmlns="http://www.w3.org/2000/svg" viewBox="0 0 40.39 39.38"><defs><style>.cls-1{fill:#fff;}.cls-2{fill:#ccc;}.cls-3{fill:#adacac;}</style></defs><g id="Layer_2" data-name="Layer 2"><g id="Layer_1-2" data-name="Layer 1"><path class="cls-1" d="M27.24,1.18c-2-1-3.58-.38-4.93,1.24h1.9l-.3-.35-.6,2.25a1.6,1.6,0,0,0,1.42-1.66,1.36,1.36,0,0,0-2-1.16A6.31,6.31,0,0,0,20,4.85l2.5.67,0-1.13a1.35,1.35,0,0,0-2.69,0,4.52,4.52,0,0,1-.64,1.46,6.71,6.71,0,0,0-.49,1.75c-.22,1.35-.43,2.7-.65,4.05a1.37,1.37,0,0,0,2,1.52c.74-.42,1-1.05,1.58-1.64s1.12-.66,1.54-1.27a9.48,9.48,0,0,0,1.48-5.64c-.12-1.44-2.26-1.92-2.64-.36a61.46,61.46,0,0,0-1.61,8.28,16.51,16.51,0,0,0,1.33,7.84l.94-1.65L21.49,19l-.43.11c-.33.08-.29.09.13,0l.81.61a8.6,8.6,0,0,1-.31-1.62c-.12-.57-.24-1.13-.35-1.69a5.73,5.73,0,0,1,.08-3.18L19,13.6a42.94,42.94,0,0,1,2.53,5.25,1.34,1.34,0,0,0,2.59-.71,33.34,33.34,0,0,0-.9-5.08c-.43-1.38-2.78-1.22-2.65.36a35.55,35.55,0,0,0,1.86,8.89,37.36,37.36,0,0,0,1.73,4.07c.35.7.72,1.38,1.12,2.05.16.28.33.56.51.83s.2.33.31.49c.22.39.27.44.15.14l.4-.95-.32.15.4.37a8,8,0,0,1-.46-.76l-.93-1.51c-.63-1-1.27-2.06-1.89-3.1a11.45,11.45,0,0,1-2.09-6,1.35,1.35,0,0,0-2.69,0c0,3.27,1.65,6.06,3.31,8.75l1.5,2.46a11.48,11.48,0,0,0,1.32,2c1,1,2.88.48,3.75-.51,1.1-1.24-.31-2.69-1-3.77a30,30,0,0,1-2.09-4.21,32.3,32.3,0,0,1-2.25-9.44l-2.64.36a34.74,34.74,0,0,1,.91,5.07l2.59-.71a46.11,46.11,0,0,0-2.8-5.9,1.36,1.36,0,0,0-2.46.32c-.77,2.13-.12,4.39.32,6.52.18.91.21,2.16,1.18,2.6s2.06-.12,3-.36a1.36,1.36,0,0,0,.94-1.66A14.6,14.6,0,0,1,23,12.5,62.72,62.72,0,0,1,24.49,5l-2.64-.35a6,6,0,0,1-.27,2.26,4.6,4.6,0,0,1-.86,1.92,10.51,10.51,0,0,0-1.14.88c-.33.38-.56.92-1,1.17l2,1.52c.23-1.47.43-2.95.71-4.42.24-1.27,1.12-2.23,1.16-3.56H19.74l0,1.13c0,1.23,1.92,2,2.51.68a4.36,4.36,0,0,1,1.77-2.38L22,2.66v.18l.67-1.17-.12.05A1.36,1.36,0,0,0,22,4l.31.35a1.33,1.33,0,0,0,1.9,0c.48-.58.87-1.22,1.68-.82,1.54.78,2.9-1.54,1.35-2.32Z"/><path class="cls-1" d="M17.53,35.32a2.44,2.44,0,0,1,.14.28l-.13-.32a4,4,0,0,1,.18.66l0-.35a2.66,2.66,0,0,1,0,.69l0-.36c0,.14-.05.27-.08.41a1.88,1.88,0,0,0,.08,1.15,1.63,1.63,0,0,0,.69.8,4.23,4.23,0,0,0,.62.25l-.32-.13.08.05-.27-.21.07.06L18.37,38l.06.08-.14-.32v0l0-.35v0l0-.36v0l.14-.32,0,0,1.52-.61-.09,0,.32.13A.72.72,0,0,1,20,36.3l.27.21a1.55,1.55,0,0,1-.25-.26l.21.27c-.18-.24-.35-.49-.55-.72a4.75,4.75,0,0,0-.75-.59l.27.21-.11-.12.21.28a.47.47,0,0,1-.05-.1l.13.32a3.29,3.29,0,0,1-.12-.64l.05.36a8.78,8.78,0,0,1-.06-1.62,1.35,1.35,0,0,0-2.69,0,10.08,10.08,0,0,0,.1,2,2.79,2.79,0,0,0,.29,1,2.82,2.82,0,0,0,.89.83l-.27-.21a1.7,1.7,0,0,1,.3.3l-.22-.27c.19.24.36.51.57.74a2.2,2.2,0,0,0,1,.62,1.34,1.34,0,0,0,.88-.07,1.23,1.23,0,0,0,.64-.55,1.68,1.68,0,0,0,.18-1,1.55,1.55,0,0,0-.43-.9,2.41,2.41,0,0,0-.44-.33c-.17-.09-.36-.14-.55-.22l.33.14-.13-.08.28.21,0,0,.21.27a.22.22,0,0,1,0-.08l.13.32a.36.36,0,0,1,0-.1l.05.35v-.11l-.05.36a5.42,5.42,0,0,0,.16-1.45A4.2,4.2,0,0,0,19.86,34a1.35,1.35,0,0,0-2.33,1.36Z"/><path class="cls-1" d="M15.24,32.85a2.44,2.44,0,0,0-1.16.84,7.56,7.56,0,0,0-.52.86c0,.07-.09.13-.12.2s.16-.17,0-.06,0,.05.07,0l-.09.06c.09-.1.15-.05,0,0s-.28,0,0,0h-.23l-.28,0s-.32,0-.1,0a6,6,0,0,1-1.17-.28,2.06,2.06,0,0,0-1.81-.09,1.62,1.62,0,0,0-.71,1.83,1.92,1.92,0,0,0,1.39,1.24V34.82c.15,0,0,0-.06,0l-.28,0c-.21,0-.43,0-.64,0l-.56,0-.29,0s-.33,0-.13,0v2.59A2,2,0,0,0,9.94,35.9a4.63,4.63,0,0,0,.1-.65c.05-.75-.17.9-1,.78a6.78,6.78,0,0,0,.9,0c1.31,0,2.61.06,3.92,0a1.35,1.35,0,0,0,0-2.69c-1.36,0-2.71,0-4.07,0-.83,0-1.72-.08-2.21.74a1.47,1.47,0,0,0-.19.49c0-.11,0,.63-.06.64,0-.18,0-.22,0-.12a.57.57,0,0,1,0,.14A.53.53,0,0,1,7.5,35a.89.89,0,0,1,.31-.19,1.34,1.34,0,0,0,0,2.59,11.33,11.33,0,0,0,3.39,0,1.35,1.35,0,0,0,1-1.3,1.38,1.38,0,0,0-1-1.29c-.12,0-.12,0,0,0,.4.15.57.52.52,1.12l-.35.59-.15.12-.68.18c-.31,0,.18.12.25.15l.38.12a5.8,5.8,0,0,0,.92.2,4.89,4.89,0,0,0,2.12,0A2.85,2.85,0,0,0,15.84,36c.11-.19.2-.39.31-.58l.05-.08q.12-.18-.06.06a.49.49,0,0,1,.12-.13.62.62,0,0,1-.3.18,1.38,1.38,0,0,0,.94-1.66,1.36,1.36,0,0,0-1.66-.93Z"/><path class="cls-1" d="M30.63,36.42a3.88,3.88,0,0,0,.52,2.28l1.16-2a18.59,18.59,0,0,1-2.36,0l.35,0a2.71,2.71,0,0,1-.73-.19l.32.14a2.5,2.5,0,0,1-.39-.23l.27.21a1.72,1.72,0,0,1-.27-.27l.21.27a2.14,2.14,0,0,1-.2-.32l.14.32a2.5,2.5,0,0,1-.07-.26l.05.36v-.07l-.05.35a.27.27,0,0,1,0-.12l-.14.32a.71.71,0,0,1,.1-.14l-.21.27c.16-.2.32-.39.46-.6l-.21.27,0,0-.27.21.05,0-.32.13h.05l-.35,0h.06l-.36,0a1.9,1.9,0,0,1,.4.14l-.32-.13c.23.09.44.19.66.3a1.35,1.35,0,0,0,1.36-2.33c-.64-.42-1.29-.81-2-1.17a1.34,1.34,0,0,0-1.36,2.32,21.82,21.82,0,0,1,2,1.18l1.36-2.33a8.74,8.74,0,0,0-1.26-.55,1.68,1.68,0,0,0-1.28.14,2.27,2.27,0,0,0-.67.71l.21-.28a2.46,2.46,0,0,0-.61,1,2.14,2.14,0,0,0,.22,1.49A2.87,2.87,0,0,0,28.69,39a9.18,9.18,0,0,0,3.62.33,1.36,1.36,0,0,0,1.17-2c-.06-.11-.12-.21-.17-.32l.14.32a2.8,2.8,0,0,1-.17-.63l0,.36a2.84,2.84,0,0,1,0-.65,1.3,1.3,0,0,0-.39-1,1.37,1.37,0,0,0-.95-.4,1.35,1.35,0,0,0-.95.4,1.51,1.51,0,0,0-.4,1Z"/><polygon class="cls-2" points="11.74 10.42 14.6 14 16.15 19.68 15.63 25.87 13.51 30.53 7.51 31.87 4.06 26.69 2.25 19.18 4.14 13.98 7.71 11.32 11.74 10.42"/><path d="M7.35,32.29,3.7,26.78,1.86,19.16l2-5.41L7.63,11,11.89,10,15,13.9l1.56,5.75v.06L16,26l-2.21,4.83ZM4.41,26.54l3.27,4.91,5.57-1.24,2-4.43.5-6.06-1.51-5.54-2.67-3.34-3.72.83L4.46,14.22l-1.82,5Z"/><polygon class="cls-3" points="9.81 10.71 7.71 11.16 4.14 13.83 2.25 19.03 4.06 26.54 7.51 31.71 18.45 31.77 28.94 30.02 33.16 32.44 36.95 31.84 35.81 34.03 32.8 35.38 27.39 34.49 27.29 37.88 20.81 38.86 20.57 33.13 16.53 33.27 7.84 33.57 5.72 32.6 2.63 27.75 0.45 18.2 3.04 12.14 7.6 9.38 9.81 9.82 9.81 10.71"/><path class="cls-2" d="M20.69,39l-.24-5.75L7.81,33.7h0l-2.16-1,0,0-3.1-4.89L.32,18.19v0L3,12.06l0,0,4.6-2.79h0l2.31.45v1.11l-2.17.46L4.25,13.91,2.38,19l1.8,7.45,3.4,5.11,10.88.05L29,29.89l4.23,2.42,4-.63L35.9,34.13h0l-3,1.36h0l-5.26-.86L27.42,38Zm0-6v.13l.24,5.59,6.24-.94.1-3.43,5.51.9,2.94-1.32,1-1.93-3.58.57,0,0-4.19-2.4L18.47,31.89l-11-.05,0-.06L3.94,26.56,2.12,19v0L4,13.75l0,0L7.68,11l2-.43V9.92L7.62,9.51,3.14,12.23l-2.56,6L2.75,27.7,5.8,32.5l2.06,1Z"/><polygon class="cls-2" points="28.19 1.3 24.6 3.99 22.81 11.16 24.6 21.03 29.09 29.99 33.57 32.69 37.16 31.79 39.85 27.3 39.85 21.03 38.05 12.96 35.36 6.68 31.78 3.09 28.19 1.3"/><path d="M33.51,33.09,28.8,30.26l-4.57-9.17-1.8-9.94,1.84-7.38L28.15.86l3.89,2,3.67,3.7,2.69,6.28L40.21,21v6.46l-2.82,4.7Zm-4.14-3.36,4.26,2.55,3.29-.82,2.55-4.26V21l-1.78-8L35.05,6.89,31.56,3.4,28.23,1.74l-3.3,2.47-1.74,7L25,20.91Z"/><polygon points="19.99 39.36 19.02 38.39 16.16 37.44 16.16 36.28 14.89 37.54 6.19 37.54 7.13 33.78 5.51 32.98 1.81 27.38 0 18.3 2.78 11.8 7.5 8.97 11.17 9.88 17.25 9.02 18.88 7.39 19.78 2.85 24.54 0 28.28 0.93 28.1 1.66 24.66 0.8 20.45 3.33 19.57 7.76 17.61 9.72 11.13 10.65 7.62 9.77 3.38 12.32 0.78 18.38 2.54 27.16 6.03 32.39 8 33.38 7.15 36.79 14.58 36.79 16.91 34.47 16.91 36.9 19.49 37.8 20.25 38.56 26.34 37.69 27.38 37.69 29.18 38.59 33.09 38.59 32.23 35.13 35.12 34.16 36.84 31.58 37.47 32 35.6 34.79 33.12 35.62 34.05 39.34 28.92 39.3 27.2 38.44 26.4 38.44 19.99 39.36"/><polygon points="8.46 32.16 7.36 32.16 3.61 26.5 1.79 19.22 3.66 13.62 7.47 10.8 11.06 9.9 11.24 10.63 7.73 11.51 4.3 14.08 2.57 19.25 4.33 26.25 7.77 31.41 18.32 31.41 18.99 31.3 29.02 29.62 29.15 30.36 18.39 32.16 8.46 32.16"/><rect x="21.99" y="1.25" width="0.75" height="4.57" transform="translate(14.51 24.77) rotate(-78.69)"/><rect x="3.88" y="12.13" width="19.02" height="0.75" transform="translate(-1.63 2.01) rotate(-8.09)"/><polygon points="20.19 38.99 19.71 33.15 26.92 34.05 26.92 34.04 32.73 35.01 32.61 35.74 27.67 34.92 27.67 38.06 26.92 38.06 26.92 34.81 20.53 34.01 20.94 38.93 20.19 38.99"/><rect x="16.16" y="33.27" width="0.75" height="2.1"/><polygon points="33.18 35.73 32.91 35.02 35.12 34.17 36.04 32.79 33.61 33.06 7.48 33.96 5.51 32.98 1.81 27.37 0.2 17.82 2.59 12.26 7.51 8.96 10.37 9.91 10.14 10.62 7.62 9.78 3.19 12.76 0.98 17.92 2.54 27.16 6.03 32.39 7.65 33.2 33.56 32.31 37.55 31.87 35.61 34.78 33.18 35.73"/><polygon class="cls-3" points="28.19 3.99 31.78 4.88 35.36 9.37 37.16 13.85 38.95 20.13 38.95 26.41 37.16 29.99 33.57 30.89 29.98 28.2 26.4 21.03 24.6 12.06 25.5 6.68 28.19 3.99"/><path d="M33.49,31.3l-3.84-2.93L26,21.1l-1.81-9,.93-5.57,2.93-2.93,3.91,1,3.72,4.68,1.8,4.48,1.82,6.42,0,6.45-1.87,3.74ZM30.28,28l3.37,2.53,3.25-.81,1.68-3.35V20.18L36.8,14,35,9.56,31.56,5.22,28.31,4.4,25.85,6.86,25,12.05l1.77,8.85Z"/><path d="M32.67,5.12l-.09-.36s0-.06,0-.08V4.62s0,0,0,0,0-.13,0-.19,0-.25,0-.37,0-.12,0-.17a.28.28,0,0,0,0-.09h0v0a.46.46,0,0,0,0-.26.41.41,0,0,0-.21-.16.34.34,0,0,0-.41.24A3.81,3.81,0,0,0,32,5.3a.33.33,0,1,0,.64-.18Z"/><path d="M28.16,3.69a7.07,7.07,0,0,1,.1-2.2A.34.34,0,0,0,28,1.08a.33.33,0,0,0-.41.23,7.93,7.93,0,0,0-.13,2.38.35.35,0,0,0,.34.34.34.34,0,0,0,.34-.34Z"/><path d="M26.29,5.27l-.08.05h0l-.15,0L26,5.4c.08,0,0,0,0,0h-.18l.34.34a2.6,2.6,0,0,0-.38-1.07,2.55,2.55,0,0,0-.8-.8.34.34,0,0,0-.34.59l.1.06,0,0s0,0,0,0l.17.15.15.17s0,0,0,0,0,0,0,0l.06.1.11.19.05.1h0s0,0,0,.06a1.18,1.18,0,0,1,.07.2.5.5,0,0,1,0,.12s0,0,0,.06,0,.08,0,0a.35.35,0,0,0,.33.34,1.49,1.49,0,0,0,.87-.22.34.34,0,0,0,.12-.46.35.35,0,0,0-.46-.12Z"/><path d="M24.36,11h0a1.69,1.69,0,0,1-.45,0L24,11a1.62,1.62,0,0,1-.43-.12l.08,0-.08,0a.34.34,0,0,0-.26,0,.31.31,0,0,0-.2.15.34.34,0,0,0,.12.46,2,2,0,0,0,1.33.17.34.34,0,0,0,.23-.41.34.34,0,0,0-.41-.23Z"/><path d="M26.59,21.18a1.22,1.22,0,0,0-.14-1,.33.33,0,0,0-.46-.12l-1.33.76a.34.34,0,1,0,.34.58l1.33-.76-.46-.12a.56.56,0,0,1,.05.08s0,0,0,0l0,.05s0,0,0,.06v0s0,0,0,0a.29.29,0,0,1,0,.16v.05c0-.05,0-.06,0,0s0,.06,0,.09a.35.35,0,0,0,.23.42.36.36,0,0,0,.42-.24Z"/><path d="M30.77,28.14a.43.43,0,0,0-.21-.4.5.5,0,0,0-.38,0,.82.82,0,0,0-.52.39l-.83,1.5a.34.34,0,1,0,.58.34l.67-1.22.16-.29s0,0,0,0l0,0,0,0c0,.05,0,0,0,0l0,0h0l0,0s.09,0,0,0h0s0,0,0,0l-.06,0a.22.22,0,0,1-.12-.15s0-.09,0,0a.34.34,0,0,0,.34.33.33.33,0,0,0,.33-.33Z"/><path d="M33.43,30.77a3.17,3.17,0,0,0-.14,1.56.34.34,0,0,0,.15.2.34.34,0,0,0,.26,0,.3.3,0,0,0,.2-.15.4.4,0,0,0,0-.26s0,0,0,0V32a1,1,0,0,1,0-.17c0-.11,0-.22,0-.33s0-.1,0,0,0-.06,0-.08l0-.16a3.37,3.37,0,0,1,.1-.34.34.34,0,0,0-.23-.41.36.36,0,0,0-.42.23Z"/><path d="M37.76,31.78V29.64a.34.34,0,0,0-.34-.33.34.34,0,0,0-.33.33v2.14a.34.34,0,0,0,.33.34.34.34,0,0,0,.34-.34Z"/><path d="M40.35,27.43l-.54-1.19a.34.34,0,0,0-.2-.15.3.3,0,0,0-.26,0,.39.39,0,0,0-.16.2.4.4,0,0,0,0,.26l.54,1.19a.31.31,0,0,0,.2.15.39.39,0,0,0,.26,0,.35.35,0,0,0,.12-.46Z"/><path d="M39.47,21a.4.4,0,0,0,.57,0,.53.53,0,0,0,.14-.38.52.52,0,0,0-.15-.39,2.83,2.83,0,0,0-.28-.2l.07.05-.09-.08.06.06s0,0,0,0l0,.08v.11s0,0,0,0l0,.08h0a.39.39,0,0,0,0-.26.34.34,0,0,0-.15-.2.4.4,0,0,0-.26,0,.32.32,0,0,0-.2.16.46.46,0,0,0,0,.36.5.5,0,0,0,.15.25l.18.14.14.09-.07-.05,0,0,0-.07s0,0,0,0l0-.08a.14.14,0,0,1,0,.06v-.1a.14.14,0,0,1,0,.06l0-.08,0,0,0-.07v0l.06,0h0l.08,0h.14l.08,0h0l.07.06v0a.34.34,0,0,0-.48,0,.35.35,0,0,0-.1.24.43.43,0,0,0,.1.24Z"/><path d="M35.89,9.06A2.05,2.05,0,0,0,36,7a.34.34,0,1,0-.58.34l.05.1s0,0,0,0l0,.05a.83.83,0,0,1,.06.21l0,.1s0,0,0,0v.06a.67.67,0,0,1,0,.2v.14h0a.8.8,0,0,1,0,.21l0,.1s0,0,0,0l0,0a1.14,1.14,0,0,1-.1.19.33.33,0,0,0,.12.46.34.34,0,0,0,.46-.12Z"/><path d="M17.14,9.54C14.77,13.42,14.88,17.6,15.07,22a16.73,16.73,0,0,0,1.68,6.19,9.14,9.14,0,0,0,3.69,4.69.34.34,0,0,0,.34-.58c-1.93-1.11-2.77-2.88-3.62-4.83a16.16,16.16,0,0,1-1.44-6.34,41.84,41.84,0,0,1,0-5.37,14,14,0,0,1,2-5.87c.23-.37-.36-.71-.58-.34Z"/><path d="M13.34,9.78c-1.68.78-2.34,2.56-3,4.17A15.6,15.6,0,0,0,9,20.5,17.26,17.26,0,0,0,10.12,27a10.51,10.51,0,0,1,1.26,3.4,2.15,2.15,0,0,0,.38,1.18c.35.44,1.34.82,1.18,1.54-.09.42.56.6.65.18A1.5,1.5,0,0,0,13,31.82,3.75,3.75,0,0,1,12,30a9,9,0,0,0-.37-1.35c-.39-.95-1-1.81-1.27-2.79a15.21,15.21,0,0,1-.59-3.61,16.1,16.1,0,0,1,.49-6.18c.61-1.93,1.4-4.8,3.39-5.72.39-.18.05-.76-.34-.58Z"/><polygon points="35.29 34.85 26.12 33.03 23.58 30.6 18.85 21.71 17.44 11.84 18.87 7.46 19.58 7.69 18.2 11.91 19.58 21.54 24.21 30.19 26.48 32.34 35.44 34.11 35.29 34.85"/><rect x="19.2" y="20.97" width="5.42" height="0.75" transform="translate(-2.35 2.72) rotate(-6.74)"/><rect x="2.13" y="17.96" width="16.53" height="0.75" transform="translate(-1.94 1.25) rotate(-6.27)"/><rect x="3.94" y="25.29" width="16.7" height="0.75" transform="translate(-2.23 1.19) rotate(-5.09)"/><polygon points="16.21 20.05 16.08 19.31 18.63 18.86 18.76 19.6 16.21 20.05"/><polygon points="13.54 30.91 13.48 30.16 23.34 29.27 23.41 30.02 13.54 30.91"/></g></g></svg>