<svg xmlns="http://www.w3.org/2000/svg" viewBox="0 0 42.67 55.37"><defs><style>.cls-1{fill:#fefefe;}.cls-2{fill:#adacac;}.cls-3{fill:#fdfdfd;}.cls-4{fill:#fbfbfb;}.cls-5{fill:#fafafa;}.cls-6{fill:#f7f7f7;}.cls-7{fill:#f9f9f9;}.cls-8{fill:#f5f5f5;}.cls-9{fill:#e2e2e2;}</style></defs><g id="Layer_2" data-name="Layer 2"><g id="Layer_1-2" data-name="Layer 1"><path d="M7.07,55.37c-.81-.38-1.63-.75-2.42-1.16a16.92,16.92,0,0,1-1.79-1.07,1.38,1.38,0,0,1-.67-1.32c.07-.79,0-1.6.1-2.39a1.83,1.83,0,0,1,.38-.87,13.92,13.92,0,0,0,2-3.22,1.74,1.74,0,0,1,.23-.45,1.52,1.52,0,0,0,.44-1.18c-.71-.54-1.41-1.08-2.13-1.59-.48-.35-1-.66-1.48-1L1.5,41c-.42-.38-.85-.74-1.26-1.13A.8.8,0,0,1,0,39.42a.43.43,0,0,1,.2-.33.64.64,0,0,1,.49.07c.4.32.77.68,1.16,1s.56.39.84.59c.68.49,1.33,1,2,1.46a5.21,5.21,0,0,0,1.88,1c.85.14,1.68.36,2.6.56V40.28c-.32.1-.64.22-1,.3a1,1,0,0,1-.56,0c-.2-.1-.19-.33-.1-.54s.26-.72.4-1.1H7.59A.58.58,0,0,1,7.08,38a8.21,8.21,0,0,0,1.15-3c.28-1.1.55-2.21.82-3.31a3.37,3.37,0,0,0,.12-.53c.1-.64.18-1.28.27-1.92a.43.43,0,0,0,0-.11c0-.66.08-.69.78-.7.18,0,.38,0,.36-.28a4.37,4.37,0,0,1-.72.06c-.44,0-.56-.27-.44-.7.31-1.17.65-2.33.92-3.52.17-.72.24-1.47.34-2.21s.25-1.71.33-2.57.13-1.93.18-2.89c0-.46.15-.6.61-.61l4.77-.15a3.26,3.26,0,0,0,.41,0V14.8c-1.31.18-2.6.36-3.9.51a12.79,12.79,0,0,1-1.52.06.45.45,0,0,1-.37-.65,20.58,20.58,0,0,0,1.36-4.08c.21-1.19.36-2.37.53-3.56.05-.35.09-.69.16-1a.72.72,0,0,1,.83-.59c1,0,1.95.07,3,.1V4.71c0-1.07,0-2.14,0-3.21,0-.3-.06-.6-.07-.9s.19-.63.43-.6.43.28.43.58l0,3.29v1.7h.78a4.37,4.37,0,0,1,.88,0,.61.61,0,0,1,.38.37c.09.41.12.84.17,1.25s.11.93.17,1.39c.11.79.22,1.57.34,2.35.06.45.15.9.22,1.35s.07.69.14,1,.19.57.24.86a.8.8,0,0,1-.06.6.85.85,0,0,1-.6.18c-.87,0-1.75-.1-2.64-.15v.7h1c.74,0,1.48-.06,2.23-.06.27,0,.41.18.44.47.08.78.18,1.57.27,2.36,0,.35.07.7.1,1,.08,1.11.13,2.22.23,3.32,0,.39.13.78.2,1.17h.1c.14-.48.31-.95.41-1.44a15,15,0,0,0,.22-1.64c.09-1.5.14-3,.23-4.52a8.07,8.07,0,0,1,.23-1.27,1,1,0,0,1,.21-.37c.08-.33.15-.59.22-.84L24.79,11c0-.13.08-.26.13-.38a4.3,4.3,0,0,0,.4-1.85c0-1.07.17-2.13.26-3.2a5,5,0,0,0,0-.55c0-.61.22-.84.84-.85h2c.14,0,.28,0,.4,0V1.51s0-.07,0-.11c0-.4.13-.69.4-.71s.45.2.46.65V4.21h1c.42,0,.57.12.63.53.1.76.16,1.52.29,2.28.18,1.1.39,2.19.61,3.29s.46,2,.68,3a2.79,2.79,0,0,1,.08.7,1.19,1.19,0,0,1-.21.4c.54.45.16,1.19.44,1.8l1.53.11V13.82a.49.49,0,0,1,.42-.52c.22,0,.44.21.44.52,0,.66,0,1.33,0,2,0,.17,0,.34,0,.61h1.92c.76,0,.87.15,1.13.87a20,20,0,0,1,.55,2.82c.21,1.07.55,2.11.82,3.17.13.53.24,1.07.35,1.61a.46.46,0,0,1-.36.59,7,7,0,0,1-1.21,0c-.53,0-1.06-.07-1.59-.09a14.31,14.31,0,0,0-1.71.06,1.44,1.44,0,0,0,.38.18l4.09.16c.58,0,.82.27.71.84A8,8,0,0,0,40.75,29c.11,1,.21,2,.23,3a12.81,12.81,0,0,0,.44,3c.26,1,.44,2,.64,3a.91.91,0,0,1-.07.39l.68.38v.29a.77.77,0,0,1-.73.29c-.56-.06-1.13-.16-1.69-.17-1.6,0-3.19,0-4.79,0-.37,0-.47.13-.45.48,0,.63.07,1.25.1,1.88s.07,1.37.11,2.09a8.38,8.38,0,0,0,.86,0c.92-.06,1.83-.15,2.74-.2.4,0,.56.15.58.56,0,.85.12,1.7.14,2.55,0,1.56.05,3.11.07,4.67a.5.5,0,0,1-.41.5l-.34.1c-.71.19-1.42.41-2.14.55s-1.5.21-2.25.3l-3.72.43c-.33,0-.67,0-1,.08-1,.19-2,.41-3.05.63a14.92,14.92,0,0,1-3.33.38c-.82,0-1.64,0-2.46.08a5.33,5.33,0,0,0-.79.1,20.37,20.37,0,0,1-2,.39c-1.51.13-3,.22-4.54.3-1.35.06-2.7.1-4,.14-.42,0-.85,0-1.27,0a3,3,0,0,0-.57.14Zm21.5-8.94c.72,0,1.44.08,2.16.16.29,0,.42.26.4.59,0,.66,0,1.33,0,2h1c0-.72-.07-1.42-.16-2.11s.1-1.17.77-1.12a10.09,10.09,0,0,0,1.44-.08c.28,0,.25-.18.2-.36H22.63c.08.34.13.64.21.94a1,1,0,0,1-.19,1.12l.61.23a11.43,11.43,0,0,1,2.8.78,16,16,0,0,0,2.09.54,3.1,3.1,0,0,1-.13-.58C28,47.78,27.83,47,28.57,46.43Zm6.61-21.95,4.29.17c-.2-.6-.42-1.17-.56-1.77-.23-.92-.41-1.85-.6-2.78s-.34-1.7-.49-2.55c0-.28-.22-.34-.46-.33h-1.6l-2.54-.09a40.28,40.28,0,0,0,.85,7.34ZM28.93,5H26.45c-.1,1.51-.19,2.93-.28,4.36a3.12,3.12,0,0,1-.14.74c-.19.59-.42,1.17-.61,1.76s-.25.93-.38,1.39c.63,0,1.19-.1,1.75-.11.76,0,1.52,0,2.29,0a8.29,8.29,0,0,1,3,.14,3.62,3.62,0,0,1-.13-.4c-.24-1.11-.49-2.21-.69-3.32a19.64,19.64,0,0,1-.56-3.74,4.42,4.42,0,0,0-.12-.8ZM17,6.4H14.1c-.21,1.35-.37,2.73-.67,4.08s-.74,2.66-1.12,4c.2,0,.41,0,.61,0l2.33-.31c.36-.05.73-.08,1.1-.12h3.82L19.09,6.4ZM36.63,37.19l4.49.53a16.29,16.29,0,0,0-.41-2.08,12,12,0,0,1-.53-4.25,2.56,2.56,0,0,0,0-.39c-.11-.86-.23-1.72-.32-2.58-.06-.57-.07-1.15-.11-1.72l-2.87-.17c-.53-.05-1.05-.14-1.58-.14-.37,0-.83-.22-1.07.3,0,0-.1.06-.22.11.45.09.53.38.57.73s.16.78.19,1.17c.07.71.08,1.42.14,2.13s.15,1.55.22,2.33c0,.31,0,.63,0,.94.15,1,.34,2.06.52,3.09ZM16.87,16.36,12,16.51a43.14,43.14,0,0,1-1.56,10.74c.19-.06.42-.12.45-.25.15-.59.25-1.19.37-1.79.08-.37-.1-.79.22-1.1.1-.11.28-.24.4-.21s.26.19.33.32a1,1,0,0,1,0,.4c.05.82.1,1.65.15,2.46l3.22-.14c.44,0,.88-.07,1.33-.07l3.53.05h0l1.6.34c-.09-.64-.18-1.31-.28-2-.18-1.17-.39-2.34-.56-3.51-.07-.51-.07-1-.11-1.53-.08-.8-.15-1.61-.24-2.41-.06-.54-.16-1.08-.24-1.61ZM29.68,27.65c-.62,0-1.25-.09-1.87-.11l-3.69-.08c-.35,0-.69-.06-1.05-.09.11.5.1.56-.13.73a2.37,2.37,0,0,1,.43.65c.17.8.29,1.61.42,2.41s.26,1.81.42,2.71.33,1.57.49,2.35c.09.45.16.89.24,1.29l3.47-.1a.24.24,0,0,0,.1,0,3.69,3.69,0,0,0,.58,0,27.91,27.91,0,0,1,4.28.3c.47.07,1,.1,1.5.16-.12-.88-.21-1.7-.36-2.51-.32-1.7-.34-3.43-.49-5.14-.08-.84-.17-1.69-.26-2.53H32.21Zm-1-2.37a17,17,0,0,1,4.74.5,60.07,60.07,0,0,1-1.22-10.45h-8c0,.61-.05,1.22-.08,1.83-.08,1.25-.15,2.5-.26,3.75a13.37,13.37,0,0,1-.3,1.88c-.21.91-.47,1.81-.72,2.74ZM15.92,37.81c.2,0,.41,0,.61,0,.62-.05,1.24-.14,1.87-.16s1.52,0,2.28.07,1.36.1,2,.2c.51.08,1,.23,1.56.36-.1-.4-.21-.77-.29-1.16-.16-.82-.31-1.65-.47-2.47-.1-.49-.24-1-.32-1.45-.21-1.33-.4-2.66-.59-4a.3.3,0,0,0-.34-.29c-1.63,0-3.26,0-4.89-.07l-4.73.1c.29,3.06-.52,6-1.21,8.91l.47,0c.5,0,1-.1,1.48-.1C14.23,37.74,15.08,37.78,15.92,37.81ZM31.11,50.07H31a14,14,0,0,1-4.08-.36c-.49-.13-1-.35-1.44-.48-1-.29-2.05-.57-3.08-.82-.72-.18-1.45-.29-2.17-.47s-1.62-.42-2.42-.67a5.24,5.24,0,0,0-2.11-.35.88.88,0,0,1-.38-.09c-.23-.1-.44-.23-.67-.32A27.87,27.87,0,0,0,10.27,45l-1.35-.33-2-.53c.15.38.24.64.35.89a6.74,6.74,0,0,1,.52,2.34C7.86,48.94,8,50.48,8,52V54.4l.37,0,5.6-.22c.82,0,1.64,0,2.46-.08.64,0,1.28-.07,1.91-.16s1.31-.35,2-.4c1.25-.1,2.5-.1,3.76-.16a9.35,9.35,0,0,0,1.4-.14c1.13-.2,2.25-.49,3.39-.67s2.15-.24,3.22-.36c.55-.06,1.1-.11,1.65-.19s1.3-.23,1.95-.3a13.4,13.4,0,0,0,2.51-.48c.36-.11.55-.26.53-.7-.08-1.71-.11-3.42-.16-5.14,0-.33,0-.67,0-1.06l-3.34.21c0,.46,0,.91,0,1.35a.48.48,0,0,1-.12.35,2.83,2.83,0,0,1-.9.49,8.1,8.1,0,0,1-1.4.13,6.28,6.28,0,0,1-.13,3.24Zm-8.4-5.44h5.54l-.13-5.32H26.05c-.27,0-.53-.06-.79-.09.07.5-.11.69-.68.67h-.15c-.32,0-.64,0-1,0-.6,0-1.2.13-1.8.12-.77,0-1.54-.09-2.31-.12-.22,0-.45,0-.68,0l-1.31-.06v4.64h1.48a7.61,7.61,0,0,0,.24-1c.06-.58,0-1.18.13-1.75s.57-1.14,1.25-.91a1.66,1.66,0,0,0,.22,0c.55,0,.79.15.83.68.07.73,0,1.47,0,2.22C22.51,43.93,22.62,44,22.71,44.63ZM6.15,44.39c-.44.81-.81,1.55-1.23,2.26a18.6,18.6,0,0,1-1.46,2.23A1.67,1.67,0,0,0,3.08,50c0,.6,0,1.2-.08,1.8a.75.75,0,0,0,.31.68,10.56,10.56,0,0,0,2.53,1.39l1.35.62a1.68,1.68,0,0,0,0-.2c0-1,0-2-.08-3S7.05,49.17,7,48.11a11,11,0,0,0-.21-1.83A19.9,19.9,0,0,0,6.15,44.39Zm28.27.26-.22-5-5.14-.25v5.23Zm-17.93-.08V39.93c-1.88-.09-3.72-.16-5.56-.27a1.24,1.24,0,0,0-.89.24,17.66,17.66,0,0,1,.06,2.81l3.47.24c.91.06,1.1.23,1,1,0,.2,0,.4,0,.59ZM8.64,39.45l.08.1a3.18,3.18,0,0,0,1.52-.79.74.74,0,0,0,.16-.32,58.18,58.18,0,0,0,1.33-6,13.67,13.67,0,0,0,0-3.67c0-.37-.07-.75-.11-1.17a4.82,4.82,0,0,0-.39,2.23,5.72,5.72,0,0,1,0,1.31c-.3,1.45-.64,2.9-1,4.34a15.42,15.42,0,0,1-.67,2C9.32,38.18,9,38.81,8.64,39.45Zm1.78-10.2h-.08a.65.65,0,0,0-.08.17c-.09.66-.14,1.34-.29,2-.24,1.08-.54,2.15-.81,3.23A10.72,10.72,0,0,1,8,38.05l.35.08A11.29,11.29,0,0,0,9,36.87c.22-.62.38-1.25.56-1.88.08-.29.15-.58.22-.87a5.59,5.59,0,0,1,.15-.71A10,10,0,0,0,10.48,30C10.47,29.76,10.44,29.51,10.42,29.25ZM23.55,39l0-.13c-.65-.11-1.29-.26-1.94-.32-.82-.06-1.64-.06-2.46-.07-.57,0-1.15,0-1.75,0l0,.57C19.47,39,21.51,39.37,23.55,39ZM14.63,45.4l-.08.16.19.07c.55.18,1,.56,1.67.45a1.73,1.73,0,0,1,.66.11l1.53.39.1-1.18Zm15.66,3.78c0-.53,0-1,0-1.56,0-.19-.06-.3-.25-.32l-1.25-.11.15,2Zm3.32-22.39a10.72,10.72,0,0,0-4.51-.63v.63ZM23,26.42l0,.16,5.22.16-.09-.55-.46,0c-1.39,0-2.78,0-4.17.08A2.64,2.64,0,0,0,23,26.42ZM22,46.79l-.22-2.08h-.6l-.26,2.08Zm6.79-32.87c-1.39.17-2.82-.1-4.18.51h4.18ZM16.57,38.63c-1.82.14-3.62-.2-5.4.17l5.4.28ZM29,38.15l-.16.26c.1,0,.2.08.3.1.68.08,1.36.19,2,.22.87,0,1.74,0,2.61,0l.37,0v-.12Zm-9.51,8.17c.53.06.63,0,.69-.48.08-.6.2-1.2.3-1.79L19.79,44Zm.43-3.19c.82.12.9,0,.9-.72v-.08c0-.63-.14-.73-.8-.56Zm9.73-28.72h2.64v-.1a5,5,0,0,0-2.64-.37ZM17.41,28l4.24.12s-.07-.08-.11-.09a12.17,12.17,0,0,0-3.8-.29C17.64,27.69,17.54,27.84,17.41,28Zm-.77.1c0-.29-.15-.32-.36-.29l-.82.06c-.53,0-1.07,0-1.6,0s-.88.06-1.32.1v.12Zm-5,16.43.81.28V43.7l-.86-.09Zm27.93-6.13L35.71,38l-.06.19a1.4,1.4,0,0,0,.29.16,1.46,1.46,0,0,0,.36,0ZM13.28,43.77,13.22,45l.53.21V43.81Zm14.85-5.39a7.23,7.23,0,0,0-3,.11l.08.18C26.2,38.33,27.2,38.64,28.13,38.38ZM10,44.07l.76.22-.08-.69H10Z"/><path class="cls-1" d="M8,52c-.08-1.54-.17-3.08-.23-4.63a6.74,6.74,0,0,0-.52-2.34c-.11-.25-.2-.51-.35-.89l2,.53,1.35.33a27.87,27.87,0,0,1,4.35,1.48c.23.09.44.22.67.32a.88.88,0,0,0,.38.09,5.24,5.24,0,0,1,2.11.35c.8.25,1.61.47,2.42.67s1.45.29,2.17.47c1,.25,2.05.53,3.08.82.48.13.95.35,1.44.48a14,14,0,0,0,4.08.36h.14a3.47,3.47,0,0,1-1.18.78c-.83.34-1.62.8-2.46,1.09a7.34,7.34,0,0,1-2.81.6c-.48,0-1-.07-1.44-.08-.33,0-.66.07-1,.07-3.48-.09-7,.2-10.45-.27C10.54,52.1,9.28,52.1,8,52Z"/><path class="cls-2" d="M8,52c1.25.08,2.51.08,3.75.24,3.48.47,7,.18,10.45.27.33,0,.66-.07,1-.07.48,0,1,0,1.44.08a7.34,7.34,0,0,0,2.81-.6c.84-.29,1.63-.75,2.46-1.09a3.47,3.47,0,0,0,1.18-.78H32.7a6.28,6.28,0,0,0,.13-3.24,8.1,8.1,0,0,0,1.4-.13,2.83,2.83,0,0,0,.9-.49.48.48,0,0,0,.12-.35c0-.44,0-.89,0-1.35l3.34-.21c0,.39,0,.73,0,1.06,0,1.72.08,3.43.16,5.14,0,.44-.17.59-.53.7a13.4,13.4,0,0,1-2.51.48c-.65.07-1.3.21-1.95.3s-1.1.13-1.65.19c-1.07.12-2.15.19-3.22.36s-2.26.47-3.39.67a9.35,9.35,0,0,1-1.4.14c-1.26.06-2.51.06-3.76.16-.67,0-1.32.29-2,.4s-1.27.13-1.91.16c-.82,0-1.64,0-2.46.08l-5.6.22L8,54.4Z"/><path class="cls-2" d="M17.38,28.85c1.63,0,3.26.06,4.89.07a.3.3,0,0,1,.34.29c.19,1.33.38,2.66.59,4,.08.49.22,1,.32,1.45.16.82.31,1.65.47,2.47.08.39.19.76.29,1.16-.54-.13-1.05-.28-1.56-.36-.68-.1-1.36-.16-2-.2s-1.53-.08-2.28-.07-1.25.11-1.87.16c-.2,0-.41,0-.61,0a1.74,1.74,0,0,1,.27-1.06,9.64,9.64,0,0,0,1.16-4.31A35.8,35.8,0,0,0,17.38,28.85Z"/><path class="cls-3" d="M28.72,25.28l-5.79.25c.25-.93.51-1.83.72-2.74a13.37,13.37,0,0,0,.3-1.88c.11-1.25.18-2.5.26-3.75,0-.61.05-1.22.08-1.83h5.08c0,2.25,0,4.5-.09,6.74a13.49,13.49,0,0,1-.31,2C28.89,24.47,28.8,24.87,28.72,25.28Z"/><path class="cls-1" d="M28.51,37.36a.24.24,0,0,1-.1,0l-3.47.1c-.08-.4-.15-.84-.24-1.29-.16-.78-.35-1.56-.49-2.35s-.28-1.81-.42-2.71-.25-1.61-.42-2.41a2.37,2.37,0,0,0-.43-.65c.23-.17.24-.23.13-.73.36,0,.7.08,1.05.09l3.69.08c.62,0,1.25.07,1.87.11,0,.34,0,.68,0,1a31.46,31.46,0,0,1,0,3.76,18.21,18.21,0,0,1-1.11,4.4A1.84,1.84,0,0,0,28.51,37.36Z"/><path class="cls-2" d="M16.87,16.36l3.83-.12c.08.53.18,1.07.24,1.61.09.8.16,1.61.24,2.41,0,.51,0,1,.11,1.53.17,1.17.38,2.34.56,3.51.1.66.19,1.33.28,2l-1.6-.34h0L17,26.87c-.45,0-.89.05-1.33.07a9,9,0,0,1,.08-1.16c.31-1.72.65-3.43,1-5.14a9.07,9.07,0,0,0,.13-2.55A12.55,12.55,0,0,1,16.87,16.36Z"/><path class="cls-3" d="M16.87,16.36a12.55,12.55,0,0,0-.05,1.73,9.07,9.07,0,0,1-.13,2.55c-.32,1.71-.66,3.42-1,5.14a9,9,0,0,0-.08,1.16l-3.22.14c-.05-.81-.1-1.64-.15-2.46a1,1,0,0,0,0-.4c-.07-.13-.2-.3-.33-.32s-.3.1-.4.21c-.32.31-.14.73-.22,1.1-.12.6-.22,1.2-.37,1.79,0,.13-.26.19-.45.25A43.14,43.14,0,0,0,12,16.51Z"/><path class="cls-2" d="M28.51,37.36a1.84,1.84,0,0,1,.08-.53,18.21,18.21,0,0,0,1.11-4.4,31.46,31.46,0,0,0,0-3.76c0-.34,0-.68,0-1l2.53,0h1.55c.09.84.18,1.69.26,2.53.15,1.71.17,3.44.49,5.14.15.81.24,1.63.36,2.51-.55-.06-1-.09-1.5-.16a27.91,27.91,0,0,0-4.28-.3A3.69,3.69,0,0,1,28.51,37.36Z"/><path class="cls-3" d="M17.38,28.85a35.8,35.8,0,0,1,0,3.59,9.64,9.64,0,0,1-1.16,4.31,1.74,1.74,0,0,0-.27,1.06c-.84,0-1.69-.07-2.53-.08-.49,0-1,.06-1.48.1l-.47,0c.69-3,1.5-5.85,1.21-8.91Z"/><path class="cls-2" d="M36.85,26.53l2.87.17c0,.57.05,1.15.11,1.72.09.86.21,1.72.32,2.58a2.56,2.56,0,0,1,0,.39,12,12,0,0,0,.53,4.25,16.29,16.29,0,0,1,.41,2.08l-4.49-.53a.73.73,0,0,1,0-.25,6.6,6.6,0,0,0,.47-2.71c0-1.5,0-3,0-4.5,0-.38-.09-.76-.12-1.14C37,27.9,36.91,27.22,36.85,26.53Z"/><path class="cls-2" d="M28.72,25.28c.08-.41.17-.81.25-1.22a13.49,13.49,0,0,0,.31-2c.06-2.24.07-4.49.09-6.74h2.87a60.07,60.07,0,0,0,1.22,10.45A17,17,0,0,0,28.72,25.28Z"/><path class="cls-2" d="M6.15,44.39a19.9,19.9,0,0,1,.63,1.89A11,11,0,0,1,7,48.11c.06,1.06.1,2.12.14,3.18s.06,2,.08,3a1.68,1.68,0,0,1,0,.2l-1.35-.62a10.56,10.56,0,0,1-2.53-1.39A.75.75,0,0,1,3,51.8c0-.6.08-1.2.08-1.8a1.67,1.67,0,0,1,.38-1.12,18.6,18.6,0,0,0,1.46-2.23C5.34,45.94,5.71,45.2,6.15,44.39Z"/><path class="cls-1" d="M16.35,14c-.37,0-.74.07-1.1.12l-2.33.31c-.2,0-.41,0-.61,0,.38-1.33.82-2.64,1.12-4s.46-2.73.67-4.08H17a27.47,27.47,0,0,1-.31,5.12,4.74,4.74,0,0,1-.46,1.8A.51.51,0,0,0,16.35,14Z"/><path class="cls-3" d="M29.08,13.14c-.77,0-1.53,0-2.29,0-.56,0-1.12.07-1.75.11.13-.46.23-.93.38-1.39s.42-1.17.61-1.76a3.12,3.12,0,0,0,.14-.74c.09-1.43.18-2.85.28-4.36h2.48c0,.16,0,.31.06.46A10.59,10.59,0,0,1,29.29,7c0,1.26,0,2.53,0,3.8,0,.43-.1.86-.15,1.29S29.1,12.8,29.08,13.14Z"/><path class="cls-1" d="M36.85,26.53c.06.69.11,1.37.17,2.06,0,.38.11.76.12,1.14,0,1.5,0,3,0,4.5a6.6,6.6,0,0,1-.47,2.71.73.73,0,0,0,0,.25h-1c-.18-1-.37-2.06-.52-3.09,0-.31,0-.63,0-.94-.07-.78-.16-1.55-.22-2.33s-.07-1.42-.14-2.13c0-.39-.15-.78-.19-1.17s-.12-.64-.57-.73c.12-.05.2-.06.22-.11.24-.52.7-.31,1.07-.3C35.8,26.39,36.32,26.48,36.85,26.53Z"/><path class="cls-2" d="M16.35,14a.51.51,0,0,1-.1-.72,4.74,4.74,0,0,0,.46-1.8A27.47,27.47,0,0,0,17,6.4h2.07L20.17,14Z"/><path class="cls-2" d="M35.76,17.23h1.6c.24,0,.41.05.46.33.15.85.31,1.7.49,2.55s.37,1.86.6,2.78c.14.6.36,1.17.56,1.77l-4.29-.17a4.9,4.9,0,0,0,.29-.81,21.31,21.31,0,0,0,.27-2.39C35.79,19.93,35.76,18.58,35.76,17.23Z"/><path class="cls-4" d="M23.26,47.8l-.61-.23a1,1,0,0,0,.19-1.12c-.08-.3-.13-.6-.21-.94H34.4c.05.18.08.35-.2.36a10.09,10.09,0,0,1-1.44.08c-.67-.05-.86.45-.77,1.12s.11,1.39.16,2.11h-1c0-.67,0-1.34,0-2,0-.33-.11-.55-.4-.59-.72-.08-1.44-.11-2.16-.16a.79.79,0,0,0-.83.23,1,1,0,0,1-.48.26c-1.13.12-2.26.22-3.4.31A.56.56,0,0,0,23.26,47.8Z"/><path class="cls-2" d="M29.08,13.14c0-.34,0-.68.06-1s.14-.86.15-1.29c0-1.27,0-2.54,0-3.8A10.59,10.59,0,0,0,29,5.48c0-.15,0-.3-.06-.46h1.62a4.42,4.42,0,0,1,.12.8,19.64,19.64,0,0,0,.56,3.74c.2,1.11.45,2.21.69,3.32a3.62,3.62,0,0,0,.13.4A8.29,8.29,0,0,0,29.08,13.14Z"/><path class="cls-3" d="M35.76,17.23c0,1.35,0,2.7,0,4.05a21.31,21.31,0,0,1-.27,2.39,4.9,4.9,0,0,1-.29.81H34.07a40.28,40.28,0,0,1-.85-7.34Z"/><path class="cls-2" d="M8.64,39.45c.32-.64.68-1.27.95-1.94a15.42,15.42,0,0,0,.67-2c.36-1.44.7-2.89,1-4.34a5.72,5.72,0,0,0,0-1.31,4.82,4.82,0,0,1,.39-2.23c0,.42.07.8.11,1.17a13.67,13.67,0,0,1,0,3.67,58.18,58.18,0,0,1-1.33,6,.74.74,0,0,1-.16.32,3.18,3.18,0,0,1-1.52.79Z"/><path class="cls-2" d="M23.26,47.8a.56.56,0,0,1,.6-.57c1.14-.09,2.27-.19,3.4-.31a1,1,0,0,0,.48-.26.79.79,0,0,1,.83-.23c-.74.56-.6,1.35-.55,2.11a3.1,3.1,0,0,0,.13.58,16,16,0,0,1-2.09-.54A11.43,11.43,0,0,0,23.26,47.8Z"/><path class="cls-4" d="M10.42,29.25c0,.26.05.51.06.77a10,10,0,0,1-.56,3.39,5.59,5.59,0,0,0-.15.71c-.07.29-.14.58-.22.87-.18.63-.34,1.26-.56,1.88a11.29,11.29,0,0,1-.62,1.26L8,38.05a10.72,10.72,0,0,0,1.14-3.41c.27-1.08.57-2.15.81-3.23.15-.65.2-1.33.29-2a.65.65,0,0,1,.08-.17Z"/><path class="cls-5" d="M23.55,39c-2,.33-4.08-.09-6.17,0l0-.57c.6,0,1.18,0,1.75,0,.82,0,1.64,0,2.46.07.65.06,1.29.21,1.94.32Z"/><path class="cls-3" d="M14.63,45.4H18.7l-.1,1.18-1.53-.39a1.73,1.73,0,0,0-.66-.11c-.64.11-1.12-.27-1.67-.45l-.19-.07Z"/><path class="cls-5" d="M30.29,49.18H28.94l-.15-2L30,47.3c.19,0,.26.13.25.32C30.28,48.14,30.29,48.65,30.29,49.18Z"/><path class="cls-3" d="M33.61,26.79H29.1v-.63A10.72,10.72,0,0,1,33.61,26.79Z"/><path class="cls-6" d="M23,26.42a2.64,2.64,0,0,1,.53-.11c1.39,0,2.78-.06,4.17-.08l.46,0,.09.55-5.22-.16Z"/><path class="cls-2" d="M22,46.79H20.9l.26-2.08h.6Z"/><path class="cls-1" d="M28.77,13.92v.51H24.59C26,13.82,27.38,14.09,28.77,13.92Z"/><path class="cls-4" d="M16.57,38.63v.45l-5.4-.28C13,38.43,14.75,38.77,16.57,38.63Z"/><path class="cls-4" d="M29,38.15l5.17.44v.12l-.37,0c-.87,0-1.74,0-2.61,0-.68,0-1.36-.14-2-.22-.1,0-.2-.07-.3-.1Z"/><path class="cls-2" d="M19.47,46.32,19.79,44l.67.06c-.1.59-.22,1.19-.3,1.79C20.1,46.27,20,46.38,19.47,46.32Z"/><path class="cls-2" d="M19.9,43.13l.1-1.36c.66-.17.8-.07.8.56v.08C20.8,43.18,20.72,43.25,19.9,43.13Z"/><path class="cls-4" d="M29.63,14.41v-.47a5,5,0,0,1,2.64.37v.1Z"/><path class="cls-7" d="M17.41,28c.13-.11.23-.26.33-.26a12.17,12.17,0,0,1,3.8.29s.07.05.11.09Z"/><path class="cls-6" d="M16.64,28.05h-4.1v-.12c.44,0,.88-.08,1.32-.1s1.07,0,1.6,0l.82-.06C16.49,27.73,16.64,27.76,16.64,28.05Z"/><path class="cls-8" d="M11.61,44.48l0-.87.86.09v1.06Z"/><path class="cls-9" d="M39.54,38.35H36.3a1.46,1.46,0,0,1-.36,0,1.4,1.4,0,0,1-.29-.16l.06-.19Z"/><path class="cls-7" d="M13.28,43.77l.47,0V45.2L13.22,45Z"/><path class="cls-6" d="M28.13,38.38c-.93.26-1.93-.05-2.89.29l-.08-.18A7.23,7.23,0,0,1,28.13,38.38Z"/><path class="cls-8" d="M10,44.07V43.6h.68l.08.69Z"/></g></g></svg>