<svg xmlns="http://www.w3.org/2000/svg" viewBox="0 0 42.13 37.13"><defs><style>.cls-1{fill:#0d0d0d;}.cls-2{fill:#a8a7a7;}.cls-3{fill:#0b0b0b;}.cls-4{fill:#fdfdfd;}.cls-5{fill:#a9a8a8;}</style></defs><g id="Layer_2" data-name="Layer 2"><g id="Layer_4" data-name="Layer 4"><polygon class="cls-1" points="7.18 8.27 7.19 8.28 7.18 8.27 7.18 8.27"/><path class="cls-2" d="M9.07,11.45a.5.5,0,0,1,.38,0A1.2,1.2,0,0,1,9.07,11.45Z"/><polygon class="cls-3" points="0.38 36.52 0.38 36.52 0.38 36.52 0.38 36.52"/><path class="cls-3" d="M8.29,34.71a1.08,1.08,0,0,1-1.09,1.1,1.11,1.11,0,0,1-1.08-1.1,1.22,1.22,0,0,1,1.06-1.12A1.14,1.14,0,0,1,8.29,34.71Zm-1.71.64a.87.87,0,0,0,1.13.07.86.86,0,0,0,.19-1.11c-.06-.09-.09-.11-.17,0A12.89,12.89,0,0,1,6.58,35.35Zm1.16-1.23a.81.81,0,0,0-.46-.23,1.12,1.12,0,0,0-.61.07.85.85,0,0,0-.2,1.26A4.21,4.21,0,0,1,7.74,34.12Z"/><path class="cls-3" d="M9.12,24.34a1.21,1.21,0,0,1-.88,1.18,1,1,0,0,1-1.17-.82,2.53,2.53,0,0,1,0-.55.87.87,0,0,1,.29-.56.91.91,0,0,1,.57-.32,1,1,0,0,1,1.16.9A1.28,1.28,0,0,1,9.12,24.34Zm-.39-.41a1.72,1.72,0,0,1-.4.31,7,7,0,0,1-.91.62c-.06,0-.06.06,0,.1a.68.68,0,0,0,.6.34A.92.92,0,0,0,8.73,23.93Zm-.08-.15a.73.73,0,0,0-.54-.27.79.79,0,0,0-.53.2,1.21,1.21,0,0,0-.33.58.76.76,0,0,0,0,.49c0,.08.06.08.11,0s.16-.17.25-.25A4.45,4.45,0,0,1,8.65,23.78Z"/><path class="cls-4" d="M11,35.55s.06,0,.07,0Z"/><path class="cls-4" d="M6.58,35.35a12.89,12.89,0,0,0,1.15-1.06c.08-.09.11-.07.17,0a.86.86,0,0,1-.19,1.11A.87.87,0,0,1,6.58,35.35Z"/><path class="cls-4" d="M7.74,34.12a4.21,4.21,0,0,0-1.27,1.1A.85.85,0,0,1,6.67,34a1.12,1.12,0,0,1,.61-.07A.81.81,0,0,1,7.74,34.12Z"/><path class="cls-4" d="M8.73,23.93A.92.92,0,0,1,8,25.3.68.68,0,0,1,7.4,25s0-.07,0-.1a7,7,0,0,0,.91-.62A1.72,1.72,0,0,0,8.73,23.93Z"/><path class="cls-4" d="M8.65,23.78a4.45,4.45,0,0,0-1,.77c-.09.08-.17.17-.25.25s-.08.06-.11,0a.76.76,0,0,1,0-.49,1.21,1.21,0,0,1,.33-.58.79.79,0,0,1,.53-.2A.73.73,0,0,1,8.65,23.78Z"/><path class="cls-5" d="M10.93,32.52a4.65,4.65,0,0,1,.42-.57l.27-.36c.07,0,0,.06.06.06l-.72.9Z"/><path class="cls-5" d="M10.51,32.39a4.64,4.64,0,0,1,.45-.7s.06-.07.1,0a0,0,0,0,1,0,.08c-.17.11-.24.3-.36.45a2,2,0,0,1-.17.23Z"/><path class="cls-5" d="M10.69,31.59s.05,0,0,.05a1,1,0,0,1-.21.26.73.73,0,0,1,.17-.31h0Z"/><path class="cls-4" d="M11.91,31.5s0,0,0,0,0,0,0,0Z"/><path class="cls-3" d="M10.69,32.45l.43-.68a.69.69,0,0,1,.11-.13s.06-.05.09,0,0,0-.06.06a1.84,1.84,0,0,0-.17.22l-.32.48s0,.1-.09.06Z"/><path class="cls-5" d="M10.61,32a1.51,1.51,0,0,1,.2-.35s0,0,.07,0,0,.05,0,.07l-.23.32Z"/><path class="cls-3" d="M10.66,32.58s0-.09,0-.13h0c.07,0,0,.08,0,.13Z"/><path class="cls-5" d="M10.44,32s0-.07.07-.08,0,.08,0,.11Z"/><path class="cls-3" d="M11.06,32.71s0,.07-.07,0h0s0-.08.07,0Z"/><path class="cls-5" d="M10.88,32.58s0,0,0-.06l0,0s0,.05-.05.06Z"/><path class="cls-5" d="M10.91,32.61l0,0,0,0,0-.05Z"/><path class="cls-5" d="M10.61,32.06s0,0,0,0,0,0,0-.06Z"/><path class="cls-5" d="M10.45,32s0,.06,0,0,0,0,0-.06Z"/><path class="cls-5" d="M10.82,32.66l0,0,0,0,0,0Z"/><path class="cls-5" d="M10.85,32.69h0s0,0,0,0Z"/><path class="cls-5" d="M10.81,32.74h0Z"/><path class="cls-5" d="M10.58,32s0,0,0,0,0,0,0,0Z"/><path class="cls-3" d="M10.61,32.57s0,0,.05,0h0s0,0-.05,0Z"/><path class="cls-5" d="M10.42,32l0,0,0,0,0,0Z"/><polygon class="cls-3" points="10.96 32.81 10.96 32.82 10.96 32.83 10.95 32.82 10.96 32.81"/><path class="cls-3" d="M11,32.75v0h0v0Z"/><path class="cls-3" d="M12.11,33.38s0-.05,0-.06Z"/><path class="cls-3" d="M36,22.93h3.87c.25,0,.5,0,.75,0,.07,0,.1,0,.09-.1a13.19,13.19,0,0,1,0-1.54,5.32,5.32,0,0,0-.15-1.49c-.19-.81-.29-1.63-.44-2.45s-.29-1.69-.37-2.55a25.83,25.83,0,0,1-.12-2.92c0-.39,0-.78,0-1.18a10.32,10.32,0,0,1,.3-1.82c.15-.61.23-1.24.42-1.84a9.44,9.44,0,0,0,.37-2.53c0-1,0-1.95,0-2.93,0-.08,0-.12-.11-.12a.14.14,0,0,1-.15-.18,3,3,0,0,0,0-.79,1.2,1.2,0,0,1,0-.19.35.35,0,0,1,.35-.3.16.16,0,0,1,.14.13,2.11,2.11,0,0,1,0,.25,2.53,2.53,0,0,1-.08.78,3.69,3.69,0,0,0-.09,1.32,26.53,26.53,0,0,1,0,2.82,12.35,12.35,0,0,1-.37,2,23.88,23.88,0,0,0-.59,2.89,5,5,0,0,0,0,.77c0,1.08,0,2.16.1,3.24a25.64,25.64,0,0,0,.43,3.15c.13.62.19,1.26.34,1.88.08.32.13.65.2,1a3.65,3.65,0,0,1,.14.5,10.36,10.36,0,0,1,0,1.93c0,.09-.09.21,0,.27s.2,0,.3,0h.12c.22,0,.22,0,.26-.22,0-.05,0-.09.07-.09s.07.05.07.1l0,.52c.11,3.28.22,6.57.18,9.86,0,1,0,2,0,2.94a.15.15,0,0,0,.06.14.13.13,0,0,1,0,.21c-.06,0,0,.11,0,.17a1.11,1.11,0,0,1-.07.51s0,.06-.06.07-.06,0-.07-.07a.83.83,0,0,1-.09-.49c0-.12,0-.16-.16-.16-2.64,0-5.29,0-7.94,0l-14.21,0c-4.34,0-8.67,0-13,0H5.93a.21.21,0,0,0-.15,0,.14.14,0,0,1-.17,0,.15.15,0,0,1-.07-.16c.1-.61.09-1.22.14-1.82s.07-1.09.1-1.63c0,0,0-.07,0-.09s0,0-.07,0c-.78.55-1.6,1.05-2.39,1.59s-1.31,1-2,1.44c-.31.21-.6.43-.93.61-.05,0,0,.05,0,.08h0A2.38,2.38,0,0,1,0,36.09a.12.12,0,0,1,0-.15c.05-.06.1,0,.14,0s0,0,.07,0A6.21,6.21,0,0,1,1.42,35a9.19,9.19,0,0,0,.89-.65,23.41,23.41,0,0,1,2.41-1.66c.37-.23.72-.48,1.07-.73a.14.14,0,0,0,.06-.12l.27-3.95c.08-1.19.17-2.39.26-3.58,0-.42.06-.85.11-1.27,0-.14.07-.18.21-.19,1.76,0,3.51,0,5.26,0,.2,0,.39,0,.58,0s.12,0,.12-.11c0-.89,0-1.78.06-2.67s0-1.71,0-2.57v-.68c0-.09.07-.1.12-.07a.57.57,0,0,0,.34,0c2.4,0,4.8,0,7.2.05l6,.05c2.86,0,5.72.08,8.59.07.08,0,.17,0,.26,0s.08.06.09.1a1.63,1.63,0,0,1,.08.44,18,18,0,0,1,0,1.94,17.21,17.21,0,0,0,.05,2.27,4.41,4.41,0,0,1,0,.89.2.2,0,0,1-.07.15c-.13,0-.12-.14-.13-.24,0-.33,0-.66,0-1a13.34,13.34,0,0,1,0-2c.05-.72.11-1.43.09-2.15,0,0,0-.09,0-.12a1.42,1.42,0,0,0-.58.34c-.66.42-1.29.88-2,1.27l0,0,.41-.32c.5-.39,1-.74,1.54-1.1a.21.21,0,0,0,.12-.11L13.28,17l.14.11c.44.31.88.61,1.32.93a1.13,1.13,0,0,1,.29.25h0s-.09,0-.13,0a13.14,13.14,0,0,1-1.78-1.14.62.62,0,0,0-.17-.11.3.3,0,0,0,0,.16c0,.48.05,1,.06,1.46,0,.89-.05,1.78-.08,2.67a.08.08,0,0,0,0,.09c0,.46,0,.92,0,1.38,0,0,0,.05,0,.05l4.09,0h2.72l11.64,0c.3,0,.29,0,.27-.3-.1-1.05-.22-2.1-.29-3.15,0,0,0-.08,0-.11l-.07.32,0-.16c0,.07-.11.14,0,.22s0,.38,0,.57l.15,2.11c0,.1,0,.2,0,.3s0,.16-.11.17-.1-.09-.12-.15a.43.43,0,0,1,0-.11c-.08-.95-.12-1.9-.13-2.85,0-.11,0-.14-.13-.14h-1l-9.13,0c-.92,0-1.85,0-2.78,0,0,0-.09,0-.07,0s0,.19,0,.29c-.07.95-.13,1.91-.26,2.85-.13-.08-.12-.22-.13-.34a8.22,8.22,0,0,1,0-1.11c.05-.54.13-1.07.2-1.61,0,0,0-.09,0-.13a5.2,5.2,0,0,1-.38-.51c0,.12,0,.21,0,.3,0,.68,0,1.35,0,2a8.42,8.42,0,0,1,0,1.23s0,.09-.05.1-.06,0-.09-.05l0-.24a.09.09,0,0,0,0-.11v-.46a.41.41,0,0,0,0-.19V20.5a.41.41,0,0,0,0-.19v-.4a.14.14,0,0,0,0-.14l0-.27a.08.08,0,0,0,0-.09l0-.21a.07.07,0,0,0,0-.06,2.51,2.51,0,0,1,0-.27c0-.06,0-.13.09-.15s.11.05.14.11a.2.2,0,0,0,.22.1c.22,0,.44,0,.66,0l3.89-.06,9.07-.13.3,0c.09,0,.17,0,.17.12s-.06.13-.15.13-.05,0-.07,0a3.57,3.57,0,0,1,.11.55c.11,1,.21,2.06.29,3.09,0,.11,0,.24,0,.31s.21,0,.32,0h2.6c.29,0,.58,0,.87,0h.12A.28.28,0,0,0,36,22.93ZM40.73.47a.73.73,0,0,0,0,.36l0-.36c0-.09,0-.17,0-.26a.05.05,0,0,0,0-.06s0,0,0,.06A.46.46,0,0,0,40.73.47ZM29.86,29.72a.12.12,0,0,0,0-.1s-.05.05-.05.09a.74.74,0,0,1-.41.35.84.84,0,0,1-.47,0,.86.86,0,0,1-.5-.58,1.23,1.23,0,0,1-.05-.57v-.05a1.87,1.87,0,0,1,.07-.22.86.86,0,0,1,.76-.55s0,0,.06,0a.9.9,0,0,1,.56.45s0,.07.05.09a.17.17,0,0,0,0-.1v-.37c0-.1,0-.2,0-.28H28.76a.08.08,0,0,0-.07,0h-.26c-.06,0-.1,0-.1.06a.67.67,0,0,0,0,.2v.54a.3.3,0,0,0,0,.21l0,.52a0,0,0,0,0,0,.06c0,.18,0,.35,0,.53s0,.12.1.12h.57a2.69,2.69,0,0,0,.49,0h.08a.55.55,0,0,0,.22,0c.12,0,.18,0,.16-.14A2.61,2.61,0,0,1,29.86,29.72Zm-2.38,3c0-.57.07-1.13.11-1.69,0-.1-.05-.09-.12-.09s-.1,0-.1.09c0,.56.05,1.13.05,1.69s0,.86-.06,1.29,0,1.17,0,1.76c0,.09,0,.19.17.17a.24.24,0,0,1-.11-.19,15.52,15.52,0,0,1,0-1.93A10,10,0,0,0,27.48,32.73Zm-8,3a.21.21,0,0,0-.19-.07.71.71,0,0,1-.55-.26l-.17-.19h0v.5c0,.05,0,.08.07.08h.88c.44,0,.88.06,1.33.07.09,0,.05-.06.05-.1l-.09-1.06V34.1a1.51,1.51,0,0,0,0,.3,3,3,0,0,1,0,.31,5.58,5.58,0,0,0-.13,1,3.21,3.21,0,0,1,0-.51s0-.06,0-.07,0,0,0,0a.79.79,0,0,1-.3.3A.93.93,0,0,1,19.46,35.7Zm2.2-5.48a7.38,7.38,0,0,0-1.15,0c-.06,0-.08,0-.08.08v.42c0,.06,0,.08.09.08h.87c.14,0,.33.06.4,0s0-.27,0-.4S21.76,30.19,21.66,30.22Zm-1.55-1.17a.34.34,0,0,0,0-.2l0-.48a.14.14,0,0,0,0-.11.75.75,0,0,1,0-.15c0-.1,0-.13-.12-.12H18.78s-.09,0-.09,0,0-.06.08-.06l.15,0,.67,0,.94,0a1.09,1.09,0,0,0,.36,0h.65a2.28,2.28,0,0,0,.9,0h.33l3.6-.05h2.46l.94,0c.07,0,.09,0,.07-.09a1,1,0,0,1-.06-.42c0-.12,0-.24,0-.36a1.64,1.64,0,0,1,0-.22c0-.12,0-.14-.14-.14H18.76s-.09,0-.07,0,0,.25,0,.38c0,.39,0,.78,0,1.17,0,.65,0,1.29,0,1.93,0,.05,0,.11.08.1.3,0,.6,0,.9,0h.44c.08,0,.1,0,.1-.1s0-.22,0-.32a.34.34,0,0,0,0-.2Zm-.62,6.46a.77.77,0,0,0,.3,0,1.13,1.13,0,0,0,.43-1.85.6.6,0,0,0-.45-.31l-.45,0a.32.32,0,0,0-.13,0,.93.93,0,0,0-.52.51,1.54,1.54,0,0,0-.1.82A1,1,0,0,0,19.49,35.51Zm.1-4.73c.16,0,.33,0,.49,0s.08,0,.08-.09,0-.28,0-.41,0-.1-.09-.1h-.45c-.29,0-.58,0-.88,0-.09,0-.11,0-.11.12,0,.45,0,.89,0,1.34,0,.13,0,.26,0,.39,0,.42,0,.85,0,1.27,0,0,0,.07,0,.08s.05,0,.07,0,.21-.27.4-.32c0,0,0,0,0-.08,0-.49.05-1,0-1.47a2.74,2.74,0,0,1,0-.5.11.11,0,0,1,.1-.13C19.38,30.8,19.48,30.8,19.59,30.78ZM19.7,33a0,0,0,0,0,.06,0,1.64,1.64,0,0,1,.65.41.28.28,0,0,0,.24.1l0,.56h0l0-.56c0-.6-.13-1.19-.18-1.78a0,0,0,0,0,0-.06l0-.26a.08.08,0,0,0,0-.09c0-.17-.09-.09-.16-.08s0,0-.05,0h-.49a.06.06,0,0,0-.08,0h-.1c-.09,0-.14,0-.14.09l0,1.55c0,.11,0,.14.14.11Zm2.4-3.17c0,.28,0,.55-.05.83,0,.11,0,.14.14.14l2.91,0,2.83,0c.11,0,.14,0,.12-.13a1.73,1.73,0,0,1,0-.39c0-.27,0-.53,0-.8,0-.44,0-.88.05-1.33,0-.12,0-.17-.16-.16l-1.91,0-3.69,0c-.1,0-.16,0-.16.14s0,.42,0,.63S22.08,29.45,22.1,29.8Zm-2.29-6.68h-1c-.05,0-.11,0-.1.07a6.15,6.15,0,0,1,0,1c0,.09,0,.12.13.11.3,0,.6-.07.91-.06H22.3a.11.11,0,0,0,.11,0l2.22,0a.11.11,0,0,0,.11,0c1.23,0,2.47,0,3.7,0a3.77,3.77,0,0,0,1.06,0c.08,0,.1,0,.1-.12a6.33,6.33,0,0,1,0-.87c0-.08,0-.1-.1-.1h-5.2a2.91,2.91,0,0,0-.59,0H19.81ZM19.49,36c-.25,0-.5,0-.74,0s-.25,0-.24.17,0,.05,0,.09H22.1l6.37,0h1.19s.08,0,.08,0,0,0-.07,0l-.43,0-.63,0-.61,0a3.76,3.76,0,0,1-.58,0l-.13,0c-.2,0-.26,0-.27-.23v-.53a.44.44,0,0,1-.27,0c-.16,0-.31,0-.47,0-1.22,0-2.43-.09-3.64-.09l-1.53,0c-.06,0-.13,0-.13-.06s.08-.07.13-.07c.25,0,.5,0,.75,0s.76,0,1.14,0,.82,0,1.23,0,.63.08.94.08.67,0,1,0h.72c.1,0,.12,0,.12-.12a6.17,6.17,0,0,1,0-.86c0-.11,0-.14-.13-.14-.62,0-1.24,0-1.86,0a6.6,6.6,0,0,0-.77,0c-.28,0-.57,0-.85,0-.45,0-.9,0-1.35,0s-.69,0-1,0c-.08,0-.11,0-.12.1-.05.6,0,1.2,0,1.8,0,.18,0,.2-.17.2ZM26,26.26h2.91a3.37,3.37,0,0,0,.55,0c.31,0,.31,0,.28-.29a.07.07,0,0,0,0-.06l0-.21a.09.09,0,0,0,0-.12V25.3s0,0,0-.05V25a2.55,2.55,0,0,0,0-.39s0,0-.05-.05a1.83,1.83,0,0,0-.57-.08c-.3,0-.6,0-.89,0-3.11,0-6.21,0-9.32-.12-.08,0-.1,0-.11.09a3,3,0,0,0,0,.31c0,.41,0,.81,0,1.21,0,.13-.08.3,0,.36s.25,0,.38,0a11.62,11.62,0,0,0,1.18,0h2.08l3.51,0Zm-7.71-.37h.11c.13,0,.14,0,.14-.15,0-.27,0-.54,0-.82,0-.44-.05-.88,0-1.31,0-.13,0-.26,0-.38s0-.13-.12-.13H16.77c-3.35,0-6.7,0-10-.06-.09,0-.1,0-.1.11,0,.37,0,.75,0,1.12,0,.55-.06,1.09-.1,1.64,0,.12,0,.14.15.13l.56,0c3-.07,6,.06,9.06-.1l.86,0C17.48,25.9,17.87,25.91,18.26,25.89Zm.1,3.59c0-.18,0-.36,0-.54,0-.53.12-1.05.09-1.57,0-.11,0-.21,0-.32s0-.25-.25-.27-.31-.1-.47-.1l-2,0h-.15c-3,0-6-.06-9-.12-.13,0-.17,0-.17.17,0,.58-.07,1.16-.1,1.74-.07,1.09-.15,2.18-.19,3.27a1.51,1.51,0,0,1,0,.42,2,2,0,0,0,0,.55C6,33.43,6,34.19,5.91,35c0,.4,0,.79-.07,1.19,0,.18,0,.19.16.19,1.16,0,2.32,0,3.47,0l8.54,0s.12,0,.16,0,.1,0,.13,0a.42.42,0,0,0,0-.16c0-.28,0-.56,0-.84,0-.5,0-1,0-1.49,0-.33,0-.67,0-1,0-.51.05-1,0-1.52,0-.26,0-.52,0-.77A6.54,6.54,0,0,1,18.36,29.48ZM40.89,26.1h.67c.09,0,.1,0,.09-.11s0-.41,0-.62c0-.68,0-1.35,0-2,0-.08,0-.12-.1-.13H41l-6.23,0h-3c-.52,0-1.05,0-1.58,0-.07,0-.12,0-.1.09a23.66,23.66,0,0,1,.16,3,2.73,2.73,0,0,1-.05.4,2.87,2.87,0,0,1-.13-.7c0-.49,0-1-.1-1.47a7.69,7.69,0,0,1,0-1.27c0-.06,0-.08-.07-.09s-.11,0-.11.12a11.49,11.49,0,0,0,.07,1.55,6.48,6.48,0,0,0,.06.77A10.57,10.57,0,0,1,30,27.06c.06,1.3,0,2.61,0,3.92,0,.89,0,1.77-.09,2.65s0,1.62,0,2.43c0,.13,0,.15.16.15H36c1.88,0,3.76,0,5.63,0,.09,0,.1,0,.09-.11,0-.36,0-.72,0-1.08,0-1.52,0-3,0-4.55,0-1.24-.05-2.48-.07-3.72,0-.09-.05-.1-.13-.11l-1.15,0-1.85,0H38.4l-4.69-.06c-1.08,0-2.17,0-3.26-.07a.26.26,0,0,1-.15,0c0-.06.06,0,.09,0,.29,0,.57,0,.86,0l4,0c2.08,0,4.15.07,6.23,0,0,0,.12,0,.12-.05s-.07-.05-.11-.05c-.56,0-1.11-.05-1.67-.06l-8.41-.06-1.07,0s-.09,0-.08-.05,0-.09.08-.08h.19l7.94.06C39.31,26.09,40.1,26.12,40.89,26.1ZM27.26,31H21.09c-.06,0-.14,0-.13.09s0,.32,0,.49c0,.72,0,1.44,0,2.16,0,.09,0,.12.12.11h5.18c.23,0,.45,0,.68,0s.14-.05.15-.17c0-.75.07-1.5.1-2.25A.59.59,0,0,1,27.26,31Zm.41,2.61c0,.6,0,1.29,0,2,0,.28,0,.28.29.28l1.62,0c.19,0,.19,0,.19-.18,0-.42,0-.83,0-1.25l0-.65c0-.21,0-.43,0-.64s0-.45,0-.67,0-.38,0-.57,0-.61,0-.91c0-.15,0-.17-.18-.12a.19.19,0,0,0-.07.06.24.24,0,0,1-.16.05c-.56-.05-1.12,0-1.68,0-.08,0-.09,0-.08.09s0,.26,0,.39C27.7,32.11,27.68,32.79,27.67,33.56ZM17.51,19.05l.16.23a.36.36,0,0,0,.38.18,2.67,2.67,0,0,1,.4,0l2.28,0c2.74,0,5.47,0,8.21,0,.64,0,1.29,0,1.94,0a.31.31,0,0,1,.32.08,1.7,1.7,0,0,1-.06-.42c0-.13,0-.14-.15-.14l-4.35,0c-2.64,0-5.28.07-7.92.08Zm-5,7.13c-2,0-3.93,0-5.89,0-.11,0-.13,0-.13.13s.07.08.13.09l6.88.07c1.64,0,3.29.07,4.94,0,.07,0,.1,0,.08-.09v-.08c0-.1,0-.14-.12-.13-.42,0-.84,0-1.26,0ZM21.78,29h0v-.9c0-.07,0-.12-.09-.12H20.34c-.07,0-.09,0-.08.1.08.6.12,1.2.15,1.81,0,.09,0,.12.13.12a6.2,6.2,0,0,1,1.14,0c.09,0,.1,0,.1-.11Zm7.87.13a.8.8,0,0,0-.24-.65.47.47,0,0,0-.72,0,.94.94,0,0,0,.1,1.19.46.46,0,0,0,.74-.1A.81.81,0,0,0,29.65,29.13ZM29,30.34l-.63,0s-.09,0-.1.05a.76.76,0,0,0,0,.3c0,.05.14,0,.22,0h.17a4.82,4.82,0,0,0,.76,0c.11,0,.2,0,.28.07a.2.2,0,0,0,.2.06s0-.1,0-.15a1.76,1.76,0,0,1,0-.23c0-.09,0-.11-.12-.1A7,7,0,0,1,29,30.34Zm-8.13,3.21V33c0-.62,0-1.24,0-1.86,0,0,0-.08,0-.09a.08.08,0,0,0-.1,0,.27.27,0,0,0,0,.09l.06,2.23S20.76,33.53,20.82,33.55Zm1.15-3h0c0,.07,0,.14,0,.2s0,.06,0,.06,0,0,0-.06S22,30.58,22,30.51Z"/><path class="cls-5" d="M34.69,17.6a1.42,1.42,0,0,1,.58-.34s0,.08,0,.12c0,.72,0,1.43-.09,2.15a13.34,13.34,0,0,0,0,2c0,.34,0,.67,0,1,0,.1,0,.21.13.24s0,.14.13.13.11,0,.15,0c-.29,0-.58,0-.87,0a1.32,1.32,0,0,1,0-.26c0-.76-.13-1.51-.12-2.27,0-.45,0-.9,0-1.35S34.67,18.08,34.69,17.6Z"/><path class="cls-5" d="M36,22.93a.28.28,0,0,1-.18,0A.13.13,0,0,1,36,22.93Z"/><path class="cls-4" d="M34.69,17.6c0,.48,0,1,0,1.44s0,.9,0,1.35c0,.76.09,1.51.12,2.27a1.32,1.32,0,0,0,0,.26H32.2c-.11,0-.24,0-.32,0s0-.2,0-.31c-.08-1-.18-2.06-.29-3.09a3.57,3.57,0,0,0-.11-.55s0,0,.07,0,.15,0,.15-.13-.08-.13-.17-.12l-.3,0-9.07.13-3.89.06c-.22,0-.44,0-.66,0a.2.2,0,0,1-.22-.1c0-.06-.07-.12-.14-.11s-.08.09-.09.15a2.51,2.51,0,0,0,0,.27s0,0,0,.06l0,.21s0,.06,0,.09l0,.27a.12.12,0,0,0,0,.14v.4a.17.17,0,0,0,0,.19v1.2a.17.17,0,0,0,0,.19v.46a.08.08,0,0,0,0,.11l0,.24c-.05.05,0,.12,0,.18l-4.09,0s0,0,0-.05c0-.46,0-.92,0-1.38a.06.06,0,0,0,0-.09c0-.89.08-1.78.08-2.67,0-.49,0-1-.06-1.46a.3.3,0,0,1,0-.16.62.62,0,0,1,.17.11A13.14,13.14,0,0,0,14.9,18.3s.08.06.13,0c.06.12.19.12.3.17s0,0,.05,0,0,0,0,0-.18-.16-.31-.14a1.13,1.13,0,0,0-.29-.25c-.44-.32-.88-.62-1.32-.93L13.28,17l21.48.28a.21.21,0,0,1-.12.11c-.52.36-1,.71-1.54,1.1l-.41.32s0,0,0,0,0,0,0,0C33.4,18.48,34,18,34.69,17.6Zm-2.32,1.48s.07,0,.08-.07a.09.09,0,0,0-.1,0l0,0S32.35,19.09,32.37,19.08Zm.29-.17s0,0,0,0h0a.32.32,0,0,0-.19.14A.33.33,0,0,0,32.66,18.91Zm-.36.2h0Z"/><path class="cls-4" d="M36,36.19H30.16c-.12,0-.16,0-.16-.15,0-.81-.05-1.62,0-2.43s.12-1.76.09-2.65c0-1.31,0-2.62,0-3.92a10.57,10.57,0,0,0-.13-1.49,6.48,6.48,0,0,1-.06-.77,11.49,11.49,0,0,1-.07-1.55c0-.09,0-.12.11-.12s.07,0,.07.09a7.69,7.69,0,0,0,0,1.27c.06.49.06,1,.1,1.47a2.87,2.87,0,0,0,.13.7,2.73,2.73,0,0,0,.05-.4,23.66,23.66,0,0,0-.16-3c0-.1,0-.09.1-.09.53,0,1.06,0,1.58,0h3l6.23,0h.15c0,.22,0,.45,0,.67a12.14,12.14,0,0,1,0,1.81.16.16,0,0,1-.06.13.59.59,0,0,0-.18.29c-.79,0-1.58,0-2.37,0L30.58,26h-.19c-.07,0-.07,0-.08.08s.05.05.08.05l1.07,0,8.41.06c.56,0,1.11,0,1.67.06,0,0,.11,0,.11.05s-.08.05-.12.05c-2.08,0-4.15,0-6.23,0l-4,0c-.29,0-.57,0-.86,0,0,0-.07,0-.09,0a.26.26,0,0,0,.15,0c1.09.05,2.18.06,3.26.07l4.69.06h.14a1.52,1.52,0,0,0,0,1.09l-.12-.07A4.48,4.48,0,0,0,31.63,32a4.47,4.47,0,0,0,3.13,3.78A4.31,4.31,0,0,0,36,36Zm-5.66-6.72c-.1.08-.06.17,0,.25a.23.23,0,0,0,.28.1.36.36,0,0,0,.19-.13c.29-.28.54-.6.84-.86a4.5,4.5,0,0,0,.64-.67,3.24,3.24,0,0,1,.36-.38,3.82,3.82,0,0,0,.36-.34.34.34,0,0,0,.09-.31.18.18,0,0,0-.14-.16c-.07,0-.14,0-.19,0l-.26,0c-.43-.05-.87,0-1.3-.08a3.66,3.66,0,0,0-.81,0c-.06,0-.09,0-.09.1s0,.29,0,.44c0,.57,0,1.13,0,1.7A1.23,1.23,0,0,0,30.32,29.47Zm9.06-5a.85.85,0,0,0,.85.89.86.86,0,0,0,.9-.84.9.9,0,0,0-.88-.89.87.87,0,0,0-.61.24A.66.66,0,0,0,39.38,24.46Z"/><path class="cls-4" d="M18.36,29.48a6.54,6.54,0,0,0,0,1c0,.25,0,.51,0,.77,0,.5,0,1,0,1.52,0,.33,0,.67,0,1,0,.5,0,1,0,1.49,0,.28,0,.56,0,.84a.42.42,0,0,1,0,.16c0,.08-.06.11-.13,0s-.11,0-.16,0l-8.54,0c-1.15,0-2.31,0-3.47,0-.16,0-.17,0-.16-.19,0-.4,0-.79.07-1.19,0-.76.1-1.52.16-2.28a2,2,0,0,1,0-.55,1.51,1.51,0,0,0,0-.42c0-1.09.12-2.18.19-3.27,0-.58.07-1.16.1-1.74,0-.13,0-.17.17-.17,3,.06,6,.09,9,.12h.15c0,.06,0,.11,0,.17s0,.18.11.22,0,.09,0,.1a.74.74,0,0,1,.35.3c.17.21.42.35.51.63l0,0c.08,0,.12.07.17.12a10.76,10.76,0,0,1,.77,1,1,1,0,0,1,.19.34s0,.1.08.09.08,0,.09-.09l0-.11A1.12,1.12,0,0,0,18.36,29.48Zm-1.57,1.83a4.4,4.4,0,0,0-1.93-3.51A5,5,0,0,0,12.62,27h-.09a.31.31,0,0,1-.23,0,4.72,4.72,0,0,0-2.25.47,4.45,4.45,0,0,0-2,6.23,4.74,4.74,0,0,0,5.39,2.1A4.64,4.64,0,0,0,16.79,31.31Zm-8.5,3.4a1.14,1.14,0,0,0-1.11-1.12,1.22,1.22,0,0,0-1.06,1.12,1.11,1.11,0,0,0,1.08,1.1A1.08,1.08,0,0,0,8.29,34.71Z"/><path class="cls-4" d="M18.26,25.89c-.39,0-.78,0-1.16,0l-.86,0c-3,.16-6,0-9.06.1l-.56,0c-.12,0-.15,0-.15-.13,0-.55.07-1.09.1-1.64,0-.37,0-.75,0-1.12,0-.08,0-.11.1-.11,3.35.07,6.7,0,10.05.06H18.4c.1,0,.13,0,.12.13s0,.25,0,.38c-.14,0-.21.06-.23.19a1.27,1.27,0,0,0,0,.28C18.23,24.69,18.24,25.29,18.26,25.89ZM9.12,24.34a1.28,1.28,0,0,0,0-.17,1,1,0,0,0-1.16-.9.91.91,0,0,0-.57.32.87.87,0,0,0-.29.56,2.53,2.53,0,0,0,0,.55,1,1,0,0,0,1.17.82A1.21,1.21,0,0,0,9.12,24.34Z"/><path class="cls-4" d="M27.26,31a.59.59,0,0,0-.11.37c0,.75-.07,1.5-.1,2.25,0,.12,0,.16-.15.17s-.45,0-.68,0H21c-.09,0-.12,0-.12-.11,0-.72,0-1.44,0-2.16,0-.17,0-.33,0-.49S21,31,21.09,31h6.17Z"/><path class="cls-5" d="M36,36.19V36h0a4.52,4.52,0,0,0,3.25-1.25s.07-.1.15-.11a.69.69,0,0,0,0,.51c0,.13.11.25.17.38a.79.79,0,0,0,.49.42,1.51,1.51,0,0,0,.56.07,1,1,0,0,0,.89-.8A1.18,1.18,0,0,0,41,34a1.05,1.05,0,0,0-.78-.05c-.1,0-.18.1-.31.07.09-.08,0-.18,0-.27A5.14,5.14,0,0,0,40.52,32a4.35,4.35,0,0,0-1-3.43,4.41,4.41,0,0,0-1-.93,1.52,1.52,0,0,1,0-1.09l1.85,0,1.15,0c.08,0,.12,0,.13.11,0,1.24.07,2.48.07,3.72,0,1.51,0,3,0,4.55,0,.36,0,.72,0,1.08,0,.07,0,.1-.09.11-1.87,0-3.75,0-5.63,0Z"/><path class="cls-4" d="M29.68,25.69l0,.21s0,0,0,.06c0,.29,0,.29-.28.29,0,0-.06,0-.09,0H26.53s-.09,0-.11,0H26s-.07,0-.1,0l-1.75,0-.71,0-1.11,0s-.07,0-.09,0H20.27a2.44,2.44,0,0,0-.54,0c-.12,0-.15,0-.15-.16,0-.39,0-.78.06-1.17,0-.08,0-.1.1-.1.4,0,.81,0,1.21,0,1.1,0,2.2,0,3.3,0,.59,0,1.18,0,1.77,0h1.07l1.76,0a2.18,2.18,0,0,0,.51,0c.13,0,.24,0,.27.14v.27s0,0,0,.05v.27A.18.18,0,0,0,29.68,25.69Z"/><path class="cls-4" d="M19.49,36l1.26,0c.18,0,.18,0,.17-.2,0-.6-.06-1.2,0-1.8,0-.09,0-.1.12-.1.34,0,.68,0,1,0s.9,0,1.35,0c.28,0,.57,0,.85,0A6.6,6.6,0,0,1,25,34c.62,0,1.24,0,1.86,0,.1,0,.14,0,.13.14A6.17,6.17,0,0,0,27,35c0,.1,0,.13-.12.12h-.72c-.33,0-.66,0-1,0s-.63-.06-.94-.08-.82,0-1.23,0-.76,0-1.14,0-.5,0-.75,0c-.05,0-.13,0-.13.07s.07.06.13.06l1.53,0c1.21,0,2.42.06,3.64.09.16,0,.31,0,.47,0a.44.44,0,0,0,.27,0v.53c0,.2.07.25.27.23l.13,0a3.76,3.76,0,0,0,.58,0l.61,0,.63,0,.43,0s.07,0,.07,0,0,0-.08,0H28.47l-6.37,0H19.44C19.46,36.17,19.44,36.09,19.49,36Z"/><path class="cls-4" d="M24.33,23.13h5.2c.08,0,.1,0,.1.1a6.33,6.33,0,0,0,0,.87c0,.07,0,.09-.1.12a3.77,3.77,0,0,1-1.06,0c-1.23,0-2.47,0-3.7,0a.08.08,0,0,0-.11,0l-2.22,0a.08.08,0,0,0-.11,0H19.73a.37.37,0,0,1,0-.11,2.39,2.39,0,0,0,.07-1h3.93A1.47,1.47,0,0,0,24.33,23.13Z"/><path class="cls-4" d="M20.53,27.83l-.94,0c0-.3,0-.6,0-.9,0-.07,0-.11.11-.1a11.83,11.83,0,0,0,1.19,0c.3,0,.61,0,.91,0,.48,0,1-.11,1.44-.12s1,0,1.48,0,1.21,0,1.82,0h.68c.71,0,1.43.06,2.14.1h.42c0,.12,0,.24,0,.36a1,1,0,0,0,.06.42c0,.06,0,.08-.07.09l-.94,0H26.47s-.08,0-.12,0c-1.19,0-2.37,0-3.56,0,0,0-.09,0-.11,0h-.24a4.52,4.52,0,0,0-.9,0h-.65A.56.56,0,0,0,20.53,27.83Z"/><path class="cls-5" d="M22.1,29.8c0-.35,0-.71,0-1.06s0-.42,0-.63.06-.14.16-.14l3.69,0,1.91,0c.13,0,.16,0,.16.16,0,.45,0,.89-.05,1.33a3.43,3.43,0,0,1-.44.09c-.51,0-1,0-1.53,0a21.69,21.69,0,0,0-3.22.14A1.44,1.44,0,0,0,22.1,29.8Z"/><path class="cls-4" d="M27.67,33.56c0-.77,0-1.45,0-2.13,0-.13,0-.26,0-.39s0-.1.08-.09c.56,0,1.12,0,1.68,0a.24.24,0,0,0,.16-.05.19.19,0,0,1,.07-.06c.14-.05.18,0,.18.12,0,.3,0,.6,0,.91s0,.38,0,.57,0,.44,0,.67,0,.43,0,.64l0,.65c0,.42,0,.83,0,1.25,0,.18,0,.19-.19.18l-1.62,0c-.28,0-.28,0-.29-.28C27.64,34.85,27.63,34.16,27.67,33.56Zm.94-1.49h.16c.05,0,.11,0,.11-.06s.06-.12.1-.18a.37.37,0,0,0,.07-.23.6.6,0,0,0-.43-.56.55.55,0,0,0-.54.16.44.44,0,0,0-.07.51A.53.53,0,0,0,28.61,32.07Zm-.84,2.21a.93.93,0,0,0,.16.6.52.52,0,0,0,.73.12.92.92,0,0,0,0-1.38.49.49,0,0,0-.69.13A1.11,1.11,0,0,0,27.77,34.28Z"/><path class="cls-4" d="M22.1,29.8a1.44,1.44,0,0,1,.73-.18,21.69,21.69,0,0,1,3.22-.14c.51,0,1,0,1.53,0a3.43,3.43,0,0,0,.44-.09c0,.27,0,.53,0,.8a1.73,1.73,0,0,0,0,.39c0,.1,0,.13-.12.13l-2.83,0-2.91,0c-.12,0-.15,0-.14-.14C22.07,30.35,22.08,30.08,22.1,29.8Z"/><path class="cls-5" d="M29.63,25c0-.17-.14-.16-.27-.14a2.17,2.17,0,0,1-.51,0l-1.76,0H26c-.59,0-1.18,0-1.77,0-1.1,0-2.2-.06-3.3,0-.4,0-.81,0-1.21,0-.07,0-.1,0-.1.1,0,.39,0,.78-.06,1.17,0,.12,0,.16.15.16a2.44,2.44,0,0,1,.54,0,11.62,11.62,0,0,1-1.18,0c-.13,0-.29.05-.38,0s0-.23,0-.36c0-.4,0-.8,0-1.21a3,3,0,0,1,0-.31c0-.07,0-.09.11-.09,3.11.08,6.21.1,9.32.12.29,0,.59,0,.89,0a1.83,1.83,0,0,1,.57.08s.05,0,.05.05A2.55,2.55,0,0,1,29.63,25Z"/><path class="cls-5" d="M29.77,26.82h-.42c-.71,0-1.43-.1-2.14-.1h-.68c-.61,0-1.22,0-1.82,0s-1,0-1.48,0-1,.08-1.44.12c-.3,0-.61,0-.91,0a11.83,11.83,0,0,1-1.19,0c-.08,0-.11,0-.11.1,0,.3,0,.6,0,.9l-.67,0-.15,0s-.09,0-.08.06,0,0,.09,0h.82a.57.57,0,0,0,0,.13l0,1.84V30c-.3,0-.6,0-.9,0-.09,0-.08,0-.08-.1,0-.64,0-1.28,0-1.93,0-.39,0-.78,0-1.17,0-.13.1-.25,0-.38s0,0,.07,0H29.61c.1,0,.15,0,.14.14A1.64,1.64,0,0,0,29.77,26.82Z"/><path class="cls-5" d="M17.51,19.05h1.21C21.36,19,24,19,26.64,19l4.35,0c.11,0,.16,0,.15.14a1.7,1.7,0,0,0,.06.42.31.31,0,0,0-.32-.08c-.65,0-1.3,0-1.94,0-2.74,0-5.47,0-8.21,0l-2.28,0a2.67,2.67,0,0,0-.4,0,.36.36,0,0,1-.38-.18Z"/><path class="cls-4" d="M12.47,26.18H17.1c.42,0,.84,0,1.26,0,.11,0,.14,0,.12.13v.08c0,.08,0,.09-.08.09-1.65,0-3.3,0-4.94,0l-6.88-.07c-.06,0-.14,0-.13-.09s0-.13.13-.13C8.54,26.2,10.51,26.18,12.47,26.18Z"/><path class="cls-5" d="M21.78,29v.91c0,.08,0,.12-.1.11a6.2,6.2,0,0,0-1.14,0c-.1,0-.12,0-.13-.12,0-.61-.07-1.21-.15-1.81,0-.07,0-.1.08-.1h1.34c.09,0,.09.05.09.12V29Z"/><path class="cls-4" d="M20.49,31.38l0,.26a0,0,0,0,0,0,.06c0,.59.18,1.18.18,1.78h0a.28.28,0,0,1-.24-.1,1.64,1.64,0,0,0-.65-.41s0,0-.06,0l-.13,0a.21.21,0,0,1,0-.14c0-.5,0-1,0-1.49a.42.42,0,0,1,0-.12h.1s.05,0,.08,0h.49s0,0,.05,0,.18-.09.16.08S20.46,31.35,20.49,31.38Z"/><path class="cls-5" d="M18.36,29.48a1.12,1.12,0,0,1-.31,0,9.4,9.4,0,0,1,0-1.4c-.09-.13,0-.27,0-.41a.58.58,0,0,1,.05-.28.5.5,0,0,0,0-.34c0-.05-.15,0-.24,0h0a8.42,8.42,0,0,1-.87,0l-1.14,0c-.1,0-.1-.14-.11-.22s0-.11,0-.17l2,0c.16,0,.31.09.47.1s.25,0,.25.27,0,.21,0,.32c0,.52-.1,1-.09,1.57C18.39,29.12,18.37,29.3,18.36,29.48Z"/><path class="cls-5" d="M19.59,30.78c-.11,0-.21,0-.32,0a.11.11,0,0,0-.1.13,2.74,2.74,0,0,0,0,.5c0,.49-.05,1,0,1.47,0,0,0,.07,0,.08-.19.05-.28.2-.4.32s0,.06-.07,0,0,0,0-.08c0-.42,0-.85,0-1.27,0-.13,0-.26,0-.39,0-.45,0-.89,0-1.34,0-.08,0-.12.11-.12.3,0,.59,0,.88,0C19.61,30.38,19.62,30.58,19.59,30.78Z"/><path class="cls-5" d="M40.89,26.1a.59.59,0,0,1,.18-.29.16.16,0,0,0,.06-.13,12.14,12.14,0,0,0,0-1.81c0-.22,0-.45,0-.67h.37c.09,0,.1.05.1.13,0,.68,0,1.35,0,2,0,.21,0,.41,0,.62s0,.11-.09.11Z"/><path class="cls-4" d="M29.65,29.13a.81.81,0,0,1-.12.47.46.46,0,0,1-.74.1.94.94,0,0,1-.1-1.19.47.47,0,0,1,.72,0A.8.8,0,0,1,29.65,29.13Z"/><path class="cls-5" d="M19.49,35.51a1,1,0,0,1-.92-.89,1.54,1.54,0,0,1,.1-.82.93.93,0,0,1,.52-.51.32.32,0,0,1,.13,0l.45,0a.6.6,0,0,1,.45.31l0,.06L20,33.52a.55.55,0,0,0-.86.09.92.92,0,0,0-.14.74c.06.27.29.38.48.52C19.51,35.08,19.47,35.29,19.49,35.51Z"/><path class="cls-5" d="M19.81,23.12a2.39,2.39,0,0,1-.07,1,.37.37,0,0,0,0,.11c-.31,0-.61,0-.91.06-.1,0-.13,0-.13-.11a6.15,6.15,0,0,0,0-1c0-.09.05-.07.1-.07Z"/><path class="cls-5" d="M17.58,22.8v.08H17c0-.06,0-.13,0-.18s0,.08.09.05.05-.06.05-.1a8.42,8.42,0,0,0,0-1.23c0-.67,0-1.34,0-2,0-.09,0-.18,0-.3a5.2,5.2,0,0,0,.38.51s0,.09,0,.13c-.07.54-.15,1.07-.2,1.61a8.22,8.22,0,0,0,0,1.11C17.46,22.58,17.45,22.72,17.58,22.8Z"/><path class="cls-4" d="M19.62,30V30l0-1.84a.57.57,0,0,1,0-.13H20c.09,0,.13,0,.12.12a.75.75,0,0,0,0,.15.07.07,0,0,0,0,.11l0,.48a.2.2,0,0,0,0,.2l0,.37a.2.2,0,0,0,0,.2c0,.1,0,.21,0,.32s0,.1-.1.1Z"/><path class="cls-4" d="M20.2,33.69l0-.06a1.13,1.13,0,0,1-.43,1.85.77.77,0,0,1-.3,0c0-.22,0-.43,0-.64a.7.7,0,0,0,.83-.69A1.2,1.2,0,0,0,20.2,33.69Z"/><path class="cls-4" d="M29.83,28.56a.9.9,0,0,0-.56-.45s0,0-.06,0a.86.86,0,0,0-.76.55,1.87,1.87,0,0,0-.07.22c-.09,0,0-.13-.06-.17v-.54c.05,0,0-.08,0-.12a.16.16,0,0,1,.07-.14h.26s0,0,0,0a0,0,0,0,0,0,0h.88s0,0,0,0l0,0h.16c0,.09,0,.19,0,.28v.37Z"/><path class="cls-5" d="M18.26,25.89c0-.6,0-1.2,0-1.8a1.27,1.27,0,0,1,0-.28c0-.13.09-.21.23-.19,0,.43,0,.87,0,1.31,0,.28,0,.55,0,.82,0,.11,0,.18-.14.15Z"/><path class="cls-4" d="M29,30.34a7,7,0,0,0,.8,0c.08,0,.12,0,.12.1a1.76,1.76,0,0,0,0,.23c0,.05,0,.14,0,.15a.2.2,0,0,1-.2-.06c-.08-.1-.17-.09-.28-.07a4.82,4.82,0,0,1-.76,0h-.17c-.08,0-.2,0-.22,0a.76.76,0,0,1,0-.3c0-.06.06-.05.1-.05Z"/><path class="cls-5" d="M21.17,30.77h-.65c-.06,0-.09,0-.09-.08v-.42c0-.05,0-.08.08-.08a7.38,7.38,0,0,1,1.15,0,3.82,3.82,0,0,1-.34.36C21.27,30.64,21.18,30.68,21.17,30.77Z"/><path class="cls-4" d="M20.75,34.68l.09,1.06s0,.1-.05.1c-.45,0-.89,0-1.33-.07V35.7a.93.93,0,0,0,.72-.18.79.79,0,0,0,.3-.3s0,0,0,0,0,0,0,.07a3.21,3.21,0,0,0,0,.51,5.58,5.58,0,0,1,.13-1S20.74,34.7,20.75,34.68Z"/><path class="cls-4" d="M19.59,30.78c0-.2,0-.4,0-.59h.45c.06,0,.09,0,.09.1s0,.27,0,.41,0,.09-.08.09S19.75,30.8,19.59,30.78Z"/><path class="cls-4" d="M28.37,28.91a1.23,1.23,0,0,0,.05.57.86.86,0,0,0,.5.58v.06h-.57c-.09,0-.11,0-.1-.12s0-.35,0-.53c0,0,0,0,0-.06l0-.52Z"/><path class="cls-5" d="M22.21,26.29s.06,0,.09,0l1.11,0,.71,0,1.75,0s.07,0,.1,0h-.11l-3.51,0Z"/><path class="cls-5" d="M19.49,36c0,.07,0,.15,0,.22h-1s0-.06,0-.09.09-.19.24-.17S19.24,36,19.49,36Z"/><path class="cls-5" d="M19.46,35.7v.07h-.88c-.06,0-.07,0-.07-.08v-.5h0l.17.19a.71.71,0,0,0,.55.26A.21.21,0,0,1,19.46,35.7Z"/><path class="cls-4" d="M27.42,32.73c0-.56,0-1.13-.05-1.69,0-.08,0-.1.1-.09s.12,0,.12.09c0,.56-.08,1.12-.11,1.69Z"/><path class="cls-4" d="M20.82,33.55c-.06,0,0-.07-.05-.11l-.06-2.23a.27.27,0,0,1,0-.09.08.08,0,0,1,.1,0c.06,0,0,.06,0,.09,0,.62,0,1.24,0,1.86Z"/><path class="cls-4" d="M21.17,30.77c0-.09.1-.13.15-.19a3.82,3.82,0,0,0,.34-.36c.1,0,.14,0,.14.12s.06.31,0,.4-.26,0-.4,0Z"/><path class="cls-5" d="M22.68,27.79c0-.06.07,0,.11,0,1.19,0,2.37,0,3.56,0,0,0,.09,0,.12,0h-.1l-3.6.05Z"/><path class="cls-5" d="M27.42,32.73h.06a10,10,0,0,1-.07,1.1,15.52,15.52,0,0,0,0,1.93.24.24,0,0,0,.11.19c-.16,0-.17-.08-.17-.17,0-.59,0-1.18,0-1.76S27.39,33.16,27.42,32.73Z"/><path class="cls-5" d="M19.6,31.2a.42.42,0,0,0,0,.12c0,.49,0,1,0,1.49a.21.21,0,0,0,0,.14c-.1,0-.14,0-.14-.11l0-1.55C19.46,31.19,19.51,31.16,19.6,31.2Z"/><path class="cls-5" d="M26.42,26.26s.07,0,.11,0h2.81s.06,0,.09,0a3.37,3.37,0,0,1-.55,0H26.42Z"/><path class="cls-4" d="M29.48,30.13H29.4v-.07a.74.74,0,0,0,.41-.35h.06a2.61,2.61,0,0,0,0,.28c0,.14,0,.17-.16.14A.22.22,0,0,0,29.48,30.13Z"/><path class="cls-5" d="M21.54,27.82a4.52,4.52,0,0,1,.9,0A2.28,2.28,0,0,1,21.54,27.82Z"/><path class="cls-5" d="M24.33,23.13a1.47,1.47,0,0,1-.59,0A2.91,2.91,0,0,1,24.33,23.13Z"/><path class="cls-5" d="M20.65,33.49h0l0,.56h0Z"/><path class="cls-5" d="M20.75,34.68s0,0,0,0a3,3,0,0,0,0-.31,1.51,1.51,0,0,1,0-.3Z"/><path class="cls-5" d="M29.39,30.06v.07a2.69,2.69,0,0,1-.49,0v-.06A.84.84,0,0,0,29.39,30.06Z"/><path class="cls-5" d="M20.53,27.83a.56.56,0,0,1,.36,0A1.09,1.09,0,0,1,20.53,27.83Z"/><path class="cls-5" d="M15.33,18.49c-.11,0-.24,0-.3-.17h0c.13,0,.21.09.31.14Z"/><path class="cls-5" d="M28.43,27.89a.16.16,0,0,0-.07.14s0,.09,0,.12a.67.67,0,0,1,0-.2C28.33,27.88,28.37,27.87,28.43,27.89Z"/><path class="cls-5" d="M31.24,19.68c0,.06,0,.05-.07.06s0-.15,0-.22Z"/><path class="cls-5" d="M29.88,28.18c-.07-.09,0-.19,0-.28C29.92,28,29.88,28.08,29.88,28.18Z"/><path class="cls-5" d="M22,30.51c0,.07,0,.13,0,.2s0,.06,0,.06,0,0,0-.06,0-.13,0-.2Z"/><path class="cls-5" d="M29.48,30.13a.22.22,0,0,1,.22,0A.55.55,0,0,1,29.48,30.13Z"/><path class="cls-5" d="M28.37,28.91h-.06a.3.3,0,0,1,0-.21c.05,0,0,.14.06.17Z"/><path class="cls-5" d="M20.11,29.05a.2.2,0,0,1,0-.2A.34.34,0,0,1,20.11,29.05Z"/><path class="cls-5" d="M20.14,29.62a.2.2,0,0,1,0-.2A.34.34,0,0,1,20.14,29.62Z"/><path class="cls-5" d="M17,20.5a.17.17,0,0,1,0-.19A.41.41,0,0,1,17,20.5Z"/><path class="cls-5" d="M17,21.89a.17.17,0,0,1,0-.19A.41.41,0,0,1,17,21.89Z"/><path class="cls-5" d="M17,19.91a.12.12,0,0,1,0-.14A.14.14,0,0,1,17,19.91Z"/><path class="cls-5" d="M29.68,25.69a.18.18,0,0,1,0-.12A.09.09,0,0,1,29.68,25.69Z"/><path class="cls-5" d="M20.09,28.37a.07.07,0,0,1,0-.11A.14.14,0,0,1,20.09,28.37Z"/><path class="cls-5" d="M24.63,24.22a.08.08,0,0,1,.11,0A.11.11,0,0,1,24.63,24.22Z"/><path class="cls-5" d="M22.3,24.19a.08.08,0,0,1,.11,0A.11.11,0,0,1,22.3,24.19Z"/><path class="cls-5" d="M17,22.46a.08.08,0,0,1,0-.11A.09.09,0,0,1,17,22.46Z"/><path class="cls-5" d="M29.86,29.72H29.8s0-.06.05-.09A.12.12,0,0,1,29.86,29.72Z"/><path class="cls-5" d="M29.83,28.56h.05a.17.17,0,0,1,0,.1C29.83,28.63,29.83,28.6,29.83,28.56Z"/><path class="cls-5" d="M20.49,31.38s0-.06,0-.09A.08.08,0,0,1,20.49,31.38Z"/><path class="cls-5" d="M17,19.5s0-.06,0-.09A.08.08,0,0,1,17,19.5Z"/><path class="cls-5" d="M19.78,31.21s-.06,0-.08,0A.06.06,0,0,1,19.78,31.21Z"/><path class="cls-5" d="M12.92,21.34a.06.06,0,0,1,0,.09A.08.08,0,0,1,12.92,21.34Z"/><path class="cls-5" d="M28.29,29.42s0,0,0,.06A0,0,0,0,1,28.29,29.42Z"/><path class="cls-5" d="M17.07,19.2s0,0,0-.06A.07.07,0,0,1,17.07,19.2Z"/><path class="cls-5" d="M29.64,25.3s0,0,0-.05S29.66,25.28,29.64,25.3Z"/><path class="cls-5" d="M19.7,33s.05,0,.06,0A0,0,0,0,1,19.7,33Z"/><path class="cls-5" d="M29.71,26s0,0,0-.06A.07.07,0,0,1,29.71,26Z"/><path class="cls-5" d="M29.21,28.09s.05,0,.06,0S29.23,28.11,29.21,28.09Z"/><path class="cls-5" d="M28.76,27.89a0,0,0,0,1,0,0s0,0,0,0A.08.08,0,0,1,28.76,27.89Z"/><path class="cls-5" d="M20.51,31.7a0,0,0,0,1,0-.06A0,0,0,0,1,20.51,31.7Z"/><path class="cls-5" d="M20.32,31.21s0,0-.05,0S20.3,31.19,20.32,31.21Z"/><path class="cls-5" d="M12.9,22.81s0,0,0,.05S12.87,22.84,12.9,22.81Z"/><path class="cls-5" d="M29.68,27.89l0,0s0,0,0,0Z"/><path class="cls-5" d="M32.66,18.91a.33.33,0,0,1-.22.11.32.32,0,0,1,.19-.14A0,0,0,0,0,32.66,18.91Z"/><path class="cls-5" d="M32.35,19.06a.09.09,0,0,1,.1,0s-.05.06-.08.07Z"/><path class="cls-5" d="M15.34,18.46s.05,0,0,0,0,0-.05,0Z"/><path class="cls-5" d="M32.3,19.11h0Z"/><path class="cls-5" d="M32.37,19.08s0,0,0,0l0,0Z"/><path class="cls-3" d="M32.66,18.91a0,0,0,0,1,0,0h0S32.66,18.9,32.66,18.91Z"/><path class="cls-3" d="M32.72,18.87s0,0,0,0,0,0,0,0Z"/><path class="cls-3" d="M38.5,27.63a4.41,4.41,0,0,1,1,.93,4.35,4.35,0,0,1,1,3.43,5.14,5.14,0,0,1-.61,1.79c0,.09,0,.19,0,.27.13,0,.21,0,.31-.07A1.05,1.05,0,0,1,41,34a1.18,1.18,0,0,1,.59,1.18,1,1,0,0,1-.89.8,1.51,1.51,0,0,1-.56-.07.79.79,0,0,1-.49-.42c-.06-.13-.12-.25-.17-.38a.69.69,0,0,1,0-.51c-.08,0-.11.07-.15.11A4.52,4.52,0,0,1,36,36h0a4.31,4.31,0,0,1-1.23-.23A4.54,4.54,0,0,1,35.23,27a4.4,4.4,0,0,1,3.15.56Zm-6.7,3.76a4.9,4.9,0,0,0,.1.93,4.29,4.29,0,0,0,4.79,3.35,4.41,4.41,0,0,0,3.42-2.73,2.82,2.82,0,0,0,.26-1.41,5.07,5.07,0,0,0,0-.56,4.36,4.36,0,0,0-4.79-3.8A4.24,4.24,0,0,0,31.8,31.39Zm9.41,3.33a1,1,0,0,1-.35.24,4,4,0,0,1-1,.35c-.1,0-.12.06-.06.16a.67.67,0,0,0,.6.3A.73.73,0,0,0,41.21,34.72Zm-.1-.16a.64.64,0,0,0-.56-.39c-.26,0-.51-.05-.7.21a.82.82,0,0,0-.17.67c0,.08,0,.11.12.05a3.29,3.29,0,0,1,.46-.23A7.79,7.79,0,0,1,41.11,34.56Z"/><path class="cls-3" d="M30.32,29.47a1.23,1.23,0,0,1,0-.33c0-.57-.05-1.13,0-1.7,0-.15,0-.3,0-.44s0-.09.09-.1a3.66,3.66,0,0,1,.81,0c.43.05.87,0,1.3.08l.26,0s-.09,0-.06.07a.09.09,0,0,1,0,.11,5.35,5.35,0,0,1-.47.48A11.15,11.15,0,0,0,31,28.84c-.2.21-.36.45-.57.66C30.35,29.55,30.32,29.56,30.32,29.47Zm.17-.45c.58-.64,1.22-1.21,1.81-1.83-.57,0-1.13-.1-1.69-.11-.08,0-.1,0-.08.09a3.7,3.7,0,0,1,0,.94C30.51,28.41,30.5,28.72,30.49,29Z"/><path class="cls-5" d="M30.32,29.47c0,.09,0,.08.08,0,.21-.21.37-.45.57-.66a11.15,11.15,0,0,1,1.21-1.17,5.35,5.35,0,0,0,.47-.48.09.09,0,0,0,0-.11c0-.07,0,0,.06-.07s.12-.06.19,0a.18.18,0,0,1,.14.16.34.34,0,0,1-.09.31,3.82,3.82,0,0,1-.36.34,3.24,3.24,0,0,0-.36.38,4.5,4.5,0,0,1-.64.67c-.3.26-.55.58-.84.86a.36.36,0,0,1-.19.13.23.23,0,0,1-.28-.1C30.26,29.64,30.22,29.55,30.32,29.47Z"/><path class="cls-3" d="M39.38,24.46a.66.66,0,0,1,.26-.6.87.87,0,0,1,.61-.24.9.9,0,0,1,.88.89.86.86,0,0,1-.9.84A.85.85,0,0,1,39.38,24.46Zm1,0c-.18.15-.35.31-.54.44s-.07.09,0,.14a.73.73,0,0,0,1.08-.21.61.61,0,0,0-.11-.77C40.66,24.25,40.48,24.34,40.35,24.49Zm.06-.36.12-.07a.3.3,0,0,1,.15,0v0a.34.34,0,0,0-.22-.09.71.71,0,0,0-.81.25.59.59,0,0,0,.05.8,1.65,1.65,0,0,1,.28-.41Z"/><path class="cls-3" d="M16.79,31.31a4.64,4.64,0,0,1-3.3,4.49A4.74,4.74,0,0,1,8.1,33.7a4.45,4.45,0,0,1,2-6.23A4.72,4.72,0,0,1,12.3,27a.31.31,0,0,0,.23,0h.09a5,5,0,0,1,2.24.84A4.4,4.4,0,0,1,16.79,31.31Zm-1.85,3.37c.07,0,.08,0,.11-.08s0,0,0,0,.08-.05.12-.08A4.13,4.13,0,0,0,16.46,31a4.3,4.3,0,0,0-3.85-3.72.11.11,0,0,1-.08,0,.5.5,0,0,0-.34-.07,4.92,4.92,0,0,0-.94.1A4.25,4.25,0,0,0,7.81,32.2a4.19,4.19,0,0,0,3,3.33.15.15,0,0,0,.13,0l.07,0,0,0a4.52,4.52,0,0,0,3.82-.83S15,34.74,14.94,34.68Z"/><path class="cls-3" d="M15.82,27l1.14,0a8.42,8.42,0,0,0,.87,0h0c.09,0,.22-.09.24,0a.5.5,0,0,1,0,.34.58.58,0,0,0-.05.28c0,.14-.07.28,0,.41a9.4,9.4,0,0,0,0,1.4l0,.11c0,.05,0,.09-.09.09s-.07,0-.08-.09a1,1,0,0,0-.19-.34,10.76,10.76,0,0,0-.77-1c0-.05-.09-.12-.17-.12l0,0c-.09-.28-.34-.42-.51-.63a.74.74,0,0,0-.35-.3C15.79,27.13,15.81,27.07,15.82,27Zm2,2a13.77,13.77,0,0,1,0-1.59c0-.08,0-.11-.09-.13a2.12,2.12,0,0,0-.5,0,2.85,2.85,0,0,1-.65,0,.63.63,0,0,0-.27,0A8.45,8.45,0,0,1,17.81,29.05Z"/><path class="cls-3" d="M28.61,32.07a.53.53,0,0,1-.6-.37.44.44,0,0,1,.07-.51.55.55,0,0,1,.54-.16.6.6,0,0,1,.43.56.37.37,0,0,1-.07.23c0,.06-.12.08-.1.18s-.06.06-.11.06Zm-.16-.83s-.06,0,0,0a.46.46,0,0,1,.27.13v0c0,.15,0,.23-.1.28a.23.23,0,0,1-.3-.08.23.23,0,0,1,.07-.32s.05,0,0-.06c-.27,0-.37.1-.27.34l.07.13a.3.3,0,0,0,.48.1c.18-.12.19-.24,0-.45A.26.26,0,0,0,28.45,31.24Zm-.05.2c0,.08,0,.13.07.15s.05,0,.05,0S28.46,31.49,28.4,31.44Z"/><path class="cls-3" d="M27.77,34.28a1.11,1.11,0,0,1,.18-.53.49.49,0,0,1,.69-.13.92.92,0,0,1,0,1.38.52.52,0,0,1-.73-.12A.93.93,0,0,1,27.77,34.28Zm1,.07a.69.69,0,0,0-.13-.43A.4.4,0,0,0,28,34a.78.78,0,0,0,.18.9.32.32,0,0,0,.46,0A.63.63,0,0,0,28.8,34.35Z"/><path class="cls-3" d="M20.2,33.69a1.2,1.2,0,0,1,.14.49.7.7,0,0,1-.83.69c-.19-.14-.42-.25-.48-.52a.92.92,0,0,1,.14-.74.55.55,0,0,1,.86-.09Zm-.7.91c.12.09.21,0,.31,0a.57.57,0,0,0,.16-.75.4.4,0,0,0-.46-.21.41.41,0,0,0-.26.33C19.16,34.26,19.23,34.47,19.5,34.6Z"/><path class="cls-4" d="M31.8,31.39a4.24,4.24,0,0,1,3.73-4.22A4.36,4.36,0,0,1,40.32,31a5.07,5.07,0,0,1,0,.56,2.82,2.82,0,0,1-.26,1.41,4.41,4.41,0,0,1-3.42,2.73,4.29,4.29,0,0,1-4.79-3.35A4.9,4.9,0,0,1,31.8,31.39Zm5.73,3.75s.06,0,.08,0A2.6,2.6,0,0,0,38,35a3.69,3.69,0,0,0,1.76-1.79,3.06,3.06,0,0,0,.3-1.15,3.14,3.14,0,0,0-.23-1.63s0,0-.06,0,0-.07,0-.11A3.9,3.9,0,0,0,32.41,30a4.17,4.17,0,0,0-.09,2.89,3.94,3.94,0,0,0,3.33,2.55A4.63,4.63,0,0,0,37.53,35.14Z"/><path class="cls-4" d="M41.21,34.72a.73.73,0,0,1-.76,1.05.67.67,0,0,1-.6-.3c-.06-.1,0-.13.06-.16a4,4,0,0,0,1-.35A1,1,0,0,0,41.21,34.72Z"/><path class="cls-4" d="M41.11,34.56a7.79,7.79,0,0,0-.85.31,3.29,3.29,0,0,0-.46.23c-.07.06-.11,0-.12-.05a.82.82,0,0,1,.17-.67c.19-.26.44-.23.7-.21A.64.64,0,0,1,41.11,34.56Z"/><path class="cls-4" d="M30.49,29c0-.3,0-.61,0-.91a3.7,3.7,0,0,0,0-.94c0-.08,0-.1.08-.09.56,0,1.12.15,1.69.11C31.71,27.81,31.07,28.38,30.49,29Z"/><path class="cls-5" d="M40.41,24.13l-.43.41a1.65,1.65,0,0,0-.28.41.59.59,0,0,1-.05-.8.71.71,0,0,1,.81-.25C40.48,24,40.39,24.05,40.41,24.13Z"/><path class="cls-5" d="M40.89,24.86a.73.73,0,0,1-1.08.21c-.07-.05-.08-.09,0-.14s.36-.29.54-.44c0,.12.08.18.21.15s.06,0,.07,0S40.82,24.77,40.89,24.86Z"/><path class="cls-4" d="M40.89,24.86c-.07-.09-.2-.12-.26-.22s0,0-.07,0-.19,0-.21-.15.31-.24.43-.4A.61.61,0,0,1,40.89,24.86Z"/><path class="cls-4" d="M40.41,24.13c0-.08.07-.15.05-.23a.34.34,0,0,1,.22.09v0a.3.3,0,0,0-.15,0Z"/><path class="cls-4" d="M10.83,35.53a4.19,4.19,0,0,1-3-3.33,4.25,4.25,0,0,1,3.44-4.94,4.92,4.92,0,0,1,.94-.1.5.5,0,0,1,.34.07.11.11,0,0,0,.08,0A4.3,4.3,0,0,1,16.46,31a4.13,4.13,0,0,1-1.25,3.51s-.07.07-.12.08a.14.14,0,0,1,.05-.13,2.52,2.52,0,0,0,.41-.56,3.88,3.88,0,0,0,.62-2A3.74,3.74,0,0,0,16,30.49c0-.06,0-.14-.1-.18l0-.11a3.55,3.55,0,0,0-2.53-2.47,3.69,3.69,0,0,0-1.62,0,4.23,4.23,0,0,0-3.53,4.76,3.55,3.55,0,0,0,2.31,2.81c0,.08.09.08.14.1l.33.12Z"/><path class="cls-5" d="M15.86,30.31c.08,0,.08.12.1.18a3.74,3.74,0,0,1,.21,1.33,3.88,3.88,0,0,1-.62,2,2.52,2.52,0,0,1-.41.56.14.14,0,0,0-.05.13s0,0,0,0-.1,0-.11.08,0,.07-.06.09a4.52,4.52,0,0,1-3.82.83l0,0c0-.07,0-.07-.07,0a.15.15,0,0,1-.13,0l.1,0-.33-.12s-.13,0-.14-.1.06,0,.1,0a3.25,3.25,0,0,0,.93.17,4.1,4.1,0,0,0,3.65-1.78,3.92,3.92,0,0,0,.79-2.85C15.91,30.66,15.89,30.49,15.86,30.31Z"/><path class="cls-4" d="M14.94,34.68c0-.06,0-.1.11-.08S15,34.69,14.94,34.68Z"/><path class="cls-4" d="M17.81,29.05a8.45,8.45,0,0,0-1.47-1.78.63.63,0,0,1,.27,0,2.85,2.85,0,0,0,.65,0,2.12,2.12,0,0,1,.5,0c.08,0,.1.05.09.13A13.77,13.77,0,0,0,17.81,29.05Z"/><path class="cls-4" d="M28.72,31.37c.16.21.15.33,0,.45a.3.3,0,0,1-.48-.1l-.07-.13c-.1-.24,0-.37.27-.34,0,0,0,0,0,.06a.23.23,0,0,0-.07.32.23.23,0,0,0,.3.08c.11-.05.14-.13.1-.28v0Z"/><path class="cls-5" d="M28.72,31.37l0,0a.46.46,0,0,0-.27-.13l0,0A.26.26,0,0,1,28.72,31.37Z"/><path class="cls-5" d="M28.4,31.44c.06,0,.12.07.12.14s0,0-.05,0S28.39,31.52,28.4,31.44Z"/><path class="cls-4" d="M28.45,31.24l0,0S28.43,31.24,28.45,31.24Z"/><path class="cls-4" d="M28.8,34.35a.63.63,0,0,1-.18.49.32.32,0,0,1-.46,0A.78.78,0,0,1,28,34a.4.4,0,0,1,.69,0A.69.69,0,0,1,28.8,34.35Zm-.49-.47c-.08,0-.16,0-.18.09a.65.65,0,0,0,0,.56.27.27,0,0,0,.31.13.42.42,0,0,0,.26-.45A.4.4,0,0,0,28.31,33.88Z"/><path class="cls-4" d="M19.51,33.6a.4.4,0,0,1,.46.21.57.57,0,0,1-.16.75c-.1.09-.19.13-.31,0Z"/><path class="cls-5" d="M19.51,33.6v1c-.27-.13-.34-.34-.25-.67A.41.41,0,0,1,19.51,33.6Z"/><path class="cls-3" d="M37.53,35.14a4.63,4.63,0,0,1-1.88.28,3.94,3.94,0,0,1-3.33-2.55A4.17,4.17,0,0,1,32.41,30a3.9,3.9,0,0,1,7.35.31s0,.07,0,.11,0,.06,0,.09a4,4,0,0,1-2.18,4.58S37.56,35.09,37.53,35.14Zm-1.81.09s0,0,.06,0a2.68,2.68,0,0,0,.75,0,3.82,3.82,0,0,0,2.2-1.2,3.69,3.69,0,0,0,0-5,3,3,0,0,0-1.11-.81s0,0-.08-.05a3.61,3.61,0,0,0-2.31-.27,4.42,4.42,0,0,0-2.16,1.2,2.84,2.84,0,0,0-.71,1.32,3.61,3.61,0,0,0,.18,2.7,3.69,3.69,0,0,0,2.36,2,2.18,2.18,0,0,0,.72.12Z"/><path class="cls-5" d="M37.53,35.14s.08,0,.11-.07a4,4,0,0,0,2.18-4.58s0-.06,0-.09.05,0,.06,0a3.14,3.14,0,0,1,.23,1.63,3.06,3.06,0,0,1-.3,1.15A3.69,3.69,0,0,1,38,35a2.6,2.6,0,0,1-.42.15S37.56,35.18,37.53,35.14Z"/><path class="cls-3" d="M15.86,30.31c0,.18.05.35.07.52a3.92,3.92,0,0,1-.79,2.85,4.1,4.1,0,0,1-3.65,1.78,3.25,3.25,0,0,1-.93-.17s-.07,0-.1,0a3.55,3.55,0,0,1-2.31-2.81,4.23,4.23,0,0,1,3.53-4.76,3.69,3.69,0,0,1,1.62,0,3.55,3.55,0,0,1,2.53,2.47Zm-3.37,4.86h.08A4.07,4.07,0,0,0,15,33.51a3.35,3.35,0,0,0,.64-1.72.62.62,0,0,1,.05-.27,2.57,2.57,0,0,0,0-.68s0-.08,0-.09a1.78,1.78,0,0,0-.08-.45,3.19,3.19,0,0,0-2.13-2.22l0,0a3.4,3.4,0,0,0-1.44-.22,3.8,3.8,0,0,0-2.7,1.41,3.79,3.79,0,0,0-.84,3.6,3.35,3.35,0,0,0,3,2.43A2.82,2.82,0,0,0,12.49,35.17Z"/><path class="cls-3" d="M28.31,33.88a.4.4,0,0,1,.39.33.42.42,0,0,1-.26.45.27.27,0,0,1-.31-.13.65.65,0,0,1,0-.56C28.15,33.9,28.23,33.88,28.31,33.88Zm-.1.36c0,.16.07.29.16.27a.17.17,0,0,0,.15-.18c0-.1-.13-.22-.25-.22S28.23,34.2,28.21,34.24Z"/><path class="cls-4" d="M37.66,28.18a3,3,0,0,1,1.11.81,3.69,3.69,0,0,1,0,5,3.82,3.82,0,0,1-2.2,1.2,2.68,2.68,0,0,1-.75,0s0-.07-.06,0h-.06c0-.07-.06-.07-.1-.08a3.13,3.13,0,0,1-1.31-1,3.37,3.37,0,0,1-.6-1.12,3.75,3.75,0,0,1-.17-1.82A3.31,3.31,0,0,1,33.91,30a3.66,3.66,0,0,1,1.65-1.51,3.4,3.4,0,0,1,1.12-.31,1.67,1.67,0,0,1,.63,0A1.36,1.36,0,0,0,37.66,28.18Zm.05,3.15a1.6,1.6,0,0,0-1.92-1.57,6.63,6.63,0,0,0-.87.36s-.06,0,0,.05,0,.08,0,.1a1.73,1.73,0,0,0-.51.82,1.59,1.59,0,0,0,2.06,2,2.18,2.18,0,0,0,.81-.56c.09-.08.22-.13.24-.26a1.63,1.63,0,0,1,.11-.31A1.77,1.77,0,0,0,37.71,31.33Zm-.07-1.07a.88.88,0,0,0,.11.45.62.62,0,0,0,.76.32.56.56,0,0,0,.35-.68.61.61,0,0,0-.57-.56,1,1,0,0,0-.57.21.43.43,0,0,0-.2.38C37.55,30.33,37.56,30.28,37.64,30.26Z"/><path class="cls-5" d="M37.66,28.18a1.36,1.36,0,0,1-.35,0,1.67,1.67,0,0,0-.63,0,3.4,3.4,0,0,0-1.12.31A3.66,3.66,0,0,0,33.91,30a3.31,3.31,0,0,0-.43,1.21A3.75,3.75,0,0,0,33.65,33a3.37,3.37,0,0,0,.6,1.12,3.13,3.13,0,0,0,1.31,1s.1,0,.1.08a2.18,2.18,0,0,1-.72-.12,3.69,3.69,0,0,1-2.36-2,3.61,3.61,0,0,1-.18-2.7,2.84,2.84,0,0,1,.71-1.32,4.42,4.42,0,0,1,2.16-1.2,3.61,3.61,0,0,1,2.31.27S37.65,28.14,37.66,28.18Z"/><path class="cls-5" d="M35.72,35.23c0-.06,0,0,.06,0S35.73,35.25,35.72,35.23Z"/><path class="cls-4" d="M13.4,28.08a3.19,3.19,0,0,1,2.13,2.22,1.78,1.78,0,0,1,.08.45h0a1.18,1.18,0,0,0-.69-.8c-.28-.11-.44,0-.47.28h0v0h0l0,0a1.17,1.17,0,0,0,.38,1.36.46.46,0,0,0,.73-.08s0-.06.09,0a.62.62,0,0,0-.05.27A3.35,3.35,0,0,1,15,33.51a4.07,4.07,0,0,1-2.4,1.65h-.08s0,0-.07,0a2.56,2.56,0,0,1-.73,0,3.46,3.46,0,0,1-2.36-5.39,4.16,4.16,0,0,1,2-1.41,5.21,5.21,0,0,1,.89-.19,3,3,0,0,1,.95-.06C13.25,28.07,13.32,28.12,13.4,28.08Zm.78,3.9c.06,0,.14,0,.19.07a.36.36,0,0,0-.21.19,2.17,2.17,0,0,0-.22.6.69.69,0,0,0,.06.45.43.43,0,0,0,.55.26.89.89,0,0,0,.59-.86.85.85,0,0,0-.65-.8.29.29,0,0,0-.3.1h0Zm-.29-.29A1.89,1.89,0,0,0,12,29.8a1.94,1.94,0,0,0-1.85,1.93A1.86,1.86,0,0,0,12,33.62,1.88,1.88,0,0,0,13.89,31.69Z"/><path class="cls-5" d="M13.4,28.08c-.08,0-.15,0-.22,0a3,3,0,0,0-.95.06,5.21,5.21,0,0,0-.89.19,4.16,4.16,0,0,0-2,1.41,3.46,3.46,0,0,0,2.36,5.39,2.56,2.56,0,0,0,.73,0s.05,0,.07,0a2.82,2.82,0,0,1-1,.1,3.35,3.35,0,0,1-3-2.43,3.79,3.79,0,0,1,.84-3.6,3.8,3.8,0,0,1,2.7-1.41,3.4,3.4,0,0,1,1.44.22Z"/><path class="cls-5" d="M15.66,31.52c0-.05-.06,0-.09,0a.9.9,0,0,0,.06-.51,2.14,2.14,0,0,1-.06-.27h0c.05,0,0,.06,0,.09A2.57,2.57,0,0,1,15.66,31.52Z"/><path class="cls-4" d="M28.21,34.24s0-.13.06-.13.26.12.25.22a.17.17,0,0,1-.15.18C28.28,34.53,28.21,34.4,28.21,34.24Z"/><path class="cls-3" d="M37.71,31.33a1.77,1.77,0,0,1-.12.64,1.63,1.63,0,0,0-.11.31c0,.13-.15.18-.24.26a2.18,2.18,0,0,1-.81.56,1.59,1.59,0,0,1-2.06-2,1.73,1.73,0,0,1,.51-.82s.12-.05,0-.1,0-.05,0-.05a6.63,6.63,0,0,1,.87-.36A1.6,1.6,0,0,1,37.71,31.33Zm-.38.27a1.44,1.44,0,0,0-1.47-.06l-.25.11a1,1,0,0,1-1.09-.14h-.05A1.39,1.39,0,0,0,35,32.63a1.47,1.47,0,0,0,1.75,0,1.55,1.55,0,0,0,.62-1.69A1.33,1.33,0,0,0,35.81,30l.26,0a1.31,1.31,0,0,1,1.14,1.06c0,.18,0,.37.14.52Zm-.22-.37a.17.17,0,0,0,0-.07,1.4,1.4,0,0,0-1-.92c-.05,0-.08,0-.11,0a.58.58,0,0,1-.85.06c-.08-.07-.13-.05-.19,0a1.7,1.7,0,0,0-.5.94c0,.05,0,.07,0,.1a1,1,0,0,0,.54.21,1.4,1.4,0,0,0,.77-.21,1.25,1.25,0,0,1,1.2-.11C37.09,31.31,37.12,31.3,37.11,31.23Zm-1.89-1.05a.44.44,0,0,0,.65,0A2,2,0,0,0,35.22,30.18Z"/><path class="cls-3" d="M37.64,30.26c-.08,0-.09.07-.12.12a.43.43,0,0,1,.2-.38,1,1,0,0,1,.57-.21.61.61,0,0,1,.57.56.56.56,0,0,1-.35.68.62.62,0,0,1-.76-.32A.88.88,0,0,1,37.64,30.26Zm.63-.2a1.75,1.75,0,0,0-.41.09.1.1,0,0,0-.06.08.62.62,0,0,0,.32.6.43.43,0,0,0,.43-.08.37.37,0,0,0,0-.43A.35.35,0,0,0,38.27,30.06Z"/><path class="cls-3" d="M13.89,31.69A1.88,1.88,0,0,1,12,33.62a1.86,1.86,0,0,1-1.82-1.89A1.94,1.94,0,0,1,12,29.8,1.89,1.89,0,0,1,13.89,31.69Zm-2,1.57h0c-.06-.06,0-.09,0-.13a15.27,15.27,0,0,1,1-1.36c.09-.1.07-.14,0-.19s-.12,0-.16.05c-.39.47-.75,1-1.12,1.47a.54.54,0,0,1-.17.2,0,0,0,0,0,0,0,18.8,18.8,0,0,1,1.24-1.69s.07,0,.05-.09a1.19,1.19,0,0,0-.36-.17l0,0-.17.23L11,33.06a.79.79,0,0,1,.2-.31c.37-.49.78-.95,1.15-1.45a.25.25,0,0,0-.26.1q-.18.26-.39.51l-.66.8h0c-.05-.06,0-.08,0-.11l.44-.55a4.19,4.19,0,0,0,.4-.54s0,0,0,0,0,0,0,0a.33.33,0,0,0-.23.15s0-.08-.06-.06a.86.86,0,0,1-.32,0,.72.72,0,0,0-.61,0h0a1.79,1.79,0,0,0-.32.13.07.07,0,0,0,0,.07,2.32,2.32,0,0,0,.06.38c0,.07,0,.18.12.22v0c0,.11,0,.14.09.14h0a.83.83,0,0,0,.3.43s.06.07.11.06.12.14.2,0c.38-.52.81-1,1.17-1.54,0-.06.08-.13.18-.1a.75.75,0,0,0-.15.16,7.05,7.05,0,0,1-.62.82l-.55.7s-.06.05,0,.09.24.11.31.08,0,.07.06.08a1.84,1.84,0,0,0,.4.06.25.25,0,0,0,.13,0c0,.1.08,0,.12,0a1.68,1.68,0,0,0,1.4-1.33c0-.08,0-.16,0-.23s-.12,0-.17-.05h0c-.07,0-.12,0-.17.05-.35.41-.67.84-1,1.29,0-.06,0-.09.05-.13a14.45,14.45,0,0,1,.88-1.18s.09-.06,0-.1-.1,0-.14,0l-.32.39C12.47,32.5,12.18,32.87,11.91,33.26Zm1.73-1.47A1.66,1.66,0,0,0,12,30a1.54,1.54,0,0,0-1.66,1.5s0,0,0,0h0a1.07,1.07,0,0,1,.92-.13.53.53,0,0,0,.44-.07A1.71,1.71,0,0,0,12,31.2a.57.57,0,0,1,.71,0A6,6,0,0,1,13.64,31.79Z"/><path class="cls-3" d="M15.57,30.75a2.14,2.14,0,0,0,.06.27.9.9,0,0,1-.06.51.46.46,0,0,1-.73.08,1.17,1.17,0,0,1-.38-1.36l0-.06s0,0,0,0l0,0s0,0,0,.05h0c0-.29.19-.38.47-.27A1.18,1.18,0,0,1,15.57,30.75Zm-1-.14a1,1,0,0,0,.4.81.25.25,0,0,0,.3.08.28.28,0,0,0,.15-.28,1.22,1.22,0,0,0-.65-1c-.06,0-.09,0-.12,0A.94.94,0,0,0,14.58,30.61Z"/><path class="cls-3" d="M14.19,32a.3.3,0,0,1,.3-.09.85.85,0,0,1,.65.8.89.89,0,0,1-.59.86.43.43,0,0,1-.55-.26.69.69,0,0,1-.06-.45,2.17,2.17,0,0,1,.22-.6.36.36,0,0,1,.21-.19c0-.09-.13,0-.19-.07Zm.74.79a.78.78,0,0,0-.44-.67c-.06,0-.08,0-.12,0a1.71,1.71,0,0,0-.27.85.43.43,0,0,0,.06.22.27.27,0,0,0,.39.15A.68.68,0,0,0,14.93,32.77Z"/><path class="cls-3" d="M14.41,30.22v0h0Z"/><path class="cls-3" d="M14.18,32v0h0v0Z"/><path class="cls-4" d="M37.35,31.58c-.12-.15-.09-.34-.14-.52A1.31,1.31,0,0,0,36.07,30l-.26,0a1.33,1.33,0,0,1,1.59.95,1.55,1.55,0,0,1-.62,1.69,1.47,1.47,0,0,1-1.75,0,1.39,1.39,0,0,1-.56-1.12h.05a1,1,0,0,0,1.09.14l.25-.11a1.44,1.44,0,0,1,1.47.06l0,0A0,0,0,0,0,37.35,31.58Z"/><path class="cls-4" d="M37.11,31.23c0,.07,0,.08-.08.05a1.25,1.25,0,0,0-1.2.11,1.4,1.4,0,0,1-.77.21,1,1,0,0,1-.54-.21s0-.05,0-.1a1.7,1.7,0,0,1,.5-.94c.06-.06.11-.08.19,0a.58.58,0,0,0,.85-.06s.06-.06.11,0a1.4,1.4,0,0,1,1,.92A.17.17,0,0,1,37.11,31.23ZM36.7,31a.66.66,0,0,0-.23-.17,1.6,1.6,0,0,0-1.76.47s0,0,0,0,.05,0,.07,0a1.43,1.43,0,0,0,.21-.12,1.78,1.78,0,0,1,1.34-.31c.11,0,.22.06.33.09S36.69,31,36.7,31Z"/><path class="cls-4" d="M35.22,30.18a2,2,0,0,1,.65,0A.44.44,0,0,1,35.22,30.18Z"/><path class="cls-4" d="M38.27,30.06a.35.35,0,0,1,.32.26.37.37,0,0,1,0,.43.43.43,0,0,1-.43.08.62.62,0,0,1-.32-.6.1.1,0,0,1,.06-.08A1.75,1.75,0,0,1,38.27,30.06Z"/><path class="cls-4" d="M13.64,31.79a6,6,0,0,0-.92-.6.57.57,0,0,0-.71,0,1.71,1.71,0,0,1-.23.13.53.53,0,0,1-.44.07,1.07,1.07,0,0,0-.92.13h0s0,0,0,0A1.54,1.54,0,0,1,12,30,1.66,1.66,0,0,1,13.64,31.79Z"/><path class="cls-4" d="M10.51,32.39c-.1,0-.1-.15-.12-.22a2.32,2.32,0,0,1-.06-.38.07.07,0,0,1,0-.07,1.79,1.79,0,0,1,.32-.13.73.73,0,0,0-.17.31,1,1,0,0,0,.21-.26s0-.06,0-.05a.72.72,0,0,1,.61,0,.86.86,0,0,0,.32,0l-.27.36a4.65,4.65,0,0,0-.42.57s0,0,0,.06l0,.05,0,0s0,0,0,0h0l0,0,0,0s0,0,.05-.06l.72-.9a.33.33,0,0,1,.23-.15l0,0a4.19,4.19,0,0,1-.4.54l-.44.55s-.08,0,0,.11-.05,0-.07,0v0h0v0s0,0,.07,0l.66-.8q.21-.26.39-.51a.25.25,0,0,1,.26-.1c-.37.5-.78,1-1.15,1.45a.79.79,0,0,0-.2.31h0s-.08,0-.11-.06a.83.83,0,0,1-.3-.43s0,0,.05,0,.09-.08,0-.13.07,0,.09-.06l.32-.48a1.84,1.84,0,0,1,.17-.22s.08,0,.06-.06-.07,0-.09,0a.69.69,0,0,0-.11.13l-.43.68s-.06.08,0,.13,0,0-.05,0-.08,0-.09-.14a2,2,0,0,0,.17-.23c.12-.15.19-.34.36-.45a0,0,0,0,0,0-.08c0-.05-.07,0-.1,0A4.64,4.64,0,0,0,10.51,32.39ZM10.42,32s0,.05,0,.06,0,0,0,0l0,0s.06-.06,0-.11-.06.05-.07.08Zm.16,0s0,.05,0,.06,0,0,0,0,0,0,0,0S10.59,32,10.58,32Zm0-.05,0,0,.23-.32s0,0,0-.07-.05,0-.07,0A1.51,1.51,0,0,0,10.61,32Zm.2.75h0Zm.15.07h0Z"/><path class="cls-4" d="M12.27,33.14c.32-.45.64-.88,1-1.29.05-.06.1-.09.17-.05h0s.15,0,.17.05,0,.15,0,.23a1.68,1.68,0,0,1-1.4,1.33s-.11.06-.12,0h0l0-.06h0l0,0h0l.06-.09h0l.06-.09Zm.78-.56h0v0Zm.42-.65,0,0-.37.59A2.26,2.26,0,0,0,13.47,31.93Z"/><path class="cls-4" d="M12.11,33.38a.25.25,0,0,1-.13,0,1.84,1.84,0,0,1-.4-.06c-.05,0-.07,0-.06-.08h0a.54.54,0,0,0,.17-.2c.37-.5.73-1,1.12-1.47,0,0,.07-.1.16-.05s.12.09,0,.19a15.27,15.27,0,0,0-1,1.36s-.1.07,0,.13,0,0,0,0,0,0,0,0h0v0s0,0,0,0h.05c.27-.39.56-.76.86-1.12l.32-.39c0-.06.09-.07.14,0s0,.07,0,.1A14.45,14.45,0,0,0,12.32,33s-.07.07-.05.13h0c-.06,0-.07,0-.06.09h0c-.05,0-.06,0-.06.09h0s0,0,0,0h0s0,0,0,.06Z"/><path class="cls-4" d="M11,33.06l1.23-1.49.17-.23,0,0a1.19,1.19,0,0,1,.36.17c0,.05,0,.06-.05.09a18.8,18.8,0,0,0-1.24,1.69,0,0,0,0,1,0,0h0c-.07,0-.29,0-.31-.08s0-.06,0-.09l.55-.7a7.05,7.05,0,0,0,.62-.82.75.75,0,0,1,.15-.16c-.1,0-.14,0-.18.1-.36.54-.79,1-1.17,1.54-.08.12-.12.12-.2,0Z"/><path class="cls-4" d="M14.58,30.61a.94.94,0,0,1,.08-.39c0-.07.06-.09.12,0a1.22,1.22,0,0,1,.65,1,.28.28,0,0,1-.15.28.25.25,0,0,1-.3-.08A1,1,0,0,1,14.58,30.61Z"/><path class="cls-4" d="M14.44,30.23s0-.05,0-.05h0l0,.06Z"/><path class="cls-4" d="M14.47,30.18l0,0s0,0,0,0Z"/><path class="cls-4" d="M14.93,32.77a.68.68,0,0,1-.38.58.27.27,0,0,1-.39-.15A.43.43,0,0,1,14.1,33a1.71,1.71,0,0,1,.27-.85c0-.05.06-.07.12,0A.78.78,0,0,1,14.93,32.77Z"/><path class="cls-3" d="M37.35,31.58a0,0,0,0,1,0,.06l0,0Z"/><path class="cls-3" d="M36.7,31c0,.05,0,0-.06,0s-.22-.07-.33-.09a1.78,1.78,0,0,0-1.34.31,1.43,1.43,0,0,1-.21.12s0,0-.07,0,0,0,0,0a1.6,1.6,0,0,1,1.76-.47A.66.66,0,0,1,36.7,31Z"/><path class="cls-3" d="M13.47,31.93a2.26,2.26,0,0,1-.4.57l.37-.59Z"/><path class="cls-3" d="M12.16,33.3s0-.08.06-.09Z"/><path class="cls-3" d="M12.22,33.22s0-.08.06-.09Z"/><polygon class="cls-3" points="13.05 32.58 13.04 32.57 13.05 32.58 13.05 32.58"/><path class="cls-3" d="M12.14,33.33s0,0,0,0Z"/><path class="cls-3" d="M13.05,32.58v0Z"/><path class="cls-3" d="M11.83,33.28v0Z"/><path class="cls-3" d="M11.86,33.27s0,0,0,0h0Z"/><path class="cls-3" d="M11.91,33.26h0s0,0,0,0,0,0,0,0Z"/></g></g></svg>