<svg xmlns="http://www.w3.org/2000/svg" viewBox="0 0 34.47 57.46"><defs><style>.cls-1{fill:#fff;}.cls-2{fill:#aaa9a9;}.cls-3{fill:#101010;}.cls-4{fill:#a9a8a8;}.cls-5{fill:#fdfdfd;}</style></defs><g id="Layer_2" data-name="Layer 2"><g id="Layer_4" data-name="Layer 4"><path class="cls-1" d="M2.1,20.16a2.22,2.22,0,0,0,.82.76,1,1,0,0,0,.69.09.91.91,0,0,0,.53-.41.89.89,0,0,0-.32-1.22l-.21-.14.18.14a1.25,1.25,0,0,1-.23-.23l.14.18-.05-.07a1,1,0,0,0-.54-.41.88.88,0,0,0-.69.09.89.89,0,0,0-.32,1.22Z"/><path class="cls-1" d="M2.42,23.2l1.78.49a.6.6,0,0,0,.32-1.15l-1.79-.49a.6.6,0,0,0-.31,1.15Z"/><path class="cls-1" d="M21.1,8.72c-.75,1.39-.32,2.8-.57,4.31s-.06,3.22-.45,4.81a.59.59,0,0,0,1.14.31,28.5,28.5,0,0,0,.31-4c.08-.61.27-1.21.31-1.83.08-1.05-.27-2,.28-3,.37-.67-.66-1.28-1-.6Z"/><path class="cls-1" d="M5.33,35.3c.06.17.08.13.06-.1a2.23,2.23,0,0,1,.08-.45c0-.2.12-.4.18-.59A6.74,6.74,0,0,0,6,32.76c.11-.75-1-1.07-1.14-.31-.15,1-1.27,2.74-.4,3.69.52.56,1.36-.28.84-.84Z"/><path class="cls-1" d="M2.6,34.93a4.28,4.28,0,0,0,.57-1.36A.59.59,0,1,0,2,33.25a3.4,3.4,0,0,1-.46,1.07.61.61,0,0,0,.22.82.6.6,0,0,0,.81-.21Z"/><path class="cls-1" d="M14.36,12.25a13.71,13.71,0,0,0-.69,2.91c-.1.75,1.09.75,1.19,0a11.65,11.65,0,0,1,.65-2.6c.27-.72-.88-1-1.15-.31Z"/><path class="cls-1" d="M7.07,9.09A30.15,30.15,0,0,0,7.19,15c.46,2.21.21,1.82,1.31,1.17l1.8.23A7.19,7.19,0,0,0,8.07,14.7,1.51,1.51,0,0,0,5.83,16c-.23,6.21-2.09,12.63.68,18.47a1.5,1.5,0,0,0,2.78-.75c-.26-2.72-.72-7.14.87-9.54l-1.68.68c-1.4-.21-1.36,7.35-.84,8.56.78,1.82,3.43,2.77,5,3.64s3.18-1.65,1.5-2.57c-2.75-1.5-3.75-2.73-3.78-6,0-1.35,1-3.29.63-4.63-.29-.95-.64-1.67-1.74-1.84a1.57,1.57,0,0,0-1.68.69C5.68,25.55,6,30.43,6.31,33.7L9.08,33c-2.4-5.07-.47-11.56-.27-17L6.57,17.27A6.83,6.83,0,0,1,8.2,18.46a1.53,1.53,0,0,0,1.8.23c.8-.47.91-1,1.09-1.83.12-.6-1.19-4.42-1-3.34a31.18,31.18,0,0,1,0-4.43,1.49,1.49,0,0,0-3,0Z"/><path class="cls-1" d="M4.07,20.5c.23,2.63.37,6-.56,8.49l1-1-.42.17,1.45.38A4.05,4.05,0,0,1,5.24,27c-.26-1.74-2.84-1.19-2.93.39a33.85,33.85,0,0,1-.56,6c-.44,1.87,2.43,2.66,2.87.79a38.1,38.1,0,0,0,.67-6.83l-2.92.4a5.35,5.35,0,0,0,1.1,2.85A1.45,1.45,0,0,0,4.92,31c1.36-.54,1.54-1.28,1.78-2.66a30.66,30.66,0,0,0,.35-7.83c-.16-1.89-3.14-1.91-3,0Z"/><path class="cls-1" d="M9,13.83l1,3.49a1.5,1.5,0,0,0,2,2A5.31,5.31,0,0,0,15,13.12a1.49,1.49,0,0,0-2.92.39,54,54,0,0,1-.69,11.22c-.48,2.86,0,5.45-.12,8.32L13.76,32c-2.11-2.56.39-7.39-.82-10.62-.49-1.3-1.58-3.29-3-3.65-4.36-1.09-2.66,5.88-2,7.82s3.48,1,2.87-.79A11.42,11.42,0,0,1,10,21.39l.56,2.9c.05,1.73-.6,3.4-.6,5.12a6.78,6.78,0,0,0,1.71,4.69c.88,1.06,2.5.13,2.55-1.05.06-1.71-.35-3.32-.33-5a46.84,46.84,0,0,1,.79-5.4A53.57,53.57,0,0,0,15,13.51l-2.92.4-1.56,2.88,2,2c1.15-2.65.79-5.19-1.48-7.11C9.62,10.5,7.5,12.59,9,13.83Z"/><path class="cls-1" d="M11.94,29.43a12.71,12.71,0,0,0,.7,5.31,1.5,1.5,0,0,0,2.87,0L16.35,32H13.48c.76,2.34.08,4.41-.1,6.76s.28,4.87.32,7.35c.06,3.57-1.24,7.08.34,10.42l.89-2.19.2.11c-1.73-.78-3.24,1.78-1.5,2.57a2.28,2.28,0,0,0,2.09.19A1.51,1.51,0,0,0,16.61,55c-.9-1.9-.16-4,0-6a68.69,68.69,0,0,0-.27-7.32c-.11-3.59,1.16-7,0-10.5a1.5,1.5,0,0,0-2.87,0L12.64,34h2.87a7.68,7.68,0,0,1-.6-4.52c.12-1.91-2.85-1.9-3,0Z"/><path class="cls-1" d="M6.69,9.48l.15.09a.44.44,0,0,0,.22.07.49.49,0,0,0,.24,0,.36.36,0,0,0,.2-.11.49.49,0,0,0,.16-.16l.06-.15a.81.81,0,0,0,0-.31.63.63,0,0,0-.28-.36l-.15-.08a.36.36,0,0,0-.22-.07.39.39,0,0,0-.24,0,.54.54,0,0,0-.2.1.61.61,0,0,0-.15.17l-.06.14a.58.58,0,0,0,0,.32.6.6,0,0,0,.27.35Z"/><path class="cls-1" d="M5,10.89a1,1,0,0,0,.51,1c.14.09.29.16.43.24a1,1,0,0,0,.24.14c.16,0-.08.11-.06-.18l.09-.3,0,0a.59.59,0,0,0,.84.84.83.83,0,0,0-.18-1.29A4.35,4.35,0,0,0,6.33,11a1.76,1.76,0,0,0-.23-.14c-.13-.09-.12,0,0,.17v-.14a.6.6,0,0,0-1.19,0Z"/><path class="cls-2" d="M34.45,0l0,0h0Z"/><path class="cls-3" d="M18.13,42.48c-.23.1-.45.21-.68.29s-.15.17-.15.28c0,1.17,0,2.35,0,3.52s-.06,2.35,0,3.53l0,1.85a21.92,21.92,0,0,0-.05,2.69V56c-.08.18,0,.38-.06.56a.42.42,0,0,1-.43.39.4.4,0,0,1-.39-.4c0-.19,0-.38,0-.57.08-6.26.15-12.52.37-18.78a49.07,49.07,0,0,1,.27-5c.33-.11.23.2.33.36l.73-1,.76-1a11.06,11.06,0,0,1-2.09-.06l-1-.15s-.13,0-.14-.11.08-.11.15-.12l.37-.06.09,0c.78,0,1.56.15,2.33.23.58.05.69-.07.68-.66,0-.33,0-.66,0-1s0-.4,0-.68a2.58,2.58,0,0,1-.36.67c-.15.18-.24.4-.38.58a1.22,1.22,0,0,1-1.18.39,1.31,1.31,0,0,1-.68-1.82.85.85,0,0,0,.11-.26,1.25,1.25,0,0,1,1.25-.95,1.87,1.87,0,0,1,1.3.89c0-1.91.12-3.74.17-5.65l-.18.32c-.06-.35-.09-.66-.15-1a.58.58,0,0,0-.5-.52,2.54,2.54,0,0,0-1.13,0,.37.37,0,0,0-.29.26A1.38,1.38,0,0,1,19,22a1.08,1.08,0,0,1-.41,1.14,1,1,0,0,1-1.14,0,1.66,1.66,0,0,1-.73-1.08,2.58,2.58,0,0,1,0-1.14.92.92,0,0,1,.85-.61,1.22,1.22,0,0,1,.32,0c.27,0,.33-.1.33-.35,0-2.73.36-5.44.43-8.16,0-.1,0-.2.12-.24a.49.49,0,0,0,.45.43c.18,0,.36.12.54.16a.48.48,0,0,1,.45.54c0,.11,0,.21,0,.32A38.8,38.8,0,0,1,20,18.35c0,.13,0,.26,0,.42a.52.52,0,0,0,.21-.45c0-.74.09-1.49.12-2.23,0-1.07,0-2.13.06-3.19a16.33,16.33,0,0,1,.12-2.1.12.12,0,0,0,0-.14l.11-1a.12.12,0,0,0,0-.14.14.14,0,0,1,.21-.07c.08,0,0,.11,0,.16,0,.7-.12,1.39-.09,2.09a4.9,4.9,0,0,0,0,1.48v3.2a1.26,1.26,0,0,0,0,.58v.31a4.37,4.37,0,0,0-.08,1.08c0,.11,0,.24-.12.33s-.07,0-.07.06a.37.37,0,0,0-.3.16A6.51,6.51,0,0,1,19,20.3c-.08.08-.13.13,0,.23a1.2,1.2,0,0,1,.35.85c.05-.1,0-.26.14-.24s.09.14.09.22v.8c.48-.14.95-.29,1.43-.41.19,0,.23-.13.24-.3,0-.72.1-1.45.15-2.17,0-.09.1-.23,0-.26s-.05.15-.11.22a.56.56,0,0,0-.05.08c-.27.3-.53.6-.82.89-.11.11-.16.3-.35.31s0-.11,0-.15a7.12,7.12,0,0,1,.84-1.12c.05-.06.16-.13.07-.21s-.13-.45-.12-.69A4,4,0,0,0,21,17.26l0-.35a.68.68,0,0,0,0-.42l0-.38a.78.78,0,0,0,0-.45l0-.38a.73.73,0,0,0,.05-.46l0-.44a.58.58,0,0,0,0-.39l0-.38a.52.52,0,0,0,0-.39l0-.31a.47.47,0,0,0,0-.33l0-.24a.33.33,0,0,0,0-.27l0-.31a.29.29,0,0,0,0-.27l0-.31a.25.25,0,0,0,0-.26l0-.31a.2.2,0,0,0,0-.21l0-.43a.11.11,0,0,0,0-.14l0-.5a.2.2,0,0,0,0-.21l0-.37c.09-.29-.05-.3-.26-.21s-.4.08-.33.4a1.67,1.67,0,0,1-.1.85s0,0,0,0,0,0,0,0c0-.22-.07-.44-.12-.66-.16-.74.33-.81.87-.79a2.35,2.35,0,0,1,.37,0,.12.12,0,0,0,.14,0l.25,0,.17.08a.47.47,0,0,0,.62-.08c.2-.21.74,0,.93.31a1.44,1.44,0,0,1,.15.51c-.05.24.08.51-.08.78a3.83,3.83,0,0,1-.18-.65,3.2,3.2,0,0,0,0,1.15l-.06.45a.89.89,0,0,0,0,.51c0,.13.15.2.09.33h0c-.08,0-.14-.05-.12.07l0,.51a.59.59,0,0,0,0,.39l0,.7c-.06.33-.14.63.16.93A1.24,1.24,0,0,1,24,15.89c0-.41.16-.83-.09-1.22-.08,1.48-.2,3-.28,4.45.11,0,.19-.06.28-.09a1.34,1.34,0,0,1,1.55.64c.19.48,0,.89-.68,1.24-.08-.16.08-.2.14-.28s.36-.42.3-.73a.93.93,0,0,0-1.36-.5A1.33,1.33,0,0,1,24.51,21a.84.84,0,0,0-.16.24,1.56,1.56,0,0,0-.06.6c0,.14.25.1.39.12a1.16,1.16,0,0,1,.7,1.45c-.07.17-.19.36-.43.14a1.09,1.09,0,0,1,0-.25.57.57,0,0,0-.19-.72.9.9,0,0,0-1-.17c.69.57.72.61.84,1.37a.88.88,0,0,1-.64.88c-.13.05-.12.14-.12.26a27.71,27.71,0,0,1-.25,4l0,0h0c-.07-.37-.33-.33-.6-.29a2.94,2.94,0,0,1-.66,0c-.32,0-.4.12-.41.4,0,1.54-.12,3.08-.29,4.61,0,.12.1.26-.09.33a3.36,3.36,0,0,0-1,.56l-.15.05a20.63,20.63,0,0,1-2.72,1.31c-.43.16-.43.16-.36.68.41-.22.81-.44,1.2-.67.69-.41,1.42-.74,2.09-1.2.31-.06.55-.27.85-.35.26.09.08.19,0,.23-1.1.66-2.21,1.3-3.35,1.88-.84.43-.83.43-.81,1.38,0,.25.06.23.25.14,1-.52,2-1.12,3-1.74.13-.08.24-.17.41-.1a11.46,11.46,0,0,1-2.35,1.51l-1.07.57c-.1,0-.21.11-.21.25s0,.44,0,.71a24.31,24.31,0,0,1,4.37-3.07.48.48,0,0,1-.22.28L18.12,38.9c-.27.2-.67.31-.79.6a3.34,3.34,0,0,0,0,1c0,.52,0,1,0,1.56,0,.25.09.24.26.14.89-.51,1.8-1,2.66-1.53,1.56-1,3.27-1.7,4.81-2.73a.38.38,0,0,1,.17-.08c.26,0,.33-.23.34-.47.08-1.59.17-3.18.26-4.78,0-.07.05-.19-.06-.21s-.25,0-.29.14a.08.08,0,0,1,0,0c-.1-.21-.29-.13-.45-.15,0,0,0-.11,0-.11.4-.1.28-.39.26-.65s0-.45-.05-.67c-.07-.9,0-1.81,0-2.71a1,1,0,0,1,0-.18c0-.12,0-.34.15-.33s0,.22.09.32c-.12,1.3,0,2.61,0,3.92,0,.13.06.16.18.16s.19,0,.2-.19c.09-1.36.16-2.72.18-4.08a5.46,5.46,0,0,1,0-.57c0-.19,0-.55.34-.24,0,0,.06,0,.09,0a1.72,1.72,0,0,1,.75,0c.19,0,.2-.07.16-.2a2.68,2.68,0,0,1,0-.8l.12-2.58a2,2,0,0,1,.88,0c-.1.2-.3.09-.45.13s-.18.09-.19.24c0,1-.07,2.08-.18,3.11,0,.09,0,.18.08.2.31,0,.57.23.87.28,0,.1-.09.14-.14.2a6.59,6.59,0,0,0-.56.82c-.08.14,0,.17.1.24s.08-.05.11-.08.08-.11.15-.1.1.08.11.14l.09.67a1.12,1.12,0,0,0,.17-1c0-.17-.19-.36,0-.51s.23.17.39.16h0c-.06.17.08.29.09.45a.11.11,0,0,0,0,.14l0,.24A.26.26,0,0,0,29,29l0,.25a.59.59,0,0,0-.12.39.14.14,0,0,0-.15.1c-.43,0-.42.33-.43.67s.18.7.08,1a8,8,0,0,0-.15,1.46,8.43,8.43,0,0,1-.11.86c0,.19-.09.41-.37.39-.11-.06,0-.34-.22-.27a1,1,0,0,1-1.17-.26.75.75,0,0,0-.16.55c0,.51,0,1,0,1.53,0,.18-.06.38.05.55-.13.23,0,.47,0,.7s.08.11.16.1c.52-.06,1,0,1.56-.13a.45.45,0,0,0,.4-.36c0-.11.05-.23.07-.34.07-.44.12-.48.55-.46a1.36,1.36,0,0,0,.6-.11.18.18,0,0,0,.09-.24c-.05-.11-.13,0-.19,0s-.18.08-.27.1c-.65.17-.89,0-.78-.71L28.7,33l.12-.13a.51.51,0,0,1,.5.11c.06,0,.14.09.2,0a.35.35,0,0,0,.07-.2c0-.11-.1-.09-.17-.09l-.6,0a.41.41,0,0,1-.18-.39c0-.52.05-1,.1-1.55s.18-.48.55-.44a4.93,4.93,0,0,0,.54.05c.21,0,.29-.13.26-.34s-.1-.31-.34-.25a1.13,1.13,0,0,1-.81,0l-.06-.13a.34.34,0,0,0,.2-.17l.31-.16a1.3,1.3,0,0,1,.95,0l.07.06a1.81,1.81,0,0,1,.21,1,.78.78,0,0,1-.4.44.22.22,0,0,0-.19.06h-.45c-.16-.09-.28-.08-.29.14a2.66,2.66,0,0,0,0,.63v.32c-.09.17-.05.25.15.24a1.85,1.85,0,0,1,.62.07l.14.19v.33l-.28.62-.1.08a.13.13,0,0,0-.13.06h-.26c-.41-.13-.19.2-.24.33l0,.12a.19.19,0,0,0,0,.2l0,.12a.19.19,0,0,0-.05.2l0,.12c-.07.14-.16.33-.06.43s.28-.05.42-.11.08-.05.12-.08l.23-.12.38,0,.08.12v.38a.17.17,0,0,0,0,.2l0,.25a.23.23,0,0,0-.07.19.9.9,0,0,1-.31.21.57.57,0,0,0-.33.11l-.12,0c-.32-.07-.41.09-.37.38l0,.12a.11.11,0,0,0,0,.13,1.22,1.22,0,0,1-.34.44l-.32.12-.18,0a8.81,8.81,0,0,0-1.54,0c-.2,0-.3.05-.26.26a.42.42,0,0,0,0,.33l0,.18a.89.89,0,0,0-.12.39l-.09.17a.61.61,0,0,1-.3.08l-.07-.06c-.05-.12,0-.33-.26-.14l-.51.26a1,1,0,0,0-.41.22l-.29.17a.91.91,0,0,0-.41.22l-1.45.74a1.4,1.4,0,0,0-.54.28l-.16.1a.46.46,0,0,0-.28.16l0,0a.47.47,0,0,0-.29.16l-.16.1a.2.2,0,0,0-.16.09l-.16.1a.53.53,0,0,0-.28.16l-.86.43A5.68,5.68,0,0,0,18.13,42.48Zm4.54-28.16a.22.22,0,0,0,0,.09,1.63,1.63,0,0,1,.66.44.08.08,0,0,0,.14-.06c0-.16.09-.36,0-.49a.47.47,0,0,0-.45-.08l-.36.11c-.06-.15.07-.19.14-.26a1.27,1.27,0,0,1,.47-.06c.31.07.34-.08.27-.35a1.55,1.55,0,0,1-.74.27c-.39,0-.61-.3-.92-.51-.05.58-.1,1.12-.15,1.65,0,.18.07.19.19.12a1.17,1.17,0,0,0,.42-.54A.57.57,0,0,1,22.67,14.32Zm4.42,16.31a3.93,3.93,0,0,1,.49,0c.34.08.3-.09.25-.38a.64.64,0,0,1-.73.29,1,1,0,0,1-.56-.5c0,.54-.05,1-.09,1.53,0,.17,0,.21.21.2a4.28,4.28,0,0,1,.8,0c.13,0,.34.09.32-.16s.2-.48-.21-.54a2.76,2.76,0,0,0-.76,0c-.11,0-.25,0-.28-.1s.12-.18.23-.22S27,30.72,27.09,30.63Zm-6-7.08c-.05-.12.1-.15.1-.27,0-.43,0-.85,0-1.28,0-.17-.08-.12-.18-.09l-1.33.41a.21.21,0,0,0-.18.2V23a3,3,0,0,1,1.37-.29c-.39.17-.78.33-1.18.48a.34.34,0,0,0-.23.3c-.05.39.27.5.5.66s.27-.13.4-.21.11-.11.17-.15.3-.31.54-.27a1.82,1.82,0,0,1-.36.51c-.49.55-.6.56-1.2.15,0,0,0,0-.1,0v3.63a21.35,21.35,0,0,1,1.59-1.57c.33-.31.36-.42.18-.91a3.55,3.55,0,0,1-.85.45c.27-.29.46-.56.8-.63a.08.08,0,0,0,.07-.11,2.05,2.05,0,0,0-.05-.54l-.43.32a.17.17,0,0,1-.14,0c-.05-.05,0-.1,0-.13s.27-.27.42-.4A.67.67,0,0,0,21.13,23.55Zm-.76,10.74c.32-.14.63-.3,1-.41a.26.26,0,0,0,.2-.32,31.72,31.72,0,0,1,0-3.9c0-.29.06-.57.09-.86a.4.4,0,0,1,.48-.42c.35,0,.7,0,1.05-.05.14,0,.21,0,.21-.21a12.34,12.34,0,0,1,.13-2.1c0-.16,0-.25-.19-.25a2,2,0,0,1-.69-.13c-.21-.06-.29,0-.28.22a1.54,1.54,0,0,1-.44,1.23c-.33.35-.62.73-.93,1.1a.51.51,0,0,0-.13.34,12.66,12.66,0,0,1-.35,3.58c-.18,0-.13-.11-.14-.18a5.25,5.25,0,0,1,0-1.12l.18-2a14.12,14.12,0,0,0-1,1.09.74.74,0,0,0-.2.58,6.3,6.3,0,0,1,0,1.44c-.05.39,0,.76-.4,1.1s-1,1-1.58,1.48a.32.32,0,0,0-.15.27c0,.28,0,.57,0,.86,0,.12,0,.19.16.12A21.86,21.86,0,0,0,20.37,34.29Zm3.12-15.13a6,6,0,0,1-1.84-.09c0,1.47-.12,2.9-.15,4.33,0,.77,0,1.54-.06,2.31a1.1,1.1,0,0,1-.41.88c-.48.4-.94.84-1.4,1.26-.1.08-.21.16-.21.31v1.49a3.73,3.73,0,0,0,.25-.29c.63-.78,1.21-1.6,1.92-2.32a1.4,1.4,0,0,0,.56-1.38v0a.27.27,0,0,1,.18-.28c.34-.18.67-.06,1-.08.09,0,.19.05.23-.09a.41.41,0,0,0-.25-.58c-.12-.06-.25-.12-.36-.19a.92.92,0,0,1-.43-.88,1.93,1.93,0,0,0,.85.89.71.71,0,0,0,1-.65,1.29,1.29,0,0,0-.5-1.09.28.28,0,0,1-.14-.3,2.46,2.46,0,0,0-.45.47.93.93,0,0,1-.68.4c-.12,0-.18,0-.11-.16a3.77,3.77,0,0,1,.5-.73,1,1,0,0,1,.82-.48c.32,0,.31-.17.24-.39-.76.19-1.16,0-1.43-.62-.13-.32-.08-.63.14-.69a.58.58,0,0,0,.45-.49.82.82,0,0,1,.32-.45c.07,0,.14,0,.1-.12S23.54,19.11,23.49,19.16Zm-5.1.78c-.11.24.1.35.29.42s.23-.15.32-.26a1.53,1.53,0,0,0,.11-.16,1.86,1.86,0,0,0,.53-1.44c0-1.91.18-3.81.29-5.72,0-.5,0-.5-.45-.59a2.59,2.59,0,0,1-.37-.11c-.21-.09-.29-.06-.29.2s0,.78,0,1.18C18.77,15.61,18.54,17.76,18.39,19.94Zm5-3.38c-.81.5-1.27.08-1.71-.6-.06.9-.12,1.69-.17,2.48,0,.18.06.21.22.23A6.7,6.7,0,0,1,23,18.9c.16.05.19,0,.22-.14C23.31,18.07,23.26,17.36,23.37,16.56ZM17.25,34.38c.71-.56,1.18-1.23,1.77-1.77a.21.21,0,0,0,.07-.14c.09-.65.06-1.3.1-2l-.1,0c-.62.75-1.18,1.53-1.76,2.31a.38.38,0,0,0-.08.23Zm1.09-6a.84.84,0,0,0-.91-.92.87.87,0,0,0-.87.9.9.9,0,0,0,.79.9A1,1,0,0,0,18.34,28.37Zm5.1-12.87c0-.18,0-.35-.26-.51s-.25-.13-.37-.21-.29-.09-.38.1-.19.39-.39.45-.25.29-.18.48a1.26,1.26,0,0,0,.46.56.88.88,0,0,0,.91.05c.26-.09.11-.33.17-.5A3.32,3.32,0,0,0,23.44,15.5Zm.38-5.19c.06-.36-.18-.59-.47-.79s-.41-.23-.64,0a1,1,0,0,1-.45.23c-.18,0-.17.14-.15.28a1.27,1.27,0,0,0,.74.9C23.47,11.23,23.8,11,23.82,10.31ZM18,23a.62.62,0,0,0,.65-.61,1.14,1.14,0,0,0-.77-1c-.19,0-.42-.08-.54.07A1.12,1.12,0,0,0,17,22,1,1,0,0,0,18,23Zm6.38-2.59a.94.94,0,0,0-.37-.7c-.24-.17-.39-.16-.5.11a.85.85,0,0,1-.54.58c-.12,0-.19.11-.17.24a.89.89,0,0,0,.26.63.67.67,0,0,0,.79.17A1,1,0,0,0,24.36,20.36Zm-1.53-6.8c.47,0,.92-.49.77-.88a1.32,1.32,0,0,0-.73-.77.31.31,0,0,0-.43.15c-.12.2-.19.43-.46.5-.08,0-.05.13,0,.2A.91.91,0,0,0,22.83,13.56Zm4.69,18.62c-.63,0-1,.39-.84.93a.45.45,0,0,0,.33.35.37.37,0,0,0,.42-.16,1.7,1.7,0,0,0,.29-.93C27.74,32.2,27.68,32.14,27.52,32.18Zm-1-4.63v1c0,.1,0,.16.14.16a2.49,2.49,0,0,0,.61,0c.15,0,.1-.28.18-.41s.07-.16.12-.23,0-.18-.09-.24A7.68,7.68,0,0,1,26.48,27.55ZM22,10.49l-.09,1.86.09,0a2,2,0,0,1,1.09-1.11C22.62,11.22,22.36,10.87,22,10.49ZM26.52,29c.16.32.31.62.47.92a.34.34,0,0,0,.36.2c.14,0,.17-.15.2-.26s.07-.4.09-.59,0-.17-.07-.14C27.21,29.26,26.91,28.94,26.52,29ZM23.87,9.54q.07-.29.15-.54c.05-.17-.07-.23-.19-.28s-.3-.06-.3,0c0,.24-.26.25-.36.4Zm-6.7,17.6c.83-.1,1.42.07,1.55,1,.11-.62-.07-.91-.71-1.23C17.73,26.79,17.47,26.86,17.17,27.14ZM22.89,9l-.31-.06c-.46-.07-.47-.06-.49.39v0c0,.14.08.19.17.13S22.76,9.24,22.89,9Zm.76,3.35c0-.26.15-.53,0-.69s-.41,0-.69.08C23.3,11.8,23.44,12.06,23.65,12.31Zm-1,10.75c.51-.07.62-.58.95-.85C23.08,22.31,23,22.8,22.62,23.06Zm.66,2.55c.07.1.14.14.23.11a.06.06,0,0,0,0-.1C23.47,25.54,23.38,25.59,23.28,25.61Zm.38-3.44h0Zm-2.54-3.1h0s0,0,0,0h0Z"/><path class="cls-3" d="M5.27,28.78c0-.1,0-.17.14-.16s.11.13.11.22c0,.62-.08,1.24-.15,1.85,0,.24,0,.35.25.42l.23.1c.29.19.68.27.63.77,0,.32.3.41.5.58s.11-.14.23-.1a1,1,0,0,1,0,.58c0,.18,0,.28.2.31A4.29,4.29,0,0,1,9,33.82c.13.08.19,0,.2-.13s0-.3,0-.45.08-.17.2-.19.08.12.09.16a2,2,0,0,1,.06,1.07.23.23,0,0,0,.11.29q1.83,1.35,3.65,2.71c.16.11.24.11.26-.11.06-.69.12-1.38.19-2.07a.43.43,0,0,0-.21-.45c-1-.76-2.06-1.55-3.06-2.38a.77.77,0,0,1-.31-.75c.1-1.88.17-3.77.41-5.64s.31-3.78.38-5.68c0-.1,0-.19-.1-.24a5.57,5.57,0,0,1-1.36-1.1c-.06-.06-.11-.15-.21-.12s-.09.16-.09.25a22.59,22.59,0,0,1-.25,3.18c0,.21.18.34.46.25a1.16,1.16,0,0,1,1.11.25.89.89,0,0,1-.5.09c-.27-.05-.31.1-.33.32l-.6,6.62c-.06.59-.13,1.19-.21,1.78,0,.16,0,.21.16.25a5.59,5.59,0,0,1,.66.29,2.37,2.37,0,0,1-.79,0c-.22-.06-.19.14-.29.27a6.08,6.08,0,0,1,0-1.59C8.65,29,8.78,27.3,9,25.6c.1-.9.22-1.8.35-2.7,0-.23,0-.28-.24-.22a2.22,2.22,0,0,1-.45.05s-.11,0-.13.06,0,.09.08.12a.91.91,0,0,1,.33.79c0,.23-.1.28-.29.3-.37,0-.55-.09-.77-.49,0-.08,0-.22-.15-.22s-.16.13-.2.22a.88.88,0,0,0,.09,1.14.37.37,0,0,0,.46.09,1.5,1.5,0,0,1,.77-.25,1.16,1.16,0,0,1-1.08.61A1,1,0,0,1,7.11,24a1.29,1.29,0,0,1,.45-.89c.18-.14.16-.25,0-.38a.85.85,0,0,0-1.13,0,.61.61,0,0,0,0,1c.16.17.34.32.54.51A1.23,1.23,0,0,1,6.48,24a.87.87,0,0,1-.36-1.3,1,1,0,0,1,1.44-.34c.21.13.39.36.64.06,0,0,.06,0,.09,0s.43.06.51-.08-.06-.34-.07-.52a14.29,14.29,0,0,1,.08-2.36l.09-1.21c0-.17.06-.22.24-.11a7.57,7.57,0,0,1,1.55,1.32c.06.06.09.17.2.13s.06-.14.08-.22a.75.75,0,0,0-.27-.76c-.38-.36-.72-.75-1.07-1.14-.09-.09-.24-.2-.13-.31s.23,0,.32.11a5.11,5.11,0,0,1,.88.92c.12.15.27.42.36,0,0,0,0-.1.07-.1.35-.05.42-.42.68-.57.11-.06.11-.17.11-.28v-.83c0-.29.06-.6-.46-.42a.85.85,0,0,0,.48-.88c0-.41,0-.81,0-1.22s0-.33-.29-.29c.34-.42.33-.53-.18-.49s-.57-.28-.83-.5c-.08.08,0,.18-.07.26h0v0A14.37,14.37,0,0,1,10.66,9a21.45,21.45,0,0,0,.15-2.39c0-.46.19-.85.2-1.29A10.43,10.43,0,0,0,11,4.1a1.21,1.21,0,0,1,.3-.78l-.3,0c-.08,0-.19.06-.22-.06s.12-.14.2-.16a5.36,5.36,0,0,1,1.26-.21h1.4a.71.71,0,0,1,.71.37,7,7,0,0,1,.44.81c.05.1,0,.15,0,.23s0,.08,0,.14l0,.31a.2.2,0,0,0,0,.2l0,.37a.43.43,0,0,0,0,.33l0,.44a.32.32,0,0,0,0,.27c-.05.76-.09,1.53-.1,2.29a.22.22,0,0,0,0,.21c0,.87-.08,1.74-.13,2.61,0,.14,0,.2.16.2a1,1,0,0,1,.28.12c-.46,0-.49.24-.5.57a1.8,1.8,0,0,1-.18.78A6.18,6.18,0,0,1,14,11c.09-1.23.08-2.47.18-3.7a25.32,25.32,0,0,1,.33-3.14c0-.13,0-.13-.37-.47v.83c0,1.21-.14,2.42-.22,3.63-.06,1-.11,1.89-.17,2.84,0,.25,0,.49-.06.73A1.58,1.58,0,0,0,14,12.91c-.18,0-.41-.32-.38.09l-.14,0a5.08,5.08,0,0,1-1.16.06,37.71,37.71,0,0,1-.12,4c0,.24,0,.26.24.23a1.17,1.17,0,0,1,1.29.73,1.51,1.51,0,0,0-1.74.69A.88.88,0,0,0,12.56,20a1.83,1.83,0,0,0,1-.06.71.71,0,0,0,.49-.74c0-.4-.12-.78-.14-1.17a2,2,0,0,1,.22,1.54.91.91,0,0,1-.09.17,1.43,1.43,0,0,1-1.49.42,1,1,0,0,1-.82-.9c0-.22-.2-.26-.31-.36l-.06.1c.05-.08,0-.12-.06-.13,0-.19,0-.38,0-.56s0-.12-.06-.12-.08.05-.08.1c0,.21,0,.42.05.63l0,.1a4.28,4.28,0,0,0-.11,1.07c0,.26,0,.52,0,.83a2,2,0,0,1,1.08-.66.54.54,0,0,1,.4.07,3.77,3.77,0,0,1,1,1.33,1,1,0,0,1-.46-.38.47.47,0,0,0-.55-.19l-.29.05c-.48.15-.79.49-.76.86A1.22,1.22,0,0,0,12.53,23a.63.63,0,0,0,.58-.2A2.25,2.25,0,0,0,13.7,22a1.24,1.24,0,0,1-.63,1.25A1.05,1.05,0,0,1,11.86,23a1.44,1.44,0,0,1-.43-.73,1,1,0,0,0-.36-.54c-.07.34-.13.65-.19,1,0,.15.2.13.22.28s-.09.53.07.63.41-.12.64-.13c1,0,1.43.51,1.7,1.35,0,.09,0,.2-.11.19a1,1,0,0,0-1.29-.66,1.05,1.05,0,0,0-.7.69,1.06,1.06,0,0,0,.5,1A.89.89,0,0,0,13,25.93a1.29,1.29,0,0,0,.42-.86,2.18,2.18,0,0,0,0,.25,1.07,1.07,0,0,1-.88,1.1,1,1,0,0,1-1.17-.75,2.21,2.21,0,0,1-.05-.25c0-.09,0-.17-.14-.17s-.12.11-.13.18c-.06.62-.11,1.23-.17,1.85a37.38,37.38,0,0,1-.47,4.48s-.07.11,0,.16a12.55,12.55,0,0,1,1.79,1.38c.52.4,1,.82,1.58,1.28.08-1,.23-1.88.26-2.8a.65.65,0,0,0-.09-.3c-.29-.67-.63-1.33-.95-2a3.08,3.08,0,0,1-.22-2.09,1.43,1.43,0,0,1,.09-.27c0-.06.08-.1.15-.07s.05.08,0,.14a3.25,3.25,0,0,0,.48,2.62A8.16,8.16,0,0,1,14,31.2c.11,0,.07-.2.19-.16s.08.16.09.25a22.2,22.2,0,0,1-.09,3.16c-.07,1-.17,2-.23,3.08-.08,1.4-.15,2.79-.22,4.19,0,.11,0,.23,0,.35s.41.3,0,.39c0,0,0,.1,0,.15-.2,4.65-.35,9.29-.23,13.94,0,.22,0,.3.27.27a11.56,11.56,0,0,1,1.86,0,8.21,8.21,0,0,0,1,.21c0,.11-.14.12-.23.14a.12.12,0,0,0-.14,0,8.8,8.8,0,0,1-1.92.06,1.26,1.26,0,0,0-.58,0,.51.51,0,0,0-.5.11.42.42,0,0,1-.35-.16l-.05-.16c0-1.32,0-2.63,0-4,0-.33,0-.66,0-1l0-2.42a6.19,6.19,0,0,0,0-1.29l0-.7a3,3,0,0,0,.05-.9l0-.51a1.26,1.26,0,0,0,0-.58l0-.44a1.58,1.58,0,0,0,0-.65l0-.5a1.88,1.88,0,0,0,0-.71l0-.76c0-.22.17-.46-.07-.65-1-.57-1.93-1.27-2.9-1.9-1.43-.93-2.88-1.85-4.32-2.77L4.5,36.42c-.1-.06-.23-.14-.16-.25s.19,0,.28,0l.83.46c1,.7,2.07,1.31,3.18,2-.07-.2-.19-.23-.28-.29l-2-1.28a4.81,4.81,0,0,0-.87-.53c-1-.72-.89-.34-.84-1.8l.15-1.43c0-.51.08-1,.16-1.52.13-.84.22-1.7.28-2.55l.06-.32Zm6.08,11.58s0,.07,0,0h-.05s0-.07,0,0Zm-.2-.13,0,0h0l0,0-.06-.07L11,40.11,10.9,40a.12.12,0,0,0-.14,0c0-.05,0-.06-.06-.07s0-.07,0,0h.05l.06.07.13.06.06.07a.12.12,0,0,0,.14,0C11.09,40.21,11.12,40.22,11.15,40.23Zm1.09.78h0l-.06-.06,0,0h0Zm-.25-.2s0,0,0,0,0,0,0,0l0,0-.06-.07-.13-.05-.06-.07a.13.13,0,0,0-.14-.06c0-.05,0-.06-.05-.07s0-.07,0,0l0,0,.06.07a.12.12,0,0,0,.14,0s0,.06,0,.07a.12.12,0,0,0,.14.06S12,40.8,12,40.81ZM8.82,38.73l.09,0c.05.06.1.13.21.1a.23.23,0,0,0-.18-.13l-.08-.05c-.06-.06-.11-.14-.22-.1A.28.28,0,0,0,8.82,38.73Zm.61.35a.18.18,0,0,0,.21.11c-.08-.08-.13-.14-.22-.1,0-.14-.13-.17-.32-.19C9.25,39,9.31,39.08,9.43,39.08Zm2.74-30a1.17,1.17,0,0,1-.52.07c-.6.06-.67.14-.63.73a2.71,2.71,0,0,1,0,.29s0,.11,0,.09c-.29-.1-.18.15-.19.24,0,.51-.07,1-.12,1.53,0,.19,0,.26.21.27.68,0,1.36,0,2,0,.5,0,.5,0,.51-.49.05-1.68.12-3.36.31-5,.12-1.07.2-2.14.22-3.22,0-.23-.08-.41-.31-.44a6.77,6.77,0,0,0-.78,0l-.06.06c.88.35.86,1.15.8,1.82a1.2,1.2,0,0,1-1.18,1c.22.17.26.41.51.48a.89.89,0,0,1,.52,1.17c0,.06-.06.15-.12.13S13.2,8,13.18,8a1.25,1.25,0,0,1-1,.9A1.47,1.47,0,0,1,11,8.22l-.06.87A1.38,1.38,0,0,1,12.17,9.08Zm1.09,32c.06-1,.12-2.06.2-3.07a.48.48,0,0,0-.24-.47c-1.27-.87-2.54-1.73-3.73-2.69-.19-.16-.4-.3-.34-.6,0-.07,0-.15-.1-.16a6.69,6.69,0,0,1-1.54-.39c-.61-.15-.6-.17-.47-.77a.8.8,0,0,0,0-.15c0-.09,0-.13-.12-.14-.64-.08-.75-.21-.73-.85,0-.1,0-.18-.11-.23l-.63-.29c-.15-.08-.23-.05-.21.12a3.54,3.54,0,0,1-.06.92c-.14,1.09-.23,2.18-.44,3.26,0,.16.05.2.15.27C7.72,37.53,10.53,39.19,13.26,41.08ZM12.44,4c-.53,0-.85.36-.82.81s.54.9.89.88a1,1,0,0,0,.75-.91A.89.89,0,0,0,12.44,4ZM12,8.42c.31,0,.73-.51.72-.86a.56.56,0,0,0-.63-.5.92.92,0,0,0-.83.88C11.3,8.19,11.66,8.43,12,8.42Zm0-2.53c-.7-.72-.8-1.14-.45-1.68a.91.91,0,0,1,.55-.45,1.41,1.41,0,0,1,1.1.09c.07-.16,0-.23-.12-.3a1.71,1.71,0,0,0-.88-.34.89.89,0,0,0-.84.36.27.27,0,0,0-.07.2,9.76,9.76,0,0,1-.11,2.15C11.39,6,11.65,5.81,12,5.89Zm-1.18,6.57c.15.18.23.47.35.44a1.45,1.45,0,0,1,.78.18c.06,0,.15.05.15,0,0-.25.17-.17.28-.17h.83c.08,0,.27.11.22-.12s.1-.36-.22-.34C12.42,12.47,11.65,12.5,10.81,12.46Zm2.11,11.79a1.1,1.1,0,0,0-1.4-.53c-.27.07-.46.2-.43.53a3.64,3.64,0,0,1,0,.57c0,.08-.06.19,0,.23s.13-.11.17-.18a1.1,1.1,0,0,1,1.38-.66Zm-1.21-5.31a1.46,1.46,0,0,1,1.61-1.1,1.93,1.93,0,0,0-.56-.36.93.93,0,0,0-.57,0c-.24.06-.08.35-.25.45,0-.11,0-.23,0-.33A.77.77,0,0,0,11.71,18.94ZM11,7.46a1.35,1.35,0,0,1,1.37-.86,1,1,0,0,0-1.19-.34.24.24,0,0,0-.11.21C11.08,6.8,11.06,7.13,11,7.46ZM12.8,20.82c-.18-.45-.39-.53-.78-.33a2,2,0,0,0-.62.5.53.53,0,0,0-.06.67A1.7,1.7,0,0,1,12.8,20.82Zm-4.17,2.9A1.14,1.14,0,0,0,8.07,23c-.1-.05-.17-.08-.17.07A.77.77,0,0,0,8.63,23.72Zm1.5,15.85h.06l-.06-.07h-.06Zm.25.1-.08-.06,0,0,.06.06S10.36,39.68,10.38,39.67Zm.19.13-.07,0,0,0a.08.08,0,0,0,0,0Zm-.76-.51a.18.18,0,0,0-.07,0s-.07,0,0,0a.13.13,0,0,0,.07,0Zm.11.06,0,0,.07.06,0,0Z"/><path class="cls-4" d="M16.64,57.07a8.21,8.21,0,0,1-1-.21c-.14-1.31-.05-2.62-.08-3.93,0-.89,0-1.79-.05-2.68,0-1.3,0-2.6,0-3.9,0-2.52.13-5,.15-7.57,0-1.3.11-2.59.09-3.89,0-1-.07-2.09-.11-3.13,0-.1,0-.21-.09-.25a1.28,1.28,0,0,1-.61-.71c-.22-.42-.54-.78-.72-1.21,0-.08-.08-.16,0-.24a.34.34,0,0,1,.08.09c.05.07.08.22.19.17s0-.16,0-.24a5.21,5.21,0,0,0-.35-1,1.41,1.41,0,0,1,.22-1.23.89.89,0,0,0,.24-.52c0-.68.08-1.36.14-2,.29-3,.46-6,.46-9,0-1.27,0-2.55,0-3.83a1,1,0,0,1,.86-.51,3.11,3.11,0,0,1,.61,0,9.4,9.4,0,0,0,2.12.18v.13c-.12,0-.12.14-.12.24-.07,2.72-.42,5.43-.43,8.16,0,.25-.06.37-.33.35a1.22,1.22,0,0,0-.32,0,.92.92,0,0,0-.85.61c-.18.05-.29.26-.5.26,0-.1,0-.21,0-.32s0-.14-.07-.15-.11.06-.12.13,0,.27-.05.41l-.24,3.57c-.08,1.21-.19,2.42-.21,3.64a2.83,2.83,0,0,0,.07.76l.18-.24a2.11,2.11,0,0,1,.32,1l-.37.06c-.07,0-.15,0-.15.12s.09.1.14.11l1,.15a2.34,2.34,0,0,1,.2,1.11c0,.21-.08.44.07.64a49.07,49.07,0,0,0-.27,5c-.22,6.26-.29,12.52-.37,18.78,0,.19,0,.38,0,.57a.4.4,0,0,0,.39.4.42.42,0,0,0,.43-.39c0-.18,0-.38.06-.56C17.35,56.63,17.18,57,16.64,57.07Z"/><path class="cls-4" d="M24.82,20.91c.66-.35.87-.76.68-1.24A1.34,1.34,0,0,0,24,19c-.09,0-.17.13-.28.09.08-1.49.2-3,.28-4.45.25.39.11.81.09,1.22a1.24,1.24,0,0,0,.13-1.47c-.3-.3-.22-.6-.16-.93a.2.2,0,0,0,.28.09c.56-.18,1.13-.34,1.71-.49a.44.44,0,0,1,.51.14,17.35,17.35,0,0,0-2.12.44c-.1,0-.24.07-.21.2s.18.07.27.05a15.06,15.06,0,0,0,2.2-.55c.15.21,0,.52.19.7a.48.48,0,0,1,0,.31c0,.84,0,1.68-.11,2.52,0,.14.09.33-.15.4-.05,0,0,.06,0,.06s.12.1.11.19c-.05.67-.05,1.34-.15,2a21.53,21.53,0,0,0-.28,3.31c0,.93.06,1,1,.74l.14-.08-.12,2.58a2.68,2.68,0,0,0,0,.8c0,.13,0,.22-.16.2a1.72,1.72,0,0,0-.75,0s-.07,0-.09,0c-.39-.31-.32.05-.34.24A5.46,5.46,0,0,0,26,28l-.52.19c-.07-.1.05-.31-.09-.32s-.11.21-.15.33a1,1,0,0,0,0,.18c-.09,0-.17.09-.28.06a.5.5,0,0,0,0-.12c0-.08,0-.21-.11-.21s-.12.13-.14.22a2.23,2.23,0,0,0-.05.36c-.33.07-.61.35-1,.2a27.71,27.71,0,0,0,.25-4c0-.12,0-.21.12-.26a.88.88,0,0,0,.64-.88c.14,0,.16-.23.31-.23.24.22.36,0,.43-.14a1.16,1.16,0,0,0-.7-1.45c-.14,0-.36,0-.39-.12a1.56,1.56,0,0,1,.06-.6.84.84,0,0,1,.16-.24A.41.41,0,0,1,24.82,20.91Z"/><path class="cls-3" d="M5.4,13.12a1.21,1.21,0,0,1,.43.44c.3.37.53.83,1.09.9,0,.2.09.37.08.57l0,.07c-.17.52-.3.59-.83.42v.58c.27-.11.48-.39.82-.37h0a1.64,1.64,0,0,1-.7.58.23.23,0,0,0-.16.23c-.1,1.79-.4,3.57-.51,5.36-.08,1.35-.11,2.69-.17,4a14,14,0,0,1-.16,1.69c-.11-.11-.08-.24-.08-.35a30.83,30.83,0,0,1,.13-4c.08-.86.11-1.72.18-2.58,0-.44.09-.89.14-1.33,0-.15,0-.22-.16-.23a.92.92,0,0,1-.28-.09c-.34-.12-.53,0-.53.37,0,.89-.18,1.78-.27,2.67S4.17,24,4.14,25,4,26.67,3.91,27.52c0,.19,0,.28.21.3a.37.37,0,0,1,.15,0c.17.1.38.06.34.44-.06.59-.06,1.21-.1,1.81,0,.77-.1,1.53-.16,2.36a22.86,22.86,0,0,1,.05-3.8c0-.46-.07-.57-.54-.56-.26,0-.36-.14-.24-.37s0-.35.06-.63c-.22.35-.46.47-.78.35-.08,0-.11,0-.12.1s-.08.3.1.4l.58.28-.23.06c-.53.1-.85-.2-.7-.71a2.68,2.68,0,0,0,0-.85c0-.13-.1-.11-.19-.1a10,10,0,0,1-1.34,0c-.07,0-.17-.06-.19.08a1.08,1.08,0,0,0,1,1.12c.13,0,.18,0,.18-.15s0-.32,0-.48S2,27,2.09,27s.1.11.1.18c0,.3,0,.6,0,.89-.1,1.8-.21,3.59-.31,5.39a10.38,10.38,0,0,1-.18,1.3L1.6,33.66c-.06,0-.11,0-.17,0A1,1,0,0,1,0,32.86c-.09-.42,0-.53.43-.51l.92.07c.21,0,.29-.06.29-.27s0-.73,0-1.09c0-.13,0-.18-.17-.18A.94.94,0,0,1,.47,30a4.21,4.21,0,0,0,0-.5c0-.11.07-.1.14-.08.31.06.62,0,.93,0s.32-.08.32-.32a7.56,7.56,0,0,1,.07-.82c0-.2,0-.24-.22-.23a3,3,0,0,1-.42,0,.54.54,0,0,1-.51-.44,5.06,5.06,0,0,1-.12-.78.35.35,0,0,1,.23-.44h1l-.37-.26a.92.92,0,0,1-.1-.67A.49.49,0,0,1,2,25.06a7.61,7.61,0,0,0,1.58.22c.1,0,.24.16.25-.09l0-.44A8.39,8.39,0,0,0,4,23.52c0-.09,0-.25,0-.27-.23-.14-.51,0-.75-.11-.06,0-.14,0-.14.06a2.27,2.27,0,0,0,0,1c.07.19.18.25.35.09a3,3,0,0,0,.4-.53,1.55,1.55,0,0,1-.2.63c-.4.35-.67.26-.77-.26,0-.16-.05-.33-.08-.49l0-.07c.08-.17.15-.42.06-.5a6.33,6.33,0,0,1-.64-.83.27.27,0,0,0-.28-.1c-.13,0-.12.14-.14.22a1.83,1.83,0,0,0,.09.87H1.75c0-.22-.13-.43-.13-.66a.65.65,0,0,1,.87-.67,5.24,5.24,0,0,1,1.42.63,8.06,8.06,0,0,1-1.23-.41c-.09,0-.21-.11-.27,0s.07.16.1.24c.25.58.79.69,1.33.8.2,0,.18-.1.19-.21.07-.62.13-1.24.19-1.88-.2.12-.27.4-.56.4s-.29,0-.35-.21a1.7,1.7,0,0,1-.06-1,.33.33,0,0,0-.09-.34,1.59,1.59,0,0,1-.22-.35c-.09-.13-.16-.28-.26-.4s-.19-.21-.32-.17-.14.19-.15.3a1.44,1.44,0,0,0,.45,1.42L3,21a1,1,0,0,1-.86-.89,2.16,2.16,0,0,1,0-1c.09-.25.25-.38.51-.28a2.68,2.68,0,0,0,1.81,0,1.4,1.4,0,0,1,1.23.32c0-.15,0-.29,0-.42s0-.31-.21-.47a11,11,0,0,1-.93-.64.39.39,0,0,1-.14-.45.48.48,0,0,1,.43-.31,1.42,1.42,0,0,1,1,.27V15.17c0-.12-.06-.15-.18-.15a1,1,0,0,1-.94-.87,1.69,1.69,0,0,1,.22-1.05c.08-.14.17-.2.32-.12a.27.27,0,0,1-.06.19,1.21,1.21,0,0,0,.09,1.57c.13.17.42.23.47.16.36-.47.29,0,.36.15s.32.28.48,0a1.54,1.54,0,0,0,.26-.51,1.24,1.24,0,0,1-.82-.4,5.74,5.74,0,0,1-.69-1Zm-3.77,20v-.32c0-.07,0-.12-.11-.11a3.93,3.93,0,0,1-1.08-.11c-.17,0-.26,0-.19.21a1,1,0,0,0,.88.73C1.61,33.59,1.61,33.59,1.63,33.1ZM.4,29.57a8.12,8.12,0,0,0,.47.89.9.9,0,0,0,.78.29c.18,0,.05-.32.09-.5s0-.23,0-.34,0-.16-.14-.16A7,7,0,0,1,.4,29.57ZM2.86,19.14a.86.86,0,0,1,.28.37,1,1,0,0,0,.4.44,1,1,0,0,0,.77.11c.15-.06.06-.35.1-.54a.85.85,0,0,0,0-.16c0-.28,0-.28-.3-.2,0,.12.21.18.16.38C3.89,19.15,3.39,19.26,2.86,19.14Zm2.89-1.39c-.12.06-.28,0-.38.13a.8.8,0,0,0,.37.29,3.84,3.84,0,0,0,.14-.4.54.54,0,0,0-.14-.6,1.23,1.23,0,0,0-.91-.23.29.29,0,0,0-.26.21.26.26,0,0,0,.12.3.78.78,0,0,0,.59.19A.46.46,0,0,1,5.75,17.75Zm-2,8.68c0-.16,0-.2-.2-.17a1.21,1.21,0,0,1-.38,0c-.33,0-.39,0-.38.34a1.32,1.32,0,0,0,.09.43.21.21,0,0,0,.28.13A1.23,1.23,0,0,0,3.74,26.43ZM3.41,20.7c0,.13-.05.38.19.46s.32-.15.45-.29a.83.83,0,0,0,.13-.18c.21-.35.18-.4-.2-.45a1.25,1.25,0,0,1-.19,0c-.31-.13-.39,0-.38.3A1.11,1.11,0,0,1,3.41,20.7Zm-1.79,5a.51.51,0,0,0,.14.38,2.15,2.15,0,0,0,.56.34c.07,0,.15.15.22,0s.15-.25,0-.32a6.22,6.22,0,0,1-.51-.64c-.08-.08-.17-.18-.3-.13S1.61,25.54,1.62,25.68Zm.83-.34c.19.56.63.66,1.12.69.08,0,.21.1.21-.08s.11-.35-.13-.4S2.85,25.41,2.45,25.34ZM2.38,22l0,0,0,0s0,0,0,0Z"/><path class="cls-3" d="M7.62,7.4a4.47,4.47,0,0,1,2.45.9,1.89,1.89,0,0,1-1-.32,5.4,5.4,0,0,0-1.25-.35c-.09,0-.09,0-.09.11,0,1.44-.16,2.85-.25,4.28-.08,1.19,0,2.39,0,3.58,0,.19.1.23.23.29a9.78,9.78,0,0,1,1.47.77.35.35,0,0,1,.19.19,2.17,2.17,0,0,1-.94-.26c-.14-.08-.27-.16-.42-.23-.58-.26-1-.58-.91-1.33a1.26,1.26,0,0,0,0-.58c.05-.87.1-1.74.17-2.61,0-.22-.13-.24-.25-.31-.53-.34-.54-.34-.59.31a2.57,2.57,0,0,0,0,.48c0,.37.12.43.45.27A1,1,0,0,0,7,12.5a.46.46,0,0,1-.43.4c-.21,0-.29-.14-.35-.31a2.4,2.4,0,0,1,0-1.16c0-.21.06-.38-.25-.32s-.3-.1-.36-.26-.13-.35-.2-.54c-.67.69-.48,1.26.59,1.81a.93.93,0,0,1-1.12-1,4.26,4.26,0,0,1,.2-.8c.1-.31.3-.35.55-.14a.25.25,0,0,0,.16.08,8.59,8.59,0,0,1,1.13.32c.3.1.33.07.34-.25s0-.87.08-1.3c0,0,.08,0,.09-.06s0-.08-.1-.09a1.46,1.46,0,0,0-.66-.32.8.8,0,0,0-.06.78c0,.32.27.27.49.26a.31.31,0,0,1-.31.28.3.3,0,0,1-.31-.25c0-.18-.15-.23-.34-.25a1.23,1.23,0,0,1-1-.73,1,1,0,0,1,.54-1.31H6l.06,0a1.67,1.67,0,0,0,1.26.07.32.32,0,0,1,.33,0,1.48,1.48,0,0,0-.56.31c.14.06.24.18.4.17C7.46,7.7,7.71,7.6,7.62,7.4ZM6.33,9.33c0-.29.06-.55.08-.82a.12.12,0,0,0,0-.11A1.82,1.82,0,0,1,6,7.87q-.21-.32-.42,0a.7.7,0,0,0,.16,1C5.89,9,6.1,9.14,6.33,9.33Zm.88,2.15c0-.26,0-.44,0-.62s0-.14-.13-.13a6,6,0,0,1-1.36-.23c0,.17,0,.4.2.38A1.45,1.45,0,0,1,7.21,11.48Zm.2-3.07c0-.16.18-.42,0-.44a7.58,7.58,0,0,0-.9-.17C6.7,8.17,7.14,8.14,7.41,8.41Z"/><path class="cls-3" d="M15.18,11.69c0,1.28,0,2.56,0,3.83,0,3-.17,6-.46,9-.06.68-.1,1.36-.14,2a.89.89,0,0,1-.24.52,1.41,1.41,0,0,0-.22,1.23,5.21,5.21,0,0,1,.35,1c0,.08.1.2,0,.24s-.14-.1-.19-.17a.34.34,0,0,0-.08-.09A2.43,2.43,0,0,1,14,27.22a.22.22,0,0,0,0-.16,2,2,0,0,1,0-1.29c.41-3.33.77-6.67.87-10,0-1.23.09-2.47.1-3.7,0-.13,0-.26.07-.37l.21,0Z"/><path class="cls-3" d="M27.33,23.61c-.94.23-1,.19-1-.74a21.53,21.53,0,0,1,.28-3.31c.1-.67.1-1.34.15-2,0-.09,0-.18-.11-.19s-.08,0,0-.06c.24-.07.14-.26.15-.4.07-.84.1-1.68.11-2.52a.48.48,0,0,0,0-.31c0-.06,0-.13,0-.19s0-.32.1-.33.1.19.11.3.12.15.22.16a8.56,8.56,0,0,0,1.24,0c.17,0,.28,0,.3.2a1.44,1.44,0,0,1-.34,1.12c.05-.3.1-.59.14-.88,0-.08.05-.18-.05-.23s-.14,0-.2.08-.36.39-.57.44c-.38.1-.25.36-.28.58s0,.15.14.16.45.08.68.12l-.29.06c-.08,0-.15,0-.21,0l-.12,0c-.13,0-.25,0-.26.16s0,.31,0,.47.09.17.21.14a2.88,2.88,0,0,0,1,.13c.07,0,.16,0,.18.07s0,.15-.06.17-.11.15-.11.28a1.33,1.33,0,0,1-.22.74c-.15-.28.11-.55.06-.83-.31.11-.44.38-.64.58-.21-.11-.31-.08-.31.2a10.24,10.24,0,0,1-.12,1.23c0,.25,0,.33.29.31a6,6,0,0,1,.73,0c.08,0,.23,0,.18.11-.21.31-.05.75-.37,1a7.22,7.22,0,0,1,.1-.76c-.25,0-.35.26-.55.32h0c0-.26.25-.31.34-.49-.7-.16-.73-.15-.89.19a.79.79,0,0,1,0-.13c0-.16-.1-.2-.23-.19s-.13.13-.15.23,0,.36.26.38a.21.21,0,0,1,.21.13c-.12,0-.23,0-.35,0s-.17,0-.18.16l-.18,2c0,.31-.09.62-.14.93,0,.13,0,.22.15.2A3.79,3.79,0,0,1,27.33,23.61ZM27,18.54a.94.94,0,0,0-.13.68c.05.07.13.05.2.06a.08.08,0,0,0,.11-.08c0-.16.09-.33-.06-.47.2,0,.11-.17.12-.26a2.69,2.69,0,0,1,.16-1c-.16,0-.39-.2-.44.06A1.47,1.47,0,0,0,27,18.54Zm1.15-1.69c-.27.08-.52-.29-.79,0,0,0,0,0,0,0s-.14-.16-.24-.14S27,16.87,27,17s0,.32.26.31a1.12,1.12,0,0,1,.39.1c.08,0,.15,0,.18-.07S28.08,17,28.18,16.85ZM27.1,15.6h0c0,.24,0,.47,0,.71s0,.16.13.17.16,0,.16-.14c0-.46,0-.92.07-1.38,0-.12-.07-.13-.16-.14s-.15,0-.14.14Zm1.06-1.4c-.33,0-.61,0-.9,0s-.18.11-.16.23-.1.28.15.3A.94.94,0,0,0,28.16,14.2Z"/><path class="cls-3" d="M28.82,23.86l.11,0,.25,0a3.83,3.83,0,0,1,1.17,0,.59.59,0,0,1,0,.74,1.12,1.12,0,0,0-.12.32c-.05.21-.1.45-.35.47s-.65.15-.92-.17a1.07,1.07,0,0,0-.32-.22l-.08,0a12.88,12.88,0,0,0,0,1.64c0,.13.08.1.14,0l1.47.05.11.08a.05.05,0,0,0,0,0l0,.21a3.45,3.45,0,0,1-.64,1.51l-.08,0,.06-.45a1.86,1.86,0,0,1-.78-.08h0l.05-.1.34-.08a.62.62,0,0,0,.56-.55c0-.17,0-.23-.16-.23a3.77,3.77,0,0,1-1,0c-.29-.07-.24.06-.22.22v.12a11.87,11.87,0,0,1-.08-3.52.78.78,0,0,1,.09-.24c.12,0,.11.15.13.25S28.72,23.91,28.82,23.86Zm.6.9c.32,0,.39-.06.57-.39.08-.15,0-.17-.11-.19a8.62,8.62,0,0,0-1.14.07c-.1,0-.11.08-.11.16s0,.17.1.2Z"/><path class="cls-3" d="M7.31,26a.87.87,0,0,0-1.17.25c-.2.3-.12.51.31.83a.52.52,0,0,1-.57-.71,1.16,1.16,0,0,1,.93-.74c.48-.11.9.15,1.35.22.27,0,.39.33.43.62-.28-.1-.42-.4-.72-.46-.07,0-.14-.07-.2,0s0,.13,0,.2a1,1,0,0,0,.81.84c-.51.18-.83,0-.94-.46,0-.08,0-.2-.11-.21s-.1.12-.13.19a1.38,1.38,0,0,0-.12.56.52.52,0,0,0,.78.53l.59-.22a.86.86,0,0,1-.74.82,1,1,0,0,1-1-.67A1.39,1.39,0,0,1,7.31,26Z"/><path class="cls-4" d="M28.5,23.54a.78.78,0,0,0-.09.24,11.87,11.87,0,0,0,.08,3.52.12.12,0,0,1,0,.15c-.3-.05-.56-.25-.87-.28-.12,0-.09-.11-.08-.2.11-1,.17-2.07.18-3.11,0-.15.05-.19.19-.24s.35.07.45-.13C28.42,23.45,28.46,23.48,28.5,23.54Z"/><path class="cls-3" d="M7.65,29.65c0,.2.17.36.16.58-.26-.15-.32-.44-.46-.66s0-.16-.14-.16-.11.09-.14.15a2,2,0,0,0-.19,1.06.57.57,0,0,0,.91.48c.14-.09.4,0,.44-.22a3.47,3.47,0,0,1-.3.37.75.75,0,0,1-1.25-.5,1.84,1.84,0,0,1,.37-1.48c.08-.09.06-.13,0-.2a.52.52,0,0,0-.72,0,.92.92,0,0,0-.17.22A1.13,1.13,0,0,0,6,30c0,.35.36.18.48.35-.17,0-.37.07-.52-.17a.83.83,0,0,1-.07-.84,1.23,1.23,0,0,1,2-.22,1.19,1.19,0,0,1,.44.78c-.23,0-.32-.26-.52-.31s-.09-.25-.19-.19,0,.16,0,.25S7.63,29.64,7.65,29.65Z"/><path class="cls-3" d="M10.07,11.57l0,.32a.89.89,0,0,0,0,.51l-.08,1.66a.18.18,0,0,0,0,.21l0,.56a.11.11,0,0,0,0,.14l0,.44a.11.11,0,0,0,0,.14,3,3,0,0,1-.25,1.34,1.78,1.78,0,0,1-.11-.67A23,23,0,0,1,9.68,13c.18-1.43.23-2.88.33-4.32,0-.06,0-.11,0-.16s0-.18.06-.19.12.07.15.14a5.17,5.17,0,0,0,0,1l0,.45a2,2,0,0,0,0,.77l0,.44A.66.66,0,0,0,10.07,11.57Z"/><path class="cls-3" d="M4.2,35.56v-.32a.08.08,0,0,0,0-.11c.08-.93.16-1.85.23-2.77A41.24,41.24,0,0,1,5,28.09.29.29,0,0,1,5,28c0-.07,0-.17.11-.17s.08.12.08.18,0,.43,0,.64a.36.36,0,0,0,0,.25l0,.32c0,.13-.06.25-.07.38-.11,1-.21,2.09-.31,3.14-.07.67-.13,1.33-.19,2a4.34,4.34,0,0,1-.23,1.16l0-.2A.12.12,0,0,0,4.2,35.56Z"/><path class="cls-4" d="M26.59,22.33l.18-2c0-.12.07-.16.18-.16s.23,0,.35,0a.21.21,0,0,0-.21-.13c-.26,0-.31-.16-.26-.38s0-.23.15-.23.23,0,.23.19a.79.79,0,0,0,0,.13c.16-.34.19-.35.89-.19-.09.18-.37.23-.34.49h0v0l0,0c.2-.06.3-.3.55-.32a7.22,7.22,0,0,0-.1.76.36.36,0,0,1-.41,0,.71.71,0,0,0-.53-.12c-.06,0-.14,0-.14.09a4.35,4.35,0,0,0,.07,1.44c0,.08,0,.21.18.12.13.15-.14.2-.09.34-.19-.1-.37-.26-.61-.17C26.7,22.3,26.66,22.32,26.59,22.33Z"/><path class="cls-4" d="M20.39,12.9c0,1.06,0,2.12-.06,3.19,0,.74-.08,1.49-.12,2.23a.52.52,0,0,1-.21.45c0-.16,0-.29,0-.42A38.8,38.8,0,0,0,20.19,13c0-.11,0-.21,0-.32S20.25,12.87,20.39,12.9Z"/><path class="cls-4" d="M28.35,15.62c-.23,0-.45-.09-.68-.12s-.15-.06-.14-.16-.1-.48.28-.58c.21,0,.38-.29.57-.44s.12-.11.2-.08.06.15.05.23c0,.29-.09.58-.14.88h0l-.07.13Z"/><path class="cls-3" d="M18.77,11.38a9.4,9.4,0,0,1-2.12-.18,3.11,3.11,0,0,0-.61,0,1,1,0,0,0-.86.51h0a.16.16,0,0,0-.08-.2.53.53,0,0,1,.47-.45,3.61,3.61,0,0,1,1.39,0,8,8,0,0,1,1.81.29h0Z"/><path class="cls-4" d="M4.51,34.74c.06-.67.12-1.33.19-2,.1-1.05.2-2.1.31-3.14,0-.13,0-.25.07-.38H5.2c-.06.85-.15,1.71-.28,2.55-.08.5-.12,1-.16,1.52l-.15,1.43Z"/><path class="cls-3" d="M26.65,13.37a15.06,15.06,0,0,1-2.2.55c-.09,0-.23.09-.27-.05s.11-.17.21-.2a17.35,17.35,0,0,1,2.12-.44l.32,0Z"/><path class="cls-3" d="M2.25,35.33a.94.94,0,0,1-.57-.15V35l.62,0a3,3,0,0,0,.79,0,1.85,1.85,0,0,1,.93.19H4l-.61.13a.11.11,0,0,0-.14,0l-.75,0A.45.45,0,0,0,2.25,35.33Z"/><path class="cls-4" d="M12.87,52.13c0,.33,0,.66,0,1,0,1.32,0,2.63,0,4-.13-.06-.08-.18-.08-.28,0-1.46,0-2.92,0-4.37C12.79,52.32,12.74,52.2,12.87,52.13Z"/><path class="cls-4" d="M5.45,36.53a4.81,4.81,0,0,1,.87.53l2,1.28c.09.06.21.09.28.29-1.11-.67-2.17-1.28-3.18-2Z"/><path class="cls-4" d="M17.25,50.1c0-1.18,0-2.36,0-3.53.07.06.05.14.05.21,0,1,0,2,0,3.06C17.33,49.93,17.36,50,17.25,50.1Z"/><path class="cls-4" d="M17.18,54.64A21.92,21.92,0,0,1,17.23,52c.08.09.05.2.05.3,0,.69,0,1.38,0,2.07C17.26,54.43,17.32,54.56,17.18,54.64Z"/><path class="cls-3" d="M27.41,22.06c-.15.09-.16,0-.18-.12a4.35,4.35,0,0,1-.07-1.44c0-.09.08-.08.14-.09Z"/><path class="cls-4" d="M24.2,10.54a3.2,3.2,0,0,1,0-1.15,3.83,3.83,0,0,0,.18.65c.16-.27,0-.54.08-.78.16.16.09.38.07.56A1.36,1.36,0,0,1,24.2,10.54Z"/><path class="cls-4" d="M27.84,17.64c.2-.2.33-.47.64-.58.05.28-.21.55-.06.83a.1.1,0,0,1-.07.12C28.26,17.79,27.92,17.88,27.84,17.64Z"/><path class="cls-4" d="M21,17.26a4,4,0,0,1-.11,1.09h-.2a4.37,4.37,0,0,1,.08-1.08Z"/><path class="cls-4" d="M28.69,26.62c-.06.07-.15.1-.14,0a12.88,12.88,0,0,1,0-1.64l.08,0A13.62,13.62,0,0,0,28.69,26.62Z"/><path class="cls-4" d="M30.35,23.79a3.83,3.83,0,0,0-1.17,0l-.25,0a1.51,1.51,0,0,1,1.32-.15C30.3,23.71,30.34,23.73,30.35,23.79Z"/><path class="cls-4" d="M1.75,23.2h.18a3.85,3.85,0,0,1,.91.34l0,.07A2.93,2.93,0,0,1,2,23.53C1.81,23.51,1.8,23.34,1.75,23.2Z"/><path class="cls-4" d="M26.45,37.48a8.81,8.81,0,0,1,1.54,0,.13.13,0,0,1-.12.09A8.4,8.4,0,0,1,26.45,37.48Z"/><path class="cls-4" d="M20.81,13.17a4.9,4.9,0,0,1,0-1.48A4.59,4.59,0,0,1,20.81,13.17Z"/><path class="cls-4" d="M27.66,16.5c-.12,0-.21,0-.21-.14s0-.32,0-.47.13-.18.26-.16Z"/><path class="cls-4" d="M12.93,48.42a6.19,6.19,0,0,1,0,1.29A2.45,2.45,0,0,1,12.93,48.42Z"/><path class="cls-4" d="M4,23.52a8.39,8.39,0,0,1-.1,1.23c-.1-.11,0-.36-.21-.39a1.55,1.55,0,0,0,.2-.63C3.84,23.64,3.82,23.53,4,23.52Z"/><path class="cls-4" d="M18.13,42.48a5.68,5.68,0,0,1,1.16-.57A3.15,3.15,0,0,1,18.13,42.48Z"/><path class="cls-3" d="M26.71,22.23c.24-.09.42.07.61.17,0,.13,0,.17-.18.11S26.86,22.31,26.71,22.23Z"/><path class="cls-4" d="M1.44,26.14l.37.26h-1c.07-.14.2-.08.3-.08S1.41,26.31,1.44,26.14Z"/><path class="cls-4" d="M10.2,9.52a5.17,5.17,0,0,1,0-1A1.49,1.49,0,0,1,10.2,9.52Z"/><path class="cls-4" d="M30.62,30.32a1.81,1.81,0,0,0-.21-1A.87.87,0,0,1,30.62,30.32Z"/><path class="cls-4" d="M29.27,31.6a2.66,2.66,0,0,1,0-.63c0-.22.13-.23.29-.14a.29.29,0,0,0-.22.31C29.36,31.29,29.44,31.47,29.27,31.6Z"/><path class="cls-4" d="M30,32.23a1.85,1.85,0,0,0-.62-.07c-.2,0-.24-.07-.15-.24.07.15.2.15.34.15S29.94,32,30,32.23Z"/><path class="cls-4" d="M13,46.82a3,3,0,0,1-.05.9A1.22,1.22,0,0,1,13,46.82Z"/><path class="cls-4" d="M30.34,29.24a1.3,1.3,0,0,0-.95,0A.67.67,0,0,1,30.34,29.24Z"/><path class="cls-4" d="M29.48,34.84s-.07.07-.12.08-.31.22-.42.11,0-.29.06-.43c0,0,.05.08,0,.12-.07.23,0,.26.21.17S29.39,34.8,29.48,34.84Z"/><path class="cls-4" d="M3.1,35a3,3,0,0,1-.79,0A1,1,0,0,1,3.1,35Z"/><path class="cls-4" d="M10.14,10.74a2,2,0,0,1,0-.77A.94.94,0,0,1,10.14,10.74Z"/><path class="cls-4" d="M13.19,43.43a1.88,1.88,0,0,1,0,.71A.84.84,0,0,1,13.19,43.43Z"/><path class="cls-4" d="M6.6,9.33a.8.8,0,0,1,.06-.78C6.61,8.8,6.7,9.07,6.6,9.33Z"/><path class="cls-4" d="M13.12,44.64a1.58,1.58,0,0,1,0,.65A.71.71,0,0,1,13.12,44.64Z"/><path class="cls-4" d="M13.14,42c.24.19.09.43.07.65C13.09,42.46,13.21,42.23,13.14,42Z"/><path class="cls-4" d="M29.88,33.37l.28-.62A.55.55,0,0,1,29.88,33.37Z"/><path class="cls-4" d="M20.77,17a1.26,1.26,0,0,1,0-.58A.58.58,0,0,1,20.77,17Z"/><path class="cls-4" d="M13.77,57.28a1.26,1.26,0,0,1,.58,0A.57.57,0,0,1,13.77,57.28Z"/><path class="cls-4" d="M28.9,36.6c0-.29.05-.45.37-.38A.76.76,0,0,0,28.9,36.6Z"/><path class="cls-4" d="M13.06,45.73a1.26,1.26,0,0,1,0,.58A.55.55,0,0,1,13.06,45.73Z"/><path class="cls-4" d="M24.11,11.5a.89.89,0,0,1,0-.51A.54.54,0,0,1,24.11,11.5Z"/><path class="cls-4" d="M21.68,40.58a1.4,1.4,0,0,1,.54-.28A.71.71,0,0,1,21.68,40.58Z"/><path class="cls-4" d="M10,12.4a.89.89,0,0,1,0-.51A.45.45,0,0,1,10,12.4Z"/><path class="cls-4" d="M29.15,33.84c.05-.13-.17-.46.24-.33C29.21,33.55,29.28,33.77,29.15,33.84Z"/><path class="cls-4" d="M21.12,15.66a.78.78,0,0,1,0,.45A.36.36,0,0,1,21.12,15.66Z"/><path class="cls-4" d="M21.19,14.82a.73.73,0,0,1-.05.46C21.08,15.12,21,15,21.19,14.82Z"/><path class="cls-4" d="M12.92,57.23a.42.42,0,0,0,.35.16C13.06,57.51,13,57.48,12.92,57.23Z"/><path class="cls-4" d="M7,14.45a1.26,1.26,0,0,1,0,.58H7c0-.2-.13-.37-.08-.57Z"/><path class="cls-4" d="M24,12.79a.59.59,0,0,1,0-.39A.29.29,0,0,1,24,12.79Z"/><path class="cls-4" d="M30.09,34.74l-.38,0C29.84,34.58,30,34.55,30.09,34.74Z"/><path class="cls-4" d="M29.08,29.44a.34.34,0,0,1-.2.17h0a.59.59,0,0,1,.12-.39Z"/><path class="cls-4" d="M21.52,8.54c.21-.09.35-.08.26.21C21.74,8.63,21.62,8.6,21.52,8.54Z"/><path class="cls-4" d="M21.25,14a.58.58,0,0,1,0,.39A.29.29,0,0,1,21.25,14Z"/><path class="cls-4" d="M10.07,11.57a.66.66,0,0,1,0-.39C10.18,11.32,10.21,11.45,10.07,11.57Z"/><path class="cls-4" d="M23.67,39.56a.91.91,0,0,1,.41-.22A.44.44,0,0,1,23.67,39.56Z"/><path class="cls-4" d="M24.37,39.17a1,1,0,0,1,.41-.22A.43.43,0,0,1,24.37,39.17Z"/><path class="cls-4" d="M21.06,16.49a.68.68,0,0,1,0,.42C21,16.76,20.91,16.61,21.06,16.49Z"/><path class="cls-4" d="M21.31,13.22a.52.52,0,0,1,0,.39A.29.29,0,0,1,21.31,13.22Z"/><path class="cls-4" d="M26,38.64a.89.89,0,0,1,.12-.39A.32.32,0,0,1,26,38.64Z"/><path class="cls-4" d="M21.38,12.58a.47.47,0,0,1,0,.33C21.27,12.79,21.25,12.68,21.38,12.58Z"/><path class="cls-4" d="M26.15,38.07a.42.42,0,0,1,0-.33C26.25,37.86,26.27,38,26.15,38.07Z"/><path class="cls-4" d="M28.17,37.41l.32-.12C28.43,37.43,28.33,37.5,28.17,37.41Z"/><path class="cls-4" d="M14.62,5.62a.43.43,0,0,1,0-.33C14.72,5.41,14.75,5.53,14.62,5.62Z"/><path class="cls-4" d="M25.62,38.89a.61.61,0,0,0,.3-.08C25.85,39,25.77,39.08,25.62,38.89Z"/><path class="cls-4" d="M29.39,36.2a.57.57,0,0,1,.33-.11A.26.26,0,0,1,29.39,36.2Z"/><path class="cls-4" d="M25.29,38.69c.22-.19.21,0,.26.14Z"/><path class="cls-4" d="M21.24,40.84a.46.46,0,0,1,.28-.16A.25.25,0,0,1,21.24,40.84Z"/><path class="cls-4" d="M20.91,41a.47.47,0,0,1,.29-.16A.24.24,0,0,1,20.91,41Z"/><path class="cls-4" d="M20.15,41.48a.53.53,0,0,1,.28-.16A.24.24,0,0,1,20.15,41.48Z"/><path class="cls-4" d="M6,7.32H5.71C5.8,7.21,5.89,7.2,6,7.32Z"/><path class="cls-4" d="M15.11,11.5a.16.16,0,0,1,.08.2l-.21,0C15,11.58,15,11.49,15.11,11.5Z"/><path class="cls-4" d="M21.44,12.07a.33.33,0,0,1,0,.27C21.32,12.23,21.32,12.14,21.44,12.07Z"/><path class="cls-4" d="M2.25,35.33a.45.45,0,0,1,.28,0C2.43,35.44,2.34,35.44,2.25,35.33Z"/><path class="cls-4" d="M21.5,11.49a.29.29,0,0,1,0,.27A.17.17,0,0,1,21.5,11.49Z"/><path class="cls-4" d="M3.85,25.19c0,.25-.15.11-.25.09Z"/><path class="cls-4" d="M14.56,6.33a.32.32,0,0,1,0-.27C14.66,6.16,14.68,6.25,14.56,6.33Z"/><path class="cls-4" d="M21.56,10.92a.25.25,0,0,1,0,.26C21.45,11.08,21.45,11,21.56,10.92Z"/><path class="cls-4" d="M30.17,35.12v-.26C30.3,34.94,30.29,35,30.17,35.12Z"/><path class="cls-4" d="M5.2,13.17A.27.27,0,0,0,5.26,13c.07,0,.13.06.14.14l-.05.06Z"/><path class="cls-4" d="M30.31,27l0-.21C30.42,26.85,30.42,26.92,30.31,27Z"/><path class="cls-4" d="M30,30.82a.22.22,0,0,1,.19-.06C30.19,30.87,30.12,30.9,30,30.82Z"/><path class="cls-4" d="M30.12,35.44a.17.17,0,0,1,0-.2C30.22,35.33,30.21,35.39,30.12,35.44Z"/><path class="cls-4" d="M29.09,34.16a.19.19,0,0,1,0-.2C29.2,34.05,29.18,34.11,29.09,34.16Z"/><path class="cls-4" d="M29,34.48a.19.19,0,0,1,.05-.2C29.14,34.37,29.12,34.44,29,34.48Z"/><path class="cls-4" d="M30,35.88a.23.23,0,0,1,.07-.19C30.17,35.79,30.14,35.85,30,35.88Z"/><path class="cls-4" d="M5.13,28.9a.36.36,0,0,1,0-.25s0,.13.12.13v.13Z"/><path class="cls-4" d="M29,29a.26.26,0,0,1,0-.21Q29.18,28.88,29,29Z"/><path class="cls-4" d="M14.69,4.92a.2.2,0,0,1,0-.2C14.79,4.8,14.79,4.86,14.69,4.92Z"/><path class="cls-4" d="M14.45,8.83a.22.22,0,0,1,0-.21C14.54,8.69,14.53,8.76,14.45,8.83Z"/><path class="cls-4" d="M21.75,9.12a.2.2,0,0,1,0,.21A.12.12,0,0,1,21.75,9.12Z"/><path class="cls-4" d="M30.17,32.63v-.21C30.29,32.49,30.29,32.55,30.17,32.63Z"/><path class="cls-4" d="M9.9,14.27a.18.18,0,0,1,0-.21A.12.12,0,0,1,9.9,14.27Z"/><path class="cls-4" d="M27.85,15.71c.06-.07.13-.06.21,0S27.94,15.82,27.85,15.71Z"/><path class="cls-4" d="M28.82,23.86c-.1.05-.2.15-.19-.07Z"/><path class="cls-4" d="M1.69,35v.19C1.55,35.11,1.55,35.05,1.69,35Z"/><path class="cls-4" d="M21.62,10.4a.2.2,0,0,1,0,.21A.12.12,0,0,1,21.62,10.4Z"/><path class="cls-4" d="M22.78,8.52l-.17-.08C22.7,8.38,22.77,8.39,22.78,8.52Z"/><path class="cls-4" d="M4.2,35.56a.12.12,0,0,1,0,.14C4.14,35.67,4.13,35.63,4.2,35.56Z"/><path class="cls-4" d="M9.78,15.55a.11.11,0,0,1,0-.14C9.86,15.46,9.85,15.51,9.78,15.55Z"/><path class="cls-4" d="M14.75,4.41c0-.06,0-.1,0-.14S14.82,4.37,14.75,4.41Z"/><path class="cls-4" d="M9.83,15a.11.11,0,0,1,0-.14C9.93,14.89,9.91,14.93,9.83,15Z"/><path class="cls-4" d="M28.83,36.85a.11.11,0,0,1,0-.13C28.94,36.79,28.91,36.83,28.83,36.85Z"/><path class="cls-4" d="M30.27,26.75l-.11-.08C30.25,26.61,30.27,26.67,30.27,26.75Z"/><path class="cls-4" d="M16.27,57.25a.12.12,0,0,1,.14,0C16.38,57.29,16.34,57.31,16.27,57.25Z"/><path class="cls-4" d="M29,28.53a.11.11,0,0,1,0-.14C29,28.42,29.07,28.46,29,28.53Z"/><path class="cls-4" d="M29.65,33.51a.13.13,0,0,1,.13-.06C29.76,33.53,29.73,33.58,29.65,33.51Z"/><path class="cls-4" d="M20.53,10.66a.12.12,0,0,1,0,.14C20.45,10.74,20.46,10.7,20.53,10.66Z"/><path class="cls-4" d="M3.28,35.3a.11.11,0,0,1,.14,0C3.39,35.34,3.34,35.36,3.28,35.3Z"/><path class="cls-4" d="M21.68,9.83a.11.11,0,0,1,0,.14C21.59,9.91,21.61,9.86,21.68,9.83Z"/><path class="cls-4" d="M20.67,9.51a.12.12,0,0,1,0,.14C20.58,9.58,20.59,9.54,20.67,9.51Z"/><path class="cls-4" d="M20.59,41.22a.2.2,0,0,1,.16-.09C20.73,41.22,20.68,41.25,20.59,41.22Z"/><path class="cls-4" d="M7.32,8.87c.06,0,.11,0,.1.09s0,.06-.09.06Z"/><path class="cls-4" d="M22.36,8.4a.12.12,0,0,1-.14,0C22.29,8.31,22.33,8.33,22.36,8.4Z"/><path class="cls-4" d="M4,35.15h.16a.08.08,0,0,1,0,.11Z"/><path class="cls-3" d="M28.43,15.47l.07-.13C28.54,15.41,28.47,15.43,28.43,15.47Z"/><path class="cls-3" d="M24.2,11.83c.07,0,0,0,.05.05l0,0v0a0,0,0,0,1,0,0l0,0Z"/><path class="cls-4" d="M24.21,11.82l0,0a0,0,0,0,0,0,0h-.13C24.07,11.77,24.13,11.78,24.21,11.82Z"/><path class="cls-4" d="M11.31,18.84c.08,0,.11.05.06.13l-.09,0,0-.1Z"/><path class="cls-4" d="M19,11.4s0,0-.05,0l0,0,0,0Z"/><path class="cls-3" d="M6.94,15.73s0-.05,0-.06l0,0-.05,0Z"/><path class="cls-4" d="M27,13.22l0,0,0,0,0,0Z"/><path class="cls-4" d="M7.17,9.5h0v0h0Z"/><path class="cls-5" d="M23.63,28.85c.38.15.66-.13,1-.2-.1,1.83-.16,3.66-.08,5.49a1.34,1.34,0,0,0,0,.49c-.12.19-.07.41-.12.6a2.75,2.75,0,0,0-.82.7c-.17,0-.33,0-.5,0-.48,0-.54.07-.58.53a.31.31,0,0,1-.14.26c-1.21.8-2.2,1.87-3.32,2.77-.1,0-.19,0-.19.13h0a3.16,3.16,0,0,0-1.1.62c-.15.09-.26.28-.48.28a3.34,3.34,0,0,1,0-1c.12-.29.52-.4.79-.6l3.33-2.49a.48.48,0,0,0,.22-.28A24.31,24.31,0,0,0,17.3,39.2c0-.27,0-.49,0-.71s.11-.2.21-.25l1.07-.57a11.46,11.46,0,0,0,2.35-1.51c-.17-.07-.28,0-.41.1-1,.62-1.95,1.22-3,1.74-.19.09-.25.11-.25-.14,0-1,0-1,.81-1.38,1.14-.58,2.25-1.22,3.35-1.88.09,0,.27-.14,0-.23,0-.14.07-.25.06-.38.19-.07.08-.21.09-.33.17-1.53.25-3.07.29-4.61,0-.28.09-.43.41-.4a2.94,2.94,0,0,0,.66,0c.27,0,.53-.08.6.29h0Zm-2.18,6.29c-.14-.07-.25,0-.35.08-.7.38-1.4.77-2.12,1.11a9.78,9.78,0,0,0-1.44.83c-.07.05-.21.11-.16.21s.19,0,.27,0A29.33,29.33,0,0,0,21,35.45C21.17,35.34,21.38,35.34,21.45,35.14Z"/><path class="cls-4" d="M17.31,40.55c.22,0,.33-.19.48-.28a3.16,3.16,0,0,1,1.1-.62c-.34.45-.88.69-1.27,1.16a1.24,1.24,0,0,0,.46-.24c.7-.5,1.34-1.08,2-1.6.85-.65,1.65-1.37,2.45-2.09a.48.48,0,0,0,.21-.43c0-.17.07-.27.27-.26s.51,0,.76,0c.85,0,1.11-.72.76-1.53a1.34,1.34,0,0,1,0-.49c.11,0,.09-.09.1-.16.11-.43.06-.87.15-1.3.13,0,.13-.14.2-.2s.35-.06.45.15a.08.08,0,0,0,0,0c0-.16.18-.15.29-.14s.06.14.06.21c-.09,1.6-.18,3.19-.26,4.78,0,.24-.08.42-.34.47A.38.38,0,0,0,25,38c-1.54,1-3.25,1.73-4.81,2.73-.86.55-1.77,1-2.66,1.53-.17.1-.26.11-.26-.14C17.31,41.59,17.31,41.07,17.31,40.55Z"/><path class="cls-5" d="M23.56,19.24a.82.82,0,0,0-.32.45.58.58,0,0,1-.45.49c-.22.06-.27.37-.14.69.27.63.67.81,1.43.62.07.22.08.37-.24.39a1,1,0,0,0-.82.48,3.77,3.77,0,0,0-.5.73c-.07.18,0,.18.11.16a.93.93,0,0,0,.68-.4,2.46,2.46,0,0,1,.45-.47.28.28,0,0,0,.14.3,1.29,1.29,0,0,1,.5,1.09.71.71,0,0,1-1,.65,1.93,1.93,0,0,1-.85-.89.92.92,0,0,0,.43.88c.11.07.24.13.36.19a.41.41,0,0,1,.25.58c0,.14-.14.09-.23.09-.33,0-.66-.1-1,.08a.27.27,0,0,0-.18.28v0A1.4,1.4,0,0,1,21.59,27c-.71.72-1.29,1.54-1.92,2.32a3.73,3.73,0,0,1-.25.29V28.16c0-.15.11-.23.21-.31.46-.42.92-.86,1.4-1.26a1.1,1.1,0,0,0,.41-.88c0-.77,0-1.54.06-2.31,0-1.43.18-2.86.15-4.33a6,6,0,0,0,1.84.09Z"/><path class="cls-5" d="M16.08,30a2.11,2.11,0,0,0-.32-1c.07-1.08.14-2.16.2-3.24.09-1.52.18-3,.26-4.56.21,0,.32-.21.5-.26a2.58,2.58,0,0,0,0,1.14,1.66,1.66,0,0,0,.73,1.08,1,1,0,0,0,1.14,0A1.08,1.08,0,0,0,19,22a1.38,1.38,0,0,0-1.88-1.09.37.37,0,0,1,.29-.26,2.54,2.54,0,0,1,1.13,0,.58.58,0,0,1,.5.52c.06.31.09.62.15,1l.18-.32c-.05,1.91-.18,3.74-.17,5.65a1.87,1.87,0,0,0-1.3-.89,1.25,1.25,0,0,0-1.25.95.85.85,0,0,1-.11.26,1.31,1.31,0,0,0,.68,1.82,1.22,1.22,0,0,0,1.18-.39c.14-.18.23-.4.38-.58a2.58,2.58,0,0,0,.36-.67c0,.28,0,.48,0,.68s0,.66,0,1c0,.59-.1.71-.68.66-.77-.08-1.55-.19-2.33-.23ZM18,23.38a1.71,1.71,0,0,0-.77.22.54.54,0,0,0-.33.43.75.75,0,0,1-.17.4,1.21,1.21,0,0,0-.06,1.35,1.08,1.08,0,0,0,1.08.6,1.13,1.13,0,0,0,1-.84,4.31,4.31,0,0,1,.22-.49A1.09,1.09,0,0,0,18,23.38Z"/><path class="cls-4" d="M20.5,32.11a12.66,12.66,0,0,0,.35-3.58.51.51,0,0,1,.13-.34c.31-.37.6-.75.93-1.1a1.54,1.54,0,0,0,.44-1.23c0-.24.07-.28.28-.22a2,2,0,0,0,.69.13c.18,0,.21.09.19.25a12.34,12.34,0,0,0-.13,2.1c0,.16-.07.2-.21.21-.35,0-.7.05-1.05.05a.4.4,0,0,0-.48.42c0,.29-.08.57-.09.86a31.72,31.72,0,0,0,0,3.9.26.26,0,0,1-.2.32c-.33.11-.64.27-1,.41a1.58,1.58,0,0,1-.05-.38Z"/><path class="cls-4" d="M18.39,19.94c.15-2.18.38-4.33.41-6.48,0-.4,0-.79,0-1.18s.08-.29.29-.2a2.59,2.59,0,0,0,.37.11c.48.09.47.09.45.59-.11,1.91-.25,3.81-.29,5.72a1.86,1.86,0,0,1-.53,1.44,1.53,1.53,0,0,1-.11.16c-.09.11-.1.35-.32.26S18.28,20.18,18.39,19.94Z"/><path class="cls-5" d="M20.5,32.11l-.18,1.8a1.58,1.58,0,0,0,.05.38,21.86,21.86,0,0,1-2.91,1.44c-.13.07-.16,0-.16-.12,0-.29,0-.58,0-.86a.32.32,0,0,1,.15-.27c.56-.45,1-1,1.58-1.48s.35-.71.4-1.1a6.3,6.3,0,0,0,0-1.44.74.74,0,0,1,.2-.58,14.12,14.12,0,0,1,1-1.09l-.18,2a5.25,5.25,0,0,0,0,1.12C20.37,32,20.32,32.15,20.5,32.11Z"/><path class="cls-5" d="M20.68,18.34h.2c0,.24-.1.49.12.69s0,.15-.07.21a7.12,7.12,0,0,0-.84,1.12s-.07.08,0,.15.24-.2.35-.31c.29-.29.55-.59.82-.89a.56.56,0,0,1,.05-.08c.06-.07-.09-.27.11-.22s0,.17,0,.26c-.05.72-.11,1.45-.15,2.17,0,.17-.05.26-.24.3-.48.12-1,.27-1.43.41v-.8c0-.08,0-.2-.09-.22s-.09.14-.14.24a1.2,1.2,0,0,0-.35-.85c-.11-.1-.06-.15,0-.23a6.51,6.51,0,0,0,1.15-1.41.37.37,0,0,1,.3-.16l.07-.06C20.66,18.58,20.64,18.45,20.68,18.34Z"/><path class="cls-5" d="M21.12,23.55a.66.66,0,0,1,0,.78c-.15.13-.28.27-.42.4s-.09.08,0,.13a.17.17,0,0,0,.14,0l.43-.32a2.05,2.05,0,0,1,.05.54.08.08,0,0,1-.07.11c-.34.07-.53.34-.8.63a3.55,3.55,0,0,0,.85-.45c.18.49.15.6-.18.91a21.35,21.35,0,0,0-1.59,1.57V24.23c.07,0,.09,0,.1,0,.6.41.71.4,1.2-.15a1.82,1.82,0,0,0,.36-.51Z"/><path class="cls-4" d="M27.75,34.13c.28,0,.33-.2.37-.39a8.43,8.43,0,0,0,.11-.86,1.22,1.22,0,0,1,.47.07l-.3,1.83c-.11.67.13.88.78.71.09,0,.18-.07.27-.1s.14-.11.19,0a.18.18,0,0,1-.09.24,1.36,1.36,0,0,1-.6.11c-.43,0-.48,0-.55.46,0,.11,0,.23-.07.34a.45.45,0,0,1-.4.36c-.52.09-1,.07-1.56.13-.08,0-.17,0-.16-.1s-.09-.47,0-.7L27.3,36a.34.34,0,0,0,.3-.35C27.64,35.14,27.7,34.64,27.75,34.13Z"/><path class="cls-5" d="M23.37,16.56c-.11.8-.06,1.51-.19,2.2,0,.15-.06.19-.22.14a6.7,6.7,0,0,0-1.25-.23c-.16,0-.24-.05-.22-.23.05-.79.11-1.58.17-2.48C22.1,16.64,22.56,17.06,23.37,16.56Z"/><path class="cls-5" d="M17.25,34.38v-1.3a.38.38,0,0,1,.08-.23c.58-.78,1.14-1.56,1.76-2.31l.1,0c0,.66,0,1.31-.1,2a.21.21,0,0,1-.07.14C18.43,33.15,18,33.82,17.25,34.38Z"/><path class="cls-5" d="M27.75,34.13c-.05.51-.11,1-.15,1.52a.34.34,0,0,1-.3.35l-1.05.23c-.11-.17-.05-.37-.05-.55,0-.51,0-1,0-1.53a.75.75,0,0,1,.16-.55,1,1,0,0,0,1.17.26C27.71,33.79,27.64,34.07,27.75,34.13Z"/><path class="cls-5" d="M21.13,23.55c-.24,0-.37.16-.54.27s-.11.11-.17.15-.22.34-.4.21-.55-.27-.5-.66a.34.34,0,0,1,.23-.3c.4-.15.79-.31,1.18-.48a3,3,0,0,0-1.37.29v-.51a.21.21,0,0,1,.18-.2l1.33-.41c.1,0,.19-.08.18.09,0,.43,0,.85,0,1.28,0,.12-.15.15-.11.27Z"/><path class="cls-5" d="M18.34,28.37a1,1,0,0,1-1,.88.9.9,0,0,1-.79-.9.87.87,0,0,1,.87-.9A.84.84,0,0,1,18.34,28.37Z"/><path class="cls-5" d="M16.93,32.19c-.15-.2-.07-.43-.07-.64a2.34,2.34,0,0,0-.2-1.11,11.06,11.06,0,0,0,2.09.06l-.76,1-.73,1C17.16,32.39,17.26,32.08,16.93,32.19Z"/><path class="cls-5" d="M23.44,15.5a3.32,3.32,0,0,1,0,.42c-.06.17.09.41-.17.5a.88.88,0,0,1-.91-.05,1.26,1.26,0,0,1-.46-.56c-.07-.19-.15-.39.18-.48s.29-.27.39-.45.21-.21.38-.1.25.13.37.21S23.49,15.32,23.44,15.5Z"/><path class="cls-5" d="M23.82,10.31c0,.72-.35.92-1,.61a1.27,1.27,0,0,1-.74-.9c0-.14,0-.24.15-.28a1,1,0,0,0,.45-.23c.23-.22.42-.15.64,0S23.88,10,23.82,10.31Z"/><path class="cls-5" d="M28.7,33a1.22,1.22,0,0,0-.47-.07,8,8,0,0,1,.15-1.46c.1-.33-.1-.68-.08-1s0-.63.43-.67l.21,0a1.13,1.13,0,0,0,.81,0c.24-.06.3.06.34.25s-.05.34-.26.34a4.93,4.93,0,0,1-.54-.05c-.37,0-.52.07-.55.44s-.07,1-.1,1.55a.41.41,0,0,0,.18.39.2.2,0,0,1,0,.2Z"/><path class="cls-5" d="M25.5,28.15,26,28c0,1.36-.09,2.72-.18,4.08,0,.14-.07.18-.2.19s-.18,0-.18-.16C25.47,30.76,25.38,29.45,25.5,28.15Z"/><path class="cls-5" d="M18,23A1,1,0,0,1,17,22a1.12,1.12,0,0,1,.3-.64c.12-.15.35-.12.54-.07a1.14,1.14,0,0,1,.77,1A.62.62,0,0,1,18,23Z"/><path class="cls-5" d="M24.36,20.36a1,1,0,0,1-.53,1,.67.67,0,0,1-.79-.17.89.89,0,0,1-.26-.63c0-.13,0-.2.17-.24a.85.85,0,0,0,.54-.58c.11-.27.26-.28.5-.11A.94.94,0,0,1,24.36,20.36Z"/><path class="cls-5" d="M22.83,13.56a.91.91,0,0,1-.89-.8c0-.07,0-.18,0-.2.27-.07.34-.3.46-.5a.31.31,0,0,1,.43-.15,1.32,1.32,0,0,1,.73.77C23.75,13.07,23.3,13.57,22.83,13.56Z"/><path class="cls-5" d="M25,32.48c-.07.06-.07.19-.2.2,0-.79.05-1.58.08-2.36s.05-1.28.07-1.92c.11,0,.19,0,.28-.06,0,.9-.06,1.81,0,2.71,0,.22,0,.44.05.67s.14.55-.26.65C25,32.37,25,32.44,25,32.48Z"/><path class="cls-5" d="M27.09,30.63c-.1.09-.23.05-.33.1s-.26.08-.23.22.17.1.28.1a2.76,2.76,0,0,1,.76,0c.41.06.2.35.21.54s-.19.19-.32.16a4.28,4.28,0,0,0-.8,0c-.17,0-.22,0-.21-.2,0-.5.06-1,.09-1.53a1,1,0,0,0,.56.5Z"/><path class="cls-5" d="M20.62,34.72c-.67.46-1.4.79-2.09,1.2-.39.23-.79.45-1.2.67-.07-.52-.07-.52.36-.68a20.63,20.63,0,0,0,2.72-1.31l.15-.05Z"/><path class="cls-5" d="M24.82,20.91a.41.41,0,0,0-.31.06,1.33,1.33,0,0,0-.61-1.57.93.93,0,0,1,1.36.5c.06.31-.14.51-.3.73S24.74,20.75,24.82,20.91Z"/><path class="cls-5" d="M27.52,32.18c.16,0,.22,0,.2.19a1.7,1.7,0,0,1-.29.93.37.37,0,0,1-.42.16.45.45,0,0,1-.33-.35C26.56,32.57,26.89,32.19,27.52,32.18Z"/><path class="cls-5" d="M26.48,27.55a7.68,7.68,0,0,0,1,.31c.13.06.2.1.09.24s-.07.16-.12.23,0,.37-.18.41a2.49,2.49,0,0,1-.61,0c-.11,0-.14-.06-.14-.16Z"/><path class="cls-5" d="M22.8,14.07c-.07.07-.2.11-.14.26h0a.57.57,0,0,0-.33.33,1.17,1.17,0,0,1-.42.54c-.12.07-.2.06-.19-.12.05-.53.1-1.07.15-1.65.31.21.53.52.92.51Z"/><path class="cls-5" d="M22,10.49c.33.38.59.73,1.09.79A2,2,0,0,0,22,12.39l-.09,0Z"/><path class="cls-5" d="M26.52,29c.39-.07.69.25,1.05.13.09,0,.08.08.07.14s-.05.39-.09.59-.06.25-.2.26a.34.34,0,0,1-.36-.2C26.83,29.63,26.68,29.33,26.52,29Z"/><path class="cls-5" d="M28.48,27.45a.12.12,0,0,0,0-.15v-.12a.82.82,0,0,0,.43.67l-.05.1c-.16,0-.21-.32-.39-.16s0,.34,0,.51a1.12,1.12,0,0,1-.17,1l-.09-.67c0-.06,0-.13-.11-.14s-.1,0-.15.1,0,.19-.11.08-.18-.1-.1-.24a6.59,6.59,0,0,1,.56-.82C28.39,27.59,28.47,27.55,28.48,27.45Z"/><path class="cls-5" d="M25,23.52c-.15,0-.17.2-.31.23-.12-.76-.15-.8-.84-1.37a.9.9,0,0,1,1,.17.57.57,0,0,1,.19.72A1.09,1.09,0,0,0,25,23.52Z"/><path class="cls-5" d="M23.87,9.54l-.7-.41c.1-.15.35-.16.36-.4,0-.07.2-.05.3,0s.24.11.19.28S23.92,9.35,23.87,9.54Z"/><path class="cls-4" d="M17.17,27.14c.3-.28.56-.35.84-.21.64.32.82.61.71,1.23C18.59,27.21,18,27,17.17,27.14Z"/><path class="cls-5" d="M22.66,14.33l.36-.11a.47.47,0,0,1,.45.08c.1.13,0,.33,0,.49a.08.08,0,0,1-.14.06,1.63,1.63,0,0,0-.66-.44.22.22,0,0,1,0-.09Z"/><path class="cls-5" d="M22.89,9c-.13.28-.41.36-.63.49s-.19,0-.17-.13v0c0-.45,0-.46.49-.39Z"/><path class="cls-4" d="M20.62,34.72l-.06-.17a3.36,3.36,0,0,1,1-.56c0,.13-.1.24-.06.38C21.17,34.45,20.93,34.66,20.62,34.72Z"/><path class="cls-5" d="M23.65,12.31c-.21-.25-.35-.51-.71-.61.28-.13.54-.22.69-.08S23.67,12.05,23.65,12.31Z"/><path class="cls-4" d="M28.82,32.82a.2.2,0,0,0,0-.2l.6,0c.07,0,.17,0,.17.09a.35.35,0,0,1-.07.2c-.06.08-.14,0-.2,0A.51.51,0,0,0,28.82,32.82Z"/><path class="cls-4" d="M22.62,23.06c.34-.26.46-.75.95-.85C23.24,22.48,23.13,23,22.62,23.06Z"/><path class="cls-4" d="M22.8,14.07v-.14a1.55,1.55,0,0,0,.74-.27c.07.27,0,.42-.27.35A1.27,1.27,0,0,0,22.8,14.07Z"/><path class="cls-4" d="M27.09,30.63v-.07a.64.64,0,0,0,.73-.29c.05.29.09.46-.25.38A3.93,3.93,0,0,0,27.09,30.63Z"/><path class="cls-4" d="M23.28,25.61c.1,0,.19-.07.26,0a.06.06,0,0,1,0,.1C23.42,25.75,23.35,25.71,23.28,25.61Z"/><path class="cls-4" d="M28.94,29.74l-.21,0a.14.14,0,0,1,.15-.1h0Z"/><path class="cls-4" d="M23.56,19.24l-.07-.08c.05-.05.11-.12.17,0S23.63,19.22,23.56,19.24Z"/><polygon class="cls-4" points="23.66 22.17 23.65 22.15 23.67 22.16 23.66 22.17"/><path class="cls-4" d="M20.56,18.67l-.07.06C20.49,18.68,20.52,18.66,20.56,18.67Z"/><path class="cls-4" d="M21.12,19.07v0h0s0,0,0,0Z"/><path class="cls-5" d="M13.26,41.08c-2.73-1.89-5.54-3.55-8.34-5.24-.1-.07-.18-.11-.15-.27.21-1.08.3-2.17.44-3.26a3.54,3.54,0,0,0,.06-.92c0-.17.06-.2.21-.12l.63.29c.13.05.11.13.11.23,0,.64.09.77.73.85.11,0,.12,0,.12.14a.8.8,0,0,1,0,.15c-.13.6-.14.62.47.77a6.69,6.69,0,0,0,1.54.39c.12,0,.11.09.1.16-.06.3.15.44.34.6,1.19,1,2.46,1.82,3.73,2.69a.48.48,0,0,1,.24.47C13.38,39,13.32,40,13.26,41.08Z"/><path class="cls-5" d="M12.19,8.93a1.25,1.25,0,0,0,1-.9c0-.08,0-.24.17-.19s.09-.07.12-.13A.89.89,0,0,0,13,6.54c-.25-.07-.29-.31-.51-.48a1.2,1.2,0,0,0,1.18-1c.06-.67.08-1.47-.8-1.82l.06-.06a6.77,6.77,0,0,1,.78,0c.23,0,.31.21.31.44,0,1.08-.1,2.15-.22,3.22-.19,1.68-.26,3.36-.31,5,0,.51,0,.53-.51.49-.69-.06-1.37,0-2,0-.2,0-.23-.08-.21-.27.05-.51.07-1,.12-1.53,0-.09-.1-.34.19-.24,0,0,0-.06,0-.09a2.71,2.71,0,0,0,0-.29c0-.59,0-.67.63-.73a1.17,1.17,0,0,0,.52-.07Zm.7,1.61a1.89,1.89,0,0,0-.13-.82c0-.09-.11-.26-.21-.16s-.19,0-.28,0a1.67,1.67,0,0,0-.59,0c-.22,0-.23.15-.32.28a2.18,2.18,0,0,0-.4,1.37.82.82,0,0,0,.49.78.81.81,0,0,0,.92-.17A1.55,1.55,0,0,0,12.89,10.54Z"/><path class="cls-5" d="M13.39,25.07a1.29,1.29,0,0,1-.42.86.89.89,0,0,1-1.06.15,1.06,1.06,0,0,1-.5-1,1.05,1.05,0,0,1,.7-.69,1,1,0,0,1,1.29.66Z"/><path class="cls-5" d="M12.44,4a.89.89,0,0,1,.82.78,1,1,0,0,1-.75.91c-.35,0-.85-.48-.89-.88S11.91,4,12.44,4Z"/><path class="cls-5" d="M12,8.42c-.37,0-.73-.23-.74-.48a.92.92,0,0,1,.83-.88.56.56,0,0,1,.63.5C12.76,7.91,12.34,8.42,12,8.42Z"/><path class="cls-5" d="M12,5.89c-.34-.08-.6.08-.82,0a9.76,9.76,0,0,0,.11-2.15.27.27,0,0,1,.07-.2.89.89,0,0,1,.84-.36,1.71,1.71,0,0,1,.88.34c.09.07.19.14.12.3a1.41,1.41,0,0,0-1.1-.09.91.91,0,0,0-.55.45C11.19,4.75,11.29,5.17,12,5.89Z"/><path class="cls-5" d="M10.81,12.46c.84,0,1.61,0,2.39,0,.32,0,.2.21.22.34s-.14.12-.22.12h-.83c-.11,0-.29-.08-.28.17,0,.06-.09,0-.15,0a1.45,1.45,0,0,0-.78-.18C11,12.93,11,12.64,10.81,12.46Z"/><path class="cls-5" d="M12.92,24.25l-.28,0a1.1,1.1,0,0,0-1.38.66c0,.07,0,.23-.17.18s0-.15,0-.23a3.64,3.64,0,0,0,0-.57c0-.33.16-.46.43-.53A1.1,1.1,0,0,1,12.92,24.25Z"/><path class="cls-5" d="M11.71,18.94a.77.77,0,0,1,.19-1.3c.07.1,0,.22,0,.33.17-.1,0-.39.25-.45a.93.93,0,0,1,.57,0,1.93,1.93,0,0,1,.56.36A1.46,1.46,0,0,0,11.71,18.94Z"/><path class="cls-5" d="M11,7.46c0-.33,0-.66.07-1a.24.24,0,0,1,.11-.21,1,1,0,0,1,1.19.34A1.35,1.35,0,0,0,11,7.46Z"/><path class="cls-5" d="M12.8,20.82a1.7,1.7,0,0,0-1.46.84A.53.53,0,0,1,11.4,21a2,2,0,0,1,.62-.5C12.41,20.29,12.62,20.37,12.8,20.82Z"/><path class="cls-4" d="M12.19,8.93l0,.15a1.38,1.38,0,0,0-1.26,0L11,8.22A1.47,1.47,0,0,0,12.19,8.93Z"/><path class="cls-5" d="M8.63,23.72A.77.77,0,0,1,7.9,23c0-.15.07-.12.17-.07A1.14,1.14,0,0,1,8.63,23.72Z"/><path class="cls-5" d="M5.13,28.9h.13l-.06.32H5.08Z"/><path class="cls-4" d="M11.23,18.89c0-.21,0-.42-.05-.63,0-.05,0-.11.08-.1s.06.06.06.12,0,.37,0,.56Z"/><path class="cls-4" d="M9.43,39.08c-.12,0-.18-.09-.33-.18.19,0,.29.05.32.19Z"/><path class="cls-4" d="M8.94,38.73a.28.28,0,0,1,.18.14c-.11,0-.16,0-.21-.1Z"/><path class="cls-4" d="M8.82,38.73a.28.28,0,0,1-.18-.14c.11,0,.16,0,.22.1Z"/><path class="cls-4" d="M9.42,39.09c.09,0,.14,0,.22.1a.18.18,0,0,1-.21-.11Z"/><path class="cls-4" d="M10.13,39.57l-.06-.07h.06l.06.07Z"/><path class="cls-4" d="M10.38,39.67s0,0-.05,0l-.06-.06,0,0Z"/><path class="cls-4" d="M10.57,39.8l-.05,0a.08.08,0,0,1,0,0l0,0Z"/><path class="cls-4" d="M9.81,39.29l0,0a.13.13,0,0,1-.07,0c0-.06,0,0,0,0A.18.18,0,0,1,9.81,39.29Z"/><path class="cls-4" d="M9.92,39.35l.07.07,0,0-.07-.06Z"/><path class="cls-4" d="M11,40.11l.13.06h0a.12.12,0,0,1-.14,0Z"/><path class="cls-4" d="M10.9,40,10.77,40h0a.12.12,0,0,1,.14,0Z"/><path class="cls-4" d="M11.74,40.61a.12.12,0,0,1-.14,0h0a.13.13,0,0,1,.14.06Z"/><path class="cls-4" d="M11.93,40.74a.12.12,0,0,1-.14-.06h0l.13.05Z"/><path class="cls-4" d="M11.6,40.56l-.06-.07h0s.07,0,.05.07Z"/><path class="cls-4" d="M11.79,40.68s-.06,0,0-.07h0l.06.07Z"/><path class="cls-4" d="M11.92,40.74l.06.07h0s-.07,0-.06-.07Z"/><path class="cls-4" d="M12,40.81l0,0s0,0,0,0,0,0,0,0Z"/><path class="cls-4" d="M12.18,40.93h0l0,0Z"/><path class="cls-4" d="M12.18,40.94l.06.06h0l-.06-.08Z"/><polygon class="cls-4" points="12.24 41.01 12.25 41.01 12.24 41.01 12.24 41.01"/><path class="cls-4" d="M8.91,38.77l-.09,0,0,0,.08,0Z"/><path class="cls-4" d="M10.71,39.91h-.05s0,0,0,0Z"/><path class="cls-4" d="M10.77,40l-.06-.07h0s.07,0,.06.07Z"/><path class="cls-4" d="M10.9,40l.06.07h0L10.9,40Z"/><path class="cls-4" d="M11.09,40.17l.06.07h0s-.06,0-.05-.07Z"/><path class="cls-4" d="M11.15,40.24l0,0h0l0,0Z"/><path class="cls-4" d="M11.35,40.36l0,0s0,0,0,0Z"/><path class="cls-4" d="M11.34,40.37h.05s0,0,0,0Z"/><path class="cls-4" d="M11.54,40.49l0,0s0,0,0,0Z"/><path class="cls-3" d="M16.22,21.17c-.08,1.52-.17,3-.26,4.56-.06,1.08-.13,2.16-.2,3.24l-.18.24a2.83,2.83,0,0,1-.07-.76c0-1.22.13-2.43.21-3.64L16,21.24c0-.14,0-.27.05-.41s0-.13.12-.13.07.1.07.15S16.22,21.07,16.22,21.17Z"/><path class="cls-3" d="M24.94,28.4c0,.64-.05,1.28-.07,1.92s-.05,1.57-.08,2.36c-.09.43,0,.87-.15,1.3,0,.07,0,.15-.1.16-.08-1.83,0-3.66.08-5.49a2.23,2.23,0,0,1,.05-.36c0-.09,0-.22.14-.22s.1.13.11.21A.5.5,0,0,1,24.94,28.4Z"/><path class="cls-5" d="M5.2,13.17h.15a5.74,5.74,0,0,0,.69,1,1.24,1.24,0,0,0,.82.4,1.54,1.54,0,0,1-.26.51c-.16.24-.37.21-.48,0s0-.62-.36-.15c0,.07-.34,0-.47-.16A1.21,1.21,0,0,1,5.2,13.17Z"/><path class="cls-5" d="M1.63,33.1c0,.49,0,.49-.5.4a1,1,0,0,1-.88-.73c-.07-.22,0-.24.19-.21a3.93,3.93,0,0,0,1.08.11c.09,0,.11,0,.11.11Z"/><path class="cls-5" d="M.4,29.57a7,7,0,0,0,1.23.18c.11,0,.15.05.14.16s0,.23,0,.34.09.49-.09.5a.9.9,0,0,1-.78-.29A8.12,8.12,0,0,1,.4,29.57Z"/><path class="cls-5" d="M2.86,19.14c.53.12,1,0,1.41.4.05-.2-.13-.26-.16-.38.3-.08.3-.08.3.2a.85.85,0,0,1,0,.16c0,.19,0,.48-.1.54A1,1,0,0,1,3.54,20a1,1,0,0,1-.4-.44A.86.86,0,0,0,2.86,19.14Z"/><path class="cls-5" d="M2.84,23.54a3.85,3.85,0,0,0-.91-.34,1.83,1.83,0,0,1-.09-.87c0-.08,0-.2.14-.22a.27.27,0,0,1,.28.1A6.33,6.33,0,0,0,2.9,23C3,23.12,2.92,23.37,2.84,23.54Z"/><path class="cls-5" d="M5.75,17.75a.46.46,0,0,0-.47-.11.78.78,0,0,1-.59-.19.26.26,0,0,1-.12-.3.29.29,0,0,1,.26-.21,1.23,1.23,0,0,1,.91.23.54.54,0,0,1,.14.6,3.84,3.84,0,0,1-.14.4.8.8,0,0,1-.37-.29C5.47,17.74,5.63,17.81,5.75,17.75Z"/><path class="cls-5" d="M4,23.52c-.15,0-.13.12-.11.21a3,3,0,0,1-.4.53c-.17.16-.28.1-.35-.09a2.27,2.27,0,0,1,0-1c0-.1.08-.09.14-.06.24.09.52,0,.75.11C4,23.27,4,23.43,4,23.52Z"/><path class="cls-5" d="M3.74,26.43a1.23,1.23,0,0,1-.59.74A.21.21,0,0,1,2.87,27a1.32,1.32,0,0,1-.09-.43c0-.33.05-.37.38-.34a1.21,1.21,0,0,0,.38,0C3.71,26.23,3.78,26.27,3.74,26.43Z"/><path class="cls-5" d="M3.41,20.7a1.11,1.11,0,0,0,0-.19c0-.28.07-.43.38-.3a1.25,1.25,0,0,0,.19,0c.38.05.41.1.2.45a.83.83,0,0,1-.13.18c-.13.14-.24.36-.45.29S3.43,20.83,3.41,20.7Z"/><path class="cls-5" d="M1.62,25.68c0-.14,0-.28.16-.34s.22.05.3.13a6.22,6.22,0,0,0,.51.64c.1.07,0,.22,0,.32s-.15,0-.22,0a2.15,2.15,0,0,1-.56-.34A.51.51,0,0,1,1.62,25.68Z"/><path class="cls-5" d="M2.45,25.34c.4.07.81.13,1.2.21s.12.26.13.4-.13.09-.21.08C3.08,26,2.64,25.9,2.45,25.34Z"/><path class="cls-5" d="M2.38,22l0,0s0,0,0,0l0,0Z"/><path class="cls-5" d="M6.33,9.33c-.23-.19-.44-.34-.62-.51a.7.7,0,0,1-.16-1q.21-.32.42,0a1.82,1.82,0,0,0,.39.53.12.12,0,0,1,0,.11C6.39,8.78,6.36,9,6.33,9.33Z"/><path class="cls-5" d="M7.21,11.48A1.45,1.45,0,0,0,6,10.88c-.17,0-.18-.21-.2-.38a6,6,0,0,0,1.36.23c.11,0,.14,0,.13.13S7.23,11.22,7.21,11.48Z"/><path class="cls-5" d="M7.41,8.41c-.27-.27-.71-.24-.94-.61a7.58,7.58,0,0,1,.9.17C7.59,8,7.36,8.25,7.41,8.41Z"/><path class="cls-5" d="M7.62,7.4c.09.2-.16.3-.15.48-.16,0-.26-.11-.4-.17a1.48,1.48,0,0,1,.56-.31Z"/><path class="cls-4" d="M28.18,16.85c-.1.18-.26.28-.33.45s-.1.09-.18.07a1.12,1.12,0,0,0-.39-.1c-.24,0-.31-.1-.26-.31s-.06-.23.09-.27.22,0,.24.14,0,.07,0,0C27.66,16.56,27.91,16.93,28.18,16.85Z"/><path class="cls-4" d="M27.1,15.6V15c0-.1,0-.16.14-.14s.16,0,.16.14c0,.46,0,.92-.07,1.38,0,.1,0,.15-.16.14S27,16.4,27,16.31s0-.47,0-.71Z"/><path class="cls-4" d="M28.16,14.2a.94.94,0,0,1-.91.52c-.25,0-.13-.19-.15-.3s0-.24.16-.23S27.83,14.2,28.16,14.2Z"/><path class="cls-4" d="M27,18.54a1.47,1.47,0,0,1,0-1c.05-.26.28-.06.44-.06a2.69,2.69,0,0,0-.16,1c0,.09.08.25-.12.26h0c0-.09,0-.17-.13-.2Z"/><path class="cls-4" d="M27.15,18.73c.15.14.06.31.06.47a.08.08,0,0,1-.11.08c-.07,0-.15,0-.2-.06a.94.94,0,0,1,.13-.68h0c-.07.14.06.15.13.2Z"/><path class="cls-4" d="M28.93,27.85a.82.82,0,0,1-.43-.67c0-.16-.07-.29.22-.22a3.77,3.77,0,0,0,1,0c.2,0,.2.06.16.23a.62.62,0,0,1-.56.55Z"/><path class="cls-4" d="M29.42,24.76l-.69-.15c-.12,0-.1-.12-.1-.2s0-.15.11-.16a8.62,8.62,0,0,1,1.14-.07c.15,0,.19,0,.11.19C29.81,24.7,29.74,24.77,29.42,24.76Z"/><path class="cls-5" d="M7.65,29.65s-.05,0-.05,0-.17-.19,0-.25.13.11.19.19Z"/><path class="cls-3" d="M27.79,20.08l0,0v0Z"/><path class="cls-3" d="M24.56,34.63c.35.81.09,1.48-.76,1.53-.25,0-.51,0-.76,0s-.29.09-.27.26a.48.48,0,0,1-.21.43c-.8.72-1.6,1.44-2.45,2.09-.69.52-1.33,1.1-2,1.6a1.24,1.24,0,0,1-.46.24c.39-.47.93-.71,1.27-1.16h0c.1,0,.17,0,.19-.13,1.12-.9,2.11-2,3.32-2.77a.31.31,0,0,0,.14-.26c0-.46.1-.5.58-.53.17,0,.33,0,.5,0,.63.09.85-.11.82-.7C24.49,35,24.44,34.82,24.56,34.63Z"/><path class="cls-3" d="M21.45,35.14c-.07.2-.28.2-.42.31a29.33,29.33,0,0,1-3.38,1.9c-.08,0-.2.14-.27,0s.09-.16.16-.21A9.78,9.78,0,0,1,19,36.33c.72-.34,1.42-.73,2.12-1.11C21.2,35.16,21.31,35.07,21.45,35.14Z"/><path class="cls-4" d="M24.44,35.23c0,.59-.19.79-.82.7A2.75,2.75,0,0,1,24.44,35.23Z"/><path class="cls-4" d="M19.08,39.52c0,.12-.09.14-.19.13S19,39.51,19.08,39.52Z"/><path class="cls-3" d="M18,23.38a1.09,1.09,0,0,1,1,1.67,4.31,4.31,0,0,0-.22.49,1.13,1.13,0,0,1-1,.84,1.08,1.08,0,0,1-1.08-.6,1.21,1.21,0,0,1,.06-1.35.75.75,0,0,0,.17-.4.54.54,0,0,1,.33-.43A1.71,1.71,0,0,1,18,23.38Zm-.73.59c.2.08.33-.15.53-.13a1.35,1.35,0,0,1,1,.85c0-.69-.28-1-1-1a.71.71,0,0,0-.59.24,0,0,0,0,0,0,0h0Zm.37,2a.84.84,0,0,0,.84-.8,1,1,0,0,0-1-1c-.35,0-.69.47-.68.92A.85.85,0,0,0,17.66,26Z"/><path class="cls-3" d="M12.89,10.54a1.55,1.55,0,0,1-.52,1.24.81.81,0,0,1-.92.17.82.82,0,0,1-.49-.78,2.18,2.18,0,0,1,.4-1.37c.09-.13.1-.3.32-.28a1.67,1.67,0,0,1,.59,0c.09,0,.15.12.28,0s.17.07.21.16A1.89,1.89,0,0,1,12.89,10.54Zm-1.72.29a1.38,1.38,0,0,0,0,.5.58.58,0,0,0,.85.38,1.15,1.15,0,0,0,.21-1.82.52.52,0,0,0-.87.16A1.14,1.14,0,0,0,11.17,10.83Z"/><path class="cls-3" d="M27.15,18.74c-.07,0-.2-.06-.13-.2C27.12,18.57,27.14,18.65,27.15,18.74Z"/><path class="cls-5" d="M17.66,26a.85.85,0,0,1-.88-.85c0-.45.33-.92.68-.92a1,1,0,0,1,1,1A.84.84,0,0,1,17.66,26Z"/><path class="cls-5" d="M17.88,23.74c.7,0,1,.26,1,1a1.35,1.35,0,0,0-1-.85Z"/><path class="cls-4" d="M17.88,23.74l-.06.1c-.2,0-.33.21-.53.13h0A.71.71,0,0,1,17.88,23.74Z"/><path class="cls-4" d="M17.29,24v0h0a0,0,0,0,1,0,0Z"/><path class="cls-5" d="M11.17,10.83a1.14,1.14,0,0,1,.23-.78.52.52,0,0,1,.87-.16,1.15,1.15,0,0,1-.21,1.82.58.58,0,0,1-.85-.38A1.38,1.38,0,0,1,11.17,10.83Z"/></g></g></svg>