<svg xmlns="http://www.w3.org/2000/svg" viewBox="0 0 54.98 30.44"><defs><style>.cls-1{fill:#fff;}.cls-2{fill:#0a0a0a;}.cls-3{fill:#a7a6a6;}.cls-4{fill:#fdfdfd;}</style></defs><g id="Layer_2" data-name="Layer 2"><g id="Layer_4" data-name="Layer 4"><path class="cls-1" d="M50.91,15.69l-1.58.62,2.58,2-.09-2.06a2.06,2.06,0,0,0-3.8-1A9.65,9.65,0,0,0,47,17.65h3.93a4.76,4.76,0,0,0-.76-1.88,2.07,2.07,0,0,0-3.53,0,5.28,5.28,0,0,1-.56.69c-.4.42.21.14-.16.11-.61,0-1.13-.38-1.78-.28-.88.13-1.2.59-1.8,1.13.47-.42.73-.29,0-.44a2.92,2.92,0,0,0-1.14,0,3.38,3.38,0,0,0-1,.36c-.13.07-.87.42-.37.36s-.48-.32-.55-.34a4.8,4.8,0,0,0-.91-.21,3,3,0,0,0-1.75.33,3.23,3.23,0,0,0-.85.72l-.25.32c-.68.75-.4,1.65.86,2.7,1.92-1.16.69-4.45-1.58-3.73-3,1-6.29.78-9.43,1-3.31.28-6.61.72-9.89,1.27l1.09,3.94L20.44,23c2.37-.51,1.63-3.85-.55-4a28.49,28.49,0,0,0-5.91.1c-1.12.15-3.91.9-3.89,2.48-.24.43-.06.4.56-.11.79-.17.89-.36.29-.57-.22-.32-.95-.52-1.29-.63a3.31,3.31,0,0,0-2.6.17,2.93,2.93,0,0,0-1.14,4.08c1,1.7,3.9,1,3.81-1a5.34,5.34,0,0,0-1.79-3.93c-.89-.78-2.63-.87-3.21.41-.17.38-.91,2-.5,2.46l2-.78-.37-.39a9.16,9.16,0,0,0-1.1-1.15L2.23,23.27l1.49.66a2.11,2.11,0,0,0,2.79-.73c1.58-2.37-.78-4.8-3.24-4.5s-4,3.3-2,5.23l.42-3.2.33,0A2.07,2.07,0,0,0,.56,24.17l2.32,2.58c1.76,2,4.63-.94,2.88-2.89L3.45,21.29,2,24.77a3,3,0,0,0,1.73-.52,2.07,2.07,0,0,0,.41-3.2C4,23.26,3.61,23.29,3,21.14l2.79-.74-1.49-.66c-2-.89-4.18,1.43-2.47,3.21C3,24.18,4.31,26,6.25,25.42A2.76,2.76,0,0,0,8,23.91a3.56,3.56,0,0,0,.3-1.15c0-.12.16-1.17,0-.78L5,22.4a1.21,1.21,0,0,1,.59,1l3.81-1q-1.5,1.65-.18,2.19l.41.18a3.73,3.73,0,0,0,1.43.36c1.26,0,1.8-.67,2.52-1.54,1.05-1.27,4.69-.69,6.27-.57l-.54-4-3.85.82c-2.59.56-1.46,4.38,1.09,3.94,3.35-.57,6.71-1,10.1-1.23,3.08-.21,6.25-.12,9.22-1.08l-1.57-3.73a2.68,2.68,0,0,0,1.1,5A3.4,3.4,0,0,0,38.3,21.6l.5-.63c-.86.19-.93.37-.21.53a3,3,0,0,0,1.49.3,3.84,3.84,0,0,0,1.62-.5c.47-.24.52-.33.17-.28l.89.12c.66,0,2.9-.24,2.83-1.26-1.14.31-1.34.54-.6.7l1,.13a3.83,3.83,0,0,0,1.34-.29,6.5,6.5,0,0,0,2.83-2.59H46.6a1.25,1.25,0,0,1,.36.9c.37,2.06,3.42,1.82,3.93,0a5.81,5.81,0,0,1,.65-1.49l-3.8-1,.09,2.06c.05,1.2,1.28,2.48,2.58,2L52,19.62c2.41-.94,1.36-4.89-1.09-3.93Z"/><path class="cls-1" d="M4.81,28.1c4.69-.52,9.4.44,13.81-1.72a14.44,14.44,0,0,0,2.55-1.72c.42-.34,1.08-1,1.45-1-.49,0,1.41.62,1.48.64A22.41,22.41,0,0,0,28,25,104.84,104.84,0,0,0,42.27,25a33.51,33.51,0,0,0,7.42-.69c2.57-.66,5.38-2.75,4.25-5.81a4.25,4.25,0,0,0-3.93-3h-.16V23.7l-1-.27v-7a33.5,33.5,0,0,1-9.35,2.49c-3.51.53-7,1.06-10.56,1.49s-7.34.84-11,1.15c-1.9.17-3.79.31-5.69.44l-3,.19-1.35.07-.62,0c-.49,0-.37,0,.34.11l1.46,1.46.23.93L5.2,28.82c4.27-.35,8.62-.5,12.85-1.17,1.81-.29,3.53-1,5.34-1.3s4-.26,6-.37a4.18,4.18,0,0,0,4.08-4.09,4.12,4.12,0,0,0-4.08-4.08c-2,.12-4,.17-6,.37A54.12,54.12,0,0,0,17,19.57c-3.8.83-7.94.77-11.81,1.09a4.24,4.24,0,0,0-4.08,4.08c-.37,2.84,2.15,5.12,4.75,5.55,2.26.37,4.76-.06,7-.22q6.87-.48,13.72-1.27c4.61-.53,9.2-1.18,13.8-1.87A44,44,0,0,0,53,23.43c3-1.41,2.28-5.46,0-7a5,5,0,0,0-3.14-.85c-5.21.41-5.3,7.89,0,8.17H50l-3.94-3,.07.17.41-3.14-.12.15,1.47-1.47c.61-.31-.47.08-.68.13a6.56,6.56,0,0,1-1.06.16c-.95.09-1.91.11-2.87.14-2.14.07-4.29.12-6.43.14-4,0-7.83.21-11.66-.93a8.56,8.56,0,0,0-6.22.3A38,38,0,0,0,15.21,19c-2.89,1.74-7.16.63-10.4,1C2.62,20.17.73,21.64.73,24c0,2,1.88,4.33,4.08,4.09Z"/><path class="cls-2" d="M33,20.29c0-.18-.18-.19-.32-.26a4.69,4.69,0,0,1-.63-.47c-.06,0-.09-.16-.19-.12s-.06.15,0,.22a6.62,6.62,0,0,1-.07,1.18,3.86,3.86,0,0,1-1-1.63c-.06-.19-.16-.25-.34-.21s-.29,0-.43,0-.1,0-.13,0,0,.11.07.15.19.18.28.28a.45.45,0,0,1-.62.65c-.06,0-.1-.09-.15-.13s-.09-.08-.16,0,0,.1,0,.15-.09-.06-.12-.1-.15-.11-.2.05a.57.57,0,0,1-.83.43,6.27,6.27,0,0,1-.82-.41c-.08-.05-.16-.14-.24-.08s0,.16,0,.24l.12.61h0A2.2,2.2,0,0,1,26,20.05a.62.62,0,0,1-.17-.48c0-.15,0-.19-.17-.18l-3.23.26c-.11,0-.19,0-.2.17s-.18.32-.16.53a1.8,1.8,0,0,1-.55-.51.19.19,0,0,0-.21-.1l-.79.06c-.11,0-.18.06-.15.17.07.26.05.54.25.76.06.06,0,.08,0,.09a.38.38,0,0,1-.41-.11,2.27,2.27,0,0,1-.4-.62c-.15-.25-.23-.27-.47-.1a3.14,3.14,0,0,0-.64.67c-.12.16-.24.32-.48.28s-.35-.22-.43-.43a1.77,1.77,0,0,1-.08-.31c0-.22-.14-.27-.31-.12s-.35.33-.52.5-.42.45-.64.66-.64.24-.81-.18c0-.08,0-.21-.12-.23S15.07,21,15,21s-.24.29-.38.43a.62.62,0,0,1-.68.18.67.67,0,0,1-.4-.61c0-.3,0-.3-.33-.22s-.48.12-.72.18c-.07,0-.16,0-.15.14s0,.28.09.37.14,0,.21-.06a2.89,2.89,0,0,0,.51-.35c.1.08-.06.16,0,.25v.09s-.06.06,0,.1L13,21.8a.29.29,0,0,0-.13.16l-.09.1-.11.06a.57.57,0,0,1-1-.24,2.1,2.1,0,0,1-.19-.6c0-.1-.06-.16-.18-.15s-.19,0-.22.16a.5.5,0,0,0,0,.27c.08.17,0,.29-.16.32s-.12.08-.08.18a.44.44,0,0,1-.07.53c-.16.16-.35.08-.53,0a1,1,0,0,0-.35-.19c-.07-.05-.17-.12-.12.06a1.34,1.34,0,0,1,0,.28l-.05.06a.52.52,0,0,1-.69-.24,2.55,2.55,0,0,1-.17-.33A.31.31,0,0,0,8.61,22,2,2,0,0,1,8,21.78s0,0-.08,0,0,.05,0,.08c.12.51.17.62.42.8a1.09,1.09,0,0,1-.58-.22c-.12-.09-.19-.09-.2.08s0,.26-.2.28-.21-.11-.26-.22A4.81,4.81,0,0,0,5.9,20.94l-.1-.11a.28.28,0,0,1-.06-.32A.22.22,0,0,1,6,20.43s.1.05.13,0,0-.09-.06-.13L6,20.19a.18.18,0,0,1-.06-.31c.11-.11.1-.18,0-.27a7.21,7.21,0,0,1-2.08-8.33,10,10,0,0,1,7-6.3,7.94,7.94,0,0,1,6.62.95,6.14,6.14,0,0,1,1.34,1.15c.08.08.15.14.27.09a26.83,26.83,0,0,1,3.43-.73,15.26,15.26,0,0,1,2.22-.26A.26.26,0,0,0,25,6c.1-.23.22-.45.32-.67a3.06,3.06,0,0,1,.63-1,5.47,5.47,0,0,0,.65-1c.08-.11.14-.25.32-.21s.13-.08.18-.12A10.72,10.72,0,0,1,37.69.46a8.24,8.24,0,0,1,5.54,5.06,2.45,2.45,0,0,0,.36.7.49.49,0,0,1,.09.54.26.26,0,0,0,0,.28,8.88,8.88,0,0,1,1.37,4.34c0,.7,0,1.41,0,2.11a11.52,11.52,0,0,1-.35,3c-.05.2,0,.24.19.2a1.19,1.19,0,0,1,.62,0,.53.53,0,0,1,.36.56c0,.22-.22.3-.49.38a9,9,0,0,0-1.61.46l-1.06.5a2,2,0,0,1-.47.14.7.7,0,0,1-.86-.49c-.06-.17-.15-.19-.3-.16a1.12,1.12,0,0,0-.4.18,6.32,6.32,0,0,1-.85.53.62.62,0,0,1-.95-.38c-.07-.17-.35-.2-.58-.05l-.49.37a1.85,1.85,0,0,1-.63.31.49.49,0,0,1-.62-.35c-.09-.26-.28-.31-.48-.11s-.29.32-.45.47a.6.6,0,0,1-.75.12c-.13-.08-.18,0-.2.11s-.06.39-.11.59a.49.49,0,0,1-.58.41.51.51,0,0,1-.33-.64c0-.2.1-.4.15-.6s0-.2-.16-.19h-1c-.08,0-.15,0-.15.12a2.78,2.78,0,0,0,.27,1.17s.08.07.13.1ZM25.2,14.85h0a2,2,0,0,0-.44-.75c-.06-.16-.12-.32-.19-.48a8.28,8.28,0,0,1-.22-6c.05-.16,0-.19-.15-.17-1.49.25-3,.45-4.48.63-.14,0-.12.07-.07.16a2,2,0,0,1,.19.31,2.83,2.83,0,0,0,.69,1.18,10,10,0,0,1,.88,1.05c1,1.19,2.14,2.26,3.19,3.41,0,.15.25-.05.25.14S25,14.71,25.2,14.85ZM21,10.92l0-.06,0,.06-.11-.07a1.07,1.07,0,0,0,.5,1.19C21.39,11.42,21.32,11.21,21,10.92ZM4.39,16.5A6.19,6.19,0,0,0,8,20c.09,0,.17.06.24-.05a.53.53,0,0,1,.67-.15,1.75,1.75,0,0,1,.61.38,1.05,1.05,0,0,0,.79.29c.19,0,.31,0,.37-.23a2.73,2.73,0,0,1,.27-.54c.09-.15.08-.19-.11-.21a8.84,8.84,0,0,1-6.32-3c0-.11-.11-.17-.23-.24A.33.33,0,0,0,4.39,16.5Zm39.39-.35h0a2.45,2.45,0,0,0,0-.81,3.33,3.33,0,0,1-.1-.56,11.35,11.35,0,0,0-.1-1.16,2,2,0,0,0-.1-.63L43,14.12c.11-.69.39-1.33.49-2l-.06,0-.23.64c0-.37.15-.71.15-1.08a.24.24,0,0,0-.07.13,10.34,10.34,0,0,1-2.38,3.75,12.12,12.12,0,0,1-1.49,1.28c-.06,0-.15.07-.14.15s.1.07.16.08a.59.59,0,0,1,.36.33c0,.09.09.15.2.14.52-.05,1.09,0,1.42-.51a.23.23,0,0,1,.09-.08.51.51,0,0,1,.8.18.27.27,0,0,0,.44.13,3.81,3.81,0,0,0,1-.86C43.8,16.31,43.89,16.23,43.78,16.15Zm-10.37.25a3.4,3.4,0,0,0-.9,0l-.24,0a.64.64,0,0,0-.41,0l-.19,0a.49.49,0,0,0-.36,0l-.19,0a.61.61,0,0,0-.4,0l-.24,0a.42.42,0,0,0-.31,0h-.09a.83.83,0,0,0-.46-.09l-.09,0a.08.08,0,0,0-.11,0l-.09,0A9,9,0,0,0,28,15.63l-.24-.08a2.46,2.46,0,0,0-.71-.23l-.12-.05a.1.1,0,0,0-.13,0l-.11-.05c0-.05-.08-.07-.13-.05a1.51,1.51,0,0,0-.56-.21.91.91,0,0,0,.26.34,7.83,7.83,0,0,0,4,2.55.29.29,0,0,0,.24,0c.35-.16.44-.14.71.11s.21.18.31-.06a.46.46,0,0,1,.48-.32.42.42,0,0,1,.41.37c0,.22.15.24.33.23.52-.05,1-.1,1.56-.13.36,0,.7-.05.82-.48l0,0a.64.64,0,0,1,.58-.32c.24,0,.33.21.37.45l.57-.57a.1.1,0,0,0,.11-.09s0,0,0,0a.49.49,0,0,0,.26-.1h.1a.46.46,0,0,0,.25.1s0,0,0,0,.12.1.19,0l.37-.2a.1.1,0,0,0,.12-.07l.13-.08a.1.1,0,0,0,.12-.07,6.32,6.32,0,0,0,.68-.47.1.1,0,0,0,.11-.09,9.58,9.58,0,0,0,2-2.08.12.12,0,0,0,.09-.12l.23-.34a.33.33,0,0,0,.14-.34c-.15.16-.38.21-.48.42l-.08.07c-.07,0-.1,0-.12.08l-.08.07c-.07,0-.1,0-.12.08l0,0a.19.19,0,0,0-.17.13l-.08.07a.09.09,0,0,0-.11.08l-.09.07a.09.09,0,0,0-.11.08l-.09.06a.11.11,0,0,0-.12.08l0,0a.24.24,0,0,0-.21.14l0,0a.53.53,0,0,0-.32.17l-.23.12a2.31,2.31,0,0,0-.71.38l-.13.07c-.38.13-.73.34-1.12.44l-.73.21-.09,0a.18.18,0,0,0-.2,0l-.1,0a.18.18,0,0,0-.2,0l-.1,0a.17.17,0,0,0-.2,0l-.09,0a.2.2,0,0,0-.21,0l-.09,0a.27.27,0,0,0-.26,0h-.09a.2.2,0,0,0-.21,0l-.09,0a.3.3,0,0,0-.26,0l-.14,0a.86.86,0,0,0-.45,0Zm-14-6.9,0-.12a.1.1,0,0,0-.05-.13l-.19-.37a.49.49,0,0,0-.18-.37s0,0,0,0a.1.1,0,0,0-.08-.12l-.17-.23c0-.07,0-.1-.08-.12l-.06-.08a.11.11,0,0,0-.09-.12,3.77,3.77,0,0,0-.7-.74A.1.1,0,0,0,17.63,7a3,3,0,0,0-.53-.41A.1.1,0,0,0,17,6.49l0,0a.1.1,0,0,0-.12-.08l-.13-.07a.1.1,0,0,0-.12-.08l-.37-.19A.29.29,0,0,0,16,6l-.12,0a1.22,1.22,0,0,0-.58-.2l-.09,0c0-.05-.06-.06-.11,0l-.09,0s-.06-.06-.11,0l-.09,0a.08.08,0,0,0-.11,0l-.14,0a.07.07,0,0,0-.11,0l-.18,0a.12.12,0,0,0-.17,0l-.23,0a.5.5,0,0,0-.36,0,3.56,3.56,0,0,0-.73,0,.37.37,0,0,0-.31,0l-.24,0a.18.18,0,0,0-.2,0l-.19,0a.11.11,0,0,0-.16,0l-.19,0a.07.07,0,0,0-.11,0l-.14,0a.07.07,0,0,0-.11,0l-.09,0a.08.08,0,0,0-.11,0l-.09,0a.31.31,0,0,0-.26.08l-.24.07a.11.11,0,0,0-.13,0L9.92,6a.1.1,0,0,0-.13,0l-.57.25a.1.1,0,0,0-.13.06L9,6.39a.1.1,0,0,0-.12.07A6.85,6.85,0,0,0,8,7a9.55,9.55,0,0,0-3.43,4.19,1.75,1.75,0,0,0-.25.77l.38-.7L4.8,11A9.34,9.34,0,0,1,7.07,8.82a.12.12,0,0,0,.12-.08,11.11,11.11,0,0,1,1.27-.68A.11.11,0,0,0,8.59,8l.12,0a.12.12,0,0,0,.13,0l.12,0a1.5,1.5,0,0,0,.55-.19l.09,0a.08.08,0,0,0,.11,0L10,7.55c.05,0,.08,0,.11,0l.14,0a.07.07,0,0,0,.11,0l.09,0a.12.12,0,0,0,.16,0l.14,0a.14.14,0,0,0,.16,0l.24,0a.14.14,0,0,0,.16,0l.35,0a.18.18,0,0,0,.2,0c.44,0,.89,0,1.34,0a.3.3,0,0,0,.26,0l.24,0a.12.12,0,0,0,.16,0l.19,0a.07.07,0,0,0,.11,0l.09,0a.07.07,0,0,0,.11,0l1,.28a.08.08,0,0,0,.11,0l.61.21a.15.15,0,0,0,.14,0l.11,0a.13.13,0,0,0,.13.06l.42.19a.3.3,0,0,0,.23.11A12.06,12.06,0,0,1,19.41,10c0,.08.09.16.19.12s0-.09,0-.13l0-.09A.74.74,0,0,0,19.4,9.5Zm6.2,9.09h0c.05-.33.08-.67.16-1a.41.41,0,0,0-.16-.46c-.15-.12-.21-.13-.25.07a4.05,4.05,0,0,1-.41.93h0c.07-.39.14-.77.2-1.15,0-.19-.21-.58-.38-.55s-.11.24-.17.36a3.1,3.1,0,0,0-.13.4A10,10,0,0,1,24,18.25c.11-.51.24-1,.38-1.49s.15-.58-.29-1c0,0-.07-.11-.14-.07s0,.09,0,.13a6.18,6.18,0,0,1-.35,1.47.6.6,0,0,1-.23.36c.15-.68.29-1.31.37-1.95,0-.35,0-.47-.37-.66a5.4,5.4,0,0,1-.61,1.84h0c0-.05,0-.1,0-.15A14.64,14.64,0,0,0,23.08,15a.33.33,0,0,0,0-.29c-.2-.23-.41-.45-.62-.68-.07-.06-.12,0-.13.05A9.68,9.68,0,0,1,22,15.58a7.4,7.4,0,0,1-.25.7c.11-.74.21-1.45.31-2.15a1,1,0,0,0-.55-1.07,14.12,14.12,0,0,1-.55,3.18c0-.33.09-.67.14-1,.11-.7.17-1.39.25-2.09,0-.44-.28-.6-.54-.89-.06.45-.1.85-.16,1.24s-.13.77-.21,1.15-.2.73-.3,1.1a12.53,12.53,0,0,1,.2-1.25c.08-.42.07-.84.17-1.26a2.43,2.43,0,0,0,0-1.23c0,.23,0,.46-.07.68A10.05,10.05,0,0,1,17,18.8c-.22.19-.45.36-.68.54a.18.18,0,0,0-.09.21c0,.06.05.09.11.08a5,5,0,0,0,.86-.12c.16-.05.2-.28.27-.43.17-.32.35-.46.61-.43a.6.6,0,0,1,.51.53c0,.08,0,.19.14.18s.51,0,.71-.21a.41.41,0,0,1,.59-.07.66.66,0,0,0,.51.11l.57-.05a.22.22,0,0,0,.2-.15A.39.39,0,0,1,22,18.9a.33.33,0,0,0,.3.12l4.46-.38c.11,0,.18,0,.19-.15.05-.5.07-1,.15-1.49a.18.18,0,0,0-.18-.2c-.11,0-.07.1-.09.16s-.11.42-.17.62a2,2,0,0,1-.44.81,4.56,4.56,0,0,1,.07-.59c0-.16-.08-.21-.18-.25s-.11.1-.13.16A7,7,0,0,1,25.6,18.59Zm-9-9.7a1.3,1.3,0,0,0-.53-.25L16,8.59a.29.29,0,0,0-.23-.1l-.27-.1A.74.74,0,0,0,15,8.25l-.09,0a.41.41,0,0,0-.3-.08l-.1,0a.09.09,0,0,0-.11,0l-.13,0a.16.16,0,0,0-.16,0H14a.2.2,0,0,0-.21,0L13.6,8a.2.2,0,0,0-.21,0l-.24,0a.55.55,0,0,0-.36,0,5.06,5.06,0,0,0-1,0,.35.35,0,0,0-.3,0l-.19,0a.2.2,0,0,0-.21,0l-.14,0a.14.14,0,0,0-.16,0l-.09,0a.07.07,0,0,0-.11,0l-.09,0a4.91,4.91,0,0,0-1.53.5l-.12.05A2,2,0,0,0,8.1,9L8,9.07a.3.3,0,0,0-.22.13l0,0c-.06,0-.09,0-.12.08l-.33.22a.09.09,0,0,0-.11.08l-.29.22c-.06,0-.09,0-.11.09l-.19.15a.12.12,0,0,0-.11.09,11,11,0,0,0-2.39,3.07.72.72,0,0,0-.11.32,6.8,6.8,0,0,0,.11,1.91c0,.06,0,.15.06.16.25.06.31.3.45.46a11.06,11.06,0,0,0,1.21,1.16,10.2,10.2,0,0,0,1.54,1.05,5,5,0,0,0,1.88.65c.59.07,1.16.23,1.76.26.25,0,.49-.08.73,0a3.51,3.51,0,0,0,1.07-.1,5.08,5.08,0,0,0,.77-.29,8.3,8.3,0,0,0,5.36-4.64c.09-.18.17-.37.27-.56s.08-.21.2-.17.1.17.09.27a.3.3,0,0,1,0,.1,6.42,6.42,0,0,1-1.23,2.41,7.85,7.85,0,0,1-3.42,2.57c-.15.05-.21.1-.08.25a.45.45,0,0,1,.07.3c0,.13.05.15.15.09s.31-.22.48-.31a9,9,0,0,0,2.68-2.35,7.66,7.66,0,0,0,1.53-3.12.08.08,0,0,0,0-.11l0-.09a.15.15,0,0,0,0-.16l0-.14a.28.28,0,0,0,0-.25l0-.19a.64.64,0,0,0,0-.41,4.07,4.07,0,0,0,0-.78c0-.24-.26-.23-.35-.38l0,0a.09.09,0,0,0-.08-.11,6.51,6.51,0,0,0-.7-.69.11.11,0,0,0-.11-.1L18.34,10a.1.1,0,0,0-.11-.08l-.08-.07A.12.12,0,0,0,18,9.76L18,9.7a.1.1,0,0,0-.12-.08l-.48-.32a.1.1,0,0,0-.12-.07L17,9.09a.52.52,0,0,0-.33-.16Zm15.54-4.1H32a11.06,11.06,0,0,0-5,2,11,11,0,0,0-2.46,2.58.49.49,0,0,0-.09.28,7.74,7.74,0,0,0,.73,4,.45.45,0,0,0,.21.24,9.19,9.19,0,0,0,1.19.56,25.34,25.34,0,0,0,4.14.85l1.46.13a7.14,7.14,0,0,0,2,0l2.15-.39a4.68,4.68,0,0,0,1.1-.34,13.78,13.78,0,0,0,3.29-2,5.44,5.44,0,0,0,1.48-1.72,2.76,2.76,0,0,1,.53-.78.44.44,0,0,0,.11-.27,7.46,7.46,0,0,0,0-2.31c-.19-1.12-.06-1.07-1.14-1.59a14.09,14.09,0,0,0-6.09-1.48H35.5a9.5,9.5,0,0,1,1.12.5.68.68,0,0,0,.53.15.4.4,0,0,1,.3.12,5.47,5.47,0,0,1,1.32,1.51,5.21,5.21,0,0,1-.33,5.86,5.35,5.35,0,0,1-5.6,2.29,5.16,5.16,0,0,1-4.3-5.39,5.33,5.33,0,0,1,3.35-4.74C32,4.9,32.09,4.89,32.15,4.79Zm1.33,9.6a5.22,5.22,0,0,0,4.58-2.81A4.44,4.44,0,0,0,37,6a.4.4,0,0,1-.18-.23c0-.22-.17-.29-.32-.37A5.2,5.2,0,0,0,29,8.82,4.46,4.46,0,0,0,33.48,14.39ZM24.74,8.24a.91.91,0,0,0,.11-.16,9,9,0,0,1,2.7-2.5,13.8,13.8,0,0,1,6.39-1.85A16.5,16.5,0,0,1,41.82,5s.08.06.14,0-.05-.16-.1-.24A7.28,7.28,0,0,0,39.5,2.37a9,9,0,0,0-6-1.42,10.41,10.41,0,0,0-6.18,2.9c-.47.44-.88.95-1.33,1.42a4,4,0,0,0-.56.79.2.2,0,0,0,.06.3c-.21.07-.5.43-.46.63s.22,0,.33.1l.05.07C24.77,7.23,24.81,7.78,24.74,8.24Zm0-1.73a4,4,0,0,0-.85.07c-.7.21-1.44.31-2.16.45l-2.34.45c-.06,0-.17,0-.15.11a.36.36,0,0,0,.43.27c1.55-.33,3.11-.56,4.69-.74.06,0,.15,0,.16-.06S24.7,6.72,24.74,6.51ZM13.93,19.09a.31.31,0,0,0-.19,0c-.4.09-.8.19-1.21.27s-.38.08-.33.44a1.87,1.87,0,0,1,0,.32c0,.15,0,.21.21.17A9,9,0,0,0,13.5,20a.28.28,0,0,0,.22-.21Zm30.54-8.9c-.19.59-.38,1.15-.57,1.72a.57.57,0,0,0,0,.29c0,.26.06.53.1.79a2.11,2.11,0,0,0,.09.55A4.8,4.8,0,0,0,44.47,10.19Zm-16.06,8.3c.07,0,.17,0,.18-.08a.82.82,0,0,1,.15-.39c.05-.07,0-.11-.07-.13a11,11,0,0,1-1.14-.67c-.07,0-.12,0-.13.06a3.64,3.64,0,0,1-.34,1.21c0,.05,0,.09,0,.12a.77.77,0,0,0,.55-.17c.13-.19.26-.21.46-.08S28.28,18.52,28.41,18.49ZM7.09,20.4c.17.29.32.55.47.83.25.44.7.48,1.16.65L8.36,21a.28.28,0,0,0-.14-.16Zm37.48-7.6a2.64,2.64,0,0,0-.35,2.09c.05-.3.34-.44.35-.71C44.58,13.71,44.57,13.24,44.57,12.8ZM24,14.27a1.1,1.1,0,0,0,.56,1.32A1.06,1.06,0,0,0,24,14.27ZM44.15,8.62a22.3,22.3,0,0,1-.45,2.22.44.44,0,0,0,.08.44,19.28,19.28,0,0,0,.5-2.06A1.07,1.07,0,0,0,44.15,8.62Zm-21,5.45c0-.73-.24-1.22-.69-1.4,0,.23-.09.48,0,.66A6,6,0,0,0,23.1,14.07ZM21.53,11.6c0,.76,0,.92.56,1.32C22.29,12.33,21.92,12,21.53,11.6ZM25.87,17c0-.22,0-.4.06-.58s-.05-.44-.37-.56a1.93,1.93,0,0,1,0,.42C25.43,16.57,25.59,16.77,25.87,17Zm-9,3.09h-.49c-.1,0-.15,0-.16.14s0,.42-.09.67A4.4,4.4,0,0,0,16.87,20.05Zm6.48-6.44c.09.39-.08.82.35,1.07C23.93,14.11,23.81,13.89,23.35,13.61Zm1.89,2.64c0-.39.18-.82-.32-1.07C24.87,15.59,24.72,16,25.24,16.25Zm1,.14c0,.26-.08.5-.13.75s.07.29.22.4a4.11,4.11,0,0,0,.14-.75A.31.31,0,0,0,26.27,16.39ZM43.79,9.45a2.8,2.8,0,0,0-.1-2A10.07,10.07,0,0,1,43.79,9.45ZM28.11,19.9c-.15-.67-.3-.79-.79-.62A3.8,3.8,0,0,0,28.11,19.9Zm-7.58-8.61h.06c0-.83,0-1-.24-1.19Zm-11.15,10c.06.59.2.78.54.73A5.46,5.46,0,0,0,9.38,21.28Zm29.36-4.06-.75.44A.6.6,0,0,0,38.74,17.22Zm4.69-.07a1.46,1.46,0,0,0,.43-.15.09.09,0,0,0,0-.13c0-.08-.08,0-.11,0Zm.94-.94c-.14.14-.08.3-.09.46A1,1,0,0,0,44.37,16.21Zm-.62-6.45h0V9.62h0ZM4.22,12.09v0h0Zm37.49,1,0,0,0,0s0,0,0,0Z"/><path class="cls-2" d="M48.34,17.28c-.1.11-.25.17-.34.31h-.09c0-.22.07-.44.1-.65a.49.49,0,0,0-.06-.28,1.08,1.08,0,0,0-.49.54c-.05.1-.08.24-.23.2s-.14-.18-.12-.3a4.36,4.36,0,0,1,.35-1.41.85.85,0,0,1,.29-.39.29.29,0,0,1,.33,0c.11.09.06.2,0,.3s-.06.08-.05.13a3.75,3.75,0,0,0-.29.67A.53.53,0,0,0,48,16.1l.52-.92a2.16,2.16,0,0,1,.42-.57.27.27,0,0,1,.32-.07.3.3,0,0,1,.18.28.62.62,0,0,1-.11.37c-.11.17-.24.34-.36.5a.39.39,0,0,0-.11.32.9.9,0,0,1-.1.62A3.59,3.59,0,0,1,48.34,17.28Z"/><path class="cls-2" d="M4.77,22.64c-.15-.16-.23-.39-.49-.52,0,.12.06.18,0,.22a25.84,25.84,0,0,0-2.26-2c-.09-.06-.16-.12-.13-.24a.25.25,0,0,1,.26-.19.78.78,0,0,1,.52.19c.09.07.16.14.28.06s.21,0,.31.05a1.88,1.88,0,0,1,.67.58A3.78,3.78,0,0,1,4.77,22.64Z"/><path class="cls-2" d="M3.85,23.19A1.48,1.48,0,0,0,3.23,23a3.94,3.94,0,0,1-1.67-.9c-.16-.13-.35-.31-.21-.55s.39-.14.59-.06A3.39,3.39,0,0,1,3.85,23.19Z"/><path class="cls-2" d="M4.92,22.06l-.22-.45A.72.72,0,0,1,4.59,21c0-.15-.09-.22-.14-.33a.38.38,0,0,1,0-.44.31.31,0,0,1,.37-.11.52.52,0,0,1,.3.22A2.69,2.69,0,0,1,5.66,22a1.26,1.26,0,0,1-.11.57,2,2,0,0,0-.37-.8c-.06-.1-.12-.11-.16,0S5,22,4.92,22.06Z"/><path class="cls-2" d="M49.51,17a3.43,3.43,0,0,1,.66-1.44.7.7,0,0,1,.24-.17.32.32,0,0,1,.45.36,1.1,1.1,0,0,1-.29.59,11.28,11.28,0,0,1-.72,1c-.05,0,0,.15-.15.12a.2.2,0,0,1-.15-.17C49.53,17.14,49.53,17.08,49.51,17Z"/><path class="cls-2" d="M51.53,17.79a.63.63,0,0,1,.3-.54.38.38,0,0,1,.44,0,.39.39,0,0,1,.14.42.91.91,0,0,1-.22.38c-.12.11-.25.26-.42.2S51.53,18,51.53,17.79Z"/><path class="cls-2" d="M50.4,17.84a4.34,4.34,0,0,1,.71-1.12c.13-.14.29-.22.46-.09s.15.32,0,.49a1.34,1.34,0,0,1-.65.47,1.64,1.64,0,0,0-.55.26Z"/><path class="cls-3" d="M48.34,17.28a3.59,3.59,0,0,0,.45-.65.9.9,0,0,0,.1-.62.39.39,0,0,1,.11-.32c.12-.16.25-.33.36-.5a.62.62,0,0,0,.11-.37.3.3,0,0,0-.18-.28.27.27,0,0,0-.32.07,2.16,2.16,0,0,0-.42.57L48,16.1a.53.53,0,0,1-.27.26,3.75,3.75,0,0,1,.29-.67c.15.07.17,0,.22-.14a4.53,4.53,0,0,1,.45-.8c.21-.28.44-.38.64-.27a.5.5,0,0,1,.09.71,2.5,2.5,0,0,0-.51,1.26A1,1,0,0,1,48.34,17.28Z"/><path class="cls-3" d="M10.27,22.61c.18.06.37.14.53,0a.44.44,0,0,0,.07-.53c0-.1,0-.15.08-.18s.24-.15.16-.32a.5.5,0,0,1,0-.27c0-.12.11-.15.22-.16s.16.05.18.15a2.1,2.1,0,0,0,.19.6.57.57,0,0,0,1,.24l.11-.06a.58.58,0,0,1-.95.15,1.5,1.5,0,0,1-.37-.77c0-.1,0-.26-.17-.21s-.14.18-.08.29.05.32-.13.41-.05.17,0,.26a.47.47,0,0,1-.27.55A.33.33,0,0,1,10.27,22.61Z"/><path class="cls-3" d="M8.61,22a.31.31,0,0,1,.29.22,2.55,2.55,0,0,0,.17.33.52.52,0,0,0,.69.24.38.38,0,0,1-.55,0,1,1,0,0,1-.34-.47A.89.89,0,0,0,8.61,22Z"/><path class="cls-3" d="M9.81,22.76a1.34,1.34,0,0,0,0-.28c-.05-.18,0-.11.12-.06S10,22.69,9.81,22.76Z"/><path class="cls-3" d="M13.16,21.33c-.06-.09.1-.17,0-.25s.08-.08.14-.11h0C13.27,21.1,13.29,21.24,13.16,21.33Z"/><path class="cls-3" d="M47.91,17.59H48a.31.31,0,0,1-.16.16C47.84,17.68,47.84,17.62,47.91,17.59Z"/><path class="cls-3" d="M12.84,22A.29.29,0,0,1,13,21.8C13,21.9,12.94,22,12.84,22Z"/><path class="cls-3" d="M13.11,21.52s0-.07,0-.1S13.17,21.51,13.11,21.52Z"/><polygon class="cls-2" points="27.13 20.89 27.14 20.88 27.14 20.89 27.13 20.89"/><path class="cls-3" d="M13.3,21Z"/><polygon class="cls-2" points="50.4 17.85 50.39 17.84 50.41 17.84 50.4 17.85"/><polygon class="cls-2" points="32.97 20.28 32.97 20.28 32.97 20.29 32.97 20.28"/><path class="cls-4" d="M32.15,4.79c-.06.1-.17.11-.26.15a5.33,5.33,0,0,0-3.35,4.74,5.16,5.16,0,0,0,4.3,5.39,5.35,5.35,0,0,0,5.6-2.29,5.21,5.21,0,0,0,.33-5.86,5.47,5.47,0,0,0-1.32-1.51.4.4,0,0,0-.3-.12.68.68,0,0,1-.53-.15,9.5,9.5,0,0,0-1.12-.5h.15a14.09,14.09,0,0,1,6.09,1.48c1.08.52.95.47,1.14,1.59a7.46,7.46,0,0,1,0,2.31.44.44,0,0,1-.11.27,2.76,2.76,0,0,0-.53.78,5.44,5.44,0,0,1-1.48,1.72,13.78,13.78,0,0,1-3.29,2,4.68,4.68,0,0,1-1.1.34l-2.15.39a7.14,7.14,0,0,1-2,0l-1.46-.13a25.34,25.34,0,0,1-4.14-.85,9.19,9.19,0,0,1-1.19-.56.45.45,0,0,1-.21-.24,7.74,7.74,0,0,1-.73-4,.49.49,0,0,1,.09-.28A11,11,0,0,1,27,6.81a11.06,11.06,0,0,1,5-2Z"/><path class="cls-4" d="M16,8.59l.12.05a.88.88,0,0,0,.53.25l.07,0a.34.34,0,0,0,.33.16l.22.14c0,.07.05.09.12.07l.48.32c0,.07.05.1.12.08l.08.06q0,.12.12.09l.08.07c0,.07,0,.1.11.08l.19.16c0,.07,0,.1.11.1a6.51,6.51,0,0,1,.7.69c0,.07,0,.11.08.11l0,0c0,.23.24.25.35.38a4.07,4.07,0,0,1,0,.78.38.38,0,0,0,0,.41l0,.19c-.1.07-.08.16,0,.25l0,.14c-.07,0-.09.1,0,.16l0,.09c-.06,0-.08.06,0,.11a7.66,7.66,0,0,1-1.53,3.12,9,9,0,0,1-2.68,2.35c-.17.09-.32.21-.48.31s-.15,0-.15-.09a.45.45,0,0,0-.07-.3c-.13-.15-.07-.2.08-.25a7.85,7.85,0,0,0,3.42-2.57,6.42,6.42,0,0,0,1.23-2.41.3.3,0,0,0,0-.1c0-.1.05-.23-.09-.27s-.16.08-.2.17-.18.38-.27.56a8.3,8.3,0,0,1-5.36,4.64,5.08,5.08,0,0,1-.77.29,3.51,3.51,0,0,1-1.07.1c-.24,0-.48.06-.73,0-.6,0-1.17-.19-1.76-.26a5,5,0,0,1-1.88-.65,10.2,10.2,0,0,1-1.54-1.05,11.06,11.06,0,0,1-1.21-1.16c-.14-.16-.2-.4-.45-.46,0,0,0-.1-.06-.16A6.8,6.8,0,0,1,4,13.54a.72.72,0,0,1,.11-.32,11,11,0,0,1,2.39-3.07c.08,0,.11,0,.11-.09l.19-.15c.07,0,.11,0,.11-.09l.29-.22c.07,0,.11,0,.11-.08L7.6,9.3c.07,0,.11,0,.12-.08l0,0c.11,0,.19,0,.22-.13L8.1,9a1.75,1.75,0,0,0,.72-.36l.12-.05c.06,0,.11,0,.17,0a9.67,9.67,0,0,1,1.22-.4c.05,0,.12,0,.14-.08l.09,0c0,.06.09,0,.11,0l.09,0c.07.06.12,0,.16,0l.14,0a.14.14,0,0,0,.21,0l.19,0a.24.24,0,0,0,.3,0,5.06,5.06,0,0,1,1,0,.32.32,0,0,0,.36,0l.24,0c.06.09.13.08.21,0l.19,0c.06.09.13.08.21,0h.14c0,.08.09.09.16,0l.13,0c0,.06.06.08.11,0l.1,0a.27.27,0,0,0,.3.08l.09,0a.62.62,0,0,0,.43.14l.27.1A.19.19,0,0,0,16,8.59ZM6.51,13.4A4.68,4.68,0,0,0,8.2,17.08a5,5,0,0,0,7.58-1.58,4.93,4.93,0,0,0-.19-5.4,3.65,3.65,0,0,0-2.2-1.53,7.53,7.53,0,0,0-1.16-.16A5.07,5.07,0,0,0,9.14,9,5,5,0,0,0,6.51,13.4Z"/><path class="cls-4" d="M33.48,14.39A4.46,4.46,0,0,1,29,8.82a5.2,5.2,0,0,1,7.45-3.38c.15.08.31.15.32.37A.4.4,0,0,0,37,6a4.44,4.44,0,0,1,1.11,5.54A5.22,5.22,0,0,1,33.48,14.39ZM30.61,9.62a2.34,2.34,0,0,0,1.3,2.32A3.05,3.05,0,0,0,35.68,11,2.15,2.15,0,0,0,36,8.9a3.25,3.25,0,0,0-1.68-1.85A2,2,0,0,0,33,6.88a4.12,4.12,0,0,0-1.3.54,2.15,2.15,0,0,0-.79.9A3.28,3.28,0,0,0,30.61,9.62Z"/><path class="cls-4" d="M24.74,8.24c.07-.46,0-1,.71-1.08l-.05-.07c-.11-.06-.3.08-.33-.1s.25-.56.46-.63a.2.2,0,0,1-.06-.3A4,4,0,0,1,26,5.27c.45-.47.86-1,1.33-1.42A10.41,10.41,0,0,1,33.54,1a9,9,0,0,1,6,1.42,7.28,7.28,0,0,1,2.36,2.45c0,.08.12.14.1.24s-.1,0-.14,0a16.5,16.5,0,0,0-7.88-1.31,13.8,13.8,0,0,0-6.39,1.85,9,9,0,0,0-2.7,2.5A.91.91,0,0,1,24.74,8.24Z"/><path class="cls-3" d="M25,18.13a4.05,4.05,0,0,0,.41-.93c0-.2.1-.19.25-.07a.41.41,0,0,1,.16.46c-.08.33-.11.67-.16,1h0a7,7,0,0,0,.4-.88c0-.06,0-.2.13-.16s.21.09.18.25a4.56,4.56,0,0,0-.07.59,2,2,0,0,0,.44-.81c.06-.2.11-.41.17-.62s0-.18.09-.16a.18.18,0,0,1,.18.2c-.08.5-.1,1-.15,1.49,0,.11-.08.14-.19.15L22.32,19a.33.33,0,0,1-.3-.12.39.39,0,0,0-.72.09.22.22,0,0,1-.2.15l-.57.05a.66.66,0,0,1-.51-.11.41.41,0,0,0-.59.07c-.2.23-.47.18-.71.21s-.12-.1-.14-.18a.6.6,0,0,0-.51-.53c-.26,0-.44.11-.61.43-.07.15-.11.38-.27.43a5,5,0,0,1-.86.12c-.06,0-.09,0-.11-.08a.18.18,0,0,1,.09-.21c.23-.18.46-.35.68-.54a10.05,10.05,0,0,0,3.46-6.11c0-.22.05-.45.07-.68a2.43,2.43,0,0,1,0,1.23c-.1.42-.09.84-.17,1.26a12.53,12.53,0,0,0-.2,1.25c.1-.37.21-.73.3-1.1s.15-.77.21-1.15.1-.79.16-1.24c.26.29.58.45.54.89-.08.7-.14,1.39-.25,2.09,0,.33-.09.67-.14,1a14.12,14.12,0,0,0,.55-3.18A1,1,0,0,1,22,14.13c-.1.7-.2,1.41-.31,2.15a7.4,7.4,0,0,0,.25-.7,9.68,9.68,0,0,0,.33-1.51c0-.1.06-.11.13-.05.21.23.42.45.62.68a.33.33,0,0,1,0,.29,14.64,14.64,0,0,1-.35,1.75c0,.05,0,.1,0,.15s-.05,0,0,.06l0-.06a5.4,5.4,0,0,0,.61-1.84c.34.19.41.31.37.66-.08.64-.22,1.27-.37,1.95a.6.6,0,0,0,.23-.36,6.18,6.18,0,0,0,.35-1.47s0-.11,0-.13.1,0,.14.07c.44.41.44.41.29,1s-.27,1-.38,1.49a10,10,0,0,0,.48-1.05,3.1,3.1,0,0,1,.13-.4c.06-.12,0-.34.17-.36s.41.36.38.55c-.06.38-.13.76-.2,1.15,0,0,0,0,0,0ZM20,16l0-.09h0S20,16,20,16h0Zm1.67.38v0h0Zm2.24,2v0h0Z"/><path class="cls-4" d="M11.82,5.52l.19,0a.12.12,0,0,0,.2,0l.24,0a.26.26,0,0,0,.31,0,3.56,3.56,0,0,1,.73,0,.33.33,0,0,0,.36,0l.23,0c.05.06.1.08.17,0l.18,0c0,.06.07.08.11,0l.14,0c0,.06.06.09.11,0l.09,0c0,.06.06.08.11,0l.09,0c0,.06.06.08.11,0l.09,0a1,1,0,0,0,.58.2L16,6a.18.18,0,0,0,.23.1l.37.19a.09.09,0,0,0,.12.08l.13.07c0,.07.05.1.12.08l0,0c0,.07.05.09.12.08a3,3,0,0,1,.53.41c0,.07,0,.1.11.09a3.77,3.77,0,0,1,.7.74c0,.07,0,.11.09.12l.06.08c0,.07,0,.11.08.12l.17.23c0,.07,0,.11.08.12s0,0,0,0a.57.57,0,0,0,.18.37l.19.37c0,.06,0,.1.05.13l0,.12a.62.62,0,0,0,.14.43l0,.09h-.16a12.06,12.06,0,0,0-2.32-1.62.19.19,0,0,0-.23-.11l-.42-.19c0-.07-.06-.09-.13-.06L16.2,8c0-.07-.07-.08-.14,0l-.61-.21c0-.06,0-.08-.11,0l-1-.28c0-.05-.06-.07-.11,0l-.09,0c0-.06-.06-.08-.11,0l-.19,0c-.05-.07-.1-.08-.16,0l-.24,0a.19.19,0,0,0-.26,0c-.45,0-.9,0-1.34,0a.13.13,0,0,0-.2,0l-.35,0a.1.1,0,0,0-.16,0l-.24,0a.09.09,0,0,0-.16,0l-.14,0c-.07-.06-.12,0-.16,0l-.09,0c-.05-.06-.08,0-.11,0l-.14,0c-.05,0-.08,0-.11,0l-.24.07c-.05-.06-.08,0-.11,0l-.09,0A.8.8,0,0,0,9,7.86l-.12,0c-.06,0-.11,0-.13,0L8.59,8c-.06,0-.11,0-.13.05a11.11,11.11,0,0,0-1.27.68c-.07,0-.11,0-.12.08A9.34,9.34,0,0,0,4.8,11l-.14.25-.13-.07A9.55,9.55,0,0,1,8,7a6.85,6.85,0,0,1,.94-.56A.08.08,0,0,0,9,6.39l.07,0c.07,0,.11,0,.13-.06l.57-.25c.06,0,.11,0,.13,0l.27-.1c.06,0,.1,0,.13,0l.24-.07a.21.21,0,0,0,.26-.08l.09,0c.05,0,.09,0,.11,0l.09,0c.05.06.08,0,.11,0l.14,0c.05.06.08,0,.11,0l.19,0C11.72,5.6,11.77,5.58,11.82,5.52Z"/><path class="cls-4" d="M35.17,16.22l.09,0a.13.13,0,0,0,.21,0l.09,0c.08.06.15.06.2,0l.1,0c.08.06.15.06.2,0l.1,0c.08.06.15.06.2,0l.09,0a.09.09,0,0,0,.11,0,6.7,6.7,0,0,0,1.58-.54c.06,0,.15,0,.16-.14l.13-.07a1.37,1.37,0,0,0,.71-.38l.23-.12a.32.32,0,0,0,.32-.17l0,0a.19.19,0,0,0,.21-.14l0,0c.07,0,.11,0,.12-.08l.09-.06c.07,0,.11,0,.11-.08l.09-.07c.07,0,.1,0,.11-.08l.08-.07a.14.14,0,0,0,.17-.13l0,0c.07,0,.11,0,.12-.08l.08-.07c.07,0,.11,0,.12-.08l.08-.07c.12,0,.2-.14.34-.08l-.23.34a.09.09,0,0,0-.09.12,9.58,9.58,0,0,1-2,2.08c-.07,0-.11,0-.11.09a6.32,6.32,0,0,1-.68.47c-.07,0-.11,0-.12.07l-.13.08c-.07,0-.11,0-.12.07l-.37.2a.25.25,0,0,0-.19,0s0,0,0,0-.12-.17-.25-.1h-.1c-.12-.07-.2,0-.26.1s0,0,0,0-.11,0-.11.09l-.57.57c0-.24-.13-.42-.37-.45a.64.64,0,0,0-.58.32l0,0c-.12.43-.46.46-.82.48-.52,0-1,.08-1.56.13-.18,0-.3,0-.33-.23a.42.42,0,0,0-.41-.37.46.46,0,0,0-.48.32c-.1.24-.13.24-.31.06s-.36-.27-.71-.11a.29.29,0,0,1-.24,0,7.83,7.83,0,0,1-4-2.55.91.91,0,0,1-.26-.34,1.51,1.51,0,0,1,.56.21c0,.06.06.08.13.05l.11.05c0,.06.07.08.13,0l.12.05a1.28,1.28,0,0,0,.71.23l.24.08a4.24,4.24,0,0,0,1.35.37l.09,0c0,.07.06.09.11,0l.09,0a.48.48,0,0,0,.46.09h.09a.23.23,0,0,0,.31,0l.24,0a.36.36,0,0,0,.4,0l.19,0a.3.3,0,0,0,.36,0l.19,0a.38.38,0,0,0,.41,0l.24,0a1.62,1.62,0,0,0,.9,0h.26a.43.43,0,0,0,.45,0l.14,0c.1.06.19.07.26,0l.09,0a.13.13,0,0,0,.21,0h.09C35,16.31,35.1,16.32,35.17,16.22Z"/><path class="cls-3" d="M43.78,16.15c.11.08,0,.16,0,.22a3.81,3.81,0,0,1-1,.86.27.27,0,0,1-.44-.13.51.51,0,0,0-.8-.18.23.23,0,0,0-.09.08c-.33.56-.9.46-1.42.51-.11,0-.16-.05-.2-.14a.59.59,0,0,0-.36-.33c-.06,0-.15,0-.16-.08s.08-.11.14-.15a12.12,12.12,0,0,0,1.49-1.28,10.34,10.34,0,0,0,2.38-3.75.24.24,0,0,1,.07-.13c0,.37-.13.71-.15,1.08l.23-.64.06,0c-.1.68-.38,1.32-.49,2L43.47,13a2,2,0,0,1,.1.63,11.35,11.35,0,0,1,.1,1.16,3.33,3.33,0,0,0,.1.56,2.45,2.45,0,0,1,0,.81s0,0,0,0Zm-.68-3.31s0,0,0,0v0Zm-.19,1.42v0s0,0,0,0v0Z"/><path class="cls-4" d="M4.53,16.49a8.84,8.84,0,0,0,6.32,3c.19,0,.2.06.11.21a2.73,2.73,0,0,0-.27.54c-.06.19-.18.23-.37.23a1.05,1.05,0,0,1-.79-.29,1.75,1.75,0,0,0-.61-.38.53.53,0,0,0-.67.15c-.07.11-.15.09-.24.05A6.19,6.19,0,0,1,4.39,16.5Z"/><path class="cls-4" d="M24.74,6.51c0,.21-.19.35-.22.55s-.1.06-.16.06c-1.58.18-3.14.41-4.69.74a.36.36,0,0,1-.43-.27c0-.12.09-.1.15-.11L21.73,7c.72-.14,1.46-.24,2.16-.45A4,4,0,0,1,24.74,6.51Z"/><path class="cls-4" d="M13.93,19.09l-.21.71a.28.28,0,0,1-.22.21,9,9,0,0,1-1.05.29c-.16,0-.21,0-.21-.17a1.87,1.87,0,0,0,0-.32c0-.36,0-.36.33-.44s.81-.18,1.21-.27A.31.31,0,0,1,13.93,19.09Z"/><path class="cls-3" d="M44.47,10.19a4.8,4.8,0,0,1-.4,3.35A2.11,2.11,0,0,1,44,13c0-.26-.06-.53-.1-.79a.57.57,0,0,1,0-.29C44.09,11.34,44.28,10.78,44.47,10.19Z"/><path class="cls-3" d="M28.41,18.49c-.13,0-.21-.06-.31-.13s-.33-.11-.46.08a.77.77,0,0,1-.55.17c-.07,0-.05-.07,0-.12a3.64,3.64,0,0,0,.34-1.21c0-.1.06-.11.13-.06a11,11,0,0,0,1.14.67s.12.06.07.13a.82.82,0,0,0-.15.39C28.58,18.51,28.48,18.48,28.41,18.49Z"/><path class="cls-4" d="M7.09,20.4l1.13.42a.28.28,0,0,1,.14.16l.36.9c-.46-.17-.91-.21-1.16-.65C7.41,21,7.26,20.69,7.09,20.4Z"/><path class="cls-3" d="M44.57,12.8c0,.44,0,.91,0,1.38,0,.27-.3.41-.35.71A2.64,2.64,0,0,1,44.57,12.8Z"/><path class="cls-3" d="M24,14.27a1.06,1.06,0,0,1,.56,1.32A1.1,1.1,0,0,1,24,14.27Z"/><path class="cls-3" d="M44.15,8.62a1.07,1.07,0,0,1,.13.6,19.28,19.28,0,0,1-.5,2.06.44.44,0,0,1-.08-.44A22.3,22.3,0,0,0,44.15,8.62Z"/><path class="cls-3" d="M23.1,14.07a6,6,0,0,1-.65-.74c-.13-.18,0-.43,0-.66C22.86,12.85,23.11,13.34,23.1,14.07Z"/><path class="cls-3" d="M21.53,11.6c.39.39.76.73.56,1.32C21.57,12.52,21.5,12.36,21.53,11.6Z"/><path class="cls-3" d="M21,10.92c.35.29.42.5.34,1.12a1.07,1.07,0,0,1-.5-1.19l.11.07h0s0,.07,0,.09l0-.09Z"/><path class="cls-3" d="M25.87,17c-.28-.19-.44-.39-.35-.72a1.93,1.93,0,0,0,0-.42c.32.12.4.24.37.56S25.89,16.74,25.87,17Z"/><path class="cls-4" d="M16.87,20.05a4.4,4.4,0,0,1-.74.81c0-.25.07-.46.09-.67s.06-.14.16-.14Z"/><path class="cls-3" d="M23.35,13.61c.46.28.58.5.35,1.07C23.27,14.43,23.44,14,23.35,13.61Z"/><path class="cls-3" d="M25.24,16.25c-.52-.24-.37-.66-.32-1.07C25.42,15.43,25.23,15.86,25.24,16.25Z"/><path class="cls-3" d="M26.27,16.39a.31.31,0,0,1,.23.4,4.11,4.11,0,0,1-.14.75c-.15-.11-.25-.21-.22-.4S26.23,16.65,26.27,16.39Z"/><path class="cls-3" d="M43.79,9.45a10.07,10.07,0,0,0-.1-2A2.8,2.8,0,0,1,43.79,9.45Z"/><path class="cls-3" d="M28.11,19.9a3.8,3.8,0,0,1-.79-.62C27.81,19.11,28,19.23,28.11,19.9Z"/><path class="cls-3" d="M20.53,11.29l-.18-1.2c.26.17.24.36.24,1.19Z"/><path class="cls-3" d="M38.3,15.35c0,.1-.1.11-.16.14a6.7,6.7,0,0,1-1.58.54.09.09,0,0,1-.11,0l.73-.21C37.57,15.69,37.92,15.48,38.3,15.35Z"/><path class="cls-3" d="M9.38,21.28a5.46,5.46,0,0,1,.54.73C9.58,22.06,9.44,21.87,9.38,21.28Z"/><path class="cls-3" d="M38.74,17.22a.6.6,0,0,1-.75.44Z"/><path class="cls-3" d="M10.47,8.09c0,.07-.09.07-.14.08a9.67,9.67,0,0,0-1.22.4c-.06,0-.11,0-.17,0A4.91,4.91,0,0,1,10.47,8.09Z"/><path class="cls-3" d="M29.33,16A4.24,4.24,0,0,1,28,15.63,9,9,0,0,1,29.33,16Z"/><path class="cls-3" d="M24.59,14.21c.08,0,.16,0,.16-.11a2,2,0,0,1,.44.75h0c-.16-.14-.35-.26-.36-.5S24.62,14.36,24.59,14.21Z"/><path class="cls-3" d="M4.53,11.21l.13.07-.38.7A1.75,1.75,0,0,1,4.53,11.21Z"/><path class="cls-3" d="M33.41,16.4a1.62,1.62,0,0,1-.9,0A3.4,3.4,0,0,1,33.41,16.4Z"/><path class="cls-3" d="M43.43,17.15l.35-.27s.07-.09.11,0a.09.09,0,0,1,0,.13A1.46,1.46,0,0,1,43.43,17.15Z"/><path class="cls-3" d="M41.51,13.46c-.14-.06-.22.1-.34.08.1-.21.33-.26.48-.42A.33.33,0,0,1,41.51,13.46Z"/><path class="cls-3" d="M39.14,14.9a1.37,1.37,0,0,1-.71.38A2.31,2.31,0,0,1,39.14,14.9Z"/><path class="cls-3" d="M8.82,8.64A1.75,1.75,0,0,1,8.1,9,2,2,0,0,1,8.82,8.64Z"/><path class="cls-3" d="M27.74,15.55a1.28,1.28,0,0,1-.71-.23A2.46,2.46,0,0,1,27.74,15.55Z"/><path class="cls-3" d="M19.8,11.47c-.11-.13-.34-.15-.35-.38C19.54,11.24,19.8,11.23,19.8,11.47Z"/><path class="cls-3" d="M44.37,16.21a1,1,0,0,1-.09.46C44.29,16.51,44.23,16.35,44.37,16.21Z"/><path class="cls-3" d="M16.61,8.89a.88.88,0,0,1-.53-.25A1.3,1.3,0,0,1,16.61,8.89Z"/><path class="cls-3" d="M15.86,5.91a1,1,0,0,1-.58-.2A1.22,1.22,0,0,1,15.86,5.91Z"/><path class="cls-3" d="M9,7.86a.8.8,0,0,1,.55-.19A1.5,1.5,0,0,1,9,7.86Z"/><path class="cls-3" d="M34.12,16.37a.43.43,0,0,1-.45,0A.86.86,0,0,1,34.12,16.37Z"/><path class="cls-3" d="M30.08,16.16a.48.48,0,0,1-.46-.09A.83.83,0,0,1,30.08,16.16Z"/><path class="cls-3" d="M19.77,12.66a.38.38,0,0,1,0-.41A.64.64,0,0,1,19.77,12.66Z"/><path class="cls-3" d="M32.27,16.35a.38.38,0,0,1-.41,0A.64.64,0,0,1,32.27,16.35Z"/><path class="cls-3" d="M31.12,16.25a.36.36,0,0,1-.4,0A.61.61,0,0,1,31.12,16.25Z"/><path class="cls-3" d="M4.53,16.49H4.39a.33.33,0,0,1-.09-.25C4.42,16.32,4.5,16.38,4.53,16.49Z"/><path class="cls-3" d="M15.46,8.39A.62.62,0,0,1,15,8.25.74.74,0,0,1,15.46,8.39Z"/><path class="cls-3" d="M13.85,5.44a.33.33,0,0,1-.36,0A.5.5,0,0,1,13.85,5.44Z"/><path class="cls-3" d="M19.54,9.93a.62.62,0,0,1-.14-.43A.74.74,0,0,1,19.54,9.93Z"/><path class="cls-3" d="M13.15,7.92a.32.32,0,0,1-.36,0A.55.55,0,0,1,13.15,7.92Z"/><path class="cls-3" d="M31.67,16.3a.3.3,0,0,1-.36,0A.49.49,0,0,1,31.67,16.3Z"/><path class="cls-3" d="M19.12,8.88a.57.57,0,0,1-.18-.37A.49.49,0,0,1,19.12,8.88Z"/><path class="cls-3" d="M12.76,5.42a.26.26,0,0,1-.31,0A.37.37,0,0,1,12.76,5.42Z"/><path class="cls-3" d="M11.76,7.9a.24.24,0,0,1-.3,0A.35.35,0,0,1,11.76,7.9Z"/><path class="cls-3" d="M17,9.09a.34.34,0,0,1-.33-.16A.52.52,0,0,1,17,9.09Z"/><path class="cls-3" d="M30.48,16.2a.23.23,0,0,1-.31,0A.42.42,0,0,1,30.48,16.2Z"/><path class="cls-3" d="M39.69,14.61a.32.32,0,0,1-.32.17A.53.53,0,0,1,39.69,14.61Z"/><path class="cls-3" d="M14.94,8.22a.27.27,0,0,1-.3-.08A.41.41,0,0,1,14.94,8.22Z"/><path class="cls-3" d="M19.41,10h.16c.05,0,.07.12,0,.13S19.45,10.11,19.41,10Z"/><path class="cls-3" d="M13.15,7.28a.19.19,0,0,1,.26,0A.3.3,0,0,1,13.15,7.28Z"/><path class="cls-3" d="M36.79,16.93c.06-.11.14-.17.26-.1A.49.49,0,0,1,36.79,16.93Z"/><path class="cls-3" d="M34.52,16.32c-.07.1-.16.09-.26,0A.3.3,0,0,1,34.52,16.32Z"/><path class="cls-3" d="M19.72,13.1c0-.09-.07-.18,0-.25A.28.28,0,0,1,19.72,13.1Z"/><path class="cls-3" d="M35.17,16.22c-.07.1-.16.09-.26,0A.27.27,0,0,1,35.17,16.22Z"/><path class="cls-3" d="M37.15,16.83c.13-.07.2,0,.25.1A.46.46,0,0,1,37.15,16.83Z"/><path class="cls-3" d="M10.82,5.71a.21.21,0,0,1-.26.08A.31.31,0,0,1,10.82,5.71Z"/><path class="cls-3" d="M12.21,5.46a.12.12,0,0,1-.2,0A.18.18,0,0,1,12.21,5.46Z"/><path class="cls-3" d="M35.76,16.12c0,.09-.12.09-.2,0A.17.17,0,0,1,35.76,16.12Z"/><path class="cls-3" d="M36.06,16.07c-.05.09-.12.09-.2,0A.18.18,0,0,1,36.06,16.07Z"/><path class="cls-3" d="M11.27,8a.14.14,0,0,1-.21,0A.2.2,0,0,1,11.27,8Z"/><path class="cls-3" d="M8,9.07c0,.11-.11.14-.22.13A.3.3,0,0,1,8,9.07Z"/><path class="cls-3" d="M13.6,8c-.08,0-.15.06-.21,0A.2.2,0,0,1,13.6,8Z"/><path class="cls-3" d="M16.21,6.05A.18.18,0,0,1,16,6,.29.29,0,0,1,16.21,6.05Z"/><path class="cls-3" d="M39.94,14.45a.19.19,0,0,1-.21.14A.24.24,0,0,1,39.94,14.45Z"/><path class="cls-3" d="M11.61,7.29a.13.13,0,0,1,.2,0A.18.18,0,0,1,11.61,7.29Z"/><path class="cls-3" d="M14,8c-.08.05-.15.06-.21,0A.2.2,0,0,1,14,8Z"/><path class="cls-3" d="M34.82,16.27a.13.13,0,0,1-.21,0A.2.2,0,0,1,34.82,16.27Z"/><path class="cls-3" d="M16.86,8.3a.19.19,0,0,1,.23.11A.3.3,0,0,1,16.86,8.3Z"/><path class="cls-3" d="M16,8.59a.19.19,0,0,1-.23-.1A.29.29,0,0,1,16,8.59Z"/><path class="cls-3" d="M36.36,16c0,.09-.12.09-.2,0A.18.18,0,0,1,36.36,16Z"/><path class="cls-3" d="M35.47,16.17a.13.13,0,0,1-.21,0A.2.2,0,0,1,35.47,16.17Z"/><path class="cls-3" d="M40.74,13.86a.14.14,0,0,1-.17.13A.19.19,0,0,1,40.74,13.86Z"/><path class="cls-3" d="M14.25,5.49c-.07.06-.12,0-.17,0A.12.12,0,0,1,14.25,5.49Z"/><path class="cls-3" d="M11.82,5.52c-.05.06-.1.08-.16,0A.11.11,0,0,1,11.82,5.52Z"/><path class="cls-3" d="M10.92,8c0,.07-.09.09-.16,0A.14.14,0,0,1,10.92,8Z"/><path class="cls-3" d="M37.43,17a.25.25,0,0,1,.19,0C37.55,17.06,37.48,17.07,37.43,17Z"/><path class="cls-3" d="M10.4,7.45c0-.07.09-.09.16,0A.12.12,0,0,1,10.4,7.45Z"/><path class="cls-3" d="M10.7,7.4a.09.09,0,0,1,.16,0A.14.14,0,0,1,10.7,7.4Z"/><path class="cls-3" d="M19.67,13.4c-.06-.06,0-.11,0-.16A.15.15,0,0,1,19.67,13.4Z"/><path class="cls-3" d="M11.1,7.34a.1.1,0,0,1,.16,0A.14.14,0,0,1,11.1,7.34Z"/><path class="cls-3" d="M13.65,7.32c.06-.05.11,0,.16,0A.12.12,0,0,1,13.65,7.32Z"/><path class="cls-3" d="M14.3,8.07c-.07.06-.12,0-.16,0A.16.16,0,0,1,14.3,8.07Z"/><ellipse class="cls-3" cx="43.75" cy="9.69" ry="0.1"/><path class="cls-3" d="M14.54,5.54c0,.06-.08,0-.11,0A.07.07,0,0,1,14.54,5.54Z"/><path class="cls-3" d="M11.47,5.57s-.06.08-.11,0A.07.07,0,0,1,11.47,5.57Z"/><path class="cls-3" d="M14.79,5.59c0,.06-.08,0-.11,0A.08.08,0,0,1,14.79,5.59Z"/><path class="cls-3" d="M11.22,5.62s-.06.08-.11,0A.07.07,0,0,1,11.22,5.62Z"/><path class="cls-3" d="M15,5.64c-.05.05-.09,0-.11,0S15,5.59,15,5.64Z"/><path class="cls-3" d="M11,5.66c0,.06-.06.08-.11,0A.08.08,0,0,1,11,5.66Z"/><path class="cls-3" d="M15.19,5.69s-.09,0-.11,0S15.16,5.64,15.19,5.69Z"/><path class="cls-3" d="M10.32,5.86c0,.06-.07.08-.13,0A.11.11,0,0,1,10.32,5.86Z"/><path class="cls-3" d="M9.92,6c0,.07-.07.08-.13,0A.1.1,0,0,1,9.92,6Z"/><path class="cls-3" d="M9.22,6.3c0,.06-.06.08-.13.06A.1.1,0,0,1,9.22,6.3Z"/><path class="cls-3" d="M17,6.47c-.07,0-.11,0-.12-.08A.1.1,0,0,1,17,6.47Z"/><path class="cls-3" d="M17.1,6.57c-.07,0-.11,0-.12-.08A.1.1,0,0,1,17.1,6.57Z"/><path class="cls-3" d="M17.74,7.07c-.07,0-.11,0-.11-.09A.1.1,0,0,1,17.74,7.07Z"/><path class="cls-3" d="M10,7.55c0-.06.06-.08.11,0S10,7.58,10,7.55Z"/><path class="cls-3" d="M10.2,7.49s.06-.08.11,0A.07.07,0,0,1,10.2,7.49Z"/><path class="cls-3" d="M14.2,7.42c.05,0,.08,0,.11,0A.07.07,0,0,1,14.2,7.42Z"/><path class="cls-3" d="M18.64,10.26c-.07,0-.11,0-.11-.1A.11.11,0,0,1,18.64,10.26Z"/><path class="cls-3" d="M16.7,6.32a.09.09,0,0,1-.12-.08A.1.1,0,0,1,16.7,6.32Z"/><path class="cls-3" d="M6.57,10.06c0,.07,0,.1-.11.09A.12.12,0,0,1,6.57,10.06Z"/><path class="cls-3" d="M19.62,13.6c-.05,0,0-.08,0-.11A.08.08,0,0,1,19.62,13.6Z"/><path class="cls-3" d="M41.09,13.61c0,.07-.05.1-.12.08S41,13.6,41.09,13.61Z"/><path class="cls-3" d="M40.89,13.76c0,.07,0,.1-.12.08S40.82,13.75,40.89,13.76Z"/><path class="cls-3" d="M41.19,13.92a.09.09,0,0,1,.09-.12A.12.12,0,0,1,41.19,13.92Z"/><path class="cls-3" d="M7.72,9.22c0,.07,0,.1-.12.08S7.66,9.21,7.72,9.22Z"/><path class="cls-3" d="M40.49,14.06c0,.07,0,.1-.11.08A.09.09,0,0,1,40.49,14.06Z"/><path class="cls-3" d="M17.35,9.3c-.07,0-.11,0-.12-.07A.1.1,0,0,1,17.35,9.3Z"/><path class="cls-3" d="M19.36,9.38c-.07,0-.09-.07-.05-.13A.1.1,0,0,1,19.36,9.38Z"/><path class="cls-3" d="M7.27,9.52c0,.07,0,.1-.11.08A.09.09,0,0,1,7.27,9.52Z"/><path class="cls-3" d="M18.92,8.48c-.07,0-.1-.05-.08-.12A.1.1,0,0,1,18.92,8.48Z"/><path class="cls-3" d="M26.91,15.27c-.06,0-.1,0-.13,0A.1.1,0,0,1,26.91,15.27Z"/><path class="cls-3" d="M19.42,11.06c-.07,0-.1,0-.08-.11A.09.09,0,0,1,19.42,11.06Z"/><path class="cls-3" d="M14,7.38c.05-.06.08,0,.11,0A.07.07,0,0,1,14,7.38Z"/><path class="cls-3" d="M26.67,15.17c-.07,0-.11,0-.13-.05S26.63,15.12,26.67,15.17Z"/><path class="cls-3" d="M18.53,7.93c-.08,0-.1,0-.09-.12A.11.11,0,0,1,18.53,7.93Z"/><path class="cls-3" d="M14.54,8.12c0,.06-.08,0-.11,0A.09.09,0,0,1,14.54,8.12Z"/><path class="cls-3" d="M18.67,8.13c-.07,0-.1-.05-.08-.12S18.68,8.06,18.67,8.13Z"/><path class="cls-3" d="M16.31,8.05c.07,0,.11,0,.13.06A.13.13,0,0,1,16.31,8.05Z"/><path class="cls-3" d="M39,16.09c0-.07,0-.1.11-.09A.1.1,0,0,1,39,16.09Z"/><path class="cls-3" d="M38.24,16.63c0-.07,0-.09.12-.07A.1.1,0,0,1,38.24,16.63Z"/><path class="cls-3" d="M10.67,8.05c0,.06-.06.08-.11,0A.07.07,0,0,1,10.67,8.05Z"/><path class="cls-3" d="M38,16.78c0-.07,0-.1.12-.07A.1.1,0,0,1,38,16.78Z"/><path class="cls-3" d="M18,9.7c-.07,0-.11,0-.12-.08A.1.1,0,0,1,18,9.7Z"/><path class="cls-3" d="M18.15,9.85q-.11,0-.12-.09A.12.12,0,0,1,18.15,9.85Z"/><path class="cls-3" d="M7.07,8.82c0-.07,0-.1.12-.08A.12.12,0,0,1,7.07,8.82Z"/><path class="cls-3" d="M40.09,14.35c0,.08-.05.1-.12.08A.11.11,0,0,1,40.09,14.35Z"/><path class="cls-3" d="M29.53,16.05c-.05.06-.09,0-.11,0A.08.08,0,0,1,29.53,16.05Z"/><path class="cls-3" d="M8.46,8.06c0-.07.07-.09.13-.05A.11.11,0,0,1,8.46,8.06Z"/><path class="cls-3" d="M16.06,8c.07,0,.11,0,.14,0A.15.15,0,0,1,16.06,8Z"/><path class="cls-3" d="M6.87,9.82c0,.07,0,.1-.11.09S6.81,9.82,6.87,9.82Z"/><path class="cls-3" d="M40.29,14.21c0,.07,0,.1-.11.08A.09.09,0,0,1,40.29,14.21Z"/><path class="cls-3" d="M9,6.39a.08.08,0,0,1-.12.07A.1.1,0,0,1,9,6.39Z"/><path class="cls-3" d="M18.34,10c-.07,0-.1,0-.11-.08A.1.1,0,0,1,18.34,10Z"/><path class="cls-3" d="M8.71,8c0-.07.07-.09.13,0A.12.12,0,0,1,8.71,8Z"/><path class="cls-3" d="M36.65,17c0-.07,0-.1.11-.09A.1.1,0,0,1,36.65,17Z"/><path class="cls-3" d="M15.34,7.72c.06,0,.09,0,.11,0A.08.08,0,0,1,15.34,7.72Z"/><path class="cls-3" d="M9.6,7.65c0-.06.06-.09.11,0A.08.08,0,0,1,9.6,7.65Z"/><path class="cls-3" d="M20.92,10.92l0-.06,0,.06h0Z"/><polygon class="cls-3" points="4.22 12.09 4.21 12.11 4.22 12.12 4.22 12.09"/><path class="cls-3" d="M41.71,13.1l0,0s0,0,0,0l0,0Z"/><path class="cls-3" d="M25.19,14.85h0Z"/><path class="cls-4" d="M7.88,21.85s0-.05,0-.08,0,0,.08,0Z"/><path class="cls-2" d="M6.51,13.4A5,5,0,0,1,9.14,9a5.07,5.07,0,0,1,3.09-.59,7.53,7.53,0,0,1,1.16.16,3.65,3.65,0,0,1,2.2,1.53,4.93,4.93,0,0,1,.19,5.4A5,5,0,0,1,8.2,17.08,4.68,4.68,0,0,1,6.51,13.4ZM7,13a4.24,4.24,0,0,0,3.1,4.25,4.49,4.49,0,0,0,4-.92A4.14,4.14,0,0,0,11,9a5,5,0,0,0-1.49.31A4.44,4.44,0,0,0,7,13Z"/><path class="cls-2" d="M30.61,9.62a3.28,3.28,0,0,1,.28-1.3,2.15,2.15,0,0,1,.79-.9A4.12,4.12,0,0,1,33,6.88a2,2,0,0,1,1.33.17A3.25,3.25,0,0,1,36,8.9a2.15,2.15,0,0,1-.31,2.1,3.05,3.05,0,0,1-3.77.94A2.34,2.34,0,0,1,30.61,9.62Z"/><path class="cls-2" d="M20,16s0-.06,0-.09h0L20,16Z"/><path class="cls-2" d="M21.69,16.37h0Z"/><path class="cls-2" d="M25,18.13l0,.05s0,0,0,0Z"/><polygon class="cls-2" points="23.93 18.36 23.93 18.38 23.93 18.38 23.93 18.36"/><path class="cls-2" d="M22.71,16.89l0,.06s0-.05,0-.06Z"/><path class="cls-2" d="M25.6,18.59h0Z"/><polygon class="cls-2" points="20.02 15.99 20.02 16 20.02 15.99 20.02 15.99"/><path class="cls-2" d="M43.1,12.84h0v0S43.09,12.84,43.1,12.84Z"/><path class="cls-2" d="M42.91,14.26h0v0s0,0,0,0Z"/><path class="cls-2" d="M43.78,16.15l0,0s0,0,0,0Z"/><path class="cls-2" d="M20.92,10.91h0L21,11C20.9,11,20.91,11,20.92,10.91Z"/><path class="cls-4" d="M7,13A4.44,4.44,0,0,1,9.48,9.29,5,5,0,0,1,11,9a4.14,4.14,0,0,1,3.09,7.37,4.49,4.49,0,0,1-4,.92A4.24,4.24,0,0,1,7,13Zm4.41,2.91.37,0a2.51,2.51,0,0,0,2.07-3.31,3.09,3.09,0,0,0-3.06-2,3,3,0,0,0-1.93,1,1.75,1.75,0,0,0-.39,1.67v.08A2.86,2.86,0,0,0,11.4,15.93Z"/><path class="cls-2" d="M11.4,15.93A2.86,2.86,0,0,1,8.46,13.3v-.08a1.75,1.75,0,0,1,.39-1.67,3,3,0,0,1,1.93-1,3.09,3.09,0,0,1,3.06,2,2.51,2.51,0,0,1-2.07,3.31Z"/></g></g></svg>