<svg xmlns="http://www.w3.org/2000/svg" viewBox="0 0 50 46.84"><defs><style>.cls-1{fill:#fff;}.cls-2{fill:#adacac;}.cls-3{fill:#ccc;}</style></defs><g id="Layer_2" data-name="Layer 2"><g id="icon"><path class="cls-1" d="M13.33.53a3.89,3.89,0,0,1,4.52,2.12c.84,1.69.31,3.6-.25,5.29a28.87,28.87,0,0,1-1.84,4.37c-.35.69-.74,1.36-1.15,2-.08.12-.25.58-.18.23,0,.27,0,.6,0,.87a10.28,10.28,0,0,1-1.5,3.95l-.49.87c0,.06-.31.69-.21.43,0,0-.21.76-.16.41,0,.06.05.8,0,.41a2.84,2.84,0,0,0,.57,1.22c.31.5.66,1,1,1.49a7.19,7.19,0,0,1,1.24,3.91A2.55,2.55,0,0,1,13,30.49l-.92.36c-1.66.64-3-1-3.12-2.37-.36-3.09,1.74-5.51,2.27-8.41l2.38,3.11-.27,0,1.24-.33c.43-1.06.62-1.24.56-.55a2.27,2.27,0,0,1,0,.52,4.44,4.44,0,0,1-.3,1.4,6.09,6.09,0,0,1-1.31,1.95,11.43,11.43,0,0,0-1.08,1.12,3.9,3.9,0,0,0-.37.62c-.08.21-.15.43-.21.65-.09.63-.18.44-.24-.58l-.88-.88c.36.27-.32,0,.2.07a3,3,0,0,1,.9.37A4.09,4.09,0,0,1,13.3,29.2c.66,1.18,1.24,2.42,1.87,3.63l3.9,7.58a2.46,2.46,0,0,1-4.25,2.48,12.74,12.74,0,0,1-2.22-4.67A12.27,12.27,0,0,0,12.11,36c-.25-.64-.61-1.24-.9-1.86a23.61,23.61,0,0,1-1.74-5A16.1,16.1,0,0,1,9,24.28a4.28,4.28,0,0,1,3.1-4,8,8,0,0,1,2.34-.12c.07,0,.79,0,.48,0s-.15.33-.09.06c.1-.43.39-.87.52-1.42,0-.18.08-.35.11-.53,0,.2,0,.14,0-.17v-.26c0,.22,0,.19,0-.1.14.08.71.62.19.41a3.85,3.85,0,0,1-1.12-.79,3.17,3.17,0,0,1-.79-2.93,2.47,2.47,0,0,1,3-1.72A7.27,7.27,0,0,1,20.05,15a10.11,10.11,0,0,0,2.44,2.4,16.79,16.79,0,0,1,3.64,2.74,9.44,9.44,0,0,1,2.58,4,2.54,2.54,0,0,1-.13,1.72c-.18.27,0-.08-.08-.25.05.15.09.31.14.46a17.56,17.56,0,0,1,.72,2.23A11.55,11.55,0,0,1,29.58,31a5.79,5.79,0,0,0,0,1s0,.31-.05.12c.1.27.79.58,1.12.72.6.26,1.47.53,2.16.78a7.2,7.2,0,0,1,4.06,3.05c1.54,2.44,4.46,3.6,6.27,5.93a2.54,2.54,0,0,1,0,3.48,2.47,2.47,0,0,1-3.48,0c-1.4-1.81-3.4-2.82-5-4.39a10.42,10.42,0,0,1-1.2-1.37,14.17,14.17,0,0,0-1-1.56c-.6-.57-2-.78-2.77-1.08-2.76-1-4.84-2.68-4.94-5.85a10.73,10.73,0,0,0-.38-3.52,10.63,10.63,0,0,1-.55-1.71A5.74,5.74,0,0,1,24,24.17v1.31a5.78,5.78,0,0,0-1.77-2.29A19.53,19.53,0,0,0,19.4,21.3a11.67,11.67,0,0,1-2.48-2.38c-.29-.34-.58-.69-.9-1,0,0-.57-.45-.31-.27-.36-.25.11,0-.35-.17l3-1.72,0,.2V14.64l.07.18-.64-1.09c.17.2.18.21,0,0l.33.19a3.84,3.84,0,0,1,1,.76,4.4,4.4,0,0,1,1,1.95,7.72,7.72,0,0,1-.36,4.25A5.88,5.88,0,0,1,17,24.59a5.5,5.5,0,0,1-2.65.49,8.3,8.3,0,0,1-.87,0c-.43-.05-.15,0,.11-.23s.17-.5.21-.1,0,.6,0,.9a15.38,15.38,0,0,0,.3,2,18.58,18.58,0,0,0,1.36,4.18,16.78,16.78,0,0,1,1.71,4.53,9.77,9.77,0,0,0,1.82,4.08l-4.25,2.48L11.1,35.67c-.6-1.16-1.2-2.31-1.79-3.47-.05-.1-.45-.69-.4-.78.75.45.94.62.56.5l-.33-.09A3.38,3.38,0,0,1,7.32,30.5c-1.43-2.24.43-5.54,2-7.17.21-.21.43-.4.63-.61,0,0,.31-.3.16-.17.16-.3.18-.32.09-.05s-.09.24-.06-.17a5,5,0,0,1,.08-1,3.5,3.5,0,0,1,3.32-3C15.3,18,16.2,20,16,21.37c-.45,2.45-2.38,4.74-2.1,7.11L10.74,26.1l.93-.35L9.86,28.12a1.77,1.77,0,0,0-.11-.62A9.07,9.07,0,0,0,9,26.23,12.91,12.91,0,0,1,7.4,23.31c-.85-2.46.26-4.68,1.45-6.79a3.85,3.85,0,0,0,.67-2.28c.09-1.47,1-2.54,1.66-3.78A21.43,21.43,0,0,0,12.62,7.3c.22-.61.43-1.23.6-1.87,0,0,.17-.82.16-.82l.1.26a1.09,1.09,0,0,0,1.16.4c-3.07.79-4.38-4-1.31-4.74Z"/><path class="cls-1" d="M25.65,31.32l-3.2,2.43a8.47,8.47,0,0,1-1.46,1,5.9,5.9,0,0,1-1.28.51c-.27.07-.54.09-.81.18l.59-.25a1.2,1.2,0,0,0-.31.18l.49-.39a3.61,3.61,0,0,0-.33.35l.38-.49a4,4,0,0,0-.46.74l.25-.59a2.62,2.62,0,0,0-.17.59l.08-.65c0,.13,0,.24,0,.36l-.09-.65a1.57,1.57,0,0,0,.08.29l-.25-.59c0,.08.09.15.14.23l-.38-.5a1.62,1.62,0,0,0,.19.18l-.5-.38.23.13-.58-.24.24.07-.65-.09h.24l-.65.08.16,0L17,34a.42.42,0,0,0,.14-.09,2.47,2.47,0,0,1,3.62,2.78,2.81,2.81,0,0,1-1.13,1.47,3.22,3.22,0,0,1-3.51-.06,3.57,3.57,0,0,1-1.34-1.59,3.77,3.77,0,0,1-.21-2.25,5.21,5.21,0,0,1,1.47-2.66,3.77,3.77,0,0,1,1.76-1,6.48,6.48,0,0,0,1.05-.27l-.59.25A12.37,12.37,0,0,0,20.65,29l2.51-1.91a2.48,2.48,0,0,1,1.9-.24A2.45,2.45,0,0,1,26.53,28a2.5,2.5,0,0,1,.25,1.89,2.89,2.89,0,0,1-1.13,1.47Z"/><path class="cls-1" d="M17.05,28.19l-.32,2.07A3,3,0,0,1,15.9,32a2.88,2.88,0,0,1-2.76.73,3.24,3.24,0,0,1-1.54-.94,4.82,4.82,0,0,1-.95-1.66c-.22-.59-.32-1.23-.56-1.81l.25.59a3.26,3.26,0,0,0-.31-.55l.38.5a2.34,2.34,0,0,0-.44-.45l.5.39a2.07,2.07,0,0,0-.32-.19l.58.25a1.06,1.06,0,0,0-.35-.09l.65.09h-.29l.65-.09a2.4,2.4,0,0,0-.38.12l.58-.25a5.43,5.43,0,0,1-2.22.65,2.55,2.55,0,0,1-1.74-.73,2.45,2.45,0,0,1,1.74-4.2.75.75,0,0,0,.15,0l-.65.08a1.67,1.67,0,0,0,.45-.13l-.58.25A11.68,11.68,0,0,1,9.89,24a3.78,3.78,0,0,1,1.8-.05,3.28,3.28,0,0,1,1.11.43,4.22,4.22,0,0,1,1,.77A5.93,5.93,0,0,1,15,27.37c.16.51.27,1,.47,1.55l-.25-.59a2.18,2.18,0,0,0,.24.42l-.39-.5a1.94,1.94,0,0,0,.21.2l-.49-.38a1,1,0,0,0,.17.1l-.58-.25.12,0-.66-.09h.12l-.65.09.11,0-.59.25.06,0-.5.38a.32.32,0,0,0,.1-.1l-.39.5,0-.06-.25.58a5.56,5.56,0,0,0,.22-1.23l.22-1.34a2.45,2.45,0,0,1,1.13-1.47,2.47,2.47,0,0,1,3.37.88l.24.59a2.43,2.43,0,0,1,0,1.31Z"/><path class="cls-1" d="M15,19.19l-.73.21a1,1,0,0,1-.49,0,1,1,0,0,1-.46-.15A.87.87,0,0,1,13,19a.78.78,0,0,1-.22-.41l0-.33a1.23,1.23,0,0,1,.17-.62l.19-.25a1.33,1.33,0,0,1,.55-.32l.73-.21a.91.91,0,0,1,.49,0,1,1,0,0,1,.46.15.85.85,0,0,1,.34.31,1,1,0,0,1,.22.42l0,.33a1.23,1.23,0,0,1-.17.62l-.19.25a1.33,1.33,0,0,1-.55.32Z"/><path class="cls-1" d="M14.07,4.6c-.06.23-.11.47-.15.71L14,5a5.42,5.42,0,0,0,0,1.45l0-.32a5.87,5.87,0,0,0,.37,1.41l-.12-.3c0,.1.09.2.14.3a1.31,1.31,0,0,1,.12,1,1.23,1.23,0,0,1-2.25.3,6.87,6.87,0,0,1-.48-4.84,1.23,1.23,0,1,1,2.37.66Z"/><path class="cls-1" d="M20.75,15.3c1.45,1.09,2.86,2.24,4.21,3.46a1.24,1.24,0,0,1,0,1.74,1.26,1.26,0,0,1-1.74,0c-1.07-1-2.17-1.89-3.3-2.76l.25.19-.66-.5a1.35,1.35,0,0,1-.57-.74,1.31,1.31,0,0,1,.12-1,1.26,1.26,0,0,1,.74-.56,1.21,1.21,0,0,1,.95.12Z"/><path class="cls-1" d="M29.9,27.83a34,34,0,0,0,2.23,4.11c.2.32.41.63.62.93a1.77,1.77,0,0,0,.16.22c-.07-.1-.07-.07,0,0a3.41,3.41,0,0,0,.38.38c-.1-.07-.09-.06,0,0l.21.1.35.16a2,2,0,0,1,.93,1.13,1.26,1.26,0,0,1-.86,1.51,1.9,1.9,0,0,1-2.28-1,4,4,0,0,1-.31-1.28c0-.14,0-.1,0,0a1.42,1.42,0,0,1-.05-.22c0-.15.09.16,0,0s.14.13.17.15a1.23,1.23,0,0,1,1.25-2.13,2.43,2.43,0,0,1,1,1.61c0,.18.05.37.07.55,0-.31,0,.24.06.23s-.29-.31,0-.12a.44.44,0,0,0-.22-.14c-.42,0-.52,0-.31,0l-.86,1.51a1.24,1.24,0,0,0,.21.33c.06.11,0,0-.05,0l-.35-.15a3.23,3.23,0,0,1-.92-.68,12.59,12.59,0,0,1-1.37-1.92,36.06,36.06,0,0,1-2.17-4,1.28,1.28,0,0,1,.44-1.69,1.25,1.25,0,0,1,1.69.45Z"/><path class="cls-1" d="M16.8,25.1a12.23,12.23,0,0,1,5.29,6.08,1.21,1.21,0,0,1-.13,1,1.26,1.26,0,0,1-.73.57,1.27,1.27,0,0,1-1.52-.86c-.11-.27.12.25,0,0l-.09-.19-.18-.37c-.14-.26-.28-.52-.44-.76s-.32-.49-.49-.73,0-.1,0,0a.75.75,0,0,0-.14-.17l-.29-.35a11.53,11.53,0,0,0-1.24-1.18A1,1,0,0,0,16.7,28c.25.12.06.05,0,0a2.62,2.62,0,0,0-.34-.24,7.85,7.85,0,0,0-.78-.49A1.23,1.23,0,1,1,16.8,25.1Z"/><path class="cls-1" d="M15.68,25.13V24A1.31,1.31,0,0,1,16,23.1a.9.9,0,0,1,.39-.25,1,1,0,0,1,.48-.11l.32.05a1.31,1.31,0,0,1,.55.31l.19.25a1.23,1.23,0,0,1,.17.62v1.16a1,1,0,0,1-.11.47,1,1,0,0,1-.25.4.94.94,0,0,1-.4.25,1,1,0,0,1-.47.11l-.33-.05A1.22,1.22,0,0,1,16,26l-.2-.25a1.25,1.25,0,0,1-.16-.62Z"/><path class="cls-1" d="M11.2,33.73v0l.05-.33a5.16,5.16,0,0,0,0,1.36l-.05-.33a5.58,5.58,0,0,0,.18.81,1.26,1.26,0,0,1-.12.95,1.23,1.23,0,0,1-.74.56,1.26,1.26,0,0,1-.95-.12A1.35,1.35,0,0,1,9,35.93a6.22,6.22,0,0,1-.25-1.42,6.86,6.86,0,0,1,.07-1.43,1.23,1.23,0,0,1,1.52-.86,1.21,1.21,0,0,1,.73.56l.13.3a1.2,1.2,0,0,1,0,.65Z"/><path class="cls-1" d="M18.66,44.08a1.28,1.28,0,0,0-.11-.2l.19.25a1.45,1.45,0,0,0-.22-.21l.25.19a8.13,8.13,0,0,0-.86-.48,4,4,0,0,1-.63-.44,2,2,0,0,1-.47-.61,1.45,1.45,0,0,1-.12-.95,1.26,1.26,0,0,1,.57-.73,1.24,1.24,0,0,1,.94-.13,1.22,1.22,0,0,1,.74.57.76.76,0,0,0,.12.19l-.19-.24a1.1,1.1,0,0,0,.22.21l-.25-.19a6.53,6.53,0,0,0,.86.48,3.32,3.32,0,0,1,.62.44,1.88,1.88,0,0,1,.47.61.82.82,0,0,1,.14.45.94.94,0,0,1,0,.5,1.28,1.28,0,0,1-.56.73,1.26,1.26,0,0,1-1,.13,1.22,1.22,0,0,1-.74-.57Z"/><path class="cls-1" d="M13.52,43.17l-.1-.1a.9.9,0,0,1-.26-.4.93.93,0,0,1-.1-.47,1,1,0,0,1,.1-.48.93.93,0,0,1,.26-.39l.25-.19a1.14,1.14,0,0,1,.62-.17l.33,0a1.3,1.3,0,0,1,.54.32l.1.1a1.31,1.31,0,0,1,.36.87,1,1,0,0,1-.1.48.93.93,0,0,1-.26.39l-.25.2a1.19,1.19,0,0,1-.62.16l-.32,0a1.23,1.23,0,0,1-.55-.32Z"/><path class="cls-1" d="M24.59,37a5.72,5.72,0,0,1,.14-3,1.21,1.21,0,0,1,1.51-.86,1.23,1.23,0,0,1,.74.56,1.26,1.26,0,0,1,.12,1,4.75,4.75,0,0,0-.19.83l0-.33a5.53,5.53,0,0,0,0,1.15l0-.33c0,.11,0,.23.06.34a1.29,1.29,0,0,1-.13.94,1.23,1.23,0,0,1-1.68.45,1.28,1.28,0,0,1-.57-.74Z"/><path class="cls-2" d="M9.25,16.85c-1.16.56-1.48,1.69-1.49,3.14a50.49,50.49,0,0,0,.49,5.75c.19,1.92.35,3.85.62,5.76.12.92.28,1.82.47,2.72.1.5.22,1,.34,1.48.06.22.12.44.19.66-.29-.35-.28-.39,0-.11l-1.09-.64-1.7.81-.34,1.25,0-.2A2.54,2.54,0,0,1,9.26,35a2.48,2.48,0,0,1,2.46,2.46,3.18,3.18,0,0,1-3.26,3.06c-1.84,0-3-1.54-3.42-3.15a48.58,48.58,0,0,1-1.44-8.9,62.81,62.81,0,0,1-.76-8.86c.12-2.79,1.27-5.73,3.92-7a2.52,2.52,0,0,1,3.37.88,2.49,2.49,0,0,1-.88,3.37Z"/><path class="cls-2" d="M13.51,2.13a4.81,4.81,0,0,0-1.13,4.7c.45,1.92,1,4.1-.23,5.86a1.28,1.28,0,0,1-1.69.44A1.24,1.24,0,0,1,10,11.45a2.72,2.72,0,0,0,.41-2.1C10.27,8.2,9.86,7.11,9.74,6a7,7,0,0,1,2-5.56,1.23,1.23,0,0,1,1.74,1.74Z"/><path class="cls-2" d="M30.79,34.61c-.06-.2.19.28.09.15a3,3,0,0,0,.39.4,8.87,8.87,0,0,1,.69.68,2.79,2.79,0,0,1,.61,1.07,2.22,2.22,0,0,1,.08.68c0,.15,0,.3-.07.45s-.07.26-.06,0l-.32-.54c-.09-.12-.34-.08-.08-.09a2.6,2.6,0,0,1,.74.12,2.21,2.21,0,0,1,1.3,1.15,4.57,4.57,0,0,0,.71,1.16,6.1,6.1,0,0,0,1.24,1c2,1.32,4.39,2,6.45,3.32,1.35.83.11,3-1.24,2.12-1.58-1-3.33-1.58-5-2.44s-3.23-1.79-4.07-3.34c-.08-.16-.14-.32-.22-.48a1.06,1.06,0,0,0-.11-.21c-.1-.16,0-.12.25.13,0-.07-.67-.09-.82-.13a1.72,1.72,0,0,1-1.24-2.24c.07-.25,0-.17.05,0s-.11-.12,0,0c-.18-.2-.38-.39-.58-.58a4.21,4.21,0,0,1-1.22-1.73c-.51-1.51,1.87-2.15,2.37-.66Z"/><path class="cls-3" d="M18.64,38.15a18.13,18.13,0,0,0,2.19-1.24l.48-.34.27-.2.12-.08-.07.05c.33-.27.66-.54,1-.83a1.23,1.23,0,1,1,1.75,1.74,18.56,18.56,0,0,1-4.48,3,1.29,1.29,0,0,1-.94.13,1.23,1.23,0,0,1-.3-2.25Z"/><path class="cls-2" d="M11.3,31.65a36.13,36.13,0,0,1,1.92,4.2,5.06,5.06,0,0,1,.54,2A1.73,1.73,0,0,1,13.24,39a2.29,2.29,0,0,1-.23.21l-.1.08c-.16.16-.13.1.08-.15v-.66a2,2,0,0,0,.45.68,8.8,8.8,0,0,0,.69.8A4.73,4.73,0,0,0,15.69,41c1.23.55,2.41.95,3.17,2.15s-1.27,2.57-2.12,1.24c-.48-.76-1.84-1-2.65-1.43a9.34,9.34,0,0,1-3-3,1.78,1.78,0,0,1-.14-2.2c0-.06.46-.58.55-.54-.12,0,0,1-.21.32l-.18-.51a32.47,32.47,0,0,0-1.9-4.21c-.75-1.39,1.38-2.64,2.13-1.24Z"/><path class="cls-2" d="M8.88,4.15V3.94A.93.93,0,0,1,9,3.47a.9.9,0,0,1,.26-.4.9.9,0,0,1,.39-.25.89.89,0,0,1,.48-.11l.33,0a1.3,1.3,0,0,1,.54.32l.19.25a1.23,1.23,0,0,1,.17.62v.21a.84.84,0,0,1-.11.47A.88.88,0,0,1,11,5a.9.9,0,0,1-.4.26.93.93,0,0,1-.47.1l-.33,0A1.24,1.24,0,0,1,9.24,5l-.19-.25a1.14,1.14,0,0,1-.17-.62Z"/><path class="cls-2" d="M18.12,37.75a8.49,8.49,0,0,1,3.28-2.5,1.37,1.37,0,0,1,1-.13,1.22,1.22,0,0,1,.74.57l.23.52a1.37,1.37,0,0,1,.12.95,1.23,1.23,0,0,1-1.51.86,1.2,1.2,0,0,1-.74-.56L21,36.93l1.68.44a8.07,8.07,0,0,0-1.7,1l.25-.19a7.5,7.5,0,0,0-1.33,1.31,1.23,1.23,0,0,1-1.74,0,1.27,1.27,0,0,1-.37-.87l.05-.33a1.15,1.15,0,0,1,.32-.54Z"/><path class="cls-2" d="M7,30.54l1.2,1.71a1,1,0,0,1,.15.46.9.9,0,0,1,0,.49,1,1,0,0,1-.22.42,1,1,0,0,1-.35.32,1.26,1.26,0,0,1-1,.12l-.29-.12a1.24,1.24,0,0,1-.44-.44L4.87,31.78a.91.91,0,0,1-.14-.45.94.94,0,0,1,0-.5A.86.86,0,0,1,5,30.42a.9.9,0,0,1,.35-.32A1.24,1.24,0,0,1,6.26,30l.3.13a1.32,1.32,0,0,1,.44.44Z"/><path class="cls-2" d="M22.62,19.51a9.27,9.27,0,0,0,2.33,3A5.71,5.71,0,0,1,26.9,25.8a12.38,12.38,0,0,1-.29,4c-.28,1.53-.42,3.08-.56,4.64s-2.6,1.58-2.46,0,.27-3,.51-4.51a13.65,13.65,0,0,0,.41-3.59,4.19,4.19,0,0,0-1.71-2.51,9.76,9.76,0,0,1-2.3-3.1,1.26,1.26,0,0,1,.44-1.68,1.23,1.23,0,0,1,1.68.44Z"/><path d="M4.75,14.48A5.68,5.68,0,0,1,8.2,12.6a1.58,1.58,0,0,0,1.46-1.38,8.55,8.55,0,0,0,.17-2.57C9.68,7.09,8.39,5.92,8.75,4.28A7.23,7.23,0,0,1,10.87.93c1-.95,2.69-1,4-.87A3.94,3.94,0,0,1,17.79,2a3.64,3.64,0,0,1,.52,1.49c.12.88-.21,1.71-.16,2.59a5.82,5.82,0,0,1,0,2.24c-.22.64-.75,1.12-.95,1.77-.15.48-.16,1.11-.66,1.39s-1.29-.24-1.78-.52c-1.06-.6-2.89-1.29-2.52-2.84a.31.31,0,0,1,.6.17c-.2.81.64,1.24,1.22,1.57l.78.45a4.68,4.68,0,0,0,.9.5c.87.2.78-.74,1-1.24a16.14,16.14,0,0,0,.83-1.46,6.62,6.62,0,0,0-.08-2.17c0-.65.2-1.28.21-1.94a3.38,3.38,0,0,0-1.82-3,4,4,0,0,0-2-.36A4.82,4.82,0,0,0,11.75,1,4.53,4.53,0,0,0,10.58,2.2,7,7,0,0,0,9.46,4c-.5,1.39.39,2.39.8,3.65a7.45,7.45,0,0,1,0,3.42,2.2,2.2,0,0,1-1.63,2.05,5.71,5.71,0,0,0-3.49,1.77c-.26.3-.69-.13-.43-.43Z"/><path d="M16.35,11.52c1.11,2.06,3.6,2.56,5.39,3.83a25.45,25.45,0,0,1,4.74,4.11c1.11,1.31,2.78,3.07,2.87,4.87a4.58,4.58,0,0,1-.86,2.43,4.27,4.27,0,0,0-.18,3.8c.15.36-.38.68-.53.32a5.28,5.28,0,0,1,.48-5c.75-1.35.39-2.46-.44-3.67a25.71,25.71,0,0,0-2.22-2.86,22.77,22.77,0,0,0-5.33-4.25c-1.67-.93-3.49-1.52-4.45-3.31-.19-.35.35-.66.53-.31Z"/><path d="M27.77,31.14a.72.72,0,0,1-.08-.57.3.3,0,0,1,.51-.13c.8,1,.49,2.38.46,3.58a20.68,20.68,0,0,0,.08,2.23,3.83,3.83,0,0,1-.19,1.9.32.32,0,0,1-.42.11c-.67-.31-.57-1-.67-1.64s-.75-1-.72-1.73c0-.39.64-.39.62,0s.47.86.63,1.3-.06,1.31.45,1.54l-.42.11a3.73,3.73,0,0,0,.08-1.79Q28,35.11,28,34.16c0-.57.07-1.15.08-1.73a2.37,2.37,0,0,0-.35-1.56l.51-.13,0,.09a.31.31,0,0,1-.53.31Z"/><path d="M26.34,35.53l.07-.07a.31.31,0,0,1,.61.08,5.32,5.32,0,0,1-1,3.27.31.31,0,0,1-.48.06,1.42,1.42,0,0,1-.45-1l.58.16a.72.72,0,0,1-1,.28.33.33,0,0,1-.15-.27A13.86,13.86,0,0,1,25,34.64l.6.16c-.24.78-.64,1.61-1.56,1.59-.15,0-.33-.14-.31-.31a9.27,9.27,0,0,0-.28-2,5.67,5.67,0,0,1,.33-2,13.58,13.58,0,0,0,.75-4.63A5.56,5.56,0,0,0,22,23.81a4.42,4.42,0,0,1-1.07-1c-.37-.55-.54-1.2-.92-1.75-.23-.32.31-.63.53-.31a12.5,12.5,0,0,0,1.22,2.1c.45.43,1,.75,1.47,1.17a5.63,5.63,0,0,1,1.87,3.08,11.1,11.1,0,0,1-.48,4.24,11.76,11.76,0,0,0-.57,2.45,22.07,22.07,0,0,1,.3,2.29l-.31-.31c.62,0,.83-.69,1-1.13s.71-.22.6.16a12.55,12.55,0,0,0-.35,1.47,5.88,5.88,0,0,1-.16,1.42.32.32,0,0,1,.58.16l.26.59-.48.06a4.76,4.76,0,0,0,.93-3l.61.08a.72.72,0,0,1-.36.44c-.33.21-.64-.32-.31-.53Z"/><path d="M25.52,34h.07a.23.23,0,0,1,.12,0l.1.07a.17.17,0,0,1,.06.1.2.2,0,0,1,0,.11v.09a.26.26,0,0,1-.08.13l-.06.05a.29.29,0,0,1-.16,0h-.07l-.12,0a.31.31,0,0,1-.09-.07.23.23,0,0,1-.07-.1.16.16,0,0,1,0-.12v-.08a.26.26,0,0,1,.08-.13l.06,0a.28.28,0,0,1,.15,0Z"/><path d="M26.41,34.61a5.33,5.33,0,0,1-.06,1,8.84,8.84,0,0,1-.25.88,3.56,3.56,0,0,0-.31,1.75c.07.39-.52.56-.6.17a3.9,3.9,0,0,1,.25-1.91,7.84,7.84,0,0,0,.29-.94,4.2,4.2,0,0,0,.06-1,.31.31,0,0,1,.62,0Z"/><path d="M4.83,15a5.27,5.27,0,0,0-1.71,3.21,10.32,10.32,0,0,0,.3,1.82,11.18,11.18,0,0,1,.05,1.53,14.57,14.57,0,0,0,.24,3.55c.25,1.12.62,2.21.87,3.33a9,9,0,0,1,.25,2.92,21.46,21.46,0,0,0-.3,3.39,17.4,17.4,0,0,0,.73,3.64c.34,1.14,1.45,1.73,2.35,2.43.31.24-.13.68-.44.44-.82-.64-1.94-1.24-2.35-2.25A14.15,14.15,0,0,1,4,35.83a11.31,11.31,0,0,1,.06-3.58,10.29,10.29,0,0,0-.28-4.31,31,31,0,0,1-.9-3.69c-.17-1.19,0-2.38-.07-3.58s-.54-2.21-.16-3.38a7,7,0,0,1,1.7-2.69c.28-.28.71.15.44.44Z"/><path d="M4.47,32.87a55,55,0,0,1,3.22-5.43c1-1.41,1.84-2.46,3.6-2.76a3.59,3.59,0,0,1,3.81,1.41,4.34,4.34,0,0,1,.52,2.18,18.16,18.16,0,0,0,.65,3.44c.56,2.16,1.29,4.27,2,6.37a7.49,7.49,0,0,0,1.54,2.84A6.33,6.33,0,0,1,21,42.85c1.25,3.23-6.54,1.4-7.78.78a1.56,1.56,0,0,1-1-1.67c0-1.06-1-1.59-1.21-2.61-.11-.56,0-1.11-.13-1.67a9.26,9.26,0,0,0-.79-1.41c-.45-1,.05-2.6-1-3.24a.31.31,0,0,1,.31-.53c1.27.74.81,2.1,1.2,3.28.23.69.84,1.14,1,1.87.17.89-.1,1.62.47,2.42a3.66,3.66,0,0,1,.79,1.34c.06.29-.08.63,0,.89.23.71.95.94,1.59,1.14a11.75,11.75,0,0,0,2.63.5c.46.05.92.07,1.39.09a4,4,0,0,0,1.25,0l.41-.41c.41-.15.52-.35.31-.62a2.3,2.3,0,0,0-.29-.64,5.31,5.31,0,0,0-.71-1,5.37,5.37,0,0,1-1.11-1.49,50.31,50.31,0,0,1-1.68-4.79,41.27,41.27,0,0,1-1.44-5.34c-.32-1.74,0-3.85-2.14-4.43a4.3,4.3,0,0,0-3.17.51A7.15,7.15,0,0,0,8,28.05a53.75,53.75,0,0,0-3,5.13c-.19.35-.72,0-.54-.31Z"/><path d="M9.8,19c-.12,2.17,2.42,2.77,4,3.45a26.25,26.25,0,0,1,4.91,3.34,9.32,9.32,0,0,1,3.41,3.56A59.32,59.32,0,0,1,24,35.07c.12.38-.48.54-.59.17l-1-3.07a18,18,0,0,0-1.07-3c-1-1.82-3.09-3-4.69-4.15a22.53,22.53,0,0,0-2.43-1.7c-.8-.44-1.69-.7-2.52-1.07-1.33-.6-2.59-1.69-2.5-3.27,0-.39.64-.39.61,0Z"/><path d="M23.2,36l-.1-.33h.6a1.24,1.24,0,0,0,0,.43c0,.35-.51.4-.6.08a5.1,5.1,0,0,0-1.34-2.53.31.31,0,0,1,0-.44.31.31,0,0,1,.43,0,5.64,5.64,0,0,1,1.5,2.8l-.61.09a1.94,1.94,0,0,1,.06-.59.31.31,0,0,1,.6,0l.09.33a.31.31,0,0,1-.59.16Z"/><path d="M22,33.55a8.87,8.87,0,0,1,1.16,3.24.31.31,0,0,1-.56.23l-.59-.8a8.83,8.83,0,0,1-.56-.8,2,2,0,0,1-.24-.74.89.89,0,0,0-.23-.57.31.31,0,1,1,.44-.43c.43.36.29.93.53,1.38a8.83,8.83,0,0,0,.56.8l.62.85-.56.24a8.56,8.56,0,0,0-1.11-3.09.31.31,0,0,1,.54-.31Z"/><path d="M21.13,33.71,21,36.82a.31.31,0,0,1-.58.16,4.76,4.76,0,0,1-.59-1.44c-.08-.35,0-1.25-.32-1.45l.47-.27c-.05.42-.3,2.73-1.11,2.11-.37-.28-.27-1-.25-1.34,0-.66.16-1.31.19-2a4.67,4.67,0,0,0-.35-1.84,4.53,4.53,0,0,1-.22-1.51c0-.75-.68-.67-1.23-.85a2.88,2.88,0,0,1-1.22-.84c-.25-.3.18-.74.44-.44a2.16,2.16,0,0,0,1.08.72,4.59,4.59,0,0,1,1,.28c.75.4.5,1.17.61,1.85a8.66,8.66,0,0,0,.39,1.22,4.54,4.54,0,0,1,.15,1.32c0,.46-.07.91-.12,1.36,0,.18,0,1.48-.19,1.51l-.21.21a6.53,6.53,0,0,0,.46-1.8.31.31,0,0,1,.46-.26,1.26,1.26,0,0,1,.52,1.15,4.15,4.15,0,0,0,.62,2l-.58.15.13-3.11c0-.4.64-.4.62,0Z"/><path d="M9.81,25.65a9.43,9.43,0,0,1-2.21-1A3.23,3.23,0,0,1,6.82,24,2.82,2.82,0,0,0,6,23.29a3.36,3.36,0,0,1-1.39-1.38,3.13,3.13,0,0,1-.3-1.9c0-.39.64-.22.59.16a2.51,2.51,0,0,0,.35,1.63,3.64,3.64,0,0,0,1.36,1.13c.55.34.84.94,1.4,1.27a8.35,8.35,0,0,0,2,.85.31.31,0,0,1-.17.6Z"/><path d="M7.14,40.56a18.16,18.16,0,0,1,2.64-.26c.44,0,.88,0,1.31,0a1.47,1.47,0,0,1,1,.3c.27.29-.16.72-.44.44a.54.54,0,0,0-.37-.11l-.59,0c-.37,0-.75,0-1.13,0a16,16,0,0,0-2.29.23c-.39.07-.56-.52-.17-.59Z"/><path d="M7,41.13c-.11,0-.3.43-.39.52A1.31,1.31,0,0,1,6,42a4.17,4.17,0,0,0-.85.19c-.31.13-.59.33-.9.47a7.14,7.14,0,0,1-1.84.42A5.54,5.54,0,0,0,.46,44c-.34.21-.65-.33-.31-.53A6.22,6.22,0,0,1,2,42.49,7.65,7.65,0,0,0,4.1,42c.29-.15.56-.32.86-.44a6.59,6.59,0,0,1,.88-.2c.33-.07.41-.24.59-.49A.75.75,0,0,1,7,40.51c.4,0,.4.59,0,.62Z"/><path d="M20.15,41.23a66.55,66.55,0,0,0,7.34.09,5.25,5.25,0,0,1,1.63.1,10.41,10.41,0,0,0,1.65.39c.49,0,1.83-.7,1.67.4,0,.39-.64.22-.59-.16-.1.73-1.83.26-2.22.15a5.58,5.58,0,0,0-1.57-.29c-.53,0-1.07.07-1.6.1-2.1.12-4.22-.07-6.31-.16-.4,0-.4-.64,0-.62Z"/><path d="M16.3,30.78l.21-.06.12,0,0,0h0s0,0,0,0l0,0,.1-.05.2-.12.18-.12h0l0,0,.08-.07a2.08,2.08,0,0,0,.32-.34.31.31,0,0,1,.44.44,3.11,3.11,0,0,1-1.69,1.05.31.31,0,1,1-.16-.59Z"/><path d="M21.05,27.45a4.39,4.39,0,0,0,1.76-.83,4.6,4.6,0,0,1,.89-.5.57.57,0,0,1,.8.3.31.31,0,0,1-.6.17c0,.05.07.06.1.09s0,0,0,0l-.1,0a2.82,2.82,0,0,0-.38.21l-.77.49a4.35,4.35,0,0,1-1.69.67.32.32,0,0,1-.31-.31.33.33,0,0,1,.31-.31Z"/><path d="M28.64,26.08a5.59,5.59,0,0,1,2.45,2.76,8.07,8.07,0,0,0,1.11,2.31,16.7,16.7,0,0,0,1.66,1.48A5.48,5.48,0,0,1,35,34.06a7.51,7.51,0,0,0,1.49,2.1l4.12,3.94A8.38,8.38,0,0,0,43,41.89a2.77,2.77,0,0,1,1.19.86,2.4,2.4,0,0,1,0,3,2.63,2.63,0,0,1-2.93.78,42.11,42.11,0,0,1-4.7-1.86c-.92-.39-1.82-.8-2.72-1.24-.46-.23-1.08-.44-1.32-.94s-.1-1-.43-1.49a10.63,10.63,0,0,0-1-1.1l-2.35-2.44c-.28-.28.16-.72.43-.43l2.21,2.29a6.67,6.67,0,0,1,1.52,1.79c.1.26.06.47.14.72.21.71.53.77,1.13,1.07.78.38,1.58.74,2.38,1.09,1,.43,2,.84,3,1.24s2.13,1.06,3.16.8a1.83,1.83,0,0,0,1.18-2.58c-.45-.89-1.51-1-2.25-1.54a54.29,54.29,0,0,1-4-3.77c-.72-.69-1.5-1.34-2.16-2.08a12.26,12.26,0,0,1-1.14-1.9c-.78-1.28-2.28-1.89-3-3.18-.42-.71-.56-1.54-.94-2.28a5,5,0,0,0-2-2c-.35-.19,0-.73.31-.53Z"/><path d="M23.75,37.14a1.29,1.29,0,0,1,0-.8.31.31,0,0,1,.38-.21.48.48,0,0,1,.35.62,2,2,0,0,1-.49.7,10.5,10.5,0,0,1-1.42,1.33c-.5.4-1,.77-1.56,1.13l-.8.53-.42.28-.17.12-.1.07c-.07.06-.08.05,0,0l-.09-.22,0,0-.22-.09-.21.16.14.35h0c-.34-.21,0-.75.31-.54l0,0a.32.32,0,0,1,.14.35.37.37,0,0,1-.61.18c-.27-.27,0-.57.23-.73.56-.39,1.14-.76,1.7-1.14A20,20,0,0,0,22.58,38q.38-.33.72-.69c.12-.12.23-.24.34-.37l.18-.22.07-.09c0-.11.08-.08.1.08l.38-.21a.75.75,0,0,0,0,.47.31.31,0,0,1-.59.16Z"/><path d="M43.64,43.32a.53.53,0,0,1,.51-.37c.29,0,.44.26.7.3s.27,0,.41,0a1.44,1.44,0,0,1,.4.13l.91.46a6,6,0,0,0,.89.42,7.5,7.5,0,0,0,.95.14,2.77,2.77,0,0,1,1.51.86c.26.3-.17.74-.44.44a2.14,2.14,0,0,0-1.19-.7c-.26,0-.53,0-.8-.09a3,3,0,0,1-.7-.27c-.49-.24-.95-.5-1.44-.73-.23-.1-.44,0-.67-.06a.87.87,0,0,1-.31-.14l-.15-.1c-.09,0-.08-.07,0-.13-.15.36-.74.2-.59-.16Z"/><path d="M16.12,27.81a1.16,1.16,0,0,1-.85-.38,7.73,7.73,0,0,1-.64-.64.31.31,0,0,1,.44-.44,8.21,8.21,0,0,0,.58.6l.14.12h0l.07.05.08,0h0l.05,0h0c.05,0,0,0,0,0h.1a.32.32,0,0,1,.31.31.33.33,0,0,1-.31.31Z"/><path d="M19.52,20.54a.4.4,0,0,1,.46.24.73.73,0,0,1-.09.59,14.46,14.46,0,0,0-.69,1.36c-.38,1.09-.73,2.18-1.09,3.27-.13.37-.72.21-.59-.16l.88-2.67a9.77,9.77,0,0,1,.46-1.24c.09-.17.2-.34.3-.51l.13-.21.07-.15c0-.12.07-.11.13,0l.23,0h0c-.39.06-.55-.54-.16-.6Z"/><path d="M17.35,28.45A5.86,5.86,0,0,0,17,30.69a.31.31,0,0,1-.31.3.32.32,0,0,1-.31-.3,6.28,6.28,0,0,1,.35-2.4.32.32,0,0,1,.38-.22.31.31,0,0,1,.21.38Z"/></g></g></svg>