<svg xmlns="http://www.w3.org/2000/svg" viewBox="0 0 47.95 69.63"><defs><style>.cls-1{fill:#fff;}.cls-2{fill:#adacac;}</style></defs><g id="Layer_2" data-name="Layer 2"><g id="Layer_1-2" data-name="Layer 1"><path class="cls-1" d="M6.74.66a5.11,5.11,0,0,1,3.49,2.8A10.71,10.71,0,0,0,11,5.26a5,5,0,0,0,1.13,1.32,4.17,4.17,0,0,0,.62.47,9,9,0,0,0,.79.46c.58.3,1.16.36,1.81.75a2.49,2.49,0,0,1,.95,1.06,4.17,4.17,0,0,1,.25.67c.1.35-.08,0,.09.23l.08.12q-.12-.16.06,0c-.22-.1.16.08.19.1-.19-.09,0,0,.13,0s.1,0,0,0c.18,0,.2,0,0,0l-.36,2.75a4.22,4.22,0,0,0-2.62-.4,1.51,1.51,0,0,1-1.5-1.5,1.54,1.54,0,0,1,1.5-1.5,7.1,7.1,0,0,1,4.14.81,1.52,1.52,0,0,1-.36,2.74,3.61,3.61,0,0,1-4.07-2.09,2,2,0,0,1-.2-.58c0-.27.2.34.22.15l-1.15-.45a9.32,9.32,0,0,1-1.75-1A8.61,8.61,0,0,1,8.05,6.2,9.74,9.74,0,0,1,7.6,5c0-.13-.07-.3-.12-.42s-.25-.41-.12-.23A2.58,2.58,0,0,0,6,3.55a1.52,1.52,0,0,1-1-1.84,1.51,1.51,0,0,1,1.84-1Z"/><path class="cls-1" d="M10.74,12.51a21.94,21.94,0,0,1,.48,7.13c-.17,1.16-.88,2.3-1,3.45s.38,2.09.37,3.13a25.66,25.66,0,0,1-1.24,6.31,14,14,0,0,0,0,7c.43,1.88-2.47,2.68-2.89.8a17,17,0,0,1-.4-6.94C6.51,31.24,7.39,29.2,7.6,27a13.62,13.62,0,0,0-.27-3.12,7.09,7.09,0,0,1,.59-3.33c.79-2.39.36-4.88-.08-7.29-.34-1.88,2.55-2.69,2.9-.79Z"/><path class="cls-1" d="M8.89,13.05a30.35,30.35,0,0,1-1.43,7.36l-.15-1.16a7.44,7.44,0,0,1,.85,5.34c-.23,1-.89,1.95-.69,3a11.58,11.58,0,0,1,.41,3.1C7.71,32.88,7.14,35,7,37.18a47.91,47.91,0,0,0,0,6.34A73,73,0,0,0,9.19,56.4c.74,3,1.75,6.35,4.74,7.73,1.75.81.23,3.4-1.51,2.59C9.67,65.45,8.12,62.79,7.13,60A58.47,58.47,0,0,1,4.65,49.09,55.25,55.25,0,0,1,4,37.18c.13-2,.48-4,.8-6s-.72-3.66-.14-5.58a7.9,7.9,0,0,0,.67-3c-.08-.93-.81-1.72-.82-2.61a17.81,17.81,0,0,1,.88-3.37,24.22,24.22,0,0,0,.5-3.59c.14-1.92,3.14-1.93,3,0Z"/><path class="cls-1" d="M9.66,17.54c.39,2.3.77,4.6,1,6.93.07.94.12,1.89.1,2.84a18,18,0,0,0-.11,3c.29,1.69,1.5,3.5,2.28,5,.94,1.78,2,3.51,3.07,5.19,4.56,6.92,10.72,12.67,16.42,18.63,2.67,2.79-1.57,7-4.24,4.24-6.06-6.34-12.51-12.48-17.36-19.84A48.61,48.61,0,0,1,5,32.36c-.72-2.22-.15-4.65-.28-6.95a55.62,55.62,0,0,0-.82-6.28A3.09,3.09,0,0,1,6,15.44a3,3,0,0,1,3.69,2.1Z"/><path class="cls-1" d="M9.11,31.06c.47,3.71.64,7.63,1.59,11.26.86,3.32,3.57,6,5.68,8.61q3.87,4.77,7.85,9.47c.83,1,1.69,2.46,2.85,2.6a29.36,29.36,0,0,0,6-.16c4.16-.37,8.42-1.13,12.2,1.16,3.31,2,.29,7.19-3,5.18-2.87-1.73-7-.49-10.15-.26a25.58,25.58,0,0,1-6.6-.12c-2.13-.4-3.55-1.84-4.9-3.42q-4.14-4.87-8.17-9.84c-2.57-3.17-5.56-6.31-7.06-10.17a28.77,28.77,0,0,1-1.33-6.89l-.94-7.42c-.2-1.61,1.52-3,3-3a3.08,3.08,0,0,1,3,3Z"/><path class="cls-1" d="M22.57,65.71,19,65.82l-1.67.05-.95,0c-.64.06-.63,0,0-.13L17.5,64.7c.1-.13-1.53-2.7-1.43-2.8a4.25,4.25,0,0,1,.95-.35A9.24,9.24,0,0,1,19.29,61a10.14,10.14,0,0,1,4.31.43c3.14,1,2.7,5.92-.8,5.89-2.09,0-4.18,0-6.28,0a7.27,7.27,0,0,1-5.4-1.92,13.15,13.15,0,0,1-2.58-4.8c-.69-1.87-1.31-3.78-1.84-5.71A74.16,74.16,0,0,1,4.15,31.25a3.06,3.06,0,0,1,3-3,3,3,0,0,1,3,3A68.32,68.32,0,0,0,12,51.5a41.79,41.79,0,0,0,2.91,9,4.61,4.61,0,0,1,.31.56c.33.39.3.26.13.19a4.67,4.67,0,0,0,1.64.1l5.79,0L22,67.25A4.53,4.53,0,0,0,19.65,67c-.82.15-1.55.6-2.36.78a4.44,4.44,0,0,1-5.54-3.46c-.47-2.8,1.93-4.32,4.4-4.42,2.14-.09,4.28-.13,6.42-.2,3.86-.12,3.86,5.88,0,6Z"/><path d="M8.67,11.44h0l-.17-.1H8.32a.3.3,0,0,0-.22.36l.1.17.05,0,.19.05a.34.34,0,0,0,.15-.06h0a.31.31,0,0,1,0,.1l-.06.13s0,.1,0,0a4,4,0,0,0-.17.49c0,.16-.08.33-.11.49v.05h0s0,.08,0,.13,0,.18,0,.26a.39.39,0,0,1-.38.38.38.38,0,0,1-.37-.38,4.91,4.91,0,0,1,.4-1.78A1.88,1.88,0,0,1,8,11.41a.47.47,0,0,1,.6-.12.43.43,0,0,1,.14.59.4.4,0,0,1-.64.09.38.38,0,0,1,0-.53.37.37,0,0,1,.53,0Z"/><path d="M20.6,66.83a26.86,26.86,0,0,1-7.68-6.39c-1.05-1.26-1.85-2.66-2.78-4s-2.47-2.25-3.25-3.77c-.21-.43.43-.81.65-.38.72,1.41,2.12,2.24,3,3.48s1.79,2.84,2.87,4.14A26.23,26.23,0,0,0,21,66.18c.43.23.05.88-.37.65Z"/><path d="M32,66.6c-1.72-.22-3-1.32-4.26-2.41C26.09,62.82,24.54,61.42,23,60a116.45,116.45,0,0,1-8.59-9.18c-.3-.37.22-.9.53-.53q3.75,4.45,7.91,8.53,2,2,4.15,3.85c1.4,1.23,3,3,4.92,3.22.47.06.47.81,0,.75Z"/><path class="cls-2" d="M5.18,3a19,19,0,0,0-.12,3.1c.16.7.94,1.09,1.45,1.51a3.74,3.74,0,0,1,.85,5.12A15.72,15.72,0,0,0,6.1,15.26a11.28,11.28,0,0,1-.6,1.38c-.27.48-.71.83-1,1.29-.42.69.24,1.81.55,2.48a6.32,6.32,0,0,1,.85,3.16c-.12,1.92-3.12,1.93-3,0A6.3,6.3,0,0,0,2,20.86a6.08,6.08,0,0,1-.61-3.1c.16-1.14,1-1.7,1.52-2.64s.69-1.89,1.19-2.77c.25-.46,1.14-1.4,1-1.94S3.72,9.31,3.29,8.88C1.58,7.17,2.27,5.17,2.18,3c-.09-1.93,2.91-1.93,3,0Z"/><path class="cls-2" d="M5.41,24.18l-.5,4.53A14.31,14.31,0,0,1,4.55,31c-.1.31-.22.62-.31.93a2.09,2.09,0,0,0-.11.43c0-.32,0,.45,0,.2a1.53,1.53,0,0,1-1,1.84,1.52,1.52,0,0,1-1.85-1.05,5.44,5.44,0,0,1,.27-2.65,7.14,7.14,0,0,0,.29-1s.08-.48.05-.22l.06-.56c.17-1.56.35-3.12.52-4.69a1.54,1.54,0,0,1,1.5-1.5c.74,0,1.6.67,1.5,1.5Z"/><path class="cls-2" d="M3.73,33c-.37,2.95-.89,5.78-.49,8.74a15.89,15.89,0,0,1-.16,4.41c-.19,1.35.71,2.3.71,3.64a4.88,4.88,0,0,0-.07.76,2,2,0,0,0,.3.72,3.85,3.85,0,0,1,.18,2,7,7,0,0,0,.43,1.83,11.2,11.2,0,0,1,.27,2.16C5,60.25,6.1,63.1,7,66c.57,1.85-2.33,2.64-2.9.8-.89-2.89-2-5.8-2.17-8.85a11.52,11.52,0,0,0-.18-2,14.44,14.44,0,0,1-.51-2A4.4,4.4,0,0,0,1,52.05a3.47,3.47,0,0,1-.2-1.86C.85,49-.06,47.94,0,46.66a25.53,25.53,0,0,0,.28-4.54,17.53,17.53,0,0,1-.13-4.46c.19-1.55.38-3.1.58-4.64C1,31.13,4,31.1,3.73,33Z"/><path class="cls-2" d="M5.33,29.29a39.59,39.59,0,0,0-.51,4.19c0,1.53.25,3.06.13,4.59a18.74,18.74,0,0,0-.07,4.49c.22,1.58.47,3.16.7,4.73.89,6,1.22,12.3,4.19,17.67.94,1.69-1.65,3.2-2.59,1.51C4.06,60.83,3.62,54.35,2.69,48.09c-.46-3.1-1.2-6.22-.82-9.35a29.59,29.59,0,0,0,0-4.8,36.12,36.12,0,0,1,.5-4.65c.17-1.91,3.17-1.92,3,0Z"/><path class="cls-2" d="M4.3,44.87c.58,3.48,1.24,7,1.91,10.42.34,1.71.67,3.41,1,5.12s.41,3.53,1.37,4.9C9.69,66.9,7.09,68.4,6,66.82A12.26,12.26,0,0,1,4.48,62L3.4,56.48c-.7-3.6-1.39-7.2-2-10.81C1.09,43.78,4,43,4.3,44.87Z"/><path class="cls-2" d="M3,50.06a4.19,4.19,0,0,1,.69,1,7.22,7.22,0,0,1,.29.72c0,.14.06.28.11.41L4,51.82l0,.08-.23-.3.06.06-.3-.23a2.17,2.17,0,0,0,.33.19l.39.21a1.06,1.06,0,0,1,.42.39,1.14,1.14,0,0,1,.27.51,1.22,1.22,0,0,1,0,.6,1.09,1.09,0,0,1-.18.55,1.49,1.49,0,0,1-.9.69,1.59,1.59,0,0,1-1.15-.15l-.46-.24-.22-.12-.35-.27a1.92,1.92,0,0,1-.18-.22,1.38,1.38,0,0,1-.16-.23,3.79,3.79,0,0,1-.18-.42,1.77,1.77,0,0,1,0-.2A3.12,3.12,0,0,0,1,52.29l.15.35A2.72,2.72,0,0,0,.79,52l.24.31c0-.06-.09-.11-.13-.16a1.54,1.54,0,0,1-.44-1.06,1.08,1.08,0,0,1,.13-.58,1.14,1.14,0,0,1,.31-.48A1.5,1.5,0,0,1,2,49.62,1.56,1.56,0,0,1,3,50.06Z"/><path class="cls-2" d="M7.85,65.15c0,.15,0,.3,0,.45s0,.15,0,.23a1,1,0,0,0-.31-.71l-.67-.38H6.14c-.46.3-.6.37-.43.23a1.33,1.33,0,0,1,.19-.14,1.15,1.15,0,0,1,.29-.2,2.48,2.48,0,0,1,1-.27,5.53,5.53,0,0,1,.91,0c.22,0-.08,0-.13,0a1.52,1.52,0,0,1,.28-.09A2.54,2.54,0,0,1,9,64.18a1.75,1.75,0,0,1,1.12.38,2,2,0,0,1,.27.22c.25.27.06,0-.39-.15H9.25l-.9,2.2-.11-.19c-.14-.23.13.13,0,0s-.19-.22-.3-.32-.42-.45-.61-.69A11.41,11.41,0,0,1,6.1,63.85a10.94,10.94,0,0,1-1.27-3.76A1.67,1.67,0,0,1,5,58.93a1.5,1.5,0,0,1,.89-.69,1.53,1.53,0,0,1,1.85,1A9.41,9.41,0,0,0,8.12,61c.05.15.1.3.16.45a1,1,0,0,1,.08.2c0-.06-.12-.25,0-.06s.26.55.41.82.3.49.46.73l.12.18,0,.06c-.15-.17.05.07.08.1a2.09,2.09,0,0,0,.14.17,10.61,10.61,0,0,1,1.35,1.64,1.51,1.51,0,0,1-.89,2.2,1.79,1.79,0,0,1-1.67-.45c-.06-.07-.14-.14-.19-.21,1.08.1,1.4.21,1,.32L9,67.24a4.47,4.47,0,0,1-1.59.11c-.16,0-.11,0,.15,0-.12,0-.11,0,0,0a.68.68,0,0,0,.27-.18,2.2,2.2,0,0,1-.37.3,1.67,1.67,0,0,1-1.71,0,2.34,2.34,0,0,1-.87-2.33,1.5,1.5,0,1,1,3,0Z"/><path class="cls-2" d="M8.33,16.11a24.83,24.83,0,0,1,.73,5.44,33.91,33.91,0,0,1,.21,5.87C9.1,29.35,8.19,31,7.83,32.84a16.1,16.1,0,0,0,.47,6.21c.19.94-1.25,1.34-1.45.4a21.94,21.94,0,0,1-.65-5.58c.12-1.94,1.07-3.56,1.43-5.43a22.32,22.32,0,0,0,0-6,27.59,27.59,0,0,0-.74-5.94c-.29-.92,1.16-1.32,1.44-.39Z"/><path class="cls-2" d="M5.89,1.85c0,.13.07.26.11.39s-.07-.15,0,.09.22.43.34.64c.25.44.54.86.81,1.28L9,7c.27.42.53.83.81,1.25a7,7,0,0,0,.76,1,4,4,0,0,0,.52.49c-.15-.11.08.05.14.09l.27.15s.33.13.13.07l.3.08c.09,0,.21,0,.05,0h.46a1.5,1.5,0,0,1,1.5,1.5,1.54,1.54,0,0,1-1.5,1.5C9.7,13.34,8,11,6.7,9l-2-3.07A11.3,11.3,0,0,1,3,2.65a1.5,1.5,0,0,1,2.89-.8Z"/><path d="M2.53,6.32c.67.32.76,1,.91,1.64s.46.78,1.08.92a1.9,1.9,0,0,1,.9.41A2.05,2.05,0,0,1,6.12,11c-.07.77-.71,1.05-1.12,1.64-.86,1.25-1.15,2.81-2.08,4-.2.28-.5.47-.71.74s-.09.12-.12.39a4.57,4.57,0,0,0,.16,1.1,22.43,22.43,0,0,0,.9,3.52c.16.46-.57.65-.72.2a22.11,22.11,0,0,1-.85-3.22c-.11-.55-.47-1.7-.21-2.22.13-.27.51-.45.71-.66a4.7,4.7,0,0,0,.68-1c.34-.62.6-1.29.89-2a7.76,7.76,0,0,1,1-1.72c.18-.21.48-.4.63-.61a1.17,1.17,0,0,0-.35-1.43c-.55-.45-1.36-.2-1.84-.8S2.86,7.31,2.15,7c-.43-.21,0-.86.38-.65Z"/><path d="M3.19,22.53a34.62,34.62,0,0,1-.48,5.57C2.29,30,1.46,31.76,1.35,33.69a84.2,84.2,0,0,0-.17,13.19c0,.48-.71.47-.75,0A84.2,84.2,0,0,1,.6,33.69a24.22,24.22,0,0,1,1.19-5,30,30,0,0,0,.65-6.13c0-.48.78-.49.75,0Z"/><path d="M2,6.37a7.75,7.75,0,0,0,.55-1.21,2.45,2.45,0,0,0-.26-1.32,2.48,2.48,0,0,1,.38-2.22A4,4,0,0,1,4.46.24,6.2,6.2,0,0,1,7,0,4.71,4.71,0,0,1,8.25.3a1.84,1.84,0,0,1,.92.47c.09.11.08.28.15.39s.21.16.28.22a7.3,7.3,0,0,1,.79,1,10.86,10.86,0,0,1,1.29,2.24A8,8,0,0,0,12.3,5.9a3.62,3.62,0,0,1,.53,1,.38.38,0,0,1-.73.2,3.61,3.61,0,0,0-.53-1,9.27,9.27,0,0,1-.45-.89,10.46,10.46,0,0,0-1-2c-.25-.36-.5-.73-.77-1.08s-.48-.39-.63-.64c0-.08-.06-.28-.1-.32S8.17,1.06,8.05,1A4.27,4.27,0,0,0,6.78.77,5,5,0,0,0,4.56,1,2.92,2.92,0,0,0,3,2.73c-.15.78.41,1.4.39,2.15a4.93,4.93,0,0,1-.69,1.87c-.2.44-.84.06-.65-.38Z"/><path d="M12.8,6.68c0,.63,1,.92,1.48,1.14a4.76,4.76,0,0,1,1.3.82c.45.42.73,1,1.39,1.12a4.67,4.67,0,0,1,1.37.3c.47.22,1.57.86,1.3,1.52-.16.37-.74.69-1,1a1.78,1.78,0,0,1-1.05.56,32.71,32.71,0,0,1-3.83-.16c-.34,0-.68,0-1,0a2.81,2.81,0,0,0-.64.05.26.26,0,0,0-.18.4c-.1.55,0,1.18-.06,1.75,0,.16-.22.71-.16.84s.33.16.54.26a.82.82,0,0,1,.49.66c.06.5-.29.85-.52,1.26a3,3,0,0,0-.3,2c.1.47-.63.67-.72.2a4,4,0,0,1,0-1.5,3.64,3.64,0,0,1,.22-.71c.11-.26.33-.5.42-.75.25-.68-.27-.44-.62-.74s-.22-.75-.15-1.15a8.54,8.54,0,0,0,.14-2.14c0-.35-.07-.67.22-.92a2.59,2.59,0,0,1,1.6-.28c.65,0,1.29.05,1.94.08l1.94.08a1.62,1.62,0,0,0,1.06-.16c.26-.16.48-.44.73-.63s.21-.27-.14-.52a2.87,2.87,0,0,0-.62-.34c-.47-.17-1-.07-1.43-.25A3.89,3.89,0,0,1,15.2,9.33a4.28,4.28,0,0,0-1.29-.86c-.81-.39-1.8-.76-1.86-1.79,0-.48.73-.48.75,0Z"/><path d="M11.83,20.07c.38,4.1-1.07,8.11-2.18,12a.38.38,0,0,1-.73-.2c1.1-3.81,2.54-7.76,2.16-11.79,0-.48.71-.47.75,0Z"/><path d="M6.63,32.74c2.31-5.23.52-11,.08-16.42,0-.48.71-.48.75,0,.45,5.59,2.21,11.4-.18,16.8-.19.44-.84.05-.65-.38Z"/><path d="M1.15,46.92c0,.32,0,.64,0,1a.37.37,0,0,1-.11.27.41.41,0,0,1-.26.11.44.44,0,0,1-.27-.11.44.44,0,0,1-.11-.27c0-.32,0-.64,0-1a.38.38,0,0,1,.37-.38.39.39,0,0,1,.38.38Z"/><path d="M1.16,47.8A15.25,15.25,0,0,0,2,53.53,10.72,10.72,0,0,1,2.46,56,18.46,18.46,0,0,1,3,58.29c0,.38,0,.77,0,1.16a5.28,5.28,0,0,0,.35,1.31c.24.8,0,1.64.31,2.42.24.62.7,1.13.89,1.78s-.11,1.77.55,2.34c.36.31-.17.84-.53.53A2,2,0,0,1,4,66.37,4.28,4.28,0,0,0,3.75,65a9.78,9.78,0,0,0-.57-1.06,4.22,4.22,0,0,1-.43-2.1c0-.88-.48-1.62-.49-2.51a8.28,8.28,0,0,0-.09-1.57c-.1-.46-.28-.9-.39-1.36a18,18,0,0,0-.59-2.81A15.92,15.92,0,0,1,.41,47.8a.38.38,0,0,1,.75,0Z"/><path d="M4.82,67.18c7.07-.71,14.18-.74,21.28-.8l21.47-.17-.26.64C44.73,64.49,41,64.28,37.93,63a29.84,29.84,0,0,1-5-2.8A15.19,15.19,0,0,1,29.16,57c-1-1.31-1.69-2.83-2.6-4.21a51.78,51.78,0,0,0-3.82-4.82c-1.35-1.59-2.66-3.66-4.34-4.9a10.57,10.57,0,0,1-3.28-3.14c-.25-.41.4-.79.65-.38,1,1.74,2.72,2.39,4,3.8s2.53,3,3.78,4.47A52.74,52.74,0,0,1,27,52c1,1.46,1.72,3.09,2.79,4.49a16.75,16.75,0,0,0,4.64,3.76,24,24,0,0,0,5.19,2.54c2.87,1,5.94,1.42,8.25,3.53a.38.38,0,0,1-.27.64l-21.47.17c-7.1.06-14.21.09-21.28.8-.48,0-.48-.7,0-.75Z"/><path d="M15.16,39.79A20.93,20.93,0,0,0,13.53,37a24.89,24.89,0,0,1-1.31-2.76,7.3,7.3,0,0,1-.45-1.58,10.06,10.06,0,0,0-.24-1.44A20.91,20.91,0,0,0,10,28.17c-.22-.43.42-.81.65-.38.49.95,1.06,1.89,1.46,2.88s.37,2.16.76,3.2A21.2,21.2,0,0,0,14.38,37a14.38,14.38,0,0,1,1.5,2.57c.17.45-.56.65-.72.2Z"/><path d="M3.42,1.83c0,.37.38.51.62.71a2.44,2.44,0,0,1,.49.62c.13.22.22.46.36.68s.39.43.55.68.13.62.29.9.36.4.52.61a5.29,5.29,0,0,1,.69,1.51A3.15,3.15,0,0,0,7.93,9a4,4,0,0,1,.9,1.35,2.45,2.45,0,0,0,1.32,1.43,15.78,15.78,0,0,0,2,.56A.37.37,0,0,1,12,13c-1.27-.33-2.74-.51-3.48-1.75a6.92,6.92,0,0,0-1-1.72A3.93,3.93,0,0,1,6.39,8.18a6.81,6.81,0,0,0-.83-1.82A3.69,3.69,0,0,1,5,5.66a3.38,3.38,0,0,1-.13-.42,1.45,1.45,0,0,0-.31-.57C4.2,4.21,4,3.59,3.63,3.18s-1-.63-1-1.35c.05-.47.8-.48.75,0Z"/><path d="M9.58,32.35a3.69,3.69,0,0,0-.67,2.23A10.42,10.42,0,0,0,9.12,37c.09.47-.63.67-.72.2-.34-1.72-.56-3.94.65-5.39.31-.37.84.16.53.53Z"/><path d="M7.25,33.14C6.38,34.41,6.76,36,7,37.38c.21,1.07.31,2.58,1.35,3.2l-.52.52a7.85,7.85,0,0,1-.6-2.33c0-.48.71-.48.75,0a6.91,6.91,0,0,0,.5,1.95c.14.32-.16.72-.51.51-1.26-.75-1.44-2.34-1.69-3.65C6,36,5.61,34.2,6.6,32.76c.27-.4.92,0,.65.38Z"/><path d="M7.89,38.58a2.69,2.69,0,0,0,.16.62c0,.06,0,0,0,0l0,.07.07.14.17.28a1.27,1.27,0,0,0,.16.2c.07.07.14.15.22.22l.11.1,0,0,.07,0a2.61,2.61,0,0,0,.28.17H8.82a.24.24,0,0,0-.1.26c.06.08.06.1,0,.05s0,0,0,0l-.1-.09a.88.88,0,0,1-.22-.25,2.76,2.76,0,0,1-.24-.7A4,4,0,0,1,8,38.2a.39.39,0,0,1,.38-.38.38.38,0,0,1,.37.38,3.5,3.5,0,0,0,.16,1.32c0,.11.06.22.1.33a.79.79,0,0,0,.09.23s0,0,0,0l.06,0,0,0a.65.65,0,0,1,.27.34.49.49,0,0,1-.37.65c-.21,0-.45-.16-.61-.28A3.35,3.35,0,0,1,7.62,40a3.3,3.3,0,0,1-.46-1.21.38.38,0,0,1,.73-.2Z"/><path d="M8.58,38.4a5,5,0,0,0,.58,1l.08.12,0,.06h0c.06.07.12.15.19.22l.09.1.06,0s.06,0,0,0,.1.06.06,0h0l-.38.38s0-.08,0,0h0v0s0-.08,0,0,0,0,0,0l-.22-.2a1.93,1.93,0,0,1-.41-.53,2.14,2.14,0,0,1-.24-1.38A.38.38,0,0,1,8.94,38a.4.4,0,0,1,.26.47c0-.06,0,0,0,0v.07a.38.38,0,0,0,0,.15v.07s0,0,0,0l0,.15s0,.1,0,.14l0,.07c0,.07,0,0,0,0a2.2,2.2,0,0,0,.15.26l0,0c.06.08,0,0,0,0l.1.11a1.9,1.9,0,0,0,.21.19.82.82,0,0,1,.32.67.36.36,0,0,1-.37.37c-.53,0-.86-.49-1.16-.88a6.32,6.32,0,0,1-.66-1.16.38.38,0,0,1,.65-.38Z"/><path d="M9.06,38.43a4.54,4.54,0,0,0,.39.48l.24.24.1.09s0,0,0,0a.12.12,0,0,0-.1,0l-.27.36c0-.26-.07-.52-.11-.78a1.11,1.11,0,0,0-.21-.59c-.27-.4-.68-.79-.62-1.35a.38.38,0,0,1,.75,0,.79.79,0,0,0,.22.58,4.38,4.38,0,0,1,.39.54,1.93,1.93,0,0,1,.21.77l.12.83a.4.4,0,0,1-.28.37c-.37.1-.66-.17-.9-.42a4.37,4.37,0,0,1-.61-.74.38.38,0,0,1,.13-.51.39.39,0,0,1,.52.14Z"/><path d="M4.52,53.61a46.69,46.69,0,0,0,3.31,8.32,7,7,0,0,0,2.49,2.68c.79.49,1.65,1.07,1.63,2.1a.38.38,0,0,1-.75,0c0-1-1.56-1.56-2.24-2.13A8.56,8.56,0,0,1,6.9,61.77a55.35,55.35,0,0,1-3.1-8c-.15-.46.58-.65.72-.2Z"/></g></g></svg>