<svg xmlns="http://www.w3.org/2000/svg" viewBox="0 0 39.02 40.93"><defs><style>.cls-1{fill:#060606;}.cls-2{fill:#a9a8a8;}.cls-3{fill:#fdfdfd;}</style></defs><g id="Layer_2" data-name="Layer 2"><g id="Layer_1-2" data-name="Layer 1"><path class="cls-1" d="M20.24,37.47s0,0,0,0a7.44,7.44,0,0,1-.58-.68c-.55-.77-1.11-1.54-1.61-2.35-.07-.11-.06-.11-.17,0-.32.29-.64.58-1,.86-.08.07-.06.1,0,.15a9.36,9.36,0,0,1,1.35,1l.17.16c-.05,0-.09,0-.13,0a10.42,10.42,0,0,1-1.74-.86.12.12,0,0,0-.17,0l-.45.36c-.09.07-.09.1,0,.18l.11.09a0,0,0,0,1,0,0h0c-.06-.08-.17-.1-.25-.16s-.05,0-.07,0a6.07,6.07,0,0,1-.79.6,2.56,2.56,0,0,1,.48.22.34.34,0,0,0-.25,0,1.78,1.78,0,0,1-.79.2c-.3,0-.6,0-.91,0a.7.7,0,0,1-.46-.14s-.06,0-.09,0a.68.68,0,0,1-.21.1.07.07,0,0,1-.08-.11.87.87,0,0,1,.2-.23c.52-.46,1.07-.89,1.6-1.34.18-.15.18-.15,0-.29s-.66-.47-1-.73a.19.19,0,0,0-.16,0h-.6a.22.22,0,0,0-.17.07c-1,.85-2.08,1.64-3.11,2.47a3.54,3.54,0,0,1-.64.39l-.07,0a1.24,1.24,0,0,1-1.09-.28.13.13,0,0,0-.1,0c-.07,0-.09,0-.07-.1a.56.56,0,0,1,.16-.24,11.36,11.36,0,0,1,1.2-1L12,33.32s.11-.06,0-.13c-.56-.6-1.06-1.25-1.59-1.87a.15.15,0,0,0-.21-.05,1.51,1.51,0,0,1-.73.09A.89.89,0,0,1,8.92,31c-.16-.19-.16-.19-.3,0l-.78,1.07a.3.3,0,0,0-.07.24,3.47,3.47,0,0,1-.14,1.5,1.29,1.29,0,0,1-.36.56,1,1,0,0,0-.19.22,1.11,1.11,0,0,0,0-.26,1.94,1.94,0,0,1,.1-.79,1.79,1.79,0,0,0,.11-.69s-.06,0-.08.06q-2.81,3.83-5.6,7.64a.54.54,0,0,1-.37.23c-.4.08-.82.08-1.22.15H0v-.55c.06,0,.08-.08.12-.13l4.37-5.71c.37-.49.73-1,1.07-1.48.51-.75,1.1-1.45,1.66-2.17a.4.4,0,0,0,.1-.28c0-.26,0-.51,0-.77s.06-.28,0-.39-.22-.15-.33-.22a6.92,6.92,0,0,1-1.16-1.07l-.5-.55c-.13-.15-.23-.33-.36-.48A9.72,9.72,0,0,1,3.5,24.86a12.1,12.1,0,0,1-.93-3.44,17.17,17.17,0,0,1-.16-2.49,5.81,5.81,0,0,1,.14-1.11,10.43,10.43,0,0,1,.73-2.32,7.39,7.39,0,0,1,2-2.67,1.57,1.57,0,0,0,.24-.21A10.13,10.13,0,0,1,8.05,11a6,6,0,0,1,2.35-.56,1,1,0,0,0,.6-.21,27.24,27.24,0,0,1,2.29-1.49A14.12,14.12,0,0,0,15.74,7c.17-.14.36-.27.54-.39a2.48,2.48,0,0,0,.52-.45,2.35,2.35,0,0,1,.26-.29,5.66,5.66,0,0,0,.82-1.06.34.34,0,0,0,.05-.14c0-.12,0-.25.07-.38a.76.76,0,0,1,.63-.56.3.3,0,0,1,.19,0c.08.06.11,0,.15,0a8,8,0,0,1,.8-1.13A6.85,6.85,0,0,1,23.33.25,7.5,7.5,0,0,1,27.4.32,11,11,0,0,1,30.87,2a17.32,17.32,0,0,1,4.35,4.64,23.18,23.18,0,0,1,3.64,10,18.11,18.11,0,0,1-.21,6,11.43,11.43,0,0,1-1.71,4.14,7.43,7.43,0,0,1-3.15,2.7,6.71,6.71,0,0,1-3.34.56.28.28,0,0,0-.25.09c-.4.4-.76.84-1.17,1.23-.06.05,0,.09,0,.13l.62.79c1,1.24,1.91,2.52,2.81,3.82a.92.92,0,0,1,.16.29l.11.33c-.07,0-.11,0-.17,0a1.75,1.75,0,0,1-.37-.35c-.21-.28-.43-.56-.63-.84-.73-1-1.39-2-2.18-2.94-.22-.25-.41-.52-.62-.79-.05-.06-.08-.07-.13,0a1.21,1.21,0,0,1-.16.16c-.07.05-.07.1,0,.17l1,1.29c.41.56.8,1.15,1.26,1.68a8.73,8.73,0,0,1,.86,1.14,1,1,0,0,1,.16.36c0,.1,0,.11-.1.09a.65.65,0,0,1-.3-.18,11.56,11.56,0,0,1-1.2-1.42c-.5-.72-1-1.43-1.54-2.12-.13-.17-.14-.17-.35-.08l.15.2c.12.15.2.34.39.43a.12.12,0,0,1,.07.12.42.42,0,0,0,.11.22l1.43,1.83a7.64,7.64,0,0,1,.74,1.05c0,.07.06.14.16.07a.2.2,0,0,1,.13,0l.83.13.13,0a.66.66,0,0,1,.22.15.77.77,0,0,1-.33.12,2.71,2.71,0,0,1-.8-.07.48.48,0,0,0-.29,0c-.08,0-.16,0-.23-.1a3.22,3.22,0,0,1-.39-.43c-.56-.74-1.05-1.52-1.62-2.25L28.62,34a.19.19,0,0,0-.17-.08L26.61,34c-.12,0-.13,0-.08.13l.79,1.43a2.93,2.93,0,0,1,.29,1l-.07-.07a.2.2,0,0,0-.09-.09v.14l-.05.05s0,0,0,0l-.2,0s0,0,0,0l-.48-.08s0,0,0,0a.09.09,0,0,0,0,.07s0,.06,0,0a1.23,1.23,0,0,1-.29-.31c-.21-.39-.45-.77-.68-1.16,0,0-.06,0-.1,0-.56.65-1.18,1.24-1.76,1.87-.26.27-.52.53-.77.8a.46.46,0,0,1-.21.13c-.09,0-.18,0-.23,0a.1.1,0,0,0-.14,0,.94.94,0,0,1-.44.06l-.83-.06a.79.79,0,0,1-.34-.1.19.19,0,0,1-.11-.26c0-.11,0-.25.12-.34s.13-.16.2-.23.05-.09,0-.14c-.67-.75-1.31-1.52-1.9-2.32a.19.19,0,0,0-.2-.1l-.35,0c-.09,0-.09,0-.05.1.41.65.8,1.3,1.21,2a5.9,5.9,0,0,1,.53,1s0,.06,0,.09ZM31.48,3.16l0,0a.16.16,0,0,0-.07-.07,6.14,6.14,0,0,0-.71-.55,10.88,10.88,0,0,0-2.6-1.45A7.92,7.92,0,0,0,25,.49,6.45,6.45,0,0,0,20.35,2.7a9.15,9.15,0,0,0-1.82,3.12A14.69,14.69,0,0,0,17.72,10a19.16,19.16,0,0,0,.09,3.3,20.49,20.49,0,0,0,.69,3.47,23.74,23.74,0,0,0,1.07,3,20.87,20.87,0,0,0,3.78,5.89,17.54,17.54,0,0,0,1.73,1.61,7.29,7.29,0,0,1,.81.66,2.7,2.7,0,0,0,.66.38c.59.32,1.2.6,1.81.87a9.25,9.25,0,0,0,1.14.33,5.55,5.55,0,0,0,1.94.22,7,7,0,0,0,.8-.13c.13,0,.22-.13.34-.16A5.89,5.89,0,0,0,33.65,29a7.46,7.46,0,0,0,1.78-1.21,8.89,8.89,0,0,0,2.14-3.27s0-.07,0-.11h0l-.06.12a8.89,8.89,0,0,1-1.36,2,6.7,6.7,0,0,1-4.2,2.23c-.08,0-.16.05-.24,0a.9.9,0,0,0-.46,0,7.36,7.36,0,0,1-1,0,7.73,7.73,0,0,1-1.7-.38,11.38,11.38,0,0,1-3.5-2,16.24,16.24,0,0,1-3.35-3.72,20.86,20.86,0,0,1-3.24-8.4,17,17,0,0,1,0-5.38,10.84,10.84,0,0,1,1.48-4.08.35.35,0,0,0,.05-.13A.76.76,0,0,1,20,4.45a7.14,7.14,0,0,1,.71-.93,6.78,6.78,0,0,1,3.32-2.13,7.21,7.21,0,0,1,4.24.13,10.92,10.92,0,0,1,3,1.55s.07.06.11.06l0,0h0ZM20.68,24.85s0,0,0,0a1.57,1.57,0,0,0-.32-.41l-.14-.18-.45-.5a6.9,6.9,0,0,1-.54-.79s-.05-.06,0-.1.05,0,.08,0,.13,0,.13-.12a.83.83,0,0,1,.27-.5c0,.15,0,.28-.07.42s0,.16.14.18.14,0,.16-.11a.5.5,0,0,1,.13-.19.41.41,0,0,1,.07.32c0,.2-.05.22-.27.21a1.82,1.82,0,0,0-.41,0,5.75,5.75,0,0,0,.54.73c.69.75,1.28,1.58,2,2.32a1.7,1.7,0,0,0,.82.51.72.72,0,0,1,.45.26,3.22,3.22,0,0,0,.32.32,3.64,3.64,0,0,1-.74-.06s0,0,.05.06a6.4,6.4,0,0,1,1.09,1.34c0,.06.08.05.14.05l1.58-.2s.06,0,.08,0-.13-.13-.22-.13a.09.09,0,0,1-.09-.06c0-.17-.18-.21-.3-.28a8,8,0,0,1-1.58-1.21,17.22,17.22,0,0,1-1.31-1.39c-.19-.23-.39-.45-.56-.7-.53-.81-1.07-1.61-1.56-2.45A14.25,14.25,0,0,1,19,20c0-.09-.07-.18-.11-.27s0-.07-.09,0-.05,0,0,.1a4.13,4.13,0,0,1,.21.84.06.06,0,0,0,0,.08v.06a.33.33,0,0,0,0,.17v.48a.31.31,0,0,0,0,.19v.09a.17.17,0,0,0,0,.14v.09a.37.37,0,0,0,0,.18v.14a.53.53,0,0,0,0,.28v.13a.31.31,0,0,0,0,.19v.11a.31.31,0,0,0,0,.19s0,.08,0,.11a.05.05,0,0,0,.05,0h0a0,0,0,0,0,.05,0l.08.07a.34.34,0,0,0,.12.12,3.15,3.15,0,0,0,.37.36.13.13,0,0,0,.09.09l.11.1a.49.49,0,0,0,.17.15l.22.21a4,4,0,0,0,.42.41s0,0,0,0,0,0,0,0Zm-18,13.47h0s0,0,0-.07l0,0s0,0,0-.06h0a6.36,6.36,0,0,0,.46-.57,6.54,6.54,0,0,1,.63-.86,5.17,5.17,0,0,0,.65-.83,12.55,12.55,0,0,1,1.25-1.65,6.48,6.48,0,0,0,.66-.81,2.6,2.6,0,0,1,.62-.74.47.47,0,0,0,.22-.56.74.74,0,0,1,.18-.39s0-.08,0-.08l-.16-.05s-.11,0-.12.05-.06.12-.11.18c-.26.32-.53.63-.78,1s-.56.73-.88,1.07a3.31,3.31,0,0,0-.41.5c-.27.37-.52.75-.79,1.13-.14.2-.3.39-.46.58A11.13,11.13,0,0,0,3,37a12.41,12.41,0,0,1-1.58,2,.38.38,0,0,0-.13.18,1.54,1.54,0,0,1-.17.31,2.35,2.35,0,0,1-.53.64c-.14.12-.16.14-.09.31s.08.12.15,0a.59.59,0,0,1,.4-.15.32.32,0,0,0,.26-.15,3.78,3.78,0,0,0,.26-.43A2.13,2.13,0,0,1,2,39.21a1.11,1.11,0,0,0,.26-.27,2,2,0,0,0,.32-.44h0s.07,0,.06-.09l0,0S2.66,38.35,2.66,38.32Zm24-2.93s0,0,0,0l.19.4a.54.54,0,0,1,.05.28c0,.08,0,.08-.09,0a.57.57,0,0,1-.21-.25L26,34.72s0-.09-.08-.06-.08.05-.07.1a.13.13,0,0,0,0,.08c.24.44.47.89.68,1.35,0,.05,0,.06.1.07a5.06,5.06,0,0,1,.77.05,2.58,2.58,0,0,1-.49-.6.05.05,0,0,0,0-.06l-.08-.13s0,0,0-.05l0,0a.15.15,0,0,0-.06-.11l-.5-.92s0,0,0,0c.15.3.29.6.47.89C26.6,35.34,26.61,35.38,26.64,35.39Zm-9.47-4.67h0a.48.48,0,0,0,.09.19,3,3,0,0,0,.19.3c.3.51.62,1,.93,1.54,0,0,0,.1.09.09.23,0,.45,0,.68,0l0,0-.35-.33c-.49-.52-1-1.05-1.49-1.56A.56.56,0,0,0,17.17,30.72Zm.61,2.5a.09.09,0,0,0,0,.06c.11.23.25.44.38.66a.05.05,0,0,0,.06,0,2.58,2.58,0,0,0,.48,0s0-.06,0-.09a5.91,5.91,0,0,1-.35-.52.28.28,0,0,0-.34-.16h-.24A0,0,0,0,0,17.78,33.22ZM9.93,30s0,0,.05,0h0a.11.11,0,0,0,.07.08,0,0,0,0,0,0,0,.23.23,0,0,1-.06.29s0,.07,0,.1.05.05.08.06a.21.21,0,0,1,.17-.27,3.45,3.45,0,0,1,.54-.11L13,29.89a.76.76,0,0,0,.3-.05h.1a.13.13,0,0,0,.12,0h.09a.11.11,0,0,0,.11,0h.07a.17.17,0,0,0,.12,0H14a.08.08,0,0,0,.09,0h.07a.13.13,0,0,0,.12,0h.06a.17.17,0,0,0,.14,0h.07a.13.13,0,0,0,.12,0h.06a.13.13,0,0,0,.12,0H15a.08.08,0,0,0,.09,0h.09a.11.11,0,0,0,.1,0h.08a.12.12,0,0,0,.12,0h.07a.11.11,0,0,0,.12,0h.06a.13.13,0,0,0,.12,0h.09s.09,0,.11,0,0,0,0-.05l0-.05a.1.1,0,0,0-.07-.07l-.26-.27s0-.05,0-.05l-.23-.25a.08.08,0,0,0-.07-.07Q14.6,28,14,27.35a.21.21,0,0,0-.16-.07,2.92,2.92,0,0,1-.51,0c-.52-.08-1-.22-1.57-.3a.18.18,0,0,0-.2.08c-.17.24-.34.47-.52.7L9.88,29.28c-.06.07-.06.11,0,.15a1.73,1.73,0,0,1,.28.19,1.58,1.58,0,0,0,.29.22.86.86,0,0,1-.54.08,3.18,3.18,0,0,1-.37-.14s-.06,0-.07,0,0,0,0,.05l.39.12Zm18,1.36s0,.06,0,.09a.5.5,0,0,1,.08.12c0,.06.09.07.14,0a1.7,1.7,0,0,1,.19-.19s0,0,0-.07-.1-.18-.18-.21-.09.08-.13.12-.07.05-.08.1ZM9.81,28.51a6.17,6.17,0,0,0-.48.54s0,.05,0,.07.06,0,.09,0c.13-.2.27-.39.41-.59,0,0,0,0,0,0Zm17.91,2.3c.07,0,.08-.07.12-.11s0-.06,0-.1a2.43,2.43,0,0,0-.14-.2,0,0,0,0,0-.08,0c-.05.06-.12.09-.14.17s-.13.07-.06.18l.09.12c.09.12.1.12.18,0Zm.14-1.37-.62-.27v0l.37.46.08.09s0,.05.07,0l.3-.24Zm-3.79.92a2.84,2.84,0,0,0,.28.51,4.9,4.9,0,0,0-.24-.52.42.42,0,0,0-.07-.13v0l-.38-.92c0,.08-.15.1-.09.2C23.74,29.76,23.88,30.07,24.07,30.36Zm-7.66.28c0,.16,0,.16.15.06l.14-.12c.12-.1.12-.1,0-.25a.13.13,0,0,0,0-.06c-.06-.14-.11-.15-.22-.05l-.37.31-.18.15c.14,0,.27.06.39,0S16.38,30.64,16.41,30.64Zm-8-.4s.06-.1.12,0,0,0,.07,0a.41.41,0,0,0,.05-.09s0,0-.07-.05-.15.09-.2.16l-.5.61a.6.6,0,0,0-.09.46l.54-.74C8.41,30.47,8.48,30.38,8.41,30.24ZM26,28.8s0,0,0,0,0,0,0,0c.38.46.76.91,1.12,1.39.07.09.11,0,.15,0a.75.75,0,0,0,.17-.14.07.07,0,0,0,0-.11l-.8-1.1a.26.26,0,0,0-.21-.12,1.34,1.34,0,0,0-.35.05A.22.22,0,0,0,26,28.8Zm1.95,4.26a.35.35,0,0,0-.08-.13.19.19,0,0,0-.31,0l-.14.16-.4.42a1,1,0,0,0,.24,0l.87,0c.07,0,.09,0,0-.09S28,33.15,27.91,33.06ZM15.53,35.8c.12.17.12.17.27,0l.23-.22c.19-.17.19-.17-.05-.27l-.43-.29a.06.06,0,0,0-.09,0l-.31.28s-.05,0,0,.08Zm.78-.8c0,.07.09.07.13.11s.12.06.19,0,.38-.33.57-.48l.32-.26v0l-.67,0-.56,0a.12.12,0,0,0-.09,0l-.27.23s-.06.05,0,.07A2.63,2.63,0,0,0,16.31,35Zm3.17-1.86a.72.72,0,0,0-.41,0,2,2,0,0,0-.35,0c-.07,0-.07,0,0,.08l.46.66a.1.1,0,0,0,.1.06l.89,0s.05,0,.06,0a.09.09,0,0,0,0,0Zm-5,3.63.35,0s.06,0,.08-.06a3.43,3.43,0,0,1,.49-.52c.19-.17.19-.17,0-.3l-.42-.26c-.05,0-.08,0-.12,0l-1.32,1.11s-.05,0,0,0h.22a.36.36,0,0,0,.23,0A2.73,2.73,0,0,0,14.45,36.77Zm8.18-7.23a.15.15,0,0,0,.13,0,1.81,1.81,0,0,0,.33-.29s.1,0,.11-.1l-1,.12a.05.05,0,0,0-.06,0,1.32,1.32,0,0,1-.25.28c-.64.6-1.35,1.12-2,1.67-.21.18-.21.18,0,.37l.18.19s0,.05.06,0a.49.49,0,0,1,.33-.19l0,0a2.46,2.46,0,0,1,.39-.4l1.47-1.31c.11-.11.25-.19.26-.37Zm-7.94,2.79s.06,0,.09,0c.5-.42,1-.87,1.46-1.3a.27.27,0,0,0,0-.26h0a2,2,0,0,0-.87.42c-.64.53-1.3,1-1.95,1.52-.06,0-.09.07,0,.13a2.75,2.75,0,0,1,.26.22c.06.06.1.06.17,0C14.11,32.79,14.4,32.56,14.69,32.33ZM19,32.08a.32.32,0,0,0,.12.14l1.86,1.94.25.26,0,0,0,0,.16.19.68.7a1.38,1.38,0,0,0,.31.28s0,0,.06,0,.09.06.05.13a9.14,9.14,0,0,1-.91,1.05c-.15.15-.15.15-.05.33l0,0c-.16-.13-.16-.13-.26,0l0,.06s.05,0,.07,0l.47,0c.06,0,.09,0,.1-.08a1.34,1.34,0,0,1,.38-.66c.18-.19.37-.36.56-.54s.31-.38.5-.55.12-.07.14-.14a.31.31,0,0,1,.11-.18l.3-.34.65-.7s0,0,0-.07-.05,0-.08,0h-.25a.23.23,0,0,0-.19.09,2.33,2.33,0,0,1-.26.28,3.45,3.45,0,0,0-.8.77l-.29.36a.21.21,0,0,1,0-.08c0-.08.05-.18,0-.25a8,8,0,0,1-.71-.72c-.4-.44-.83-.85-1.23-1.3s-.82-.89-1.25-1.31l-.14-.13a.86.86,0,0,0-.13-.14c-.53-.57-1-1.18-1.59-1.72l-.22-.23-4.69-5c0-.06-.09-.16-.18,0s0,0,0,0-.15,0-.16.06a.47.47,0,0,0,0,.17.82.82,0,0,0,.1.24,6.32,6.32,0,0,0,.76.87l1.54,1.61c.24.26.5.51.75.77s.3.32.45.49c.35.37.7.75,1.07,1.12C17.61,30.68,18.27,31.39,19,32.08Zm5.85,2.47c-.59.62-1.14,1.28-1.76,1.88-.33.33-.57.75-1.07.92a1.14,1.14,0,0,1,.31.09c.08,0,.16.12.22.1s.1-.12.16-.18l1.5-1.58c.34-.36.69-.71,1-1.09.12-.12.12-.13,0-.26a.36.36,0,0,1-.07-.1s-.05-.06-.09,0Zm-8.11-.48L17,34l.7,0c.06,0,.09,0,.06-.08s-.25-.44-.37-.66c0-.06-.05-.06-.09-.05l-.46,0h-.05c-.84.06-1.68.11-2.53.15,0,0-.06,0-.06,0s0,.05.05.06l.8.63a.24.24,0,0,0,.2.06l.75,0A.64.64,0,0,0,16.4,34l.1-.05s.08,0,.08.05S16.63,34.07,16.69,34.07Zm1.4-28.49s.07-.11,0-.14-.06.06-.08.1c-.34.55-.63,1.11-.93,1.67a10.23,10.23,0,0,1-1.36,2.41c-.06.06,0,.11,0,.16L16,10c.05,0,.07,0,.09,0a14.55,14.55,0,0,1,.62-1.59A1.46,1.46,0,0,1,17,7.8s.07-.08.11,0,0,.08,0,.11c-.1.32-.22.63-.31,1-.13.48-.3,1-.4,1.45,0,.06,0,.12,0,.17s.34.32.52.5A6.43,6.43,0,0,1,17,9.47a4.53,4.53,0,0,1,.48-1.76.61.61,0,0,0,.07-.24s0,0,0,0v0s0,0,0,0l0-.07s0,0,0,0v0s0,0,0,0v0s0,0,0,0V7a0,0,0,0,0,0,0v0s0,0,0-.05v0s0,0,0-.06v0a0,0,0,0,0,0,0v0a.12.12,0,0,0,0-.12l0-.11a.12.12,0,0,0,0-.12l.06-.18A.73.73,0,0,0,18,5.84l.07-.19A.06.06,0,0,0,18.09,5.58ZM8,36.9S8,36.92,8,37s.07,0,.11,0h.09s0,0,.05,0l.09,0a.06.06,0,0,0,.07,0h.09c.16.06.31.1.43-.09,0,0,.07-.06.11-.09l1.74-1.37a2.23,2.23,0,0,0,.4-.35l1.49-1.19c.06,0,0-.07,0-.12a2.72,2.72,0,0,1-.24-.24c-.07-.08-.12-.07-.2,0C10.78,34.65,9.42,35.8,8,36.9Zm30.3-18.28A19.23,19.23,0,0,0,38,15a20.37,20.37,0,0,0-2.09-5.87,17.43,17.43,0,0,0-3.4-4.51,11.84,11.84,0,0,0-3.33-2.27,7.68,7.68,0,0,0-3.56-.74,6.13,6.13,0,0,0-2.88.87,7,7,0,0,0-2.24,2.19.62.62,0,0,1-.17.22.41.41,0,0,0-.15.17,10.64,10.64,0,0,0-.51,1.08,14.25,14.25,0,0,0-1,5.08,18.22,18.22,0,0,0,.52,4.59,19.77,19.77,0,0,0,3.87,8,13.85,13.85,0,0,0,3.2,3,9.07,9.07,0,0,0,4.25,1.59,6.1,6.1,0,0,0,4-1A7.5,7.5,0,0,0,37,24.45a11.84,11.84,0,0,0,1.15-3.81A16.75,16.75,0,0,0,38.31,18.62ZM15.77,19.9c0-.94-.07-1.89-.13-2.83,0,0,0-.1,0-.12s-.07,0-.11.06q-.71.57-1.44,1.11c-1.07.78-2.11,1.6-3.18,2.37a1.76,1.76,0,0,1-1,.36A6.82,6.82,0,0,0,8.5,21c-.78.16-1.57.26-2.34.48a.28.28,0,0,1-.22,0c-.12-.07-.15,0-.19.09a13.21,13.21,0,0,1-.91,1.75.22.22,0,0,0,0,.22,10,10,0,0,0,.73,1.59.31.31,0,0,0,.22.17l2.4.46a.24.24,0,0,0,.17,0l1-.7a13,13,0,0,0,2-1.77.36.36,0,0,1,.29-.12l1.67,0c.82,0,1.64,0,2.46,0,.08,0,.13,0,.12-.12A29.86,29.86,0,0,1,15.77,19.9ZM4.25,19.73c0,.1,0,.18.09.23a10.54,10.54,0,0,1,1.38.8c.17.12.17.11.33,0,1.34-1.14,2.6-2.35,3.86-3.57a1.06,1.06,0,0,1,.69-.3c.46,0,.92,0,1.38-.09s1.2-.15,1.81-.2a9.71,9.71,0,0,0,1.69-.25c.1,0,.12-.06.12-.16a5.52,5.52,0,0,1,0-.58c0-.78,0-1.56,0-2.34a13.83,13.83,0,0,1,.26-2.48.33.33,0,0,0-.12-.36c-.07-.05-.11-.06-.18,0-1,.73-2,1.46-2.95,2.21A18.94,18.94,0,0,1,11,13.82a7.58,7.58,0,0,0-1.2.91.45.45,0,0,1-.31.12.58.58,0,0,0-.26.05,5.05,5.05,0,0,1-.69.22,6.12,6.12,0,0,0-.94.32c-.46.19-.88.43-1.32.65a1,1,0,0,0-.2.15,15,15,0,0,1-1.42,1.34.38.38,0,0,0-.13.22A11.38,11.38,0,0,0,4.25,19.73Zm13.52,9.58.5-.06,5.38-.65c.1,0,.12,0,.06-.12a10.11,10.11,0,0,0-1.12-1.4.23.23,0,0,0-.14-.08,2.32,2.32,0,0,1-.64-.34,8.75,8.75,0,0,1-1-.93c-.33-.34-.63-.7-1-1a8.8,8.8,0,0,1-.93-.9c-.07-.09-.1-.08-.16,0A11.3,11.3,0,0,1,17,25.75L15.6,26.92c-.06,0-.07.09,0,.14s.21.23.32.35l1.71,1.82S17.7,29.32,17.77,29.31Zm-8.85-3.4.07,0a16.35,16.35,0,0,0,1.69.35.2.2,0,0,0,.22-.09c.48-.64.94-1.31,1.45-1.93l0-.06a.23.23,0,0,1,.41,0,1.67,1.67,0,0,0,.23.23,5.76,5.76,0,0,1,.68.62l1.4,1.5c.07.07.1.07.17,0,.39-.37.81-.71,1.22-1.05a12.06,12.06,0,0,0,1.83-1.95l.15-.19-.3,0c-.59.08-1.19.16-1.79.19a.13.13,0,0,0-.12.09c0,.08-.08.15-.12.24a.77.77,0,0,1-.11-.19c0-.09-.1-.11-.2-.1l-1.11.05c-.88,0-1.76-.05-2.64-.07a.21.21,0,0,0-.18.07,3.46,3.46,0,0,1-.78.7L9.58,25.45Zm8-19.21c-.43.3-.85.62-1.25,1a16.43,16.43,0,0,1-2.18,1.44,23.68,23.68,0,0,0-2.61,1.68c-.14.1-.27.2-.41.28a6.84,6.84,0,0,0-1.09.68,21.71,21.71,0,0,0-2.24,1.82A11.64,11.64,0,0,0,5.85,15c0,.07,0,.11,0,.16l.27.22c.05.05.09,0,.13,0A2.28,2.28,0,0,1,6.6,15a26.8,26.8,0,0,0,2.05-1.79c.51-.49,1-1,1.49-1.49.17-.17.34-.4.64-.39,0,0,0,0,.05,0a.9.9,0,0,1,.47-.2,7.67,7.67,0,0,0,.78-.23,7,7,0,0,1,.78-.24,6.27,6.27,0,0,0,1.56-.59A2.52,2.52,0,0,1,15,9.86a1.53,1.53,0,0,0,.32-.13s.06,0,.07-.06a1.29,1.29,0,0,1,.28-.48A4.45,4.45,0,0,0,16,8.64c.2-.43.43-.84.64-1.26C16.72,7.16,16.83,6.93,16.94,6.7ZM7,20.57s.05,0,.08,0a12.84,12.84,0,0,1,1.75-.2,13.62,13.62,0,0,0,1.42-.13.77.77,0,0,0,.37-.19,7.11,7.11,0,0,1,.68-.55c1-.8,2.12-1.57,3.18-2.34,0,0,.08,0,.09-.09s-.05,0-.08,0l-1.08.15a18.21,18.21,0,0,1-2.95.3.38.38,0,0,0-.35.16,4.47,4.47,0,0,1-.62.61c-.81.73-1.6,1.49-2.42,2.2C7.06,20.51,7,20.53,7,20.57Zm9.15-3h0v.21c0,.73.09,1.45.08,2.18,0,1,0,2,.09,3.06,0,.08,0,.1.11.1l.57-.06,1.31-.14c.15,0,.15,0,.17-.17,0-.42,0-.85.09-1.28a7.22,7.22,0,0,0-.1-1.47.23.23,0,0,0-.1-.14,17.52,17.52,0,0,1-2.15-2.24Zm2.18,1.63v0A14.31,14.31,0,0,0,18,17.47a32.34,32.34,0,0,1-.83-3.91A17.89,17.89,0,0,1,17,11.63s0,0,0,0a.61.61,0,0,0-.05.12c-.26.71-.49,1.44-.77,2.16a1,1,0,0,0-.07.39,23.42,23.42,0,0,0,0,2.37.25.25,0,0,0,.06.16c.16.18.31.37.47.56a17.08,17.08,0,0,0,1.64,1.76S18.3,19.2,18.35,19.19Zm4.17,13.53h0l1.47,0c.14,0,.14,0,.07-.13-.39-.77-.84-1.51-1.26-2.27-.06-.12-.06-.12-.17,0-.55.5-1.14.94-1.73,1.39a2.11,2.11,0,0,1-.27.18,1.65,1.65,0,0,0-.27.19c-.05,0-.05.07,0,.12l.51.56a.2.2,0,0,0,.19.07ZM7.62,14.94l0,0a12,12,0,0,1,1.43-.48,2.79,2.79,0,0,0,.66-.35c.34-.27.7-.53,1-.79a30.73,30.73,0,0,0,2.71-2.11c0-.05.12-.09.15-.16a.27.27,0,0,0-.13,0,8.25,8.25,0,0,1-1.11.3l-1,.2a.56.56,0,0,0-.38.24A6.25,6.25,0,0,1,10,13c-.74.63-1.49,1.24-2.24,1.87ZM8,27.82c-.07.18,0,.31.19.42l.63.5c.06.05.09,0,.14,0l1.48-1.87c.07-.09,0-.1-.05-.12-.42-.07-.84-.15-1.25-.26-.21-.06-.42-.11-.64-.15s-.26,0-.28.2,0,.21-.06.31A5.25,5.25,0,0,0,8,27.82ZM4.57,14.26a7.7,7.7,0,0,0-1.09,2,11.63,11.63,0,0,0-.56,2.2c.06,0,.08,0,.09,0l1-.89a.65.65,0,0,0,.18-.3,10.34,10.34,0,0,1,.91-2.11c0-.06,0-.09,0-.13A1.91,1.91,0,0,1,4.57,14.26ZM23.8,29.06a6,6,0,0,1,.48.72c.4.68.75,1.38,1.09,2.08,0,.1.07.11.15,0,.27-.29.55-.57.83-.86.12-.12.12-.12,0-.25-.42-.54-.86-1.08-1.26-1.63a.39.39,0,0,0-.45-.2A7.47,7.47,0,0,1,23.8,29.06ZM2.91,19.6a13.52,13.52,0,0,0,.93,4.77.05.05,0,0,0,0-.05,8.93,8.93,0,0,1,.39-.83.16.16,0,0,0,0-.15,10.8,10.8,0,0,1-.51-3.08c0-.05,0-.09,0-.12C3.44,20,3.17,19.8,2.91,19.6Zm18.85,9.72h-.07l-3.46.42s-.06,0-.07,0,0,0,.05.06c.41.42.79.87,1.18,1.31.06.06.1.07.17,0,.47-.44,1-.85,1.48-1.25C21.28,29.71,21.51,29.52,21.76,29.32Zm-2.33,4.94a.08.08,0,0,0,0,.08c.53.76,1.14,1.46,1.67,2.22,0,0,.06,0,.1,0,.24-.25.5-.5.73-.77.07-.07.05-.11,0-.17-.46-.44-.91-.9-1.36-1.35a.15.15,0,0,0-.11-.06ZM16.35,30l-5.27.64.22.23a.31.31,0,0,0,.25.11c.68,0,1.36-.06,2-.09s1.1,0,1.65-.1a.49.49,0,0,0,.25-.1l.78-.6S16.33,30,16.35,30Zm-1.93,3.12h.09l2.56-.18c.1,0,.1,0,.06-.1a13.1,13.1,0,0,1-.67-1.42c0-.1-.06-.1-.13,0-.53.51-1.06,1-1.62,1.48Zm6.8-.05,0,.06a5.57,5.57,0,0,1,.51.46.56.56,0,0,0,.54.22c.49-.05,1-.06,1.47-.09a.16.16,0,0,0,.14,0l.48-.53c.06-.07,0-.15-.08-.16h-.11c-.85,0-1.7.06-2.55.06ZM7.51,12.55s-.07,0-.1,0a8.3,8.3,0,0,1-1.58.64,1.9,1.9,0,0,0-1,.72c-.06.08-.11.14,0,.21a.31.31,0,0,1,.07.09,3.25,3.25,0,0,0,.38.44c.08.08.11.07.18,0a7.38,7.38,0,0,1,.9-1c.37-.33.71-.69,1.09-1C7.49,12.59,7.51,12.58,7.51,12.55ZM4.61,22.82c.06,0,.07-.06.09-.09.29-.47.51-1,.81-1.46,0-.05,0-.07,0-.1-.37-.23-.74-.49-1.14-.69-.09,0-.1,0-.09.07a8.44,8.44,0,0,0,.09,1C4.41,22,4.5,22.4,4.61,22.82Zm1.45,3a.06.06,0,0,0,0,.06,11.89,11.89,0,0,0,1.3,1.61s0,.08.09.06,0-.06,0-.1a5,5,0,0,1,.32-1.25c0-.07,0-.06-.06-.07L7,26Zm.05.95A1,1,0,0,0,6,27.1a.55.55,0,0,1-.12.27.11.11,0,0,0,0,.16,11.1,11.1,0,0,0,.88.93,4.12,4.12,0,0,0,.47.38c.12.07.12.07.13-.06s0-.21,0-.32a.3.3,0,0,0-.12-.35,6.05,6.05,0,0,1-1-1ZM4.3,25.33v.05A9.25,9.25,0,0,0,5.48,27s0,0,.08,0,.3-.14.44-.23.07-.08,0-.15c-.23-.31-.45-.62-.66-.95a.14.14,0,0,0-.08-.07Zm5.91,5.3c0,.05,0,.06,0,.08.68.66,1.32,1.37,2,2.07.19.2.19.2.41,0,.07,0,.09-.08,0-.15a17.58,17.58,0,0,1-1.79-2,.17.17,0,0,0-.16-.06A2.1,2.1,0,0,1,10.21,30.63Zm1.95,1,0,0,.09.06.76.68c.06.06.1.05.16,0l1.16-.88s0,0,0-.05A8.75,8.75,0,0,1,12.16,31.67Zm4.76-.87-.25.24c-.06,0-.06.08,0,.14.26.47.53.93.77,1.4.11.23.24.35.51.3s.13,0,.06-.13c-.35-.62-.71-1.25-1-1.89Zm-5.3.33v0c.05,0,.11.09.16.15a.34.34,0,0,0,.37.14,8.09,8.09,0,0,1,.86-.07,5.94,5.94,0,0,1,1.19,0,.75.75,0,0,0,.66-.19,1.73,1.73,0,0,1,.21-.17A18.86,18.86,0,0,1,11.62,31.13Zm13.06,1.52c.12,0,.14,0,.09-.13a1.62,1.62,0,0,1-.1-.18c-.45-.81-.91-1.61-1.31-2.45-.11-.22-.1-.22-.28,0s0,.07,0,.12c.55.85,1.05,1.72,1.51,2.61C24.61,32.62,24.63,32.65,24.68,32.65Zm-16.06-21-.29-.13a.43.43,0,0,0-.45,0c-.41.23-.82.48-1.22.74a4,4,0,0,0-.56.46.62.62,0,0,0,.19-.07c.54-.24,1-.53,1.6-.76a1.84,1.84,0,0,1,.65-.17A.1.1,0,0,0,8.62,11.69ZM4,18.25l-.07.05a7.24,7.24,0,0,1-.94.71s0,0,0,.06,0,0,.06,0a1.76,1.76,0,0,1,.38.21,3.62,3.62,0,0,0,.32.22c.12.08.12.08.13-.06s0-.43.08-.65S3.92,18.46,4,18.25Zm21.9,14.34a.39.39,0,0,0,.35-.15c.18-.2.38-.38.56-.57s.22-.22,0-.48c-.05-.06-.07-.06-.12,0l-1,1a.11.11,0,0,0,0,.14C25.72,32.56,25.75,32.61,25.85,32.59ZM13.36,26.76s0-.05,0-.05l-.84-.89c-.06-.06-.08,0-.11,0s-.26.37-.4.55,0,.09,0,.11l.88.17Zm-8.47-10c.38-.35.76-.66,1.14-1a.11.11,0,0,0,0-.18c-.11-.07-.23-.12-.34-.2s-.15,0-.2.07A11.6,11.6,0,0,0,5,16.56.76.76,0,0,0,4.89,16.77Zm20.3,12.12,0,.06c.47.57,1,1.11,1.42,1.69,0,0,.05.07.1,0s.1-.07,0-.15c-.38-.55-.78-1.08-1.19-1.6a.14.14,0,0,0-.13-.05ZM4.48,24l-.16.27a3.23,3.23,0,0,1-.27.44s-.07.07,0,.13,0,.17.16.17a3.33,3.33,0,0,1,.54.07l.29.05A10.56,10.56,0,0,1,4.48,24ZM10.18,31l-.37-.45a.83.83,0,0,0-.18-.19.9.9,0,0,0-.44-.13c-.12,0-.16.2-.25.3h0a.06.06,0,0,0,0,.07c.15.16.29.34.54.34A2.93,2.93,0,0,1,10.18,31ZM16.09,13.1a.3.3,0,0,0,0-.11,10.38,10.38,0,0,1,.54-1.63s0,0,0-.07a2.43,2.43,0,0,1-.3-.24c-.05-.05-.07-.06-.08,0A16.48,16.48,0,0,0,16.09,13.1ZM29.67,30s0,0-.05,0l-.21,0a.14.14,0,0,0-.15,0l-.63.63c-.21.21-.21.13,0,.38.05.07.08.06.14,0,.3-.3.59-.62.88-.93ZM14.09,34.46v0l.76.66s.06,0,.09,0l.27-.24c.05,0,.05-.07,0-.11s-.28-.2-.41-.3a.3.3,0,0,0-.15,0Zm8.2-.32v0l.51.54c.05.06.08,0,.13,0l.47-.55s0,0,0-.06Zm-12-23.37a8.65,8.65,0,0,0-1.67.46,1.16,1.16,0,0,0,.45.16,1.28,1.28,0,0,0,.64-.18C9.87,11.09,10,10.92,10.26,10.77ZM7.87,28.66c0,.17,0,.31,0,.45a.11.11,0,0,0,.06.11l.37.21s.06,0,.08,0a1.22,1.22,0,0,0,.2-.25s0,0,0-.05Zm6.52,5.54L14,33.85c-.25-.22-.25-.22-.5,0-.05,0-.06.07,0,.11l.26.23a.13.13,0,0,0,.1,0Zm13.76-3.85,0,0,.54-.52s0-.05,0-.07a.34.34,0,0,0-.49.09s-.06.06-.09.09c-.2.19-.2.2,0,.4Zm-1.27,2.52a.68.68,0,0,0-.65.21c-.15.18-.16.17,0,.38s.08.08.13,0ZM13,33a.47.47,0,0,0-.09.06c-.22.16-.22.16,0,.34s.23.22.47,0c.05,0,.05-.07,0-.11L13,33S13,33,13,33Zm14-.47h.11a.33.33,0,0,0,.27-.19c.05-.07-.05-.12-.08-.18s-.08-.07-.13,0l-.23.24s-.12.08-.1.13S27,32.53,27,32.53ZM27.11,31a.13.13,0,0,0-.1.16l.13.19c.07.1.11.09.17,0s0-.06,0-.09S27.16,31,27.11,31Zm-1.89,2.42a2.26,2.26,0,0,0-.11-.22c-.06-.11-.08-.11-.16,0a.09.09,0,0,0,0,.11l.11.19s0,.1.07.07A.16.16,0,0,0,25.22,33.38Zm2.46-1.33s.1-.08.12-.14-.14-.23-.17-.22a.33.33,0,0,0-.13.13A.5.5,0,0,0,27.68,32.05ZM7.79,30.14A.4.4,0,0,0,7.9,30c.14-.17.13-.18-.06-.26s-.07,0-.07,0ZM25.48,34s-.07,0-.07,0a.44.44,0,0,0,.14.22.12.12,0,0,0,.08-.1C25.64,34.12,25.55,34,25.48,34ZM9.08,29.55A.1.1,0,0,0,9,29.49s-.14.12-.13.15.05.05.09.05S9,29.6,9.08,29.55ZM28,32.47h.18s.07,0,.07,0a.3.3,0,0,0-.07-.1s0,0-.06,0A.42.42,0,0,0,28,32.47Zm-12.17,2h-.31C15.63,34.58,15.65,34.58,15.79,34.43Zm2.48-29.3-.16.24a0,0,0,0,0,0,.06s0,0,.05,0A1.25,1.25,0,0,0,18.27,5.13Zm6.23,28.5c.07,0,.13,0,.17,0s0-.07,0-.08S24.55,33.58,24.5,33.63Zm-11.41.63c-.07-.07-.07-.07-.13,0S13.05,34.29,13.09,34.26Zm24.54-9.89v0s0,0,0,0,0,0,0,0S37.63,24.39,37.63,24.37Zm0-.06v0h0a0,0,0,0,0,0,0ZM7.55,12.53h0Z"/><path class="cls-2" d="M28.47,31.93a1.21,1.21,0,0,0,.16-.16c.05-.07.08-.06.13,0,.21.27.4.54.62.79.79.93,1.45,2,2.18,2.94.2.28.42.56.63.84a1.75,1.75,0,0,0,.37.35l0,.05c0,.16,0,.19-.15.2a.07.07,0,0,0-.06,0l-.13,0c0-.05,0-.1,0-.15s0-.19-.08-.24-.19-.15-.32-.14-.05,0-.06,0c-.17-.24-.35-.46-.53-.7-.34-.46-.67-.94-1-1.41a.21.21,0,0,1,0-.2.29.29,0,0,0-.06-.31c-.21-.19-.37-.43-.56-.64s-.27-.18-.37-.31a4,4,0,0,0-.58-.66C28.58,32.06,28.56,32,28.47,31.93Z"/><path class="cls-2" d="M27.45,36.51v-.14a.2.2,0,0,1,.09.09C27.49,36.44,27.49,36.5,27.45,36.51Z"/><path class="cls-2" d="M26.59,36.53a.09.09,0,0,1,0-.07s0,0,0,0Z"/><path class="cls-2" d="M27.1,36.54s0,0,0,0S27.11,36.57,27.1,36.54Z"/><path class="cls-2" d="M27.35,36.57s0,0,0,0S27.38,36.6,27.35,36.57Z"/><path class="cls-1" d="M20.24,37.47s0,0,0,0h0s0,0,0,0Z"/><path class="cls-1" d="M16.06,36.36s0,0,0,0l0,0h0Z"/><path class="cls-2" d="M38.31,18.62a16.75,16.75,0,0,1-.14,2A11.84,11.84,0,0,1,37,24.45a7.5,7.5,0,0,1-2.56,2.94,6.1,6.1,0,0,1-4,1,9.07,9.07,0,0,1-4.25-1.59,13.85,13.85,0,0,1-3.2-3,19.77,19.77,0,0,1-3.87-8,18.22,18.22,0,0,1-.52-4.59,14.25,14.25,0,0,1,1-5.08,10.64,10.64,0,0,1,.51-1.08.41.41,0,0,1,.15-.17.62.62,0,0,0,.17-.22A7,7,0,0,1,22.71,2.5a6.13,6.13,0,0,1,2.88-.87,7.68,7.68,0,0,1,3.56.74,11.84,11.84,0,0,1,3.33,2.27,17.43,17.43,0,0,1,3.4,4.51A20.37,20.37,0,0,1,38,15,19.23,19.23,0,0,1,38.31,18.62Zm-.41-.42a17.55,17.55,0,0,0-.26-3,19.59,19.59,0,0,0-2-5.91,16.85,16.85,0,0,0-3.34-4.48,11.71,11.71,0,0,0-2.86-2A7.41,7.41,0,0,0,26.55,2a5.77,5.77,0,0,0-3.94,1.19.47.47,0,0,0-.14.14,1.26,1.26,0,0,1-.31.34c-.17.16-.33.32-.49.49a7.67,7.67,0,0,0-1.4,2.39,11.84,11.84,0,0,0-.78,4,16.87,16.87,0,0,0,.32,3.95,19.62,19.62,0,0,0,3.26,7.63,14.35,14.35,0,0,0,3.17,3.29,8.87,8.87,0,0,0,3.91,1.77,5.85,5.85,0,0,0,3-.25,6,6,0,0,0,2.88-2.22,9.52,9.52,0,0,0,1.5-3.38,9.39,9.39,0,0,0,.19-1A19.15,19.15,0,0,0,37.9,18.2Z"/><path class="cls-3" d="M15.77,19.9A29.86,29.86,0,0,0,15.9,23c0,.11,0,.11-.12.12-.82.05-1.64.05-2.46,0l-1.67,0a.36.36,0,0,0-.29.12,13,13,0,0,1-2,1.77l-1,.7a.24.24,0,0,1-.17,0l-2.4-.46a.31.31,0,0,1-.22-.17,10,10,0,0,1-.73-1.59.22.22,0,0,1,0-.22,13.21,13.21,0,0,0,.91-1.75c0-.09.07-.16.19-.09a.28.28,0,0,0,.22,0c.77-.22,1.56-.32,2.34-.48a6.82,6.82,0,0,1,1.35-.16,1.76,1.76,0,0,0,1-.36C12,19.72,13,18.9,14.06,18.12q.74-.54,1.44-1.11s.07-.08.11-.06,0,.08,0,.12C15.7,18,15.78,19,15.77,19.9Z"/><path class="cls-3" d="M4.25,19.73a11.38,11.38,0,0,1,.29-1.93.38.38,0,0,1,.13-.22,15,15,0,0,0,1.42-1.34,1,1,0,0,1,.2-.15c.44-.22.86-.46,1.32-.65a6.12,6.12,0,0,1,.94-.32,5.05,5.05,0,0,0,.69-.22.58.58,0,0,1,.26-.05.45.45,0,0,0,.31-.12,7.58,7.58,0,0,1,1.2-.91,18.94,18.94,0,0,0,1.62-1.21c1-.75,2-1.48,2.95-2.21.07-.05.11,0,.18,0a.33.33,0,0,1,.12.36,13.83,13.83,0,0,0-.26,2.48c0,.78-.06,1.56,0,2.34a5.52,5.52,0,0,0,0,.58c0,.1,0,.13-.12.16a9.71,9.71,0,0,1-1.69.25c-.61.05-1.21.13-1.81.2s-.92.06-1.38.09a1.06,1.06,0,0,0-.69.3c-1.26,1.22-2.52,2.43-3.86,3.57-.16.13-.16.14-.33,0A10.54,10.54,0,0,0,4.34,20C4.23,19.91,4.24,19.83,4.25,19.73Z"/><path class="cls-2" d="M31.46,3.13s-.07,0-.11-.06a10.92,10.92,0,0,0-3-1.55,7.21,7.21,0,0,0-4.24-.13,6.78,6.78,0,0,0-3.32,2.13,7.14,7.14,0,0,0-.71.93.76.76,0,0,0-.13.29.35.35,0,0,1-.05.13A10.84,10.84,0,0,0,18.38,9a17,17,0,0,0,0,5.38,20.86,20.86,0,0,0,3.24,8.4A16.24,16.24,0,0,0,25,26.45a11.38,11.38,0,0,0,3.5,2,7.73,7.73,0,0,0,1.7.38,7.36,7.36,0,0,0,1,0,.9.9,0,0,1,.46,0c.08,0,.16,0,.24,0a6.7,6.7,0,0,0,4.2-2.23,8.89,8.89,0,0,0,1.36-2l.06-.12h0s0,.07,0,.11a8.89,8.89,0,0,1-2.14,3.27A7.46,7.46,0,0,1,33.65,29a5.89,5.89,0,0,1-1.07.37c-.12,0-.21.13-.34.16a7,7,0,0,1-.8.13,5.55,5.55,0,0,1-1.94-.22,9.25,9.25,0,0,1-1.14-.33c-.61-.27-1.22-.55-1.81-.87a2.7,2.7,0,0,1-.66-.38,7.29,7.29,0,0,0-.81-.66,17.54,17.54,0,0,1-1.73-1.61,20.87,20.87,0,0,1-3.78-5.89,23.74,23.74,0,0,1-1.07-3,20.49,20.49,0,0,1-.69-3.47,19.16,19.16,0,0,1-.09-3.3,14.69,14.69,0,0,1,.81-4.14A9.15,9.15,0,0,1,20.35,2.7,6.45,6.45,0,0,1,25,.49a7.92,7.92,0,0,1,3.12.57,10.88,10.88,0,0,1,2.6,1.45,6.14,6.14,0,0,1,.71.55.16.16,0,0,1,.07.07Z"/><path class="cls-3" d="M17.77,29.31c-.07,0-.11,0-.15-.08l-1.71-1.82c-.11-.12-.21-.24-.32-.35s-.05-.09,0-.14L17,25.75a11.3,11.3,0,0,0,1.79-1.93c.06-.09.09-.1.16,0a8.8,8.8,0,0,0,.93.9c.35.32.65.68,1,1a8.75,8.75,0,0,0,1,.93,2.32,2.32,0,0,0,.64.34.23.23,0,0,1,.14.08,10.11,10.11,0,0,1,1.12,1.4c.06.09,0,.11-.06.12l-5.38.65Z"/><path class="cls-3" d="M8.92,25.91l.66-.46,1.55-1.07a3.46,3.46,0,0,0,.78-.7.21.21,0,0,1,.18-.07c.88,0,1.76.08,2.64.07l1.11-.05c.1,0,.16,0,.2.1a.77.77,0,0,0,.11.19c0-.09.09-.16.12-.24a.13.13,0,0,1,.12-.09c.6,0,1.2-.11,1.79-.19l.3,0-.15.19A12.06,12.06,0,0,1,16.5,25.5c-.41.34-.83.68-1.22,1.05-.07.06-.1.06-.17,0L13.71,25a5.76,5.76,0,0,0-.68-.62,1.67,1.67,0,0,1-.23-.23.23.23,0,0,0-.41,0l0,.06c-.51.62-1,1.29-1.45,1.93a.2.2,0,0,1-.22.09A16.35,16.35,0,0,1,9,25.94Z"/><path class="cls-3" d="M14.57,29.7H14.5a.11.11,0,0,0-.14,0H14.3c-.05,0-.09,0-.12,0h-.07a.06.06,0,0,0-.09,0h-.09s-.09,0-.12,0h-.07a.07.07,0,0,0-.11,0h-.09s-.09,0-.12,0h-.1a.45.45,0,0,0-.23,0,3.77,3.77,0,0,1-.89.06,1.42,1.42,0,0,0-.29,0,2.31,2.31,0,0,1-.74.08,1.1,1.1,0,0,0-.25,0,5.79,5.79,0,0,0-.6.12c-.08,0-.16.06-.24,0a0,0,0,0,1,0,0c0-.05,0-.08-.07-.08h0s0,0-.05,0h0v0a.86.86,0,0,0,.54-.08,1.58,1.58,0,0,1-.29-.22,1.73,1.73,0,0,0-.28-.19c-.09,0-.09-.08,0-.15L11,27.72c.18-.23.35-.46.52-.7a.18.18,0,0,1,.2-.08c.53.08,1,.22,1.57.3a2.92,2.92,0,0,0,.51,0,.21.21,0,0,1,.16.07q.63.69,1.29,1.35a.07.07,0,0,0,.07.07l.23.25s0,.05,0,.05l.26.27c0,.05,0,.07.07.07l0,.05s-.06,0-.07.08h-.09a.08.08,0,0,0-.12,0h-.06c-.05,0-.09,0-.12,0h-.07a.08.08,0,0,0-.12,0h-.08s-.07,0-.1,0h-.09a.05.05,0,0,0-.09,0h-.09a.08.08,0,0,0-.12,0h-.06S14.6,29.66,14.57,29.7Z"/><path class="cls-3" d="M16.94,6.7c-.11.23-.22.46-.34.68-.21.42-.44.83-.64,1.26a4.45,4.45,0,0,1-.33.55,1.29,1.29,0,0,0-.28.48s0,0-.07.06a1.53,1.53,0,0,1-.32.13,2.52,2.52,0,0,0-.54.21,6.27,6.27,0,0,1-1.56.59,7,7,0,0,0-.78.24,7.67,7.67,0,0,1-.78.23.9.9,0,0,0-.47.2s0,0-.05,0c-.3,0-.47.22-.64.39-.49.51-1,1-1.49,1.49A26.8,26.8,0,0,1,6.6,15a2.28,2.28,0,0,0-.33.29c0,.06-.08.07-.13,0l-.27-.22c-.07,0-.07-.09,0-.16a11.64,11.64,0,0,1,1.31-1.41A21.71,21.71,0,0,1,9.4,11.73a6.84,6.84,0,0,1,1.09-.68c.14-.08.27-.18.41-.28a23.68,23.68,0,0,1,2.61-1.68,16.43,16.43,0,0,0,2.18-1.44C16.09,7.32,16.51,7,16.94,6.7Z"/><path class="cls-3" d="M7,20.57s0-.06.07-.08c.82-.71,1.61-1.47,2.42-2.2a4.47,4.47,0,0,0,.62-.61.38.38,0,0,1,.35-.16,18.21,18.21,0,0,0,2.95-.3l1.08-.15s.05,0,.08,0-.05.06-.09.09c-1.06.77-2.13,1.54-3.18,2.34a7.11,7.11,0,0,0-.68.55.77.77,0,0,1-.37.19,13.62,13.62,0,0,1-1.42.13,12.84,12.84,0,0,0-1.75.2S7.05,20.59,7,20.57Z"/><path class="cls-3" d="M16.17,17.56l0,.06a17.52,17.52,0,0,0,2.15,2.24.23.23,0,0,1,.1.14,7.22,7.22,0,0,1,.1,1.47c0,.43-.06.86-.09,1.28,0,.16,0,.15-.17.17L17,23.06l-.57.06c-.08,0-.11,0-.11-.1-.09-1-.1-2-.09-3.06,0-.73,0-1.45-.08-2.18v-.21Z"/><path class="cls-3" d="M19.15,23.38l-.08-.07s0,0-.05,0h0s0-.05-.05,0,0-.07,0-.11a.19.19,0,0,0,0-.19v-.11a.19.19,0,0,0,0-.19v-.13a.34.34,0,0,0,0-.28v-.14a.15.15,0,0,0,0-.18V21.8a.11.11,0,0,0,0-.14v-.09a.19.19,0,0,0,0-.19V20.9a.14.14,0,0,0,0-.17v-.06a.05.05,0,0,0,0-.08,4.13,4.13,0,0,0-.21-.84c0-.06,0-.08,0-.1s.08,0,.09,0,.08.18.11.27a14.25,14.25,0,0,0,1.07,2.14c.49.84,1,1.64,1.56,2.45.17.25.37.47.56.7a17.22,17.22,0,0,0,1.31,1.39,8,8,0,0,0,1.58,1.21c.12.07.27.11.3.28a.09.09,0,0,0,.09.06c.09,0,.15.07.22.13s-.05,0-.08,0l-1.58.2c-.06,0-.1,0-.14-.05a6.4,6.4,0,0,0-1.09-1.34s0,0-.05-.06a3.64,3.64,0,0,0,.74.06,3.22,3.22,0,0,1-.32-.32.72.72,0,0,0-.45-.26,1.7,1.7,0,0,1-.82-.51c-.71-.74-1.3-1.57-2-2.32a5.75,5.75,0,0,1-.54-.73,1.82,1.82,0,0,1,.41,0c.22,0,.23,0,.27-.21a.41.41,0,0,0-.07-.32.5.5,0,0,0-.13.19c0,.09-.07.11-.16.11s-.18,0-.14-.18.05-.27.07-.42a.83.83,0,0,0-.27.5c0,.11-.05.13-.13.12s-.06,0-.08,0,0,.07,0,.1a6.9,6.9,0,0,0,.54.79l.45.5.14.18h-.1L20,24.2a.24.24,0,0,0-.17-.15l-.11-.1a.11.11,0,0,0-.09-.09,3.15,3.15,0,0,1-.37-.36A.13.13,0,0,0,19.15,23.38Z"/><path class="cls-3" d="M18.35,19.19c-.05,0-.08,0-.11-.06a17.08,17.08,0,0,1-1.64-1.76c-.16-.19-.31-.38-.47-.56a.25.25,0,0,1-.06-.16,23.42,23.42,0,0,1,0-2.37,1,1,0,0,1,.07-.39c.28-.72.51-1.45.77-2.16a.61.61,0,0,1,.05-.12s0,0,0,0a17.89,17.89,0,0,0,.26,1.93A32.34,32.34,0,0,0,18,17.47a14.31,14.31,0,0,1,.31,1.69Z"/><path class="cls-3" d="M2,39.21a2.13,2.13,0,0,0-.42.53,3.78,3.78,0,0,1-.26.43.32.32,0,0,1-.26.15.59.59,0,0,0-.4.15c-.07.07-.12,0-.15,0s-.05-.19.09-.31a2.35,2.35,0,0,0,.53-.64,1.54,1.54,0,0,0,.17-.31A.38.38,0,0,1,1.38,39,12.41,12.41,0,0,0,3,37a11.13,11.13,0,0,1,.75-.92c.16-.19.32-.38.46-.58.27-.38.52-.76.79-1.13a3.31,3.31,0,0,1,.41-.5c.32-.34.59-.71.88-1.07s.52-.64.78-1c0-.06.1-.1.11-.18s.08-.06.12-.05l.16.05s0,0,0,.08a.74.74,0,0,0-.18.39c-.07,0-.09.09-.13.14a9.81,9.81,0,0,1-.6.8c-.37.41-.7.86-1,1.3s-.7.9-1,1.37-.65.83-.93,1.28-.53.66-.73,1c0,0-.06,0,0,.1h0s-.06,0,0,.06l0,0s0,0,0,.07h0c-.05,0-.05,0-.05.06l0,0c-.06,0-.07,0-.06.09h0c-.07,0-.1.06-.13.1s-.25.31-.36.46S1.94,39.14,2,39.21Z"/><path class="cls-3" d="M7.62,14.94l.09-.08c.75-.63,1.5-1.24,2.24-1.87A6.25,6.25,0,0,0,11,11.84a.56.56,0,0,1,.38-.24l1-.2a8.25,8.25,0,0,0,1.11-.3.27.27,0,0,1,.13,0c0,.07-.1.11-.15.16a30.73,30.73,0,0,1-2.71,2.11c-.35.26-.71.52-1,.79a2.79,2.79,0,0,1-.66.35A12,12,0,0,0,7.64,15Z"/><path class="cls-2" d="M22.09,35.38l-.68-.7-.16-.19s0,0,0,0l0,0a.32.32,0,0,0-.25-.26l-1.86-1.94a1.3,1.3,0,0,0,.39-.31c.43.42.84.87,1.25,1.31s.83.86,1.23,1.3a8,8,0,0,0,.71.72c.08.07,0,.17,0,.25a.21.21,0,0,0,0,.08l.29-.36a3.45,3.45,0,0,1,.8-.77,2.33,2.33,0,0,0,.26-.28.23.23,0,0,1,.19-.09h.25s.06,0,.08,0,0,.05,0,.07l-.65.7-.3.34a.31.31,0,0,0-.11.18c0,.07-.09.1-.14.14s-.33.38-.5.55-.38.35-.56.54a1.34,1.34,0,0,0-.38.66c0,.07,0,.08-.1.08l-.47,0s-.06,0-.07,0l0-.06c.1-.12.1-.12.26,0l0,0s0,0,0,0l0,0h0s0,0,0,0,0,0,0,0c-.1-.18-.1-.18.05-.33a9.14,9.14,0,0,0,.91-1.05c0-.07.07-.12-.05-.13s0,0-.06,0,0-.06,0-.08S22.23,35.4,22.09,35.38Z"/><path class="cls-3" d="M17,30c-.37-.37-.72-.75-1.07-1.12-.15-.17-.31-.32-.45-.49s-.51-.51-.75-.77L13.15,26a6.32,6.32,0,0,1-.76-.87.82.82,0,0,1-.1-.24.47.47,0,0,1,0-.17c0-.06.1-.07.16-.06s0,0,0,0,.13,0,.18,0l4.69,5,.22.23a.11.11,0,0,1-.08,0A2.1,2.1,0,0,1,17,30Z"/><path class="cls-3" d="M8,27.82a5.25,5.25,0,0,1,.16-1c0-.1.05-.21.06-.31s.11-.24.28-.2.43.09.64.15c.41.11.83.19,1.25.26.09,0,.12,0,.05.12L8.91,28.72c-.05.06-.08.07-.14,0l-.63-.5C8,28.13,7.88,28,8,27.82Z"/><path class="cls-3" d="M4.57,14.26a1.91,1.91,0,0,0,.52.74s.06.07,0,.13a10.34,10.34,0,0,0-.91,2.11.65.65,0,0,1-.18.3l-1,.89s0,0-.09,0a11.63,11.63,0,0,1,.56-2.2A7.7,7.7,0,0,1,4.57,14.26Z"/><path class="cls-3" d="M2.91,19.6c.26.2.53.37.79.54,0,0,0,.07,0,.12a10.8,10.8,0,0,0,.51,3.08.16.16,0,0,1,0,.15,8.93,8.93,0,0,0-.39.83.05.05,0,0,1,0,.05A13.52,13.52,0,0,1,2.91,19.6Z"/><path class="cls-3" d="M8.47,37H8.38s0,0-.07,0l-.09,0s0,0-.05,0H8.08S8,37,8,36.9c1.41-1.1,2.77-2.25,4.19-3.33.08-.06.13-.07.2,0a2.72,2.72,0,0,0,.24.24s.06.08,0,.12l-1.49,1.19s-.07,0-.11,0c-.29.19-.56.43-.84.64s-.55.48-.86.67Z"/><path class="cls-3" d="M28.47,31.93c.09,0,.11.13.17.18a4,4,0,0,1,.58.66c.1.13.26.19.37.31s.35.45.56.64a.29.29,0,0,1,.06.31.21.21,0,0,0,0,.2c.35.47.68,1,1,1.41.18.24.36.46.53.7,0,0,0,0,.06,0s.22.08.32.14.08.15.08.24,0,.1,0,.15l-.83-.13a.2.2,0,0,0-.13,0c-.1.07-.13,0-.16-.07a7.64,7.64,0,0,0-.74-1.05L29,33.83a.42.42,0,0,1-.11-.22.12.12,0,0,0-.07-.12c-.19-.09-.27-.28-.39-.43l-.15-.2c.21-.09.22-.09.35.08.53.69,1,1.4,1.54,2.12a11.56,11.56,0,0,0,1.2,1.42.65.65,0,0,0,.3.18c.07,0,.11,0,.1-.09a1,1,0,0,0-.16-.36,8.73,8.73,0,0,0-.86-1.14c-.46-.53-.85-1.12-1.26-1.68l-1-1.29C28.4,32,28.4,32,28.47,31.93Z"/><path class="cls-3" d="M17.55,7.47a.61.61,0,0,1-.07.24A4.53,4.53,0,0,0,17,9.47,6.43,6.43,0,0,0,17,10.93c-.18-.18-.37-.32-.52-.5s0-.11,0-.17c.1-.49.27-1,.4-1.45.09-.32.21-.63.31-1,0,0,.05-.08,0-.11s-.08,0-.11,0a1.46,1.46,0,0,0-.34.54,14.55,14.55,0,0,0-.62,1.59C16,10,16,10,16,10l-.2-.18s-.08-.1,0-.16A10.23,10.23,0,0,0,17.1,7.21c.3-.56.59-1.12.93-1.67,0,0,0-.12.08-.1s0,.1,0,.14,0,0,0,.07L18,5.84a.38.38,0,0,0-.08.25l-.06.18a.09.09,0,0,0,0,.12l0,.11a.09.09,0,0,0,0,.12v0s0,0,0,0v0s0,0,0,.06v0s0,0,0,.05v0s0,0,0,0V7s0,0,0,0v0s0,0,0,0v0s0,0,0,0l0,.07s0,0,0,0v0S17.53,7.45,17.55,7.47Z"/><path class="cls-2" d="M17.37,33.27c.12.22.24.44.37.66s0,.08-.06.08L17,34c-.06,0-.13,0-.19,0a.08.08,0,0,0-.1.06c-.06,0-.13,0-.11-.08s0-.06-.08-.05l-.1.05a.64.64,0,0,1-.42.13l-.75,0a.24.24,0,0,1-.2-.06l-.8-.63s-.06,0-.05-.06,0,0,.06,0c.85,0,1.69-.09,2.53-.15h.05A2.51,2.51,0,0,0,17.37,33.27Z"/><path class="cls-2" d="M21.22,33l.36,0c.85,0,1.7,0,2.55-.06h.11c.09,0,.14.09.08.16l-.48.53a.16.16,0,0,1-.14,0c-.49,0-1,0-1.47.09a.56.56,0,0,1-.54-.22,5.57,5.57,0,0,0-.51-.46Z"/><path class="cls-3" d="M7.51,12.55s0,0,0,.06c-.38.32-.72.68-1.09,1a7.38,7.38,0,0,0-.9,1c-.07.08-.1.09-.18,0a3.25,3.25,0,0,1-.38-.44.31.31,0,0,0-.07-.09c-.12-.07-.07-.13,0-.21a1.9,1.9,0,0,1,1-.72,8.3,8.3,0,0,0,1.58-.64S7.47,12.53,7.51,12.55Z"/><path class="cls-3" d="M4.61,22.82c-.11-.42-.2-.84-.27-1.27a8.44,8.44,0,0,1-.09-1c0-.08,0-.11.09-.07.4.2.77.46,1.14.69,0,0,.06,0,0,.1-.3.47-.52,1-.81,1.46C4.68,22.76,4.67,22.8,4.61,22.82Z"/><path class="cls-2" d="M25.17,34.69c-.32.38-.67.73-1,1.09l-1.5,1.58c-.06.06-.1.17-.16.18s-.14-.07-.22-.1a1.14,1.14,0,0,0-.31-.09c.5-.17.74-.59,1.07-.92.62-.6,1.17-1.26,1.76-1.88a.12.12,0,0,0,.05.07C24.94,34.71,25.06,34.69,25.17,34.69Z"/><path class="cls-3" d="M6.06,25.86,7,26l.77.15s.1,0,.06.07a5,5,0,0,0-.32,1.25s0,.08,0,.1-.06,0-.09-.06a11.89,11.89,0,0,1-1.3-1.61A.06.06,0,0,1,6.06,25.86Z"/><path class="cls-2" d="M17,30a2.1,2.1,0,0,0,.56,0,.11.11,0,0,0,.08,0c.56.54,1.06,1.15,1.59,1.72a.86.86,0,0,1,.13.14c-.16,0-.25.2-.37.3C18.27,31.39,17.61,30.68,17,30Z"/><path class="cls-3" d="M6.11,26.81l.22.29a6.05,6.05,0,0,0,1,1,.3.3,0,0,1,.12.35c0,.11,0,.22,0,.32s0,.13-.13.06a4.12,4.12,0,0,1-.47-.38,11.1,11.1,0,0,1-.88-.93.11.11,0,0,1,0-.16A.55.55,0,0,0,6,27.1,1,1,0,0,1,6.11,26.81Z"/><path class="cls-3" d="M14.69,32.33c-.29.23-.58.46-.86.7-.07,0-.11,0-.17,0a2.75,2.75,0,0,0-.26-.22c-.08-.06-.05-.09,0-.13.65-.5,1.31-1,1.95-1.52a2,2,0,0,1,.87-.42c0,.09-.14.13-.19.21a1.1,1.1,0,0,1-.48.4,1.17,1.17,0,0,0-.45.35,1.24,1.24,0,0,1-.29.27,1.33,1.33,0,0,0-.19.14s-.06,0,0,.07S14.68,32.27,14.69,32.33Z"/><path class="cls-3" d="M4.3,25.33l1,.33a.14.14,0,0,1,.08.07c.21.33.43.64.66.95.05.07,0,.1,0,.15s-.3.14-.44.23-.06,0-.08,0A9.25,9.25,0,0,1,4.3,25.38Z"/><path class="cls-3" d="M19.87,31.62c-.21-.19-.21-.19,0-.37.68-.55,1.39-1.07,2-1.67a1.32,1.32,0,0,0,.25-.28.05.05,0,0,1,.06,0l1-.12c0,.06-.07.07-.11.1h0a.28.28,0,0,0-.17.11c-.06.1-.18.11-.25.2h-.05s-.07,0-.11.05L22,30a13.57,13.57,0,0,0-1.1.87c-.29.26-.61.49-.89.75C19.94,31.61,19.9,31.61,19.87,31.62Z"/><path class="cls-3" d="M10.21,30.63a2.1,2.1,0,0,0,.5,0,.17.17,0,0,1,.16.06,17.58,17.58,0,0,0,1.79,2c.07.07.05.1,0,.15-.22.16-.22.16-.41,0-.65-.7-1.29-1.41-2-2.07C10.24,30.69,10.21,30.68,10.21,30.63Z"/><path class="cls-3" d="M13.47,36.78l1.32-1.11s.07,0,.12,0l.42.26a.06.06,0,0,1,0,.06,5.89,5.89,0,0,1-.45.42,4.48,4.48,0,0,0-.4.36,2.73,2.73,0,0,1-.57,0,.27.27,0,0,0-.23,0h-.18Z"/><path class="cls-3" d="M16.92,30.8l0,.06c.31.64.67,1.27,1,1.89.07.12.07.1-.06.13s-.4-.07-.51-.3c-.24-.47-.51-.93-.77-1.4,0-.06,0-.1,0-.14Z"/><path class="cls-2" d="M19.87,31.62s.07,0,.09,0c.28-.26.6-.49.89-.75A13.57,13.57,0,0,1,22,30l.52-.36s.07-.05.11-.05c0,.18-.15.26-.26.37l-1.47,1.31a2.46,2.46,0,0,0-.39.4l0,0a.49.49,0,0,0-.33.19s0,0-.06,0Z"/><path class="cls-2" d="M2.78,38.16s0-.07,0-.1c.2-.37.51-.68.73-1s.63-.85.93-1.28.68-.92,1-1.37.67-.89,1-1.3a9.81,9.81,0,0,0,.6-.8c0-.05.06-.12.13-.14a.47.47,0,0,1-.22.56,2.6,2.6,0,0,0-.62.74,6.48,6.48,0,0,1-.66.81A12.55,12.55,0,0,0,4.52,35.9a5.17,5.17,0,0,1-.65.83,6.54,6.54,0,0,0-.63.86A6.36,6.36,0,0,1,2.78,38.16Z"/><path class="cls-3" d="M11.62,31.13A18.86,18.86,0,0,0,15.06,31a1.73,1.73,0,0,0-.21.17.75.75,0,0,1-.66.19,5.94,5.94,0,0,0-1.19,0,8.09,8.09,0,0,0-.86.07.34.34,0,0,1-.37-.14c0-.06-.11-.1-.16-.15Z"/><path class="cls-2" d="M19.48,33.14l.68.68a.09.09,0,0,1,0,0s0,0-.06,0l-.89,0a.1.1,0,0,1-.1-.06l-.46-.66s0-.08,0-.08a2,2,0,0,1,.35,0l0,.09a2.8,2.8,0,0,1,.4,0C19.48,33.2,19.48,33.17,19.48,33.14Z"/><path class="cls-3" d="M24.68,32.65c-.05,0-.07,0-.1-.07-.46-.89-1-1.76-1.51-2.61,0,0,0-.08,0-.12s.17-.18.28,0c.4.84.86,1.64,1.31,2.45a1.62,1.62,0,0,0,.1.18C24.82,32.61,24.8,32.65,24.68,32.65Z"/><path class="cls-3" d="M8.62,11.69a.1.1,0,0,1-.08.05,1.84,1.84,0,0,0-.65.17c-.55.23-1.06.52-1.6.76a.62.62,0,0,1-.19.07,4,4,0,0,1,.56-.46c.4-.26.81-.51,1.22-.74a.43.43,0,0,1,.45,0Z"/><path class="cls-3" d="M4,18.25c0,.21-.06.4-.08.58s-.06.44-.08.65,0,.14-.13.06a3.62,3.62,0,0,1-.32-.22A1.76,1.76,0,0,0,3,19.11s-.06,0-.06,0,0-.05,0-.06a7.24,7.24,0,0,0,.94-.71Z"/><path class="cls-2" d="M25.85,32.59c-.1,0-.13,0-.16-.09a.11.11,0,0,1,0-.14l1-1c.05-.05.07-.05.12,0,.18.26.18.26,0,.48s-.38.37-.56.57A.39.39,0,0,1,25.85,32.59Z"/><path class="cls-3" d="M13.36,26.76l-.44-.09L12,26.5c-.09,0-.1,0,0-.11s.27-.37.4-.55,0-.08.11,0l.84.89S13.35,26.73,13.36,26.76Z"/><path class="cls-3" d="M4.89,16.77A.76.76,0,0,1,5,16.56a11.6,11.6,0,0,1,.51-1.07c0-.1.1-.14.2-.07s.23.13.34.2a.11.11,0,0,1,0,.18C5.65,16.11,5.27,16.42,4.89,16.77Z"/><path class="cls-3" d="M25.19,28.89l.28,0a.14.14,0,0,1,.13.05c.41.52.81,1.05,1.19,1.6.06.08,0,.11,0,.15s-.07,0-.1,0c-.45-.58-.95-1.12-1.42-1.69Z"/><path class="cls-2" d="M26,28.8a1.34,1.34,0,0,1,.35-.05.26.26,0,0,1,.21.12l.8,1.1a.07.07,0,0,1,0,.11.75.75,0,0,1-.17.14L27.05,30c-.25-.3-.47-.63-.74-.92A1.63,1.63,0,0,1,26,28.8Z"/><path class="cls-3" d="M4.48,24A10.56,10.56,0,0,0,5,25.11l-.29-.05A3.33,3.33,0,0,0,4.17,25c-.12,0-.11-.11-.16-.17s0-.09,0-.13a3.23,3.23,0,0,0,.27-.44Z"/><path class="cls-3" d="M10.18,31A2.93,2.93,0,0,0,9.47,31c-.25,0-.39-.18-.54-.34a.06.06,0,0,1,0-.07h0c.09-.1.13-.28.25-.3a.9.9,0,0,1,.44.13.83.83,0,0,1,.18.19Z"/><path class="cls-3" d="M26.77,35.52l.08.13s0,.05,0,.06a2.58,2.58,0,0,0,.49.6,5.06,5.06,0,0,0-.77-.05c-.05,0-.08,0-.1-.07-.21-.46-.44-.91-.68-1.35a.13.13,0,0,1,0-.08s0-.08.07-.1.06,0,.08.06l.64,1.18a.57.57,0,0,0,.21.25c.06,0,.09,0,.09,0a.54.54,0,0,0-.05-.28l-.19-.4h.06l0,0S26.74,35.52,26.77,35.52Z"/><path class="cls-3" d="M16.09,13.1a16.48,16.48,0,0,1,.18-2c0-.09,0-.08.08,0a2.43,2.43,0,0,0,.3.24s0,0,0,.07A10.38,10.38,0,0,0,16.12,13,.3.3,0,0,1,16.09,13.1Z"/><path class="cls-2" d="M29.67,30l0,.05c-.29.31-.58.63-.88.93-.06.05-.09.06-.14,0-.19-.25-.19-.17,0-.38l.63-.63a.14.14,0,0,1,.15,0l.21,0S29.67,30,29.67,30Z"/><path class="cls-3" d="M14.09,34.46h.54a.3.3,0,0,1,.15,0c.13.1.27.21.41.3s.06.07,0,.11l-.27.24s-.06,0-.09,0l-.76-.66Z"/><path class="cls-2" d="M14.69,32.33c0-.06,0-.13-.07-.16s0-.06,0-.07a1.33,1.33,0,0,1,.19-.14,1.24,1.24,0,0,0,.29-.27,1.17,1.17,0,0,1,.45-.35,1.1,1.1,0,0,0,.48-.4c.05-.08.15-.12.19-.21h0a.27.27,0,0,1,0,.26c-.49.43-1,.88-1.46,1.3C14.75,32.3,14.73,32.33,14.69,32.33Z"/><path class="cls-3" d="M10.26,10.77c-.22.15-.39.32-.58.44a1.28,1.28,0,0,1-.64.18,1.16,1.16,0,0,1-.45-.16A8.65,8.65,0,0,1,10.26,10.77Z"/><path class="cls-2" d="M18,33.18a.28.28,0,0,1,.34.16,5.91,5.91,0,0,0,.35.52s0,0,0,.09a2.58,2.58,0,0,1-.48,0,.05.05,0,0,1-.06,0c-.13-.22-.27-.43-.38-.66C17.9,33.26,18,33.28,18,33.18Z"/><path class="cls-2" d="M10.08,30.1c.08,0,.16,0,.24,0a5.79,5.79,0,0,1,.6-.12,1.1,1.1,0,0,1,.25,0,2.31,2.31,0,0,0,.74-.08,1.42,1.42,0,0,1,.29,0,3.77,3.77,0,0,0,.89-.06.45.45,0,0,1,.23,0,.76.76,0,0,1-.3.05l-2.21.28a3.45,3.45,0,0,0-.54.11.21.21,0,0,0-.17.27s0,0-.08-.06,0-.06,0-.1A.23.23,0,0,0,10.08,30.1Z"/><path class="cls-2" d="M16.84,34.38l.67,0v0l-.32.26q-.28.23-.57.48c-.07.06-.13.07-.19,0s-.11,0-.13-.11a3.64,3.64,0,0,1,.46-.5A.16.16,0,0,0,16.84,34.38Z"/><path class="cls-3" d="M15.53,35.8l-.4-.37s0-.06,0-.08l.31-.28a.06.06,0,0,1,.09,0l.43.29a.34.34,0,0,1-.15.23A3.3,3.3,0,0,0,15.53,35.8Z"/><path class="cls-2" d="M27.91,33.06c.09.09.14.2.22.29s0,.08,0,.09l-.87,0a1,1,0,0,1-.24,0l.4-.42s.07,0,.11,0S27.77,33.05,27.91,33.06Z"/><path class="cls-3" d="M16.84,34.38a.16.16,0,0,1-.07.12,3.64,3.64,0,0,0-.46.5,2.63,2.63,0,0,1-.41-.27s0,0,0-.07l.27-.23a.12.12,0,0,1,.09,0Z"/><path class="cls-3" d="M7.87,28.66l.63.49s0,0,0,.05a1.22,1.22,0,0,1-.2.25s-.05,0-.08,0l-.37-.21a.11.11,0,0,1-.06-.11C7.84,29,7.85,28.83,7.87,28.66Z"/><path class="cls-2" d="M14.39,34.2l-.57,0a.13.13,0,0,1-.1,0L13.46,34c-.05,0,0-.07,0-.11.25-.22.25-.22.5,0Z"/><path class="cls-2" d="M8.47,37l.87-.54c.31-.19.57-.45.86-.67s.55-.45.84-.64c0,0,.07-.06.11,0a2.23,2.23,0,0,1-.4.35L9,36.85s-.09,0-.11.09C8.78,37.13,8.63,37.09,8.47,37Z"/><path class="cls-2" d="M14.45,36.77a4.48,4.48,0,0,1,.4-.36A5.89,5.89,0,0,0,15.3,36a.06.06,0,0,0,0-.06c.23.13.23.13,0,.3a3.43,3.43,0,0,0-.49.52s0,.06-.08.06Z"/><path class="cls-2" d="M28.15,30.35l0,0c-.19-.2-.19-.21,0-.4,0,0,.07-.05.09-.09a.34.34,0,0,1,.49-.09s.07,0,0,.07l-.54.52Z"/><path class="cls-2" d="M26.88,32.87l-.56.61c-.05.06-.09.05-.13,0s-.11-.2,0-.38A.68.68,0,0,1,26.88,32.87Z"/><path class="cls-3" d="M13,33s0,0,.07,0l.3.27s0,.07,0,.11c-.24.21-.24.21-.47,0s-.2-.18,0-.34A.47.47,0,0,1,13,33Z"/><path class="cls-3" d="M26,28.8a1.63,1.63,0,0,0,.27.31c.27.29.49.62.74.92l.17.19c0,.06-.08.12-.15,0-.36-.48-.74-.93-1.12-1.39V28.8A.22.22,0,0,1,26,28.8Z"/><path class="cls-3" d="M8.41,30.24c.07.14,0,.23-.08.33l-.54.74a.6.6,0,0,1,.09-.46l.5-.61Z"/><path class="cls-3" d="M16.41,30.64s-.07,0-.08,0-.25,0-.39,0l.18-.15.37-.31c.11-.1.16-.09.22.05a.13.13,0,0,1,0,.06C16.6,30.41,16.52,30.55,16.41,30.64Z"/><path class="cls-2" d="M27,32.53c-.05,0-.14,0-.16,0s.06-.09.1-.13l.23-.24c0-.06.09-.07.13,0s.13.11.08.18a.33.33,0,0,1-.27.19Z"/><path class="cls-2" d="M18.47,32.84c.07-.11.19-.17.28-.27s.07-.06.07-.11l.35.33,0,0C18.92,32.82,18.7,32.87,18.47,32.84Z"/><path class="cls-2" d="M15.53,35.8a3.3,3.3,0,0,1,.3-.22.34.34,0,0,0,.15-.23c.24.1.24.1.05.27l-.23.22C15.65,36,15.65,36,15.53,35.8Z"/><path class="cls-3" d="M24,30.22a.42.42,0,0,1,.07.13h0c-.19-.29-.33-.6-.51-.89-.06-.1.05-.12.09-.2l.38.92S24,30.22,24,30.22Z"/><path class="cls-3" d="M25.17,34.69c-.11,0-.23,0-.32-.07a.12.12,0,0,1-.05-.07l.23-.24s.07,0,.09,0a.36.36,0,0,0,.07.1C25.29,34.56,25.29,34.57,25.17,34.69Z"/><path class="cls-3" d="M27.6,29.65l-.37-.46v0l.62.27A.54.54,0,0,1,27.6,29.65Z"/><path class="cls-3" d="M19,32.08c.12-.1.21-.25.37-.3l.14.13a1.3,1.3,0,0,1-.39.31A.32.32,0,0,1,19,32.08Z"/><path class="cls-2" d="M28,31.3c0-.05.05-.07.08-.1s.08-.14.13-.12.13.13.18.21,0,.05,0,.07a1.7,1.7,0,0,0-.19.19A.39.39,0,0,0,28,31.3Z"/><path class="cls-2" d="M27.49,30.56c0-.08.09-.11.14-.17a0,0,0,0,1,.08,0,2.43,2.43,0,0,1,.14.2s0,.07,0,.1-.05.1-.12.11A.69.69,0,0,1,27.49,30.56Z"/><path class="cls-3" d="M27.91,33.06c-.14,0-.28,0-.42,0s-.08,0-.11,0l.14-.16a.19.19,0,0,1,.31,0A.35.35,0,0,1,27.91,33.06Z"/><path class="cls-3" d="M27.11,31c.05.08.12.17.18.25s0,.06,0,.09-.1.11-.17,0L27,31.12A.13.13,0,0,1,27.11,31Z"/><path class="cls-3" d="M25.22,33.38a.16.16,0,0,1-.09.13c-.05,0-.05,0-.07-.07L25,33.25a.09.09,0,0,1,0-.11c.08-.09.1-.09.16,0A2.26,2.26,0,0,1,25.22,33.38Z"/><path class="cls-2" d="M16.41,30.64c.11-.09.19-.23.31-.31.1.15.1.15,0,.25l-.14.12C16.44,30.8,16.44,30.8,16.41,30.64Z"/><path class="cls-3" d="M27.68,32.05a.5.5,0,0,1-.18-.23.33.33,0,0,1,.13-.13s.18.19.17.22S27.72,32,27.68,32.05Z"/><path class="cls-2" d="M26.59,35.32c-.18-.29-.32-.59-.47-.89,0,0,0,0,0,0l.5.92h0A0,0,0,0,0,26.59,35.32Z"/><path class="cls-3" d="M7.79,30.14l0-.34c0-.05,0-.07.07,0s.2.09.06.26A.4.4,0,0,1,7.79,30.14Z"/><path class="cls-2" d="M27.6,29.65a.54.54,0,0,0,.26-.21l.19.08-.3.24s-.05,0-.07,0Z"/><path class="cls-2" d="M9.83,28.52c-.14.2-.28.39-.41.59,0,0-.06,0-.09,0s0-.05,0-.07a6.17,6.17,0,0,1,.48-.54Z"/><path class="cls-3" d="M27.49,30.56a.69.69,0,0,0,.23.25l0,0c-.08.13-.09.13-.18,0l-.09-.12C27.36,30.63,27.36,30.62,27.49,30.56Z"/><path class="cls-2" d="M2,39.21c0-.07.05-.1.09-.15s.23-.31.36-.46.06-.1.13-.1a2,2,0,0,1-.32.44A1.11,1.11,0,0,1,2,39.21Z"/><path class="cls-3" d="M25.48,34c.07,0,.16.1.15.16a.12.12,0,0,1-.08.1.44.44,0,0,1-.14-.22C25.41,34,25.46,34,25.48,34Z"/><path class="cls-3" d="M19.48,33.14s0,.06-.05.06a2.8,2.8,0,0,0-.4,0l0-.09A.72.72,0,0,1,19.48,33.14Z"/><path class="cls-2" d="M22.63,29.54c.07-.09.19-.1.25-.2a.28.28,0,0,1,.17-.11h0a1.81,1.81,0,0,1-.33.29A.15.15,0,0,1,22.63,29.54Z"/><path class="cls-2" d="M20.23,24.41h.1a1.57,1.57,0,0,1,.32.41h0A4,4,0,0,1,20.23,24.41Z"/><path class="cls-3" d="M28,31.3a.39.39,0,0,1,.18.25c-.05.06-.1.05-.14,0a.5.5,0,0,0-.08-.12v-.09Z"/><path class="cls-2" d="M24.07,30.36h0a4.9,4.9,0,0,1,.24.52A2.84,2.84,0,0,1,24.07,30.36Z"/><path class="cls-2" d="M9.08,29.55c0,.05-.05.13-.13.14s-.08,0-.09-.05.1-.15.13-.15A.1.1,0,0,1,9.08,29.55Z"/><path class="cls-2" d="M9.94,29.92v0l-.39-.12s-.06,0,0-.05,0,0,.07,0A3.18,3.18,0,0,0,9.94,29.92Z"/><path class="cls-2" d="M8.41,30.24h0c0-.07.07-.2.2-.16s.07,0,.07.05a.41.41,0,0,1-.05.09s0,0-.07,0S8.44,30.19,8.41,30.24Z"/><path class="cls-2" d="M28,32.47a.42.42,0,0,1,.12-.14s0,0,.06,0a.3.3,0,0,1,.07.1s-.05,0-.07,0Z"/><path class="cls-2" d="M15.79,34.43c-.14.15-.16.15-.31,0Z"/><path class="cls-3" d="M22.09,35.38c.14,0,.22.13.32.2s0,.05,0,.08A1.38,1.38,0,0,1,22.09,35.38Z"/><path class="cls-3" d="M17.37,33.27a2.51,2.51,0,0,1-.55,0l.46,0S17.36,33.21,17.37,33.27Z"/><path class="cls-3" d="M20.93,34.16a.32.32,0,0,1,.25.26Z"/><path class="cls-3" d="M18,33.18c0,.1-.11.08-.19.1a.09.09,0,0,1,0-.06,0,0,0,0,0,0,0Z"/><path class="cls-2" d="M18.27,5.13a1.25,1.25,0,0,1-.1.27s0,0-.05,0a0,0,0,0,1,0-.06Z"/><path class="cls-2" d="M24.5,33.63c.05-.05.07-.11.13-.1s.06.06,0,.08S24.57,33.63,24.5,33.63Z"/><path class="cls-2" d="M19,22.21a.34.34,0,0,1,0,.28A.53.53,0,0,1,19,22.21Z"/><path class="cls-2" d="M17.33,30.9h-.07a.48.48,0,0,1-.09-.19h0A.56.56,0,0,1,17.33,30.9Z"/><path class="cls-3" d="M16.69,34.07a.08.08,0,0,1,.1-.06c.06,0,.13,0,.19,0Z"/><path class="cls-2" d="M13.09,34.26s-.09,0-.13,0S13,34.19,13.09,34.26Z"/><path class="cls-2" d="M13.65,36.81a.27.27,0,0,1,.23,0A.36.36,0,0,1,13.65,36.81Z"/><path class="cls-2" d="M17.92,6.09A.38.38,0,0,1,18,5.84.73.73,0,0,1,17.92,6.09Z"/><path class="cls-2" d="M19.84,24.05a.24.24,0,0,1,.17.15A.49.49,0,0,1,19.84,24.05Z"/><path class="cls-2" d="M18.94,22.92a.19.19,0,0,1,0,.19A.31.31,0,0,1,18.94,22.92Z"/><path class="cls-2" d="M19,22.62a.19.19,0,0,1,0,.19A.31.31,0,0,1,19,22.62Z"/><path class="cls-2" d="M19,21.89a.15.15,0,0,1,0,.18A.37.37,0,0,1,19,21.89Z"/><path class="cls-2" d="M19.05,21.38a.19.19,0,0,1,0,.19A.31.31,0,0,1,19.05,21.38Z"/><path class="cls-2" d="M19,20.73a.14.14,0,0,1,0,.17A.33.33,0,0,1,19,20.73Z"/><path class="cls-2" d="M19.15,23.38a.13.13,0,0,1,.12.12A.34.34,0,0,1,19.15,23.38Z"/><path class="cls-2" d="M15.9,29.54s.07,0,.07-.08.06,0,0,.05S15.94,29.55,15.9,29.54Z"/><path class="cls-2" d="M19,21.66a.11.11,0,0,1,0,.14A.17.17,0,0,1,19,21.66Z"/><path class="cls-2" d="M14.36,29.72a.11.11,0,0,1,.14,0A.17.17,0,0,1,14.36,29.72Z"/><path class="cls-2" d="M26.71,35.42h-.06s0,0,0,0v-.07h0A.15.15,0,0,1,26.71,35.42Z"/><path class="cls-2" d="M13.63,29.81a.07.07,0,0,1,.11,0A.11.11,0,0,1,13.63,29.81Z"/><path class="cls-2" d="M13.42,29.84c0-.05.07,0,.12,0A.13.13,0,0,1,13.42,29.84Z"/><path class="cls-2" d="M15.32,29.61a.08.08,0,0,1,.12,0A.12.12,0,0,1,15.32,29.61Z"/><path class="cls-2" d="M15.51,29.58s.07,0,.12,0A.11.11,0,0,1,15.51,29.58Z"/><path class="cls-2" d="M15.69,29.56a.08.08,0,0,1,.12,0A.13.13,0,0,1,15.69,29.56Z"/><path class="cls-2" d="M14.18,29.75c0-.05.07-.05.12,0A.13.13,0,0,1,14.18,29.75Z"/><path class="cls-2" d="M13.81,29.79s.07,0,.12,0A.17.17,0,0,1,13.81,29.79Z"/><path class="cls-2" d="M14.75,29.68a.08.08,0,0,1,.12,0A.13.13,0,0,1,14.75,29.68Z"/><path class="cls-2" d="M14.57,29.7s.07,0,.12,0A.13.13,0,0,1,14.57,29.7Z"/><path class="cls-2" d="M19.64,23.86a.11.11,0,0,1,.09.09A.13.13,0,0,1,19.64,23.86Z"/><path class="cls-2" d="M8,36.9c0,.06.06,0,.07.07S8,37,8,37,8,36.9,8,36.9Z"/><path class="cls-2" d="M17.76,6.62a.09.09,0,0,1,0-.12A.12.12,0,0,1,17.76,6.62Z"/><path class="cls-2" d="M17.83,6.39a.09.09,0,0,1,0-.12A.12.12,0,0,1,17.83,6.39Z"/><path class="cls-2" d="M15,29.65a.05.05,0,0,1,.09,0A.08.08,0,0,1,15,29.65Z"/><path class="cls-2" d="M15.14,29.63s.06,0,.1,0A.11.11,0,0,1,15.14,29.63Z"/><path class="cls-2" d="M14,29.77a.06.06,0,0,1,.09,0A.08.08,0,0,1,14,29.77Z"/><path class="cls-2" d="M2.53,38.5s0-.08.06-.09S2.56,38.48,2.53,38.5Z"/><path class="cls-2" d="M10,30c.05,0,.07,0,.07.08A.11.11,0,0,1,10,30Z"/><path class="cls-2" d="M15.33,28.77a.07.07,0,0,1-.07-.07A.08.08,0,0,1,15.33,28.77Z"/><path class="cls-2" d="M15.93,29.41s-.07,0-.07-.07A.1.1,0,0,1,15.93,29.41Z"/><path class="cls-2" d="M8.31,37s0,0,.07,0A.06.06,0,0,1,8.31,37Z"/><path class="cls-2" d="M19,20.59a.05.05,0,0,1,0,.08A.06.06,0,0,1,19,20.59Z"/><path class="cls-2" d="M27.94,31.33v.09S27.9,31.36,27.94,31.33Z"/><path class="cls-3" d="M26.63,35.32v.07s0,0-.05-.07A0,0,0,0,1,26.63,35.32Z"/><path class="cls-2" d="M2.73,38.22s0-.06,0-.06S2.77,38.22,2.73,38.22Z"/><path class="cls-2" d="M26,28.8v.06s0,0,0,0S25.94,28.79,26,28.8Z"/><path class="cls-2" d="M2.66,38.32s0-.07,0-.07S2.7,38.31,2.66,38.32Z"/><path class="cls-2" d="M2.61,38.38s0-.06.05-.06S2.65,38.38,2.61,38.38Z"/><path class="cls-2" d="M37.63,24.37s0,0,0,0,0,0,0,0,0,0,0,0Z"/><path class="cls-2" d="M9.93,30S10,30,10,30,9.94,30,9.93,30Z"/><path class="cls-2" d="M15.6,29.07s0,0,0-.05S15.6,29,15.6,29.07Z"/><path class="cls-2" d="M17.57,7.38s0,0,0,0S17.59,7.36,17.57,7.38Z"/><path class="cls-2" d="M17.69,6.9s0,0,0-.05S17.71,6.88,17.69,6.9Z"/><path class="cls-2" d="M13.47,36.78v0h0S13.44,36.78,13.47,36.78Z"/><path class="cls-2" d="M17.6,7.26s0,0,0,0S17.62,7.25,17.6,7.26Z"/><path class="cls-2" d="M19,23.27s.05,0,.05,0A0,0,0,0,1,19,23.27Z"/><path class="cls-2" d="M17.66,7s0,0,0,0A0,0,0,0,1,17.66,7Z"/><path class="cls-2" d="M18.07,5.65s0-.05,0-.07A.06.06,0,0,1,18.07,5.65Z"/><path class="cls-2" d="M8.17,37s0,0,.05,0S8.18,37,8.17,37Z"/><path class="cls-2" d="M17.81,33.19a0,0,0,0,1,0,0,0,0,0,0,1,0,0Z"/><path class="cls-2" d="M17.71,6.81s0,0,0-.06S17.73,6.79,17.71,6.81Z"/><path class="cls-2" d="M17.62,7.17s0,0,0,0S17.64,7.16,17.62,7.17Z"/><path class="cls-2" d="M17.64,7.08s0,0,0,0S17.66,7.07,17.64,7.08Z"/><path class="cls-2" d="M26.77,35.52s0,0,0-.05S26.78,35.49,26.77,35.52Z"/><path class="cls-2" d="M17.55,7.47s0,0,0,0S17.57,7.46,17.55,7.47Z"/><path class="cls-2" d="M26.89,35.71s-.05,0,0-.06A.05.05,0,0,1,26.89,35.71Z"/><path class="cls-2" d="M17.73,6.71s0,0,0,0A0,0,0,0,1,17.73,6.71Z"/><path class="cls-2" d="M19,23.22s.05,0,.05,0A.05.05,0,0,1,19,23.22Z"/><path class="cls-2" d="M37.65,24.31h0a0,0,0,0,1,0,0h0Z"/><polygon class="cls-2" points="17.17 30.72 17.16 30.72 17.16 30.72 17.17 30.72"/><path class="cls-2" d="M9.81,28.51l0,0s0,0,0,0Z"/><path class="cls-2" d="M20.68,24.85h0s0,0,0,0Z"/><path class="cls-2" d="M20.65,24.82s0,0,0,0h0s0,0,0,0Z"/><path class="cls-2" d="M24,30.22s0,0,0,0Z"/><polygon class="cls-3" points="7.54 12.53 7.54 12.54 7.53 12.53 7.54 12.53 7.54 12.53"/><polygon class="cls-2" points="31.48 3.16 31.49 3.16 31.48 3.16 31.48 3.16"/><path class="cls-3" d="M21.22,34.46s0,0,0,0Z"/><path class="cls-2" d="M31.48,3.16l0,0h0l0,0Z"/><path class="cls-1" d="M37.9,18.2a19.15,19.15,0,0,1-.16,2.2,9.39,9.39,0,0,1-.19,1,9.52,9.52,0,0,1-1.5,3.38A6,6,0,0,1,33.17,27a5.85,5.85,0,0,1-3,.25,8.87,8.87,0,0,1-3.91-1.77,14.35,14.35,0,0,1-3.17-3.29,19.62,19.62,0,0,1-3.26-7.63,16.87,16.87,0,0,1-.32-3.95,11.84,11.84,0,0,1,.78-4,7.67,7.67,0,0,1,1.4-2.39c.16-.17.32-.33.49-.49a1.26,1.26,0,0,0,.31-.34.47.47,0,0,1,.14-.14A5.77,5.77,0,0,1,26.55,2a7.41,7.41,0,0,1,2.88.79,11.71,11.71,0,0,1,2.86,2,16.85,16.85,0,0,1,3.34,4.48,19.59,19.59,0,0,1,2,5.91A17.55,17.55,0,0,1,37.9,18.2Zm-17.74-9a1.38,1.38,0,0,1,.61.65,17,17,0,0,0,2.59,3.8A8.86,8.86,0,0,0,25,15.12a3.41,3.41,0,0,0,1.53.58,7.58,7.58,0,0,0,1.43,0,1.48,1.48,0,0,0,.67-.25c.06,0,.08-.06,0-.13a3.63,3.63,0,0,1-.36-.64c0-.05,0-.06-.11-.06a.93.93,0,0,1-.37,0,8.17,8.17,0,0,1-2.14-.82,6.32,6.32,0,0,1-2.43-2.33,14.11,14.11,0,0,1-1.14-2.75,16.79,16.79,0,0,1-.5-2.34,1.92,1.92,0,0,1-.05-.41,1,1,0,0,1,.12-.42s0-.08.09,0a1.55,1.55,0,0,1,.3.71,16.19,16.19,0,0,0,.75,3.07A14.24,14.24,0,0,0,23.61,11a5.81,5.81,0,0,0,1.3,1.58A8.6,8.6,0,0,0,28,14.15c.08,0,.09,0,.06-.06a3,3,0,0,1-.12-.52c0-.16-.06-.29-.25-.33l-.07-.05a4.89,4.89,0,0,1-1.12-1A13,13,0,0,1,25,9.85a12.72,12.72,0,0,1-1.08-3,13.58,13.58,0,0,1-.36-3,.59.59,0,0,1,.14-.44.1.1,0,0,1,.16,0,.43.43,0,0,1,.17.33c0,.24,0,.48.05.72A11.52,11.52,0,0,0,24.44,7a11.43,11.43,0,0,0,1.29,3.18,11.85,11.85,0,0,0,1.56,2.09,3.31,3.31,0,0,0,.53.45c.06,0,.08,0,.09,0a1.94,1.94,0,0,1,.09-.48A.15.15,0,0,0,28,12a3.81,3.81,0,0,1-.53-.67,17.76,17.76,0,0,1-1-2.1A8.16,8.16,0,0,1,25.82,5a4.63,4.63,0,0,1,.47-1.46.55.55,0,0,1,.33-.3c.06,0,.09,0,.11.06a.7.7,0,0,1,0,.51c-.09.21-.18.43-.25.65a5,5,0,0,0-.2,1.32,7.33,7.33,0,0,0,.32,2.55,19.33,19.33,0,0,0,1.59,3.42s0,0,0,0a0,0,0,0,0,.06,0,.24.24,0,0,0,.08-.31,9.27,9.27,0,0,1-.44-1.25,12,12,0,0,1-.34-2.46A6.19,6.19,0,0,1,28,4.9a3.55,3.55,0,0,1,.66-1,1.47,1.47,0,0,1,.76-.34,1.75,1.75,0,0,0-.18.26,2.38,2.38,0,0,1-.35.54,2.9,2.9,0,0,0-.25.36A5.26,5.26,0,0,0,28,7.17a11.76,11.76,0,0,0,.41,3.28c.07.26.11.53.19.79,0,.07.05.09.12.06a.63.63,0,0,1,.23-.08c.08,0,.11-.05.09-.13A10.88,10.88,0,0,1,29,8.81a3.68,3.68,0,0,1,.46-1.75,2.32,2.32,0,0,1,1.1-1,3.74,3.74,0,0,1,1.78-.23l.32,0s0-.06,0-.08a11.49,11.49,0,0,0-3.43-2.6,6.7,6.7,0,0,0-3.46-.73,5.05,5.05,0,0,0-2.79,1.09.59.59,0,0,1-.19.13.54.54,0,0,0-.26.16,7.6,7.6,0,0,0-1.41,2,11.31,11.31,0,0,0-1.06,4,16.31,16.31,0,0,0,.18,4.07,19.15,19.15,0,0,0,3.11,7.72,14.68,14.68,0,0,0,2.07,2.45s.08.09.15.05A1.48,1.48,0,0,1,26,24a5.83,5.83,0,0,0,.92-.21,6.3,6.3,0,0,0,1.86-1,4.86,4.86,0,0,0,1.7-2.41A12.45,12.45,0,0,0,31,17.08c0-.22,0-.18-.18-.2s-.09,0-.08.08a1.07,1.07,0,0,1-.07.5,8.4,8.4,0,0,1-1.23,2.26,3.27,3.27,0,0,1-1.38,1.06,4.37,4.37,0,0,1-1.13.29,4.53,4.53,0,0,1-2.47-.23A6.4,6.4,0,0,1,23,20a2.1,2.1,0,0,1-.3-.22.35.35,0,0,1-.1-.22.17.17,0,0,1,.18-.19.45.45,0,0,1,.29.1l.69.46a4.61,4.61,0,0,0,1.4.62,4.89,4.89,0,0,0,2.25-.08,2.91,2.91,0,0,0,1.7-1.12,10,10,0,0,0,1-1.68,3.67,3.67,0,0,0,.27-.81.11.11,0,0,0-.08-.15L30,16.6c-.05,0-.08,0-.12,0a2.61,2.61,0,0,1-.56.54,6.2,6.2,0,0,1-1.89,1.07A4.29,4.29,0,0,1,24.31,18a10.63,10.63,0,0,1-1.67-1,7.18,7.18,0,0,1-1.78-1.74,1.12,1.12,0,0,1-.19-.61.86.86,0,0,1,.64.4c.19.24.38.48.59.7a8,8,0,0,0,1.71,1.3,5.87,5.87,0,0,0,1.34.63,3.76,3.76,0,0,0,2.74-.14,10.57,10.57,0,0,0,1.88-1.21c.06-.05.05-.09,0-.13a3.78,3.78,0,0,1-.41-.39c-.06-.07-.12-.11-.2,0a.29.29,0,0,1-.16.07,1.27,1.27,0,0,0-.38.11,2.38,2.38,0,0,1-.53.11l-.5,0a3.75,3.75,0,0,1-2.47-.54A8.31,8.31,0,0,1,23.3,14.3a17.21,17.21,0,0,1-3-4.35A1.24,1.24,0,0,1,20.16,9.19Zm5.68,15.28a.13.13,0,0,0,.07.09,10.56,10.56,0,0,0,1.5,1.08,9.18,9.18,0,0,0,1.86.85c.07,0,.15.05.17-.06a.79.79,0,0,1,.25-.42,10.6,10.6,0,0,0,1-1.2,6.72,6.72,0,0,0,1.17-2.44,11.7,11.7,0,0,0,.29-2,9.12,9.12,0,0,0,0-1.28,18.13,18.13,0,0,0-.5-2.3c0-.07,0-.07-.1-.05a.86.86,0,0,1-.21.07c-.07,0-.08.06-.06.12a3.3,3.3,0,0,1,.09.83,8.65,8.65,0,0,1-.26,2A5.64,5.64,0,0,1,29,23.13a6.48,6.48,0,0,1-2.26,1.16A7.42,7.42,0,0,1,25.84,24.47Zm7.26,2s.08,0,.11,0a5.58,5.58,0,0,0,2.42-1.93.16.16,0,0,0,0-.15.74.74,0,0,1,0-.42,8.61,8.61,0,0,0,.1-2.27,16.66,16.66,0,0,0-.5-2.79,6.83,6.83,0,0,0-2.69-3.68c-.05,0-.08,0-.08,0a3.19,3.19,0,0,1-.06.53s0,.08,0,.11a2.22,2.22,0,0,1,.36.39,5.89,5.89,0,0,1,.87,1.8,10.21,10.21,0,0,1,.57,3.51,15.41,15.41,0,0,1-.31,2.71A9.09,9.09,0,0,1,33.1,26.45Zm-.25.1a.34.34,0,0,1-.11-.41,1.34,1.34,0,0,1,.07-.18,10.21,10.21,0,0,0,.55-1.52,13.11,13.11,0,0,0,.33-2.16,9.5,9.5,0,0,0,0-1.51,12.05,12.05,0,0,0-.52-2.58,6.19,6.19,0,0,0-1-1.9c0-.06-.06-.06-.09,0a1.56,1.56,0,0,1-.16.2.09.09,0,0,0,0,.13,3.8,3.8,0,0,1,.4,1,7.25,7.25,0,0,1,.31,2.12,17.75,17.75,0,0,1-.15,1.79,7.46,7.46,0,0,1-.87,2.69,10,10,0,0,1-1.5,2,1,1,0,0,1-.56.37A5.67,5.67,0,0,0,32.85,26.55Zm-3.6-14.89a.9.9,0,0,0-.79.7,2,2,0,0,0-.06.81,4.24,4.24,0,0,0,1,2.28,2.82,2.82,0,0,0,1.15.86.91.91,0,0,0,1.33-.7,2.41,2.41,0,0,0,0-1.07,4.22,4.22,0,0,0-1.48-2.42A1.9,1.9,0,0,0,29.25,11.66ZM34.63,8.5a.11.11,0,0,0,0-.05,17,17,0,0,0-1.26-1.79.08.08,0,0,0-.11,0A.26.26,0,0,1,33,6.56a.78.78,0,0,0-.4-.19,3,3,0,0,0-.89-.06,2.5,2.5,0,0,0-1.22.35,2.16,2.16,0,0,0-.93,1.58,10,10,0,0,0,0,2.68c0,.26,0,.26.28.33l.09,0c.08,0,.1,0,.11-.08a2.1,2.1,0,0,1,.14-.6A7.32,7.32,0,0,1,31.08,9a3,3,0,0,1,.51-.49,2.43,2.43,0,0,1,2.94,0S34.58,8.52,34.63,8.5Zm1.52,15.12c.05,0,.05-.06.07-.1A9.84,9.84,0,0,0,37.13,21a1.38,1.38,0,0,0,0-.64,12.24,12.24,0,0,0-1.55-3.95A5.54,5.54,0,0,0,34,14.56c-.47-.31-1-.56-1.46-.84a1,1,0,0,0-.3-.09c-.08,0-.1,0-.07.08a3.92,3.92,0,0,1,.22.74.12.12,0,0,0,.07.1,4.1,4.1,0,0,1,.77.54,6.93,6.93,0,0,1,2.43,3.47,13.13,13.13,0,0,1,.53,2.71,8.54,8.54,0,0,1,.08,1.6C36.21,23.12,36.18,23.36,36.15,23.62Zm1-8.06a.22.22,0,0,0,0-.14,19.44,19.44,0,0,0-.58-2.51.59.59,0,0,0-.06-.14,4.91,4.91,0,0,0-1.31-1.26,4.75,4.75,0,0,0-1.62-.73,1.92,1.92,0,0,0-1.51.24,2.74,2.74,0,0,0-.79.9c-.15.23-.14.24,0,.46.06.07.1.08.18,0a2.47,2.47,0,0,1,1.33-.34,3.29,3.29,0,0,1,1.18.32A6.3,6.3,0,0,1,36,14l.54.69A6.82,6.82,0,0,1,37.19,15.56Zm-1.06-4a.37.37,0,0,1,0-.08c-.25-.63-.53-1.25-.84-1.85a.14.14,0,0,0-.08-.07.77.77,0,0,1-.29-.17l-.6-.47a2,2,0,0,0-.52-.33,2.05,2.05,0,0,0-2.24.6,6.24,6.24,0,0,0-.94,1.54,3.34,3.34,0,0,0-.14.52.35.35,0,0,0,.2.46l.07,0c.05.05.09.05.12,0a4,4,0,0,1,.24-.38,2.6,2.6,0,0,1,1.5-1.08,2.73,2.73,0,0,1,1.33.07,5.5,5.5,0,0,1,1.93,1Zm1.25,7.5a.2.2,0,0,1,0-.07,15.5,15.5,0,0,0,0-2.36c0-.1,0-.21-.16-.21s-.14-.09-.19-.16a2.12,2.12,0,0,1-.11-.21,5,5,0,0,0-.45-.74c-.18-.24-.4-.46-.57-.71A5.66,5.66,0,0,0,34.12,13,2.23,2.23,0,0,0,32,12.74c-.26.11-.27.13-.11.36,0,0,0,.05.09,0a1.57,1.57,0,0,1,.95.23l.83.47a5.53,5.53,0,0,1,1.83,1.57A11.31,11.31,0,0,1,37,18.17C37.16,18.46,37.26,18.76,37.38,19.06Z"/><path class="cls-1" d="M21.55,37.21s.05,0,0,0h0l0,0Z"/><path class="cls-1" d="M21.57,37.26s0,0,0,0h0s0,0,0,0Z"/><path class="cls-1" d="M21.59,37.29h0l0,0Z"/><path class="cls-2" d="M20.16,9.19a1.24,1.24,0,0,0,.12.76,17.21,17.21,0,0,0,3,4.35,8.31,8.31,0,0,0,1.61,1.34,3.75,3.75,0,0,0,2.47.54l.5,0a2.38,2.38,0,0,0,.53-.11,1.27,1.27,0,0,1,.38-.11.29.29,0,0,0,.16-.07c.08-.08.14,0,.2,0a3.78,3.78,0,0,0,.41.39c.06,0,.07.08,0,.13a10.57,10.57,0,0,1-1.88,1.21,3.76,3.76,0,0,1-2.74.14,5.87,5.87,0,0,1-1.34-.63,8,8,0,0,1-1.71-1.3c-.21-.22-.4-.46-.59-.7a.86.86,0,0,0-.64-.4,1.12,1.12,0,0,0,.19.61,7.18,7.18,0,0,0,1.78,1.74,10.63,10.63,0,0,0,1.67,1,4.29,4.29,0,0,0,3.15.19,6.2,6.2,0,0,0,1.89-1.07,2.61,2.61,0,0,0,.56-.54c0-.05.07,0,.12,0l.25.12a.11.11,0,0,1,.08.15,3.67,3.67,0,0,1-.27.81,10,10,0,0,1-1,1.68,2.91,2.91,0,0,1-1.7,1.12,4.89,4.89,0,0,1-2.25.08,4.61,4.61,0,0,1-1.4-.62l-.69-.46a.45.45,0,0,0-.29-.1.17.17,0,0,0-.18.19.35.35,0,0,0,.1.22A2.1,2.1,0,0,0,23,20a6.4,6.4,0,0,0,1.46.83,4.53,4.53,0,0,0,2.47.23,4.37,4.37,0,0,0,1.13-.29,3.27,3.27,0,0,0,1.38-1.06,8.4,8.4,0,0,0,1.23-2.26,1.07,1.07,0,0,0,.07-.5c0-.07,0-.09.08-.08s.19,0,.18.2a12.45,12.45,0,0,1-.52,3.21,4.86,4.86,0,0,1-1.7,2.41,6.3,6.3,0,0,1-1.86,1A5.83,5.83,0,0,1,26,24a1.48,1.48,0,0,0-.5.17c-.07,0-.11,0-.15-.05a14.68,14.68,0,0,1-2.07-2.45,19.15,19.15,0,0,1-3.11-7.72A16.31,16.31,0,0,1,20,9.83a11.31,11.31,0,0,1,1.06-4,7.6,7.6,0,0,1,1.41-2,.54.54,0,0,1,.26-.16.59.59,0,0,0,.19-.13,5.05,5.05,0,0,1,2.79-1.09,6.7,6.7,0,0,1,3.46.73,11.49,11.49,0,0,1,3.43,2.6s0,0,0,.08l-.32,0a3.74,3.74,0,0,0-1.78.23,2.32,2.32,0,0,0-1.1,1A3.68,3.68,0,0,0,29,8.81a10.88,10.88,0,0,0,.07,2.28c0,.08,0,.11-.09.13a.63.63,0,0,0-.23.08c-.07,0-.09,0-.12-.06-.08-.26-.12-.53-.19-.79A11.76,11.76,0,0,1,28,7.17a5.26,5.26,0,0,1,.67-2.45,2.9,2.9,0,0,1,.25-.36,2.38,2.38,0,0,0,.35-.54,1.75,1.75,0,0,1,.18-.26,1.47,1.47,0,0,0-.76.34,3.55,3.55,0,0,0-.66,1,6.19,6.19,0,0,0-.52,2.82,12,12,0,0,0,.34,2.46,9.27,9.27,0,0,0,.44,1.25.24.24,0,0,1-.08.31,0,0,0,0,1-.06,0s0,0,0,0a19.33,19.33,0,0,1-1.59-3.42,7.33,7.33,0,0,1-.32-2.55,5,5,0,0,1,.2-1.32c.07-.22.16-.44.25-.65a.7.7,0,0,0,0-.51c0-.07-.05-.07-.11-.06a.55.55,0,0,0-.33.3A4.63,4.63,0,0,0,25.82,5a8.16,8.16,0,0,0,.58,4.31,17.76,17.76,0,0,0,1,2.1A3.81,3.81,0,0,0,28,12a.15.15,0,0,1,0,.18,1.94,1.94,0,0,0-.09.48c0,.09,0,.09-.09,0a3.31,3.31,0,0,1-.53-.45,11.85,11.85,0,0,1-1.56-2.09A11.43,11.43,0,0,1,24.44,7a11.52,11.52,0,0,1-.39-2.61c0-.24,0-.48-.05-.72a.43.43,0,0,0-.17-.33.1.1,0,0,0-.16,0,.59.59,0,0,0-.14.44,13.58,13.58,0,0,0,.36,3,12.72,12.72,0,0,0,1.08,3,13,13,0,0,0,1.56,2.33,4.89,4.89,0,0,0,1.12,1l.07.05c.19,0,.23.17.25.33a3,3,0,0,0,.12.52c0,.07,0,.09-.06.06a8.6,8.6,0,0,1-3.12-1.54A5.81,5.81,0,0,1,23.61,11a14.24,14.24,0,0,1-.78-1.79,16.19,16.19,0,0,1-.75-3.07,1.55,1.55,0,0,0-.3-.71c-.06-.06-.07,0-.09,0a1,1,0,0,0-.12.42,1.92,1.92,0,0,0,.05.41,16.79,16.79,0,0,0,.5,2.34,14.11,14.11,0,0,0,1.14,2.75,6.32,6.32,0,0,0,2.43,2.33,8.17,8.17,0,0,0,2.14.82.93.93,0,0,0,.37,0c.06,0,.09,0,.11.06a3.63,3.63,0,0,0,.36.64c0,.07,0,.1,0,.13a1.48,1.48,0,0,1-.67.25,7.58,7.58,0,0,1-1.43,0A3.41,3.41,0,0,1,25,15.12a8.86,8.86,0,0,1-1.64-1.48,17,17,0,0,1-2.59-3.8A1.38,1.38,0,0,0,20.16,9.19Zm9.32-5.63h0Z"/><path class="cls-2" d="M25.84,24.47a7.42,7.42,0,0,0,.94-.18A6.48,6.48,0,0,0,29,23.13a5.64,5.64,0,0,0,2.11-3.37,8.65,8.65,0,0,0,.26-2,3.3,3.3,0,0,0-.09-.83c0-.06,0-.1.06-.12a.86.86,0,0,0,.21-.07c.06,0,.09,0,.1.05a18.13,18.13,0,0,1,.5,2.3,9.12,9.12,0,0,1,0,1.28,11.7,11.7,0,0,1-.29,2,6.72,6.72,0,0,1-1.17,2.44,10.6,10.6,0,0,1-1,1.2.79.79,0,0,0-.25.42c0,.11-.1.08-.17.06a9.18,9.18,0,0,1-1.86-.85,10.56,10.56,0,0,1-1.5-1.08A.13.13,0,0,1,25.84,24.47Z"/><path class="cls-2" d="M33.1,26.45a9.09,9.09,0,0,0,.81-2.2,15.41,15.41,0,0,0,.31-2.71A10.21,10.21,0,0,0,33.65,18a5.89,5.89,0,0,0-.87-1.8,2.22,2.22,0,0,0-.36-.39s-.06-.06,0-.11a3.19,3.19,0,0,0,.06-.53c0-.07,0-.07.08,0a6.83,6.83,0,0,1,2.69,3.68,16.66,16.66,0,0,1,.5,2.79,8.61,8.61,0,0,1-.1,2.27.74.74,0,0,0,0,.42.16.16,0,0,1,0,.15,5.58,5.58,0,0,1-2.42,1.93S33.14,26.46,33.1,26.45Z"/><path class="cls-2" d="M32.85,26.55a5.67,5.67,0,0,1-3.24,0,1,1,0,0,0,.56-.37,10,10,0,0,0,1.5-2,7.46,7.46,0,0,0,.87-2.69,17.75,17.75,0,0,0,.15-1.79,7.25,7.25,0,0,0-.31-2.12,3.8,3.8,0,0,0-.4-1,.09.09,0,0,1,0-.13,1.56,1.56,0,0,0,.16-.2c0-.05.05-.05.09,0a6.19,6.19,0,0,1,1,1.9,12.05,12.05,0,0,1,.52,2.58,9.5,9.5,0,0,1,0,1.51,13.11,13.11,0,0,1-.33,2.16A10.21,10.21,0,0,1,32.81,26a1.34,1.34,0,0,0-.07.18A.34.34,0,0,0,32.85,26.55Z"/><path class="cls-2" d="M29.25,11.66a1.9,1.9,0,0,1,1.15.46,4.22,4.22,0,0,1,1.48,2.42,2.41,2.41,0,0,1,0,1.07.91.91,0,0,1-1.33.7,2.82,2.82,0,0,1-1.15-.86,4.24,4.24,0,0,1-1-2.28,2,2,0,0,1,.06-.81A.9.9,0,0,1,29.25,11.66Z"/><path class="cls-2" d="M34.63,8.5c-.05,0-.07,0-.1,0a2.43,2.43,0,0,0-2.94,0,3,3,0,0,0-.51.49,7.32,7.32,0,0,0-.95,1.62,2.1,2.1,0,0,0-.14.6c0,.08,0,.11-.11.08l-.09,0c-.25-.07-.24-.07-.28-.33a10,10,0,0,1,0-2.68,2.16,2.16,0,0,1,.93-1.58,2.5,2.5,0,0,1,1.22-.35,3,3,0,0,1,.89.06.78.78,0,0,1,.4.19.26.26,0,0,0,.28.07.08.08,0,0,1,.11,0,17,17,0,0,1,1.26,1.79A.11.11,0,0,1,34.63,8.5Z"/><path class="cls-2" d="M36.15,23.62c0-.26.06-.5.09-.75a8.54,8.54,0,0,0-.08-1.6,13.13,13.13,0,0,0-.53-2.71,6.93,6.93,0,0,0-2.43-3.47,4.1,4.1,0,0,0-.77-.54.12.12,0,0,1-.07-.1,3.92,3.92,0,0,0-.22-.74c0-.08,0-.1.07-.08a1,1,0,0,1,.3.09c.48.28,1,.53,1.46.84a5.54,5.54,0,0,1,1.64,1.8,12.24,12.24,0,0,1,1.55,3.95,1.38,1.38,0,0,1,0,.64,9.84,9.84,0,0,1-.91,2.57S36.2,23.6,36.15,23.62Z"/><path class="cls-2" d="M37.19,15.56a6.82,6.82,0,0,0-.61-.85L36,14a6.3,6.3,0,0,0-2-1.63,3.29,3.29,0,0,0-1.18-.32,2.47,2.47,0,0,0-1.33.34c-.08.05-.12,0-.18,0-.17-.22-.18-.23,0-.46a2.74,2.74,0,0,1,.79-.9,1.92,1.92,0,0,1,1.51-.24,4.75,4.75,0,0,1,1.62.73,4.91,4.91,0,0,1,1.31,1.26.59.59,0,0,1,.06.14,19.44,19.44,0,0,1,.58,2.51A.22.22,0,0,1,37.19,15.56Z"/><path class="cls-2" d="M36.13,11.56l-.27-.2a5.5,5.5,0,0,0-1.93-1,2.73,2.73,0,0,0-1.33-.07,2.6,2.6,0,0,0-1.5,1.08,4,4,0,0,0-.24.38c0,.07-.07.07-.12,0l-.07,0a.35.35,0,0,1-.2-.46,3.34,3.34,0,0,1,.14-.52,6.24,6.24,0,0,1,.94-1.54,2.05,2.05,0,0,1,2.24-.6,2,2,0,0,1,.52.33l.6.47a.77.77,0,0,0,.29.17.14.14,0,0,1,.08.07c.31.6.59,1.22.84,1.85A.37.37,0,0,0,36.13,11.56Z"/><path class="cls-2" d="M37.38,19.06c-.12-.3-.22-.6-.34-.89a11.31,11.31,0,0,0-1.49-2.76,5.53,5.53,0,0,0-1.83-1.57l-.83-.47a1.57,1.57,0,0,0-.95-.23s-.06,0-.09,0c-.16-.23-.15-.25.11-.36a2.23,2.23,0,0,1,2.16.26,5.66,5.66,0,0,1,1.74,1.6c.17.25.39.47.57.71a5,5,0,0,1,.45.74,2.12,2.12,0,0,0,.11.21c0,.07.11.16.19.16s.15.11.16.21a15.5,15.5,0,0,1,0,2.36A.2.2,0,0,0,37.38,19.06Z"/><polygon class="cls-1" points="29.48 3.56 29.47 3.56 29.47 3.56 29.47 3.55 29.48 3.56"/></g></g></svg>