<svg width="25" height="25" viewBox="0 0 25 25" fill="none" xmlns="http://www.w3.org/2000/svg">
<path d="M12.5 0C5.60747 0 0 6.11739 0 13.6363V19.8863C0 20.2001 0.254403 20.4545 0.568199 20.4545H2.27274V22.7273C2.27274 23.9807 3.29201 25 4.54548 25H6.25003C6.56409 25 6.81823 24.7459 6.81823 24.4318V14.2045C6.81823 13.8905 6.56409 13.6363 6.25003 13.6363H4.54548C3.29206 13.6363 2.27274 14.6556 2.27274 15.9091V13.6363C2.27274 7.37028 6.86089 2.27274 12.5 2.27274C18.1391 2.27274 22.7273 7.37028 22.7273 13.6363V15.9091C22.7273 14.6556 21.7079 13.6363 20.4545 13.6363H18.75C18.4359 13.6363 18.1818 13.8905 18.1818 14.2045V24.4318C18.1818 24.7459 18.4359 25 18.75 25H20.4545C21.7079 25 22.7273 23.9807 22.7273 22.7273V20.4545H24.4318C24.7456 20.4545 25 20.2001 25 19.8863V13.6363C24.9999 6.11739 19.3925 0 12.5 0Z" fill="white"/>
</svg>
