<svg width="100" height="100" viewBox="0 0 100 100" fill="none" xmlns="http://www.w3.org/2000/svg">
<g clip-path="url(#clip0)">
<path d="M45.4232 7.09241H37.515V0H62.485V7.10744H54.5468V27.1225H45.4082L45.4232 7.09241Z" fill="#4E458F"/>
<path d="M31.8727 36.3937L20.4082 63.441H11.4046L0 36.3787H9.82893L16.2815 52.2164L22.8992 36.3787L31.8727 36.3937Z" fill="#4E458F"/>
<path d="M85.6543 56.5291H83.1783V63.336H74.0546V36.2887H87.0948C89.3339 36.2418 91.5579 36.6667 93.6224 37.5358C94.8785 38.1211 96 38.9604 96.9164 40.0009C97.8327 41.0414 98.5241 42.2606 98.9469 43.5817C99.3698 44.9028 99.515 46.2972 99.3734 47.6773C99.2318 49.0573 98.8065 50.393 98.1243 51.6004C97.2014 53.0774 95.8871 54.2687 94.3277 55.0415L100 63.4111H90.2611L85.6543 56.5291ZM89.3007 44.1174C88.5114 43.5021 87.5221 43.2023 86.5246 43.2759H83.1933V49.5869H86.5096C87.5101 49.6671 88.5047 49.3726 89.3007 48.7605C89.8991 48.1271 90.2326 47.2883 90.2326 46.4164C90.2326 45.5445 89.8991 44.7057 89.3007 44.0723V44.1174Z" fill="#4E458F"/>
<path d="M35.7593 72.8776H49.0997C51.8556 72.8231 54.5887 73.3879 57.0979 74.5305C59.307 75.5492 61.1733 77.1884 62.47 79.2488C63.723 81.4401 64.3822 83.9213 64.3822 86.4464C64.3822 88.9714 63.723 91.4527 62.47 93.644C61.1564 95.7146 59.2614 97.3507 57.0228 98.3472C54.5136 99.4897 51.7806 100.055 49.0246 100H35.7443L35.7593 72.8776ZM48.7095 92.8626C49.5646 92.9066 50.4199 92.7805 51.2261 92.4916C52.0323 92.2028 52.7733 91.7569 53.4064 91.1796C54.5447 89.8632 55.1712 88.1802 55.1712 86.4389C55.1712 84.6975 54.5447 83.0145 53.4064 81.6981C52.1204 80.5342 50.4258 79.9289 48.6945 80.0151H44.883V92.8626H48.7095Z" fill="#4E458F"/>
<path d="M13.6105 29.3014V13.5839H30.7773V10.5786H13.6105H10.6093V13.5839V29.3014H13.6105Z" fill="#4E458F"/>
<path d="M88.7005 71.1045V86.807H71.5336V89.8122H88.7005H91.7017V86.807V71.1045H88.7005Z" fill="#4E458F"/>
<path d="M62.47 48.5049H37.485V51.4951H62.47V48.5049Z" fill="#4E458F"/>
</g>
<defs>
<clipPath id="clip0">
<rect width="100" height="100" fill="white"/>
</clipPath>
</defs>
</svg>
