<svg width="50" height="50" viewBox="0 0 50 50" fill="none" xmlns="http://www.w3.org/2000/svg">
<g clip-path="url(#clip0)">
<path d="M22.7119 3.54621H18.7578V0H31.2428V3.55372H27.2737V13.5612H22.7044L22.7119 3.54621Z" fill="#FEFEFE"/>
<path d="M15.9364 18.197L10.2041 31.7206H5.70228L0 18.1895H4.91447L8.14076 26.1083L11.4496 18.1895L15.9364 18.197Z" fill="#FEFEFE"/>
<path d="M42.8272 28.2643H41.5892V31.6677H37.0273V18.1441H43.5475C44.667 18.1206 45.779 18.3331 46.8113 18.7677C47.4393 19.0603 48 19.48 48.4582 20.0002C48.9164 20.5205 49.2621 21.13 49.4735 21.7906C49.6849 22.4511 49.7575 23.1484 49.6867 23.8384C49.6159 24.5284 49.4033 25.1963 49.0622 25.8C48.6007 26.5384 47.9436 27.1341 47.1639 27.5205L50 31.7053H45.1306L42.8272 28.2643ZM44.6504 22.0584C44.2557 21.7508 43.7611 21.6009 43.2623 21.6377H41.5967V24.7932H43.2548C43.7551 24.8333 44.2524 24.6861 44.6504 24.38C44.9496 24.0633 45.1163 23.6439 45.1163 23.2079C45.1163 22.772 44.9496 22.3526 44.6504 22.0359V22.0584Z" fill="#FEFEFE"/>
<path d="M17.8796 36.4386H24.5497C25.9277 36.4113 27.2942 36.6937 28.5488 37.265C29.6534 37.7744 30.5866 38.5939 31.2349 39.6241C31.8614 40.7198 32.191 41.9604 32.191 43.2229C32.191 44.4855 31.8614 45.7261 31.2349 46.8217C30.5781 47.8571 29.6306 48.6751 28.5113 49.1734C27.2567 49.7446 25.8902 50.027 24.5122 49.9998H17.8721L17.8796 36.4386ZM24.3547 46.4311C24.7822 46.453 25.2099 46.39 25.613 46.2456C26.016 46.1011 26.3866 45.8782 26.7031 45.5896C27.2722 44.9314 27.5855 44.0898 27.5855 43.2192C27.5855 42.3485 27.2722 41.507 26.7031 40.8488C26.0601 40.2669 25.2128 39.9642 24.3472 40.0073H22.4414V46.4311H24.3547Z" fill="#FEFEFE"/>
<path d="M6.8048 14.6507V6.79194H15.3882V5.28931H6.8048H5.3042V6.79194V14.6507H6.8048Z" fill="#FEFEFE"/>
<path d="M44.3505 35.5522V43.4035H35.7671V44.9061H44.3505H45.8511V43.4035V35.5522H44.3505Z" fill="#FEFEFE"/>
<path d="M31.2347 24.2524H18.7422V25.7476H31.2347V24.2524Z" fill="#FEFEFE"/>
</g>
<defs>
<clipPath id="clip0">
<rect width="50" height="50" fill="white"/>
</clipPath>
</defs>
</svg>
