<svg xmlns="http://www.w3.org/2000/svg" xmlns:xlink="http://www.w3.org/1999/xlink"><defs>
<clipPath id="clip0">
<rect width="50" height="50" fill="white"/>
</clipPath>

<clipPath id="clip0">
<rect width="100" height="100" fill="white"/>
</clipPath>
</defs><symbol id="audioguide" viewBox="0 0 25 25">
<path d="M12.5 0C5.60747 0 0 6.11739 0 13.6363V19.8863C0 20.2001 0.254403 20.4545 0.568199 20.4545H2.27274V22.7273C2.27274 23.9807 3.29201 25 4.54548 25H6.25003C6.56409 25 6.81823 24.7459 6.81823 24.4318V14.2045C6.81823 13.8905 6.56409 13.6363 6.25003 13.6363H4.54548C3.29206 13.6363 2.27274 14.6556 2.27274 15.9091V13.6363C2.27274 7.37028 6.86089 2.27274 12.5 2.27274C18.1391 2.27274 22.7273 7.37028 22.7273 13.6363V15.9091C22.7273 14.6556 21.7079 13.6363 20.4545 13.6363H18.75C18.4359 13.6363 18.1818 13.8905 18.1818 14.2045V24.4318C18.1818 24.7459 18.4359 25 18.75 25H20.4545C21.7079 25 22.7273 23.9807 22.7273 22.7273V20.4545H24.4318C24.7456 20.4545 25 20.2001 25 19.8863V13.6363C24.9999 6.11739 19.3925 0 12.5 0Z" fill="white"/>
</symbol><symbol id="cross" viewBox="0 0 41 34">
<rect width="50" height="2" transform="matrix(0.766044 0.642788 0.642788 -0.766044 0 1.53223)" fill="black"/>
<rect width="50" height="2" transform="matrix(0.766044 -0.642788 -0.642788 -0.766044 1.90088 33.6714)" fill="black"/>
</symbol><symbol id="logo-white" viewBox="0 0 50 50">
<g clip-path="url(#clip0)">
<path d="M22.7119 3.54621H18.7578V0H31.2428V3.55372H27.2737V13.5612H22.7044L22.7119 3.54621Z" fill="#FEFEFE"/>
<path d="M15.9364 18.197L10.2041 31.7206H5.70228L0 18.1895H4.91447L8.14076 26.1083L11.4496 18.1895L15.9364 18.197Z" fill="#FEFEFE"/>
<path d="M42.8272 28.2643H41.5892V31.6677H37.0273V18.1441H43.5475C44.667 18.1206 45.779 18.3331 46.8113 18.7677C47.4393 19.0603 48 19.48 48.4582 20.0002C48.9164 20.5205 49.2621 21.13 49.4735 21.7906C49.6849 22.4511 49.7575 23.1484 49.6867 23.8384C49.6159 24.5284 49.4033 25.1963 49.0622 25.8C48.6007 26.5384 47.9436 27.1341 47.1639 27.5205L50 31.7053H45.1306L42.8272 28.2643ZM44.6504 22.0584C44.2557 21.7508 43.7611 21.6009 43.2623 21.6377H41.5967V24.7932H43.2548C43.7551 24.8333 44.2524 24.6861 44.6504 24.38C44.9496 24.0633 45.1163 23.6439 45.1163 23.2079C45.1163 22.772 44.9496 22.3526 44.6504 22.0359V22.0584Z" fill="#FEFEFE"/>
<path d="M17.8796 36.4386H24.5497C25.9277 36.4113 27.2942 36.6937 28.5488 37.265C29.6534 37.7744 30.5866 38.5939 31.2349 39.6241C31.8614 40.7198 32.191 41.9604 32.191 43.2229C32.191 44.4855 31.8614 45.7261 31.2349 46.8217C30.5781 47.8571 29.6306 48.6751 28.5113 49.1734C27.2567 49.7446 25.8902 50.027 24.5122 49.9998H17.8721L17.8796 36.4386ZM24.3547 46.4311C24.7822 46.453 25.2099 46.39 25.613 46.2456C26.016 46.1011 26.3866 45.8782 26.7031 45.5896C27.2722 44.9314 27.5855 44.0898 27.5855 43.2192C27.5855 42.3485 27.2722 41.507 26.7031 40.8488C26.0601 40.2669 25.2128 39.9642 24.3472 40.0073H22.4414V46.4311H24.3547Z" fill="#FEFEFE"/>
<path d="M6.8048 14.6507V6.79194H15.3882V5.28931H6.8048H5.3042V6.79194V14.6507H6.8048Z" fill="#FEFEFE"/>
<path d="M44.3505 35.5522V43.4035H35.7671V44.9061H44.3505H45.8511V43.4035V35.5522H44.3505Z" fill="#FEFEFE"/>
<path d="M31.2347 24.2524H18.7422V25.7476H31.2347V24.2524Z" fill="#FEFEFE"/>
</g>

</symbol><symbol id="logo" viewBox="0 0 100 100">
<g clip-path="url(#clip0)">
<path d="M45.4232 7.09241H37.515V0H62.485V7.10744H54.5468V27.1225H45.4082L45.4232 7.09241Z" fill="#4E458F"/>
<path d="M31.8727 36.3937L20.4082 63.441H11.4046L0 36.3787H9.82893L16.2815 52.2164L22.8992 36.3787L31.8727 36.3937Z" fill="#4E458F"/>
<path d="M85.6543 56.5291H83.1783V63.336H74.0546V36.2887H87.0948C89.3339 36.2418 91.5579 36.6667 93.6224 37.5358C94.8785 38.1211 96 38.9604 96.9164 40.0009C97.8327 41.0414 98.5241 42.2606 98.9469 43.5817C99.3698 44.9028 99.515 46.2972 99.3734 47.6773C99.2318 49.0573 98.8065 50.393 98.1243 51.6004C97.2014 53.0774 95.8871 54.2687 94.3277 55.0415L100 63.4111H90.2611L85.6543 56.5291ZM89.3007 44.1174C88.5114 43.5021 87.5221 43.2023 86.5246 43.2759H83.1933V49.5869H86.5096C87.5101 49.6671 88.5047 49.3726 89.3007 48.7605C89.8991 48.1271 90.2326 47.2883 90.2326 46.4164C90.2326 45.5445 89.8991 44.7057 89.3007 44.0723V44.1174Z" fill="#4E458F"/>
<path d="M35.7593 72.8776H49.0997C51.8556 72.8231 54.5887 73.3879 57.0979 74.5305C59.307 75.5492 61.1733 77.1884 62.47 79.2488C63.723 81.4401 64.3822 83.9213 64.3822 86.4464C64.3822 88.9714 63.723 91.4527 62.47 93.644C61.1564 95.7146 59.2614 97.3507 57.0228 98.3472C54.5136 99.4897 51.7806 100.055 49.0246 100H35.7443L35.7593 72.8776ZM48.7095 92.8626C49.5646 92.9066 50.4199 92.7805 51.2261 92.4916C52.0323 92.2028 52.7733 91.7569 53.4064 91.1796C54.5447 89.8632 55.1712 88.1802 55.1712 86.4389C55.1712 84.6975 54.5447 83.0145 53.4064 81.6981C52.1204 80.5342 50.4258 79.9289 48.6945 80.0151H44.883V92.8626H48.7095Z" fill="#4E458F"/>
<path d="M13.6105 29.3014V13.5839H30.7773V10.5786H13.6105H10.6093V13.5839V29.3014H13.6105Z" fill="#4E458F"/>
<path d="M88.7005 71.1045V86.807H71.5336V89.8122H88.7005H91.7017V86.807V71.1045H88.7005Z" fill="#4E458F"/>
<path d="M62.47 48.5049H37.485V51.4951H62.47V48.5049Z" fill="#4E458F"/>
</g>

</symbol><symbol id="menu" viewBox="0 0 50 22">
<rect width="50" height="2" fill="black"/>
<rect y="10" width="50" height="2" fill="black"/>
<rect y="20" width="50" height="2" fill="black"/>
</symbol><symbol id="minus" viewBox="0 0 45 4">
<path d="M2 2L42.5 2" stroke="currentColor" stroke-width="4" stroke-linecap="round" stroke-linejoin="round"/>
</symbol><symbol id="plus" viewBox="0 0 46 45">
<path d="M23 2V42.5" stroke="currentColor" stroke-width="4" stroke-linecap="round" stroke-linejoin="round"/>
<path d="M2.75 22.25L43.25 22.25" stroke="currentColor" stroke-width="4" stroke-linecap="round" stroke-linejoin="round"/>
</symbol></svg>